<svg xmlns="http://www.w3.org/2000/svg" xmlns:xlink="http://www.w3.org/1999/xlink" width="1200" height="271.74" viewBox="0 0 1200 271.74"><defs><clipPath id="a"><rect width="1200" height="271.741" fill="none"/></clipPath></defs><rect width="172.125" height="264.59" transform="translate(0 3.804)" fill="#f7e0dc"/><rect width="151.099" height="20.32" transform="translate(673.929 201.715)" fill="#bc323f"/><rect width="62.15" height="20.32" transform="translate(294.615 53.312)" fill="#9d4e55"/><rect width="62.15" height="20.32" transform="translate(294.615 90.373)" fill="#9d4e55"/><rect width="62.15" height="20.316" transform="translate(294.615 127.488)" fill="#9d4e55"/><rect width="62.15" height="20.316" transform="translate(294.615 165.412)" fill="#9d4e55"/><rect width="62.15" height="20.32" transform="translate(294.615 201.715)" fill="#9d4e55"/><rect width="62.15" height="20.32" transform="translate(294.615 239.237)" fill="#9d4e55"/><rect width="303.007" height="20.32" transform="translate(356.737 53.312)" fill="#bc323f"/><rect width="303.007" height="20.32" transform="translate(356.737 90.373)" fill="#bc323f"/><rect width="303.007" height="20.316" transform="translate(356.737 127.488)" fill="#bc323f"/><rect width="303.007" height="20.316" transform="translate(356.737 165.412)" fill="#bc323f"/><rect width="303.007" height="20.32" transform="translate(356.737 201.715)" fill="#bc323f"/><rect width="303.007" height="20.32" transform="translate(356.737 239.237)" fill="#bc323f"/><rect width="151.419" height="20.32" transform="translate(673.93 53.312)" fill="#bc323f"/><rect width="151.419" height="20.32" transform="translate(673.93 90.373)" fill="#bc323f"/><rect width="151.419" height="20.316" transform="translate(673.93 127.488)" fill="#bc323f"/><rect width="227.53" height="20.316" transform="translate(673.926 165.412)" fill="#bc323f"/><rect width="76.226" height="20.32" transform="translate(825.23 201.715)" fill="#9bc6eb"/><rect width="76.226" height="20.32" transform="translate(825.23 127.488)" fill="#f0cac4"/><rect width="76.226" height="20.32" transform="translate(825.23 53.312)" fill="#f0cac4"/><path d="M170.972,22.927H322.351v20.32H170.972" transform="translate(502.957 67.445)" fill="#bc323f"/><g transform="translate(0 0)"><g clip-path="url(#a)"><path d="M93.252,20.932c2.633-.095,2.921-.268,2.948-1.778V8.192c0-.9-.315-1.439-.9-1.585a14.625,14.625,0,0,0-2.562-.095V5.78c2.751-.095,3.776-.461,4.848-1.7h.56V19.154c.047,1.462.441,1.7,3.071,1.778v.8H93.252Z" transform="translate(272.818 11.994)" fill="#1a1311"/><path d="M97.553,6.067H100.6l.729-1.1,1.486,1.585a.647.647,0,0,1,.193.39c0,.1-.122.217-.292.268l-.438.122v14.3a.523.523,0,0,1-.39.56,2.334,2.334,0,0,1-.757.173c-.217,0-.363-.1-.363-.268V20.12H97.454v3.023a.515.515,0,0,1-.292.508,2.122,2.122,0,0,1-.875.244.351.351,0,0,1-.367-.315V5.114Zm3.216.583H97.454v6.114h3.315Zm0,6.7H97.454v6.161h3.315Zm1.8-1.924c2.239.1,3.142.122,4.237.122h1.119V7.916h-1.336c-1.049,0-1.585.024-3.019.075l-.319-.757c1.632.075,2.192.1,3.339.1h1.336V3.458l2.05.244c.363.047.564.221.564.489,0,.146-.126.292-.323.438l-.678.438V7.333h3.287l1.462-1.659,1.8,1.537c.217.169.268.268.268.39,0,.193-.146.315-.414.315H109.54v3.63H113.8l1.533-1.754,1.782,1.537a.724.724,0,0,1,.292.485c0,.221-.146.315-.418.315h-3.847v3.386h1.147l1.317-1.486,1.553,1.317a.653.653,0,0,1,.292.489c0,.169-.095.264-.292.264h-4.017v7.407c0,.512-.193.8-.828,1.242a1.563,1.563,0,0,1-.875.39c-.292,0-.414-.146-.465-.508-.075-.611-.075-.611-.757-.808l-1.9-.485V22.8l2.192.1.386.024h.169c.315,0,.461-.193.461-.635V16.1h-4.624c-1.119,0-1.947.028-3.969.1l-.268-.8c2.121.1,2.972.122,4.237.122h4.624V12.13h-4.722c-1.021,0-1.872.028-3.969.1ZM104.057,17a5.967,5.967,0,0,1,2.578,1.242,2.942,2.942,0,0,1,1.222,2.046,1.045,1.045,0,0,1-1.021,1.1c-.414,0-.611-.2-.729-.757a5.054,5.054,0,0,0-2.1-3.287Z" transform="translate(282.176 10.173)" fill="#1a1311"/><path d="M104.3,4.585h3.457l.635-.95L110.2,5.121a.579.579,0,0,1,.24.39c0,.193-.193.339-.485.339h-.635c-.875,1.683-.95,1.853-2.8,5.093,2.192,2.337,3.019,4.021,3.019,6.137a3.15,3.15,0,0,1-.95,2.68,2.753,2.753,0,0,1-1.608.706c-.367,0-.512-.193-.54-.635-.02-.583-.067-.658-.674-.8l-1-.217v-.39l1,.024.607.024c1.214,0,1.632-.485,1.632-1.9a7.091,7.091,0,0,0-1.076-3.8,9.424,9.424,0,0,0-.95-1.317,5.01,5.01,0,0,1-.315-.434c.95-2.657,1.317-3.729,1.924-5.85h-3.678v19.1c0,.268-.587.583-1.049.583-.213,0-.438-.118-.438-.24V3.564Zm8.5,0h5.723l.828-.95,1.632,1.194a.581.581,0,0,1,.292.438c0,.169-.146.315-.461.414l-.418.146v8.211c0,.315-.528.607-1.167.607-.24,0-.386-.122-.386-.292v-.706h-3.461a14.45,14.45,0,0,0,1.8,4.214A35.582,35.582,0,0,0,121.3,13.99l1.391,1.214a.659.659,0,0,1,.24.465c0,.217-.24.367-.607.367h-.757c-1.825,1-2.408,1.313-4.162,2.164a13.618,13.618,0,0,0,5.94,4.486,6.786,6.786,0,0,0-1.947,1.656c-3.433-2.267-5.408-5.483-6.551-10.694h-2.341v7.966c1.971-.343,2.341-.414,4.754-.974l.02.339c-2.676,1.119-3.871,1.608-6.575,2.582l-.292.757a.407.407,0,0,1-.339.292c-.1,0-.173-.075-.268-.221L108.32,22.2c1.34-.146,1.533-.169,2.7-.367V3.635Zm6.043.583H112.51V8.751h6.334Zm0,4.166H112.51v3.729h6.334Z" transform="translate(301.303 10.484)" fill="#1a1311"/><path d="M86.149,13.772a4.316,4.316,0,0,1,1.447,3.26c0,2.7-2.109,4.588-5.109,4.588-2.952,0-5.01-1.75-5.01-4.257,0-1.916,1.064-3.283,3.563-4.584-2.475-1.774-3.185-2.72-3.185-4.348,0-2.412,2.01-4.21,4.679-4.21,2.621,0,4.49,1.656,4.49,3.993,0,1.585-.71,2.554-2.98,4.044a11.254,11.254,0,0,1,2.1,1.514M81.683,13.2c-1.841,1.348-2.479,2.337-2.479,3.922,0,2.2,1.368,3.737,3.331,3.737a3.256,3.256,0,0,0,3.406-3.24A3.1,3.1,0,0,0,84.8,15.211a14.125,14.125,0,0,0-2.578-1.679ZM84.73,10.65a3.9,3.9,0,0,0,.737-2.385c0-1.987-1.182-3.287-2.952-3.287a3.013,3.013,0,0,0-3.1,2.905c0,1.466.851,2.318,3.946,3.95A7.214,7.214,0,0,0,84.73,10.65" transform="translate(227.918 12.417)" fill="#1a1311"/><path d="M83.936,6.317a1.616,1.616,0,1,1-3.232,0,1.616,1.616,0,0,1,3.232,0m0,9.172a1.616,1.616,0,1,1-3.232,0,1.616,1.616,0,0,1,3.232,0" transform="translate(237.411 13.864)" fill="#1a1311"/><path d="M82.175,20.207a43.283,43.283,0,0,1,4.892-6.287c2.062-2.337,2.7-3.686,2.7-5.578,0-2.1-.966-3.335-2.6-3.335a3.467,3.467,0,0,0-2.152.733,1.913,1.913,0,0,0-.619,1.088c0,.189.075.307.453.8a1.835,1.835,0,0,1,.54,1.253,1.279,1.279,0,0,1-1.273,1.32A1.71,1.71,0,0,1,82.6,8.365c0-2.223,2.274-4.162,4.876-4.162a4.232,4.232,0,0,1,4.486,4.233,4.768,4.768,0,0,1-.682,2.456c-.473.855-.473.855-2.554,2.885-2.929,2.791-4,3.993-5.176,5.909h4.919c1.675,0,2.077-.331,3.307-2.673l.706.237-1.3,4.115H82.175Z" transform="translate(241.739 12.364)" fill="#1a1311"/><path d="M95.357,12.8a14.879,14.879,0,0,1-1.206,6.382,4.544,4.544,0,0,1-3.875,2.6,4.651,4.651,0,0,1-4.044-2.909A14.768,14.768,0,0,1,85.2,12.843c0-5.317,1.987-8.652,5.172-8.652,2.98,0,4.99,3.477,4.99,8.6m-8.085.213c0,5.459.97,7.99,3.071,7.99a2.1,2.1,0,0,0,1.9-1.112c.639-1.135.97-3.449.97-6.807,0-5.79-.832-8.132-2.909-8.132-2.01,0-3.027,2.72-3.027,8.061" transform="translate(250.623 12.329)" fill="#1a1311"/><path d="M58.977,14.725h7.962l.855-1.143,1.51,1.462a1.13,1.13,0,0,1,.394.631c0,.122-.146.292-.343.367l-.465.169V32.628c0,.512-.315.926-1,1.317a2.109,2.109,0,0,1-.875.268c-.292,0-.394-.122-.414-.489-.051-.414-.1-.56-.272-.607l-2.751-.879.051-.315,3.067.024c.367,0,.41-.047.438-.292V25.663H58.713a12.381,12.381,0,0,1-.733,3.485,9.123,9.123,0,0,1-4.214,4.407,6.842,6.842,0,0,1-2.1.926.186.186,0,0,1-.189-.169c0-.1.095-.2.315-.319A11.535,11.535,0,0,0,56.1,29.416c.832-1.754,1.025-3.658,1.025-9.575,0-2.168-.024-3.508-.146-6.283ZM67.137,25.08V20.5H58.78v2.874c0,.583-.024.926-.047,1.707Zm0-9.772H58.78v4.6h8.357Z" transform="translate(151.43 39.884)" fill="#1a1311"/><path d="M60.068,15.7h2.507l.855-1.045,1.285,1.364a.679.679,0,0,1,.268.512.318.318,0,0,1-.315.292L64.3,16.9V31.24c0,.221-.1.343-.343.465a2.567,2.567,0,0,1-.9.292c-.146,0-.24-.1-.24-.292V29.731H59.941v2.657c0,.339-.56.682-1.143.682a.289.289,0,0,1-.319-.292v-18.2Zm2.751.587H59.945v6.161h2.874Zm0,6.748H59.945v6.114h2.874ZM68.688,24.2h3.658c.41-1.411.461-1.632.8-3.094l1.679.587a.462.462,0,0,1,.319.438.549.549,0,0,1-.319.461l-.583.3L73.268,24.2H76.7l1.025-1.242,1.462,1.147c.193.146.292.264.292.414a.294.294,0,0,1-.315.264H73.73v2.144h2.318l1-1.045,1.34.9c.2.122.292.244.292.39a.363.363,0,0,1-.39.343H73.73v2.337h2.318l1-1.049,1.34.879a.5.5,0,0,1,.315.438.351.351,0,0,1-.367.315h-4.6v2.535H76.7l1.411-1.486,1.758,1.388a.471.471,0,0,1,.24.39.282.282,0,0,1-.292.292H68.787v.879c0,.292-.516.56-1.1.56-.173,0-.244-.075-.244-.221V26.053c-1.293,1.632-2.361,2.7-2.633,2.7a.166.166,0,0,1-.169-.169c0-.122.024-.146.489-.733a25.791,25.791,0,0,0,3.283-6.918l1.829.879a.468.468,0,0,1,.3.39c0,.169-.15.292-.343.339l-.678.169Zm2.29-10.718,1.368,1.072a.678.678,0,0,1,.292.489.369.369,0,0,1-.225.339l-.508.244V21.2c0,.268-.662.611-1.171.611-.17,0-.244-.1-.244-.3V19.939H66.063v-.583H70.49V17.5H66.008v-.587H70.49V14.992h-1.73c-.7,0-1.336.024-2.972.075l-.288-.729c1.167.02,1.849.047,3.26.095h1.683Zm1.411,11.3h-3.6v2.144h3.6Zm0,2.732h-3.6v2.337h3.6Zm0,2.921h-3.6v2.535h3.6Zm.544-16h4.135l.658-.974,1.411,1.293a.669.669,0,0,1,.244.485.407.407,0,0,1-.339.367l-.394.047v5.337a.441.441,0,0,1-.339.461,4.309,4.309,0,0,1-.777.2c-.2,0-.292-.126-.292-.319V19.939H73.1v-.583h4.143V17.5H73.02v-.587h4.222v-1.9H72.933Z" transform="translate(172.031 39.593)" fill="#1a1311"/><path d="M68.081,15.023h9.7L78.8,13.805,80.36,15.24a.914.914,0,0,1,.363.611.542.542,0,0,1-.363.438l-.39.146V31.925c0,.319-.654.611-1.387.611-.225,0-.367-.169-.367-.465V30.853H67.888v1.632a.655.655,0,0,1-.414.71,1.778,1.778,0,0,1-.828.217.452.452,0,0,1-.512-.512V13.876Zm10.134.583H67.888v7.016H78.215Zm0,7.6H67.888V30.27H78.215Z" transform="translate(194.55 40.611)" fill="#1a1311"/><path d="M62.675,24.723c-.024.607-.024,1.242-.024,1.411-.024,1.34-.047,2.341-.047,2.436-.028.39-.051.611-.173,2.511a16.5,16.5,0,0,0,1.778,3.847,28.345,28.345,0,0,0,5.337-8.573l2.069,1.435a.6.6,0,0,1,.268.465c0,.221-.122.339-.441.438l-.8.244a55.807,55.807,0,0,1-6.09,6.429C66.474,38.243,69.1,40,73.443,41.286A5.85,5.85,0,0,0,71.3,43.332a17.454,17.454,0,0,1-9.062-10.694,11.7,11.7,0,0,1-4.162,7.675,16.229,16.229,0,0,1-4.115,2.558,8.362,8.362,0,0,1-2.046.729c-.173,0-.292-.095-.292-.24,0-.126.095-.221.315-.343,3.457-1.632,5.55-3.386,7.036-5.846,1.415-2.412,2-5.286,2-9.965,0-1.1-.051-2.192-.173-4.261l2.436.268c.315.047.536.217.536.461a.6.6,0,0,1-.288.438Zm-6.969,1.9a9.292,9.292,0,0,1,.662,3.579c0,2.511-1.147,4.458-2.633,4.458a.935.935,0,0,1-1-.851.9.9,0,0,1,.2-.583l1.1-1.218a6.564,6.564,0,0,0,1.242-4.021c0-.343,0-.611-.047-1.218Z" transform="translate(151.847 67.499)" fill="#1a1311"/><path d="M60.068,25.14h2.507L63.43,24.1l1.285,1.364a.679.679,0,0,1,.268.512.318.318,0,0,1-.315.292l-.363.075V40.682c0,.221-.1.343-.343.465a2.567,2.567,0,0,1-.9.292c-.146,0-.24-.1-.24-.292V39.173H59.941v2.657c0,.339-.56.682-1.143.682a.289.289,0,0,1-.319-.292V24.02Zm2.751.587H59.945v6.161h2.874Zm0,6.748H59.945v6.114h2.874Zm5.869,1.167h3.658c.41-1.411.461-1.632.8-3.094l1.679.587a.462.462,0,0,1,.319.438.549.549,0,0,1-.319.461l-.583.3-.974,1.313H76.7L77.727,32.4l1.462,1.147c.193.146.292.264.292.414a.294.294,0,0,1-.315.264H73.73V36.37h2.318l1-1.045,1.34.9c.2.122.292.244.292.39a.363.363,0,0,1-.39.343H73.73v2.337h2.318l1-1.049,1.34.879a.5.5,0,0,1,.315.438.351.351,0,0,1-.367.315h-4.6v2.535H76.7l1.411-1.486,1.758,1.387a.471.471,0,0,1,.24.39A.282.282,0,0,1,79.82,43H68.787v.879c0,.292-.516.56-1.1.56-.173,0-.244-.075-.244-.221V35.495c-1.293,1.632-2.361,2.7-2.633,2.7a.166.166,0,0,1-.169-.169c0-.122.024-.146.489-.733a25.791,25.791,0,0,0,3.283-6.918l1.829.879a.468.468,0,0,1,.3.39c0,.169-.15.292-.343.339l-.678.169Zm2.29-10.718L72.346,24a.678.678,0,0,1,.292.489.369.369,0,0,1-.225.339l-.508.244v5.578c0,.268-.662.611-1.171.611-.17,0-.244-.1-.244-.3V29.381H66.063V28.8H70.49V26.945H66.008v-.587H70.49V24.434h-1.73c-.7,0-1.336.024-2.972.075L65.5,23.78c1.167.02,1.849.047,3.26.095h1.683Zm1.411,11.3h-3.6V36.37h3.6Zm0,2.732h-3.6v2.337h3.6Zm0,2.921h-3.6v2.535h3.6Zm.544-16h4.135l.658-.974,1.411,1.293a.669.669,0,0,1,.244.485.407.407,0,0,1-.339.367l-.394.047V30.43a.441.441,0,0,1-.339.461,4.31,4.31,0,0,1-.777.2c-.2,0-.292-.126-.292-.319V29.381H73.1V28.8h4.143V26.945H73.02v-.587h4.222v-1.9H72.933Z" transform="translate(172.031 67.369)" fill="#1a1311"/><path d="M68.081,24.465h9.7L78.8,23.247l1.561,1.439a.907.907,0,0,1,.363.607.532.532,0,0,1-.363.438l-.39.15V41.371c0,.315-.654.607-1.387.607-.225,0-.367-.17-.367-.461V40.3H67.888v1.632a.653.653,0,0,1-.414.706,1.785,1.785,0,0,1-.828.221.452.452,0,0,1-.512-.512V23.322Zm10.134.583H67.888v7.016H78.215Zm0,7.6H67.888v7.064H78.215Z" transform="translate(194.55 68.387)" fill="#1a1311"/><path d="M55.083,39.5c-.78,0-1.439.024-3.047.075l-.217-.757c.631.024,1.194.024,1.384.047,1.025.028,1.707.051,1.88.051h3.165l.8-1.072,1.581,1.778a.518.518,0,0,1,.146.367.383.383,0,0,1-.363.39l-.465.047a24.9,24.9,0,0,1-4.017,7.478,17.361,17.361,0,0,1-3,3.019,3.539,3.539,0,0,1-1.238.733.23.23,0,0,1-.2-.2c0-.095.24-.386.78-.875,2.921-3.071,4.458-5.944,5.968-11.084Zm3.6,11.912,2.408.024c.516-.047.587-.1.564-.485V32.294l2.026.221c.359.02.607.217.607.485a.73.73,0,0,1-.461.587l-.493.24v3.339a18.431,18.431,0,0,0,2.168,5.042l4.9-5.483,1.557,1.659a.429.429,0,0,1,.118.292.546.546,0,0,1-.631.489l-.071-.028-.489-.024-5.018,3.654a16.249,16.249,0,0,0,7.8,6.189A6.334,6.334,0,0,0,71.5,50.832a19.462,19.462,0,0,1-8.159-11.206V51.683A1.559,1.559,0,0,1,62.659,53a1.866,1.866,0,0,1-1.1.536c-.268,0-.292-.075-.465-.855-.024-.071-.118-.146-.315-.217l-2.14-.635Z" transform="translate(151.5 95.001)" fill="#1a1311"/><path d="M60.068,34.582h2.507l.855-1.045L64.715,34.9a.679.679,0,0,1,.268.512.318.318,0,0,1-.315.292l-.363.075V50.124c0,.221-.1.343-.343.465a2.567,2.567,0,0,1-.9.292c-.146,0-.24-.1-.24-.292V48.615H59.941v2.657c0,.339-.56.682-1.143.682a.289.289,0,0,1-.319-.292v-18.2Zm2.751.587H59.945V41.33h2.874Zm0,6.748H59.945v6.114h2.874Zm5.869,1.167h3.658c.41-1.411.461-1.632.8-3.094l1.679.587a.462.462,0,0,1,.319.438.549.549,0,0,1-.319.461l-.583.3-.974,1.313H76.7l1.025-1.242,1.462,1.147c.193.146.292.264.292.414a.294.294,0,0,1-.315.264H73.73v2.144h2.318l1-1.045,1.34.9c.2.122.292.244.292.39a.363.363,0,0,1-.39.343H73.73v2.337h2.318l1-1.049,1.34.879A.5.5,0,0,1,78.7,49a.351.351,0,0,1-.367.315h-4.6v2.535H76.7l1.411-1.486,1.758,1.387a.471.471,0,0,1,.24.39.282.282,0,0,1-.292.292H68.787v.879c0,.292-.516.56-1.1.56-.173,0-.244-.075-.244-.221V44.937c-1.293,1.632-2.361,2.7-2.633,2.7a.166.166,0,0,1-.169-.169c0-.122.024-.146.489-.733a25.791,25.791,0,0,0,3.283-6.918l1.829.879a.468.468,0,0,1,.3.39c0,.169-.15.292-.343.339l-.678.17Zm2.29-10.718,1.368,1.072a.678.678,0,0,1,.292.489.369.369,0,0,1-.225.339l-.508.244v5.578c0,.268-.662.611-1.171.611-.17,0-.244-.1-.244-.3V38.823H66.063V38.24H70.49V36.387H66.008V35.8H70.49V33.876h-1.73c-.7,0-1.336.024-2.972.075l-.288-.729c1.167.02,1.849.047,3.26.095h1.683Zm1.411,11.3h-3.6v2.144h3.6Zm0,2.732h-3.6v2.337h3.6Zm0,2.921h-3.6v2.535h3.6Zm.544-16h4.135l.658-.974,1.411,1.293a.669.669,0,0,1,.244.485.407.407,0,0,1-.339.367l-.394.047v5.337a.441.441,0,0,1-.339.461,4.309,4.309,0,0,1-.777.2c-.2,0-.292-.126-.292-.319V38.823H73.1V38.24h4.143V36.387H73.02V35.8h4.222V33.9H72.933Z" transform="translate(172.031 95.145)" fill="#1a1311"/><path d="M68.081,33.911h9.7L78.8,32.689l1.561,1.439a.906.906,0,0,1,.363.611.542.542,0,0,1-.363.438l-.39.146V50.813c0,.319-.654.607-1.387.607-.225,0-.367-.17-.367-.461V49.741H67.888v1.632a.653.653,0,0,1-.414.706,1.739,1.739,0,0,1-.828.221.452.452,0,0,1-.512-.512V32.764Zm10.134.583H67.888v7.016H78.215Zm0,7.6H67.888v7.064H78.215Z" transform="translate(194.55 96.163)" fill="#1a1311"/><path d="M57.049,48.616c-.268,0-1.049.024-2.2.051-.315.024-1.289.047-2.314.071l-.292-.828c2.948.071,3.291.1,4.8.122h4.675V41.675l2.144.146a.5.5,0,0,1,.489.414.592.592,0,0,1-.3.465l-.706.438v4.9h6.019l1.557-1.707,2.046,1.585a.462.462,0,0,1,.2.367c0,.217-.118.339-.292.339H63.407a18.739,18.739,0,0,0,10.666,9.866,5.2,5.2,0,0,0-2.144,1.9c-4.434-3.118-6.382-5.432-8.573-10.229v12.59a.5.5,0,0,1-.24.489,3.8,3.8,0,0,1-1.147.244c-.169,0-.244-.1-.244-.268V51.419A31.069,31.069,0,0,1,55.342,58.7a15.481,15.481,0,0,1-3.65,2.483.263.263,0,0,1-.248-.244c0-.146.292-.414,1.123-1.072a32.822,32.822,0,0,0,8.522-11.254Z" transform="translate(151.336 122.598)" fill="#1a1311"/><path d="M60.068,44.025h2.507l.855-1.045,1.285,1.364a.679.679,0,0,1,.268.512.318.318,0,0,1-.315.292l-.363.075V59.567c0,.221-.1.343-.343.465a2.567,2.567,0,0,1-.9.292c-.146,0-.24-.1-.24-.292V58.058H59.941v2.657c0,.339-.56.682-1.143.682a.289.289,0,0,1-.319-.292v-18.2Zm2.751.587H59.945v6.161h2.874Zm0,6.748H59.945v6.114h2.874Zm5.869,1.167h3.658c.41-1.411.461-1.632.8-3.094l1.679.587a.462.462,0,0,1,.319.438.549.549,0,0,1-.319.461l-.583.3-.974,1.313H76.7l1.025-1.242,1.462,1.147c.193.146.292.264.292.414a.294.294,0,0,1-.315.264H73.73v2.144h2.318l1-1.045,1.34.9c.2.122.292.244.292.39a.363.363,0,0,1-.39.343H73.73V58.18h2.318l1-1.049,1.34.879a.5.5,0,0,1,.315.438.351.351,0,0,1-.367.315h-4.6V61.3H76.7l1.411-1.486L79.871,61.2a.471.471,0,0,1,.24.39.282.282,0,0,1-.292.292H68.787v.879c0,.292-.516.56-1.1.56-.173,0-.244-.075-.244-.221V54.38c-1.293,1.632-2.361,2.7-2.633,2.7a.166.166,0,0,1-.169-.169c0-.122.024-.146.489-.733a25.791,25.791,0,0,0,3.283-6.918l1.829.879a.468.468,0,0,1,.3.39c0,.169-.15.292-.343.339l-.678.169Zm2.29-10.718,1.368,1.072a.678.678,0,0,1,.292.489.369.369,0,0,1-.225.339l-.508.244v5.578c0,.268-.662.611-1.171.611-.17,0-.244-.1-.244-.3V48.266H66.063v-.583H70.49V45.83H66.008v-.587H70.49V43.319h-1.73c-.7,0-1.336.024-2.972.075l-.288-.729c1.167.02,1.849.047,3.26.095h1.683Zm1.411,11.3h-3.6v2.144h3.6Zm0,2.732h-3.6V58.18h3.6Zm0,2.921h-3.6V61.3h3.6Zm.544-16h4.135l.658-.974,1.411,1.293a.669.669,0,0,1,.244.485.407.407,0,0,1-.339.367l-.394.047v5.337a.441.441,0,0,1-.339.461,4.308,4.308,0,0,1-.777.2c-.2,0-.292-.126-.292-.319V48.266H73.1v-.583h4.143V45.83H73.02v-.587h4.222v-1.9H72.933Z" transform="translate(172.031 122.924)" fill="#1a1311"/><path d="M68.081,43.35h9.7L78.8,42.132l1.561,1.439a.9.9,0,0,1,.363.607.542.542,0,0,1-.363.438l-.39.146v15.5c0,.315-.654.607-1.387.607-.225,0-.367-.169-.367-.461V59.184H67.888v1.632a.653.653,0,0,1-.414.706,1.778,1.778,0,0,1-.828.217.449.449,0,0,1-.512-.508V42.2Zm10.134.583H67.888V50.95H78.215Zm0,7.6H67.888V58.6H78.215Z" transform="translate(194.55 123.942)" fill="#1a1311"/><path d="M63.52,51.937a.441.441,0,0,1,.292.39.324.324,0,0,1-.169.292l-.292.17c2.026,3.362,5.361,5.581,10.4,6.945-.217.146-.414.268-.461.292l-.654.367a4.757,4.757,0,0,0-1.025,1.1C67.178,59.32,64.3,56.569,62.5,52.816a24.9,24.9,0,0,1-6.382,7.257,19.182,19.182,0,0,1-4.407,2.7.167.167,0,0,1-.173-.169c0-.17,0-.17.879-.8a26.746,26.746,0,0,0,8.841-10.718ZM61.451,64.776H56.287c-.926,0-1.726.024-3.9.095l-.24-.8c1,.024,1.995.047,2.286.071.926.024,1.565.051,1.853.051h5.164V60.779H59.724c-1.025,0-1.514.028-2.925.075l-.268-.753,1.778.071c.607.024,1.123.024,1.439.024h4.919l1.293-1.533L67.785,60.1a.42.42,0,0,1,.193.363.313.313,0,0,1-.264.315h-4.6v3.414h5.361L70,62.387l2.117,1.683a.592.592,0,0,1,.146.367.342.342,0,0,1-.292.339H63.11v6.673h1.975A39.531,39.531,0,0,0,67.517,65.6l1.876.95c.244.122.363.268.363.414a.588.588,0,0,1-.438.489l-.583.217-2.85,3.776h3.532L71.1,69.671l2.267,1.8a.382.382,0,0,1,.1.268c0,.146-.1.292-.193.292H56.409c-.292,0-1.048.028-2.164.051-.315.024-1.273.047-2.243.075l-.343-.832,2.562.075c1.045.024,2.117.047,2.239.047h4.99ZM55,65.848a6.094,6.094,0,0,1,2.314,1.265A3.423,3.423,0,0,1,58.53,69.5a1.187,1.187,0,0,1-1.045,1.317.83.83,0,0,1-.662-.319c-.1-.17-.1-.17-.414-1.825a4.369,4.369,0,0,0-1.656-2.535Z" transform="translate(151.609 150.282)" fill="#1a1311"/><path d="M60.068,53.467h2.507l.855-1.045,1.285,1.364a.679.679,0,0,1,.268.512.318.318,0,0,1-.315.292l-.363.075V69.009c0,.221-.1.343-.343.465a2.567,2.567,0,0,1-.9.292c-.146,0-.24-.1-.24-.292V67.5H59.941v2.657c0,.339-.56.682-1.143.682a.289.289,0,0,1-.319-.292v-18.2Zm2.751.587H59.945v6.161h2.874Zm0,6.748H59.945v6.114h2.874Zm5.869,1.167h3.658c.41-1.411.461-1.632.8-3.094l1.679.587a.462.462,0,0,1,.319.438.549.549,0,0,1-.319.461l-.583.3-.974,1.313H76.7l1.025-1.242,1.462,1.147c.193.146.292.264.292.414a.294.294,0,0,1-.315.264H73.73V64.7h2.318l1-1.045,1.34.9c.2.122.292.244.292.39a.363.363,0,0,1-.39.343H73.73v2.337h2.318l1-1.049,1.34.879a.5.5,0,0,1,.315.438.351.351,0,0,1-.367.315h-4.6V70.74H76.7l1.411-1.486,1.758,1.388a.471.471,0,0,1,.24.39.282.282,0,0,1-.292.292H68.787V72.2c0,.292-.516.56-1.1.56-.173,0-.244-.075-.244-.221V63.822c-1.293,1.632-2.361,2.7-2.633,2.7a.166.166,0,0,1-.169-.169c0-.122.024-.146.489-.733a25.791,25.791,0,0,0,3.283-6.918l1.829.879a.468.468,0,0,1,.3.39c0,.17-.15.292-.343.339l-.678.169Zm2.29-10.718,1.368,1.072a.678.678,0,0,1,.292.489.369.369,0,0,1-.225.339L71.9,53.4v5.578c0,.268-.662.611-1.171.611-.17,0-.244-.1-.244-.3V57.708H66.063v-.583H70.49V55.272H66.008v-.587H70.49V52.761h-1.73c-.7,0-1.336.024-2.972.075l-.288-.729c1.167.02,1.849.047,3.26.095h1.683Zm1.411,11.3h-3.6V64.7h3.6Zm0,2.732h-3.6v2.337h3.6Zm0,2.921h-3.6V70.74h3.6Zm.544-16h4.135l.658-.974,1.411,1.293a.669.669,0,0,1,.244.485.407.407,0,0,1-.339.367l-.394.047v5.337a.441.441,0,0,1-.339.461,4.309,4.309,0,0,1-.777.2c-.2,0-.292-.126-.292-.319V57.708H73.1v-.583h4.143V55.272H73.02v-.587h4.222v-1.9H72.933Z" transform="translate(172.031 150.7)" fill="#1a1311"/><path d="M68.081,52.792h9.7L78.8,51.574l1.561,1.439a.907.907,0,0,1,.363.607.542.542,0,0,1-.363.441l-.39.146V69.7c0,.315-.654.607-1.387.607-.225,0-.367-.169-.367-.461V68.626H67.888v1.632a.653.653,0,0,1-.414.706,1.785,1.785,0,0,1-.828.221.452.452,0,0,1-.512-.512V51.649Zm10.134.583H67.888v7.016H78.215Zm0,7.6H67.888v7.064H78.215Z" transform="translate(194.55 151.718)" fill="#1a1311"/><path d="M61.328,69.574H57.6c-.851,0-1.632.024-3.969.1l-.248-.8c2.657.1,3.366.122,4.218.122h3.725V60.658l2.192.244c.39.024.583.2.583.512,0,.193-.095.292-.485.56l-.512.315v6.7H68.2l1.51-1.829,2.022,1.754a.442.442,0,0,1,.173.339.292.292,0,0,1-.3.319h-8.5V80.489h6.208L70.9,78.782l2.022,1.656a.529.529,0,0,1,.169.343.277.277,0,0,1-.268.292H56.334c-1.876,0-2.483.024-4.557.122l-.24-.855c2.188.122,2.8.15,4.8.15h4.994Z" transform="translate(151.609 178.441)" fill="#1a1311"/><path d="M60.068,62.91h2.507l.855-1.045,1.285,1.364a.679.679,0,0,1,.268.512.318.318,0,0,1-.315.292l-.363.075V78.452c0,.221-.1.343-.343.465a2.567,2.567,0,0,1-.9.292c-.146,0-.24-.1-.24-.292V76.943H59.941V79.6c0,.339-.56.682-1.143.682a.29.29,0,0,1-.319-.292V61.79Zm2.751.587H59.945v6.161h2.874Zm0,6.748H59.945v6.114h2.874Zm5.869,1.167h3.658c.41-1.411.461-1.632.8-3.094l1.679.587a.462.462,0,0,1,.319.438.549.549,0,0,1-.319.461l-.583.3-.974,1.313H76.7l1.025-1.242,1.462,1.147c.193.146.292.264.292.414a.294.294,0,0,1-.315.264H73.73V74.14h2.318l1-1.045,1.34.9c.2.122.292.244.292.39a.363.363,0,0,1-.39.343H73.73v2.337h2.318l1-1.048,1.34.879a.5.5,0,0,1,.315.438.351.351,0,0,1-.367.315h-4.6v2.535H76.7L78.113,78.7l1.758,1.387a.471.471,0,0,1,.24.39.282.282,0,0,1-.292.292H68.787v.879c0,.292-.516.56-1.1.56-.173,0-.244-.075-.244-.221V73.265c-1.293,1.632-2.361,2.7-2.633,2.7a.166.166,0,0,1-.169-.17c0-.122.024-.146.489-.733a25.791,25.791,0,0,0,3.283-6.918l1.829.879a.468.468,0,0,1,.3.39c0,.169-.15.292-.343.339l-.678.169Zm2.29-10.718,1.368,1.072a.678.678,0,0,1,.292.489.369.369,0,0,1-.225.339l-.508.244v5.578c0,.268-.662.611-1.171.611-.17,0-.244-.1-.244-.3V67.151H66.063v-.583H70.49V64.715H66.008v-.587H70.49V62.2h-1.73c-.7,0-1.336.024-2.972.075L65.5,61.55c1.167.02,1.849.047,3.26.095h1.683ZM72.389,72h-3.6V74.14h3.6Zm0,2.732h-3.6v2.337h3.6Zm0,2.921h-3.6v2.535h3.6Zm.544-16h4.135l.658-.974,1.411,1.293a.669.669,0,0,1,.244.485.407.407,0,0,1-.339.367l-.394.047V68.2a.441.441,0,0,1-.339.461,4.309,4.309,0,0,1-.777.2c-.2,0-.292-.126-.292-.319V67.151H73.1v-.583h4.143V64.715H73.02v-.587h4.222v-1.9H72.933Z" transform="translate(172.031 178.479)" fill="#1a1311"/><path d="M68.081,62.235h9.7L78.8,61.017l1.561,1.435a.914.914,0,0,1,.363.611.542.542,0,0,1-.363.438l-.39.146V79.137c0,.319-.654.611-1.387.611-.225,0-.367-.17-.367-.465V78.065H67.888V79.7a.655.655,0,0,1-.414.71,1.778,1.778,0,0,1-.828.217.452.452,0,0,1-.512-.512V61.088Zm10.134.583H67.888v7.016H78.215Zm0,7.6H67.888v7.064H78.215Z" transform="translate(194.55 179.497)" fill="#1a1311"/><line x2="709.504" transform="translate(191.955 45.065)" fill="none" stroke="#1a1311" stroke-width="0.567"/><line x2="709.504" transform="translate(191.955 5.062)" fill="none" stroke="#1a1311" stroke-width="0.567"/><line x2="709.504" transform="translate(191.955 82.234)" fill="none" stroke="#1a1311" stroke-width="0.283"/><line x2="709.504" transform="translate(191.955 119.4)" fill="none" stroke="#1a1311" stroke-width="0.283"/><line x2="709.504" transform="translate(191.955 156.566)" fill="none" stroke="#1a1311" stroke-width="0.283"/><line x2="709.504" transform="translate(191.955 193.735)" fill="none" stroke="#1a1311" stroke-width="0.283"/><line x2="709.504" transform="translate(191.955 230.901)" fill="none" stroke="#1a1311" stroke-width="0.283"/><line x2="709.504" transform="translate(191.955 268.067)" fill="none" stroke="#1a1311" stroke-width="0.567"/><line y2="263.325" transform="translate(356.76 5.07)" fill="none" stroke="#1a1311" stroke-width="0.283"/><line y2="263.325" transform="translate(432.454 5.07)" fill="none" stroke="#1a1311" stroke-width="0.283"/><line y2="263.325" transform="translate(508.163 5.07)" fill="none" stroke="#1a1311" stroke-width="0.283"/><line y2="263.325" transform="translate(583.873 5.07)" fill="none" stroke="#1a1311" stroke-width="0.283"/><line y2="263.325" transform="translate(673.89 5.07)" fill="none" stroke="#1a1311" stroke-width="0.283"/><line y2="263.325" transform="translate(659.582 5.07)" fill="none" stroke="#1a1311" stroke-width="0.283"/><line y2="263.325" transform="translate(294.61 5.07)" fill="none" stroke="#1a1311" stroke-width="0.283"/><path d="M111.893,20.562a44.384,44.384,0,0,1,5.041-6.48c2.121-2.412,2.775-3.8,2.775-5.751,0-2.164-1-3.433-2.676-3.433a3.615,3.615,0,0,0-2.219.757,1.964,1.964,0,0,0-.631,1.119c0,.2.075.319.461.828a1.875,1.875,0,0,1,.564,1.293,1.325,1.325,0,0,1-1.317,1.364,1.763,1.763,0,0,1-1.561-1.9c0-2.29,2.337-4.289,5.018-4.289a4.369,4.369,0,0,1,4.632,4.36,4.948,4.948,0,0,1-.706,2.535c-.493.879-.493.879-2.633,2.972-3.023,2.874-4.119,4.115-5.337,6.09h5.069c1.73,0,2.144-.343,3.41-2.751l.729.244-1.34,4.237h-9.279Z" transform="translate(329.162 11.973)" fill="#1a1311"/><path d="M117.344,6.067h3.047l.729-1.1,1.486,1.585a.647.647,0,0,1,.193.39c0,.1-.122.217-.292.268l-.438.122v14.3a.523.523,0,0,1-.39.56,2.334,2.334,0,0,1-.757.173c-.217,0-.363-.1-.363-.268V20.12h-3.315v3.023a.516.516,0,0,1-.292.508,2.122,2.122,0,0,1-.875.244.351.351,0,0,1-.367-.315V5.114Zm3.216.583h-3.315v6.114h3.315Zm0,6.7h-3.315v6.161h3.315Zm1.8-1.924c2.239.1,3.142.122,4.237.122h1.119V7.916h-1.336c-1.048,0-1.585.024-3.019.075l-.319-.757c1.632.075,2.192.1,3.339.1h1.336V3.458l2.05.244c.363.047.564.221.564.489,0,.146-.126.292-.323.438l-.678.438V7.333h3.287l1.462-1.659,1.8,1.537c.217.169.268.268.268.39,0,.193-.146.315-.414.315h-6.405v3.63h4.261l1.533-1.754,1.782,1.537a.724.724,0,0,1,.292.485c0,.221-.146.315-.418.315h-3.847v3.386h1.147L135.4,14.03l1.553,1.317a.653.653,0,0,1,.292.489c0,.169-.095.264-.292.264h-4.017v7.407c0,.512-.193.8-.828,1.242a1.563,1.563,0,0,1-.875.39c-.292,0-.414-.146-.465-.508-.075-.611-.075-.611-.757-.808l-1.9-.485V22.8l2.192.1.386.024h.169c.315,0,.461-.193.461-.635V16.1H126.7c-1.119,0-1.947.028-3.969.1l-.268-.8c2.121.1,2.972.122,4.237.122h4.624V12.13H126.6c-1.021,0-1.872.028-3.969.1ZM123.848,17a5.968,5.968,0,0,1,2.578,1.242,2.942,2.942,0,0,1,1.222,2.046,1.045,1.045,0,0,1-1.021,1.1c-.414,0-.611-.2-.729-.757a5.053,5.053,0,0,0-2.1-3.287Z" transform="translate(340.396 10.173)" fill="#1a1311"/><path d="M124.087,4.585h3.457l.639-.95,1.805,1.486a.579.579,0,0,1,.24.39c0,.193-.2.339-.489.339h-.631c-.879,1.683-.95,1.853-2.8,5.093,2.2,2.337,3.019,4.021,3.019,6.137a3.139,3.139,0,0,1-.95,2.68,2.753,2.753,0,0,1-1.608.706c-.363,0-.509-.193-.536-.635-.024-.583-.071-.658-.678-.8l-1-.217v-.39l1,.024.607.024c1.214,0,1.632-.485,1.632-1.9a7.085,7.085,0,0,0-1.072-3.8,9.292,9.292,0,0,0-.954-1.317,5,5,0,0,1-.315-.434c.954-2.657,1.317-3.729,1.924-5.85H123.7v19.1c0,.268-.587.583-1.052.583-.213,0-.434-.118-.434-.24V3.564Zm8.5,0h5.727l.828-.95,1.632,1.194a.581.581,0,0,1,.292.438c0,.169-.146.315-.465.414l-.414.146v8.211c0,.315-.532.607-1.167.607-.244,0-.39-.122-.39-.292v-.706h-3.457a14.45,14.45,0,0,0,1.8,4.214,35.908,35.908,0,0,0,4.115-3.871L142.48,15.2a.665.665,0,0,1,.244.465c0,.217-.244.367-.607.367h-.761c-1.825,1-2.408,1.313-4.163,2.164a13.662,13.662,0,0,0,5.94,4.486,6.842,6.842,0,0,0-1.947,1.656c-3.433-2.267-5.4-5.483-6.551-10.694h-2.341v7.966c1.979-.343,2.341-.414,4.754-.974l.024.339c-2.676,1.119-3.871,1.608-6.579,2.582l-.292.757a.4.4,0,0,1-.339.292c-.1,0-.169-.075-.268-.221L128.108,22.2c1.34-.146,1.537-.169,2.7-.367V3.635Zm6.043.583H132.3V8.751h6.334Zm0,4.166H132.3v3.729h6.334Z" transform="translate(359.526 10.484)" fill="#1a1311"/><path d="M134.446,12.12c.536.024.607.024.78.024,2.456,0,3.406-1,3.406-3.63,0-2.361-.9-3.626-2.605-3.626a1.967,1.967,0,0,0-2.144,1.632,1.911,1.911,0,0,0,.173.635,2.241,2.241,0,0,1,.169.8,1.232,1.232,0,0,1-1.214,1.269c-.808,0-1.34-.635-1.34-1.585,0-1.924,2.117-3.555,4.651-3.555a4.193,4.193,0,0,1,4.435,4.19,4.415,4.415,0,0,1-1.317,3.165,5.162,5.162,0,0,1-2.144,1.147,4.758,4.758,0,0,1,3,1.6,4.347,4.347,0,0,1,.97,2.8,5.082,5.082,0,0,1-5.38,5.018c-2.487,0-4.726-1.632-4.726-3.457a1.557,1.557,0,0,1,1.486-1.659,1.177,1.177,0,0,1,1.222,1.293,3.231,3.231,0,0,1-.319,1.194,1.454,1.454,0,0,0-.047.315c0,.78,1.12,1.51,2.361,1.51,2.022,0,3.142-1.486,3.142-4.214s-1.19-4.092-3.6-4.092c-.2,0-.371,0-.95.024Z" transform="translate(385.826 12.011)" fill="#1a1311"/><path d="M136.511,6.067h3.043l.733-1.1,1.486,1.585a.638.638,0,0,1,.189.39c0,.1-.122.217-.292.268l-.438.122v14.3a.52.52,0,0,1-.386.56,2.357,2.357,0,0,1-.757.173c-.221,0-.367-.1-.367-.268V20.12h-3.311v3.023a.522.522,0,0,1-.292.508,2.122,2.122,0,0,1-.879.244.347.347,0,0,1-.363-.315V5.114Zm3.213.583h-3.311v6.114h3.311Zm0,6.7h-3.311v6.161h3.311Zm1.8-1.924c2.239.1,3.146.122,4.241.122h1.116V7.916h-1.336c-1.049,0-1.581.024-3.019.075l-.315-.757c1.632.075,2.192.1,3.335.1h1.336V3.458l2.05.244c.367.047.564.221.564.489,0,.146-.126.292-.319.438l-.682.438V7.333h3.288l1.462-1.659,1.8,1.537c.221.169.268.268.268.39,0,.193-.146.315-.414.315h-6.405v3.63h4.265l1.529-1.754,1.782,1.537a.709.709,0,0,1,.292.485c0,.221-.146.315-.418.315H152.1v3.386h1.143l1.317-1.486,1.557,1.317a.653.653,0,0,1,.292.489c0,.169-.095.264-.292.264H152.1v7.407c0,.512-.2.8-.828,1.242a1.571,1.571,0,0,1-.879.39c-.292,0-.414-.146-.461-.508-.079-.611-.079-.611-.757-.808l-1.9-.485V22.8l2.2.1.382.024h.173c.315,0,.461-.193.461-.635V16.1h-4.624c-1.123,0-1.951.028-3.969.1l-.272-.8c2.121.1,2.972.122,4.241.122h4.624V12.13h-4.722c-1.025,0-1.876.028-3.973.1ZM143.011,17a6,6,0,0,1,2.586,1.242,2.95,2.95,0,0,1,1.218,2.046,1.048,1.048,0,0,1-1.025,1.1c-.414,0-.607-.2-.729-.757a5.024,5.024,0,0,0-2.1-3.287Z" transform="translate(396.781 10.173)" fill="#1a1311"/><path d="M143.25,4.585h3.461l.639-.95,1.8,1.486a.586.586,0,0,1,.244.39c0,.193-.2.339-.493.339h-.631c-.879,1.683-.946,1.853-2.8,5.093,2.2,2.337,3.023,4.021,3.023,6.137a3.128,3.128,0,0,1-.954,2.68,2.723,2.723,0,0,1-1.608.706c-.363,0-.508-.193-.532-.635-.024-.583-.075-.658-.682-.8l-1-.217v-.39l1,.024.607.024c1.218,0,1.632-.485,1.632-1.9a7.086,7.086,0,0,0-1.072-3.8,9.423,9.423,0,0,0-.95-1.317,5.008,5.008,0,0,1-.315-.434c.95-2.657,1.313-3.729,1.924-5.85h-3.674v19.1c0,.268-.587.583-1.052.583-.217,0-.434-.118-.434-.24V3.564Zm8.506,0h5.723l.832-.95,1.632,1.194a.592.592,0,0,1,.292.438c0,.169-.146.315-.465.414l-.414.146v8.211c0,.315-.536.607-1.167.607-.248,0-.394-.122-.394-.292v-.706h-3.457a14.448,14.448,0,0,0,1.8,4.214,36.26,36.26,0,0,0,4.119-3.871l1.384,1.214a.671.671,0,0,1,.248.465c0,.217-.248.367-.607.367h-.761c-1.829,1-2.412,1.313-4.162,2.164a13.617,13.617,0,0,0,5.94,4.486,6.785,6.785,0,0,0-1.947,1.656c-3.437-2.267-5.408-5.483-6.555-10.694h-2.337v7.966c1.975-.343,2.337-.414,4.754-.974l.024.339c-2.676,1.119-3.871,1.608-6.579,2.582l-.292.757a.411.411,0,0,1-.343.292c-.095,0-.169-.075-.268-.221L147.271,22.2c1.344-.146,1.541-.169,2.708-.367V3.635Zm6.039.583h-6.33V8.751h6.33Zm0,4.166h-6.33v3.729h6.33Z" transform="translate(415.911 10.484)" fill="#1a1311"/><path d="M158.043,4.076h.706V16.694h2.267v.78h-2.267V19.2c-.02,1.411.315,1.7,2.022,1.7v.828h-6.748v-.828l.292-.024h.512c1.683-.047,2.046-.367,2.022-1.632V17.474h-6.867v-.587Zm-1.194,12.618V7.34l-5.991,9.354Z" transform="translate(441.21 11.991)" fill="#1a1311"/><path d="M155.5,6.067h3.043l.733-1.1,1.486,1.585a.638.638,0,0,1,.189.39c0,.1-.122.217-.292.268l-.438.122v14.3a.52.52,0,0,1-.386.56,2.357,2.357,0,0,1-.757.173c-.221,0-.367-.1-.367-.268V20.12H155.4v3.023a.521.521,0,0,1-.292.508,2.122,2.122,0,0,1-.879.244.347.347,0,0,1-.363-.315V5.114Zm3.213.583H155.4v6.114h3.311Zm0,6.7H155.4v6.161h3.311Zm1.8-1.924c2.239.1,3.146.122,4.241.122h1.115V7.916H164.53c-1.048,0-1.581.024-3.019.075l-.315-.757c1.632.075,2.192.1,3.335.1h1.336V3.458l2.05.244c.367.047.564.221.564.489,0,.146-.126.292-.319.438l-.682.438V7.333h3.287l1.462-1.659,1.8,1.537c.221.169.268.268.268.39,0,.193-.146.315-.414.315h-6.405v3.63h4.265l1.529-1.754,1.782,1.537a.709.709,0,0,1,.292.485c0,.221-.146.315-.418.315h-3.843v3.386h1.143l1.317-1.486,1.557,1.317a.653.653,0,0,1,.292.489c0,.169-.095.264-.292.264h-4.017v7.407c0,.512-.2.8-.828,1.242a1.572,1.572,0,0,1-.879.39c-.292,0-.414-.146-.461-.508-.079-.611-.079-.611-.757-.808l-1.9-.485V22.8l2.2.1.382.024h.174c.315,0,.461-.193.461-.635V16.1H164.85c-1.123,0-1.951.028-3.969.1l-.272-.8c2.121.1,2.972.122,4.241.122h4.624V12.13h-4.722c-1.025,0-1.876.028-3.973.1ZM162,17a6,6,0,0,1,2.586,1.242,2.949,2.949,0,0,1,1.218,2.046,1.048,1.048,0,0,1-1.025,1.1c-.414,0-.607-.2-.729-.757a5.024,5.024,0,0,0-2.1-3.287Z" transform="translate(452.63 10.173)" fill="#1a1311"/><path d="M162.241,4.585H165.7l.635-.95,1.805,1.486a.579.579,0,0,1,.24.39c0,.193-.193.339-.489.339h-.631c-.875,1.683-.95,1.853-2.8,5.093,2.2,2.337,3.019,4.021,3.019,6.137a3.138,3.138,0,0,1-.946,2.68,2.763,2.763,0,0,1-1.608.706c-.363,0-.509-.193-.536-.635-.028-.583-.075-.658-.682-.8l-1-.217v-.39l1,.024.607.024c1.218,0,1.632-.485,1.632-1.9a7.115,7.115,0,0,0-1.068-3.8,9.294,9.294,0,0,0-.954-1.317,5.017,5.017,0,0,1-.315-.434c.954-2.657,1.317-3.729,1.924-5.85h-3.678v19.1c0,.268-.583.583-1.049.583-.217,0-.437-.118-.437-.24V3.564Zm8.5,0h5.727l.828-.95,1.632,1.194a.581.581,0,0,1,.292.438c0,.169-.146.315-.465.414l-.41.146v8.211c0,.315-.536.607-1.171.607-.244,0-.39-.122-.39-.292v-.706h-3.457a14.559,14.559,0,0,0,1.8,4.214,35.268,35.268,0,0,0,4.115-3.871l1.391,1.214a.674.674,0,0,1,.24.465c0,.217-.24.367-.607.367h-.757c-1.825,1-2.412,1.313-4.166,2.164a13.7,13.7,0,0,0,5.944,4.486,6.785,6.785,0,0,0-1.947,1.656c-3.433-2.267-5.4-5.483-6.551-10.694h-2.341v7.966c1.979-.343,2.341-.414,4.75-.974l.028.339c-2.68,1.119-3.875,1.608-6.579,2.582l-.292.757a.407.407,0,0,1-.339.292c-.1,0-.169-.075-.272-.221L166.258,22.2c1.34-.146,1.537-.169,2.7-.367V3.635Zm6.043.583h-6.334V8.751h6.334Zm0,4.166h-6.334v3.729h6.334Z" transform="translate(471.754 10.484)" fill="#1a1311"/><path d="M174.766,12.322a5.438,5.438,0,0,1,3.823-1.632c2.826,0,4.7,2.168,4.7,5.408,0,3.457-2.168,5.723-5.483,5.723-2.531,0-4.58-1.458-4.58-3.264a1.385,1.385,0,0,1,1.34-1.462,1.519,1.519,0,0,1,1.439,1.486.992.992,0,0,1-.169.611.768.768,0,0,0-.122.414c0,.828.879,1.435,2.073,1.435,2.117,0,3.386-1.849,3.386-4.919,0-2.8-1.123-4.336-3.145-4.336a4.4,4.4,0,0,0-3.339,1.754l-.729-.24.9-9.137h7.749l-.268,1.754h-6.894Z" transform="translate(509.597 12.246)" fill="#1a1311"/><path d="M178.528,6.067h3.047l.729-1.1,1.486,1.585a.647.647,0,0,1,.193.39c0,.1-.122.217-.292.268l-.438.122v14.3a.523.523,0,0,1-.39.56,2.334,2.334,0,0,1-.757.173c-.217,0-.363-.1-.363-.268V20.12h-3.315v3.023a.516.516,0,0,1-.292.508,2.122,2.122,0,0,1-.875.244.351.351,0,0,1-.367-.315V5.114Zm3.216.583h-3.315v6.114h3.315Zm0,6.7h-3.315v6.161h3.315Zm1.8-1.924c2.239.1,3.142.122,4.237.122H188.9V7.916h-1.336c-1.048,0-1.585.024-3.019.075l-.319-.757c1.632.075,2.192.1,3.339.1H188.9V3.458l2.05.244c.363.047.564.221.564.489,0,.146-.126.292-.323.438l-.678.438V7.333H193.8l1.462-1.659,1.8,1.537c.217.169.268.268.268.39,0,.193-.146.315-.414.315h-6.405v3.63h4.261l1.533-1.754,1.782,1.537a.724.724,0,0,1,.292.485c0,.221-.146.315-.418.315h-3.847v3.386h1.147l1.317-1.486,1.553,1.317a.653.653,0,0,1,.292.489c0,.169-.095.264-.292.264h-4.017v7.407c0,.512-.193.8-.828,1.242a1.563,1.563,0,0,1-.875.39c-.292,0-.414-.146-.465-.508-.075-.611-.075-.611-.757-.808l-1.9-.485V22.8l2.192.1.386.024h.169c.315,0,.461-.193.461-.635V16.1h-4.624c-1.119,0-1.947.028-3.969.1l-.268-.8c2.121.1,2.972.122,4.237.122h4.624V12.13h-4.722c-1.021,0-1.872.028-3.969.1ZM185.032,17a5.967,5.967,0,0,1,2.578,1.242,2.942,2.942,0,0,1,1.222,2.046,1.045,1.045,0,0,1-1.021,1.1c-.414,0-.611-.2-.729-.757a5.053,5.053,0,0,0-2.1-3.287Z" transform="translate(520.384 10.173)" fill="#1a1311"/><path d="M185.274,4.585h3.457l.635-.95,1.805,1.486a.587.587,0,0,1,.244.39c0,.193-.2.339-.489.339h-.635c-.875,1.683-.95,1.853-2.8,5.093,2.192,2.337,3.015,4.021,3.015,6.137a3.138,3.138,0,0,1-.946,2.68,2.763,2.763,0,0,1-1.608.706c-.363,0-.508-.193-.536-.635-.028-.583-.075-.658-.682-.8l-1-.217v-.39l1,.024.607.024c1.218,0,1.632-.485,1.632-1.9a7.116,7.116,0,0,0-1.068-3.8,9.3,9.3,0,0,0-.954-1.317,5.017,5.017,0,0,1-.315-.434c.954-2.657,1.317-3.729,1.924-5.85h-3.678v19.1c0,.268-.583.583-1.048.583-.217,0-.438-.118-.438-.24V3.564Zm8.5,0H199.5l.828-.95,1.632,1.194a.587.587,0,0,1,.3.438c0,.169-.146.315-.469.414l-.41.146v8.211c0,.315-.536.607-1.171.607-.24,0-.39-.122-.39-.292v-.706h-3.453a14.346,14.346,0,0,0,1.8,4.214,35.9,35.9,0,0,0,4.115-3.871l1.387,1.214a.68.68,0,0,1,.244.465c0,.217-.244.367-.611.367h-.757c-1.825,1-2.408,1.313-4.166,2.164a13.7,13.7,0,0,0,5.944,4.486,6.786,6.786,0,0,0-1.947,1.656c-3.433-2.267-5.4-5.483-6.551-10.694h-2.341v7.966c1.979-.343,2.341-.414,4.75-.974l.028.339c-2.68,1.119-3.871,1.608-6.579,2.582l-.292.757a.407.407,0,0,1-.339.292c-.1,0-.169-.075-.268-.221L189.295,22.2c1.336-.146,1.533-.169,2.7-.367V3.635Zm6.043.583h-6.334V8.751h6.334Zm0,4.166h-6.334v3.729h6.334Z" transform="translate(539.512 10.484)" fill="#1a1311"/><path d="M198.113,11.013c2.606,0,4.407,2.069,4.407,5.069a6.984,6.984,0,0,1-1.679,4.651,4.425,4.425,0,0,1-3.217,1.289c-3.287,0-5.53-3.335-5.53-8.282,0-5.554,2.779-9.645,6.575-9.645,1.975,0,3.559,1.119,3.559,2.511a1.1,1.1,0,0,1-1.218,1.119c-.855,0-1.214-.414-1.462-1.632-.169-.95-.485-1.218-1.388-1.218-1.336,0-2.582,1.289-3.216,3.41a18.177,18.177,0,0,0-.631,4.872c1.265-1.533,2.314-2.144,3.8-2.144m-3.485,7.139c.461,1.947,1.585,3.118,2.972,3.118,1.707,0,2.7-1.707,2.7-4.6,0-2.874-.922-4.312-2.747-4.312a3.034,3.034,0,0,0-2,.757,7.182,7.182,0,0,0-1.238,1.411,14.063,14.063,0,0,0,.315,3.63" transform="translate(565.093 12.046)" fill="#1a1311"/><path d="M197.541,6.067h3.043l.733-1.1L202.8,6.552a.638.638,0,0,1,.189.39c0,.1-.122.217-.292.268l-.438.122v14.3a.52.52,0,0,1-.386.56,2.357,2.357,0,0,1-.757.173c-.221,0-.367-.1-.367-.268V20.12h-3.311v3.023a.522.522,0,0,1-.292.508,2.122,2.122,0,0,1-.879.244.347.347,0,0,1-.363-.315V5.114Zm3.213.583h-3.311v6.114h3.311Zm0,6.7h-3.311v6.161h3.311Zm1.8-1.924c2.239.1,3.146.122,4.241.122h1.115V7.916h-1.336c-1.049,0-1.581.024-3.019.075l-.315-.757c1.632.075,2.192.1,3.335.1h1.336V3.458l2.05.244c.367.047.564.221.564.489,0,.146-.126.292-.319.438l-.682.438V7.333h3.287l1.462-1.659,1.8,1.537c.221.169.268.268.268.39,0,.193-.146.315-.414.315h-6.405v3.63h4.265l1.529-1.754L217.1,11.33a.709.709,0,0,1,.292.485c0,.221-.146.315-.418.315h-3.843v3.386h1.143l1.317-1.486,1.557,1.317a.653.653,0,0,1,.292.489c0,.169-.095.264-.292.264h-4.017v7.407c0,.512-.2.8-.828,1.242a1.572,1.572,0,0,1-.879.39c-.292,0-.414-.146-.461-.508-.079-.611-.079-.611-.757-.808l-1.9-.485V22.8l2.2.1.382.024h.174c.315,0,.461-.193.461-.635V16.1h-4.624c-1.123,0-1.951.028-3.969.1l-.272-.8c2.121.1,2.972.122,4.241.122h4.624V12.13H206.8c-1.025,0-1.876.028-3.973.1ZM204.041,17a6,6,0,0,1,2.586,1.242,2.95,2.95,0,0,1,1.218,2.046,1.048,1.048,0,0,1-1.025,1.1c-.414,0-.607-.2-.729-.757a5.024,5.024,0,0,0-2.1-3.287Z" transform="translate(576.316 10.173)" fill="#1a1311"/><path d="M204.286,4.585h3.457l.635-.95,1.805,1.486a.579.579,0,0,1,.24.39c0,.193-.193.339-.489.339H209.3c-.875,1.683-.95,1.853-2.8,5.093,2.2,2.337,3.019,4.021,3.019,6.137a3.149,3.149,0,0,1-.946,2.68,2.773,2.773,0,0,1-1.612.706c-.359,0-.5-.193-.532-.635-.028-.583-.075-.658-.682-.8l-1-.217v-.39l1,.024.607.024c1.218,0,1.632-.485,1.632-1.9a7.115,7.115,0,0,0-1.068-3.8,9.294,9.294,0,0,0-.954-1.317c-.169-.217-.169-.217-.319-.434.958-2.657,1.317-3.729,1.927-5.85H203.9v19.1c0,.268-.583.583-1.049.583-.217,0-.437-.118-.437-.24V3.564Zm8.5,0h5.727l.828-.95,1.632,1.194a.58.58,0,0,1,.292.438c0,.169-.146.315-.465.414l-.41.146v8.211c0,.315-.536.607-1.171.607-.244,0-.39-.122-.39-.292v-.706H215.37a14.562,14.562,0,0,0,1.8,4.214,35.262,35.262,0,0,0,4.115-3.871l1.391,1.214a.675.675,0,0,1,.24.465c0,.217-.24.367-.607.367h-.757c-1.825,1-2.412,1.313-4.166,2.164a13.7,13.7,0,0,0,5.944,4.486,6.787,6.787,0,0,0-1.947,1.656c-3.433-2.267-5.4-5.483-6.551-10.694h-2.341v7.966c1.979-.343,2.341-.414,4.75-.974l.028.339c-2.68,1.119-3.875,1.608-6.579,2.582l-.292.757a.406.406,0,0,1-.339.292c-.1,0-.169-.075-.272-.221L208.3,22.2c1.34-.146,1.537-.169,2.7-.367V3.635Zm6.043.583h-6.334V8.751h6.334Zm0,4.166h-6.334v3.729h6.334Z" transform="translate(595.44 10.484)" fill="#1a1311"/><path d="M212.927,4.157h9.133V5.229c-3.993,6.015-5.16,8.987-5.16,13.106,0,.607,0,.607.071,1.7V20.4c0,.974-.512,1.608-1.293,1.608-.9,0-1.36-.686-1.36-1.975a13.807,13.807,0,0,1,1.214-5.065,48.648,48.648,0,0,1,5.211-9.09h-5.108c-1.66.028-2.271.54-3.339,2.854l-.709-.343Z" transform="translate(622.437 12.229)" fill="#1a1311"/><path d="M216.9,6.067h3.043l.729-1.1,1.486,1.585a.646.646,0,0,1,.193.39c0,.1-.122.217-.292.268l-.438.122v14.3a.519.519,0,0,1-.39.56,2.335,2.335,0,0,1-.753.173c-.221,0-.367-.1-.367-.268V20.12H216.8v3.023a.515.515,0,0,1-.292.508,2.105,2.105,0,0,1-.875.244.347.347,0,0,1-.363-.315V5.114Zm3.213.583H216.8v6.114h3.315Zm0,6.7H216.8v6.161h3.315Zm1.8-1.924c2.239.1,3.146.122,4.237.122h1.119V7.916h-1.336c-1.048,0-1.585.024-3.019.075l-.319-.757c1.632.075,2.2.1,3.339.1h1.336V3.458l2.05.244c.367.047.564.221.564.489,0,.146-.126.292-.323.438l-.678.438V7.333h3.287l1.462-1.659,1.8,1.537c.217.169.268.268.268.39,0,.193-.146.315-.414.315h-6.405v3.63h4.261l1.533-1.754,1.782,1.537a.709.709,0,0,1,.292.485c0,.221-.146.315-.418.315h-3.843v3.386h1.143l1.317-1.486,1.557,1.317a.666.666,0,0,1,.292.489c0,.169-.1.264-.292.264h-4.017v7.407c0,.512-.2.8-.832,1.242a1.553,1.553,0,0,1-.875.39c-.292,0-.414-.146-.465-.508-.075-.611-.075-.611-.757-.808l-1.9-.485V22.8l2.192.1.386.024h.173c.315,0,.461-.193.461-.635V16.1h-4.624c-1.123,0-1.951.028-3.973.1l-.268-.8c2.121.1,2.972.122,4.241.122h4.624V12.13h-4.726c-1.021,0-1.872.028-3.969.1ZM223.4,17a5.985,5.985,0,0,1,2.582,1.242,2.949,2.949,0,0,1,1.218,2.046,1.045,1.045,0,0,1-1.021,1.1c-.414,0-.611-.2-.729-.757a5.054,5.054,0,0,0-2.1-3.287Z" transform="translate(633.268 10.173)" fill="#1a1311"/><path d="M223.643,4.585H227.1l.631-.95,1.805,1.486a.586.586,0,0,1,.244.39c0,.193-.2.339-.489.339h-.631c-.879,1.683-.954,1.853-2.8,5.093,2.192,2.337,3.019,4.021,3.019,6.137a3.139,3.139,0,0,1-.95,2.68,2.743,2.743,0,0,1-1.608.706c-.363,0-.509-.193-.536-.635-.024-.583-.075-.658-.682-.8l-1-.217v-.39l1,.024.607.024c1.222,0,1.636-.485,1.636-1.9a7.121,7.121,0,0,0-1.072-3.8,9.424,9.424,0,0,0-.95-1.317,5.014,5.014,0,0,1-.315-.434c.95-2.657,1.313-3.729,1.924-5.85h-3.681v19.1c0,.268-.584.583-1.045.583-.221,0-.438-.118-.438-.24V3.564Zm8.5,0h5.723l.828-.95,1.636,1.194a.592.592,0,0,1,.292.438c0,.169-.146.315-.461.414l-.418.146v8.211c0,.315-.536.607-1.171.607-.24,0-.386-.122-.386-.292v-.706h-3.457a14.342,14.342,0,0,0,1.8,4.214,35.917,35.917,0,0,0,4.115-3.871l1.387,1.214a.68.68,0,0,1,.244.465c0,.217-.244.367-.611.367h-.753c-1.829,1-2.409,1.313-4.167,2.164a13.651,13.651,0,0,0,5.944,4.486,6.728,6.728,0,0,0-1.947,1.656c-3.437-2.267-5.408-5.483-6.555-10.694h-2.338v7.966c1.975-.343,2.338-.414,4.75-.974l.024.339c-2.68,1.119-3.871,1.608-6.575,2.582l-.292.757a.416.416,0,0,1-.343.292c-.095,0-.17-.075-.264-.221l-1.49-2.192c1.34-.146,1.533-.169,2.7-.367V3.635Zm6.043.583h-6.331V8.751h6.331Zm0,4.166h-6.331v3.729h6.331Z" transform="translate(652.396 10.484)" fill="#1a1311"/><line y2="263.325" transform="translate(749.599 5.07)" fill="none" stroke="#1a1311" stroke-width="0.283"/><line y2="263.325" transform="translate(825.305 5.07)" fill="none" stroke="#1a1311" stroke-width="0.283"/><path d="M263.752,6.185a25.119,25.119,0,0,1-3.4,5.16,13.074,13.074,0,0,0,3.587,3.4l-1.3,1.49a14.81,14.81,0,0,1-3.283-3.146V24.928H257.4V14.6a22.259,22.259,0,0,1-4.084,3.283L252.1,16.315a28,28,0,0,0,8.916-9.192h-8.037V5.246h4.588V0l2.069.166c.331.028.524.055.524.248,0,.248-.248.359-.607.524V5.246h3.48Zm5.518,17.888c-2.156,0-2.511-.855-2.511-2.318V.221l2.073.221c.193.028.548.083.548.3s-.355.386-.607.469V20.927c0,1.3.39,1.352,1.462,1.352H272.5c1.939,0,2.184-.966,2.515-3.725l2.1.993c-.58,3.008-1.242,4.525-3.67,4.525Z" transform="translate(741.616 0)" fill="#1a1311"/><path d="M265.383,7.875V12.4a25.75,25.75,0,0,0,2.6-1.793l.276,2.073c-.721.552-1.325.993-2.874,2.014v7.178c0,1.711-.166,2.732-2.263,2.732-.859,0-1.656-.083-2.184-.11l-.217-2.152a10.8,10.8,0,0,0,1.9.359c.745,0,.745-.441.745-1.076V15.853c-.993.607-1.655.993-2.294,1.352-.106.441-.189.717-.437.717-.083,0-.225-.083-.363-.276l-1.293-1.876a28.07,28.07,0,0,0,4.387-2.156V7.875h-3.5V5.944h3.5V.035l2.042.331c.331.055.694.11.694.331,0,.248-.28.386-.721.579V5.944h3.09V7.875Zm12.507,9.992V24.8h-2.018v-6.93h-6.543V15.991h6.543V12.869h-5.294V10.993h5.294V7.9h-5.294V6.026h5.294V2.9h-5.656V1.111h13.5V2.9h-5.83V6.026h5.605V7.9H277.89v3.09h5.605v1.876H277.89v3.122H284.3v1.876Z" transform="translate(761.858 0.103)" fill="#1a1311"/><path d="M271.881,5.025a2.474,2.474,0,1,1-4.947,0,2.467,2.467,0,0,1,2.456-2.483,2.5,2.5,0,0,1,2.491,2.483" transform="translate(785.254 7.478)" fill="#1a1311"/><path d="M277.065,4.567V7.275h4.446v9.5h-4.446v2.322h5.113V20.8h-5.113v4.084h-1.931V20.8h-5.325V19.092h5.325V16.77h-4.687v-9.5h4.687V4.567H269.7V2.856h5.436V.014L277.152.1c.363.028.635.083.635.3,0,.3-.528.524-.721.607V2.856h5.554V4.567Zm2.6,4.364h-7.34V11.2h7.34Zm0,3.839h-7.34v2.345h7.34ZM288.8,24.528l-.883-2.152c.635.055,2.322.166,2.846.166s.828-.083.828-1.076V15.308h-5.684a25.738,25.738,0,0,1-2.736,9.523l-1.849-1.076c2.4-3.7,2.869-7.619,2.869-14.356,0-2.014-.079-6.654-.138-8.7h9.468V22.155c0,2.014-.165,2.483-4.722,2.373M291.591,2.58h-5.522c0,.717.055,3.812.055,4.446h5.467Zm0,6.323h-5.467v4.525h5.467Z" transform="translate(793.385 0.041)" fill="#1a1311"/><path d="M289,9.84c-.193,2.483-.414,5.049-2.184,7.73a11.607,11.607,0,0,1-5.794,4.415l-1.935-1.738a9.507,9.507,0,0,0,5.66-3.753,11.158,11.158,0,0,0,1.963-6.654H276.72V7.822H298V9.84Zm5.191-7.209H280.445V.616h13.749Z" transform="translate(814.042 1.812)" fill="#1a1311"/><path d="M300.906,2.556c-1.218.8-1.269.855-1.6,1.3a36.777,36.777,0,0,1-3.867,6.677,39.213,39.213,0,0,1,7.485,7.923l-1.88,1.577a22.185,22.185,0,0,0-3.532-4.722,27.658,27.658,0,0,0-3.37-3.039,26.174,26.174,0,0,1-10.071,7.182L282.411,17.6a20.88,20.88,0,0,0,8.861-5.357,23.359,23.359,0,0,0,5.822-8.971h-11.51V1.342h12.283a2.545,2.545,0,0,0,1.3-.579Z" transform="translate(830.784 2.245)" fill="#1a1311"/><path d="M291.862,7.8a32.865,32.865,0,0,1,9.054,5.384l-1.348,1.931a30.592,30.592,0,0,0-3.788-2.9,22.7,22.7,0,0,0-4.718-2.483V22.016H288.85V.455l2.1.11c.134,0,.769.028.769.386,0,.166-.221.3-.662.607V9.371Z" transform="translate(849.725 1.338)" fill="#1a1311"/><path d="M257.787,21.966c1.431-.883,1.738-1.049,2.594-1.656l.083,2.152c-.914.552-2.156,1.324-2.676,1.656v7.868c0,2.239-1.577,2.263-2.68,2.263-.556,0-1.049-.024-1.711-.083l-.583-2.065c.583.083,1.719.217,2.211.217.828,0,.828-.386.828-.966V25.332c-.717.445-1.876,1.131-2.125,1.3-.138.552-.169.611-.359.611-.166,0-.307-.225-.359-.359l-.966-1.963a30.076,30.076,0,0,0,3.808-1.876V17.161h-3.311V15.423h3.311V9.569L258,9.735c.39.028.583.2.583.3,0,.166-.225.331-.8.717v4.667h2.676v1.738h-2.676Zm17.474-2.152H263.112v3.5h-1.876V18.154h15.9v4.888h-1.876Zm-12.011,2.87h11.073l.662.993a15.571,15.571,0,0,1-4.032,5.909,19.469,19.469,0,0,0,6.543,2.29l-1.242,1.738a20.989,20.989,0,0,1-6.819-2.732,22.317,22.317,0,0,1-6.823,2.952l-1.238-1.652a18.217,18.217,0,0,0,6.543-2.515,15.07,15.07,0,0,1-2.925-4.253l1.656-.662a10.5,10.5,0,0,0,2.787,3.756,11.094,11.094,0,0,0,3.228-4.115H263.25ZM261.54,10.949c.741.055,1.821.166,3.315.166a26.741,26.741,0,0,0,9.551-1.6l1.486,1.384c.055.051.252.248.252.382,0,.166-.2.221-.3.221a3.164,3.164,0,0,1-.887-.138,44.18,44.18,0,0,1-12.641,1.384Zm1.49,2.377a14.921,14.921,0,0,1,2.732,3.035l-1.431,1.076a19.287,19.287,0,0,0-2.653-2.87ZM268,13.133a10.939,10.939,0,0,1,2.46,3.228l-1.522.938a17.284,17.284,0,0,0-2.239-3.09Zm3.532,3.449a14.2,14.2,0,0,0,2.929-4.028l1.711,1.159c.106.083.3.221.3.386,0,.3-.359.276-.745.248a13.475,13.475,0,0,1-2.708,3.311Z" transform="translate(741.451 27.988)" fill="#1a1311"/><path d="M276.382,16.464l.5.359c.106.083.3.221.3.386,0,.276-.331.221-.579.193a6.451,6.451,0,0,1-.938,1.435h5.522v1.573h-8.782v1.77h8.424v1.656h-8.424v1.821H283.34v1.656h-9.054a17.469,17.469,0,0,0,8.447,4.446l-1.6,1.821a23.343,23.343,0,0,1-8.723-5.605v6.488h-1.987V28.029a29.285,29.285,0,0,1-8.916,5.909l-1.246-1.793a22.943,22.943,0,0,0,8.286-4.833H259.65V25.656h10.769V23.835h-8.861V22.179h8.861v-1.77h-9.275V18.837h5.518a7.377,7.377,0,0,0-1.238-1.766l.8-.607h-7.012V14.8h8.833V9.479l1.821.11c.331.028.552.166.552.3s-.221.331-.52.524V14.8h2.838V9.562l1.825.11c.386.028.524.166.524.248,0,.138-.225.331-.441.524V14.8h9v1.659Zm-11.427-2.1a11.557,11.557,0,0,0-2.456-3.449l1.462-.993a11.6,11.6,0,0,1,2.7,3.366Zm2.345,2.1a6.776,6.776,0,0,1,1.242,1.711l-1.1.662h7.146l-.8-.662a7.06,7.06,0,0,0,1.19-1.711Zm12.066-5.191a15.912,15.912,0,0,1-2.57,3.039l-1.293-1.3A19.246,19.246,0,0,0,278.4,9.7l1.3.828c.193.138.437.276.437.5,0,.3-.5.276-.769.248" transform="translate(762.538 27.885)" fill="#1a1311"/><path d="M276.681,31.389a19.909,19.909,0,0,1-3.567-1.908v1.711h-6.985v3.894h6.764v1.849h-6.764v4.695h10.3v1.849h-22.5V41.629h10.134V36.935h-6.989V35.086h6.989V31.274h-7.127V30.033a25.835,25.835,0,0,1-3.311,1.959l-1.659-1.652a24.487,24.487,0,0,0,7.205-4.695,24.128,24.128,0,0,0,5.164-6.736l2.294,1.049c.079.028.469.193.469.441,0,.3-.359.469-.579.579a26.958,26.958,0,0,0,11.707,8.64ZM265,22.055a33.641,33.641,0,0,1-7.127,7.261h14.967A31.509,31.509,0,0,1,265,22.055" transform="translate(741.222 55.626)" fill="#1a1311"/><path d="M267.454,40.913a20.241,20.241,0,0,1-6.874,2.929l-1.439-1.876a19.62,19.62,0,0,0,7.623-2.818l1.628,1.021a.57.57,0,0,1,.272.414c0,.359-.41.359-1.21.331m-5.633-14h17.892V39.092H261.821Zm1.49-7.753h14.825v6.185H263.311Zm14.3,9.413h-13.8v1.876h13.8Zm0,3.366h-13.8v1.931h13.8Zm0,3.453h-13.8v2.042h13.8ZM276.122,20.9h-10.8v2.732h10.8Zm4.446,23a20.773,20.773,0,0,1-7.316-3.449l1.269-1.218a20.007,20.007,0,0,0,7.426,2.787Z" transform="translate(762.329 56.37)" fill="#1a1311"/><path d="M270.751,22.855a24.772,24.772,0,0,0,2.6-3.946l2.014.359c.39.083.524.248.524.386,0,.3-.386.441-.773.607-.8,1.159-1.545,2.125-1.931,2.594H283.4V44.2h-2.069V42.485H268.24v1.793h-2.014V22.855Zm10.58,1.88H268.244v4h13.087Zm0,5.794H268.244v4.056h13.087Zm0,5.771H268.244v4.253h13.087Z" transform="translate(783.171 55.626)" fill="#1a1311"/><path d="M277.723,28.375c.8.055,1.522.11,2.125.11.828,0,.828-.3.828-.966V21.032h-8.723V19.238h10.655v8.64c0,1.849-.575,2.708-4.442,2.428Zm1.734-2.069c-1.9,1.242-3.031,1.987-5.349,3.394-.087.386-.169.745-.363.745a.4.4,0,0,1-.331-.248l-1.159-1.821a47.673,47.673,0,0,0,7.123-4.17Zm-5.818-4.391a16.552,16.552,0,0,1,3.8,1.076l-.662,1.793a12.882,12.882,0,0,0-3.729-1.076Zm18.412,9.748V42.952h-2.014V41.875H277.526v1.3h-1.955V31.662H281.7a23.738,23.738,0,0,0,2.342-3.149l1.77.938c.189.11.331.193.331.331,0,.248-.193.276-.8.386-.3.335-1.017,1.186-1.3,1.494ZM290.037,33.4H277.526v2.4h12.511Zm0,4.194H277.526v2.483h12.511Zm-.169-9.082a11.807,11.807,0,0,0,2.069.221c1.025,0,1.186-.331,1.186-1.076V21.032h-9.216V19.238h11.147v8.806c0,1.021,0,2.483-2.672,2.483-.473,0-1.214-.055-1.908-.083Zm2.732-3.228c-1.624,1.324-3.311,2.594-4.994,3.835-.055.359-.142.938-.386.938-.138,0-.276-.193-.331-.276L285.7,27.8a51.456,51.456,0,0,0,6.539-4.226Zm-6.374-3.232a23.9,23.9,0,0,1,3.863,1.159l-.5,1.656a15.259,15.259,0,0,0-3.808-1.017Z" transform="translate(800.016 56.593)" fill="#1a1311"/><path d="M268.359,33.876a4.431,4.431,0,0,0,1.076-.138l1.214,1.573a3.347,3.347,0,0,0-1.352,1.656c-2.239,5.991-3.705,8.589-6.874,11.707a22.747,22.747,0,0,1-5.578,4.032l-2.014-1.659a20.948,20.948,0,0,0,8.226-6.378,20.582,20.582,0,0,0,4.139-8.944H259a30,30,0,0,1-5.467,5.909l-1.793-1.352A21.781,21.781,0,0,0,256.79,35.2a17.188,17.188,0,0,0,2.515-4.86l2.125.777c.41.138.548.386.548.52,0,.221-.386.28-.879.363-.469.993-.639,1.324-.938,1.876Zm-.717-4.888a25.388,25.388,0,0,1,2.207,2.649l-1.439,1.08a10.572,10.572,0,0,0-2.207-2.653Zm3.449-.579a22.825,22.825,0,0,1,2.231,2.649l-1.376,1.08a10.388,10.388,0,0,0-2.156-2.653Z" transform="translate(740.548 83.572)" fill="#1a1311"/><path d="M260.161,45.393v1.876h-2.156v-17.7h18.278v17.7H274.1V45.393ZM274.1,31.534H260.161V43.458H274.1Z" transform="translate(758.987 86.991)" fill="#1a1311"/><rect width="19.989" height="2.014" transform="translate(1039.653 124.488)" fill="#1a1311"/><path d="M278.539,34.848a41.642,41.642,0,0,0,.272-6.019l2.653.331c.193.028.441.055.441.276,0,.11,0,.248-.8.635a31.425,31.425,0,0,1-.355,4.777h8.337a54.427,54.427,0,0,1-1.269,9.716c-.165.717-.883,3.753-2.322,4.915-.883.745-1.9.828-4.249.993l-.717-2.373a8.475,8.475,0,0,0,1.707.134c1.325,0,2.543,0,3.536-3.891a30.991,30.991,0,0,0,1.025-7.537H280.47a27.009,27.009,0,0,1-3.094,8.254,13.882,13.882,0,0,1-5.964,5.688l-1.738-1.711a12.138,12.138,0,0,0,5.3-4.446,21.33,21.33,0,0,0,3.173-7.785h-7.812V34.848Z" transform="translate(793.315 84.808)" fill="#1a1311"/><path d="M275.536,46.4c2.791-1.545,5.968-3.5,5.968-12.172,0-1.683-.087-3.315-.138-4.364l2.262.193c.106.028.607.055.607.331,0,.138-.055.193-.579.579.055,5.164-.083,6.736-.528,8.668-1.155,5.053-3.394,6.681-5.8,8.4Zm12.511-17.115,2.207.166c.272.028.524.11.524.276s-.083.221-.666.579V44.44a16.928,16.928,0,0,0,4.667-3.532,18.253,18.253,0,0,0,3.177-4.088l1.435,1.659a22.693,22.693,0,0,1-4.5,5.187,26.874,26.874,0,0,1-5.55,3.812l-1.293-1.025Z" transform="translate(810.559 86.146)" fill="#1a1311"/><path d="M300.895,31.057c-1.218.8-1.269.855-1.6,1.3a37.252,37.252,0,0,1-3.867,6.677,39.2,39.2,0,0,1,7.481,7.923l-1.876,1.577a22.323,22.323,0,0,0-3.532-4.722,27.312,27.312,0,0,0-3.374-3.039,26.115,26.115,0,0,1-10.071,7.182L282.4,46.1a20.834,20.834,0,0,0,8.861-5.357,23.333,23.333,0,0,0,5.826-8.971H285.569V29.842h12.286a2.576,2.576,0,0,0,1.3-.579Z" transform="translate(830.74 86.085)" fill="#1a1311"/><path d="M306.973,34.807a3.377,3.377,0,0,0-.717.717c-2.038,4.584-2.428,5.3-3.619,7.068a20.137,20.137,0,0,1,2.736,2.207l-1.439,1.659a22.56,22.56,0,0,0-2.5-2.211,20.933,20.933,0,0,1-4.423,4.226,18.562,18.562,0,0,1-5.992,2.814l-1.439-1.959a16.691,16.691,0,0,0,5.467-2.267,18.233,18.233,0,0,0,4.588-4.056,32.56,32.56,0,0,0-4.809-2.566l1.3-1.659a48.546,48.546,0,0,1,4.718,2.57,25.733,25.733,0,0,0,3.094-6.323h-8.108a26.649,26.649,0,0,1-5.605,5.909L288.336,39.5a19.607,19.607,0,0,0,5.716-5.574,21.787,21.787,0,0,0,2.842-5.081l2.152.911c.331.138.449.359.449.469,0,.3-.694.414-.942.441-.382.8-.5.966-1.435,2.57h6.764a8.345,8.345,0,0,0,1.8-.276Z" transform="translate(848.214 84.849)" fill="#1a1311"/><path d="M306.173,40.368a15.16,15.16,0,0,1-2.125,7.785,11.471,11.471,0,0,1-5.68,4.529l-1.963-1.8a9.364,9.364,0,0,0,5.605-3.808,11.652,11.652,0,0,0,1.876-6.709h-9.854V38.354h21.143v2.014Zm5.2-7.261H297.647V31.038h13.725Zm4.525,2.874a23.573,23.573,0,0,0-2.732-2.073l1.017-1.435a26.848,26.848,0,0,1,2.653,2.152Zm1.017-4a20.385,20.385,0,0,0-2.673-2.1l.934-1.435a22.968,22.968,0,0,1,2.732,2.152Z" transform="translate(864.97 83.675)" fill="#1a1311"/><path d="M308.474,37.338a37.247,37.247,0,0,1-6.189,3.449l-1.655-1.431a22.712,22.712,0,0,0,7.73-4.06,28.721,28.721,0,0,0,5.495-5.136l1.293,1.186c.225.193.469.414.469.639,0,.138-.075.166-.268.166a4.86,4.86,0,0,1-.67-.059,37.473,37.473,0,0,1-4.411,3.894V48.272h-1.794Z" transform="translate(884.379 88.723)" fill="#1a1311"/><path d="M257.512,36.444a11.9,11.9,0,0,0-3.906,9.074,11.851,11.851,0,0,0,3.906,9.074v.1h-1.183a13.038,13.038,0,0,1,0-18.345h1.183Z" transform="translate(742.961 106.918)" fill="#1a1311"/><path d="M260.258,37.011h1.616l-.493,5.779.063.043,4.734-3.335.828,1.419-5.27,2.444v.083l5.27,2.444-.828,1.419-4.734-3.331-.063.039.493,5.779h-1.616l.493-5.779-.059-.039-4.734,3.331-.828-1.419,5.266-2.444v-.083l-5.266-2.444.828-1.419,4.734,3.335.059-.043Z" transform="translate(750.529 108.877)" fill="#1a1311"/><path d="M277.239,53.474c-8.025,0-8.92,0-10.828-.1-2.629-.142-3.362-.966-3.906-1.995-.536.532-.895.887-1.5,1.443,0,.252,0,.69-.3.69-.1,0-.193-.059-.3-.28l-.745-1.656a10.626,10.626,0,0,0,2.164-1.34v-4.36h-2.3V44.495h3.686v4.62a2.891,2.891,0,0,0,1.281,2.621c.765.394,1.616.532,4.616.532a80.434,80.434,0,0,0,8.7-.434ZM262.383,41.3a29.812,29.812,0,0,0-2.464-4.2l1.183-.615a20.5,20.5,0,0,1,2.527,4.1Zm10.335,7.5a11.182,11.182,0,0,0,3.177,1.853l-.784,1.222a24.806,24.806,0,0,1-3.477-2.089l.733-.985h-3.729l.769.926c.138.158.162.217.162.276,0,.217-.244.2-.619.158a26.974,26.974,0,0,1-2.428,1.774l-.958-1.064a8.818,8.818,0,0,0,2.621-2.069h-3.634V47.632h3.3V46.194h-2.464V45.011h2.464V43.568l1.368.158c.11.02.331.039.331.2,0,.138-.138.236-.311.355v.733h2.5V43.568l1.38.158c.319.039.382.118.382.2,0,.059-.043.217-.355.374v.713H275.9v1.183H273.14v1.439h3.548V48.8Zm-4.261-5.546H266.21c-.95,0-1.4-.256-1.4-1.2V39.465h3.69v-1.5h-3.851V36.785h5.093V40.49h-3.654v1.261c0,.359.181.378.493.378h1.462c.611,0,.828-.118,1.123-1.186l1.084.674c-.41,1.3-.8,1.636-1.8,1.636m3.276,2.941h-2.5v1.439h2.5Zm3.043-2.98h-1.991c-1.123,0-1.6-.256-1.6-1.38V39.465h3.544v-1.6h-3.5V36.785h4.789V40.49h-3.607V41.7c0,.434.2.434.552.434h1.36c.678,0,.773-.158,1.186-1.38l1.068.65c-.418,1.616-.91,1.813-1.8,1.813" transform="translate(763.47 107.33)" fill="#1a1311"/><path d="M269.651,46.485v5.96c0,1.36-.256,1.616-3.331,1.577L265.9,52.5c.315.024,1.242.1,1.738.1.41,0,.631-.118.631-.674V47.254c-1.482.753-1.8.911-2.192,1.108,0,.138-.039.631-.335.631-.158,0-.256-.217-.3-.335l-.556-1.62c.635-.237,1.9-.69,3.378-1.4V41.771h-3.138v-1.34h3.138v-4l1.439.059c.221,0,.359.02.359.177s-.138.237-.418.394v3.374h2.01v1.34h-2.01v3.177c.394-.2,1.478-.812,2.211-1.246v1.6a22.53,22.53,0,0,1-2.211,1.183m11.467,7.221c-2.964-2.743-4.009-6.311-4.419-9.921h-1.955c-.122,2.286-.339,6.7-2.98,10.178l-1.443-.71c2.527-3.039,3.083-6.827,3.083-11.344,0-2.054-.1-3.552-.2-4.99h8.423v6.867h-3.571a12.629,12.629,0,0,0,4.438,9.094ZM280.246,38.2H274.68c.063.985.122,2.862.122,4.3h5.443Z" transform="translate(779.25 107.156)" fill="#1a1311"/><path d="M270.267,54.5a9.9,9.9,0,0,0,1.778-2.385,13.1,13.1,0,0,0,0-12.748,9.9,9.9,0,0,0-1.778-2.385l.808-.713a10.862,10.862,0,0,1,1.857,2.487,14.093,14.093,0,0,1,0,13.97,10.753,10.753,0,0,1-1.857,2.483Z" transform="translate(795.059 106.697)" fill="#1a1311"/><rect width="36.97" height="21.609" transform="translate(950.361 3.804)" fill="#9d4e55"/><rect width="36.97" height="21.609" transform="translate(950.361 41.227)" fill="#bc323f"/><rect width="36.97" height="21.609" transform="translate(950.361 78.646)" fill="#f0cac4"/><rect width="36.97" height="21.609" transform="translate(950.361 116.136)" fill="#9bc6eb"/><rect width="26.851" height="2.456" transform="translate(21.029 107.342)" fill="#bc323f"/><path d="M20.02,44.7c0,3.906,3.216,4.222,8.794,4.222,4.663,0,9.362-.217,14.025-.438l-.914,2.456H30.454c-5.865,0-7.753-.315-9.456-1.2a4.361,4.361,0,0,1-2.046-2.014,33.813,33.813,0,0,1-3.28,2.519c-.032.256-.095.82-.477.82-.248,0-.374-.217-.5-.473l-1.072-1.951c1.573-.788,2.712-1.419,4.194-2.3V38.113H13.879V36.067H20.02ZM16.745,24.593a49.246,49.246,0,0,1,3.843,6.145l-2.05,1.234a49.456,49.456,0,0,0-3.78-6.244Zm9.326,1.636c.063,3,.063,3.6.063,4.6,0,10.02-.914,12.322-3.086,16.327l-1.955-1.226c2.586-4,2.964-7.564,2.964-13.934,0-3.717-.158-6.24-.288-7.749H40.38v19.7c0,3.055-.126,3.433-4.6,3.528l-.82-2.3a16.881,16.881,0,0,0,1.92.126c1.356,0,1.356-.347,1.356-1.64V26.229Zm5.014.82,2.235.13c.378.032.473.126.473.284,0,.248-.158.347-.564.536v1.6h3.433v1.829H33.229v2.361H37.64v1.829H26.7V33.793h4.383V31.432H27.648V29.6h3.437Zm-3.28,10.528h8.7v6.4H29.792v1.3H27.805Zm6.748,1.8H29.792v2.8h4.762Z" transform="translate(40.076 71.337)" fill="#bc323f"/><path d="M34.283,24.217v9.929H24.669v17.62h-2.2V24.217Zm-2.207,1.892H24.669v2.176h7.407Zm0,3.906H24.669v2.27h7.407Zm-.5,18.913H29.427V37.11H41.6V47.288H31.571ZM39.392,39H31.575v2.144h7.816Zm0,4.036H31.575V45.4h7.816Zm3.682,6.271c.54.028,1.045.095,1.671.095,1.167,0,1.608-.225,1.608-1.009V34.146h-9.7V24.217H48.56V48.076c0,2.96-.252,3.465-4.352,3.591Zm3.28-23.2H38.789v2.176h7.564Zm0,3.906H38.789v2.27h7.564Z" transform="translate(66.089 71.24)" fill="#bc323f"/><path d="M45.381,46.12A14.95,14.95,0,0,0,50.2,43.7a10.368,10.368,0,0,0,3.721-7.852,9.216,9.216,0,0,0-4.982-8.159,11.121,11.121,0,0,0-4.32-.851,39.82,39.82,0,0,1-3.65,13.8c-1.324,2.8-3.027,5.546-4.892,5.546-2.641,0-5.388-4.064-5.388-8.636A12.981,12.981,0,0,1,44.025,24.689c6.618,0,12.259,4.162,12.259,11.155,0,8.573-7.627,11.632-9.519,12.389ZM35.01,31.307a10.364,10.364,0,0,0-2.176,6.177c0,3.374,1.928,5.924,3.185,5.924.662,0,1.419,0,3.469-5.042A37.288,37.288,0,0,0,42.2,26.9a10.277,10.277,0,0,0-7.186,4.411" transform="translate(90.282 72.629)" fill="#bc323f"/><path d="M18.6,42.975v-7l2.456.284c.189.032.82.091.82.441,0,.252-.284.41-.82.725v5.546H31.3v2.207H21.056v6.555h9.172v2.235H21.056v7.316H33.6v2.2H5.454v-2.2H18.6V53.972H9.806V51.737H18.6V45.182H10.626a19.224,19.224,0,0,1-3.374,5.262l-2.046-1.23A25.734,25.734,0,0,0,10.626,37.4l2.519.662c.225.063.694.189.694.536,0,.374-.6.532-1.1.662a32.2,32.2,0,0,1-1.2,3.717Z" transform="translate(15.315 105.838)" fill="#bc323f"/><path d="M18.376,50.195a38.339,38.339,0,0,0-4.663-2.87l1.324-2.081a29.864,29.864,0,0,1,4.6,2.9Zm-.217,13.079a2.957,2.957,0,0,1,.248.784.279.279,0,0,1-.284.256,1.743,1.743,0,0,1-.725-.256l-2.2-1.226A55.834,55.834,0,0,0,20.583,50.7l1.829,1.7c-1.324,3.689-2.775,7.28-4.253,10.875m2.14-21.94a31.2,31.2,0,0,0-4.474-2.96l1.324-1.955a21.879,21.879,0,0,1,4.442,3.09Zm13.02,5.42v5.582h6.9V64.184H37.856v-1.92H26.634v1.983h-2.3V52.335H30.86V46.754H22.034V44.519H30.86V39.694c-3.374.319-5.1.382-6.843.414l-.974-2.3c.725.063,1.447.095,2.645.095a53.786,53.786,0,0,0,9.3-.883,36.237,36.237,0,0,0,4.068-1.041L40.5,37.648a.873.873,0,0,1,.252.5c0,.221-.126.315-.347.315a1.779,1.779,0,0,1-.757-.221,59.218,59.218,0,0,1-6.33,1.131v5.14h8.948v2.235Zm4.537,7.537H26.634v5.924H37.856Z" transform="translate(40.34 105.835)" fill="#bc323f"/><path d="M22.505,38.79h8.353V59.4h-2.2v-2.05H24.716v3.942H22.505Zm6.149,1.987H24.716v6.271h3.938Zm0,8.223H24.716v6.366h3.938Zm11.5-12.917,2.27.122c.221,0,.6.035.6.315,0,.158-.122.284-.564.568v3.118h5.483v2.117H42.458v3.717h7.375v2.046h-17.4V46.039h7.722V42.322H34.579V40.205h5.578Zm-7.47,16.1H43.278V48.81l2.046.252c.5.063.725.095.725.347,0,.189-.063.221-.568.568v2.2h4.1v2.054h-4.1v7.15c0,1.356-.315,2.117-1.51,2.334a31.558,31.558,0,0,1-3.406.126l-.914-2.55c1.1.122,1.8.158,2.113.158,1.514,0,1.514-.5,1.514-1.387v-5.83H32.687Zm3.343,3.532a13.88,13.88,0,0,1,2.708,4.162l-1.888,1.167a14.325,14.325,0,0,0-2.617-4.194Z" transform="translate(66.204 106.144)" fill="#bc323f"/><path d="M42.835,36.217v9.929H33.217v17.62h-2.2V36.217Zm-2.207,1.892h-7.41v2.176h7.41Zm0,3.906h-7.41v2.27h7.41Zm-.5,18.913H37.979V49.11H50.143V59.288H40.123ZM47.94,51H40.127v2.144H47.94Zm0,4.036H40.127V57.4H47.94Zm3.686,6.271c.536.028,1.041.095,1.671.095,1.167,0,1.6-.225,1.6-1.009V46.146H45.2V36.217H57.112V60.076c0,2.96-.256,3.465-4.352,3.591Zm3.276-23.2H47.337v2.176H54.9Zm0,3.906H47.337v2.27H54.9Z" transform="translate(91.236 106.541)" fill="#bc323f"/><path d="M241.189,80.889l-.761-.761,7.686-7.655-7.686-7.659.761-.757,7.659,7.679,7.659-7.679.757.757-7.682,7.659,7.682,7.655-.757.761-7.659-7.683Zm3.189-8.416a1.975,1.975,0,1,1-1.963-1.963,1.967,1.967,0,0,1,1.963,1.963m6.429-6.433a1.961,1.961,0,1,1-1.959-1.983,1.97,1.97,0,0,1,1.959,1.983m0,12.862a1.961,1.961,0,1,1-1.959-1.963,1.955,1.955,0,0,1,1.959,1.963m6.457-6.429a1.975,1.975,0,1,1-1.987-1.963,1.978,1.978,0,0,1,1.987,1.963" transform="translate(707.28 188.443)" fill="#1a1311"/><path d="M245.722,81.7c.355-4.111,2.881-5.838,7.209-8.293,2.574-1.47,3.733-2.109,3.733-4.281,0-2.72-2.219-3.382-3.828-3.382-4.068,0-4.253,3.425-4.3,4.352H246.29a6.331,6.331,0,0,1,1.533-4.162,6.775,6.775,0,0,1,4.967-1.959c2.46,0,6,1.131,6,5.03,0,3.055-1.774,4.352-4.939,6.031-4.352,2.314-4.939,3.8-5.416,4.892h10.355V81.7Z" transform="translate(722.854 188.196)" fill="#1a1311"/><path d="M256.12,82.173c-5.294,0-6.547-4.75-6.547-9.1s1.254-9.1,6.547-9.1,6.524,4.8,6.524,9.1c0,4.324-1.226,9.1-6.524,9.1m0-16.429c-3.378,0-4.3,3.453-4.3,7.328,0,4.044.993,7.328,4.3,7.328,3.335,0,4.3-3.307,4.3-7.328,0-3.993-.97-7.328-4.3-7.328" transform="translate(734.182 188.196)" fill="#1a1311"/><path d="M253.281,81.7c.355-4.111,2.881-5.838,7.21-8.293,2.574-1.47,3.733-2.109,3.733-4.281,0-2.72-2.219-3.382-3.827-3.382-4.068,0-4.253,3.425-4.3,4.352h-2.247a6.33,6.33,0,0,1,1.533-4.162,6.775,6.775,0,0,1,4.967-1.959c2.46,0,6,1.131,6,5.03,0,3.055-1.774,4.352-4.939,6.031-4.352,2.314-4.939,3.8-5.416,4.892h10.355V81.7Z" transform="translate(745.09 188.196)" fill="#1a1311"/><path d="M263.657,82.173a6.3,6.3,0,0,1-5.436-2.341,6.193,6.193,0,0,1-1.088-3.453h2.152c.067.9.284,4.021,4.419,4.021,2.905,0,4.371-1.679,4.371-3.78,0-2.507-2.077-3.311-3.922-3.311h-1.821V71.747h1.537c1.324,0,3.686-.733,3.686-3.023,0-1.324-.753-2.98-3.642-2.98a3.9,3.9,0,0,0-3.071,1.183,4.012,4.012,0,0,0-.875,2.361h-2.128c.331-4.182,3.453-5.313,6.1-5.313,3.449,0,5.743,1.841,5.743,4.509a3.872,3.872,0,0,1-3,3.906,4.078,4.078,0,0,1,3.52,4.253c0,3.071-2.385,5.53-6.547,5.53" transform="translate(756.422 188.196)" fill="#1a1311"/><path d="M273.466,79.55v5.483h-1.8V79.55H261.057V77.894h3.969V71.56h6.642V67.918h-5.341a27.11,27.11,0,0,1-2.645,3.216l-1.541-.993a19.372,19.372,0,0,0,4.683-6.713,7.375,7.375,0,0,1,1.652.733c.288.118.406.189.406.355,0,.284-.359.331-.713.374-.165.288-.351.639-.776,1.376h13.449v1.652h-7.375V71.56h6.264v1.656h-6.264v4.679h8.3V79.55Zm-1.8-6.334h-4.915v4.679h4.915Z" transform="translate(767.965 186.59)" fill="#1a1311"/><path d="M271.205,71.743c-.047,3.331-.118,9.05-2.649,13.213l-1.608-.615c1.565-2.7,2.531-5.558,2.531-12.361,0-.9-.047-5.2-.071-5.96h7.9V63.446l1.868.118c.142,0,.473.024.473.284,0,.284-.355.449-.5.52V66.02h9.1v1.541H271.134c.047,1.226.071,1.628.071,2.763h3.756V68.172l1.778.118c.28.024.5.047.5.237,0,.217-.217.359-.619.548v1.25H281.3V68.172l1.679.118c.233.024.52.047.52.288,0,.142-.075.233-.52.5v1.25h4.111v1.419h-4.111v3.075h-8.018V71.743Zm.733,11.94a23.026,23.026,0,0,0,6.334-2.01,12.369,12.369,0,0,1-2.578-3.027l1.443-.639a9.894,9.894,0,0,0,2.531,2.814,11.9,11.9,0,0,0,3.047-2.98h-10.28V76.308h12.2l.611.682a16.135,16.135,0,0,1-4.186,4.655,17.627,17.627,0,0,0,6.953,1.49l-.8,1.726c-4.537-.615-6.149-1.344-7.612-2.247a24.9,24.9,0,0,1-6.665,2.483Zm9.362-11.94h-4.679v1.652H281.3Z" transform="translate(785.295 186.642)" fill="#1a1311"/><path d="M282.08,68.273l1.892.118c.331.024.446.118.446.26,0,.189-.138.284-.564.449v.97h6.287v1.537h-6.287v2.03h5.6V75.1h-5.6a10.506,10.506,0,0,1-.189,2.1H292.6v1.585h-8.017c2.129,3.094,5.96,3.733,8.3,4.088l-1.159,1.8c-3.756-.851-6.547-1.963-8.676-5.388-1.419,2.625-3.4,4.679-8.861,5.365l-.97-1.679c5.976-.54,7.324-2.767,8.1-4.182h-7.939V77.209h8.435a10.224,10.224,0,0,0,.26-2.1H276.29V73.638h5.791v-2.03h-6.212V70.071h6.212Zm-.047-4.8,2.034.142c.095.024.378.047.378.28s-.284.406-.568.548v1.3h8.747v4.328H290.9v-2.72H275.04v2.838h-1.73V65.743h8.723Z" transform="translate(803.743 186.731)" fill="#1a1311"/><path d="M287.31,72.047a69.312,69.312,0,0,1-.5,8.865c-.473,3.477-1.391,3.477-3.76,3.524l-.469-1.845c.5.024,1.131.071,1.391.071.591,0,.922-.114,1.23-1.841a41.061,41.061,0,0,0,.449-7.237h-2.243a34.011,34.011,0,0,1-.761,5.365,16.751,16.751,0,0,1-2.243,5.605l-1.537-.993c3.027-4.281,3.027-10.919,3.027-13.9H279.25V68.125H282.7V63.683l1.754.142c.351.047.54.095.54.26,0,.233-.426.422-.639.5v3.544h3.382v1.537H283.55c-.024,1.391-.047,1.845-.071,2.385Zm-.237-.847a29.258,29.258,0,0,0,4.3-7.753l1.561.828c.355.189.382.26.382.331,0,.26-.331.284-.643.307-.185.449-.568,1.3-1.064,2.219h8.558v1.612h-9.432a37.257,37.257,0,0,1-2.318,3.567Zm5.838,13.236c-2.531,0-2.574-1.49-2.574-2.294V76.119L288,76.611,287.878,75l2.46-.426V71.365l1.746.26c.378.047.449.142.449.237,0,.209-.26.331-.615.449v1.963l2.294-.5v-4l1.656.142c.355.047.5.047.5.237,0,.213-.26.355-.548.473V73.47l3-.615.737.54a25.1,25.1,0,0,1-.619,5.96c-.375,1.372-.851,1.49-2.338,1.557l-.733-1.8a2.369,2.369,0,0,0,.875.193c.615,0,.781-.71.895-1.514a28.6,28.6,0,0,0,.264-3.216L295.817,75v6.338h-1.6V75.358l-2.294.453V81.29c0,.97.051,1.656,1.679,1.656h3.619c1.439,0,1.794-.639,2.341-2.574l1.486.97c-.946,3.094-2.247,3.094-3.548,3.094Z" transform="translate(820.37 186.642)" fill="#1a1311"/><path d="M284.811,72.8a25.449,25.449,0,0,0,4.868-9.314l1.679.615c.047.024.284.114.284.28,0,.24-.237.264-.52.288-.757,1.8-.922,2.2-1.253,2.881.071.1.307.307.307.473,0,.122-.331.449-.5.639V84.738h-1.655V71.265a17.79,17.79,0,0,1-1.983,2.767Zm14.348-3.216c-.26,3.709-.568,6.831-2.27,10.166a15.47,15.47,0,0,1-4.04,4.892l-1.324-1.206A13.243,13.243,0,0,0,296.25,77.1a8.872,8.872,0,0,0-2.385-1.726l.729-1.419a10.046,10.046,0,0,1,2.227,1.419,23.555,23.555,0,0,0,.662-4.182h-2.771a17.06,17.06,0,0,1-2.527,5.175l-1.537-.682a15.367,15.367,0,0,0,2.531-4.943,20.7,20.7,0,0,0,.871-4.541h-2.219V64.671h8.179V66.2h-4.257a25.078,25.078,0,0,1-.587,3.382Zm1.585-2.885,1.608.1c.071,0,.422.024.422.284,0,.138-.166.256-.351.422V79.019h-1.679Zm3.567-3.071,1.75.118c.118,0,.355.024.355.189,0,.213-.26.378-.5.5V82.491c0,1.4-.118,2.081-1.963,2.081h-1.912l-.8-1.963a16.444,16.444,0,0,0,2.385.26c.686,0,.686-.28.686-.686Z" transform="translate(837.844 186.766)" fill="#1a1311"/></g></g></svg>