<svg xmlns="http://www.w3.org/2000/svg" width="35.073" height="26.304" viewBox="0 0 35.073 26.304"><path d="M29.227,3H5.845A5.863,5.863,0,0,0,0,8.845V23.459A5.863,5.863,0,0,0,5.845,29.3H29.227a5.863,5.863,0,0,0,5.845-5.845V8.845A5.863,5.863,0,0,0,29.227,3Zm2.338,8.476L20.021,19.221a4.927,4.927,0,0,1-2.484.731,4.927,4.927,0,0,1-2.484-.731L3.507,11.476A1.546,1.546,0,0,1,3.215,9.43a1.546,1.546,0,0,1,2.046-.292l11.545,7.745a1.583,1.583,0,0,0,1.608,0L29.958,9.138A1.437,1.437,0,0,1,32,9.576,1.594,1.594,0,0,1,31.566,11.476Z" transform="translate(0 -3)" fill="#fff"/></svg>