<svg xmlns="http://www.w3.org/2000/svg" width="22.777" height="17.082" viewBox="0 0 22.777 17.082"><path d="M18.98,3H3.8A3.807,3.807,0,0,0,0,6.8v9.49a3.807,3.807,0,0,0,3.8,3.8H18.98a3.807,3.807,0,0,0,3.8-3.8V6.8A3.807,3.807,0,0,0,18.98,3ZM20.5,8.5,13,13.534a3.2,3.2,0,0,1-1.613.475,3.2,3.2,0,0,1-1.613-.475L2.278,8.5a1,1,0,0,1-.19-1.329,1,1,0,0,1,1.329-.19l7.5,5.03a1.028,1.028,0,0,0,1.044,0l7.5-5.03a.933.933,0,0,1,1.329.285A1.035,1.035,0,0,1,20.5,8.5Z" transform="translate(0 -3)" fill="#104777"/></svg>