<svg xmlns="http://www.w3.org/2000/svg" xmlns:xlink="http://www.w3.org/1999/xlink" width="26.488" height="29.477" viewBox="0 0 26.488 29.477"><defs><clipPath id="a"><rect width="26.488" height="29.477" fill="#fff"/></clipPath></defs><g transform="translate(0 0)" clip-path="url(#a)"><path d="M26.488,5.111V29.477H3.4a3.411,3.411,0,0,1-3.4-3.4V3.4A3.411,3.411,0,0,1,3.4,0H23.466V23.843H3.347l-.029,0-.028,0-.029,0-.028,0-.028,0-.029,0-.028,0-.028,0-.028,0-.028,0-.028,0-.028,0-.026.006-.028,0-.028,0L2.9,23.9l-.028.006-.026.007-.026.008-.028.006-.026.008-.026.008-.026.008-.026.008-.026.01-.026.008-.024.01L2.589,24l-.024.011-.026.01-.024.011-.024.01-.024.011-.024.013-.024.011-.024.011-.024.013-.023.013-.024.013-.023.013-.023.015-.024.013-.023.015-.023.015-.023.015-.021.015-.023.015-.021.016-.023.015-.021.016-.021.016-.021.016-.021.016-.021.018-.02.016-.021.018-.02.018-.021.018-.02.018-.02.018-.02.019-.018.018-.02.02-.018.02-.02.02-.018.019-.018.02-.018.021-.016.02-.018.021-.016.021-.018.021-.016.021-.016.021-.015.021-.016.021-.016.023-.015.021-.015.023-.015.023-.015.023-.015.023-.013.023-.015.024-.013.023-.013.023-.013.024-.011.024-.013.024-.011.023-.011.024v0l-.011.024-.011.024-.011.024-.01.024-.01.026-.01.026-.01.024-.01.026-.008.026-.01.026-.008.026-.008.026-.008.026-.006.026-.007.028-.008.026-.006.026v0l0,.026-.007.028,0,.026,0,.028,0,.028,0,.028,0,.028,0,.028,0,.028,0,.028,0,.028,0,.029,0,.028,0,.028v0l0,.028v.028l0,.029v.029A2.236,2.236,0,0,0,3.4,28.3H25.313V5.111Z" transform="translate(0 0)" fill="#fff"/><rect width="19.583" height="1.177" transform="translate(3.875 25.483)" fill="#fff"/></g></svg>