<svg xmlns="http://www.w3.org/2000/svg" xmlns:xlink="http://www.w3.org/1999/xlink" width="22.615" height="25.167" viewBox="0 0 22.615 25.167"><defs><clipPath id="a"><rect width="22.615" height="25.167" fill="#c74954"/></clipPath></defs><g transform="translate(0 -2.564)"><g transform="translate(0 2.564)" clip-path="url(#a)"><path d="M22.615,4.364v20.8H2.907A2.913,2.913,0,0,1,0,22.261V2.907A2.913,2.913,0,0,1,2.907,0H20.035V20.357H2.737l-.025,0-.024,0-.024,0-.024,0-.024,0-.024,0-.024,0-.022.006-.024,0-.024,0-.022.006-.024.006-.022.006-.022.007-.024.006-.022.007-.022.007-.022.007-.022.007-.022.008-.022.007-.021.008-.022.008-.021.01-.022.008-.021.01-.021.008-.021.01-.021.011-.021.01-.021.01-.021.011L2,20.588l-.021.011-.019.011-.019.013-.021.011-.019.012-.019.013-.019.012-.018.013-.019.012-.018.014-.019.012-.018.014-.018.014-.018.014-.018.014-.018.015-.017.014-.018.015-.017.015-.018.015-.017.015-.017.015-.017.017-.015.015-.017.017-.015.017-.017.017-.015.017L1.484,21l-.015.018-.014.017-.015.018-.014.018-.015.018-.014.018-.014.018-.013.018-.014.018-.014.019L1.33,21.2l-.012.019-.013.019-.012.02-.013.019-.011.019-.013.021-.011.019-.011.019-.011.021-.01.021-.011.021-.01.019-.01.021h0l-.01.021-.01.021-.01.021-.008.021-.008.022-.008.022-.008.021-.008.022-.007.022-.008.022-.007.022-.007.022-.007.022-.006.022-.006.024-.007.022-.006.022h0l0,.022-.006.024,0,.022,0,.024,0,.024,0,.024,0,.024,0,.024,0,.024,0,.024v.024l0,.025v.047h0v.1a1.909,1.909,0,0,0,1.9,1.9H21.612V4.364Z" transform="translate(0 0)" fill="#c74954"/><rect width="16.72" height="1.005" transform="translate(3.308 21.758)" fill="#c74954"/></g></g></svg>