<svg xmlns="http://www.w3.org/2000/svg" width="26.588" height="25.394" viewBox="0 0 26.588 25.394"><path d="M26.588,25.394H0V0H26.588V25.394M2.555,22.839H24.031V2.556H2.555" fill="#ea4c3a" fill-rule="evenodd"/><path d="M14.243,4.378c.373.162.29.407.167,1.561a23.977,23.977,0,0,1-1.36,5.508,29.684,29.684,0,0,1-3.071,5.8A15.887,15.887,0,0,1,7.344,20.39a3.078,3.078,0,0,1-1.475.791c-.308.053-.448,0-.531-.155A1.085,1.085,0,0,1,5.3,20.3a2.259,2.259,0,0,1,.712-1.14,9.224,9.224,0,0,1,2.357-1.57,24.965,24.965,0,0,1,3.645-1.36,25.929,25.929,0,0,1,2.832-.66,20.987,20.987,0,0,1,2.117-.3,11.777,11.777,0,0,1,1.936,0,11.984,11.984,0,0,1,1.781.283,4.556,4.556,0,0,1,1.374.533,2.317,2.317,0,0,1,.9.958,1.334,1.334,0,0,1,.029,1.089,1.166,1.166,0,0,1-.743.582,1.833,1.833,0,0,1-1.121,0,5.38,5.38,0,0,1-1.473-.791,13.782,13.782,0,0,1-1.822-1.566,31.98,31.98,0,0,1-2.384-2.671,18.725,18.725,0,0,1-1.8-2.682,10,10,0,0,1-.826-2.088,10.987,10.987,0,0,1-.378-1.878,6.593,6.593,0,0,1,.027-1.515,2.25,2.25,0,0,1,.281-.934.972.972,0,0,1,.477-.363,1.115,1.115,0,0,1,.308-.065.567.567,0,0,1,.295,0A2.369,2.369,0,0,1,14.243,4.378Z" transform="translate(-0.6 -0.473)" fill="none" stroke="#ea4c3a" stroke-linejoin="round" stroke-miterlimit="10" stroke-width="1.57"/></svg>