<svg xmlns="http://www.w3.org/2000/svg" xmlns:xlink="http://www.w3.org/1999/xlink" width="1200" height="123.564" viewBox="0 0 1200 123.564"><defs><clipPath id="a"><rect width="1200" height="123.564" fill="none"/></clipPath></defs><g transform="translate(0 0)"><rect width="126.363" height="78.597" transform="translate(0 17.436)" fill="#bb4183"/><g transform="translate(0 0)"><g clip-path="url(#a)"><path d="M24.55,36.072V25.514H21.507V24.228c1.284-.078,2.888-.176,3.5-2.592h1.364V36.072Z" transform="translate(29.074 29.25)" fill="#fff"/><path d="M35.514,34.187v4.591h-1.5V34.187H25.135V32.807h3.321v-5.3h5.557V24.462H29.542a22.085,22.085,0,0,1-2.213,2.686l-1.284-.828A16.281,16.281,0,0,0,29.959,20.7a6.2,6.2,0,0,1,1.385.614c.238.1.336.158.336.3,0,.235-.3.275-.593.318-.139.235-.3.532-.654,1.145H41.685v1.385H35.514v3.043h5.242v1.385H35.514v3.916h6.943v1.381Zm-1.5-5.3H29.9v3.916h4.113Z" transform="translate(33.979 27.99)" fill="#fff"/><rect width="258.89" height="78.594" transform="translate(884.019 17.439)" fill="#e3dead"/><rect width="28.653" height="78.594" transform="translate(1143.041 17.439)" fill="#9bc6eb"/><rect width="87.719" height="78.594" transform="translate(423.63 17.439)" fill="#e4c6c9"/><rect width="115.001" height="78.594" transform="translate(511.349 17.439)" fill="#d2dbce"/><rect width="171.156" height="78.594" transform="translate(626.35 17.439)" fill="#ccc8d7"/><rect width="86.341" height="78.594" transform="translate(797.506 17.439)" fill="#ccc8d7"/><rect width="115.405" height="78.594" transform="translate(308.234 17.439)" fill="#ebdabf"/><rect width="172.685" height="78.594" transform="translate(135.551 17.439)" fill="#c1cedc"/><line y2="78.594" transform="translate(164.329 17.437)" fill="none" stroke="#fff" stroke-width="0.5"/><line y2="78.594" transform="translate(308.234 17.437)" fill="none" stroke="#fff" stroke-width="0.5"/><line y2="78.594" transform="translate(423.64 17.437)" fill="none" stroke="#fff" stroke-width="0.5"/><line y2="78.594" transform="translate(365.808 17.437)" fill="none" stroke="#fff" stroke-width="0.5"/><line y2="78.594" transform="translate(511.349 17.437)" fill="none" stroke="#fff" stroke-width="0.5"/><line y2="78.594" transform="translate(568.91 17.437)" fill="none" stroke="#fff" stroke-width="0.5"/><line y2="78.594" transform="translate(568.919 17.437)" fill="none" stroke="#fff" stroke-width="0.5"/><line y2="78.594" transform="translate(626.35 17.437)" fill="none" stroke="#fff" stroke-width="0.5"/><line y2="78.594" transform="translate(884.018 17.437)" fill="none" stroke="#fff" stroke-width="0.5"/><line y2="78.594" transform="translate(884.018 17.437)" fill="none" stroke="#fff" stroke-width="0.5"/><line y2="78.594" transform="translate(970.201 17.437)" fill="none" stroke="#fff" stroke-width="0.5"/><line y2="78.594" transform="translate(1027.759 17.437)" fill="none" stroke="#fff" stroke-width="0.5"/><line y2="78.594" transform="translate(1085.313 17.437)" fill="none" stroke="#fff" stroke-width="0.5"/><line y2="78.594" transform="translate(1114.286 17.437)" fill="none" stroke="#fff" stroke-width="0.5"/><line y2="78.594" transform="translate(1142.909 17.437)" fill="none" stroke="#fff" stroke-width="0.5"/><line y2="78.594" transform="translate(1171.693 17.437)" fill="none" stroke="#fff" stroke-width="0.5"/><path d="M61.794,12.882H60.512v-.988h8v.988H67.248V19.7H66.126V18.171c-.807.214-4.4,1.087-5.122,1.268-.165.362-.181.412-.28.412-.148,0-.2-.165-.247-.3l-.346-1.037c.743-.115,1.056-.165,1.663-.3ZM75.021,24.446v1.07H60.594v-1.07h6.6v-1.2H62.142v-.988H67.2v-1.07H61.333V20.114H74.28v1.072H68.367v1.07h5.075v.988H68.367v1.2Zm-12.1-10.59h3.21v-.974h-3.21Zm3.21.938h-3.21v1.023h3.21Zm-3.21,3.213c1.07-.247,2.519-.56,3.21-.774v-.48h-3.21Zm11.679.428H68.8v-5.8h5.8Zm-1.122-4.777H69.915V17.4h3.558Z" transform="translate(81.288 16.08)" fill="#1a1311"/><path d="M66.841,18.936l1.169.132c.082,0,.362.033.362.2,0,.129-.263.247-.346.278v.6h5.024v1.729H74.9v.938H73.049v1.712H68.026v.76h4.941V26.1H68.026v.774h6.82v.938H60.317v-.938h6.524V26.1H62.064v-.823h4.777v-.76H62.146v-.873h4.694v-.84H60.286v-.938h6.555v-.823H62.113V20.14h4.727Zm5.781,14.908H71.4v-.774H63.776v.774H62.591v-5.27H72.621ZM71.4,29.43H63.776v.905H71.4Zm0,1.762H63.776v.938H71.4Zm.477-10.146H68.024v.823h3.857Zm0,1.762H68.024v.84h3.857Z" transform="translate(81.498 25.6)" fill="#1a1311"/><path d="M202.2,15.573a8.224,8.224,0,0,0,1.55,1.465l-.774.809A7.666,7.666,0,0,1,201.348,16v2.568h-1.117V15.954a17.5,17.5,0,0,1-3.215,2.8l-.821-.774a10.89,10.89,0,0,0,2.963-2.406h-2.538V14.553h3.61V11.719l1.136.118c.313.031.412.212.412.28,0,.115-.249.28-.43.4v2.041h3.13v1.021Zm-4.84,7.858a14.232,14.232,0,0,0,1.317-1.844h-2.06V20.6h2.669a14.568,14.568,0,0,0,.856-1.813l1.072.659c.148.082.247.148.247.263,0,.148-.233.2-.56.247-.2.346-.216.379-.379.644h4.33v.988h-1.1a10.829,10.829,0,0,1-1.317,2.206,10.272,10.272,0,0,1,1.531,1l-.774.858a11.489,11.489,0,0,0-1.55-1.037,8.777,8.777,0,0,1-1.7,1.054,10.008,10.008,0,0,1-2.422.708l-.774-1.07a7.862,7.862,0,0,0,3.873-1.237,13.032,13.032,0,0,0-1.83-.691c-.2.263-.315.412-.543.691Zm.889-11.545a8.267,8.267,0,0,1,1.63,1.58l-.724.691a11.377,11.377,0,0,0-1.58-1.548Zm1.762,9.7c-.329.543-.379.626-.659,1.021a17.37,17.37,0,0,1,2.074.724,6,6,0,0,0,1.07-1.745Zm1.794-8.154a8.467,8.467,0,0,0,1.517-1.715l.691.661c.1.1.181.165.181.247,0,.148-.214.165-.313.181a8.828,8.828,0,0,1-1.3,1.3Zm9.062,12.815a8.03,8.03,0,0,1-3.18-2.571,9.652,9.652,0,0,1-3,2.883l-1.119-.774a9.588,9.588,0,0,0,3.476-3.18,15.619,15.619,0,0,1-1.418-5.7l1.072-.181a17.489,17.489,0,0,0,.988,4.6A16.951,16.951,0,0,0,208.6,16h-2.669a13.654,13.654,0,0,1-1.613,2.914l-.988-.691a17.017,17.017,0,0,0,2.815-6.606l1.221.477c.129.068.263.167.263.3s-.148.165-.461.263c-.132.346-.675,1.91-.807,2.223h4.675V16h-1.268c-.263,2.963-.477,4.546-1.465,6.6a7.094,7.094,0,0,0,3.344,2.618Z" transform="translate(265.227 15.709)" fill="#1a1311"/><path d="M204.21,29.644v2.538c0,1.3-.379,1.778-2.488,1.762l-.611-1.317c.529.033.842.033,1.04.033.428,0,.774-.016.774-.56V29.644h-6.686v-1.07h6.686V27.093l1.021.082a16.4,16.4,0,0,0,1.846-1.336H199.4V24.818h8.283l.379.724c-1.762,1.317-3.229,2.274-3.852,2.669v.362h6.818v1.07Zm5.3-3.838V23.4H197.735v2.486h-1.2V22.363h14.182v3.443Zm-9.687-3.69a10.432,10.432,0,0,0-1.794-1.926l.856-.741a9.581,9.581,0,0,1,1.846,1.926Zm3.692-.3a9.566,9.566,0,0,0-1.764-2.371l.971-.576a9.751,9.751,0,0,1,1.8,2.288Zm5.073-1.63a12.363,12.363,0,0,1-1.682,1.9l-.856-.727a9.4,9.4,0,0,0,1.978-2.486l.988.905c.082.1.129.165.129.23,0,.181-.261.181-.557.181" transform="translate(265.284 25.514)" fill="#1a1311"/><path d="M234.775,10.489a11.686,11.686,0,0,1-1.435.362v2.157h1.679v.865h-1.576a6.51,6.51,0,0,0,1.783,2.392l-.607.67a8.421,8.421,0,0,1-1.279-1.576v5.748h-.917V15.36a11.4,11.4,0,0,1-1.719,3.166l-.762-.607a9.632,9.632,0,0,0,2.081-4.045H229.97v-.865h2.453v-1.99a14.039,14.039,0,0,1-1.976.221l-.506-.943a11.368,11.368,0,0,0,4.537-.633l.71.607c.052.038.089.078.089.115,0,.169-.386.118-.5.1m5.049,6.214v4.382h-.941V17.013l-3.243.995-.325-.865,3.568-1.072v-6.5l1.058.1c.054,0,.247.026.247.129,0,.141-.183.221-.365.3V15.76l1.86-.607.261.84Zm-2.648-1.3a8.625,8.625,0,0,0-1.522-1.357l.517-.673a8.355,8.355,0,0,1,1.613,1.345Zm.132-2.533a8.49,8.49,0,0,0-1.486-1.305l.581-.71a7.545,7.545,0,0,1,1.538,1.317Z" transform="translate(310.848 12.941)" fill="#1a1311"/><path d="M236.169,23.428v1.99c0,1.021-.3,1.395-1.952,1.381l-.477-1.032c.414.026.659.026.816.026.334,0,.6-.012.6-.44V23.428h-5.245v-.84h5.245V21.424l.8.066a12.614,12.614,0,0,0,1.446-1.047H232.4v-.8h6.5l.3.569c-1.383,1.035-2.531,1.783-3.022,2.093v.285h5.346v.84Zm4.16-3.01V18.531h-9.238v1.95h-.943V17.718h11.124v2.7Zm-7.6-2.893a8.213,8.213,0,0,0-1.409-1.512l.673-.583a7.435,7.435,0,0,1,1.446,1.515Zm2.9-.235a7.576,7.576,0,0,0-1.383-1.86l.762-.449a7.677,7.677,0,0,1,1.409,1.794Zm3.977-1.277a9.31,9.31,0,0,1-1.319,1.484l-.67-.567a7.371,7.371,0,0,0,1.55-1.95l.776.71c.064.078.1.127.1.179,0,.143-.207.143-.44.143" transform="translate(310.811 20.252)" fill="#1a1311"/><path d="M233.553,20.616c.04.322.089,1.731.115,2.016a3.6,3.6,0,0,0,.52,1.679.817.817,0,0,0,.477.348c.567-.259,3.06-1.343,3.563-1.576l.169,1.072a27.523,27.523,0,0,0-4.715,1.938c-.621.336-1.912,1.047-1.912,2.326,0,1.8,1.421,1.8,2.223,1.8.155,0,1.613-.028,2.945-.2a13.054,13.054,0,0,0,1.564-.285v1.15a37.952,37.952,0,0,1-4.278.27c-1.639,0-2.22-.308-2.66-.748a2.755,2.755,0,0,1-.736-1.86,3.529,3.529,0,0,1,1.383-2.559A7.567,7.567,0,0,1,233.7,25.1c-.88-.905-.995-1.846-1.152-3.358a5.56,5.56,0,0,0-.1-.7,2.786,2.786,0,0,1-.063-.348Z" transform="translate(312.044 27.871)" fill="#1a1311"/><path d="M234.521,20.881a8.567,8.567,0,0,1-4.988-5.828,7.97,7.97,0,0,1-4.741,5.971l-.734-.776a7.743,7.743,0,0,0,3.873-3.384c1.058-1.886,1.058-4.172,1.058-7.248l1.112.078c.221.014.35.038.35.155s-.129.219-.365.388c-.035.36-.1,2.157-.1,2.545a7.658,7.658,0,0,0,1.383,4.212,9.114,9.114,0,0,0,3.888,3.048Z" transform="translate(302.893 13)" fill="#1a1311"/><path d="M228.955,15.221v4.071h-3.937v7.22h-.905V15.221Zm-.9.776h-3.034v.891h3.034Zm0,1.6h-3.034v.931h3.034Zm-.207,7.752h-.877V20.506h4.986v4.172h-4.109Zm3.2-4.071h-3.2v.88h3.2Zm0,1.653h-3.2V23.9h3.2Zm1.512,2.573c.219.012.426.038.687.038.477,0,.659-.089.659-.414V19.292h-3.979V15.221h4.882V25c0,1.216-.1,1.423-1.783,1.472ZM233.906,16h-3.1v.891h3.1Zm0,1.6h-3.1v.931h3.1Z" transform="translate(302.968 20.577)" fill="#1a1311"/><path d="M229.417,23.424V20.555l1.009.118c.078.012.334.038.334.181,0,.1-.115.167-.334.3v2.274h4.2v.9h-4.2v2.688h3.758v.917h-3.758v3h5.141v.905H224.031v-.905h5.386v-3h-3.6v-.917h3.6V24.327h-3.269a7.755,7.755,0,0,1-1.383,2.159l-.84-.506a10.506,10.506,0,0,0,2.222-4.845l1.035.273c.089.026.285.078.285.219s-.247.221-.452.273a14.522,14.522,0,0,1-.492,1.524Z" transform="translate(302.714 27.788)" fill="#1a1311"/><path d="M225.783,31.884a16.034,16.034,0,0,0-1.912-1.176l.541-.854a12.363,12.363,0,0,1,1.889,1.19Zm-.092,5.36a1.16,1.16,0,0,1,.1.325.113.113,0,0,1-.115.1.771.771,0,0,1-.3-.1l-.9-.506a22.689,22.689,0,0,0,2.208-4.972l.75.7c-.543,1.512-1.136,2.985-1.745,4.457m.88-8.991a12.842,12.842,0,0,0-1.834-1.214l.541-.8A8.827,8.827,0,0,1,227.1,27.5Zm5.336,2.223v2.286h2.829V37.62h-.969v-.788h-4.6v.814h-.943V32.761H230.9V30.475h-3.617v-.917H230.9V27.582c-1.383.127-2.093.153-2.8.167l-.4-.943c.3.026.6.038,1.087.038a22.32,22.32,0,0,0,3.81-.36,14.959,14.959,0,0,0,1.667-.428l.6.684a.384.384,0,0,1,.1.207c0,.092-.052.129-.141.129a.736.736,0,0,1-.31-.089,24.179,24.179,0,0,1-2.6.463v2.107h3.667v.917Zm1.86,3.086h-4.6V35.99h4.6Z" transform="translate(302.641 35.225)" fill="#1a1311"/><path d="M306.826,14.867l1.218.08c.132.019.28.019.28.183,0,.132-.132.23-.346.329v1.087h4.069v3.591h2.585v1.087h-6.439a8.022,8.022,0,0,0,3.344,3.1,8.97,8.97,0,0,0,3.065.955l-.743,1.3a10.464,10.464,0,0,1-6.573-4.744,6.56,6.56,0,0,1-2.716,3.213,11.962,11.962,0,0,1-3.46,1.58l-.8-1.169a10,10,0,0,0,4.429-1.91,5.293,5.293,0,0,0,1.564-2.324h-6.258V20.137h2.354V16.546h4.433Zm2.436.51V14.223h-3.9v1.2h-1.152v-1.2h-4.069v-1.07h4.069v-1.5l1.27.132c.08,0,.245.033.245.148,0,.132-.181.214-.362.3v.922h3.9v-1.58l1.237.115c.146.016.3.033.3.181s-.167.214-.365.3v.988h4.1v1.07h-4.1v1.155Zm-2.669,4.76a13.928,13.928,0,0,0,.233-2.521h-3.262v2.521Zm4.351,0V17.616h-2.966a15.983,15.983,0,0,1-.216,2.521Z" transform="translate(405.607 15.645)" fill="#1a1311"/><path d="M299.969,21.537h6.014v1.072h-6.014Zm4.464,11.581v-.675h-2.752v.724h-1.07V28.11h4.925v5.007Zm-3.805-13.852h4.793v1.07h-4.793Zm0,4.464h4.793V24.75h-4.793Zm0,2.058h4.793v1.021h-4.793Zm3.805,3.295h-2.752v2.371h2.752Zm1.632-2.519v-1.04H308.5l.576-2.239h-1.943V22.247h2.206l.527-1.994h-3.243v-.988h7.806v.988h-3.311l-.527,1.994h3.18l-.132,3.276h1.336v1.04Zm6.818,6.472v-.724h-4.414v.774H307.3V27.9H314v5.139Zm0-4.118h-4.414v2.324h4.414Zm-2.554-5.633-.593,2.239h2.669l.129-2.239Z" transform="translate(405.514 26.044)" fill="#1a1311"/><path d="M399.838,12.67c-.28.626-.691,1.515-1.235,2.486.132.049.294.134.294.282s-.146.247-.393.379V26.556h-1.2V17.464a17.765,17.765,0,0,1-1.5,2.107l-1.07-.691a23.393,23.393,0,0,0,4.2-7.328l1.152.659c.066.033.2.115.2.214,0,.148-.148.181-.444.247m9.52,12.486a17.985,17.985,0,0,1-3.819-3.9v5.3h-1.155V21.187a16.353,16.353,0,0,1-4.167,4.48l-.938-.856a14.888,14.888,0,0,0,4.316-4.466h-3.921v-1.07h4.711V17.25h-3.13V12.275h7.3V17.25h-3.013v2.025h4.725v1.07h-4.085a14.232,14.232,0,0,0,4.135,3.822Zm-1.976-11.811h-4.974v2.883h4.974Z" transform="translate(533.62 15.616)" fill="#1a1311"/><path d="M399.264,19.762a18.2,18.2,0,0,1-1.169,2.9c.115.033.3.1.3.247s-.1.2-.426.4v10.56h-1.122v-9.01a8.735,8.735,0,0,1-1.2,1.745l-.889-.724a16.362,16.362,0,0,0,2.173-3.427,20.393,20.393,0,0,0,1.3-3.525l1.218.414c.082.014.23.1.23.212s-.115.148-.414.214m10.842,13.723c-1.336,0-5.207,0-6.343-.1a4.3,4.3,0,0,1-2.883-1.319A4.713,4.713,0,0,1,399.3,33.6l-.856-.76a4.676,4.676,0,0,0,1.8-1.679,9.884,9.884,0,0,1-1.2-3.9l.988-.165a11.916,11.916,0,0,0,.724,2.867,12.963,12.963,0,0,0,.546-4.069h-1.27c-.148.3-.3.593-.461.889l-.955-.329a40.839,40.839,0,0,0,2.058-4.892h-1.449v-1.07h2.437l.379.461a37.453,37.453,0,0,1-1.58,3.9h1.929a15.476,15.476,0,0,1-.941,6.258c.957,1.218,1.961,1.3,3.921,1.3A33.792,33.792,0,0,0,410.5,32.1Zm-.955-9.654V26.2h-2.571v1.152h2.437v.99h-2.437V29.7h3.048v.955h-3.048V32h-1.04v-1.35h-2.6V29.7h2.6v-1.35h-2.173v-.99h2.173V26.2h-2.06v-.988h2.06V23.83H402.38v-.988h3.161V21.509h-2.387v-.99h2.387v-1.5l1.237.214c.115.033.228.115.228.2,0,.129-.212.228-.426.31v.774h2.571v2.324h1.1v.988Zm-1.023-2.321h-1.548v1.334h1.548Zm0,2.321h-1.548v1.383h1.548Z" transform="translate(533.648 25.581)" fill="#1a1311"/><path d="M391.881,12.611a27.455,27.455,0,0,1-1.188,2.733c.28.1.529.2.477.346a1.079,1.079,0,0,1-.343.445V26.545h-1.2V17.124a13.661,13.661,0,0,1-1.5,1.992l-.99-.724a19.413,19.413,0,0,0,3.956-6.82l.988.529c.132.063.228.148.228.247,0,.181-.28.23-.426.263m9.882,10.278a18.921,18.921,0,0,1-4.365-5.32v5.024h2.521v1.119H397.4v2.867h-1.171V23.711h-2.4V22.592h2.4V17.749a20.323,20.323,0,0,1-3.9,5.616l-1.1-.724a15.357,15.357,0,0,0,4.363-6.275h-3.819V15.261h4.461V11.705l1.138.129c.115.019.329.033.329.167s-.214.261-.3.329v2.93h4.793v1.105h-4.414a18.394,18.394,0,0,0,4.941,5.616Z" transform="translate(523.35 15.643)" fill="#1a1311"/><path d="M397.9,21.642a22.313,22.313,0,0,1,3.561,3.213l-.955.856a13.293,13.293,0,0,0-1.632-1.764c-2.469.329-5.748.743-10.508,1.188-.132.346-.266.428-.348.428-.1,0-.132-.082-.2-.3l-.477-1.4a6.626,6.626,0,0,0,.809,0c.426-.033,2.288-.148,2.669-.167a19.265,19.265,0,0,0,1.677-2.058H387.42V20.605h6.475v-1.7l1.3.132c.2.016.379.049.379.183s-.049.148-.428.329v1.054h6.524v1.037Zm-.08,12.173h-1.037l-.562-1.235a11.812,11.812,0,0,0,1.185.08c.628,0,.694-.08.694-.691v-.675h-7.067V33.98h-1.169V25.5h9.405V32.1c0,1.169-.115,1.712-1.449,1.712m.28-7.2h-7.067V27.9H398.1Zm0,2.324h-7.067v1.317H398.1Zm-1.152-6.573.557-.724h-3.589a22.685,22.685,0,0,1-1.531,1.945c1.613-.134,3.869-.332,5.55-.494-.151-.118-.842-.611-.988-.727" transform="translate(523.624 25.56)" fill="#1a1311"/><path d="M422.8,18.524V17.4h4.217a5.585,5.585,0,0,0-1.235-2.06l.724-.51h-2.7V13.747h5.534V11.572l1.385.165c.115.016.329.049.329.181,0,.167-.247.28-.428.365v1.465h5.534v1.087H433.7l.362.2c.115.066.2.115.2.181,0,.214-.428.23-.527.23a11.466,11.466,0,0,1-.974,1.961h4.431v1.119Zm10.854,7.921V25.77h-7.411v.724H424.99V19.676h9.948v6.769Zm0-5.7h-7.411V22.2h7.411Zm0,2.439h-7.411v1.5h7.411Zm-6.719-8.351a7.811,7.811,0,0,1,1.366,2.223l-.51.348h4.3l-.607-.348a8.875,8.875,0,0,0,1.152-2.223Z" transform="translate(571.561 15.645)" fill="#1a1311"/><path d="M431.772,29.328a14.14,14.14,0,0,0,5.666,3.081l-.856,1.035a13.332,13.332,0,0,1-5.88-3.77v4.019h-1.155V29.624a14.773,14.773,0,0,1-5.8,3.986l-1.07-.941a10.777,10.777,0,0,0,5.567-3.342h-5.454V28.34h6.755V27.268l1.218.082c.035,0,.216.016.216.115,0,.115-.181.214-.28.263v.611h6.8v.988Zm-7.676-2.62c-.016.132-.066.593-.313.593-.118,0-.181-.148-.247-.28l-.51-1.119a20.52,20.52,0,0,0,3.391-2.5l.249,1.122a21.365,21.365,0,0,1-2.571,2.19m1.418-3.9a17.085,17.085,0,0,0-2.192-1.976l.593-.988a16.272,16.272,0,0,1,2.321,1.943Zm1.926,4.25V20.911h1.251a11.534,11.534,0,0,0,1.152-2.011l1.138.543c.146.068.181.132.181.181,0,.148-.052.148-.477.233a5.063,5.063,0,0,1-.809,1.054h2.883v6.143Zm4.2-5.155h-3.083v1.616h3.083Zm0,2.521h-3.083v1.646h3.083Zm4.628,2.371a24.492,24.492,0,0,0-2.818-2.008l.543-.99a22.565,22.565,0,0,1,2.966,1.978Zm.477-5.748a1.146,1.146,0,0,1-.263-.033,19.391,19.391,0,0,1-2.093,1.745l-.856-.889a13.009,13.009,0,0,0,2.486-2.107l.776.938c.033.049.132.165.132.247,0,.1-.132.1-.181.1" transform="translate(571.401 25.551)" fill="#1a1311"/><path d="M448,16.3a16.323,16.323,0,0,1-.727,3.953l-1.1-.346a18.308,18.308,0,0,0,.774-4.25l1.073.132c.1.016.31.049.31.23,0,.165-.162.214-.327.28m1.778-4.052v14.4h-1.2V11.64l1.284.132c.132.016.247.115.247.2,0,.115-.263.247-.329.28m1.072,4.777a10.316,10.316,0,0,0-.612-2.387l.99-.263a8.922,8.922,0,0,1,.692,2.354Zm.593.905v-.985h4.381V15.923h-3.048v-.938h3.048V14.03H452.09v-.99h3.739V11.558l1.232.132c.348.033.348.2.348.214,0,.115-.214.247-.379.346v.79h3.9v.99h-3.9v.955h3.394v.938h-3.394v1.023h4.414v.985Zm6.258,8.631-.593-1.268c.165,0,.938.049,1.169.049.346,0,.675-.082.675-.741v-.84h-4.809v2.848H453V18.839h7.114v6.324c0,1.072-.263,1.35-2.4,1.4m1.251-6.7h-4.809V20.8h4.809Zm0,1.91h-4.809v1h4.809Z" transform="translate(603.163 15.626)" fill="#1a1311"/><path d="M446.308,24.55v-.988h3.509v-1.55h-2.8V20.991h2.8V18.95l1.218.132c.049,0,.28.033.28.165s-.1.181-.346.329v1.416h2.7v1.021h-2.7v1.55h3.262v.988Zm4.661,3.822V30.15h2.785V31.17h-2.785v2.719h-1.152V31.17H447.1V30.15h2.719V28.372h-3.078V27.3h5.35l-.774-.477a10.588,10.588,0,0,0,1.136-2.258l.941.494c.066.033.165.115.165.2,0,.148-.2.132-.3.115a14.83,14.83,0,0,1-.924,1.929h1.7v1.07Zm-2.321-1.152a9.227,9.227,0,0,0-1.073-2.027l.908-.51a8.3,8.3,0,0,1,1.2,2.143ZM460.7,33.51a12.11,12.11,0,0,1-1.844-1.679A6.794,6.794,0,0,1,457.2,33.51l-.99-.807a6.342,6.342,0,0,0,1.879-1.762,11.611,11.611,0,0,1-1.547-3.493l.9-.428A8.394,8.394,0,0,0,458.7,29.9a11.507,11.507,0,0,0,.938-3.556h-3.605v7.542h-1.155V19.74h5.7c0,4.513-.031,4.53-2.519,4.678l-.477-1.169c1.926.049,1.926-.082,1.926-2.488h-3.474v4.546h4.363l.43.4a13.7,13.7,0,0,1-1.352,5.141,8.47,8.47,0,0,0,2.008,1.712Z" transform="translate(603.343 25.619)" fill="#1a1311"/><path d="M485.837,24.353V18.687h-6.771v5.666h-1.484V12.328h1.484v5.059h6.771V12.328h1.5V24.353Z" transform="translate(645.621 16.666)" fill="#1a1311"/><path d="M485.33,31.7a5.787,5.787,0,0,1-.266-2.06V28.606c0-1.646-.92-2.041-2.008-2.041h-3.772V31.7H477.8V19.678h5.717a3.1,3.1,0,0,1,3.344,3.246,3.336,3.336,0,0,1-.924,2.371,2.994,2.994,0,0,1-.971.6,1.608,1.608,0,0,1,1.169.856,3.448,3.448,0,0,1,.414,1.745v.889a7.79,7.79,0,0,0,.132,1.4.885.885,0,0,0,.428.675V31.7ZM483.236,20.9h-3.953v4.48h3.808a2.152,2.152,0,0,0,2.222-2.288,2,2,0,0,0-2.077-2.192" transform="translate(645.914 26.603)" fill="#1a1311"/><path d="M497.346,13.51c-.129-.329-.492-1.237-2.622-1.237-2.881,0-3.062,1.818-3.062,2.385,0,1.261.917,2.354,2.869,2.354,2.413,0,2.738-1.569,2.815-1.95h-2.5v-.534h3.631v2.9H497.5v-.687a4.656,4.656,0,0,1-3,.84c-2.6,0-4.057-1.275-4.057-2.935,0-1.275.917-2.949,4.3-2.949,2.223,0,3.5.734,3.822,1.811Z" transform="translate(663.011 15.816)" fill="#1a1311"/><path d="M491.065,20.459V14.879h1.176v5h4.612v.581Z" transform="translate(663.848 20.114)" fill="#1a1311"/><path d="M494.538,23.816c-2.429,0-4.1-1.162-4.1-2.945s1.653-2.942,4.1-2.942c2.427,0,4.08,1.169,4.08,2.942,0,1.79-1.667,2.945-4.08,2.945m0-5.313c-1.811,0-2.869.978-2.869,2.368s1.058,2.371,2.869,2.371,2.867-.992,2.867-2.371-1.058-2.368-2.867-2.368" transform="translate(663.004 24.238)" fill="#1a1311"/><path d="M494.576,26.929c-2.712,0-4.135-1.3-4.135-2.959,0-1.583,1.343-2.926,4.278-2.926a5.283,5.283,0,0,1,3.191.877,2.156,2.156,0,0,1,.644.955h-1.239c-.285-1.023-1.613-1.261-2.622-1.261-2.855,0-3.036,1.851-3.036,2.378-.012,1.077.722,2.371,2.947,2.371,2.18,0,2.66-1.216,2.775-1.5h1.242c-.454,1.162-1.642,2.063-4.045,2.063" transform="translate(663.004 28.451)" fill="#1a1311"/><path d="M497.4,29.8l-.917-1.566h-3.916l-.917,1.566h-1.2l3.384-5.579h1.383L498.6,29.8ZM494.527,24.9,492.874,27.7h3.295Z" transform="translate(663.012 32.75)" fill="#1a1311"/><path d="M491.065,32.921V27.34h1.176v5h4.612v.581Z" transform="translate(663.848 36.96)" fill="#1a1311"/><path d="M496.606,9.441h.856L497.2,12.2l.033.019,2.5-1.59.44.68-2.789,1.164v.038l2.789,1.167-.44.675-2.5-1.587-.033.019.261,2.754h-.856l.261-2.754-.031-.019-2.507,1.587-.437-.675,2.787-1.167v-.038L493.891,11.3l.438-.68,2.507,1.59.031-.019Z" transform="translate(667.669 12.764)" fill="#1a1311"/><path d="M108.837,25.734v-.56h-10.8v.56h-1.2V11.915h13.21V25.734Zm0-12.7h-10.8V24.02h10.8Zm-9.946,9.372v-1.07h4.036V18.851h-2.883v-1.04h2.883V15.586H99.449V14.551h8.107v1.035h-3.476v2.225h2.749v1.04h-2.749v2.486h3.855v1.07Zm6.95-1.333a5.634,5.634,0,0,0-1.037-1.418l.823-.675a6.291,6.291,0,0,1,1.087,1.4Z" transform="translate(130.901 16.108)" fill="#1a1311"/><path d="M96.467,21.537h6.014v1.072H96.467Zm4.464,11.581v-.675H98.179v.724h-1.07V28.11h4.925v5.007ZM97.126,19.265h4.793v1.07H97.126Zm0,4.464h4.793V24.75H97.126Zm0,2.058h4.793v1.021H97.126Zm3.805,3.295H98.179v2.371h2.752Zm1.632-2.519v-1.04H105l.576-2.239h-1.943V22.247h2.206l.527-1.994h-3.243v-.988h7.806v.988h-3.311l-.527,1.994h3.18l-.132,3.276h1.336v1.04Zm6.818,6.472v-.724h-4.414v.774H103.8V27.9h6.7v5.139Zm0-4.118h-4.414v2.324h4.414Zm-2.554-5.633-.593,2.239H108.9l.129-2.239Z" transform="translate(130.409 26.044)" fill="#1a1311"/><path d="M64.606,44.677v-8.8H62.071v-1.07c1.07-.066,2.4-.148,2.914-2.159h1.138V44.677Z" transform="translate(83.911 44.142)" fill="#1a1311"/><path d="M159.007,11.957v1.07H146.688c.033,1.152.047,2.867.047,3.262,0,4.925-.593,7.081-1.548,9.224l-1.2-.56c1.188-2.34,1.632-4.233,1.632-8.714,0-1.435-.049-2.85-.165-4.283Zm-7.987,4.25a5.394,5.394,0,0,0,1.764,1.811l-.727.724a5.229,5.229,0,0,1-1.385-1.5v3.079h-.985V17.195a12.728,12.728,0,0,1-1.961,2.571l-.875-.644a8.594,8.594,0,0,0,2.324-2.914H147.3v-.988h2.357V13.587l1.016.082c.181.016.332.033.332.181,0,.165-.2.249-.332.3v1.07H152.6v.988Zm1.366,4.017,1.254.1c.113.019.294.019.294.183s-.181.23-.379.313v1.07h4.069v.988h-4.069v1.583h5.32v.988H146.949v-.988h1.978V21.2l1.155.115c.066,0,.294.016.294.165s-.2.23-.343.3v2.686h2.354Zm4.088-4.066a9.277,9.277,0,0,0,2.782,2.8l-.776.727a7.308,7.308,0,0,1-2.3-2.439v3.029h-.99V17.195a9.48,9.48,0,0,1-2.138,2.752l-.875-.644a7.046,7.046,0,0,0,2.486-3.144h-1.15v-.938h1.632v-1.5l1.051.049c.132,0,.329.033.329.181s-.165.23-.346.329v.941H158.4v.938Z" transform="translate(194.644 16.165)" fill="#1a1311"/><path d="M145.678,26.748V21.936h5.485c0-1.037,0-1.366-.052-2.966l1.319.1c.165,0,.346.019.346.148,0,.167-.247.3-.414.381v2.338h5.454v4.812H152.15a10.1,10.1,0,0,1-1.087,3.786c2.585,1.83,5.55,1.879,8.069,1.83l-.675,1.333a13.42,13.42,0,0,1-8.055-2.291c-1.089,1.188-2.653,1.961-5.8,2.554l-.593-1.317a8.938,8.938,0,0,0,5.534-1.961,12.14,12.14,0,0,1-2.472-3.161l1.087-.4a9.144,9.144,0,0,0,2.011,2.683A9.489,9.489,0,0,0,151,26.748Zm5.4-1.122c.068-1.432.068-1.6.085-2.568h-4.285v2.568Zm5.536,0V23.058h-4.252c-.014.988-.031,1.449-.129,2.568Z" transform="translate(194.684 25.646)" fill="#1a1311"/><path d="M142.1,20.086a7.34,7.34,0,0,0-.329-.807c-.346.049-.889.132-1.515.214v7.1h-1.122V19.625c-.623.066-1.317.132-1.943.165-.214.329-.4.4-.477.4s-.2-.115-.233-.4l-.129-1.136c.691,0,1.169-.016,1.646-.049a18.781,18.781,0,0,0,1.27-1.566A14.247,14.247,0,0,0,136.7,14.42l.675-.807a7.369,7.369,0,0,1,.873.675,11.384,11.384,0,0,0,1.616-2.7l1.07.691a.343.343,0,0,1,.165.247c0,.148-.132.167-.444.216a26.69,26.69,0,0,1-1.646,2.321c.738.741.821.807.955.938a20.113,20.113,0,0,0,1.531-2.354l1.04.823a.438.438,0,0,1,.2.3c0,.165-.216.181-.5.181-.659.905-1.087,1.465-1.533,2.025l.891-.442a15.719,15.719,0,0,1,1.5,3.046ZM138.43,21.52a17.5,17.5,0,0,1-.691,3.921l-1.122-.3a18.169,18.169,0,0,0,.774-4.285l1.07.167c.23.031.266.162.266.228,0,.132-.115.181-.3.266m2.206-4.464c-.115.132-.675.84-1.188,1.432.5-.033,1.35-.132,1.879-.2a8.724,8.724,0,0,0-.691-1.235m.84,7.493a16.065,16.065,0,0,0-.642-3.657l.988-.3a12.933,12.933,0,0,1,.79,3.739Zm3.015-2.19a14.142,14.142,0,0,1-1.056,3.509l-1.07-.428a12.622,12.622,0,0,0,1.1-3.937l1.122.346c.1.031.247.1.247.263s-.132.2-.346.247m1.465-9.407a17.119,17.119,0,0,1-1.877,2.933l-.955-.642a14.868,14.868,0,0,0,2.091-3.361l.889.494c.082.049.23.148.23.282s-.148.2-.379.294m3.556,6.705c-.327-.691-.409-.856-.557-1.119-1.089.247-2.192.461-4.694.807-.035.082-.181.412-.346.412s-.2-.214-.23-.362l-.249-1.152a10.425,10.425,0,0,0,1.451-.082,15.212,15.212,0,0,0,1.416-3.394l1.122.428c.214.082.228.2.228.247,0,.132-.129.165-.362.214-.494,1.07-.722,1.55-1.152,2.324,1.235-.148,1.7-.214,2.274-.3-.151-.247-.181-.3-.529-.809l.908-.56a12.829,12.829,0,0,1,1.679,2.785Zm-.757,6.475h-2.4c-.84,0-1.2-.444-1.2-1.237V20.777l1.122.115c.08.016.376.049.376.214,0,.1-.033.118-.346.315v3.128a.531.531,0,0,0,.609.6h1.5c.56,0,.623-.365.8-1.237l1.122.51c-.362,1.616-.757,1.715-1.583,1.715m-.609-3.739a14.519,14.519,0,0,0-1.5-2.11l.793-.642A9.141,9.141,0,0,1,149,21.751ZM150.37,16a9.008,9.008,0,0,1-2.9-3.608l.941-.56a11.508,11.508,0,0,0,1.119,1.715,5.558,5.558,0,0,0,1.663,1.564Zm.263,8.368a8.824,8.824,0,0,0-1.418-2.14l.858-.6a7.836,7.836,0,0,1,1.416,2.093Z" transform="translate(184.329 15.664)" fill="#1a1311"/><path d="M150.307,26.039a15.274,15.274,0,0,1-6.522-5.4,14.619,14.619,0,0,1-6.524,5.616l-.887-1.037a13.389,13.389,0,0,0,6.98-6.294l1.336.494c.23.082.313.23.313.3,0,.167-.214.2-.362.23a12.307,12.307,0,0,0,2.6,2.8,13.884,13.884,0,0,0,4,2.175Zm-2.963,7.742v-.76h-7v.809h-1.2V28.047h9.407v5.734Zm-7.117-8.911h7.3v1.119h-7.3Zm7.117,4.25h-7V31.9h7Z" transform="translate(184.359 25.581)" fill="#1a1311"/><path d="M141.279,44.866c.247-2.867,2.008-4.069,5.026-5.781,1.794-1.023,2.6-1.468,2.6-2.982,0-1.893-1.548-2.357-2.669-2.357a2.82,2.82,0,0,0-3,3.032h-1.564a4.385,4.385,0,0,1,1.07-2.9,4.72,4.72,0,0,1,3.46-1.369c1.712,0,4.184.79,4.184,3.509,0,2.126-1.235,3.032-3.443,4.2-3.032,1.613-3.443,2.651-3.772,3.41h7.215v1.235Z" transform="translate(190.988 43.952)" fill="#1a1311"/><path d="M169.487,13.071a22.308,22.308,0,0,1-3.77,6.555l-1.04-.774a19.094,19.094,0,0,0,3.822-7.084l1.366.708a.291.291,0,0,1,.167.216c0,.212-.249.3-.546.379M177.673,25.8a16.415,16.415,0,0,0-1.169-1.943c-1.039.181-3.377.609-5.075.905-1.183.2-2.865.461-5.172.79-.063.132-.245.463-.442.463-.134,0-.181-.118-.216-.266l-.36-1.449c.3-.033.409-.033.557-.049.3-.033,1.55-.181,1.811-.214a76.272,76.272,0,0,0,3.723-8.319l1.268.626c.183.1.233.167.233.247,0,.181-.2.23-.576.315-1.531,3.408-2.107,4.694-3.295,6.983,2.091-.23,4.563-.609,6.853-.955a30.569,30.569,0,0,0-2.208-2.455l.856-.774a21.935,21.935,0,0,1,4.384,5.534Zm.659-6.686a9.533,9.533,0,0,1-4.349-6.176h-2.223V11.817h3.262a7.96,7.96,0,0,0,4.149,6.195Z" transform="translate(222.619 15.91)" fill="#1a1311"/><path d="M164.755,27.786V26.617h4.2V22.976h-3.328V21.824h3.328V18.43l1.221.115c.179.016.278.115.278.181,0,.1-.014.115-.3.379v2.719H173.6V18.348l1.2.115c.148.016.3.115.3.181,0,.049,0,.082-.31.379v2.8h3.326v1.152h-3.326v3.641H179v1.169Zm5.4,1.827a11.074,11.074,0,0,1-4.019,3.344l-.971-1a9.658,9.658,0,0,0,4.365-3.492l.953.593c.118.082.183.148.183.23,0,.165-.183.23-.51.329m3.443-6.637h-3.443v3.641H173.6Zm3.89,9.981a15.9,15.9,0,0,1-4.137-3.986l1.087-.576a14.313,14.313,0,0,0,4.135,3.674Z" transform="translate(222.725 24.805)" fill="#1a1311"/><path d="M165.754,44.866C166,42,167.762,40.8,170.78,39.085c1.794-1.023,2.6-1.468,2.6-2.982,0-1.893-1.547-2.357-2.669-2.357a2.82,2.82,0,0,0-3,3.032h-1.564a4.384,4.384,0,0,1,1.07-2.9,4.72,4.72,0,0,1,3.46-1.369c1.712,0,4.184.79,4.184,3.509,0,2.126-1.235,3.032-3.443,4.2-3.032,1.613-3.443,2.651-3.772,3.41h7.216v1.235Z" transform="translate(224.075 43.952)" fill="#1a1311"/><path d="M201.993,45.2a4.4,4.4,0,0,1-3.789-1.63,4.323,4.323,0,0,1-.757-2.406h1.5a2.736,2.736,0,0,0,3.081,2.8c2.025,0,3.048-1.169,3.048-2.636,0-1.745-1.451-2.3-2.735-2.3h-1.27V37.931h1.072c.922,0,2.568-.51,2.568-2.107,0-.922-.524-2.077-2.535-2.077a2.71,2.71,0,0,0-2.14.823,2.816,2.816,0,0,0-.611,1.649h-1.482c.23-2.916,2.406-3.707,4.25-3.707,2.4,0,4,1.284,4,3.147a2.7,2.7,0,0,1-2.093,2.719,2.844,2.844,0,0,1,2.455,2.963c0,2.14-1.665,3.855-4.563,3.855" transform="translate(266.919 43.952)" fill="#1a1311"/><path d="M227.638,44.866c.247-2.867,2.008-4.069,5.026-5.781,1.794-1.023,2.6-1.468,2.6-2.982,0-1.893-1.548-2.357-2.669-2.357a2.82,2.82,0,0,0-3,3.032h-1.564a4.385,4.385,0,0,1,1.07-2.9,4.721,4.721,0,0,1,3.46-1.369c1.712,0,4.184.79,4.184,3.509,0,2.126-1.235,3.032-3.443,4.2-3.032,1.613-3.443,2.651-3.772,3.41h7.216v1.235Z" transform="translate(307.733 43.952)" fill="#1a1311"/><path d="M258,15.278V11.621l1.284.148c.1.016.43.049.43.23,0,.132-.151.214-.43.379v2.9h5.353v1.152h-5.353v3.427h4.793v1.169h-4.793v3.822h6.557V26H251.135V24.848H258V21.026h-4.6V19.857H258V16.431h-4.165a10.055,10.055,0,0,1-1.764,2.752L251,18.54a13.46,13.46,0,0,0,2.836-6.178l1.315.346c.115.033.362.1.362.28,0,.2-.31.282-.576.346a16.707,16.707,0,0,1-.626,1.945Z" transform="translate(339.319 15.711)" fill="#1a1311"/><path d="M255.4,28.115V33.83h-1.2V28.675c-.823.379-1.119.494-2.058.875-.1.148-.315.494-.43.494s-.162-.214-.2-.365l-.28-1.284a26.739,26.739,0,0,0,2.966-1.021V23.8h-1.418c-.3.922-.426,1.268-.8,2.239l-1.122-.426a20.221,20.221,0,0,0,1.5-5.207l1.218.4c.148.049.247.148.247.23,0,.134-.23.183-.379.233-.148.675-.2.873-.329,1.416H254.2V19.089l1.235.1c.151.016.313.033.313.148,0,.082-.033.115-.343.329V22.68h1.5V23.8h-1.5v3.032c.607-.28,1.152-.576,1.712-.891v1.286c-.659.362-1.12.593-1.712.889m9.372,4.085c-.477,1.418-1.333,1.418-3.1,1.418l-.4-1.237c.3.016.626.033.938.033,1.319,0,1.547-.428,1.778-2.173a53.611,53.611,0,0,0,.3-7.034h-.694a16.339,16.339,0,0,1-4.675,10.412l-.99-.809a14.04,14.04,0,0,0,4.546-9.6h-1.1a15.09,15.09,0,0,1-3.953,7.808l-.908-.823a12.394,12.394,0,0,0,2.439-3.311,14.449,14.449,0,0,0,1.254-3.674h-1.2a15.425,15.425,0,0,1-1.366,2.225l-1.152-.513a15.513,15.513,0,0,0,3-5.962l1.171.362c.115.033.3.082.3.214,0,.181-.346.23-.445.23-.412,1.169-.609,1.632-.941,2.373h5.882c.016,2.6.033,7.94-.675,10.064" transform="translate(339.12 25.628)" fill="#1a1311"/><path d="M252.116,44.866c.247-2.867,2.008-4.069,5.026-5.781,1.794-1.023,2.6-1.468,2.6-2.982,0-1.893-1.547-2.357-2.669-2.357a2.82,2.82,0,0,0-3,3.032h-1.564a4.385,4.385,0,0,1,1.07-2.9,4.721,4.721,0,0,1,3.46-1.369c1.712,0,4.184.79,4.184,3.509,0,2.126-1.235,3.032-3.443,4.2-3.032,1.613-3.443,2.651-3.772,3.41h7.216v1.235Z" transform="translate(340.824 43.952)" fill="#1a1311"/><path d="M305.945,45.2c-4.118,0-4.744-3.986-4.744-6.08,0-4.283,1.943-6.6,4.941-6.6a3.775,3.775,0,0,1,3.97,3.062h-1.55a2.188,2.188,0,0,0-2.42-1.778c-3.18,0-3.328,3.608-3.377,4.826a3.932,3.932,0,0,1,3.427-1.663,3.833,3.833,0,0,1,4.118,3.951,4.149,4.149,0,0,1-4.365,4.285m2.223-6.112a2.659,2.659,0,0,0-2.192-.905A2.722,2.722,0,0,0,303,40.9a2.845,2.845,0,0,0,2.9,3.062,2.7,2.7,0,0,0,2.865-2.916,3.291,3.291,0,0,0-.593-1.959" transform="translate(407.179 43.954)" fill="#1a1311"/><path d="M361.139,14.867l1.218.08c.132.019.28.019.28.183,0,.132-.132.23-.346.329v1.087h4.069v3.591h2.585v1.087h-6.439a8.022,8.022,0,0,0,3.344,3.1,8.97,8.97,0,0,0,3.065.955l-.743,1.3a10.464,10.464,0,0,1-6.573-4.744,6.56,6.56,0,0,1-2.716,3.213,11.963,11.963,0,0,1-3.46,1.58l-.8-1.169a10,10,0,0,0,4.429-1.91,5.293,5.293,0,0,0,1.564-2.324h-6.258V20.137h2.354V16.546h4.433Zm2.436.51V14.223h-3.9v1.2H358.52v-1.2h-4.069v-1.07h4.069v-1.5l1.27.132c.08,0,.245.033.245.148,0,.132-.181.214-.362.3v.922h3.9v-1.58l1.237.115c.146.016.3.033.3.181s-.167.214-.365.3v.988h4.1v1.07h-4.1v1.155Zm-2.669,4.76a13.917,13.917,0,0,0,.233-2.521h-3.262v2.521Zm4.351,0V17.616h-2.966a15.983,15.983,0,0,1-.216,2.521Z" transform="translate(479.032 15.645)" fill="#1a1311"/><path d="M368.733,24.638a15.423,15.423,0,0,1-4.184-2.3,13.072,13.072,0,0,1-2.587-2.719,17.1,17.1,0,0,1-6.917,5.289l-.889-1.072a13.131,13.131,0,0,0,7.248-5.666l1.251.428c.2.066.36.132.36.3a.532.532,0,0,1-.063.214c.938,1.632,3.309,3.361,6.637,4.464Zm-7.147,3.394c-1.037,1.83-1.682,2.867-2.077,3.476,1.5-.181,3.18-.362,4.612-.56.447-.066.757-.115,1.054-.165-.774-1.056-.971-1.3-1.366-1.762l1.021-.562a17.731,17.731,0,0,1,2.966,4.2l-1.119.59c-.71-1.235-.757-1.3-.938-1.613-2.11.4-4.53.825-8.765,1.334-.1.167-.245.379-.343.379-.151,0-.214-.2-.249-.31l-.3-1.237c.529,0,.856-.033,2.011-.132a27.007,27.007,0,0,0,2.025-3.641h-4.941V26.863h13.737v1.169Zm-3.229-4.414h7.2v1.1h-7.2Z" transform="translate(478.767 24.559)" fill="#1a1311"/><path d="M354.387,27.616h6.143v1.037h-6.143ZM358.9,39.561v-.628h-3v.757h-1.12v-5.4h5.238v5.273ZM355,25.443h4.81v1.021H355Zm0,4.365h4.81v1.021H355Zm0,2.208h4.81v1.072H355Zm3.9,3.342h-3v2.5h3Zm6.472-4.875v2.8h2.7v6.341H366.92V38.7h-4.247v.971h-1.155v-6.39h2.653v-2.8h-3.394v-1.07h3.394v-2.62a20.192,20.192,0,0,1-2.62.315l-.774-1.122a18.462,18.462,0,0,0,6.31-1.037l.757.708a.485.485,0,0,1,.165.3.13.13,0,0,1-.132.132,1.234,1.234,0,0,1-.263-.066c-.346.1-1.91.494-2.241.562v2.832H368.9v1.07ZM366.92,34.3h-4.25v3.377h4.25Z" transform="translate(479.079 33.728)" fill="#1a1311"/><path d="M360.06,45.2a4.4,4.4,0,0,1-3.789-1.63,4.323,4.323,0,0,1-.757-2.406h1.5a2.736,2.736,0,0,0,3.081,2.8c2.025,0,3.048-1.169,3.048-2.636,0-1.745-1.451-2.3-2.735-2.3h-1.27V37.931h1.073c.922,0,2.568-.51,2.568-2.107,0-.922-.524-2.077-2.535-2.077a2.71,2.71,0,0,0-2.14.823,2.816,2.816,0,0,0-.611,1.649h-1.482c.23-2.916,2.406-3.707,4.25-3.707,2.4,0,4,1.284,4,3.147a2.7,2.7,0,0,1-2.093,2.719,2.844,2.844,0,0,1,2.455,2.963c0,2.14-1.665,3.855-4.563,3.855" transform="translate(480.603 43.952)" fill="#1a1311"/><path d="M397.654,45.2a4.4,4.4,0,0,1-3.789-1.63,4.323,4.323,0,0,1-.757-2.406h1.5a2.736,2.736,0,0,0,3.081,2.8c2.025,0,3.048-1.169,3.048-2.636,0-1.745-1.451-2.3-2.735-2.3h-1.27V37.931H397.8c.922,0,2.568-.51,2.568-2.107,0-.922-.525-2.077-2.535-2.077a2.71,2.71,0,0,0-2.14.823,2.816,2.816,0,0,0-.612,1.649H393.6c.23-2.916,2.406-3.707,4.25-3.707,2.4,0,4,1.284,4,3.147a2.7,2.7,0,0,1-2.093,2.719,2.844,2.844,0,0,1,2.455,2.963c0,2.14-1.665,3.855-4.563,3.855" transform="translate(531.424 43.952)" fill="#1a1311"/><path d="M423.827,44.866c.247-2.867,2.008-4.069,5.026-5.781,1.794-1.023,2.6-1.468,2.6-2.982,0-1.893-1.548-2.357-2.669-2.357a2.82,2.82,0,0,0-3,3.032h-1.564a4.385,4.385,0,0,1,1.07-2.9,4.721,4.721,0,0,1,3.46-1.369c1.712,0,4.184.79,4.184,3.509,0,2.126-1.235,3.032-3.443,4.2-3.032,1.613-3.443,2.651-3.772,3.41h7.216v1.235Z" transform="translate(572.952 43.952)" fill="#1a1311"/><path d="M447.414,44.866c.247-2.867,2.008-4.069,5.026-5.781,1.794-1.023,2.6-1.468,2.6-2.982,0-1.893-1.548-2.357-2.669-2.357a2.82,2.82,0,0,0-3,3.032h-1.564a4.385,4.385,0,0,1,1.07-2.9,4.72,4.72,0,0,1,3.46-1.369c1.712,0,4.184.79,4.184,3.509,0,2.126-1.235,3.032-3.443,4.2-3.032,1.613-3.443,2.651-3.772,3.41h7.215v1.235Z" transform="translate(604.838 43.952)" fill="#1a1311"/><path d="M480.864,44.677v-8.8h-2.535v-1.07c1.07-.066,2.4-.148,2.914-2.159h1.138V44.677Z" transform="translate(646.63 44.142)" fill="#1a1311"/><path d="M470.3,20.086a7.33,7.33,0,0,0-.329-.807c-.346.049-.889.132-1.515.214v7.1h-1.122V19.625c-.623.066-1.317.132-1.943.165-.214.329-.4.4-.477.4s-.2-.115-.233-.4l-.129-1.136c.691,0,1.169-.016,1.646-.049a18.75,18.75,0,0,0,1.27-1.566,14.245,14.245,0,0,0-2.57-2.618l.675-.807a7.369,7.369,0,0,1,.873.675,11.386,11.386,0,0,0,1.616-2.7l1.07.691a.342.342,0,0,1,.165.247c0,.148-.132.167-.445.216a26.71,26.71,0,0,1-1.646,2.321c.738.741.821.807.955.938a20.116,20.116,0,0,0,1.531-2.354l1.04.823a.438.438,0,0,1,.2.3c0,.165-.216.181-.5.181-.658.905-1.087,1.465-1.533,2.025l.891-.442a15.722,15.722,0,0,1,1.5,3.046ZM466.63,21.52a17.5,17.5,0,0,1-.691,3.921l-1.122-.3a18.174,18.174,0,0,0,.774-4.285l1.07.167c.23.031.266.162.266.228,0,.132-.115.181-.3.266m2.206-4.464c-.115.129-.675.84-1.188,1.432.5-.033,1.35-.132,1.879-.2a8.714,8.714,0,0,0-.691-1.235m.84,7.493a16.069,16.069,0,0,0-.642-3.657l.988-.3a12.934,12.934,0,0,1,.79,3.739Zm3.015-2.19a14.145,14.145,0,0,1-1.056,3.509l-1.07-.428a12.625,12.625,0,0,0,1.1-3.937l1.122.346c.1.031.247.1.247.263s-.132.2-.346.247m1.465-9.407a17.112,17.112,0,0,1-1.877,2.933l-.955-.642a14.873,14.873,0,0,0,2.091-3.361l.889.494c.082.049.23.148.23.282s-.148.2-.379.294m3.556,6.705c-.327-.691-.409-.856-.557-1.119-1.089.247-2.192.461-4.694.807-.035.082-.181.412-.346.412s-.2-.214-.23-.362l-.249-1.152a10.426,10.426,0,0,0,1.451-.082,15.218,15.218,0,0,0,1.416-3.394l1.122.428c.214.082.228.2.228.247,0,.132-.129.165-.362.214-.494,1.07-.722,1.55-1.152,2.324,1.235-.148,1.7-.214,2.274-.3-.151-.247-.181-.3-.529-.809l.908-.56a12.835,12.835,0,0,1,1.679,2.785Zm-.757,6.475h-2.4c-.84,0-1.2-.444-1.2-1.237V20.777l1.122.115c.08.016.376.049.376.214,0,.1-.033.118-.346.315v3.128a.531.531,0,0,0,.609.6h1.5c.56,0,.623-.365.8-1.237l1.122.51c-.362,1.616-.757,1.715-1.583,1.715m-.609-3.739a14.51,14.51,0,0,0-1.5-2.11l.793-.642a9.143,9.143,0,0,1,1.564,2.11ZM478.57,16a9.007,9.007,0,0,1-2.9-3.608l.941-.56a11.509,11.509,0,0,0,1.12,1.715,5.558,5.558,0,0,0,1.663,1.564Zm.263,8.368a8.823,8.823,0,0,0-1.418-2.14l.858-.6a7.839,7.839,0,0,1,1.416,2.093Z" transform="translate(628.007 15.664)" fill="#1a1311"/><path d="M478.509,26.039a15.266,15.266,0,0,1-6.524-5.4,14.623,14.623,0,0,1-6.522,5.616l-.889-1.037a13.4,13.4,0,0,0,6.983-6.294l1.333.494c.233.082.315.23.315.3,0,.167-.216.2-.365.23a12.306,12.306,0,0,0,2.6,2.8,13.944,13.944,0,0,0,4,2.175Zm-2.966,7.742v-.76h-7v.809h-1.2V28.047h9.407v5.734Zm-7.117-8.911h7.3v1.119h-7.3Zm7.117,4.25h-7V31.9h7Z" transform="translate(628.036 25.581)" fill="#1a1311"/><path d="M468.936,44.677v-8.8H466.4v-1.07c1.07-.066,2.4-.148,2.914-2.159h1.138V44.677Z" transform="translate(630.506 44.142)" fill="#1a1311"/><path d="M493.4,44.677v-8.8H490.86v-1.07c1.07-.066,2.4-.148,2.914-2.159h1.138V44.677Z" transform="translate(663.571 44.142)" fill="#1a1311"/><path d="M102.062,45.006c-2.6,0-4-1.369-4.363-3.427h1.564a2.668,2.668,0,0,0,2.8,2.206,2.933,2.933,0,0,0,3.194-2.947,2.685,2.685,0,0,0-2.914-2.818,3.186,3.186,0,0,0-2.585,1.089h-1.55l1.07-6.458h6.87v1.235H100.58l-.611,3.674a4.026,4.026,0,0,1,2.571-.774c2.455,0,4.269,1.4,4.269,4.036,0,2.752-2.192,4.184-4.746,4.184" transform="translate(132.075 44.142)" fill="#1a1311"/><line y2="78.594" transform="translate(797.506 17.437)" fill="none" stroke="#fff" stroke-width="0.5"/><path d="M346.931,57.73l-.451-.454,4.586-4.567-4.586-4.57.451-.452,4.57,4.581,4.572-4.581.449.452-4.584,4.57,4.584,4.567-.449.454L351.5,53.147Zm1.905-5.021a1.178,1.178,0,1,1-1.171-1.171,1.175,1.175,0,0,1,1.171,1.171m3.836-3.838a1.171,1.171,0,1,1-1.171-1.183,1.176,1.176,0,0,1,1.171,1.183m0,7.674a1.171,1.171,0,1,1-1.171-1.171,1.167,1.167,0,0,1,1.171,1.171m3.85-3.836a1.177,1.177,0,1,1-1.185-1.171,1.178,1.178,0,0,1,1.185,1.171" transform="translate(468.389 64.468)" fill="#1a1311"/><path d="M351.772,58.18c.212-2.453,1.719-3.483,4.3-4.948,1.538-.877,2.23-1.258,2.23-2.554a2.011,2.011,0,0,0-2.284-2.018,2.415,2.415,0,0,0-2.568,2.6h-1.338a3.778,3.778,0,0,1,.915-2.484,4.039,4.039,0,0,1,2.963-1.169c1.465,0,3.582.675,3.582,3,0,1.823-1.058,2.6-2.947,3.6-2.6,1.381-2.949,2.27-3.231,2.919h6.178V58.18Z" transform="translate(475.544 64.355)" fill="#1a1311"/><path d="M359.53,58.463c-3.159,0-3.906-2.834-3.906-5.43s.748-5.428,3.906-5.428,3.892,2.862,3.892,5.428-.734,5.43-3.892,5.43m0-9.8c-2.018,0-2.568,2.06-2.568,4.372,0,2.413.593,4.372,2.568,4.372s2.566-1.973,2.566-4.372c0-2.382-.579-4.372-2.566-4.372" transform="translate(480.751 64.355)" fill="#1a1311"/><path d="M359.331,58.18c.214-2.453,1.722-3.483,4.3-4.948,1.536-.877,2.227-1.258,2.227-2.554a2.012,2.012,0,0,0-2.284-2.018,2.413,2.413,0,0,0-2.566,2.6h-1.341a3.764,3.764,0,0,1,.915-2.484,4.041,4.041,0,0,1,2.961-1.169c1.47,0,3.582.675,3.582,3,0,1.823-1.056,2.6-2.947,3.6-2.594,1.381-2.945,2.27-3.229,2.919h6.176V58.18Z" transform="translate(485.763 64.355)" fill="#1a1311"/><path d="M367.075,58.463a3.761,3.761,0,0,1-3.243-1.4,3.694,3.694,0,0,1-.649-2.06h1.284a2.338,2.338,0,0,0,2.636,2.4c1.733,0,2.608-1,2.608-2.255,0-1.5-1.239-1.976-2.342-1.976h-1.084v-.931h.917c.79,0,2.2-.437,2.2-1.8,0-.79-.452-1.778-2.173-1.778a2.321,2.321,0,0,0-1.832.706,2.378,2.378,0,0,0-.522,1.409H363.6a3.291,3.291,0,0,1,3.641-3.17c2.058,0,3.427,1.1,3.427,2.691a2.31,2.31,0,0,1-1.79,2.331,2.432,2.432,0,0,1,2.1,2.538c0,1.832-1.423,3.3-3.9,3.3" transform="translate(490.97 64.355)" fill="#1a1311"/><path d="M374.51,56.676v3.271h-1.07V56.676h-6.334v-.988h2.371V51.909h3.963V49.735h-3.187a15.8,15.8,0,0,1-1.58,1.921l-.917-.593a11.582,11.582,0,0,0,2.794-4.005,4.4,4.4,0,0,1,.988.435c.167.071.24.113.24.212,0,.169-.212.2-.423.226-.1.169-.212.381-.468.818h8.027v.985h-4.4v2.173h3.739V52.9H374.51v2.792h4.953v.988ZM373.44,52.9H370.5v2.792h2.935Z" transform="translate(496.273 63.618)" fill="#1a1311"/><path d="M378.56,49.968l1.124.071c.2.014.268.071.268.155,0,.113-.085.169-.336.268v.579h3.751v.917h-3.751v1.211h3.342v.875h-3.342A6.141,6.141,0,0,1,379.5,55.3h5.334v.945h-4.784c1.27,1.846,3.556,2.227,4.953,2.439l-.694,1.072c-2.241-.508-3.9-1.171-5.174-3.215-.849,1.566-2.03,2.792-5.289,3.2l-.579-1c3.568-.322,4.372-1.651,4.835-2.5h-4.734V55.3H378.4a6.438,6.438,0,0,0,.158-1.256H375.1v-.875h3.457V51.958h-3.711v-.917h3.711Zm-.031-2.862,1.214.085c.056.014.226.028.226.167s-.169.242-.339.327v.774h5.219v2.582h-1.03V49.418h-9.461v1.693h-1.032V48.458h5.2Z" transform="translate(504.603 63.681)" fill="#1a1311"/><path d="M383.955,52.208a41.373,41.373,0,0,1-.294,5.289c-.282,2.074-.83,2.074-2.241,2.1l-.285-1.1c.3.014.677.042.83.042.355,0,.553-.068.736-1.1a24.486,24.486,0,0,0,.266-4.318h-1.336a20.3,20.3,0,0,1-.454,3.2,10,10,0,0,1-1.338,3.344l-.92-.593c1.806-2.554,1.806-6.515,1.806-8.293h-1.58v-.917h2.06V47.217l1.047.085c.209.028.322.056.322.155,0,.139-.254.252-.381.3v2.114h2.018v.917h-2.5c-.014.83-.028,1.1-.042,1.423Zm-.139-.506a17.449,17.449,0,0,0,2.564-4.626l.934.494c.212.113.226.155.226.2,0,.155-.2.169-.383.183a14.207,14.207,0,0,1-.633,1.324h5.106v.962H386a23.166,23.166,0,0,1-1.383,2.128Zm3.483,7.9c-1.51,0-1.538-.889-1.538-1.369V54.637l-1.4.294-.068-.96,1.465-.254V51.8l1.044.155c.226.028.268.085.268.141,0,.125-.155.2-.367.268v1.171l1.369-.3V50.855l.988.085c.212.028.294.028.294.141s-.153.212-.325.282v1.693l1.792-.367.44.322a14.975,14.975,0,0,1-.369,3.556c-.223.818-.51.889-1.395.929l-.437-1.072a1.406,1.406,0,0,0,.52.115c.367,0,.468-.423.536-.9a17.676,17.676,0,0,0,.158-1.919l-1.244.254v3.782h-.957v-3.57l-1.369.27v3.269c0,.579.028.988,1,.988h2.159c.858,0,1.07-.381,1.4-1.536l.887.579c-.567,1.846-1.341,1.846-2.117,1.846Z" transform="translate(512.244 63.641)" fill="#1a1311"/><path d="M384.861,52.675a15.185,15.185,0,0,0,2.9-5.557l1,.367c.028.014.169.068.169.167,0,.143-.141.158-.313.172-.449,1.072-.548,1.31-.745,1.719.042.059.183.183.183.282,0,.073-.2.268-.3.381V59.8h-.988V51.758a10.409,10.409,0,0,1-1.185,1.651Zm8.558-1.919a14.613,14.613,0,0,1-1.352,6.065,9.231,9.231,0,0,1-2.411,2.919l-.79-.72a7.916,7.916,0,0,0,2.82-3.779,5.293,5.293,0,0,0-1.423-1.03l.435-.847a5.937,5.937,0,0,1,1.326.847,13.841,13.841,0,0,0,.4-2.5h-1.651a10.177,10.177,0,0,1-1.508,3.088l-.917-.407a9.131,9.131,0,0,0,1.508-2.949,12.4,12.4,0,0,0,.522-2.709h-1.326v-.915h4.882v.915h-2.54a14.971,14.971,0,0,1-.353,2.018Zm.948-1.722.96.059c.042,0,.252.014.252.169,0,.082-.1.153-.209.252v6.87h-1ZM396.5,47.2l1.044.071c.071,0,.212.014.212.113,0,.127-.155.226-.3.3V58.456c0,.835-.068,1.242-1.169,1.242h-1.141l-.482-1.171a9.879,9.879,0,0,0,1.425.155c.409,0,.409-.167.409-.409Z" transform="translate(520.275 63.698)" fill="#1a1311"/><path d="M398.05,57.73l-.452-.454,4.586-4.567L397.6,48.14l.452-.452,4.57,4.581,4.572-4.581.449.452-4.584,4.57,4.584,4.567-.449.454-4.572-4.584Zm1.9-5.021a1.178,1.178,0,1,1-1.171-1.171,1.175,1.175,0,0,1,1.171,1.171m3.836-3.838a1.171,1.171,0,1,1-1.171-1.183,1.176,1.176,0,0,1,1.171,1.183m0,7.674a1.171,1.171,0,1,1-1.171-1.171,1.167,1.167,0,0,1,1.171,1.171m3.85-3.836a1.177,1.177,0,1,1-1.185-1.171,1.178,1.178,0,0,1,1.185,1.171" transform="translate(537.494 64.468)" fill="#1a1311"/><path d="M407.512,50.463a21.789,21.789,0,0,0,.143-3.076l1.355.172c.1.014.223.026.223.141,0,.056,0,.127-.407.325a15.717,15.717,0,0,1-.186,2.439H412.9a27.356,27.356,0,0,1-.647,4.965,5.27,5.27,0,0,1-1.185,2.512c-.452.379-.974.421-2.173.508l-.365-1.214a4.515,4.515,0,0,0,.875.068c.675,0,1.293,0,1.8-1.987a15.9,15.9,0,0,0,.522-3.85H408.5a13.843,13.843,0,0,1-1.578,4.217,7.109,7.109,0,0,1-3.048,2.9l-.887-.875a6.2,6.2,0,0,0,2.707-2.27,11,11,0,0,0,1.623-3.977h-3.991v-1Z" transform="translate(544.779 64.061)" fill="#1a1311"/><path d="M409.327,47.84c.113,0,.282.042.282.141,0,.071-.014.1-.256.3v6.134h-1.141V47.727Zm.553,10.1a6,6,0,0,0,2.8-1.707,6.2,6.2,0,0,0,1.413-4.4c0-.421-.045-2.312-.059-2.691-.014-.44-.014-.508-.059-1.625l1.143.059c.057.014.3.026.3.169,0,.054-.028.085-.226.365.019,4.036.028,5.416-.55,7.053-.717,2.058-2.578,3.02-3.921,3.695Z" transform="translate(551.843 64.232)" fill="#1a1311"/><path d="M420.636,49.334l.226.96-3.387.621.553,2.173,4.3-.734.254.985-4.29.776,1.242,4.657L418.477,59l-1.253-4.737-4.953.887-.181-1,4.88-.844-.593-2.2-3.636.621-.186-.945,3.568-.635-.691-2.636,1.214-.141c.04,0,.325-.042.325.127,0,.071-.028.113-.268.4l.522,2.074Z" transform="translate(557.084 64.019)" fill="#1a1311"/><path d="M426.562,54.8v.833h-9.379V54.8h5.47l.666-4.414h-4.29v-.844h5.32l-.764,5.259Z" transform="translate(563.969 66.973)" fill="#1a1311"/><path d="M421.881,51.767v-1.03h8.333a1.691,1.691,0,0,0,.776-.4l.847,1.058c-.336.282-.4.339-.477.508a18.648,18.648,0,0,1-1.905,3.441,9.3,9.3,0,0,1-4.751,3.215l-.92-.915a7.571,7.571,0,0,0,4.189-2.286,8.672,8.672,0,0,0,2.133-3.6Zm8.264-3.116h-6.729V47.623h6.729Z" transform="translate(570.321 64.38)" fill="#1a1311"/><path d="M436.642,57.9a8.033,8.033,0,0,0-.8-1.877c-2.126.355-2.535.423-6.232,1.044-1.609.282-1.663.282-1.917.325-.226.325-.254.353-.339.353-.143,0-.183-.155-.212-.24l-.409-1.3a9.008,9.008,0,0,0,1.691-.071,67.514,67.514,0,0,0,2.935-8.561l1.312.339c.085.014.24.071.24.2s-.24.2-.437.282c-.2.494-2.1,5.64-2.808,7.629,1.919-.226,3.808-.508,5.7-.889a18.62,18.62,0,0,0-1.649-2.227l1.028-.593a19,19,0,0,1,3.046,5.064Z" transform="translate(576.875 64.313)" fill="#1a1311"/><path d="M432.953,58.4a19.767,19.767,0,0,1-.621-4.953,22.691,22.691,0,0,1,.8-5.837l.988.325a18.541,18.541,0,0,0-.889,5.414,15.732,15.732,0,0,0,.2,2.6c.113-.24.637-1.324.734-1.536l.619.691c-.139.3-.365.717-.647,1.451a5.84,5.84,0,0,0-.452,1.665Zm9.182-1.1a10.279,10.279,0,0,0-2.016-1.03c-.059.875-.169,1.947-2.088,1.947-1,0-2.552-.355-2.552-1.651,0-.734.576-1.609,2.2-1.609a6.738,6.738,0,0,1,1.409.143c-.155-2.7-.183-3.006-.183-3.935a21.132,21.132,0,0,1-2.724.082L436,50.176a6.711,6.711,0,0,0,1.764.183c.565,0,.83-.016,1.143-.031.028-.675.111-1.889.183-2.834l1.1.3a17.417,17.417,0,0,0-.294,2.385,6.82,6.82,0,0,0,2.018-.621l.04,1.1c-.494.1-1.028.214-2.058.367,0,1.016.014,2.455.155,4.262a13.9,13.9,0,0,1,2.411.985Zm-4.584-1.552c-1.056,0-1.185.539-1.185.734,0,.579.818.931,1.693.931,1.072,0,1.087-.593,1.058-1.423a7.68,7.68,0,0,0-1.566-.242" transform="translate(584.449 64.207)" fill="#1a1311"/><path d="M439.926,51.448a18.221,18.221,0,0,1-1.947,2.23l-.72-.691a16.871,16.871,0,0,0,2.157-2.441l.762.55c.042.028.129.1.129.183,0,.155-.183.155-.381.169m5.837-1.747v2.919c0,1.211,0,1.338-1.874,1.369l-.367-1.058a8.01,8.01,0,0,0,.873.085c.381,0,.381-.113.381-.522V49.7h-2.284c-.014,2.564-.8,3.834-2.777,4.7l-.663-.8c1.665-.72,2.51-1.468,2.524-3.892h-4.149v-.962h5.628v-1.62l1.075.127c.153.014.308.042.308.155,0,.141-.167.212-.322.3v1.042h5.614V49.7Zm3.427,9.941c-3.467-.31-4.739-.929-5.668-1.423a13.521,13.521,0,0,1-5.572,1.465l-.449-1.056a11.907,11.907,0,0,0,5.144-1,8.267,8.267,0,0,1-1.55-1.693,7.381,7.381,0,0,1-1.931,1.4l-.75-.734a10.592,10.592,0,0,0,3.937-3.483l.762.619c.057.059.139.143.139.212,0,.172-.294.143-.393.143-.113.127-.426.477-.466.534h4.469l.3.381a12.363,12.363,0,0,1-2.723,2.665,11.1,11.1,0,0,0,4.516.9c.325,0,.534-.014.76-.028ZM441.916,55.5a6.047,6.047,0,0,0,1.606,1.651,8.809,8.809,0,0,0,1.959-1.651Zm6.825-1.719a19.029,19.029,0,0,0-2.016-2.752l.774-.633a20.28,20.28,0,0,1,2.06,2.761Z" transform="translate(591.11 63.698)" fill="#1a1311"/><path d="M455.1,59.368a18.8,18.8,0,0,1-3.808-.55,9,9,0,0,1-2.792-1.239,7.716,7.716,0,0,1-4.189,1.973l-.706-1.028a6.894,6.894,0,0,0,4.062-1.58,10.1,10.1,0,0,1-1.635-1.792l.8-.522a5.6,5.6,0,0,0,1.4,1.651,3.806,3.806,0,0,0,.593-1.834h-4.217V49.455h4.33V48.312h-5.586v-.96h12.1v.96h-5.487v1.143h4.386v4.991h-4.5a5.016,5.016,0,0,1-.776,2.411,10.373,10.373,0,0,0,5.428,1.371c.454,0,.776-.014,1.047-.028Zm-6.162-9H445.6v1.141h3.342ZM445.6,52.359v1.169h3.3a7.853,7.853,0,0,0,.045-1.169Zm7.726,0h-3.4c0,.536,0,.59-.028,1.169h3.427Zm0-1.987h-3.356v1.141h3.356Z" transform="translate(599.351 64.014)" fill="#1a1311"/><path d="M456.07,47.444a14.642,14.642,0,0,0-.113,2.058c1.524-.1,3.006-.2,4.191-.365l.113,1.169c-1.933.016-3.4.1-4.3.155-.012.367,0,2.018,0,2.354a4.746,4.746,0,0,1,.4,1.933,6.86,6.86,0,0,1-1.183,3.5,6.258,6.258,0,0,1-1.058,1.239l-1.1-.466A6.257,6.257,0,0,0,455,56.371a2.107,2.107,0,0,1-1.014.3c-.887,0-1.736-.861-1.736-2.371,0-1.818,1.185-2.622,2.046-2.622a1.715,1.715,0,0,1,.635.113V50.532c-1.512.1-3.85.268-5.557.48l-.071-1.03c1.552-.085,4.033-.266,5.586-.365a18.315,18.315,0,0,0-.073-2.385Zm-2.9,6.853c0,.988.579,1.383,1,1.383.579,0,1.014-.649,1.014-1.566,0-.463-.125-1.411-.887-1.411-.536,0-1.129.607-1.129,1.595" transform="translate(607.389 63.852)" fill="#1a1311"/><path d="M456.127,48.3a17.635,17.635,0,0,0,5.95-.818l.48.776c-.129.111-.691.6-.79.7-1.284,1.3-2.03,2.06-2.963,2.893a3.825,3.825,0,0,1,1.778-.437,3.21,3.21,0,0,1,3.471,3.173c0,2.681-2.667,3.838-4.459,3.838-1.211,0-2.778-.508-2.778-1.834,0-.847.734-1.623,2.018-1.623a3.147,3.147,0,0,1,2.834,1.961,2.937,2.937,0,0,0,1.366-2.312c0-.962-.607-2.215-2.578-2.215-2.484,0-4.767,2.453-4.993,2.721l-.889-.734a38.225,38.225,0,0,0,5.851-5.583,21.851,21.851,0,0,1-3.977.548Zm2.622,7.559c-.593,0-.974.381-.974.691,0,.593,1.016.96,1.736.96a5.388,5.388,0,0,0,1.169-.141,2.2,2.2,0,0,0-1.931-1.51" transform="translate(614.519 64.184)" fill="#1a1311"/><path d="M468.707,57.486a26.567,26.567,0,0,1-4.231.294,13.368,13.368,0,0,1-3.006-.31c-.579-.139-1.987-.593-1.987-2.03,0-.889.55-1.437,1.507-2.326l.734.663c-.675.562-1.185.971-1.185,1.536,0,1.439,2.766,1.51,3.6,1.51a20.533,20.533,0,0,0,4.612-.621Zm-8.081-9.774c.266.042,1.451.24,1.705.268a11.715,11.715,0,0,0,1.79.113,20.875,20.875,0,0,0,2.977-.226l.55,1.058c-1.484.915-2.258,1.423-3.271,2.171l-.706-.663c.367-.238,1.945-1.3,2.284-1.508a10.1,10.1,0,0,1-1.594.111,21.773,21.773,0,0,1-3.624-.322Z" transform="translate(621.153 64.501)" fill="#1a1311"/><path d="M467.263,47.352c.045.35.1,1.889.129,2.2a3.921,3.921,0,0,0,.564,1.832.9.9,0,0,0,.52.381c.621-.282,3.342-1.468,3.895-1.722l.183,1.171a30.057,30.057,0,0,0-5.148,2.114c-.68.367-2.089,1.143-2.089,2.54,0,1.959,1.55,1.959,2.427,1.959a31.946,31.946,0,0,0,3.215-.212,13.927,13.927,0,0,0,1.705-.31v1.256a41.678,41.678,0,0,1-4.668.3c-1.79,0-2.425-.339-2.9-.818a3.01,3.01,0,0,1-.8-2.03,3.854,3.854,0,0,1,1.51-2.794,8.322,8.322,0,0,1,1.62-.974c-.96-.985-1.084-2.016-1.254-3.667a6.074,6.074,0,0,0-.115-.762,2.649,2.649,0,0,1-.068-.381Z" transform="translate(627.649 64.014)" fill="#1a1311"/><path d="M468.421,51.851a26.969,26.969,0,0,0,2.949-.734,13.906,13.906,0,0,0,.209-2.935l1.282.468c-.139.607-.209,1.042-.4,2.128a7.134,7.134,0,0,1,1.171-.141c.818,0,2.018.508,2.018,2.625a10.261,10.261,0,0,1-.917,4.287,1.953,1.953,0,0,1-1.877,1.084c-.155,0-.322-.014-.762-.056l-.449-1.141a11.27,11.27,0,0,0,1.171.113c.353,0,.887,0,1.253-.96a9.592,9.592,0,0,0,.55-3.1c0-.79-.085-1.931-1.185-1.931a5.685,5.685,0,0,0-1.127.183,21.709,21.709,0,0,1-2.865,7.025l-1.056-.567a11.067,11.067,0,0,0,1.806-3.057,13.507,13.507,0,0,0,.974-3.147c-.212.085-1.145.452-1.343.536a5.247,5.247,0,0,1-.931.31Zm7.714-2.681c.76.706,2.608,2.4,2.608,3.895,0,1.014-.833,1.185-1.623,1.352l-.506-1.129c.4.014,1.03.028,1.03-.435a1.835,1.835,0,0,0-.355-.9,9.56,9.56,0,0,0-1.846-2.088Zm2.469.691a10.564,10.564,0,0,0-1.329-1.211l.666-.579a11.648,11.648,0,0,1,1.423,1.211Zm.76-2.707a10.116,10.116,0,0,1,1.324,1.171l-.661.593c-.409-.426-.861-.861-1.24-1.185Z" transform="translate(633.198 63.746)" fill="#1a1311"/><path d="M478.133,58.166a1.521,1.521,0,0,1-.212-.633,4.966,4.966,0,0,1-2.425.889,1.615,1.615,0,0,1-1.482-1.752,4.238,4.238,0,0,1,1.55-3.017,6.706,6.706,0,0,1,1.724-1.112,15.273,15.273,0,0,1,.068-1.764c-.353.028-.494.028-.675.028-.381,0-1.075-.028-1.453-.056l-.256-.957a13.674,13.674,0,0,0,2.469.111,23.151,23.151,0,0,1,.4-2.58l1.072.3a14.2,14.2,0,0,0-.48,2.128,16.053,16.053,0,0,0,3.935-.957l-.085,1.07a29.829,29.829,0,0,1-3.963.8c-.04.619-.071,1.072-.115,1.552a8.364,8.364,0,0,1,1.95-.268,1.9,1.9,0,0,1,.407.04c.186-.844.2-.943.226-1.028l.988.437c-.113.325-.143.423-.226.734a3.775,3.775,0,0,1,1.933,1.211,2.938,2.938,0,0,1,.677,1.905,3.682,3.682,0,0,1-2.159,3.2,7.266,7.266,0,0,1-1.778.663l-.833-.917a4.825,4.825,0,0,0,2.949-1.214,2.508,2.508,0,0,0,.79-1.818,2.326,2.326,0,0,0-1.905-2.187,11.114,11.114,0,0,1-2.427,3.866,3.622,3.622,0,0,0,.226.731Zm-.844-4.781a4.669,4.669,0,0,0-1.736,1.595,3.185,3.185,0,0,0-.536,1.592.851.851,0,0,0,.943.863,3.117,3.117,0,0,0,1.738-.776,20.333,20.333,0,0,1-.409-3.274m3.017-.593a7.178,7.178,0,0,0-2.1.228,17.683,17.683,0,0,0,.369,2.792,10.566,10.566,0,0,0,1.736-3.02" transform="translate(640.799 63.973)" fill="#1a1311"/><path d="M480.742,47.964a15.782,15.782,0,0,0-.593,4.372,1.431,1.431,0,0,0,.111.621c.367-.663.694-1.383,1.032-2.157l.619.619c-.3.863-.435,1.2-1.606,4.191l-.621.068a10.037,10.037,0,0,1-.562-3.469,21.778,21.778,0,0,1,.562-4.654Zm5.811-.325a4.29,4.29,0,0,0,.014.974c.139,1.99.167,2.286.167,2.947a10.473,10.473,0,0,1-1.284,5.289,7.329,7.329,0,0,1-1.55,1.877l-.988-.663a6.329,6.329,0,0,0,2.032-2.453,8.723,8.723,0,0,0,.762-3.866,19.529,19.529,0,0,0-.409-4.033Z" transform="translate(647.702 64.288)" fill="#1a1311"/><path d="M491.853,52.741a23.285,23.285,0,0,1-3.3.48c.028.468.1,1.326.183,2.413a12.213,12.213,0,0,1,3.483,1.324l-.437,1.032a8.688,8.688,0,0,0-2.975-1.428c0,.948-.028,2.232-2.089,2.232-2.159,0-3.017-.948-3.017-1.764,0-1.1,1.3-1.58,2.78-1.58.266,0,.619.014,1.338.085-.042-.353-.226-1.933-.268-2.241-.24.014-.536.026-1.169.026-1,0-2.385-.071-2.385-.79,0-.52.637-.985,1.284-1.437l.578.463a2.991,2.991,0,0,1-.466.369c-.141.1-.2.139-.2.238,0,.242.437.327,1.637.327.111,0,.593-.014.689,0-.068-.651-.068-.8-.155-2.1-.635.042-3.5.268-4.076.3l-.113-1.03c.666.016,1.806.042,4.161-.071-.014-.294-.028-.564-.028-1a10.437,10.437,0,0,1,.057-1.244l1.286.327a6.764,6.764,0,0,0-.256,1.874c.748-.042,2.286-.141,3.892-.141v.96a10.881,10.881,0,0,0-1.479-.085c-.946,0-1.905.056-2.444.085,0,.268.061,1.468.1,2.046a12.83,12.83,0,0,0,3.356-.762Zm-5.4,3.457c-.96,0-1.764.31-1.764.818,0,.7,1.284.858,1.976.858,1.155,0,1.239-.593,1.225-1.536a9.786,9.786,0,0,0-1.437-.141" transform="translate(653.184 63.996)" fill="#1a1311"/><path d="M494.542,47.444a15.111,15.111,0,0,0-.11,2.058c1.522-.1,3.006-.2,4.191-.365l.111,1.169c-1.933.016-3.4.1-4.3.155-.012.367,0,2.018,0,2.354a4.787,4.787,0,0,1,.4,1.933,6.861,6.861,0,0,1-1.183,3.5,6.2,6.2,0,0,1-1.061,1.239l-1.1-.466a6.278,6.278,0,0,0,1.987-2.651,2.113,2.113,0,0,1-1.014.3c-.889,0-1.738-.861-1.738-2.371,0-1.818,1.185-2.622,2.046-2.622a1.718,1.718,0,0,1,.637.113V50.532c-1.512.1-3.852.268-5.557.48l-.073-1.03c1.552-.085,4.036-.266,5.586-.365a18.945,18.945,0,0,0-.071-2.385Zm-2.9,6.853c0,.988.579,1.383,1,1.383.578,0,1.014-.649,1.014-1.566,0-.463-.127-1.411-.889-1.411-.534,0-1.127.607-1.127,1.595" transform="translate(659.397 63.852)" fill="#1a1311"/><path d="M497.417,52.845a2.173,2.173,0,1,1-2.173-2.171,2.171,2.171,0,0,1,2.173,2.171m-3.754,0a1.58,1.58,0,1,0,1.58-1.58,1.588,1.588,0,0,0-1.58,1.58" transform="translate(666.56 68.505)" fill="#1a1311"/><line y2="6.94" transform="translate(135.55 6.331)" fill="none" stroke="#1a1311" stroke-width="0.131"/><line y2="6.94" transform="translate(164.331 6.331)" fill="none" stroke="#1a1311" stroke-width="0.131"/><line y2="6.94" transform="translate(193.112 6.331)" fill="none" stroke="#1a1311" stroke-width="0.131"/><line y2="6.94" transform="translate(221.892 6.331)" fill="none" stroke="#1a1311" stroke-width="0.131"/><line y2="6.94" transform="translate(250.673 6.331)" fill="none" stroke="#1a1311" stroke-width="0.131"/><line y2="6.94" transform="translate(279.454 6.331)" fill="none" stroke="#1a1311" stroke-width="0.131"/><line y2="6.94" transform="translate(308.234 6.331)" fill="none" stroke="#1a1311" stroke-width="0.131"/><line y2="6.94" transform="translate(337.015 6.331)" fill="none" stroke="#1a1311" stroke-width="0.131"/><line y2="6.94" transform="translate(365.796 6.331)" fill="none" stroke="#1a1311" stroke-width="0.131"/><line y2="6.94" transform="translate(394.576 6.331)" fill="none" stroke="#1a1311" stroke-width="0.131"/><line y2="6.94" transform="translate(423.357 6.331)" fill="none" stroke="#1a1311" stroke-width="0.131"/><line y2="6.94" transform="translate(452.138 6.331)" fill="none" stroke="#1a1311" stroke-width="0.131"/><line y2="6.94" transform="translate(480.918 6.331)" fill="none" stroke="#1a1311" stroke-width="0.131"/><line y2="6.94" transform="translate(509.699 6.331)" fill="none" stroke="#1a1311" stroke-width="0.131"/><line y2="6.94" transform="translate(538.48 6.331)" fill="none" stroke="#1a1311" stroke-width="0.131"/><line y2="6.94" transform="translate(567.26 6.331)" fill="none" stroke="#1a1311" stroke-width="0.131"/><line y2="6.94" transform="translate(596.041 6.331)" fill="none" stroke="#1a1311" stroke-width="0.131"/><line y2="6.94" transform="translate(624.822 6.331)" fill="none" stroke="#1a1311" stroke-width="0.131"/><line y2="6.94" transform="translate(653.602 6.331)" fill="none" stroke="#1a1311" stroke-width="0.131"/><line y2="6.94" transform="translate(682.383 6.331)" fill="none" stroke="#1a1311" stroke-width="0.131"/><line y2="6.94" transform="translate(711.164 6.331)" fill="none" stroke="#1a1311" stroke-width="0.131"/><line y2="6.94" transform="translate(739.944 6.331)" fill="none" stroke="#1a1311" stroke-width="0.131"/><line y2="6.94" transform="translate(768.725 6.331)" fill="none" stroke="#1a1311" stroke-width="0.131"/><line y2="6.94" transform="translate(797.506 6.331)" fill="none" stroke="#1a1311" stroke-width="0.131"/><line y2="6.94" transform="translate(826.286 6.331)" fill="none" stroke="#1a1311" stroke-width="0.131"/><line y2="6.94" transform="translate(855.067 6.331)" fill="none" stroke="#1a1311" stroke-width="0.131"/><line y2="6.94" transform="translate(883.848 6.331)" fill="none" stroke="#1a1311" stroke-width="0.131"/><line y2="6.94" transform="translate(912.628 6.331)" fill="none" stroke="#1a1311" stroke-width="0.131"/><line y2="6.94" transform="translate(941.409 6.331)" fill="none" stroke="#1a1311" stroke-width="0.131"/><line y2="6.94" transform="translate(970.19 6.331)" fill="none" stroke="#1a1311" stroke-width="0.131"/><line y2="6.94" transform="translate(998.97 6.331)" fill="none" stroke="#1a1311" stroke-width="0.131"/><line y2="6.94" transform="translate(1027.751 6.331)" fill="none" stroke="#1a1311" stroke-width="0.131"/><line y2="6.94" transform="translate(1056.532 6.331)" fill="none" stroke="#1a1311" stroke-width="0.131"/><line y2="6.94" transform="translate(1085.312 6.331)" fill="none" stroke="#1a1311" stroke-width="0.131"/><line y2="6.94" transform="translate(1114.093 6.331)" fill="none" stroke="#1a1311" stroke-width="0.131"/><line y2="6.94" transform="translate(1142.874 6.331)" fill="none" stroke="#1a1311" stroke-width="0.131"/><line y2="6.94" transform="translate(1171.654 6.331)" fill="none" stroke="#1a1311" stroke-width="0.131"/><path d="M492.032,9.064A3.14,3.14,0,0,1,489.325,7.9a3.083,3.083,0,0,1-.541-1.717h1.07a1.956,1.956,0,0,0,2.2,2c1.446,0,2.178-.837,2.178-1.884,0-1.249-1.037-1.649-1.957-1.649h-.905V3.874h.764c.659,0,1.837-.365,1.837-1.508,0-.659-.376-1.484-1.811-1.484a1.945,1.945,0,0,0-1.533.59,1.994,1.994,0,0,0-.433,1.176h-1.061A2.748,2.748,0,0,1,492.175,0c1.717,0,2.858.92,2.858,2.248a1.921,1.921,0,0,1-1.494,1.943,2.035,2.035,0,0,1,1.755,2.119c0,1.529-1.19,2.754-3.262,2.754" transform="translate(660.764 0.001)" fill="#1a1311"/><path d="M495.323,9.064c-2.942,0-3.389-2.848-3.389-4.344,0-3.06,1.39-4.72,3.53-4.72A2.7,2.7,0,0,1,498.3,2.19H497.2A1.566,1.566,0,0,0,495.464.92c-2.272,0-2.378,2.578-2.413,3.448a2.814,2.814,0,0,1,2.448-1.19A2.739,2.739,0,0,1,498.442,6a2.963,2.963,0,0,1-3.119,3.06m1.59-4.367a1.9,1.9,0,0,0-1.566-.647,1.945,1.945,0,0,0-2.131,1.943,2.032,2.032,0,0,0,2.072,2.187A1.931,1.931,0,0,0,497.336,6.1a2.353,2.353,0,0,0-.423-1.4" transform="translate(665.022 0.001)" fill="#1a1311"/><path d="M479.8,9.064A3.133,3.133,0,0,1,477.1,7.9a3.051,3.051,0,0,1-.543-1.717h1.07a1.957,1.957,0,0,0,2.2,2c1.449,0,2.18-.837,2.18-1.884,0-1.249-1.037-1.649-1.957-1.649h-.906V3.874h.764c.659,0,1.837-.365,1.837-1.508,0-.659-.376-1.484-1.811-1.484a1.945,1.945,0,0,0-1.533.59,2,2,0,0,0-.433,1.176h-1.058A2.745,2.745,0,0,1,479.945,0c1.717,0,2.858.92,2.858,2.248a1.921,1.921,0,0,1-1.494,1.943,2.035,2.035,0,0,1,1.755,2.119c0,1.529-1.19,2.754-3.262,2.754" transform="translate(644.231 0.001)" fill="#1a1311"/><path d="M482.824,8.928A2.836,2.836,0,0,1,479.7,6.479h1.117a1.907,1.907,0,0,0,2,1.576,2.1,2.1,0,0,0,2.284-2.1,1.918,1.918,0,0,0-2.084-2.013,2.281,2.281,0,0,0-1.849.776h-1.105L480.834.1h4.908V.983h-3.977l-.437,2.625a2.872,2.872,0,0,1,1.837-.555,2.764,2.764,0,0,1,3.048,2.886c0,1.964-1.566,2.989-3.389,2.989" transform="translate(648.491 0.137)" fill="#1a1311"/><path d="M467.571,9.064A3.14,3.14,0,0,1,464.864,7.9a3.083,3.083,0,0,1-.541-1.717h1.07a1.956,1.956,0,0,0,2.2,2c1.446,0,2.178-.837,2.178-1.884,0-1.249-1.037-1.649-1.957-1.649h-.906V3.874h.764c.658,0,1.837-.365,1.837-1.508,0-.659-.376-1.484-1.811-1.484a1.945,1.945,0,0,0-1.533.59,2,2,0,0,0-.433,1.176h-1.061A2.748,2.748,0,0,1,467.714,0c1.717,0,2.858.92,2.858,2.248a1.921,1.921,0,0,1-1.494,1.943,2.035,2.035,0,0,1,1.755,2.119c0,1.529-1.19,2.754-3.262,2.754" transform="translate(627.696 0.001)" fill="#1a1311"/><path d="M472.713,6.656V8.692h-1.058V6.656h-4.177V5.75L471.749.1h.964V5.75h1.261v.905Zm-1.058-5.085L468.489,5.75h3.166Z" transform="translate(631.962 0.137)" fill="#1a1311"/><path d="M455.34,9.064A3.14,3.14,0,0,1,452.633,7.9a3.083,3.083,0,0,1-.541-1.717h1.07a1.956,1.956,0,0,0,2.2,2c1.446,0,2.178-.837,2.178-1.884,0-1.249-1.037-1.649-1.957-1.649h-.906V3.874h.764c.658,0,1.837-.365,1.837-1.508,0-.659-.376-1.484-1.811-1.484a1.944,1.944,0,0,0-1.533.59,2,2,0,0,0-.433,1.176h-1.061A2.748,2.748,0,0,1,455.483,0c1.717,0,2.857.92,2.857,2.248a1.921,1.921,0,0,1-1.493,1.943A2.035,2.035,0,0,1,458.6,6.31c0,1.529-1.19,2.754-3.262,2.754" transform="translate(611.162 0.001)" fill="#1a1311"/><path d="M458.491,9.064A3.14,3.14,0,0,1,455.784,7.9a3.083,3.083,0,0,1-.541-1.717h1.07a1.956,1.956,0,0,0,2.2,2c1.446,0,2.178-.837,2.178-1.884,0-1.249-1.037-1.649-1.957-1.649h-.906V3.874h.764c.659,0,1.837-.365,1.837-1.508,0-.659-.376-1.484-1.811-1.484a1.944,1.944,0,0,0-1.533.59,2,2,0,0,0-.433,1.176H455.6A2.748,2.748,0,0,1,458.634,0c1.717,0,2.858.92,2.858,2.248A1.921,1.921,0,0,1,460,4.191a2.035,2.035,0,0,1,1.754,2.119c0,1.529-1.19,2.754-3.262,2.754" transform="translate(615.422 0.001)" fill="#1a1311"/><path d="M443.112,9.064A3.14,3.14,0,0,1,440.4,7.9a3.082,3.082,0,0,1-.541-1.717h1.07a1.956,1.956,0,0,0,2.2,2c1.446,0,2.178-.837,2.178-1.884,0-1.249-1.037-1.649-1.957-1.649h-.905V3.874h.764c.658,0,1.837-.365,1.837-1.508,0-.659-.376-1.484-1.811-1.484a1.945,1.945,0,0,0-1.533.59,2,2,0,0,0-.433,1.176h-1.061A2.748,2.748,0,0,1,443.255,0c1.717,0,2.857.92,2.857,2.248a1.921,1.921,0,0,1-1.493,1.943,2.035,2.035,0,0,1,1.755,2.119c0,1.529-1.19,2.754-3.262,2.754" transform="translate(594.631 0.001)" fill="#1a1311"/><path d="M442.954,8.829c.176-2.048,1.435-2.907,3.589-4.132,1.284-.729,1.86-1.047,1.86-2.131A1.677,1.677,0,0,0,446.5.884a2.014,2.014,0,0,0-2.143,2.164h-1.119A3.158,3.158,0,0,1,444,.978,3.376,3.376,0,0,1,446.475,0c1.225,0,2.989.564,2.989,2.507,0,1.519-.882,2.166-2.46,3-2.166,1.152-2.46,1.9-2.7,2.437h5.155v.882Z" transform="translate(598.809 0.001)" fill="#1a1311"/><path d="M430.88,9.064a3.133,3.133,0,0,1-2.7-1.167,3.051,3.051,0,0,1-.543-1.717h1.07a1.957,1.957,0,0,0,2.2,2c1.449,0,2.18-.837,2.18-1.884,0-1.249-1.037-1.649-1.957-1.649h-.905V3.874h.764c.659,0,1.837-.365,1.837-1.508,0-.659-.376-1.484-1.811-1.484a1.945,1.945,0,0,0-1.533.59,2,2,0,0,0-.433,1.176h-1.058A2.745,2.745,0,0,1,431.023,0c1.717,0,2.857.92,2.857,2.248a1.921,1.921,0,0,1-1.493,1.943,2.035,2.035,0,0,1,1.755,2.119c0,1.529-1.19,2.754-3.262,2.754" transform="translate(578.096 0.001)" fill="#1a1311"/><path d="M433.036,8.692V2.406h-1.813V1.641A1.881,1.881,0,0,0,433.307.1h.814V8.692Z" transform="translate(582.95 0.137)" fill="#1a1311"/><path d="M418.651,9.064A3.14,3.14,0,0,1,415.944,7.9a3.083,3.083,0,0,1-.541-1.717h1.07a1.956,1.956,0,0,0,2.2,2c1.446,0,2.178-.837,2.178-1.884,0-1.249-1.037-1.649-1.957-1.649h-.905V3.874h.764c.659,0,1.837-.365,1.837-1.508,0-.659-.376-1.484-1.811-1.484a1.945,1.945,0,0,0-1.533.59,2,2,0,0,0-.433,1.176h-1.061A2.748,2.748,0,0,1,418.794,0c1.717,0,2.858.92,2.858,2.248a1.921,1.921,0,0,1-1.493,1.943,2.035,2.035,0,0,1,1.754,2.119c0,1.529-1.19,2.754-3.262,2.754" transform="translate(561.564 0.001)" fill="#1a1311"/><path d="M421.813,9.065c-2.636,0-3.26-2.366-3.26-4.532S419.176,0,421.813,0s3.25,2.389,3.25,4.532-.614,4.532-3.25,4.532m0-8.182c-1.682,0-2.14,1.719-2.14,3.65,0,2.013.494,3.648,2.14,3.648s2.143-1.649,2.143-3.648-.482-3.65-2.143-3.65" transform="translate(565.822 0.002)" fill="#1a1311"/><path d="M403.112,8.829c.176-2.048,1.435-2.907,3.589-4.132,1.284-.729,1.86-1.047,1.86-2.131A1.677,1.677,0,0,0,406.656.884a2.013,2.013,0,0,0-2.142,2.164h-1.12a3.158,3.158,0,0,1,.764-2.07A3.376,3.376,0,0,1,406.633,0c1.225,0,2.989.564,2.989,2.507,0,1.519-.882,2.166-2.46,3-2.166,1.152-2.46,1.9-2.7,2.437h5.155v.882Z" transform="translate(544.948 0.001)" fill="#1a1311"/><path d="M409.312,9.065a2.706,2.706,0,0,1-2.848-2.178h1.105A1.588,1.588,0,0,0,409.3,8.145c2.272,0,2.39-2.578,2.425-3.448a2.787,2.787,0,0,1-2.448,1.2,2.749,2.749,0,0,1-2.954-2.825A2.975,2.975,0,0,1,409.453,0a3.034,3.034,0,0,1,2.615,1.305,5.967,5.967,0,0,1,.764,3.1c0,2.7-1.164,4.661-3.521,4.661m.165-8.182a1.932,1.932,0,0,0-2.048,2.084,1.864,1.864,0,0,0,1.966,2.048,1.934,1.934,0,0,0,2.154-1.943,2.028,2.028,0,0,0-2.072-2.19" transform="translate(549.289 0.002)" fill="#1a1311"/><path d="M390.879,8.829c.176-2.048,1.435-2.907,3.589-4.132,1.284-.729,1.86-1.047,1.86-2.131A1.677,1.677,0,0,0,394.423.884a2.013,2.013,0,0,0-2.142,2.164h-1.12a3.158,3.158,0,0,1,.764-2.07A3.376,3.376,0,0,1,394.4,0c1.225,0,2.989.564,2.989,2.507,0,1.519-.882,2.166-2.46,3-2.166,1.152-2.46,1.9-2.7,2.437h5.155v.882Z" transform="translate(528.411 0.001)" fill="#1a1311"/><path d="M397.35,9.065c-2.107,0-3.26-1.119-3.26-2.554a2.428,2.428,0,0,1,1.8-2.319,1.982,1.982,0,0,1-1.449-1.919C394.443,1,395.48,0,397.35,0c1.919,0,2.9,1.047,2.9,2.272a1.988,1.988,0,0,1-1.435,1.919,2.42,2.42,0,0,1,1.79,2.319c0,1.47-1.19,2.554-3.25,2.554m0-4.452A1.9,1.9,0,0,0,395.2,6.438c0,.849.564,1.743,2.154,1.743s2.143-.894,2.143-1.743a1.887,1.887,0,0,0-2.143-1.825m0-3.73c-.835,0-1.8.306-1.8,1.5s.978,1.493,1.8,1.493c.79,0,1.79-.282,1.79-1.493,0-1.19-.964-1.5-1.79-1.5" transform="translate(532.752 0.002)" fill="#1a1311"/><path d="M378.651,8.829c.176-2.048,1.435-2.907,3.589-4.132,1.284-.729,1.86-1.047,1.86-2.131A1.677,1.677,0,0,0,382.2.884a2.013,2.013,0,0,0-2.143,2.164h-1.12A3.157,3.157,0,0,1,379.7.978,3.376,3.376,0,0,1,382.172,0c1.225,0,2.989.564,2.989,2.507,0,1.519-.882,2.166-2.46,3-2.166,1.152-2.46,1.9-2.7,2.437h5.155v.882Z" transform="translate(511.88 0.001)" fill="#1a1311"/><path d="M384.525,8.692h-1.12a13.644,13.644,0,0,1,1.284-4.144A13.917,13.917,0,0,1,387.041.983h-5.129V.1H388.2V.983a14.276,14.276,0,0,0-3.674,7.709" transform="translate(516.289 0.137)" fill="#1a1311"/><path d="M366.422,8.829c.176-2.048,1.435-2.907,3.589-4.132,1.284-.729,1.86-1.047,1.86-2.131A1.677,1.677,0,0,0,369.966.884a2.013,2.013,0,0,0-2.142,2.164H366.7a3.158,3.158,0,0,1,.764-2.07A3.376,3.376,0,0,1,369.943,0c1.225,0,2.989.564,2.989,2.507,0,1.519-.882,2.166-2.46,3-2.166,1.152-2.46,1.9-2.7,2.437h5.155v.882Z" transform="translate(495.349 0.001)" fill="#1a1311"/><path d="M373.022,9.064c-2.942,0-3.389-2.848-3.389-4.344,0-3.06,1.39-4.72,3.53-4.72A2.7,2.7,0,0,1,376,2.19h-1.105A1.566,1.566,0,0,0,373.163.92c-2.272,0-2.378,2.578-2.413,3.448a2.813,2.813,0,0,1,2.448-1.19A2.739,2.739,0,0,1,376.141,6a2.963,2.963,0,0,1-3.119,3.06m1.59-4.367a1.9,1.9,0,0,0-1.566-.647,1.945,1.945,0,0,0-2.131,1.943,2.032,2.032,0,0,0,2.072,2.187A1.931,1.931,0,0,0,375.035,6.1a2.354,2.354,0,0,0-.423-1.4" transform="translate(499.689 0.001)" fill="#1a1311"/><path d="M354.193,8.829c.176-2.048,1.437-2.907,3.589-4.132,1.284-.729,1.86-1.047,1.86-2.131A1.677,1.677,0,0,0,357.737.884a2.013,2.013,0,0,0-2.143,2.164h-1.12a3.158,3.158,0,0,1,.764-2.07A3.376,3.376,0,0,1,357.714,0c1.225,0,2.989.564,2.989,2.507,0,1.519-.882,2.166-2.46,3-2.166,1.152-2.46,1.9-2.7,2.437H360.7v.882Z" transform="translate(478.817 0.001)" fill="#1a1311"/><path d="M360.523,8.928A2.836,2.836,0,0,1,357.4,6.479h1.117a1.907,1.907,0,0,0,2,1.576,2.1,2.1,0,0,0,2.284-2.1,1.918,1.918,0,0,0-2.084-2.013,2.281,2.281,0,0,0-1.849.776h-1.105L358.533.1h4.908V.983h-3.977l-.437,2.625a2.872,2.872,0,0,1,1.837-.555,2.764,2.764,0,0,1,3.048,2.886c0,1.964-1.566,2.989-3.389,2.989" transform="translate(483.158 0.137)" fill="#1a1311"/><path d="M341.961,8.829c.176-2.048,1.435-2.907,3.589-4.132,1.284-.729,1.86-1.047,1.86-2.131A1.677,1.677,0,0,0,345.505.884a2.013,2.013,0,0,0-2.143,2.164h-1.12a3.157,3.157,0,0,1,.764-2.07A3.376,3.376,0,0,1,345.482,0c1.225,0,2.989.564,2.989,2.507,0,1.519-.882,2.166-2.46,3-2.166,1.152-2.46,1.9-2.7,2.437h5.155v.882Z" transform="translate(462.281 0.001)" fill="#1a1311"/><path d="M350.413,6.656V8.692h-1.058V6.656h-4.177V5.75L349.449.1h.964V5.75h1.261v.905Zm-1.058-5.085L346.189,5.75h3.166Z" transform="translate(466.63 0.137)" fill="#1a1311"/><path d="M329.732,8.829c.176-2.048,1.437-2.907,3.589-4.132,1.284-.729,1.86-1.047,1.86-2.131a1.677,1.677,0,0,0-1.9-1.682,2.013,2.013,0,0,0-2.143,2.164h-1.12a3.158,3.158,0,0,1,.764-2.07A3.376,3.376,0,0,1,333.253,0c1.225,0,2.989.564,2.989,2.507,0,1.519-.882,2.166-2.46,3-2.166,1.152-2.46,1.9-2.7,2.437h5.155v.882Z" transform="translate(445.749 0.001)" fill="#1a1311"/><path d="M336.191,9.064a3.133,3.133,0,0,1-2.7-1.167,3.051,3.051,0,0,1-.543-1.717h1.07a1.957,1.957,0,0,0,2.2,2c1.449,0,2.18-.837,2.18-1.884,0-1.249-1.037-1.649-1.957-1.649h-.905V3.874h.764c.659,0,1.837-.365,1.837-1.508,0-.659-.376-1.484-1.811-1.484a1.945,1.945,0,0,0-1.533.59,2,2,0,0,0-.433,1.176H333.3A2.745,2.745,0,0,1,336.334,0c1.717,0,2.857.92,2.857,2.248A1.921,1.921,0,0,1,337.7,4.191a2.035,2.035,0,0,1,1.755,2.119c0,1.529-1.19,2.754-3.262,2.754" transform="translate(450.09 0.001)" fill="#1a1311"/><path d="M317.5,8.829c.174-2.048,1.432-2.907,3.587-4.132,1.284-.729,1.86-1.047,1.86-2.131a1.677,1.677,0,0,0-1.9-1.682A2.013,2.013,0,0,0,318.9,3.048h-1.119a3.17,3.17,0,0,1,.764-2.07A3.376,3.376,0,0,1,321.021,0c1.225,0,2.989.564,2.989,2.507,0,1.519-.882,2.166-2.46,3-2.166,1.152-2.46,1.9-2.7,2.437h5.155v.882Z" transform="translate(429.217 0.001)" fill="#1a1311"/><path d="M320.653,8.829c.176-2.048,1.435-2.907,3.589-4.132,1.284-.729,1.86-1.047,1.86-2.131A1.677,1.677,0,0,0,324.2.884a2.013,2.013,0,0,0-2.143,2.164h-1.119A3.158,3.158,0,0,1,321.7.978,3.376,3.376,0,0,1,324.174,0c1.225,0,2.989.564,2.989,2.507,0,1.519-.882,2.166-2.46,3-2.166,1.152-2.46,1.9-2.7,2.437h5.155v.882Z" transform="translate(433.476 0.001)" fill="#1a1311"/><path d="M305.271,8.829c.176-2.048,1.437-2.907,3.589-4.132,1.284-.729,1.86-1.047,1.86-2.131a1.677,1.677,0,0,0-1.9-1.682,2.013,2.013,0,0,0-2.143,2.164h-1.12a3.158,3.158,0,0,1,.764-2.07A3.376,3.376,0,0,1,308.792,0c1.225,0,2.989.564,2.989,2.507,0,1.519-.882,2.166-2.46,3-2.166,1.152-2.46,1.9-2.7,2.437h5.155v.882Z" transform="translate(412.682 0.001)" fill="#1a1311"/><path d="M310.735,8.692V2.406h-1.813V1.641A1.881,1.881,0,0,0,311.006.1h.814V8.692Z" transform="translate(417.617 0.137)" fill="#1a1311"/><path d="M293.041,8.829c.176-2.048,1.437-2.907,3.589-4.132,1.284-.729,1.86-1.047,1.86-2.131a1.677,1.677,0,0,0-1.9-1.682,2.013,2.013,0,0,0-2.143,2.164h-1.119a3.158,3.158,0,0,1,.764-2.07A3.376,3.376,0,0,1,296.562,0c1.225,0,2.989.564,2.989,2.507,0,1.519-.882,2.166-2.46,3-2.166,1.152-2.46,1.9-2.7,2.437h5.155v.882Z" transform="translate(396.148 0.001)" fill="#1a1311"/><path d="M299.511,9.065c-2.636,0-3.26-2.366-3.26-4.532S296.874,0,299.511,0s3.25,2.389,3.25,4.532-.614,4.532-3.25,4.532m0-8.182c-1.684,0-2.14,1.719-2.14,3.65,0,2.013.494,3.648,2.14,3.648s2.143-1.649,2.143-3.648-.482-3.65-2.143-3.65" transform="translate(400.488 0.002)" fill="#1a1311"/><path d="M283.123,8.692V2.406H281.31V1.641A1.881,1.881,0,0,0,283.394.1h.811V8.692Z" transform="translate(380.29 0.137)" fill="#1a1311"/><path d="M287.009,9.065a2.707,2.707,0,0,1-2.848-2.178h1.105A1.588,1.588,0,0,0,287,8.145c2.272,0,2.389-2.578,2.425-3.448a2.787,2.787,0,0,1-2.448,1.2,2.749,2.749,0,0,1-2.954-2.825A2.975,2.975,0,0,1,287.15,0a3.034,3.034,0,0,1,2.615,1.305,5.967,5.967,0,0,1,.764,3.1c0,2.7-1.164,4.661-3.521,4.661m.165-8.182a1.932,1.932,0,0,0-2.048,2.084,1.864,1.864,0,0,0,1.966,2.048,1.934,1.934,0,0,0,2.154-1.943,2.028,2.028,0,0,0-2.072-2.19" transform="translate(383.953 0.002)" fill="#1a1311"/><path d="M270.894,8.692V2.406h-1.813V1.641A1.881,1.881,0,0,0,271.165.1h.811V8.692Z" transform="translate(363.758 0.137)" fill="#1a1311"/><path d="M275.051,9.065c-2.107,0-3.26-1.119-3.26-2.554a2.428,2.428,0,0,1,1.8-2.319,1.982,1.982,0,0,1-1.449-1.919C272.144,1,273.181,0,275.051,0c1.919,0,2.9,1.047,2.9,2.272a1.988,1.988,0,0,1-1.435,1.919,2.42,2.42,0,0,1,1.79,2.319c0,1.47-1.19,2.554-3.25,2.554m0-4.452A1.9,1.9,0,0,0,272.9,6.438c0,.849.564,1.743,2.154,1.743s2.143-.894,2.143-1.743a1.887,1.887,0,0,0-2.143-1.825m0-3.73c-.835,0-1.8.306-1.8,1.5s.978,1.493,1.8,1.493c.79,0,1.79-.282,1.79-1.493,0-1.19-.964-1.5-1.79-1.5" transform="translate(367.421 0.002)" fill="#1a1311"/><path d="M258.667,8.692V2.406h-1.813V1.641A1.881,1.881,0,0,0,258.938.1h.814V8.692Z" transform="translate(347.229 0.137)" fill="#1a1311"/><path d="M262.227,8.692h-1.12a13.7,13.7,0,0,1,1.282-4.144A13.912,13.912,0,0,1,264.746.983h-5.132V.1H265.9V.983a14.259,14.259,0,0,0-3.674,7.709" transform="translate(350.96 0.137)" fill="#1a1311"/><path d="M246.435,8.692V2.406h-1.813V1.641A1.881,1.881,0,0,0,246.706.1h.811V8.692Z" transform="translate(330.693 0.137)" fill="#1a1311"/><path d="M250.722,9.064c-2.942,0-3.389-2.848-3.389-4.344,0-3.06,1.39-4.72,3.53-4.72A2.7,2.7,0,0,1,253.7,2.19h-1.105A1.566,1.566,0,0,0,250.863.92c-2.272,0-2.378,2.578-2.413,3.448a2.813,2.813,0,0,1,2.448-1.19A2.739,2.739,0,0,1,253.841,6a2.963,2.963,0,0,1-3.119,3.06m1.59-4.367a1.9,1.9,0,0,0-1.566-.647,1.945,1.945,0,0,0-2.131,1.943,2.032,2.032,0,0,0,2.072,2.187A1.931,1.931,0,0,0,252.735,6.1a2.353,2.353,0,0,0-.423-1.4" transform="translate(334.358 0.001)" fill="#1a1311"/><path d="M234.2,8.975V2.689h-1.813V1.924a1.881,1.881,0,0,0,2.084-1.54h.814V8.975Z" transform="translate(314.158 0.52)" fill="#1a1311"/><path d="M238.22,9.211A2.836,2.836,0,0,1,235.1,6.762h1.117a1.907,1.907,0,0,0,2,1.576,2.1,2.1,0,0,0,2.284-2.1,1.918,1.918,0,0,0-2.084-2.013A2.281,2.281,0,0,0,236.571,5h-1.105L236.23.384h4.908v.882h-3.977l-.437,2.625a2.872,2.872,0,0,1,1.837-.555,2.764,2.764,0,0,1,3.048,2.886c0,1.964-1.566,2.989-3.389,2.989" transform="translate(317.822 0.52)" fill="#1a1311"/><path d="M221.972,8.975V2.689h-1.813V1.924a1.881,1.881,0,0,0,2.084-1.54h.811V8.975Z" transform="translate(297.623 0.52)" fill="#1a1311"/><path d="M228.11,6.939V8.975h-1.058V6.939h-4.177V6.033L227.146.384h.964V6.033h1.261v.905Zm-1.058-5.085-3.166,4.179h3.166Z" transform="translate(301.294 0.52)" fill="#1a1311"/><path d="M209.745,8.975V2.689h-1.813V1.924a1.881,1.881,0,0,0,2.084-1.54h.814V8.975Z" transform="translate(281.093 0.52)" fill="#1a1311"/><path d="M213.89,9.347a3.133,3.133,0,0,1-2.7-1.167,3.051,3.051,0,0,1-.543-1.717h1.07a1.957,1.957,0,0,0,2.2,2c1.449,0,2.18-.837,2.18-1.884,0-1.249-1.037-1.649-1.957-1.649h-.905V4.157H214c.659,0,1.837-.365,1.837-1.508,0-.659-.376-1.484-1.811-1.484a1.945,1.945,0,0,0-1.533.59,2,2,0,0,0-.433,1.176H211A2.745,2.745,0,0,1,214.033.283c1.717,0,2.857.92,2.857,2.248A1.921,1.921,0,0,1,215.4,4.474a2.035,2.035,0,0,1,1.754,2.119c0,1.529-1.19,2.754-3.262,2.754" transform="translate(284.757 0.384)" fill="#1a1311"/><path d="M197.515,8.975V2.689H195.7V1.924a1.881,1.881,0,0,0,2.084-1.54h.811V8.975Z" transform="translate(264.56 0.52)" fill="#1a1311"/><path d="M198.352,9.112c.176-2.048,1.435-2.907,3.589-4.132,1.284-.729,1.86-1.047,1.86-2.131A1.677,1.677,0,0,0,201.9,1.167a2.013,2.013,0,0,0-2.143,2.164h-1.119a3.158,3.158,0,0,1,.764-2.07,3.376,3.376,0,0,1,2.474-.978c1.225,0,2.989.564,2.989,2.507,0,1.519-.882,2.166-2.46,3-2.166,1.152-2.46,1.9-2.7,2.437h5.155v.882Z" transform="translate(268.143 0.384)" fill="#1a1311"/><path d="M185.284,8.975V2.689h-1.813V1.924a1.881,1.881,0,0,0,2.084-1.54h.814V8.975Z" transform="translate(248.026 0.52)" fill="#1a1311"/><path d="M188.434,8.975V2.689h-1.813V1.924A1.881,1.881,0,0,0,188.7.384h.814V8.975Z" transform="translate(252.284 0.52)" fill="#1a1311"/><path d="M173.053,8.975V2.689H171.24V1.924a1.881,1.881,0,0,0,2.084-1.54h.814V8.975Z" transform="translate(231.491 0.52)" fill="#1a1311"/><path d="M177.211,9.348c-2.639,0-3.26-2.366-3.26-4.532s.621-4.532,3.26-4.532,3.248,2.389,3.248,4.532-.614,4.532-3.248,4.532m0-8.182c-1.686,0-2.143,1.719-2.143,3.65,0,2.013.494,3.648,2.143,3.648s2.14-1.649,2.14-3.648-.482-3.65-2.14-3.65" transform="translate(235.156 0.385)" fill="#1a1311"/><path d="M163.134,9.348a2.706,2.706,0,0,1-2.848-2.178h1.105a1.588,1.588,0,0,0,1.731,1.258c2.272,0,2.389-2.578,2.425-3.448a2.787,2.787,0,0,1-2.448,1.2,2.749,2.749,0,0,1-2.954-2.825,2.975,2.975,0,0,1,3.13-3.072,3.034,3.034,0,0,1,2.615,1.305,5.967,5.967,0,0,1,.764,3.1c0,2.7-1.164,4.661-3.521,4.661m.165-8.182A1.932,1.932,0,0,0,161.25,3.25,1.864,1.864,0,0,0,163.217,5.3a1.934,1.934,0,0,0,2.154-1.943,2.028,2.028,0,0,0-2.072-2.19" transform="translate(216.493 0.385)" fill="#1a1311"/><path d="M151.177,9.348c-2.107,0-3.26-1.119-3.26-2.554a2.425,2.425,0,0,1,1.8-2.319,1.98,1.98,0,0,1-1.446-1.919c0-1.272,1.033-2.272,2.9-2.272,1.919,0,2.9,1.047,2.9,2.272a1.988,1.988,0,0,1-1.435,1.919,2.42,2.42,0,0,1,1.79,2.319c0,1.47-1.19,2.554-3.25,2.554m0-4.452a1.9,1.9,0,0,0-2.152,1.825c0,.849.564,1.743,2.152,1.743s2.143-.894,2.143-1.743A1.888,1.888,0,0,0,151.177,4.9m0-3.73c-.833,0-1.8.306-1.8,1.5s.978,1.493,1.8,1.493c.79,0,1.79-.282,1.79-1.493,0-1.19-.964-1.5-1.79-1.5" transform="translate(199.962 0.385)" fill="#1a1311"/><path d="M138.351,8.975h-1.119a13.64,13.64,0,0,1,1.284-4.144,13.915,13.915,0,0,1,2.352-3.565h-5.129V.384h6.286v.882a14.275,14.275,0,0,0-3.674,7.709" transform="translate(183.498 0.52)" fill="#1a1311"/><path d="M126.848,9.347c-2.945,0-3.389-2.848-3.389-4.344,0-3.06,1.388-4.72,3.53-4.72a2.7,2.7,0,0,1,2.836,2.19H128.72a1.566,1.566,0,0,0-1.731-1.27c-2.272,0-2.378,2.578-2.413,3.448a2.814,2.814,0,0,1,2.448-1.19,2.739,2.739,0,0,1,2.942,2.827,2.963,2.963,0,0,1-3.119,3.06m1.59-4.367a1.9,1.9,0,0,0-1.566-.647,1.944,1.944,0,0,0-2.131,1.943,2.032,2.032,0,0,0,2.072,2.187,1.931,1.931,0,0,0,2.048-2.081,2.354,2.354,0,0,0-.423-1.4" transform="translate(166.898 0.384)" fill="#1a1311"/><path d="M114.345,9.211a2.836,2.836,0,0,1-3.119-2.448h1.117a1.907,1.907,0,0,0,2,1.576,2.1,2.1,0,0,0,2.284-2.1,1.918,1.918,0,0,0-2.084-2.013A2.281,2.281,0,0,0,112.7,5h-1.105l.764-4.612h4.908v.882h-3.977l-.437,2.625a2.872,2.872,0,0,1,1.837-.555,2.764,2.764,0,0,1,3.048,2.886c0,1.964-1.566,2.989-3.389,2.989" transform="translate(150.361 0.52)" fill="#1a1311"/><path d="M104.237,6.939V8.975h-1.058V6.939H99V6.033L103.273.384h.964V6.033H105.5v.905Zm-1.058-5.085-3.166,4.179h3.166Z" transform="translate(133.836 0.52)" fill="#1a1311"/><path d="M90.014,9.347a3.14,3.14,0,0,1-2.707-1.167,3.083,3.083,0,0,1-.541-1.717h1.07a1.956,1.956,0,0,0,2.2,2c1.446,0,2.178-.837,2.178-1.884,0-1.249-1.037-1.649-1.957-1.649h-.905V4.157h.764c.659,0,1.837-.365,1.837-1.508,0-.659-.376-1.484-1.811-1.484a1.945,1.945,0,0,0-1.533.59,2,2,0,0,0-.433,1.176H87.119A2.748,2.748,0,0,1,90.157.283c1.717,0,2.857.92,2.857,2.248a1.921,1.921,0,0,1-1.493,1.943,2.035,2.035,0,0,1,1.754,2.119c0,1.529-1.19,2.754-3.262,2.754" transform="translate(117.295 0.384)" fill="#1a1311"/><path d="M74.476,9.112c.176-2.048,1.437-2.907,3.589-4.132,1.284-.729,1.86-1.047,1.86-2.131a1.677,1.677,0,0,0-1.9-1.682,2.013,2.013,0,0,0-2.143,2.164H74.758a3.158,3.158,0,0,1,.764-2.07A3.376,3.376,0,0,1,78,.283c1.225,0,2.989.564,2.989,2.507,0,1.519-.882,2.166-2.46,3-2.166,1.152-2.46,1.9-2.7,2.437h5.155v.882Z" transform="translate(100.681 0.384)" fill="#1a1311"/><path d="M64.558,8.975V2.689H62.745V1.924A1.881,1.881,0,0,0,64.829.384h.811V8.975Z" transform="translate(84.822 0.52)" fill="#1a1311"/><line y2="78.594" transform="translate(1171.693 17.437)" fill="none" stroke="#fff" stroke-width="0.5"/><rect width="28.307" height="78.594" transform="translate(1171.693 17.439)" fill="#9b9fbb"/><path d="M514.334,12.106a11.613,11.613,0,0,1-1.59,4.638,4.947,4.947,0,0,0,2.192,1.649l-1.084,1.094A5.987,5.987,0,0,1,511.98,17.8a7.041,7.041,0,0,1-2.237,1.731l-1.047-.976a1.8,1.8,0,0,1-1.8,1l-.506-1.376a4.733,4.733,0,0,0,.753.056c.212,0,.329-.009.506-.409a10.875,10.875,0,0,0,.447-3.438h-.917a10.3,10.3,0,0,1-1.508,4.92l-1.317-.353c1.188-1.872,1.66-3.556,1.682-6.839h-1.2V10.93h1.66V9.258l1.329.082c.082,0,.282.024.282.153a.13.13,0,0,1-.071.106c-.153.106-.174.118-.174.2V10.93h1.74v1.188h-2.319c0,.459,0,.708-.024,1.108h1.6a8.022,8.022,0,0,0,1.954-3.932l1.272.365c.106.035.209.094.209.2s-.082.118-.153.141a.914.914,0,0,0-.188.082c-.012.014-.27.731-.306.826H515v1.2Zm-4.012,1.461a3.367,3.367,0,0,1-.4.506l-.623-.459c-.024.494-.047,1.284-.141,2.3a14.013,14.013,0,0,1-.412,2.507,6.216,6.216,0,0,0,2.519-1.778,10.646,10.646,0,0,1-.941-3.072m.941-1.461a10.731,10.731,0,0,0,.764,3.389,9.311,9.311,0,0,0,.964-3.389Z" transform="translate(681.811 12.516)" fill="#1a1311"/><path d="M504.568,15.928h3.838v1.025h-3.838Zm9.334,7.909A7.328,7.328,0,0,1,512.113,22v2.3H510.84V21.671a7.461,7.461,0,0,1-1.978,2.237l-.706-.564v.729h-1.141v-.329h-1.025v.52h-1.178V20.624h3.344v2.2a6.433,6.433,0,0,0,1.931-2.025h-1.637V19.648h2.389v-.661h-2.058V14.4h5.52v4.591h-2.19v.661h2.578V20.8h-2.1a7.443,7.443,0,0,0,2.284,2.166ZM505.1,19.081h2.813v.952H505.1Zm.035-1.529h2.742v.952h-2.742Zm.024-3.18h2.754v1.082h-2.754Zm1.86,7.263h-1.025v1.025h1.025Zm3.824-6.19h-.882V16.2h.882Zm0,1.705h-.882v.931h.882Zm2.225-1.705h-.953V16.2h.953Zm0,1.705h-.953v.931h.953Z" transform="translate(682.102 19.431)" fill="#1a1311"/><path d="M513.958,24.628a6.225,6.225,0,0,0-.447-.8c-.87.118-1.141.155-2.792.343l.355.27c.047.035.118.071.118.118s-.059.047-.165.071a.747.747,0,0,0-.153.223h2.6l.423.6a8.409,8.409,0,0,1-1.613,1.943,7.364,7.364,0,0,0,2.554.764L514,29.4a10.278,10.278,0,0,1-2.73-1.178,9.208,9.208,0,0,1-2.554,1.308l-.931-.99a7.978,7.978,0,0,0,2.533-1.058,4.793,4.793,0,0,1-.743-.847,6.954,6.954,0,0,1-1.27,1.129l-1-.694V29.5h-1.341V25.24c-.094.094-.259.27-.47.47l-1.049-.764a11.051,11.051,0,0,0,2.672-3.156l1.131.435c.094.038.212.061.212.143,0,.106-.153.106-.329.176-.249.376-.47.694-.859,1.188l.165.082a.153.153,0,0,1,.068.129.141.141,0,0,1-.056.12c-.026.033-.143.165-.143.2v2.625a6.757,6.757,0,0,0,2.448-2.6c-.139.012-.847.085-1,.106a.175.175,0,0,0-.118.085c-.106.141-.141.2-.188.2s-.085-.045-.094-.115l-.285-1.343c.731,0,1.063-.012,1.766-.047a1.7,1.7,0,0,0,.4-.376,10.438,10.438,0,0,0-2.046-1.684l.882-.917c.223.153.438.306.649.47a5.128,5.128,0,0,0,1.009-1.413l1.157.461c.1.047.259.082.259.162,0,.108-.188.108-.376.143a16.652,16.652,0,0,1-1.167,1.352,2.46,2.46,0,0,1,.5.461,21.7,21.7,0,0,0,1.7-2.19l1.178.506c.082.035.238.082.238.2,0,.153-.144.118-.367.165-.779.87-1.343,1.508-2.343,2.542.294-.024.873-.082,1.376-.165a3.073,3.073,0,0,0-.388-.459l.955-.706a13.432,13.432,0,0,1,1.555,2.26Zm-6.263-4.273a12.006,12.006,0,0,1-2.048,2.2l-1.141-.767a7.95,7.95,0,0,0,2.237-2.354l1.141.59c.073.035.155.082.155.165,0,.106-.176.106-.343.165m2.874,5.543a3.2,3.2,0,0,0,.717.847,4.117,4.117,0,0,0,.741-.847Z" transform="translate(681.938 26.02)" fill="#1a1311"/><path d="M505.45,13.142c-.47,1.747-1.435,2.578-3.427,3.549l-1.141-.75c1.907-.811,2.745-1.482,3.133-2.8h-4.193v-.981h4.332a4.467,4.467,0,0,0,.024-.546,2.523,2.523,0,0,0-.068-.708,23.716,23.716,0,0,1-2.756.336l-.635-.882a18.84,18.84,0,0,0,5.861-1.122l.967.67c.035.028.141.115.141.176,0,.035-.026.054-.059.063h-.376a.469.469,0,0,0-.179.035,13.6,13.6,0,0,1-1.493.433c.012.318.047.811.035,1.119,0,.23-.014.275-.014.423h3.145v.981Z" transform="translate(675.686 12.492)" fill="#1a1311"/><path d="M506.517,16.129l-1.082-.343c.256-.318.635-.795,1.047-1.308l-2.142.327.882,3.363-1.258.23-.825-3.408-2.154.336-.409-.8,2.375-.343-.388-1.573,1.119-.1c.045,0,.306-.026.306.08,0,.016-.012.026-.094.115-.035.035-.082.089-.071.141l.318,1.167,2.742-.4a.806.806,0,0,0,.411-.23l.941.52c-.635.811-.985,1.244-1.717,2.225" transform="translate(676.702 16.908)" fill="#1a1311"/><path d="M501.19,21.478l-.8-.609V15.034l1.4.132c.082.009.32.035.32.125,0,.035-.014.052-.12.122-.176.106-.188.115-.188.151v4.431a10.14,10.14,0,0,0,2.9-1,15.876,15.876,0,0,0,2.815-1.818l.715.971a18.557,18.557,0,0,1-7.037,3.328" transform="translate(676.451 20.325)" fill="#1a1311"/><path d="M502.371,19.734a11.6,11.6,0,0,0-2.413-1.112l.717-.83a12.082,12.082,0,0,1,2.472,1.1Zm3.45,2.4a17.725,17.725,0,0,1-4.438,1.969c-.059.125-.082.273-.176.273a.357.357,0,0,1-.259-.167l-.825-1.058a13.13,13.13,0,0,0,4.37-1.529,14.59,14.59,0,0,0,3.445-2.7l.814.884a14.81,14.81,0,0,1-2.93,2.331" transform="translate(675.87 24.052)" fill="#1a1311"/><path d="M502.275,24.612a10.226,10.226,0,0,0-2.342-.856l.647-.891a9.118,9.118,0,0,1,2.413.917Zm3.6,1.5a20.618,20.618,0,0,1-3.953,1.952c-.155.061-.176.061-.2.132-.038.115-.061.16-.118.16-.108,0-.238-.188-.271-.24l-.625-.865a14.986,14.986,0,0,0,6.945-4.316l.943.873a11.648,11.648,0,0,1-2.721,2.3m-2.4-3.568a8.973,8.973,0,0,0-2.309-.795l.625-.847a8.528,8.528,0,0,1,2.378.788Zm3.589-.228a4.963,4.963,0,0,0-1.155-.663l.5-.484a5.46,5.46,0,0,1,1.188.663Zm1.2-.715a5.873,5.873,0,0,0-1.225-.67l.5-.487a6.059,6.059,0,0,1,1.249.67Z" transform="translate(675.836 27.64)" fill="#1a1311"/><path d="M507.746,26.3a9.9,9.9,0,0,1-2.072,2.982,10.494,10.494,0,0,1-3.483,2.154l-1.284-.776a9.688,9.688,0,0,0,3.909-2.312,6.956,6.956,0,0,0,1.47-2.164h-6.272V25.155h6.663a.778.778,0,0,0,.388-.141l1.164.795a1.277,1.277,0,0,0-.482.487m.788-1.007a1,1,0,0,1-1.094-.849.989.989,0,0,1,1.094-.837c.626,0,1.108.379,1.108.837,0,.477-.494.849-1.108.849m0-1.343c-.341,0-.644.212-.644.494s.315.5.644.5a.581.581,0,0,0,.647-.5c0-.282-.294-.494-.647-.494" transform="translate(675.944 31.909)" fill="#1a1311"/><path d="M506.74,33.108v-.379h-5.355v.343h-1.4V27.3h8.159v5.807Zm0-4.81h-5.355v3.434h5.355Z" transform="translate(675.903 36.908)" fill="#1a1311"/><path d="M507.592,32.616a8.717,8.717,0,0,1-2,2.789,11.865,11.865,0,0,1-3.227,2.1l-1.294-.687a10.235,10.235,0,0,0,3.777-2.34,6.646,6.646,0,0,0,1.508-2.215h-3.013a14.06,14.06,0,0,1-2.26,1.94l-1.167-.626a8.432,8.432,0,0,0,3.354-3.408l1.178.4c.094.035.306.106.306.186,0,.052-.071.071-.271.122-.129.115-.271.346-.4.487h2.636a1.176,1.176,0,0,0,.506-.132l.99.863a1.491,1.491,0,0,0-.625.522M507,30.955a4.539,4.539,0,0,0-1.023-.734l.609-.36a4.272,4.272,0,0,1,1.014.731Zm1.684,0a4.639,4.639,0,0,0-1.047-.856l.6-.362a4.536,4.536,0,0,1,1.047.856Z" transform="translate(675.816 40.201)" fill="#1a1311"/><path d="M507.655,36.389a7.4,7.4,0,0,1-1.94,2.455,9.608,9.608,0,0,1-3.274,1.623l-1.1-.76a8.393,8.393,0,0,0,3.3-1.562,4.986,4.986,0,0,0,1.5-1.87h-6.11V35.3H506.7a1.682,1.682,0,0,0,.576-.167l.953.76a1.708,1.708,0,0,0-.576.494m-6.449-3.062h5.59v1h-5.59Z" transform="translate(675.964 45.054)" fill="#1a1311"/><path d="M507.762,42.854a5.766,5.766,0,0,0-.494-.988c-1.129.141-6.733.84-6.816.882-.023.009-.165.115-.179.125a.132.132,0,0,1-.092.033c-.1,0-.129-.078-.177-.238l-.282-1.023c.282-.009.623-.026,1.305-.071a38.877,38.877,0,0,0,2.319-5.219l1.39.256c.106.019.329.08.329.167,0,.047-.024.054-.224.143-.118.045-.141.071-.249.308-.621,1.369-1.611,3.283-2.128,4.238,1.672-.141,2.907-.266,4.2-.433a8.536,8.536,0,0,0-1.352-1.369l1.246-.468a11.554,11.554,0,0,1,2.531,3.109Z" transform="translate(675.552 49.149)" fill="#1a1311"/></g></g></g></svg>