<svg xmlns="http://www.w3.org/2000/svg" width="1200" height="157" viewBox="0 0 1200 157"><g transform="translate(-200 -2968)"><g transform="translate(200 2968)" fill="#fff" stroke="#c65b97" stroke-width="2"><rect width="258" height="157" stroke="none"/><rect x="1" y="1" width="256" height="155" fill="none"/></g><g transform="translate(1113 2968)" fill="#fff" stroke="#c65b97" stroke-width="2"><rect width="287" height="157" stroke="none"/><rect x="1" y="1" width="285" height="155" fill="none"/></g><g transform="translate(510 2968)" fill="#fff" stroke="#c65b97" stroke-width="2"><rect width="550" height="157" stroke="none"/><rect x="1" y="1" width="548" height="155" fill="none"/></g><path d="M7.54-1.17V-9.62H18.616v8.45ZM18.616-18.512v8.138H7.54v-8.138ZM19.682-20.7l-1.326,1.43H7.748L4.992-20.41V2.028h.442c1.118,0,2.106-.624,2.106-.962V-.416H18.616V1.846h.416a3.589,3.589,0,0,0,2.236-.832V-18.044a2.125,2.125,0,0,0,1.066-.546ZM38.09-12.4c.676-.91,1.248-1.768,1.69-2.444.468-.7,1.118-.832,1.118-1.43s-1.144-1.586-1.976-2a5.769,5.769,0,0,0-3.016-.52l-.182.468a5.687,5.687,0,0,1,1.56.962.727.727,0,0,1,.234.962A32.861,32.861,0,0,1,34.164-10.4a54.081,54.081,0,0,1-5.33,6.37l.468.468a31.146,31.146,0,0,0,6.4-5.876c.52-.572,1.04-1.2,1.508-1.82a2,2,0,0,0,.936.6,8.331,8.331,0,0,0,1.17-.26c.884-.13,3.2-.416,4.108-.442.338,0,.468.13.286.468a33.771,33.771,0,0,1-3.848,5.72,18.7,18.7,0,0,0-4.446-2.054l-.338.468A20.957,20.957,0,0,1,41.158-.442c.52.884.806,1.43,1.664,1.43C43.732.988,44.1.26,44.1-.52a4.015,4.015,0,0,0-1.222-2.236,11.345,11.345,0,0,0-1.95-1.69c1.95-1.82,3.536-3.588,4.914-4.966.468-.494,1.612-.728,1.612-1.378,0-.832-2.054-2.73-2.912-2.73-.468,0-.78.624-1.534.728-.832.13-3.8.39-4.68.39ZM64.246-14.82a11.92,11.92,0,0,1-1.066,4.394c-.91,2.08-3.25,5.876-4.836,5.876-1.066,0-2.054-1.9-2.054-4.16a8.216,8.216,0,0,1,2.47-5.746,9.829,9.829,0,0,1,4.732-2.678A4.377,4.377,0,0,1,64.246-14.82ZM63.934.312C72.54-.13,75.686-4.42,75.686-9.074c0-5.408-4.212-9.282-9.906-9.282A11.473,11.473,0,0,0,58.006-15.6,10.206,10.206,0,0,0,54.34-8.06c0,3.328,1.872,6.318,3.822,6.318,2.938,0,5.9-4.862,7.02-8.086a13.247,13.247,0,0,0,.858-4.42,5.106,5.106,0,0,0-1.482-3.094c.338-.026.676-.052.988-.052,4.264,0,7.488,3.016,7.488,7.722,0,4.6-2.73,8.086-9.2,9.438ZM99.892-21.944A69.624,69.624,0,0,1,87.36-19.058l.078.442a93.407,93.407,0,0,0,13.338-1.092c.7.286,1.248.286,1.508.052ZM93-18.3a8.976,8.976,0,0,1,1.248,3.822c1.742,1.664,4.056-1.9-.936-3.952Zm-4.082.494a8.418,8.418,0,0,1,1.326,3.588c1.794,1.638,4.056-1.95-1.04-3.744Zm-1.638,5.018c-.91.416-1.794.858-2.678,1.248v-3.588h2.938c.364,0,.6-.13.676-.416-.728-.884-2.028-2.184-2.028-2.184l-1.17,1.846H84.6V-20.9c.624-.078.884-.338.962-.7l-3.25-.338v6.058H78.91l.208.754h3.2V-10.5c-1.664.728-3.068,1.326-3.8,1.56l1.3,2.808a1.041,1.041,0,0,0,.494-.78c.7-.52,1.378-1.014,2-1.482V-.962c0,.338-.1.468-.52.468-.468,0-2.6-.156-2.6-.156v.39a2.86,2.86,0,0,1,1.872.806,2.94,2.94,0,0,1,.494,1.664C84.266,1.95,84.6.962,84.6-.78v-9.386c1.118-.91,2.054-1.69,2.808-2.314ZM97.474-8.528A14.669,14.669,0,0,1,94.562-3.77a11.136,11.136,0,0,1-3.614-4.758Zm2.054-1.43a15.649,15.649,0,0,0,2.912-2.054c.52-.052.806-.078,1.014-.286l-2.34-2.236-1.326,1.352H97.63a28.09,28.09,0,0,0,3.562-3.874c.546.026.858-.182.962-.468L99.008-18.59a29.312,29.312,0,0,1-2.08,5.408h-7.54a9.258,9.258,0,0,0-.494-1.222H88.53a3.477,3.477,0,0,1-1.066,2.73c-1.69,1.248-.286,3.12,1.2,2.184a2.655,2.655,0,0,0,.91-2.964H99.892c-.208.7-.494,1.534-.728,2.158l-.312-.286-1.4,1.326h-9l.234.728h1.742a14.868,14.868,0,0,0,2.938,5.954,21.479,21.479,0,0,1-8.294,4.368l.182.39A23.368,23.368,0,0,0,94.51-1.378a16.956,16.956,0,0,0,6.682,3.458,2.731,2.731,0,0,1,2.08-2.158L103.3-.39A22.949,22.949,0,0,1,96.174-2.7a16.489,16.489,0,0,0,3.874-5.434c.624-.052.884-.1,1.092-.364Zm8.58-11.128a6.939,6.939,0,0,1,2,3.8c2.08,1.612,4.056-2.626-1.742-3.978Zm12.064,4.94a24.221,24.221,0,0,1-1.56,3.562H114.53c.884-.624.884-2.47-1.846-3.562Zm7.774,10.712a.635.635,0,0,0,.676-.39C127.608-6.734,126-7.93,126-7.93L124.54-6.162h-6.4V-8.71h7.462c.39,0,.65-.13.728-.416-.962-.832-2.444-1.924-2.444-1.924l-1.326,1.612h-4.42V-11.83h8.736c.364,0,.624-.13.7-.416-1.014-.832-2.574-2-2.574-2l-1.4,1.664H119.5a18.321,18.321,0,0,0,2.938-2.548c.572.026.91-.156,1.014-.468l-1.846-.546h6.578c.39,0,.65-.13.728-.416-.988-.832-2.574-1.976-2.574-1.976l-1.4,1.664h-3.12a21.459,21.459,0,0,0,3.588-3.068c.572.078.884-.1,1.014-.39L123.318-21.4a30.164,30.164,0,0,1-2.184,4.524h-.806v-4.108c.572-.1.754-.338.806-.65l-3.042-.286v5.044h-2.158v-4.108c.572-.1.78-.338.806-.65l-3.016-.286v5.044h-8.5l.208.728h6.006a6.844,6.844,0,0,1,1.482,3.38,1.578,1.578,0,0,0,.26.182H106.7l.234.754h8.736v2.392H108l.208.728h7.462v2.548H105.482l.234.728h8.06a25.573,25.573,0,0,1-8.71,6.656l.208.364a26.6,26.6,0,0,0,10.4-5.616V2.21h.442c1.248,0,2-.442,2.028-.6V-5.434h.208a18.146,18.146,0,0,0,8.918,7.1,2.449,2.449,0,0,1,1.872-2l.026-.312c-3.51-.754-7.67-2.522-10.088-4.784Z" transform="translate(259 3040)" fill="#c65b97"/><path d="M25-16.75,38.65-3.05l1.7-1.7L26.65-18.4l13.7-13.7L38.7-33.75,25-20.05,11.3-33.75,9.65-32.1l13.7,13.7L9.65-4.75l1.7,1.7Z" transform="translate(460 3064)" fill="#c65b97"/><path d="M25-16.75,38.65-3.05l1.7-1.7L26.65-18.4l13.7-13.7L38.7-33.75,25-20.05,11.3-33.75,9.65-32.1l13.7,13.7L9.65-4.75l1.7,1.7Z" transform="translate(1062 3064)" fill="#c65b97"/><path d="M14.794-5.148l-.858,4H6.916C6.89-3.718,6.89-6.344,6.89-9.23h4.16l.364,2.73h1.2v-6.6h-1.2l-.39,2.808H6.89c0-2.678,0-5.226.026-7.722H13.39l.858,3.874h1.378l-.078-5.018H1.248v.936l2.574.286c.052,2.548.052,5.148.052,7.7v1.326c0,2.6,0,5.174-.052,7.7L1.248-.936V0H16.094l.078-5.148ZM18.382-6.37h6.864V-8.086H18.382Zm12.974-.988L34.19-16.25l2.938,8.892ZM42.2-1.2l-6.136-18.07H34.138L28.158-1.274,25.87-.936V0h6.24V-.936l-2.7-.338,1.612-5.018h6.448L39.13-1.248l-2.678.312V0h7.982V-.936ZM56.888-3.3a4.607,4.607,0,0,1-3.9,2.028c-2.756,0-4.706-2.106-4.706-5.824,0-3.77,1.742-5.954,4.264-5.954a4.225,4.225,0,0,1,1.378.208l.468,2c.182,1.066.728,1.612,1.638,1.612a1.3,1.3,0,0,0,1.378-1.118,4.883,4.883,0,0,0-5.07-3.718A6.834,6.834,0,0,0,45.37-6.812c0,4.472,2.73,7.2,6.6,7.2a5.486,5.486,0,0,0,5.46-3.432ZM67.47-1.82a3.06,3.06,0,0,1-1.9.806c-1.04,0-1.69-.624-1.69-2.106v-9.386h3.692v-1.17H63.908l.13-4.03H62.166l-.884,3.978-2.522.286v.936h2.366v6.864c0,1.066-.026,1.742-.026,2.522C61.1-.728,62.322.39,64.506.39A4.013,4.013,0,0,0,67.99-1.248Z" transform="translate(1223 3029)" fill="#c65b97"/><path d="M9.62-20.9a12.2,12.2,0,0,1,3.12,2.652c.65.962.91,1.508,1.69,1.508a1.309,1.309,0,0,0,1.326-1.3c0-1.95-3.042-2.938-5.876-3.25ZM4.992-15.5A4.743,4.743,0,0,0,5.2-13.65,3.45,3.45,0,0,0,7.592-11.7c.7,0,.91-.65,1.742-.91,1.352-.39,5.1-1.352,5.954-1.43.338-.026.364.078.182.39-2,3.51-8.424,8.5-13.754,11.258l.312.572a35.517,35.517,0,0,0,10.5-5.772,6.341,6.341,0,0,1,.026.728,38.874,38.874,0,0,1-.286,4.524,10.973,10.973,0,0,0-.26,1.716c0,.806.572,2.21,1.456,2.21,1.04,0,1.2-.832,1.2-1.534,0-.572-.13-1.664-.13-2.574,0-3.718.156-4.68.156-5.33a1.506,1.506,0,0,0-.624-1.014,31.792,31.792,0,0,0,4.056-4.186c.338-.416,1.534-.65,1.534-1.274,0-.676-1.9-2-2.73-2-.468,0-.6.52-1.508.754a66.84,66.84,0,0,1-8.19,1.3c-.78,0-1.326-.676-1.846-1.352Zm11,6.786a12.051,12.051,0,0,1,4.628,4.186c.624.91.962,1.118,1.534,1.118a1.171,1.171,0,0,0,1.2-1.17c0-2.47-3.224-4.16-7.124-4.576ZM40.17-19.838c.936.468,1.534.91,1.534,1.378a3.459,3.459,0,0,1-.7,1.482A42.389,42.389,0,0,1,28.132-5.59l.312.546a35.073,35.073,0,0,0,10.14-6.032,2.227,2.227,0,0,1,.26,1.066,58.9,58.9,0,0,1-.286,6.916c-.1.858-.286,1.4-.286,1.9,0,1.118.546,2.418,1.69,2.418.78,0,1.17-.546,1.17-1.586,0-1.43-.182-5.278-.052-8.892.052-.7.26-1.118.26-1.534,0-.442-.624-.936-1.43-1.482,1.586-1.508,2.886-2.912,3.822-3.874.728-.754,1.274-.728,1.274-1.4,0-.806-1.378-2.132-2.626-2.522a5.594,5.594,0,0,0-2.054-.208Zm18.2,1.04c.884,1.638,1.69,2.5,3.172,2.5a49.577,49.577,0,0,0,8.242-1.092c.832-.156,1.118-.468,1.118-.936,0-.832-1.014-1.326-2.47-1.326-.442,0-.806.364-2.21.728a21.724,21.724,0,0,1-4.836.7,4.567,4.567,0,0,1-2.7-.858Zm-3.822,5.434A3.927,3.927,0,0,0,54.7-11.83a3.31,3.31,0,0,0,2.314,1.95,9.414,9.414,0,0,0,2.34-.65,45.3,45.3,0,0,1,4.862-.91,1.621,1.621,0,0,1,.312.962c0,1.768-1.768,7.566-7.7,11.544l.442.494a17.559,17.559,0,0,0,9.36-9.854c.442-1.066,1.118-1.274,1.118-1.872,0-.494-.624-1.014-1.456-1.508,2.028-.182,3.874-.26,5.044-.26,1.4,0,2.574.234,3.094.234.65,0,.936-.234.936-.91,0-.91-1.638-1.638-3.016-1.638a20.811,20.811,0,0,1-2.6.494c-4.056.39-11.258,1.482-13.026,1.482-.728,0-1.222-.572-1.82-1.248ZM89.492-14.69c.52.234,1.118.676,1.118,1.066,0,1.352-5.2,7.046-10.27,9.958l.26.39a26.413,26.413,0,0,0,7.826-4.472,2.023,2.023,0,0,1,.13.728,39.628,39.628,0,0,1-.234,5.1c-.052.65-.208,1.092-.208,1.456,0,.962.468,1.976,1.456,1.976.7,0,1.04-.52,1.04-1.326,0-1.04-.156-3.874-.052-6.578.026-.546.208-.91.208-1.222,0-.364-.494-.754-1.118-1.2,1.17-1.118,2.158-2.158,2.86-2.886.546-.546.988-.546.988-1.118,0-.676-1.17-1.768-2.21-2.08a4.785,4.785,0,0,0-1.69-.13Zm34.736-1.17a.785.785,0,0,0,.806-.832,1.958,1.958,0,0,0-.806-1.508,8.569,8.569,0,0,0-3.276-1.638l-.286.364a13.262,13.262,0,0,1,2.366,2.522C123.5-16.328,123.812-15.86,124.228-15.86Zm2.34-1.924a.7.7,0,0,0,.754-.78,1.958,1.958,0,0,0-.962-1.612,9.53,9.53,0,0,0-3.2-1.378l-.286.39a12.093,12.093,0,0,1,2.392,2.262C125.814-18.252,126.074-17.784,126.568-17.784Zm-21.06.494-.442.182a6.18,6.18,0,0,0,.208,1.664c.26.832,1.586,2.34,2.6,2.34.546,0,1.17-.494,1.82-.65a83.884,83.884,0,0,1,9.386-1.508c.234,0,.364.078.286.364C117.936-9.022,112.944-2.99,105.69.728l.338.546c8.112-2.808,12.844-7.7,15.782-14.092.39-.858,1.274-1.118,1.274-1.872,0-.832-2.392-2.86-3.406-2.86-.6,0-.7.416-1.586.6-1.326.286-8.632,1.066-10.452,1.066A2.908,2.908,0,0,1,105.508-17.29ZM135.824-9.8c-.65,1.3-2.028,4.108-2.652,5.044-.234.364-.468.338-.624-.026a4.261,4.261,0,0,1-.312-1.9,14.767,14.767,0,0,1,1.82-6.344c.624-1.326.988-1.846.988-2.5,0-1.3-1.3-2.626-2-3.12a5.026,5.026,0,0,0-1.716-.832l-.338.312a4.45,4.45,0,0,1,1.378,2.938,12.86,12.86,0,0,1-.624,3.276,25.684,25.684,0,0,0-1.17,6.734,10.9,10.9,0,0,0,1.56,6.084A2.075,2.075,0,0,0,133.666.936c.7,0,1.066-.416,1.066-1.17,0-.728-.52-1.586-.52-2.444a9.344,9.344,0,0,1,.364-1.95c.26-.962,1.3-3.51,1.82-4.914ZM138.4-7.358a7.489,7.489,0,0,0,.156,2.236c.546,2.86,2.652,4.654,7.2,4.654,2.99,0,5.538-.338,5.538-1.716,0-.806-.962-1.2-1.9-1.2a22.536,22.536,0,0,1-4.316.494c-3.224,0-4.524-.78-5.486-2.47a9.8,9.8,0,0,1-.7-2.08Zm.936-7.254a16.639,16.639,0,0,1,4.524-.754c1.846,0,1.768.234,1.482.546-.468.468-2.028,1.664-3.172,2.574l.39.416a31.908,31.908,0,0,1,4.29-2.184,16.139,16.139,0,0,1,2.5-.494c.6-.1.858-.364.858-.884a1.347,1.347,0,0,0-.91-1.2,7.735,7.735,0,0,0-3.666-.624,11.392,11.392,0,0,0-6.5,2.08ZM162.006-.806c-1.69,0-2.7-.65-2.7-1.56,0-1.118,1.586-2.08,4.082-2.08a13.066,13.066,0,0,1,2.548.234C165.88-1.846,164.918-.806,162.006-.806ZM167.7-5.8c-.208-1.95-.286-4.706-.286-5.928,0-.364.026-.832.052-1.326a4.842,4.842,0,0,0,2.054.7,16.251,16.251,0,0,0,4.342-.728c.728-.286.988-.65.988-1.066,0-.91-.988-1.222-2-1.222a12.159,12.159,0,0,0-1.612.624,11.994,11.994,0,0,1-3.276.6,2.379,2.379,0,0,1-.416-.026,15.075,15.075,0,0,1,.364-2.626c.208-.728.6-.962.6-1.586,0-.832-1.794-1.924-3.406-1.924a5.354,5.354,0,0,0-2.262.676l.026.416a7.173,7.173,0,0,1,1.9.442.91.91,0,0,1,.676.936c.078.624.182,4.108.208,5.642.026,1.612.182,4.186.26,6.24-.39-.026-.806-.052-1.222-.052-3.484,0-6.578,1.222-6.578,3.874,0,2.106,2.054,3.3,4.862,3.3,3.718,0,5.07-1.716,5.07-3.822,0-.364-.026-.676-.052-.988a12.825,12.825,0,0,1,1.9.91c2.5,1.43,3.406,3.068,4.472,3.068A.915.915,0,0,0,175.37-.7c0-1.534-2.08-2.938-3.874-3.77a18.558,18.558,0,0,0-3.8-1.248ZM192.036-.936c-2.21,0-3.354-.7-3.354-1.664,0-.806.65-1.326,1.612-1.326,1.456,0,2.6,1.066,2.938,2.938C192.842-.962,192.452-.936,192.036-.936ZM186.29-19.4a4.159,4.159,0,0,0-.1,1.586,3.028,3.028,0,0,0,2.5,2.34c.494,0,.91-.416,1.4-.676a21.321,21.321,0,0,1,3.822-1.534c.364-.052.6.1.234.572-1.222,1.794-6.37,6.682-9.568,9.932-.754.728-1.092,1.2-1.118,1.82-.052.832.442,1.4.91,1.4.52.026.78-.156,1.3-.858,2.21-2.834,4.758-5.3,8.372-5.3,3.094,0,4.706,1.976,4.654,4.264A4.649,4.649,0,0,1,195.26-1.4a4.41,4.41,0,0,0-4.394-3.64c-1.846,0-3.25,1.092-3.25,2.678,0,2.08,2.132,3.354,5.122,3.354,5.174,0,8.19-2.756,8.216-6.136.052-3.77-2.86-5.98-6.292-5.98a13.276,13.276,0,0,0-4.42.884c-.234.1-.364-.1-.13-.338a60.243,60.243,0,0,1,5.928-5.252c.884-.676,1.664-.832,1.664-1.456,0-.936-1.794-2.34-2.834-2.34-.468,0-.494.338-1.326.6a28.3,28.3,0,0,1-5.252,1.144c-.676,0-1.2-.78-1.586-1.56Zm26.7,1.4v2.73h.39c1.04,0,2.028-.338,2.028-.572v-2.158h5.772v2.626h.39c1.144,0,2.054-.364,2.054-.6v-2.028h6.084c.39,0,.65-.13.7-.416-.936-.936-2.574-2.21-2.574-2.21l-1.43,1.872h-2.782V-20.9c.676-.1.884-.364.936-.7l-3.38-.312v3.172H215.41V-20.9c.65-.1.858-.364.91-.7l-3.328-.312v3.172h-6.656l.182.754Zm6.37,5.928h4.446v5.33h-4.836a16.791,16.791,0,0,0,.39-3.64Zm-6.656,5.33v-5.33h4.238V-10.4a15.389,15.389,0,0,1-.39,3.666Zm17.134.754c.39,0,.65-.13.728-.416-.936-.91-2.522-2.236-2.522-2.236l-1.378,1.9h-.416v-5.1a1.609,1.609,0,0,0,1.2-.494l-2.782-1.95-1.144,1.456h-4.16V-15.6c.65-.1.858-.338.91-.7l-3.328-.338v3.822h-3.952l-2.626-1.04v7.124H206.31l.234.754h9.8c-1.014,3.25-3.692,5.954-9.906,7.774l.13.416C214.4.7,217.594-2.288,218.764-5.98h.494c1.586,4.628,4.654,6.89,9.438,8.216a2.8,2.8,0,0,1,1.95-2.262V-.312c-4.81-.65-8.918-2.158-10.842-5.668Zm21.138-2.262H233.532l.234.754h6.89a52.435,52.435,0,0,1-2.21,6.344c-1.82.078-3.3.13-4.342.156l1.534,3.016a1.052,1.052,0,0,0,.728-.52C242.658.416,247.1-.442,250.432-1.2a12.009,12.009,0,0,1,1.352,2.99c2.99,2.08,4.862-4.264-4.6-7.514l-.26.156a25.6,25.6,0,0,1,3.12,3.77c-3.848.234-7.488.442-10.426.6a54.765,54.765,0,0,0,4.316-6.292h10.816c.39,0,.65-.13.7-.416-1.066-.962-2.886-2.288-2.886-2.288Zm-4.394-4.6h-8.632l.208.754h11.96c.364,0,.624-.13.7-.416-1.066-.91-2.756-2.184-2.756-2.184Zm-3.874-9.282c-1.17,3.588-6.032,8.632-10.53,11.128l.182.338c5.148-1.95,10.478-5.876,12.844-9.594A18.927,18.927,0,0,0,254.54-11.1a3.142,3.142,0,0,1,2.132-2.418l.026-.39c-4.082-1.2-8.71-3.588-11.05-6.63.78-.052,1.118-.208,1.2-.546Zm24.57,2.782c.364,0,.6-.13.676-.416-.858-.806-2.288-1.924-2.288-1.924L264.42-20.1h-4.784l.208.754ZM265.772-16.8h-7.436l.208.728h10.114c.364,0,.6-.13.676-.416-.884-.78-2.34-1.924-2.34-1.924Zm-6.266,3.354.208.728h7.436c.364,0,.624-.13.676-.39-.832-.78-2.158-1.872-2.158-1.872l-1.2,1.534ZM267.15-9.36a.622.622,0,0,0,.676-.416c-.858-.78-2.21-1.872-2.21-1.872l-1.222,1.56h-4.888l.208.728ZM261.846-.6V-6.11h3.3V-.6Zm3.042-6.266H261.95l-2.366-.988V2.184h.312c.962,0,1.95-.494,1.95-.7V.156h3.3V1.742h.364a3.069,3.069,0,0,0,1.9-.7V-5.746a2.029,2.029,0,0,0,1.04-.494l-2.418-1.872Zm13.442-.364V-.6h-6.11v-6.63Zm.338-6.37h-2.236V-18.72a30.649,30.649,0,0,0,3.484-.884c.7.208,1.222.182,1.456-.052l-2.626-2.21a34.948,34.948,0,0,1-9.646,3.692l.1.39c1.586-.078,3.224-.26,4.81-.494v4.68h-5.46l.208.728h5.252v4.914H272.35L269.906-9V2.184h.338c.988,0,1.976-.494,1.976-.728V.156h6.11V1.872h.416a3.376,3.376,0,0,0,2.028-.728V-6.812a1.756,1.756,0,0,0,1.04-.52l-2.522-1.924-1.222,1.3h-1.638V-12.87h5.46c.364,0,.624-.1.7-.39-.936-.936-2.522-2.262-2.522-2.262Zm20.41,3.718a2.674,2.674,0,0,0-2.678-2.678,2.674,2.674,0,0,0-2.678,2.678A2.674,2.674,0,0,0,296.4-7.2,2.674,2.674,0,0,0,299.078-9.88Zm22.542-9.464a4.644,4.644,0,0,1,1.69.442.911.911,0,0,1,.6.962c.052.884.078,2.392.078,3.51-2.782.312-6.552.806-8.372.806-.832.026-1.4-.494-2.054-1.378l-.416.182a4.205,4.205,0,0,0,.208,1.56c.286.7,1.586,2.106,2.418,2.106a17.844,17.844,0,0,0,2.652-.7c1.144-.234,2.626-.52,4.316-.754-2.132,3.9-6.578,8.268-11.258,11.154l.338.494a29.335,29.335,0,0,0,12.22-9.048c.026,3.016.052,6.162-.026,7.1a.47.47,0,0,1-.572.468c-.806-.052-2.08-.312-3.25-.52l-.156.442a12.554,12.554,0,0,1,2.808,1.69c.7.624.728,1.612,1.586,1.612.91,0,1.95-1.352,1.95-2.756,0-.91-.156-1.742-.208-3.068-.078-1.95-.13-5.668-.1-7.9a49.084,49.084,0,0,1,6.188.026.826.826,0,0,0,.884-.858c0-.78-1.742-1.768-2.808-1.768a18.689,18.689,0,0,1-4.238.91,21.05,21.05,0,0,1,.208-2.6c.13-.91.546-1.014.546-1.612,0-.52-1.612-1.56-2.99-1.56a5.526,5.526,0,0,0-2.236.624Zm18.538,1.768a17.406,17.406,0,0,1,4.42,4.264c.676.884,1.118,1.274,1.794,1.274a1.339,1.339,0,0,0,1.352-1.4c0-2.418-3.978-4.03-7.28-4.628Zm2.73,14.248c-.91,0-1.794-.91-2.47-1.638l-.39.234a5.6,5.6,0,0,0,.546,2.08,5.231,5.231,0,0,0,3.536,2.34c.676,0,.988-.754,1.69-1.2,5.876-3.666,10.66-8.06,13.676-13.7l-.52-.338C355.238-10.322,345.332-3.328,342.888-3.328Zm23.244-8.788c.26.754,1.482,2.106,2.392,2.106.572,0,1.014-.468,1.794-.676a87.216,87.216,0,0,1,8.84-1.508c.312-.026.416.1.312.416-1.716,4.6-5.772,9.438-11.908,12.61l.312.546c7.306-2.392,11.414-6.682,13.91-11.466.468-.884,1.586-1.248,1.586-1.846,0-.884-1.95-2.47-2.912-2.47-.52,0-.806.494-1.69.624-1.9.312-8.892,1.222-10.452,1.222-.91,0-1.378-.546-2.028-1.352l-.442.208A5.2,5.2,0,0,0,366.132-12.116Zm14.3-6.4c0-.858-1.014-1.326-2.5-1.326-.468,0-.806.39-2.236.728a16.164,16.164,0,0,1-4.394.7,4.557,4.557,0,0,1-2.73-.884l-.312.286c.91,1.664,1.716,2.522,3.2,2.522a44,44,0,0,0,7.852-1.066C380.146-17.732,380.432-18.044,380.432-18.512Zm20.878-1.326c.936.468,1.534.91,1.534,1.378a3.459,3.459,0,0,1-.7,1.482A42.389,42.389,0,0,1,389.272-5.59l.312.546a35.073,35.073,0,0,0,10.14-6.032,2.227,2.227,0,0,1,.26,1.066,58.9,58.9,0,0,1-.286,6.916c-.1.858-.286,1.4-.286,1.9,0,1.118.546,2.418,1.69,2.418.78,0,1.17-.546,1.17-1.586,0-1.43-.182-5.278-.052-8.892.052-.7.26-1.118.26-1.534,0-.442-.624-.936-1.43-1.482,1.586-1.508,2.886-2.912,3.822-3.874.728-.754,1.274-.728,1.274-1.4,0-.806-1.378-2.132-2.626-2.522a5.594,5.594,0,0,0-2.054-.208Zm16.068,2.262a17.406,17.406,0,0,1,4.42,4.264c.676.884,1.118,1.274,1.794,1.274a1.339,1.339,0,0,0,1.352-1.4c0-2.418-3.978-4.03-7.28-4.628Zm2.73,14.248c-.91,0-1.794-.91-2.47-1.638l-.39.234a5.6,5.6,0,0,0,.546,2.08,5.231,5.231,0,0,0,3.536,2.34c.676,0,.988-.754,1.69-1.2,5.876-3.666,10.66-8.06,13.676-13.7l-.52-.338C432.458-10.322,422.552-3.328,420.108-3.328Zm26.1-14.664v2.73h.39c1.04,0,2.028-.338,2.028-.572v-2.158H454.4v2.626h.39c1.144,0,2.054-.364,2.054-.6v-2.028h6.084c.39,0,.65-.13.7-.416-.936-.936-2.574-2.21-2.574-2.21l-1.43,1.872h-2.782V-20.9c.676-.1.884-.364.936-.7l-3.38-.312v3.172H448.63V-20.9c.65-.1.858-.364.91-.7l-3.328-.312v3.172h-6.656l.182.754Zm6.37,5.928h4.446v5.33h-4.836a16.79,16.79,0,0,0,.39-3.64Zm-6.656,5.33v-5.33h4.238V-10.4a15.389,15.389,0,0,1-.39,3.666Zm17.134.754c.39,0,.65-.13.728-.416-.936-.91-2.522-2.236-2.522-2.236l-1.378,1.9h-.416v-5.1a1.609,1.609,0,0,0,1.2-.494l-2.782-1.95-1.144,1.456h-4.16V-15.6c.65-.1.858-.338.91-.7l-3.328-.338v3.822h-3.952l-2.626-1.04v7.124H439.53l.234.754h9.8c-1.014,3.25-3.692,5.954-9.906,7.774l.13.416c7.826-1.508,11.024-4.5,12.194-8.19h.494c1.586,4.628,4.654,6.89,9.438,8.216a2.8,2.8,0,0,1,1.95-2.262V-.312c-4.81-.65-8.918-2.158-10.842-5.668ZM484.2-8.242H466.752l.234.754h6.89a52.438,52.438,0,0,1-2.21,6.344c-1.82.078-3.3.13-4.342.156l1.534,3.016a1.052,1.052,0,0,0,.728-.52c6.292-1.092,10.738-1.95,14.066-2.7A12.01,12.01,0,0,1,485,1.794c2.99,2.08,4.862-4.264-4.6-7.514l-.26.156a25.6,25.6,0,0,1,3.12,3.77c-3.848.234-7.488.442-10.426.6a54.767,54.767,0,0,0,4.316-6.292h10.816c.39,0,.65-.13.7-.416-1.066-.962-2.886-2.288-2.886-2.288Zm-4.394-4.6h-8.632l.208.754h11.96c.364,0,.624-.13.7-.416-1.066-.91-2.756-2.184-2.756-2.184Zm-3.874-9.282C474.76-18.538,469.9-13.494,465.4-11l.182.338c5.148-1.95,10.478-5.876,12.844-9.594A18.927,18.927,0,0,0,487.76-11.1a3.142,3.142,0,0,1,2.132-2.418l.026-.39c-4.082-1.2-8.71-3.588-11.05-6.63.78-.052,1.118-.208,1.2-.546Zm24.57,2.782c.364,0,.6-.13.676-.416-.858-.806-2.288-1.924-2.288-1.924L497.64-20.1h-4.784l.208.754ZM498.992-16.8h-7.436l.208.728h10.114c.364,0,.6-.13.676-.416-.884-.78-2.34-1.924-2.34-1.924Zm-6.266,3.354.208.728h7.436c.364,0,.624-.13.676-.39-.832-.78-2.158-1.872-2.158-1.872l-1.2,1.534ZM500.37-9.36a.622.622,0,0,0,.676-.416c-.858-.78-2.21-1.872-2.21-1.872l-1.222,1.56h-4.888l.208.728ZM495.066-.6V-6.11h3.3V-.6Zm3.042-6.266H495.17L492.8-7.852V2.184h.312c.962,0,1.95-.494,1.95-.7V.156h3.3V1.742h.364a3.069,3.069,0,0,0,1.9-.7V-5.746a2.029,2.029,0,0,0,1.04-.494l-2.418-1.872Zm13.442-.364V-.6h-6.11v-6.63Zm.338-6.37h-2.236V-18.72a30.648,30.648,0,0,0,3.484-.884c.7.208,1.222.182,1.456-.052l-2.626-2.21a34.948,34.948,0,0,1-9.646,3.692l.1.39c1.586-.078,3.224-.26,4.81-.494v4.68h-5.46l.208.728h5.252v4.914H505.57L503.126-9V2.184h.338c.988,0,1.976-.494,1.976-.728V.156h6.11V1.872h.416a3.377,3.377,0,0,0,2.028-.728V-6.812a1.756,1.756,0,0,0,1.04-.52l-2.522-1.924-1.222,1.3h-1.638V-12.87h5.46c.364,0,.624-.1.7-.39-.936-.936-2.522-2.262-2.522-2.262Z" transform="translate(523 3011)" fill="#c65b97"/><path d="M12.92-7.6c0,4.84,2.74,7.68,5.56,9.42l.32-.38A11.237,11.237,0,0,1,14.58-7.6a11.237,11.237,0,0,1,4.22-9.04l-.32-.38C15.66-15.28,12.92-12.44,12.92-7.6Zm12.36-.1c0-2.3,0-4.26.02-6.22h1.74c2.26,0,3.3,1.08,3.3,3a3.046,3.046,0,0,1-3.4,3.22ZM32.56-.88,31.62-4.3c-.44-1.76-1.16-2.62-2.88-2.92,2.7-.46,3.9-2,3.9-3.7,0-2.4-1.92-3.82-5.28-3.82h-6.4v.72l1.98.22c.04,1.96.04,3.96.04,5.92v1.02c0,2,0,3.98-.04,5.92l-1.98.22V0h6.36V-.72L25.3-.94c-.02-1.94-.02-3.9-.02-5.96H26.4c1.78,0,2.42.52,2.82,2.24l.84,3.34C30.3-.18,30.98.24,32.48.24A5.814,5.814,0,0,0,34.3,0V-.72Zm4.96-5.24c.16-2.74,1.46-3.92,2.76-3.92a2.4,2.4,0,0,1,2.3,2.62c0,.84-.22,1.3-1.14,1.3Zm6.98.78a4.173,4.173,0,0,0,.14-1.22,4.01,4.01,0,0,0-4.22-4.26,5.261,5.261,0,0,0-5.2,5.58C35.22-1.72,37.36.3,40.38.3a4.5,4.5,0,0,0,4.2-2.54l-.4-.28A3.6,3.6,0,0,1,41.12-.98c-2.06,0-3.56-1.38-3.62-4.36Zm8.1,3.16C51.48-1.28,50.98-1,50.26-1a1.538,1.538,0,0,1-1.7-1.7c0-1,.46-1.88,2.22-2.58.42-.16,1.1-.38,1.82-.58Zm3.78.86c-.34.4-.56.56-.92.56-.46,0-.76-.32-.76-1.32V-7c0-2.74-1.1-3.82-3.54-3.82-2.46,0-4.08,1.06-4.42,2.78a.959.959,0,0,0,1.06.88c.62,0,1.04-.4,1.2-1.24l.34-1.48a4.375,4.375,0,0,1,1.18-.16c1.5,0,2.08.58,2.08,2.72v.82c-.84.2-1.72.46-2.4.66-2.92,1-3.76,1.98-3.76,3.46A2.616,2.616,0,0,0,49.32.3c1.4,0,2.18-.6,3.34-1.78A1.955,1.955,0,0,0,54.7.26,2.063,2.063,0,0,0,56.72-.96Zm8.96-.62A2.9,2.9,0,0,1,63.08-.88c-1.74,0-3.04-1.26-3.04-4.38,0-3.2,1.42-4.4,3.08-4.4a3.359,3.359,0,0,1,2.22.98ZM67.46-.8V-13l.1-3.12-.3-.16-3.64.86v.62l1.8.16v5.22a3.557,3.557,0,0,0-2.9-1.4c-2.72,0-4.76,2.16-4.76,5.64,0,3.3,1.9,5.48,4.54,5.48a3.858,3.858,0,0,0,3.1-1.5L65.54.22,69.14,0V-.64ZM73-13.24a1.405,1.405,0,0,0,1.46-1.4A1.389,1.389,0,0,0,73-16.02a1.4,1.4,0,0,0-1.48,1.38A1.411,1.411,0,0,0,73-13.24ZM74.16-.86c-.02-1.12-.04-2.72-.04-3.78V-7.62l.04-2.98-.28-.2L70.22-9.66v.62l1.7.16c.04.96.06,1.72.06,2.96v1.28c0,1.04-.02,2.64-.04,3.78l-1.56.22V0H75.6V-.64Zm13.5,0c-.02-1.12-.04-2.68-.04-3.78V-6.9c0-2.76-1.04-3.92-2.9-3.92a5.329,5.329,0,0,0-3.9,2.02l-.16-1.8-.3-.2L76.98-9.62v.6l1.68.16c.04.92.08,1.68.08,2.94v1.28c0,1.04-.02,2.64-.06,3.78l-1.56.22V0h5.22V-.64L80.9-.86c-.02-1.12-.04-2.72-.04-3.78V-8.02a4.439,4.439,0,0,1,2.9-1.42c1.18,0,1.74.64,1.74,2.52v2.28c0,1.1-.02,2.66-.04,3.78L83.9-.64V0h5.22V-.64Zm7.36-3.4c-1.3,0-2.08-1.16-2.08-2.92,0-1.78.82-2.94,2.14-2.94,1.34,0,2.12,1.14,2.12,2.88C97.2-5.46,96.4-4.26,95.02-4.26ZM96.86.4c1.5,0,2.06.78,2.06,1.72,0,1.26-1.32,2.24-3.86,2.24-1.76,0-2.92-.72-2.92-2.18A2.623,2.623,0,0,1,92.94.3,7.454,7.454,0,0,0,94.4.4Zm4-11-.36-.22L98-9.94a4.5,4.5,0,0,0-2.92-.88c-2.52,0-4.12,1.38-4.12,3.62a3.332,3.332,0,0,0,1.7,3.1c-1.12,1-1.54,1.72-1.54,2.5A1.728,1.728,0,0,0,92.54.14c-1.48.68-2.1,1.44-2.1,2.38,0,1.54,1.36,2.72,4.62,2.72,3.74,0,5.64-1.86,5.64-3.84,0-1.78-1.12-2.84-3.68-2.84H94.08c-1.12,0-1.46-.4-1.46-1.06a2.088,2.088,0,0,1,.54-1.38,5.045,5.045,0,0,0,1.9.32c2.5,0,4.12-1.42,4.12-3.64a3.59,3.59,0,0,0-.64-2.16l2.32.12Zm11.6,9.52a3.229,3.229,0,0,1-3.38-3.32,3.8,3.8,0,0,1,1.8-3.26c.68.8,1.32,1.56,2.32,2.78.78.86,1.52,1.72,2.38,2.68A4.693,4.693,0,0,1,112.46-1.08Zm.04-13.2a1.834,1.834,0,0,1,1.86,2.06c0,1.32-.86,2.32-2.12,3.28-.24-.28-.48-.56-.74-.88a3.543,3.543,0,0,1-.96-2.44A1.941,1.941,0,0,1,112.5-14.28Zm8.92,5.56v-.72H116.9v.72l1.82.24a14.1,14.1,0,0,1-1.74,4.74c-.84-.9-1.62-1.76-2.56-2.78-.76-.84-1.3-1.44-1.76-1.94,2.22-1.12,3.28-2.22,3.28-3.76,0-1.66-1.2-2.84-3.42-2.84-2.14,0-3.68,1.24-3.68,3.24a5.084,5.084,0,0,0,1.42,3.42l.22.26c-2.32,1.12-3.42,2.58-3.42,4.44,0,2.2,1.78,4,4.6,4a5.559,5.559,0,0,0,4.38-1.98c.28.32.58.64.9.98a3.428,3.428,0,0,0,2.66.96,7.1,7.1,0,0,0,1.72-.22l.04-.68-1.6-.18c-.9-.92-1.64-1.7-2.32-2.42a13.944,13.944,0,0,0,2.32-5.22Zm27.08-6.02h-4.9v.72l2.02.28L142.78-3.08l-3.26-10.68,2.22-.26v-.72h-6v.72l2.1.26-3.3,10.64-2.8-10.66,1.98-.24v-.72h-6.1v.72l1.7.2L133.34.12h1.14L138-11.46,141.7.12h1.16l3.78-13.88,1.86-.26Zm3.52,4.14-.3-.2-3.38,1.18v.6l1.68.16c.04.92.08,1.68.08,2.94v1.28c0,1.04-.02,2.64-.06,3.78l-1.54.22V0h5.62V-.64l-1.86-.28c-.02-1.12-.04-2.68-.04-3.72V-6.32a5.51,5.51,0,0,1,1.88-3.02l.26.26a1.987,1.987,0,0,0,1.46.78c.88,0,1.26-.6,1.28-1.52a1.646,1.646,0,0,0-1.68-1c-1.24,0-2.54,1.08-3.2,2.96Zm8.6-2.64a1.405,1.405,0,0,0,1.46-1.4,1.389,1.389,0,0,0-1.46-1.38,1.4,1.4,0,0,0-1.48,1.38A1.411,1.411,0,0,0,160.62-13.24ZM161.78-.86c-.02-1.12-.04-2.72-.04-3.78V-7.62l.04-2.98-.28-.2-3.66,1.14v.62l1.7.16c.04.96.06,1.72.06,2.96v1.28c0,1.04-.02,2.64-.04,3.78L158-.64V0h5.22V-.64Zm9.08-.54a2.354,2.354,0,0,1-1.46.62c-.8,0-1.3-.48-1.3-1.62V-9.62h2.84v-.9h-2.82l.1-3.1h-1.44l-.68,3.06-1.94.22v.72h1.82v5.28c0,.82-.02,1.34-.02,1.94A2.362,2.362,0,0,0,168.58.3a3.087,3.087,0,0,0,2.68-1.26Zm3.9-11.84a1.405,1.405,0,0,0,1.46-1.4,1.389,1.389,0,0,0-1.46-1.38,1.4,1.4,0,0,0-1.48,1.38A1.411,1.411,0,0,0,174.76-13.24ZM175.92-.86c-.02-1.12-.04-2.72-.04-3.78V-7.62l.04-2.98-.28-.2-3.66,1.14v.62l1.7.16c.04.96.06,1.72.06,2.96v1.28c0,1.04-.02,2.64-.04,3.78l-1.56.22V0h5.22V-.64Zm13.5,0c-.02-1.12-.04-2.68-.04-3.78V-6.9c0-2.76-1.04-3.92-2.9-3.92a5.329,5.329,0,0,0-3.9,2.02l-.16-1.8-.3-.2-3.38,1.18v.6l1.68.16c.04.92.08,1.68.08,2.94v1.28c0,1.04-.02,2.64-.06,3.78l-1.56.22V0h5.22V-.64l-1.44-.22c-.02-1.12-.04-2.72-.04-3.78V-8.02a4.439,4.439,0,0,1,2.9-1.42c1.18,0,1.74.64,1.74,2.52v2.28c0,1.1-.02,2.66-.04,3.78l-1.56.22V0h5.22V-.64Zm7.36-3.4c-1.3,0-2.08-1.16-2.08-2.92,0-1.78.82-2.94,2.14-2.94,1.34,0,2.12,1.14,2.12,2.88C198.96-5.46,198.16-4.26,196.78-4.26ZM198.62.4c1.5,0,2.06.78,2.06,1.72,0,1.26-1.32,2.24-3.86,2.24-1.76,0-2.92-.72-2.92-2.18A2.623,2.623,0,0,1,194.7.3a7.454,7.454,0,0,0,1.46.1Zm4-11-.36-.22-2.5.88a4.5,4.5,0,0,0-2.92-.88c-2.52,0-4.12,1.38-4.12,3.62a3.332,3.332,0,0,0,1.7,3.1c-1.12,1-1.54,1.72-1.54,2.5A1.728,1.728,0,0,0,194.3.14c-1.48.68-2.1,1.44-2.1,2.38,0,1.54,1.36,2.72,4.62,2.72,3.74,0,5.64-1.86,5.64-3.84,0-1.78-1.12-2.84-3.68-2.84h-2.94c-1.12,0-1.46-.4-1.46-1.06a2.088,2.088,0,0,1,.54-1.38,5.045,5.045,0,0,0,1.9.32c2.5,0,4.12-1.42,4.12-3.64a3.59,3.59,0,0,0-.64-2.16l2.32.12Zm1.66-6.04A11.237,11.237,0,0,1,208.5-7.6a11.237,11.237,0,0,1-4.22,9.04l.32.38c2.82-1.74,5.56-4.58,5.56-9.42s-2.74-7.68-5.56-9.42Z" transform="translate(213 3078)" fill="#333"/><path d="M20.94,9.16v2.1h.3c.8,0,1.56-.26,1.56-.44V9.16h4.44v2.02h.3c.88,0,1.58-.28,1.58-.46V9.16H33.8c.3,0,.5-.1.54-.32-.72-.72-1.98-1.7-1.98-1.7l-1.1,1.44H29.12V6.92c.52-.08.68-.28.72-.54l-2.6-.24V8.58H22.8V6.92c.5-.08.66-.28.7-.54l-2.56-.24V8.58H15.82l.14.58Zm4.9,4.56h3.42v4.1H25.54a12.916,12.916,0,0,0,.3-2.8Zm-5.12,4.1v-4.1h3.26V15a11.838,11.838,0,0,1-.3,2.82Zm13.18.58c.3,0,.5-.1.56-.32-.72-.7-1.94-1.72-1.94-1.72l-1.06,1.46h-.32V13.9a1.237,1.237,0,0,0,.92-.38l-2.14-1.5-.88,1.12h-3.2V11c.5-.08.66-.26.7-.54l-2.56-.26v2.94H20.94l-2.02-.8v5.48H15.8l.18.58h7.54c-.78,2.5-2.84,4.58-7.62,5.98l.1.32c6.02-1.16,8.48-3.46,9.38-6.3h.38c1.22,3.56,3.58,5.3,7.26,6.32a2.157,2.157,0,0,1,1.5-1.74v-.22c-3.7-.5-6.86-1.66-8.34-4.36ZM42.2,8.12a.455.455,0,0,0,.5-.32c-.64-.6-1.74-1.48-1.74-1.48L40,7.54H36.48l.14.58Zm-1.22,1.96H35.74l.16.56h7.26c.28,0,.48-.1.54-.32-.68-.6-1.76-1.48-1.76-1.48Zm-4.5,2.58.14.56h5.64c.28,0,.48-.1.52-.3-.6-.6-1.64-1.44-1.64-1.44l-.92,1.18Zm5.78,3.16c.28,0,.48-.1.52-.32-.6-.6-1.64-1.44-1.64-1.44l-.92,1.18H36.48l.14.58ZM38.2,22.5V18.48h2.48V22.5Zm2.3-4.6H38.3l-1.8-.78V24.7h.24c.72,0,1.46-.38,1.46-.54V23.08h2.48v1.1h.28a2.166,2.166,0,0,0,1.42-.54V18.72a1.153,1.153,0,0,0,.8-.36l-1.82-1.4Zm5.86,4.6V18.24h4.7V22.5Zm4.5-4.84h-4.4l-1.9-.78v7.8h.26c.76,0,1.54-.4,1.54-.58V23.06h4.7v1.46h.3c.64,0,1.56-.4,1.56-.56v-5.4a1.474,1.474,0,0,0,.8-.4l-1.94-1.5Zm-.52-6.18v3.78H47.28c.2-1.04.44-2.42.68-3.78Zm2,3.78h-.28V11.74a1.418,1.418,0,0,0,.8-.38L51.02,9.98l-.88.92h-2.1c.16-.94.3-1.86.42-2.64h4.8c.3,0,.48-.1.52-.32-.7-.66-1.92-1.6-1.92-1.6L50.8,7.68H43.7l.16.58H46.7c-.12.78-.26,1.7-.42,2.64H44.06l.18.58H46.2c-.24,1.36-.48,2.74-.7,3.78H43.12l.16.58h10.9c.28,0,.46-.1.52-.32-.54-.66-1.5-1.66-1.5-1.66Zm6.34-4.58a4.752,4.752,0,0,0,.18,1.24c.22.66,1.16,1.68,1.78,1.68a12.867,12.867,0,0,0,1.66-.54,67.249,67.249,0,0,1,6.7-.84c.16,0,.22.08.2.24-.06,1.12-.5,4.04-.86,6.3-2.34.2-7.16.74-8.02.74a2.622,2.622,0,0,1-1.86-1.08l-.3.16a3.559,3.559,0,0,0,.28,1.32,2.874,2.874,0,0,0,1.96,1.56,12.258,12.258,0,0,0,1.88-.5,26.191,26.191,0,0,1,5.08-.6c1.58,0,2.58.24,3.24.24.62,0,.88-.18.88-.58a1.538,1.538,0,0,0-1.36-1.3c.44-2.04.88-4.16,1.14-5.18.16-.64.76-.88.76-1.4,0-.7-1.8-1.86-2.44-1.86-.48,0-.64.5-1.42.6-1.16.16-6.52.72-7.56.72-.7,0-1.04-.52-1.58-1.04ZM87.74,9.5a19.073,19.073,0,0,0-6.32-1.1l-.08.38a16.526,16.526,0,0,1,5.62,2.62c.7.54.96.82,1.54.82a.866.866,0,0,0,.82-.86C89.32,10.64,88.94,10.06,87.74,9.5Zm-7.26,4.14a23.12,23.12,0,0,1,5,2.42c.68.46,1.02.7,1.46.7a.834.834,0,0,0,.86-.88c0-.76-.6-1.24-1.46-1.62a16,16,0,0,0-5.76-1Zm-.66,5.56a20.724,20.724,0,0,1,6.86,3.24c.76.6,1.34,1.08,1.9,1.08.76,0,1.02-.42,1.02-.96,0-.56-.52-1.2-1.38-1.72a20.038,20.038,0,0,0-8.3-2.04Zm20.58-5.46a2.4,2.4,0,0,0,.18,1c.28.6,1.02,1.3,1.54,1.3a3.684,3.684,0,0,0,1.04-.34,17.261,17.261,0,0,1,2.86-.7c.14,0,.22.04.2.18-.06.6-.5,3.2-.88,4.98-2.3.22-4.94.48-5.58.48a2.038,2.038,0,0,1-1.46-.7l-.22.08a2.665,2.665,0,0,0,.18,1.02c.2.46,1.06,1.34,1.64,1.34a9.532,9.532,0,0,0,1.68-.48,24.166,24.166,0,0,1,5.24-.58,31.369,31.369,0,0,1,4.06.52.656.656,0,0,0,.68-.7c0-.62-1.46-1.44-2.24-1.44a9.657,9.657,0,0,1-1.28.24c-.3.02-.64.04-1.04.08.42-1.46.94-3.44,1.16-4.16.12-.42.7-.62.7-1.08,0-.54-1.7-1.44-2.18-1.44-.3,0-.64.44-.94.52a30.777,30.777,0,0,1-3.76.5,2.4,2.4,0,0,1-1.38-.7Zm29.76-1.96c0-.66-1.4-1.16-2.34-1.16-.36,0-.68.4-1.98.66a27.434,27.434,0,0,1-4.22.5,3.105,3.105,0,0,1-2.08-1.02l-.28.18a5.693,5.693,0,0,0,.54,1.34,2.479,2.479,0,0,0,1.62,1.16c.86,0,5.04-.56,7.92-.84A.819.819,0,0,0,130.16,11.78Zm-13.6,7.54c.24.54,1.3,1.7,2.02,1.7a11.586,11.586,0,0,0,1.96-.54,32.937,32.937,0,0,1,7.14-.82,29.91,29.91,0,0,1,4.94.62.74.74,0,0,0,.8-.78c0-.76-1.82-1.82-2.76-1.82a11.93,11.93,0,0,1-1.58.32c-3.3.18-9.54.9-10.66.9a2.384,2.384,0,0,1-1.76-.96l-.34.14A2.829,2.829,0,0,0,116.56,19.32ZM140.98,7.46c.64.6.9.94.9,1.4,0,1.56-2.56,5.7-5.44,8.2l.32.34a18.055,18.055,0,0,0,4.9-4.26,2.089,2.089,0,0,0,1.12.66,10.613,10.613,0,0,0,1.32-.22l.9-.14a1.282,1.282,0,0,1,.48,1.02c0,1.96-2.64,6.44-6.64,9.04l.28.36a15.674,15.674,0,0,0,8.14-8.14c.18-.46.62-.66.62-1.1,0-.38-.64-.94-1.56-1.36,1-.12,2.02-.24,2.66-.28.96-.06,2.14-.02,2.84-.02s.86-.32.86-.7c0-.7-1.2-1.22-2.02-1.22-.38,0-.62.36-1.54.52-1.08.18-5.14.8-6.18.8a3.73,3.73,0,0,1-.64-.08,22.451,22.451,0,0,0,1.32-2.06c.3-.48.74-.62.74-1.02,0-.5-.82-1.2-1.46-1.54a5.62,5.62,0,0,0-1.74-.48Zm15.56,6.76a3.123,3.123,0,0,0,.1,1.36c.34.84,1.44,2,2.14,2,.68,0,.94-.38,2.26-.52,1.52-.18,6.48-.48,7.88-.48,1.34,0,2.04.06,2.8.06s1.14-.26,1.14-.74c0-.72-1-1.24-2-1.24-.5,0-1.26.16-2.6.26-1.1.08-7.54.5-9.52.5-.98,0-1.32-.58-1.84-1.32Zm25.16-3.78c1.06.92,1.44,1.7,2.22,1.7a.856.856,0,0,0,.82-.9c0-1.02-.92-1.68-2.3-2.18a18.039,18.039,0,0,0-2.7-.58l-.16.38A15.194,15.194,0,0,1,181.7,10.44Zm-2.06,10.52c-.74,0-1.38-.74-1.86-1.26l-.3.16a3.907,3.907,0,0,0,.48,1.7,4.163,4.163,0,0,0,2.58,1.68c.62,0,.86-.6,1.4-.94,4.4-2.5,8.8-6.34,10.9-10.4l-.4-.24C188.96,16.14,181.54,20.96,179.64,20.96Zm-.38-6.36c.98.8,1.34,1.62,2.14,1.62a.834.834,0,0,0,.86-.9c0-1.04-1.1-1.8-2.44-2.2a21.9,21.9,0,0,0-2.68-.6l-.16.4A11.942,11.942,0,0,1,179.26,14.6Zm19.8-1.46a3.648,3.648,0,0,0,.1.9c.12.46.86,1.38,1.4,1.38a11.354,11.354,0,0,0,1.32-.38,31.406,31.406,0,0,1,4.86-.58c.1,0,.16.04.16.18-.04.38-.12,1.2-.22,2.14-1.88.14-5.2.52-5.88.52a1.941,1.941,0,0,1-1.18-.58l-.2.12a2.3,2.3,0,0,0,.2.92c.22.46.88,1.14,1.32,1.14.32,0,.58-.22,1.1-.32.98-.16,2.84-.4,4.5-.52-.1.96-.2,1.94-.3,2.7-1.76.14-5.02.48-5.98.48a1.76,1.76,0,0,1-1.26-.72l-.2.12a2.753,2.753,0,0,0,.16.94c.18.46.94,1.36,1.5,1.36a8.318,8.318,0,0,0,1.26-.32,22.9,22.9,0,0,1,4.08-.46c.84,0,1.9.22,2.3.22a.63.63,0,0,0,.66-.66c0-.3-.48-.72-.98-.94.32-1.76.74-4.18.92-5.24.08-.54.68-.7.68-1.12,0-.6-1.62-1.68-2.16-1.68-.4,0-.58.4-1.12.48-.86.12-4.58.52-5.66.52a1.736,1.736,0,0,1-1.14-.68Zm18.5-3.66a13.389,13.389,0,0,1,3.4,3.28c.52.68.86.98,1.38.98a1.03,1.03,0,0,0,1.04-1.08c0-1.86-3.06-3.1-5.6-3.56Zm2.1,10.96c-.7,0-1.38-.7-1.9-1.26l-.3.18a4.307,4.307,0,0,0,.42,1.6,4.024,4.024,0,0,0,2.72,1.8c.52,0,.76-.58,1.3-.92,4.52-2.82,8.2-6.2,10.52-10.54l-.4-.26C229.16,15.06,221.54,20.44,219.66,20.44ZM92.28,36.58A2.17,2.17,0,1,0,90.1,34.4,2.155,2.155,0,0,0,92.28,36.58Zm0-3.58a1.41,1.41,0,1,1-1.42,1.4A1.408,1.408,0,0,1,92.28,33ZM77.76,35.7l-.34.14a4.754,4.754,0,0,0,.16,1.28c.2.64,1.22,1.8,2,1.8.42,0,.9-.38,1.4-.5a64.527,64.527,0,0,1,7.22-1.16c.18,0,.28.06.22.28-1.1,4.52-4.94,9.16-10.52,12.02l.26.42A19.585,19.585,0,0,0,90.3,39.14c.3-.66.98-.86.98-1.44,0-.64-1.84-2.2-2.62-2.2-.46,0-.54.32-1.22.46-1.02.22-6.64.82-8.04.82A2.237,2.237,0,0,1,77.76,35.7Zm23.28,9.56c-.06-1.8-.16-5.42-.22-6.88a2.2,2.2,0,0,0,.92.32c.38,0,1-.2,1.64-.28,1.08-.14,3.8-.36,4.94-.36a.245.245,0,0,1,.28.28,57.59,57.59,0,0,1-.82,6.42C105.88,44.86,102.98,45.1,101.04,45.26ZM97.5,36.64a3.006,3.006,0,0,1,1.18,1.74,40.078,40.078,0,0,1,.58,5.92c.02.78-.06,1.74-.06,2.22,0,.86.52,1.6,1.08,1.6.6,0,.8-.4.8-.96v-.58c2.26-.14,4.76-.28,6.3-.28,1.04,0,2.1.14,2.68.14a.7.7,0,0,0,.78-.76c0-.5-.6-.86-1.28-.96.4-1.9.82-4.06,1.06-5.08.14-.64.86-.84.86-1.38,0-.68-1.8-2.12-2.44-2.12-.48,0-.62.58-1.42.68-.82.1-4.94.5-6.94.64a.269.269,0,0,0-.12-.14,4.292,4.292,0,0,0-2.86-.98Zm26.7.4c.26-.36.5-.74.72-1.1.32-.52.58-.66.58-1.04,0-.46-1.32-1.2-2.42-1.3a4.614,4.614,0,0,0-1.32.04l-.08.32c.68.32,1.18.72,1.18,1.1,0,1.22-2.78,5.24-5.96,7.72l.28.38a18.391,18.391,0,0,0,6.34-5.2,1.728,1.728,0,0,0,.9.48,4.458,4.458,0,0,0,1.12-.26,18.053,18.053,0,0,1,2.76-.5c.2,0,.3.1.2.36-1.62,4.08-6.3,9.18-11.4,11.88l.26.42A24.711,24.711,0,0,0,130.48,38.9c.32-.56,1.04-.74,1.04-1.24,0-.68-1.7-1.66-2.24-1.66-.4,0-.66.44-1.2.58a23.905,23.905,0,0,1-3.72.46Zm5.16-3.08a8.578,8.578,0,0,1,1.82,1.92c.38.5.62.84.92.84a.609.609,0,0,0,.64-.64,1.568,1.568,0,0,0-.64-1.16,6.728,6.728,0,0,0-2.52-1.26Zm1.74-1.28a8.752,8.752,0,0,1,1.84,1.74c.42.5.62.88,1,.88a.548.548,0,0,0,.58-.62,1.506,1.506,0,0,0-.74-1.24,8.015,8.015,0,0,0-2.46-1.06Zm7.14,7c.2.58,1.14,1.62,1.84,1.62.44,0,.78-.36,1.38-.52a67.09,67.09,0,0,1,6.8-1.16c.24-.02.32.08.24.32a18.862,18.862,0,0,1-9.16,9.7l.24.42a17.564,17.564,0,0,0,10.7-8.82c.36-.68,1.22-.96,1.22-1.42,0-.68-1.5-1.9-2.24-1.9-.4,0-.62.38-1.3.48-1.46.24-6.84.94-8.04.94-.7,0-1.06-.42-1.56-1.04l-.34.16A4,4,0,0,0,138.24,39.68Zm11-4.92c0-.66-.78-1.02-1.92-1.02-.36,0-.62.3-1.72.56a12.434,12.434,0,0,1-3.38.54,3.505,3.505,0,0,1-2.1-.68l-.24.22c.7,1.28,1.32,1.94,2.46,1.94a33.845,33.845,0,0,0,6.04-.82C149.02,35.36,149.24,35.12,149.24,34.76Zm17.08,6.8A12.787,12.787,0,0,1,168.86,45c-2.04.3-5.56.72-7.98.96,1.48-2.44,3.38-6.04,4.34-7.88.3-.56.9-.82.9-1.24,0-.56-1.12-1.6-2.14-1.94a6.054,6.054,0,0,0-1.4-.2l-.12.32c.66.54.98.96.98,1.44,0,1.08-2.48,6.84-3.96,9.62-.56.06-.96.08-1.14.08a2.4,2.4,0,0,1-1.28-.6l-.26.12a3.225,3.225,0,0,0-.02.88c.1.76,1.16,2.02,1.92,2.02.38,0,.9-.58,1.32-.68,1.62-.42,6.4-1.24,9.26-1.92.72,1.88.66,2.78,1.56,2.78a1.159,1.159,0,0,0,1.12-1.3c0-2.42-2.68-4.96-5.34-6.22Z" transform="translate(1140 3036)" fill="#333"/><path d="M12.92-7.6c0,4.84,2.74,7.68,5.56,9.42l.32-.38A11.237,11.237,0,0,1,14.58-7.6a11.237,11.237,0,0,1,4.22-9.04l-.32-.38C15.66-15.28,12.92-12.44,12.92-7.6ZM30.96-4.2,30.18-.88H25.32c-.02-1.98-.02-3.94-.02-5.66V-7.96c0-1.92,0-3.88.02-5.84l2.06-.22v-.72H20.96v.72l1.98.22c.04,1.96.04,3.94.04,5.92v1.22c0,1.82,0,3.76-.04,5.72l-1.96.22L20.96,0H31.98l.1-4.2Zm5.42-9.04a1.405,1.405,0,0,0,1.46-1.4,1.389,1.389,0,0,0-1.46-1.38,1.4,1.4,0,0,0-1.48,1.38A1.411,1.411,0,0,0,36.38-13.24ZM37.54-.86c-.02-1.12-.04-2.72-.04-3.78V-7.62l.04-2.98-.28-.2L33.6-9.66v.62l1.7.16c.04.96.06,1.72.06,2.96v1.28c0,1.04-.02,2.64-.04,3.78l-1.56.22V0h5.22V-.64Zm7.18-5.62c-1.52-.5-2.04-.98-2.04-1.92,0-.98.76-1.62,2.12-1.62a3.43,3.43,0,0,1,1.58.4l.5,1.98h1l.08-2.28a5.784,5.784,0,0,0-3.18-.9c-2.56,0-4,1.42-4,3.2,0,1.54,1.06,2.42,2.72,3.02l1.06.36c1.5.5,2.06,1.06,2.06,1.96,0,1.08-.84,1.74-2.52,1.74a4.555,4.555,0,0,1-1.78-.34l-.5-2.16h-1.1V-.58A6.953,6.953,0,0,0,44.18.3c2.86,0,4.38-1.42,4.38-3.26,0-1.46-.84-2.48-2.98-3.2ZM56.32-1.4a2.354,2.354,0,0,1-1.46.62c-.8,0-1.3-.48-1.3-1.62V-9.62H56.4v-.9H53.58l.1-3.1H52.24l-.68,3.06-1.94.22v.72h1.82v5.28c0,.82-.02,1.34-.02,1.94A2.362,2.362,0,0,0,54.04.3,3.087,3.087,0,0,0,56.72-.96ZM60-6.12c.16-2.74,1.46-3.92,2.76-3.92a2.4,2.4,0,0,1,2.3,2.62c0,.84-.22,1.3-1.14,1.3Zm6.98.78a4.172,4.172,0,0,0,.14-1.22,4.01,4.01,0,0,0-4.22-4.26,5.261,5.261,0,0,0-5.2,5.58C57.7-1.72,59.84.3,62.86.3a4.5,4.5,0,0,0,4.2-2.54l-.4-.28A3.6,3.6,0,0,1,63.6-.98c-2.06,0-3.56-1.38-3.62-4.36ZM79.44-.86c-.02-1.12-.04-2.68-.04-3.78V-6.9c0-2.76-1.04-3.92-2.9-3.92A5.329,5.329,0,0,0,72.6-8.8l-.16-1.8-.3-.2L68.76-9.62v.6l1.68.16c.04.92.08,1.68.08,2.94v1.28c0,1.04-.02,2.64-.06,3.78L68.9-.64V0h5.22V-.64L72.68-.86c-.02-1.12-.04-2.72-.04-3.78V-8.02a4.439,4.439,0,0,1,2.9-1.42c1.18,0,1.74.64,1.74,2.52v2.28c0,1.1-.02,2.66-.04,3.78l-1.56.22V0H80.9V-.64Zm5.5-12.38a1.405,1.405,0,0,0,1.46-1.4,1.389,1.389,0,0,0-1.46-1.38,1.4,1.4,0,0,0-1.48,1.38A1.411,1.411,0,0,0,84.94-13.24ZM86.1-.86c-.02-1.12-.04-2.72-.04-3.78V-7.62l.04-2.98-.28-.2L82.16-9.66v.62l1.7.16c.04.96.06,1.72.06,2.96v1.28c0,1.04-.02,2.64-.04,3.78l-1.56.22V0h5.22V-.64Zm13.5,0c-.02-1.12-.04-2.68-.04-3.78V-6.9c0-2.76-1.04-3.92-2.9-3.92a5.329,5.329,0,0,0-3.9,2.02l-.16-1.8-.3-.2L88.92-9.62v.6l1.68.16c.04.92.08,1.68.08,2.94v1.28c0,1.04-.02,2.64-.06,3.78l-1.56.22V0h5.22V-.64L92.84-.86c-.02-1.12-.04-2.72-.04-3.78V-8.02a4.439,4.439,0,0,1,2.9-1.42c1.18,0,1.74.64,1.74,2.52v2.28c0,1.1-.02,2.66-.04,3.78l-1.56.22V0h5.22V-.64Zm7.36-3.4c-1.3,0-2.08-1.16-2.08-2.92,0-1.78.82-2.94,2.14-2.94,1.34,0,2.12,1.14,2.12,2.88C109.14-5.46,108.34-4.26,106.96-4.26ZM108.8.4c1.5,0,2.06.78,2.06,1.72,0,1.26-1.32,2.24-3.86,2.24-1.76,0-2.92-.72-2.92-2.18a2.623,2.623,0,0,1,.8-1.88,7.454,7.454,0,0,0,1.46.1Zm4-11-.36-.22-2.5.88a4.5,4.5,0,0,0-2.92-.88c-2.52,0-4.12,1.38-4.12,3.62a3.332,3.332,0,0,0,1.7,3.1c-1.12,1-1.54,1.72-1.54,2.5A1.728,1.728,0,0,0,104.48.14c-1.48.68-2.1,1.44-2.1,2.38,0,1.54,1.36,2.72,4.62,2.72,3.74,0,5.64-1.86,5.64-3.84,0-1.78-1.12-2.84-3.68-2.84h-2.94c-1.12,0-1.46-.4-1.46-1.06a2.088,2.088,0,0,1,.54-1.38,5.045,5.045,0,0,0,1.9.32c2.5,0,4.12-1.42,4.12-3.64a3.59,3.59,0,0,0-.64-2.16l2.32.12Zm11.6,9.52a3.229,3.229,0,0,1-3.38-3.32,3.8,3.8,0,0,1,1.8-3.26c.68.8,1.32,1.56,2.32,2.78.78.86,1.52,1.72,2.38,2.68A4.693,4.693,0,0,1,124.4-1.08Zm.04-13.2a1.834,1.834,0,0,1,1.86,2.06c0,1.32-.86,2.32-2.12,3.28-.24-.28-.48-.56-.74-.88a3.543,3.543,0,0,1-.96-2.44A1.941,1.941,0,0,1,124.44-14.28Zm8.92,5.56v-.72h-4.52v.72l1.82.24a14.1,14.1,0,0,1-1.74,4.74c-.84-.9-1.62-1.76-2.56-2.78-.76-.84-1.3-1.44-1.76-1.94,2.22-1.12,3.28-2.22,3.28-3.76,0-1.66-1.2-2.84-3.42-2.84-2.14,0-3.68,1.24-3.68,3.24A5.084,5.084,0,0,0,122.2-8.4l.22.26C120.1-7.02,119-5.56,119-3.7c0,2.2,1.78,4,4.6,4a5.559,5.559,0,0,0,4.38-1.98c.28.32.58.64.9.98a3.428,3.428,0,0,0,2.66.96,7.1,7.1,0,0,0,1.72-.22l.04-.68-1.6-.18c-.9-.92-1.64-1.7-2.32-2.42a13.944,13.944,0,0,0,2.32-5.22ZM145-8.82c-1.54-.62-2.4-1.42-2.4-2.82,0-1.66,1.24-2.52,3.02-2.52a3.355,3.355,0,0,1,1.68.38l.68,2.8h1.12l.12-2.96a6.072,6.072,0,0,0-3.68-1.16c-2.88,0-5.02,1.48-5.02,4.08,0,2.22,1.46,3.5,3.84,4.5l.86.38c1.9.74,2.64,1.46,2.64,2.86,0,1.74-1.34,2.7-3.42,2.7a4.542,4.542,0,0,1-2.26-.5L141.5-4h-1.1l-.12,3.18A8.6,8.6,0,0,0,144.62.36c3.24,0,5.34-1.66,5.34-4.24,0-2.1-1.1-3.34-4.06-4.54Zm10.2.24a3.525,3.525,0,0,1,2.44-1.1c1.68,0,2.8,1.44,2.8,4.46,0,3.14-1.28,4.34-2.96,4.34a3.256,3.256,0,0,1-2.28-.94Zm-.24-2.02-.28-.2L151.3-9.62v.6l1.68.16c.06.92.08,1.7.08,2.96V.48c0,1.22-.02,2.56-.06,3.88l-1.62.24v.64h5.7V4.6l-1.9-.26c-.02-1.34-.04-2.7-.04-3.88v-1.6A3.7,3.7,0,0,0,158.12.3c2.6,0,4.6-2.16,4.6-5.62s-1.84-5.5-4.24-5.5a4.468,4.468,0,0,0-3.38,1.6Zm11.88,4.48c.16-2.74,1.46-3.92,2.76-3.92a2.4,2.4,0,0,1,2.3,2.62c0,.84-.22,1.3-1.14,1.3Zm6.98.78a4.173,4.173,0,0,0,.14-1.22,4.01,4.01,0,0,0-4.22-4.26,5.261,5.261,0,0,0-5.2,5.58c0,3.52,2.14,5.54,5.16,5.54a4.5,4.5,0,0,0,4.2-2.54l-.4-.28a3.6,3.6,0,0,1-3.06,1.54c-2.06,0-3.56-1.38-3.62-4.36Zm8.1,3.16C180.8-1.28,180.3-1,179.58-1a1.538,1.538,0,0,1-1.7-1.7c0-1,.46-1.88,2.22-2.58.42-.16,1.1-.38,1.82-.58Zm3.78.86c-.34.4-.56.56-.92.56-.46,0-.76-.32-.76-1.32V-7c0-2.74-1.1-3.82-3.54-3.82-2.46,0-4.08,1.06-4.42,2.78a.959.959,0,0,0,1.06.88c.62,0,1.04-.4,1.2-1.24l.34-1.48a4.375,4.375,0,0,1,1.18-.16c1.5,0,2.08.58,2.08,2.72v.82c-.84.2-1.72.46-2.4.66-2.92,1-3.76,1.98-3.76,3.46A2.616,2.616,0,0,0,178.64.3c1.4,0,2.18-.6,3.34-1.78A1.955,1.955,0,0,0,184.02.26a2.063,2.063,0,0,0,2.02-1.22Zm11.48.48-3.72-6.3,2.5-2.44L198-9.84v-.68h-5.1v.68l1.82.34-4.08,4.1v-7.58l.08-3.14-.3-.16-3.62.86v.62l1.72.16v10c0,1.14-.02,2.6-.04,3.78l-1.66.22V0h5.46V-.64l-1.6-.22c-.02-1.08-.04-2.4-.04-3.52l1.32-1.3L195.24,0h3.32V-.64ZM202-13.24a1.405,1.405,0,0,0,1.46-1.4A1.389,1.389,0,0,0,202-16.02a1.4,1.4,0,0,0-1.48,1.38A1.411,1.411,0,0,0,202-13.24ZM203.16-.86c-.02-1.12-.04-2.72-.04-3.78V-7.62l.04-2.98-.28-.2-3.66,1.14v.62l1.7.16c.04.96.06,1.72.06,2.96v1.28c0,1.04-.02,2.64-.04,3.78l-1.56.22V0h5.22V-.64Zm13.5,0c-.02-1.12-.04-2.68-.04-3.78V-6.9c0-2.76-1.04-3.92-2.9-3.92a5.329,5.329,0,0,0-3.9,2.02l-.16-1.8-.3-.2-3.38,1.18v.6l1.68.16c.04.92.08,1.68.08,2.94v1.28c0,1.04-.02,2.64-.06,3.78l-1.56.22V0h5.22V-.64L209.9-.86c-.02-1.12-.04-2.72-.04-3.78V-8.02a4.439,4.439,0,0,1,2.9-1.42c1.18,0,1.74.64,1.74,2.52v2.28c0,1.1-.02,2.66-.04,3.78l-1.56.22V0h5.22V-.64Zm7.36-3.4c-1.3,0-2.08-1.16-2.08-2.92,0-1.78.82-2.94,2.14-2.94,1.34,0,2.12,1.14,2.12,2.88C226.2-5.46,225.4-4.26,224.02-4.26ZM225.86.4c1.5,0,2.06.78,2.06,1.72,0,1.26-1.32,2.24-3.86,2.24-1.76,0-2.92-.72-2.92-2.18a2.623,2.623,0,0,1,.8-1.88,7.454,7.454,0,0,0,1.46.1Zm4-11-.36-.22-2.5.88a4.5,4.5,0,0,0-2.92-.88c-2.52,0-4.12,1.38-4.12,3.62a3.332,3.332,0,0,0,1.7,3.1c-1.12,1-1.54,1.72-1.54,2.5A1.728,1.728,0,0,0,221.54.14c-1.48.68-2.1,1.44-2.1,2.38,0,1.54,1.36,2.72,4.62,2.72,3.74,0,5.64-1.86,5.64-3.84,0-1.78-1.12-2.84-3.68-2.84h-2.94c-1.12,0-1.46-.4-1.46-1.06a2.088,2.088,0,0,1,.54-1.38,5.045,5.045,0,0,0,1.9.32c2.5,0,4.12-1.42,4.12-3.64a3.59,3.59,0,0,0-.64-2.16l2.32.12Zm1.66-6.04a11.237,11.237,0,0,1,4.22,9.04,11.237,11.237,0,0,1-4.22,9.04l.32.38c2.82-1.74,5.56-4.58,5.56-9.42s-2.74-7.68-5.56-9.42Z" transform="translate(657 3049)" fill="#333"/><path d="M7.633,5.867l.922.922L5.594,9.75l2.961,2.969-.922.945L4.664,10.7,1.7,13.664l-.945-.945L3.719,9.75.758,6.789,1.7,5.867,4.664,8.828ZM9.328,8.9v1.633h-1.7V8.9Zm-7.336,0v1.633H.289V8.9ZM3.8,5.352H5.438v1.7H3.8Zm0,7.336H5.438v1.7H3.8ZM18.912,5.856H17.856a8.278,8.278,0,0,1-1.44-.08V6.72a10.713,10.713,0,0,1,1.44-.08h3.232a9.82,9.82,0,0,1,1.408.08V5.776a7.852,7.852,0,0,1-1.424.08h-1.28V4.432h.848a10.808,10.808,0,0,1,1.392.064V3.584a11.893,11.893,0,0,1-1.392.08h-.848a5.461,5.461,0,0,1,.08-1.2h-1.04a5.83,5.83,0,0,1,.08,1.2H18.24a12.775,12.775,0,0,1-1.44-.08V4.5a11.864,11.864,0,0,1,1.424-.064h.688ZM16.08,2.1h6.784v9.36c0,.368-.1.464-.528.464a12.94,12.94,0,0,1-1.792-.128,2.736,2.736,0,0,1,.208.992c.448.016.928.032,1.376.032,1.312,0,1.7-.256,1.7-1.168V2.688a12.1,12.1,0,0,1,.064-1.52,12.034,12.034,0,0,1-1.552.064H16.56a12.559,12.559,0,0,1-1.536-.064,13.4,13.4,0,0,1,.1,1.824,52.974,52.974,0,0,1-.192,5.68,9.233,9.233,0,0,1-.848,3.392,2.966,2.966,0,0,1,.88.608,10.316,10.316,0,0,0,.816-2.912,52.378,52.378,0,0,0,.3-6.9ZM10.528,1.68a15.247,15.247,0,0,1,2.5,2.912l.816-.72A20.4,20.4,0,0,0,11.264,1.04Zm7.408,10.064v-.8h2.752a9.36,9.36,0,0,1,1.024.048,6.488,6.488,0,0,1-.048-.864v-1.6c0-.352.016-.608.048-.96a9.864,9.864,0,0,1-1.12.048H18.1a10.546,10.546,0,0,1-1.072-.048c.032.368.048.656.048,1.024v1.984a7.183,7.183,0,0,1-.064,1.168Zm0-3.344h2.88v1.744h-2.88Zm-7.728-.288a6.346,6.346,0,0,1,1.184-.08h1.056v3.856a10.72,10.72,0,0,1-2.56,1.936l.56,1.008c.336-.288.352-.288.576-.464A17.5,17.5,0,0,0,12.9,12.7a3.885,3.885,0,0,0,1.68,1.52c.944.448,1.872.56,4.608.56,1.888,0,3.632-.032,5.36-.112a3.868,3.868,0,0,1,.368-1.152,53.724,53.724,0,0,1-6.96.32c-1.936,0-2.9-.224-3.744-.9a2.338,2.338,0,0,1-.768-1.04V8.752a11.94,11.94,0,0,1,.08-1.7,7.593,7.593,0,0,1-1.232.08h-.832a6.566,6.566,0,0,1-1.248-.08ZM29.5,14.3a3.515,3.515,0,0,1-2.879-1.09,4.045,4.045,0,0,1-.895-2.652H27.2a3.643,3.643,0,0,0,.406,1.578,2.137,2.137,0,0,0,1.977.883,2.591,2.591,0,0,0,1.781-.594,1.95,1.95,0,0,0,.672-1.531,1.783,1.783,0,0,0-.707-1.617,3.578,3.578,0,0,0-1.965-.461q-.141,0-.285,0t-.293.012V7.594q.219.023.367.031t.32.008a2.936,2.936,0,0,0,1.3-.25,1.589,1.589,0,0,0,.891-1.562,1.526,1.526,0,0,0-.594-1.289,2.215,2.215,0,0,0-1.383-.453,2.05,2.05,0,0,0-1.945.938A3.25,3.25,0,0,0,27.4,6.484H26.008a4.22,4.22,0,0,1,.5-2.125A3.153,3.153,0,0,1,29.531,2.8a4.1,4.1,0,0,1,2.648.762,2.678,2.678,0,0,1,.938,2.207,2.463,2.463,0,0,1-.555,1.672,2.33,2.33,0,0,1-.891.625A2.427,2.427,0,0,1,33.051,9a2.825,2.825,0,0,1,.5,1.691A3.447,3.447,0,0,1,32.492,13.3,4.16,4.16,0,0,1,29.5,14.3ZM44,3.536v2.08H41.874a10.619,10.619,0,0,1-1.616-.1V6.592a11.693,11.693,0,0,1,1.616-.1h4.5V8.368h-4.5a10.193,10.193,0,0,1-1.616-.1v1.1a11.943,11.943,0,0,1,1.6-.1H46.37v4.4c0,.352-.112.416-.72.416a11.614,11.614,0,0,1-1.824-.192,2.847,2.847,0,0,1,.256,1.056c.928.048,1.184.064,1.44.064,1.488,0,1.84-.24,1.84-1.264V9.28h.5a10.653,10.653,0,0,1,1.568.1v-1.1a9.788,9.788,0,0,1-1.568.1h-.5V6.5h.528a10.27,10.27,0,0,1,1.552.1V5.52a10.475,10.475,0,0,1-1.616.1H44.994V3.536h2.272a13.2,13.2,0,0,1,1.52.08V2.56a9.671,9.671,0,0,1-1.52.1H44.994V2.144a7.792,7.792,0,0,1,.1-1.3H43.906a8.215,8.215,0,0,1,.1,1.3v.512h-1.7a9.394,9.394,0,0,1-1.52-.1V3.616a13.945,13.945,0,0,1,1.536-.08ZM35.794,12.3a12.794,12.794,0,0,1-.1,1.7h1.04V12.688h2.1v.8h.992c-.032-.352-.048-.768-.048-1.536V3.184a11.854,11.854,0,0,1,.048-1.568,13.75,13.75,0,0,1-1.44.048H37.2a14.354,14.354,0,0,1-1.472-.048,13.245,13.245,0,0,1,.064,1.536Zm.944-9.744h2.1V6.528h-2.1Zm0,4.832h2.1v4.4h-2.1Zm7.68,5.12a17.217,17.217,0,0,0-2.3-2.608l-.784.56a14.521,14.521,0,0,1,2.224,2.688Zm8.368-6.32h2.928c.64,0,1.184.016,1.616.048-.032-.4-.048-.848-.048-1.488V2.768c0-.592.016-1.072.048-1.52a14.039,14.039,0,0,1-1.632.064H53.41a14.81,14.81,0,0,1-1.68-.064c.048.512.064.976.064,1.76V13.344a11.959,11.959,0,0,1-.1,1.792h1.184a11.527,11.527,0,0,1-.1-1.792Zm0-4.1H56.37v1.28H52.786Zm0,2.032H56.37v1.3H52.786Zm11.888-1.12a15.139,15.139,0,0,1,.08-1.76,14.81,14.81,0,0,1-1.68.064h-2.64A13.864,13.864,0,0,1,58.8,1.248c.032.48.048.96.048,1.52V4.752c0,.592-.016,1.072-.048,1.488.432-.032.944-.048,1.616-.048H63.7V13.52c0,.384-.128.464-.784.464a17.4,17.4,0,0,1-1.76-.16,3.672,3.672,0,0,1,.288,1.024c.4.032,1.264.064,1.6.064,1.3,0,1.632-.272,1.632-1.328ZM59.762,2.1H63.7v1.28H59.762Zm0,2.032H63.7v1.3H59.762ZM61.186,8.96c0-.64.016-1.056.048-1.5a14.174,14.174,0,0,1-1.584.064H56.722a14.358,14.358,0,0,1-1.584-.064c.032.464.048.928.048,1.5v3.552a9.869,9.869,0,0,1-.08,1.5H56.1V12.9h3.5c.656,0,1.184.016,1.632.048-.032-.416-.048-.848-.048-1.456ZM56.1,8.32h4.176V9.744H56.1Zm0,2.224h4.176V12.1H56.1ZM75.106,3.392a4.6,4.6,0,0,1,1.856.4,4.218,4.218,0,0,1,2.544,4.016,4.83,4.83,0,0,1-2.832,4.48A9.591,9.591,0,0,1,74,13.04a2.542,2.542,0,0,1,.56,1.072,12.378,12.378,0,0,0,2.432-.736,5.826,5.826,0,0,0,3.664-5.52,5.356,5.356,0,0,0-1.552-3.9,6.194,6.194,0,0,0-4.4-1.584A6.683,6.683,0,0,0,69.538,4.5a6.656,6.656,0,0,0-1.68,4.416c0,2.24,1.136,3.9,2.656,3.9,1.152,0,2.1-.96,3.024-3.072A23.984,23.984,0,0,0,75.106,3.392Zm-1.152.016A21.976,21.976,0,0,1,72.5,9.328c-.688,1.568-1.328,2.32-2,2.32-.864,0-1.536-1.184-1.536-2.72A5.533,5.533,0,0,1,71.57,4.16,5.053,5.053,0,0,1,73.954,3.408Zm21.7,6.72a14.857,14.857,0,0,1,1.808.1V9.136a9.4,9.4,0,0,1-1.744.1h-.448V7.024a8.7,8.7,0,0,1,.08-1.472,12.856,12.856,0,0,1-1.552.064H90.546a7.483,7.483,0,0,1,.1-1.44H89.458a7.16,7.16,0,0,1,.1,1.44h-2.96a12.687,12.687,0,0,1-1.552-.064,9.032,9.032,0,0,1,.08,1.488V9.232h-.368a10.893,10.893,0,0,1-1.712-.1v1.088a14.764,14.764,0,0,1,1.792-.1H89.01a5.215,5.215,0,0,1-1.872,2.5,8.618,8.618,0,0,1-4.1,1.472,3.985,3.985,0,0,1,.56,1.04A9.881,9.881,0,0,0,87.474,13.6a6.492,6.492,0,0,0,2.432-3.088c1.312,2.272,3.456,3.712,6.928,4.656a3.073,3.073,0,0,1,.592-1.04,13.018,13.018,0,0,1-4.432-1.7,6.318,6.318,0,0,1-2.24-2.3Zm-9.52-.9V6.5h3.408a19.264,19.264,0,0,1-.272,2.736Zm4.128,0A21.227,21.227,0,0,0,90.53,6.5h3.728V9.232ZM87.17,2.3H84.914a12.461,12.461,0,0,1-1.776-.1V3.3a13.224,13.224,0,0,1,1.776-.08H87.17v.512a7.262,7.262,0,0,1-.064,1.04h1.12a6.661,6.661,0,0,1-.064-1.056v-.5H91.97v.512a6.576,6.576,0,0,1-.064,1.04h1.12a7.062,7.062,0,0,1-.064-1.056v-.5h2.464a13.906,13.906,0,0,1,1.808.08V2.208a12.974,12.974,0,0,1-1.808.1H92.962v-.32a6.4,6.4,0,0,1,.1-1.136H91.89a9.038,9.038,0,0,1,.08,1.136V2.3H88.162v-.32a6.4,6.4,0,0,1,.1-1.136H87.074a6.529,6.529,0,0,1,.1,1.136ZM104.322,9.7a24.121,24.121,0,0,1-2.032,3.856c-1.44.1-1.44.1-1.7.1a7.406,7.406,0,0,1-.816-.048l.192,1.216a19.2,19.2,0,0,1,2.7-.288c2.5-.192,4.912-.448,7.76-.832.336.416.544.688,1.168,1.568l.88-.656a34.6,34.6,0,0,0-3.872-4.224l-.832.512c.7.656.992.944,1.952,1.984-2.368.288-4.032.448-6.24.592a24.067,24.067,0,0,0,2-3.776h5.744a13.892,13.892,0,0,1,1.824.1V8.64a13.558,13.558,0,0,1-1.824.1h-9.856a13.724,13.724,0,0,1-1.824-.1V9.792a13.724,13.724,0,0,1,1.824-.1ZM105.65.768a11.767,11.767,0,0,1-2.544,2.848,16.786,16.786,0,0,1-4.24,2.608,3.211,3.211,0,0,1,.672.912,17.576,17.576,0,0,0,4.32-2.816,13.847,13.847,0,0,0,2.4-2.624,13.285,13.285,0,0,0,2.56,2.736,21.981,21.981,0,0,0,4.448,2.784,3.388,3.388,0,0,1,.624-1.024,17.282,17.282,0,0,1-4.416-2.56A10.759,10.759,0,0,1,106.786.768ZM102.4,6.784a9.2,9.2,0,0,1,1.248-.064h5.184a9.849,9.849,0,0,1,1.344.064V5.712a9.7,9.7,0,0,1-1.344.064h-5.168a8.446,8.446,0,0,1-1.264-.064Zm22.064-1.248h-1.68a10.441,10.441,0,0,1-1.792-.1V6.528a10.911,10.911,0,0,1,1.776-.1h1.7V9.168h-1.792a7.927,7.927,0,0,1-1.136-.064,11.123,11.123,0,0,1,.064,1.344V13.52a9.2,9.2,0,0,1-.08,1.552h1.088v-.8h4.96v.8h1.088a13.087,13.087,0,0,1-.08-1.568V10.528a10.579,10.579,0,0,1,.064-1.424,8.173,8.173,0,0,1-1.2.064h-1.968V6.432h2.112a12.074,12.074,0,0,1,1.712.1V5.44a11.616,11.616,0,0,1-1.712.1h-2.112V2.576c.672-.16,2.352-.624,2.928-.832.016,0,.192-.048.512-.144l-.688-.912a8.5,8.5,0,0,1-1.792.688A24.85,24.85,0,0,1,120.9,2.3a3.715,3.715,0,0,1,.432.928c1.488-.16,1.936-.224,3.136-.448Zm-1.856,4.512h4.96v3.328h-4.96Zm-6.88-7.76a9.1,9.1,0,0,1,1.232-.064h2.224a8.949,8.949,0,0,1,1.232.064V1.28a6.691,6.691,0,0,1-1.232.08h-2.224a6.587,6.587,0,0,1-1.232-.08ZM115.186,4.5a9.563,9.563,0,0,1,1.28-.064h3.1a7.086,7.086,0,0,1,1.152.064V3.472a6.531,6.531,0,0,1-1.28.08h-2.976a6.942,6.942,0,0,1-1.28-.08Zm.624,2.176a7.88,7.88,0,0,1,1.152-.064h2.368a8.22,8.22,0,0,1,1.136.064V5.68a7.117,7.117,0,0,1-1.136.064h-2.368a7.606,7.606,0,0,1-1.152-.064Zm0,2.208a7.472,7.472,0,0,1,1.152-.064h2.368a7.786,7.786,0,0,1,1.136.064V7.888a6.866,6.866,0,0,1-1.136.064h-2.368a7.213,7.213,0,0,1-1.152-.064Zm1.1,5.408h2.544v.656h.992a8.758,8.758,0,0,1-.08-1.312V11.36a12.367,12.367,0,0,1,.048-1.248,6.628,6.628,0,0,1-1.168.048h-2.064a10.979,10.979,0,0,1-1.3-.064,8.1,8.1,0,0,1,.08,1.328v2.192a10.041,10.041,0,0,1-.1,1.536h1.04Zm-.016-3.3h2.56v2.464H116.9Zm22.208-7.6a4.6,4.6,0,0,1,1.856.4,4.218,4.218,0,0,1,2.544,4.016,4.83,4.83,0,0,1-2.832,4.48A9.591,9.591,0,0,1,138,13.04a2.542,2.542,0,0,1,.56,1.072,12.378,12.378,0,0,0,2.432-.736,5.826,5.826,0,0,0,3.664-5.52,5.356,5.356,0,0,0-1.552-3.9,6.194,6.194,0,0,0-4.4-1.584A6.683,6.683,0,0,0,133.538,4.5a6.656,6.656,0,0,0-1.68,4.416c0,2.24,1.136,3.9,2.656,3.9,1.152,0,2.1-.96,3.024-3.072A23.984,23.984,0,0,0,139.106,3.392Zm-1.152.016a21.976,21.976,0,0,1-1.456,5.92c-.688,1.568-1.328,2.32-2,2.32-.864,0-1.536-1.184-1.536-2.72A5.533,5.533,0,0,1,135.57,4.16,5.053,5.053,0,0,1,137.954,3.408ZM159.346,8a4.743,4.743,0,0,1-.992.064h-4.4a6.754,6.754,0,0,1-1.232-.1V8.992a6.513,6.513,0,0,1,.656-.064,9.824,9.824,0,0,0,2.256,3.232,12.5,12.5,0,0,1-4.816,2.1,3.46,3.46,0,0,1,.624.944,13.5,13.5,0,0,0,4.928-2.4,13.2,13.2,0,0,0,4.864,2.48,3.821,3.821,0,0,1,.576-1.024,11.48,11.48,0,0,1-4.688-2.064,12.733,12.733,0,0,0,2.56-3.152,2.087,2.087,0,0,1,.24-.368Zm-.784.928a9.273,9.273,0,0,1-2.192,2.656,9.191,9.191,0,0,1-2.016-2.656Zm-9.7-5.024h-.72a5.91,5.91,0,0,1-1.136-.08v1.04a8.684,8.684,0,0,1,1.136-.064h.72V8.32a11.334,11.334,0,0,1-2.048.7l.3,1.056c.256-.128.5-.24.656-.3.128-.048.224-.1.3-.128.32-.144.512-.224.56-.256a1.94,1.94,0,0,0,.224-.08V13.7c0,.384-.08.448-.56.448a6.648,6.648,0,0,1-1.072-.1,3.1,3.1,0,0,1,.24.992h.4l.368.016c1.264,0,1.616-.24,1.616-1.12V8.88c.88-.416.9-.416,1.36-.656l-.048-.944c-.656.336-.864.432-1.312.624V4.8h.608a6.677,6.677,0,0,1,1.008.064V3.84a5.913,5.913,0,0,1-.96.064h-.656V2.352a9.27,9.27,0,0,1,.112-1.6h-1.216a9.668,9.668,0,0,1,.112,1.632ZM159.09,5.648a18.182,18.182,0,0,0,1.568-2.8l-.928-.432a11.268,11.268,0,0,1-1.664,3.232h-5.2a10.644,10.644,0,0,1-1.28-.048,7.289,7.289,0,0,1,.048.88V7.488a7.289,7.289,0,0,1-.048.88h1.008V6.5h7.76V8.448h1.04a5.565,5.565,0,0,1-.064-.912V6.56a5.536,5.536,0,0,1,.048-.976,11.248,11.248,0,0,1-1.472.064Zm.96-4.88c-1.168.528-5.376,1.072-8.4,1.072a3.14,3.14,0,0,1,.416.928,45.206,45.206,0,0,0,8.112-.992c.3-.064.3-.064.656-.144Zm-5.808,4.368a11.341,11.341,0,0,0-1.04-2.16l-.832.32A10.554,10.554,0,0,1,153.378,5.5Zm2.864-.08a10.628,10.628,0,0,0-.912-2.272l-.88.3a9.6,9.6,0,0,1,.9,2.288Zm12.56,1.776V8H166.5a12.192,12.192,0,0,1-1.712-.08V8.9a12.191,12.191,0,0,1,1.712-.08h3.168v1.232h-4.592a12.208,12.208,0,0,1-1.808-.1v1.04a15.044,15.044,0,0,1,1.808-.1h3.92a12.133,12.133,0,0,1-5.936,2.832,3.333,3.333,0,0,1,.656.928,12.721,12.721,0,0,0,6.016-3.44c-.048.624-.064.976-.064,1.344v1.056a10.572,10.572,0,0,1-.1,1.68h1.152a12.117,12.117,0,0,1-.1-1.664V12.56c0-.352-.016-.64-.064-1.36a10.482,10.482,0,0,0,2.544,1.952,17.153,17.153,0,0,0,3.92,1.5,3.719,3.719,0,0,1,.624-.992A12.644,12.644,0,0,1,171.3,10.9h4.192a15.234,15.234,0,0,1,1.808.1V9.952a12.017,12.017,0,0,1-1.824.1h-4.848V8.816h3.36a12.446,12.446,0,0,1,1.728.08V7.92a12.03,12.03,0,0,1-1.728.08h-3.36V6.832h4.352a12.587,12.587,0,0,1,1.728.08V5.92a12.03,12.03,0,0,1-1.728.08h-2.272a18.229,18.229,0,0,0,.864-1.808h1.888a17.063,17.063,0,0,1,1.808.08V3.248a12.408,12.408,0,0,1-1.792.1h-.96a15.908,15.908,0,0,0,1.2-1.792l-.976-.416a10.281,10.281,0,0,1-1.264,2.208h-1.536V2.112a7.487,7.487,0,0,1,.1-1.344h-1.088A9.3,9.3,0,0,1,171.01,2.1V3.344h-1.7V2.1a9.016,9.016,0,0,1,.064-1.328H168.29a7.738,7.738,0,0,1,.1,1.344V3.344h-1.344a9.5,9.5,0,0,0-1.424-2.128l-.912.432a8.4,8.4,0,0,1,1.312,1.7h-1.1a12.461,12.461,0,0,1-1.776-.1V4.272a17.063,17.063,0,0,1,1.808-.08h2.016A9.645,9.645,0,0,1,167.81,6h-2.32a11.646,11.646,0,0,1-1.712-.08v.992a12.473,12.473,0,0,1,1.712-.08ZM168.786,6a13.152,13.152,0,0,0-.752-1.808h4.448A8.216,8.216,0,0,1,171.666,6Zm18.32-2.608a4.6,4.6,0,0,1,1.856.4,4.218,4.218,0,0,1,2.544,4.016,4.83,4.83,0,0,1-2.832,4.48A9.591,9.591,0,0,1,186,13.04a2.542,2.542,0,0,1,.56,1.072,12.378,12.378,0,0,0,2.432-.736,5.826,5.826,0,0,0,3.664-5.52,5.356,5.356,0,0,0-1.552-3.9,6.194,6.194,0,0,0-4.4-1.584A6.683,6.683,0,0,0,181.538,4.5a6.656,6.656,0,0,0-1.68,4.416c0,2.24,1.136,3.9,2.656,3.9,1.152,0,2.1-.96,3.024-3.072A23.984,23.984,0,0,0,187.106,3.392Zm-1.152.016a21.976,21.976,0,0,1-1.456,5.92c-.688,1.568-1.328,2.32-2,2.32-.864,0-1.536-1.184-1.536-2.72A5.533,5.533,0,0,1,183.57,4.16,5.053,5.053,0,0,1,185.954,3.408Zm12.72-.928a29.128,29.128,0,0,0,6.72,1.056l.176-1.152a20.19,20.19,0,0,1-6.512-.992Zm-1.664,5.2a22.343,22.343,0,0,1,6.1-1.072,4.456,4.456,0,0,1,1.968.352A1.941,1.941,0,0,1,206.1,8.752a3.582,3.582,0,0,1-.816,2.176,3.917,3.917,0,0,1-1.376,1.136,10.157,10.157,0,0,1-4.5,1.3,4.06,4.06,0,0,1,.512,1.168,12.289,12.289,0,0,0,4.64-1.52,5.1,5.1,0,0,0,2.752-4.32,2.846,2.846,0,0,0-1.36-2.544,5.088,5.088,0,0,0-2.752-.608,26.734,26.734,0,0,0-4.88.576,12.589,12.589,0,0,1-1.616.272Zm15.136-2.928h.128c.1,0,.24,0,.448.016.928.064,1.632.1,2.656.112a24.124,24.124,0,0,1-2.144,5.216l1.152.464a3.423,3.423,0,0,1,1.344-1.024,8.713,8.713,0,0,1,3.712-.864c1.92,0,3.072.736,3.072,1.952,0,1.536-1.664,2.544-4.192,2.544a9.764,9.764,0,0,1-4-.8c.048.512.08.8.08.88v.1a1.767,1.767,0,0,1-.016.256,11.961,11.961,0,0,0,3.952.624c3.232,0,5.36-1.424,5.36-3.6,0-1.792-1.616-2.944-4.144-2.944A8.207,8.207,0,0,0,214.9,9.024l-.016-.032a21.623,21.623,0,0,0,1.6-4.112,53.471,53.471,0,0,0,5.936-.464c.336-.048.432-.048.7-.08l-.08-1.152a27.161,27.161,0,0,1-6.3.688c.16-.576.208-.768.432-1.7a8.113,8.113,0,0,1,.256-1.024l-1.28-.128a12.469,12.469,0,0,1-.512,2.864,14.627,14.627,0,0,1-3.456-.272Zm14.832,6.816a15.969,15.969,0,0,1,3.152,3.488l.9-.848a16.3,16.3,0,0,0-3.216-3.392ZM247.57,3.024a9.671,9.671,0,0,1,1.392-.1h.864v9.264A10.092,10.092,0,0,1,249.7,14h1.52a10.209,10.209,0,0,1-.128-1.808V4.416a26.25,26.25,0,0,1,.144-2.656,9.11,9.11,0,0,1-1.328.08H248.9a7.749,7.749,0,0,1-1.328-.08ZM268,3.536v2.08h-2.128a10.619,10.619,0,0,1-1.616-.1V6.592a11.693,11.693,0,0,1,1.616-.1h4.5V8.368h-4.5a10.193,10.193,0,0,1-1.616-.1v1.1a11.943,11.943,0,0,1,1.6-.1h4.512v4.4c0,.352-.112.416-.72.416a11.615,11.615,0,0,1-1.824-.192,2.846,2.846,0,0,1,.256,1.056c.928.048,1.184.064,1.44.064,1.488,0,1.84-.24,1.84-1.264V9.28h.5a10.653,10.653,0,0,1,1.568.1v-1.1a9.788,9.788,0,0,1-1.568.1h-.5V6.5h.528a10.271,10.271,0,0,1,1.552.1V5.52a10.475,10.475,0,0,1-1.616.1h-2.832V3.536h2.272a13.205,13.205,0,0,1,1.52.08V2.56a9.671,9.671,0,0,1-1.52.1h-2.272V2.144a7.793,7.793,0,0,1,.1-1.3h-1.184a8.216,8.216,0,0,1,.1,1.3v.512h-1.7a9.394,9.394,0,0,1-1.52-.1V3.616a13.945,13.945,0,0,1,1.536-.08ZM259.794,12.3a12.794,12.794,0,0,1-.1,1.7h1.04V12.688h2.1v.8h.992c-.032-.352-.048-.768-.048-1.536V3.184a11.853,11.853,0,0,1,.048-1.568,13.751,13.751,0,0,1-1.44.048H261.2a14.354,14.354,0,0,1-1.472-.048,13.245,13.245,0,0,1,.064,1.536Zm.944-9.744h2.1V6.528h-2.1Zm0,4.832h2.1v4.4h-2.1Zm7.68,5.12a17.218,17.218,0,0,0-2.3-2.608l-.784.56a14.52,14.52,0,0,1,2.224,2.688Zm8.368-6.32h2.928c.64,0,1.184.016,1.616.048-.032-.4-.048-.848-.048-1.488V2.768c0-.592.016-1.072.048-1.52a14.039,14.039,0,0,1-1.632.064H277.41a14.81,14.81,0,0,1-1.68-.064c.048.512.064.976.064,1.76V13.344a11.96,11.96,0,0,1-.1,1.792h1.184a11.523,11.523,0,0,1-.1-1.792Zm0-4.1h3.584v1.28h-3.584Zm0,2.032h3.584v1.3h-3.584Zm11.888-1.12a15.141,15.141,0,0,1,.08-1.76,14.81,14.81,0,0,1-1.68.064h-2.64a13.864,13.864,0,0,1-1.632-.064c.032.48.048.96.048,1.52V4.752c0,.592-.016,1.072-.048,1.488.432-.032.944-.048,1.616-.048h3.28V13.52c0,.384-.128.464-.784.464a17.4,17.4,0,0,1-1.76-.16,3.672,3.672,0,0,1,.288,1.024c.4.032,1.264.064,1.6.064,1.3,0,1.632-.272,1.632-1.328ZM283.762,2.1H287.7v1.28h-3.936Zm0,2.032H287.7v1.3h-3.936Zm1.424,4.832c0-.64.016-1.056.048-1.5a14.174,14.174,0,0,1-1.584.064h-2.928a14.358,14.358,0,0,1-1.584-.064c.032.464.048.928.048,1.5v3.552a9.87,9.87,0,0,1-.08,1.5h.992V12.9h3.5c.656,0,1.184.016,1.632.048-.032-.416-.048-.848-.048-1.456ZM280.1,8.32h4.176V9.744H280.1Zm0,2.224h4.176V12.1H280.1ZM297.026.784a8.738,8.738,0,0,1-.944,2.192A13.923,13.923,0,0,1,292,7.536a2.935,2.935,0,0,1,.928.768,15.892,15.892,0,0,0,3.808-4.256l5.6-.08a19.111,19.111,0,0,1-2.224,4.64,22.858,22.858,0,0,0-3.536-2.48l-.736.816a20.124,20.124,0,0,1,3.584,2.592,11.225,11.225,0,0,1-2.768,2.528,14.423,14.423,0,0,1-3.312,1.744,2.844,2.844,0,0,1,.784.992,17.846,17.846,0,0,0,5.056-3.3,18.206,18.206,0,0,0,4.176-6.88,3.591,3.591,0,0,1,.464-1.056l-.72-.72a2.772,2.772,0,0,1-.928.16c-4.72.048-4.72.048-4.944.08a8.144,8.144,0,0,0,.5-.88,5.291,5.291,0,0,1,.56-1.056ZM319.3,3.5l.592-.352a11.755,11.755,0,0,0-1.728-2.56l-.8.416a11.125,11.125,0,0,1,1.5,2.176c-.4.016-.608.016-.944.016h-7.728a11.343,11.343,0,0,1-1.808-.1v1.28a11.813,11.813,0,0,1,1.792-.1h8.144a12.966,12.966,0,0,1-2.8,5.7,12.848,12.848,0,0,1-5.856,3.632,3.166,3.166,0,0,1,.784,1.1,14.71,14.71,0,0,0,5.024-3.008,13.293,13.293,0,0,0,3.92-6.64,2.933,2.933,0,0,1,.336-.992Zm.144-3.04a11.864,11.864,0,0,1,1.648,2.512l.816-.48a13.937,13.937,0,0,0-1.68-2.464Zm6.448,1.248a8.275,8.275,0,0,1,.048.864v.592l-.032,9.168a3.071,3.071,0,0,1-.112,1.04l.64.8a4.02,4.02,0,0,1,.928-.24c4.272-.832,6.624-2.32,8.816-5.584a4.075,4.075,0,0,1-.88-1.008,9.685,9.685,0,0,1-3.6,3.84,12.08,12.08,0,0,1-4.576,1.6l.048-9.648a9.857,9.857,0,0,1,.08-1.424Zm15.344,3.84a13.2,13.2,0,0,1,1.5,3.584l1.088-.368a17.57,17.57,0,0,0-1.584-3.552Zm3.3-.672A14.037,14.037,0,0,1,346,8.384l1.056-.368a16.046,16.046,0,0,0-1.552-3.44Zm5.552-.016v.16a6.724,6.724,0,0,1-.176,1.088,12.072,12.072,0,0,1-1.36,3.44,10.269,10.269,0,0,1-5.072,4.176,3.236,3.236,0,0,1,.736.9,11.6,11.6,0,0,0,5.3-4.624,14.405,14.405,0,0,0,1.408-3.584,9.449,9.449,0,0,1,.352-1.3ZM360.354,14.5a10.883,10.883,0,0,1-.08-1.7V7.984a5.587,5.587,0,0,0-.064-.944l.032-.016a1.766,1.766,0,0,0,.5.272,32.621,32.621,0,0,1,5.968,3.168l.688-1.184a39.682,39.682,0,0,0-7.12-3.376V2.912a10.044,10.044,0,0,1,.08-1.664h-1.376a9.487,9.487,0,0,1,.1,1.632v9.936a10.291,10.291,0,0,1-.1,1.68Zm15.44-11.264a22.388,22.388,0,0,1-3.424-.176l-.016,1.1a2.837,2.837,0,0,1,.352-.016h.256c.592.016,2.1.048,2.352.048a1.772,1.772,0,0,0,.3-.032l-.144.24a15.921,15.921,0,0,1-3.584,4.576l.9.9a5.294,5.294,0,0,1,1.232-1.328,6.01,6.01,0,0,1,3.568-1.7c.752,0,1.136.384,1.264,1.264a12.421,12.421,0,0,0-2.384,1.28,3.308,3.308,0,0,0-1.632,2.528c0,1.648,1.392,2.464,4.256,2.464a24.822,24.822,0,0,0,3.888-.32,6.3,6.3,0,0,1,.64-.08l-.144-1.232a13.406,13.406,0,0,1-4.272.624c-2.256,0-3.248-.464-3.248-1.52,0-.96.832-1.712,3.008-2.736a4.206,4.206,0,0,1,.016.48,23.02,23.02,0,0,1-.1,2.3l1.088-.016a3.48,3.48,0,0,1-.032-.576c0-.144,0-.368.016-.72.016-.32.016-.672.016-.88,0-.4,0-.56-.032-.976a26.565,26.565,0,0,1,4.272-1.408l-.512-1.12a3.52,3.52,0,0,1-1.088.464c-.7.256-1.616.592-2.784,1.056a1.942,1.942,0,0,0-2.112-1.776,4.258,4.258,0,0,0-2.416.784c-.16.112-.16.112-.736.56a.123.123,0,0,1-.032-.048V7.232a.016.016,0,0,0,.016-.016c.016-.016.1-.08.208-.16.064-.048.384-.416.544-.608a11.8,11.8,0,0,0,1.44-2.272,51.662,51.662,0,0,0,5.28-.416,4.987,4.987,0,0,1,.64-.08l-.1-1.088a22.519,22.519,0,0,1-5.04.608,2.723,2.723,0,0,0-.336.016c.08-.144.288-.576.5-1.088a3.4,3.4,0,0,1,.416-.864l-1.28-.224a6.79,6.79,0,0,1-.768,2.192Zm19.392,5.984a6.1,6.1,0,0,1-.656,2.1,5.42,5.42,0,0,1-1.28-1.584l-.9.528c.112.112.128.144.256.288A10.143,10.143,0,0,0,394,12.064a8.773,8.773,0,0,1-3.872,2.176,3.439,3.439,0,0,1,.624.88,8.729,8.729,0,0,0,3.936-2.512,14.656,14.656,0,0,0,6.352,2.4,4.249,4.249,0,0,1,.5-1.056,13.009,13.009,0,0,1-6.288-2.08,6.784,6.784,0,0,0,.9-2.656h2.768a13.993,13.993,0,0,1,1.584.064A8.344,8.344,0,0,1,400.45,8V6.08q0-.672.048-1.2c-.432.032-.8.048-1.488.048h-2.592v-.56c.016-.3.016-.512.016-.576V3.328h3.472a9.869,9.869,0,0,1,1.5.08V2.336a11.446,11.446,0,0,1-1.6.1h-3.376a12.037,12.037,0,0,1,.08-1.84h-1.152a10.735,10.735,0,0,1,.1,1.84H392.5a10.488,10.488,0,0,1-1.536-.1V3.408a9.173,9.173,0,0,1,1.472-.08h3.04v.64l-.016.96h-2.624c-.784,0-1.008-.016-1.44-.048A6.9,6.9,0,0,1,391.458,6V8.192a7.806,7.806,0,0,1-.064,1.088,12.093,12.093,0,0,1,1.408-.064Zm.256-3.392c-.032,1.1-.08,1.872-.144,2.5h-2.864v-2.5Zm4.016,0v2.5h-3.2c.064-.736.1-1.408.128-2.5ZM388.642,13.3a16.481,16.481,0,0,1-.1,1.92h1.168a16.485,16.485,0,0,1-.08-1.872V4.576a24.067,24.067,0,0,0,1.088-2.8c.128-.416.176-.56.288-.88l-1.1-.288A9.305,9.305,0,0,1,389.3,2.88a14.563,14.563,0,0,1-2.688,4.672,3.279,3.279,0,0,1,.64.88,11.754,11.754,0,0,0,1.44-2.3c-.048,1.008-.048,1.12-.048,1.936Zm15.776-10.64a8.65,8.65,0,0,1,.048.944c.08,3.936.3,5.984.864,7.5.544,1.536,1.376,2.432,2.272,2.432,1.136,0,1.872-1.072,2.656-3.872a5.115,5.115,0,0,1-.944-.912,11.51,11.51,0,0,1-.832,2.736c-.24.528-.512.8-.8.8-.608,0-1.264-1.1-1.616-2.736a27.4,27.4,0,0,1-.416-4.976,11.6,11.6,0,0,1,.112-1.9Zm8.1,1.36a14.131,14.131,0,0,1,3.328,7.888l1.136-.464a15.32,15.32,0,0,0-1.2-4.272A13.888,13.888,0,0,0,413.49,3.52Zm6.464,7.552a15.968,15.968,0,0,1,3.152,3.488l.9-.848a16.3,16.3,0,0,0-3.216-3.392ZM441.426,2.3a8.23,8.23,0,0,0,.416-.944,5.843,5.843,0,0,1,.24-.624l-1.12-.224a5.09,5.09,0,0,1-.432,1.376,9.416,9.416,0,0,1-2.432,3.5,2.866,2.866,0,0,1,.784.736,13.881,13.881,0,0,0,2.08-2.912h6.3a17.425,17.425,0,0,1,2.016.064V2.208a12.185,12.185,0,0,1-2.08.1Zm5.12,10.576c-.24,1.184-.3,1.264-1.12,1.264a10.385,10.385,0,0,1-1.776-.192,2.759,2.759,0,0,1,.176,1.024c.864.064,1.392.1,1.76.1,1.312,0,1.6-.336,1.92-2.192h.288a10.138,10.138,0,0,1,1.3.064V11.888a5.384,5.384,0,0,1-1.264.1h-.176c.128-.944.208-1.76.256-2.432.016-.288.016-.288.032-.448h.176a10.9,10.9,0,0,1,1.488.1V8.112a7.123,7.123,0,0,1-1.488.1H448c.032-.5.032-.7.048-1.024a15.435,15.435,0,0,1,.144-2.416,15.6,15.6,0,0,1-1.664.064h-5.088c-.48,0-.944-.016-1.136-.032.016.272.016.432.016.464a28.556,28.556,0,0,1-.272,2.944h-.16a8.952,8.952,0,0,1-1.536-.1V9.2a7.8,7.8,0,0,1,1.472-.1h.1a23.6,23.6,0,0,1-1.12,4.672l1.088.144c.144-.528.192-.688.288-1.04Zm-2.112-4.672c.048-.608.112-1.456.192-2.512h2.512c-.016.96-.048,1.872-.08,2.512Zm-3.392,0c.128-1.088.16-1.424.24-2.512h2.4c-.064,1.3-.064,1.408-.176,2.512Zm5.952.9c-.1,1.3-.176,2-.288,2.88h-2.8c.272-1.568.272-1.568.432-2.88Zm-3.6,0a26.96,26.96,0,0,1-.432,2.88h-2.576c.32-1.552.432-2.112.528-2.88Zm-7.76-7.488a10.044,10.044,0,0,1,2.336,2.16l.736-.752a16.83,16.83,0,0,0-2.352-2.1Zm-.912,4.016A10.453,10.453,0,0,1,437.266,7.7l.688-.768a14.785,14.785,0,0,0-2.608-2.016Zm2.56,3.776a16.168,16.168,0,0,1-2.208,4.976l.912.72c.1-.192.1-.192.272-.528a27.765,27.765,0,0,0,1.856-4.5Zm16.592-2.24a11.261,11.261,0,0,1,2.32,2.112,13.552,13.552,0,0,1-4.624,4.944,3.167,3.167,0,0,1,.784.88,15.763,15.763,0,0,0,4.48-4.816,16.875,16.875,0,0,0,1.9-5.408,10.562,10.562,0,0,0,2.208,3.376V13.2a13.819,13.819,0,0,1-.112,1.952h1.232a13.37,13.37,0,0,1-.112-1.952V9.168a12.567,12.567,0,0,0,3.3,2.24,4.093,4.093,0,0,1,.672-1.008,13.778,13.778,0,0,1-3.968-2.512V2.432a10.744,10.744,0,0,1,.112-1.664h-1.232a10.889,10.889,0,0,1,.112,1.664v4.5a9.571,9.571,0,0,1-1.952-3.488c.016-.176.032-.24.064-.448-.352.032-.688.048-1.264.048h-2.5c.224-.608.3-.848.432-1.264a6.619,6.619,0,0,1,.32-.912L454.9.64a10.519,10.519,0,0,1-.512,2,13.984,13.984,0,0,1-3.264,5.424,2.773,2.773,0,0,1,.7.848,16.162,16.162,0,0,0,3.12-4.96h3.008a18.281,18.281,0,0,1-1.312,4.416,13.386,13.386,0,0,0-2.176-1.952Zm21.232-3.776a4.6,4.6,0,0,1,1.856.4,4.218,4.218,0,0,1,2.544,4.016,4.83,4.83,0,0,1-2.832,4.48A9.591,9.591,0,0,1,474,13.04a2.543,2.543,0,0,1,.56,1.072,12.378,12.378,0,0,0,2.432-.736,5.826,5.826,0,0,0,3.664-5.52,5.356,5.356,0,0,0-1.552-3.9,6.194,6.194,0,0,0-4.4-1.584A6.683,6.683,0,0,0,469.538,4.5a6.656,6.656,0,0,0-1.68,4.416c0,2.24,1.136,3.9,2.656,3.9,1.152,0,2.1-.96,3.024-3.072A23.985,23.985,0,0,0,475.106,3.392Zm-1.152.016a21.977,21.977,0,0,1-1.456,5.92c-.688,1.568-1.328,2.32-2,2.32-.864,0-1.536-1.184-1.536-2.72A5.533,5.533,0,0,1,471.57,4.16,5.053,5.053,0,0,1,473.954,3.408Zm16.784,11.424a8.307,8.307,0,0,1-.064-1.392V9.472a3.727,3.727,0,0,0-.064-.816,4.475,4.475,0,0,0,.464.24,33.207,33.207,0,0,1,5.28,2.8l.656-1.056a34.879,34.879,0,0,0-5.856-2.784,17.655,17.655,0,0,0,3.712-3.312,2.739,2.739,0,0,1,.432-.432l-.592-.7a1.7,1.7,0,0,1-.7.112h-3.36V2.048a4.971,4.971,0,0,1,.08-1.056h-1.28a6.469,6.469,0,0,1,.064,1.088V3.52H486.53a8.117,8.117,0,0,1-1.552-.112v1.2a13.374,13.374,0,0,1,1.552-.064l6.112-.032c.24,0,.5-.016.912-.048a17.924,17.924,0,0,1-5.376,3.952,21.737,21.737,0,0,1-4.624,1.648,3.36,3.36,0,0,1,.592,1.056,21.177,21.177,0,0,0,5.408-2.336.655.655,0,0,0-.016.176v4.512a8.071,8.071,0,0,1-.1,1.36ZM12.528,25.3A13.43,13.43,0,0,1,9.472,28.32a22.529,22.529,0,0,1-8.3,4.144,3.7,3.7,0,0,1,.624,1.072,25.012,25.012,0,0,0,6.176-2.8v6.08a8.339,8.339,0,0,1-.1,1.664H9.264a10.629,10.629,0,0,1-.08-1.7V29.968a28.18,28.18,0,0,0,3.744-3.216,3.622,3.622,0,0,1,.7-.672Zm16.16,5.76a14.605,14.605,0,0,1,1.84.08V29.952a11.527,11.527,0,0,1-1.856.1h-9.36a11.527,11.527,0,0,1-1.856-.1v1.184a14.605,14.605,0,0,1,1.84-.08h4.336a9.157,9.157,0,0,1-.64,3.312,6.07,6.07,0,0,1-4.048,3.152,2.8,2.8,0,0,1,.752,1.04,9.409,9.409,0,0,0,2.816-1.584,6.3,6.3,0,0,0,2.16-4.224,14.922,14.922,0,0,0,.176-1.7ZM19.072,27.2a12.869,12.869,0,0,1,1.824-.08h6.256a12.869,12.869,0,0,1,1.824.08V25.984a8.843,8.843,0,0,1-1.84.112H20.912a8.843,8.843,0,0,1-1.84-.112Zm24.08.944a5.211,5.211,0,0,1-.9,1.04,17.593,17.593,0,0,1-4.576,3.328,15.789,15.789,0,0,1-3.712,1.408,2.954,2.954,0,0,1,.56.96,18.643,18.643,0,0,0,4.912-2.208v4.752a9.188,9.188,0,0,1-.064,1.392h1.248a8.551,8.551,0,0,1-.08-1.408V32a26.741,26.741,0,0,0,3.216-2.816,2.041,2.041,0,0,1,.384-.368Zm17.424-.64.592-.352a11.754,11.754,0,0,0-1.728-2.56l-.8.416a11.126,11.126,0,0,1,1.5,2.176c-.4.016-.608.016-.944.016H51.472a11.343,11.343,0,0,1-1.808-.1v1.28a11.814,11.814,0,0,1,1.792-.1H59.6a12.966,12.966,0,0,1-2.8,5.7,12.848,12.848,0,0,1-5.856,3.632,3.166,3.166,0,0,1,.784,1.1,14.71,14.71,0,0,0,5.024-3.008,13.293,13.293,0,0,0,3.92-6.64,2.934,2.934,0,0,1,.336-.992Zm.144-3.04a11.864,11.864,0,0,1,1.648,2.512l.816-.48a13.937,13.937,0,0,0-1.68-2.464Zm7.76.976a5.353,5.353,0,0,1,.272,1.008,32.593,32.593,0,0,0,1.168,4.48,9.964,9.964,0,0,0-2.1,1.3,3.461,3.461,0,0,0-1.424,2.72,2.656,2.656,0,0,0,1.984,2.624A10.885,10.885,0,0,0,71.936,38a32.1,32.1,0,0,0,3.536-.208,8.293,8.293,0,0,1,1.184-.1l-.128-1.328a15.886,15.886,0,0,1-4.576.544c-3.136,0-4.368-.56-4.368-2.016,0-1.328,1.184-2.384,3.92-3.472a36.8,36.8,0,0,1,4.816-1.552l-.48-1.216a8.651,8.651,0,0,1-1.024.416c-2.48.864-2.928,1.04-3.872,1.424a27.828,27.828,0,0,1-1.2-5.3Zm14.752,5.824a30.2,30.2,0,0,1,6.24,6.88l.976-.816c-1.072-1.424-1.728-2.256-2.336-2.912a24.467,24.467,0,0,0,5.28-6,4.568,4.568,0,0,1,.64-.848l-.672-.8a1.954,1.954,0,0,1-.9.112H83.136a11.63,11.63,0,0,1-1.872-.1v1.264c.544-.048.992-.064,1.856-.064,8.912-.016,8.912-.016,9.136-.032-.064.1-.08.112-.128.192a23.357,23.357,0,0,1-2.64,3.472,27.905,27.905,0,0,1-2.128,1.968,34.574,34.574,0,0,0-3.248-3.024Zm14.784-3.712a17.668,17.668,0,0,1,3.808,3.136l.832-.992A20.843,20.843,0,0,0,98.8,26.688Zm.112,10.4a8.407,8.407,0,0,1,.96-.256,16.131,16.131,0,0,0,5.968-2.384,14.033,14.033,0,0,0,4.88-6.112,3.2,3.2,0,0,1-.976-.944,12.09,12.09,0,0,1-6.528,7.12,13.926,13.926,0,0,1-4.656,1.232ZM113.28,27.3a18.622,18.622,0,0,1,1.872,4.416l1.152-.368a18.836,18.836,0,0,0-1.952-4.416Zm4.1-.816a17.262,17.262,0,0,1,1.84,4.336l1.136-.416a18.955,18.955,0,0,0-1.936-4.256Zm6.9,0a7.428,7.428,0,0,1-.208,1.52,12.907,12.907,0,0,1-3.568,6.72,13.093,13.093,0,0,1-4.416,2.8,3.051,3.051,0,0,1,.864,1.024,13.878,13.878,0,0,0,7.024-6.688,16.048,16.048,0,0,0,1.344-3.984,5.742,5.742,0,0,1,.32-1.1Zm4.64,6.032a17.478,17.478,0,0,1,1.984-.064h9.28a18.3,18.3,0,0,1,1.952.064v-1.3a12.619,12.619,0,0,1-1.936.08h-9.3a11.318,11.318,0,0,1-1.984-.1Zm17.84-1.248a30.2,30.2,0,0,1,6.24,6.88l.976-.816c-1.072-1.424-1.728-2.256-2.336-2.912a24.466,24.466,0,0,0,5.28-6,4.568,4.568,0,0,1,.64-.848l-.672-.8a1.954,1.954,0,0,1-.9.112h-9.328a11.63,11.63,0,0,1-1.872-.1v1.264c.544-.048.992-.064,1.856-.064,8.912-.016,8.912-.016,9.136-.032-.064.1-.08.112-.128.192a23.356,23.356,0,0,1-2.64,3.472,27.9,27.9,0,0,1-2.128,1.968,34.571,34.571,0,0,0-3.248-3.024Zm14.784-3.712a17.668,17.668,0,0,1,3.808,3.136l.832-.992a20.843,20.843,0,0,0-3.856-3.008Zm.112,10.4a8.407,8.407,0,0,1,.96-.256,16.131,16.131,0,0,0,5.968-2.384,14.033,14.033,0,0,0,4.88-6.112,3.2,3.2,0,0,1-.976-.944,12.09,12.09,0,0,1-6.528,7.12,13.926,13.926,0,0,1-4.656,1.232Zm14.912-9.28a53.264,53.264,0,0,1,5.52-.528,32.746,32.746,0,0,0,3.52-.352,10.474,10.474,0,0,0-1.52.848,6.088,6.088,0,0,0-2.992,4.912,3.874,3.874,0,0,0,1.776,3.264,8.071,8.071,0,0,0,3.456,1.232c.288.048.32.064.5.1l.208-1.3h-.16a8.2,8.2,0,0,1-2.4-.512,3.137,3.137,0,0,1-2.24-2.96,4.89,4.89,0,0,1,1.968-3.7,7.87,7.87,0,0,1,3.072-1.6,6.711,6.711,0,0,1,1.792-.224l-.1-1.184a10.806,10.806,0,0,1-1.9.176l-.912.032c-.528.016-.736.032-2.7.144l-2.512.16c-1.968.112-2.064.128-2.96.192-.5.032-.688.048-.912.048-.112,0-.272,0-.576-.016Zm9.824,1.536a11.252,11.252,0,0,1,1.632,2.544l.816-.48a12.147,12.147,0,0,0-1.648-2.48Zm1.824-.864a12.661,12.661,0,0,1,1.632,2.512l.8-.448a12.966,12.966,0,0,0-1.648-2.5Zm16.3,5.072a10.485,10.485,0,0,1,1.5.1V33.44a9.091,9.091,0,0,1-1.488.1h-5.472A11.966,11.966,0,0,0,199.3,32h3.232a7.684,7.684,0,0,1,1.376.08V31.072a7.685,7.685,0,0,1-1.376.08H199.36c.032-.528.048-.912.064-1.424h3.36a8.441,8.441,0,0,1,1.536.1v-1.04a9.344,9.344,0,0,1-1.536.1H199.44a5.761,5.761,0,0,1,.08-1.3h-1.184a5.834,5.834,0,0,1,.1,1.3h-3.1a9.479,9.479,0,0,1-1.536-.1v1.04a9.9,9.9,0,0,1,1.536-.1h3.088c-.016.624-.016.8-.048,1.424h-2.976a7.886,7.886,0,0,1-1.392-.08V32.08a7.775,7.775,0,0,1,1.392-.08h2.9a9.393,9.393,0,0,1-.224,1.536H193.68a8.876,8.876,0,0,1-1.472-.1v1.072a10.57,10.57,0,0,1,1.488-.1h4.064a5.318,5.318,0,0,1-2.352,2.48,9.708,9.708,0,0,1-3.424,1.152,3.745,3.745,0,0,1,.592,1.008,11.034,11.034,0,0,0,3.632-1.472,6.172,6.172,0,0,0,2.512-2.992c1.536,2.32,3.5,3.6,6.9,4.5a4.135,4.135,0,0,1,.608-1.04,12.183,12.183,0,0,1-4.432-1.632,7.483,7.483,0,0,1-2.08-2Zm-6.112-8.16H194a15.781,15.781,0,0,1-1.616-.064,7.372,7.372,0,0,1,.064,1.088v.928a7.325,7.325,0,0,1-.064,1.1h1.056V27.136H204.7v2.176h1.04a7.192,7.192,0,0,1-.064-1.1v-.944a7.287,7.287,0,0,1,.064-1.072,15.648,15.648,0,0,1-1.6.064h-4.7v-.608a5.087,5.087,0,0,1,.1-.992h-1.248a4.194,4.194,0,0,1,.112.992Zm21.968,7.312a6.932,6.932,0,0,1-1.712,1.776,9.5,9.5,0,0,1-.688-2.128l2.832-.32c.544-.048,1.072-.1,1.36-.1a.861.861,0,0,1,.176.016l-.112-1.024a11.778,11.778,0,0,1-1.472.24l-2.96.32c-.08-.5-.144-.96-.24-1.712l2.368-.24c.592-.064,1.072-.1,1.392-.1h.144l-.112-.992a7.813,7.813,0,0,1-1.52.256l-2.368.24c-.08-.768-.128-1.3-.16-1.584l2.752-.272c.56-.064,1.072-.1,1.264-.1a1.658,1.658,0,0,1,.256.016l-.1-1.008a7.985,7.985,0,0,1-1.488.24l-2.752.256c-.048-.784-.08-1.488-.08-1.792a3.2,3.2,0,0,1,.064-.7h-1.152a6.16,6.16,0,0,1,.128.928c.08,1.456.08,1.456.1,1.664l-1.216.112a10.586,10.586,0,0,1-1.152.064h-.32l.1,1.008a10.985,10.985,0,0,1,1.472-.208l1.184-.112c.048.624.1,1.008.144,1.584l-1.152.112a9.678,9.678,0,0,1-1.088.08,1.987,1.987,0,0,1-.24-.016l.112.992a8.442,8.442,0,0,1,1.3-.208l1.184-.128c.064.48.192,1.3.256,1.712l-1.648.192c-.384.032-1.024.08-1.264.08a1.477,1.477,0,0,1-.24-.016l.128,1.056A9.674,9.674,0,0,1,215.3,33.5l1.728-.192a11.869,11.869,0,0,0,.864,2.608,13.967,13.967,0,0,1-5.392,2.288,3.286,3.286,0,0,1,.608.944,15.3,15.3,0,0,0,5.216-2.416c.928,1.536,1.9,2.368,2.784,2.368.832,0,1.248-.832,1.52-3.1a2.569,2.569,0,0,1-.88-.592c-.144,1.824-.384,2.64-.752,2.64-.464,0-1.248-.768-1.92-1.872a17.018,17.018,0,0,0,1.616-1.456c.24-.224.352-.32.528-.464Zm-9.7,3.392c-.5.176-.5.176-1.136.384V33.376a12.187,12.187,0,0,1,.064-1.648h-1.088a8.655,8.655,0,0,1,.112,1.664v4.24a3.648,3.648,0,0,1-.928.176l.352,1.1a5.975,5.975,0,0,1,.784-.288c1.872-.64,3.12-1.12,5.056-1.952l-.08-.96c-1.04.448-1.408.608-2.208.912V33.392h.592a5.846,5.846,0,0,1,1.04.064V32.48a5.4,5.4,0,0,1-1.04.064H211.6V30.16h.24a13.483,13.483,0,0,1,1.392.048,11.545,11.545,0,0,1-.048-1.52v-1.84a13.864,13.864,0,0,1,.064-1.568,10.259,10.259,0,0,1-1.5.08h-1.712a10.766,10.766,0,0,1-1.52-.08,14.413,14.413,0,0,1,.064,1.568v1.84a14.737,14.737,0,0,1-.064,1.536,11.768,11.768,0,0,1,1.456-.064h.7Zm-1.152-10.7h2.736V29.3H209.52Zm8.352-.7a9.259,9.259,0,0,1,2.224,1.376l.544-.736a13.442,13.442,0,0,0-2.224-1.3Zm15.264,1.712v1.264H231.1a9.962,9.962,0,0,1-1.36-.064,11.849,11.849,0,0,1,.064,1.488v2.576A11.564,11.564,0,0,1,229.744,34a11.975,11.975,0,0,1,1.5-.064h1.44a8.135,8.135,0,0,1-1.008,1.216,11.8,11.8,0,0,1-3.344,2.352,2.968,2.968,0,0,1,.64.88,13.569,13.569,0,0,0,2.16-1.536,10.227,10.227,0,0,0,2.048-2.352,13.365,13.365,0,0,0-.048,1.472v1.744a9.011,9.011,0,0,1-.1,1.472h1.04A9.151,9.151,0,0,1,234,37.7V35.952c0-.5-.032-1.008-.08-1.488a11.454,11.454,0,0,0,4.3,3.872,2.91,2.91,0,0,1,.56-.96,11,11,0,0,1-4.416-3.44h1.664a11.975,11.975,0,0,1,1.5.064,12.561,12.561,0,0,1-.048-1.568V29.984a12.525,12.525,0,0,1,.048-1.52,9.127,9.127,0,0,1-1.344.064H234V27.264h2.864a9.65,9.65,0,0,1,1.488.1V26.288a10.418,10.418,0,0,1-1.552.1H234V26.24a10.529,10.529,0,0,1,.08-1.5h-1.04a11.32,11.32,0,0,1,.1,1.5v.144H230.7a9.448,9.448,0,0,1-1.5-.1V27.36a7.445,7.445,0,0,1,1.44-.1Zm0,2.1v1.472h-2.464V29.36Zm.864,0h2.608v1.472H234Zm-.864,2.272v1.5h-2.464v-1.5Zm.864,0h2.608v1.5H234Zm-10.112,1.056a2.831,2.831,0,0,1,.624-.08c1.072-.1,1.248-.112,1.76-.16v5.216a12.036,12.036,0,0,1-.1,1.584h1.12a9.123,9.123,0,0,1-.1-1.584V32.352c.64-.1.672-.1,1.328-.208.08.3.128.464.24.944l.784-.32a15.066,15.066,0,0,0-1.2-3.088l-.688.32a8.433,8.433,0,0,1,.608,1.376c-.832.112-1.168.144-2.256.224.384-.512,1.44-2.048,1.648-2.384.832-1.408,1.264-2.144,1.328-2.208l-.928-.512a13.615,13.615,0,0,1-1.5,2.88,12.424,12.424,0,0,0-.9-1.152,17.636,17.636,0,0,0,1.184-2.064,5.616,5.616,0,0,1,.624-1.1l-.992-.48a11.57,11.57,0,0,1-1.376,3.008c-.24-.288-.352-.4-.672-.752l-.56.72a18.546,18.546,0,0,1,2.16,2.624c-.528.8-.64.976-1.024,1.488-.384.016-.48.016-.672.016a3.772,3.772,0,0,1-.608-.032Zm.7.672a14.364,14.364,0,0,1-.784,4.288l.848.384a15.928,15.928,0,0,0,.816-4.48Zm3.248.192a14.652,14.652,0,0,1,.56,3.04l.832-.288a21.4,21.4,0,0,0-.624-2.976ZM247.1,32.5c.256-.416.352-.576.64-1.136l-1.056-.224a6.061,6.061,0,0,1-.64,1.36h-2.16c-.784,0-1.2-.016-1.744-.064a16.608,16.608,0,0,1,.064,1.776v3.376a10.377,10.377,0,0,1-.1,1.648H243.2v-.72h7.84v.72h1.1a10.1,10.1,0,0,1-.1-1.648V34.208a15.669,15.669,0,0,1,.064-1.776,17.241,17.241,0,0,1-1.76.064Zm-3.9.864h7.84v1.6H243.2Zm0,2.464h7.84v1.824H243.2Zm2.48-9.76v4.1c0,.4-.08.464-.56.464a9.593,9.593,0,0,1-1.728-.176,4.769,4.769,0,0,1,.224.944,11.7,11.7,0,0,0,1.456.1,2.127,2.127,0,0,0,1.184-.208c.272-.176.368-.432.368-1.04V26.672a12.524,12.524,0,0,1,.064-1.552,10.831,10.831,0,0,1-1.536.064H241.84a11,11,0,0,1-1.632-.1V26.16a8.051,8.051,0,0,1,1.52-.1ZM243.9,27.9a14.643,14.643,0,0,0-2.3-1.456l-.64.624a9.3,9.3,0,0,1,2.288,1.5Zm8.64-1.84v4.128c0,.448-.016.464-.608.464a11.049,11.049,0,0,1-1.728-.176,2.849,2.849,0,0,1,.192.96c.752.064,1.232.1,1.648.1.832,0,1.184-.128,1.376-.48.08-.176.1-.24.1-.768V26.672a12.686,12.686,0,0,1,.064-1.552,10.561,10.561,0,0,1-1.52.064h-3.248a11.153,11.153,0,0,1-1.632-.1V26.16a8.152,8.152,0,0,1,1.52-.1Zm-1.872,1.888a15.445,15.445,0,0,0-2.384-1.472l-.624.624a13.071,13.071,0,0,1,2.384,1.5Zm-5.792.3a18.172,18.172,0,0,1-4.672,2.112l.4.976a6.047,6.047,0,0,1,.56-.272,31.109,31.109,0,0,0,3.808-1.92Zm6.912.032a15.94,15.94,0,0,1-4.464,1.744l.368,1.008c.224-.112.352-.16.672-.288a33.152,33.152,0,0,0,3.488-1.552Zm8.8-1.056a22.387,22.387,0,0,1-3.424-.176l-.016,1.1a2.837,2.837,0,0,1,.352-.016h.256c.592.016,2.1.048,2.352.048a1.772,1.772,0,0,0,.3-.032l-.144.24a15.921,15.921,0,0,1-3.584,4.576l.9.9a5.3,5.3,0,0,1,1.232-1.328,6.011,6.011,0,0,1,3.568-1.7c.752,0,1.136.384,1.264,1.264a12.42,12.42,0,0,0-2.384,1.28,3.308,3.308,0,0,0-1.632,2.528c0,1.648,1.392,2.464,4.256,2.464a24.822,24.822,0,0,0,3.888-.32,6.3,6.3,0,0,1,.64-.08l-.144-1.232a13.406,13.406,0,0,1-4.272.624c-2.256,0-3.248-.464-3.248-1.52,0-.96.832-1.712,3.008-2.736a4.2,4.2,0,0,1,.016.48,23.008,23.008,0,0,1-.1,2.3l1.088-.016a3.477,3.477,0,0,1-.032-.576c0-.144,0-.368.016-.72.016-.32.016-.672.016-.88,0-.4,0-.56-.032-.976a26.565,26.565,0,0,1,4.272-1.408l-.512-1.12a3.521,3.521,0,0,1-1.088.464c-.7.256-1.616.592-2.784,1.056a1.942,1.942,0,0,0-2.112-1.776,4.258,4.258,0,0,0-2.416.784c-.16.112-.16.112-.736.56a.123.123,0,0,1-.032-.048v-.016a.016.016,0,0,0,.016-.016,2.624,2.624,0,0,1,.208-.16c.064-.048.384-.416.544-.608a11.8,11.8,0,0,0,1.44-2.272,51.661,51.661,0,0,0,5.28-.416,4.988,4.988,0,0,1,.64-.08l-.1-1.088a22.519,22.519,0,0,1-5.04.608,2.724,2.724,0,0,0-.336.016c.08-.144.288-.576.5-1.088a3.4,3.4,0,0,1,.416-.864l-1.28-.224a6.79,6.79,0,0,1-.768,2.192Zm21.888,3.376v6.928c0,.32-.128.384-.672.384a16.042,16.042,0,0,1-2.256-.192,3.852,3.852,0,0,1,.256,1.1c.688.048,1.44.08,1.952.08,1.408,0,1.792-.272,1.792-1.3V30.608h.912a12.265,12.265,0,0,1,1.744.1v-1.12a11.327,11.327,0,0,1-1.76.1h-5.616a12.156,12.156,0,0,1-1.776-.1V30.7a12.308,12.308,0,0,1,1.776-.1Zm-6.96-5.92a6.258,6.258,0,0,1-1.456,1.952,11.005,11.005,0,0,1-2.112,1.7,3.093,3.093,0,0,1,.72.784,15.607,15.607,0,0,0,3.552-3.472,2.618,2.618,0,0,1,.288-.352Zm2.192,2a12.618,12.618,0,0,1,1.664-.1h4.48a12.361,12.361,0,0,1,1.648.1v-1.12a11.243,11.243,0,0,1-1.648.1h-4.48a11.334,11.334,0,0,1-1.664-.1ZM274.3,37.216a12.135,12.135,0,0,1-.112,1.952h1.264a12.005,12.005,0,0,1-.112-1.952V30.752a10.819,10.819,0,0,0,1.072-1.44,6.836,6.836,0,0,1,.48-.688l-.992-.56a5.5,5.5,0,0,1-.768,1.376,13.114,13.114,0,0,1-3.232,3.152,3.051,3.051,0,0,1,.624.912,9.235,9.235,0,0,0,1.824-1.792c-.032.768-.048,1.232-.048,1.92Zm14.912-10.56a8.65,8.65,0,0,1,.048.944c.08,3.936.3,5.984.864,7.5.544,1.536,1.376,2.432,2.272,2.432,1.136,0,1.872-1.072,2.656-3.872a5.115,5.115,0,0,1-.944-.912,11.51,11.51,0,0,1-.832,2.736c-.24.528-.512.8-.8.8-.608,0-1.264-1.1-1.616-2.736a27.4,27.4,0,0,1-.416-4.976,11.6,11.6,0,0,1,.112-1.9Zm8.1,1.36A14.131,14.131,0,0,1,300.64,35.9l1.136-.464a15.32,15.32,0,0,0-1.2-4.272,13.888,13.888,0,0,0-2.288-3.648Zm19.728,8.7a5.471,5.471,0,0,1-.544-.368,14.005,14.005,0,0,0-4.464-2.336c-.064-1.552-.064-1.552-.1-2.448,1.184-.08,2.448-.208,3.552-.384.56-.08.72-.1.928-.112l-.064-1.1a19.312,19.312,0,0,1-4.432.656c-.016-.848-.016-.848-.032-2.16a33.238,33.238,0,0,0,3.712-.384c.832-.112.832-.112,1.1-.128l-.08-1.088a22.555,22.555,0,0,1-4.736.656A17.862,17.862,0,0,1,312,25.264h-1.232a12.531,12.531,0,0,1,.08,2.3c-.528,0-1.072.016-1.392.016a19.877,19.877,0,0,1-4.1-.32l-.016,1.088a1.307,1.307,0,0,1,.224-.016,1.941,1.941,0,0,1,.288.016c1.44.112,2.736.16,3.9.16.368,0,.624,0,1.088-.016l.032,2.192c-.448.016-1.008.016-1.424.016a19.636,19.636,0,0,1-3.664-.256l-.016,1.056h.128c.1,0,.224,0,.4.016.992.08,1.744.112,2.7.112.512,0,1.312-.016,1.888-.032.016.416.016.72.032.928.016.464.016.8.032.944a1.275,1.275,0,0,0,.016.176c0,.144,0,.144.016.192a7.116,7.116,0,0,0-1.44-.128,6.97,6.97,0,0,0-1.664.16c-1.408.32-2.24,1.152-2.24,2.208a2.092,2.092,0,0,0,.864,1.68,4.168,4.168,0,0,0,2.48.64,3.221,3.221,0,0,0,2.7-1.008,2.778,2.778,0,0,0,.4-1.744,4.6,4.6,0,0,0-.032-.576c.432.176.8.336,1.072.48A12.875,12.875,0,0,1,316.4,37.84Zm-6.032-1.3a2.1,2.1,0,0,1-.32,1.44,2.312,2.312,0,0,1-1.76.528c-1.392,0-2.192-.48-2.192-1.328s1.04-1.424,2.624-1.424a5.873,5.873,0,0,1,1.632.176Zm16.88-8.08c-1.088.032-2.336.064-3.872.128-2.576.1-2.576.1-3.04.1-.24,0-.352,0-.64-.016l.048,1.168c1.072-.176,4.3-.336,7.52-.4v.832c0,.192.016.352.016.416,0,.592,0,.656.016.88a2.456,2.456,0,0,0-1.856-.72,2.662,2.662,0,0,0-2.832,2.64,2.675,2.675,0,0,0,4.64,1.664,2.241,2.241,0,0,0,.432-.784,4.144,4.144,0,0,1-1.792,3.376,8.2,8.2,0,0,1-2.592,1.2,3.513,3.513,0,0,1,.7,1.008,10.176,10.176,0,0,0,2.528-1.3,5.15,5.15,0,0,0,2.144-4.176,4.584,4.584,0,0,0-.384-1.888V28.3c1.3-.032,1.472-.032,1.712-.032a28.437,28.437,0,0,1,3.056.08V27.216c-.528.064-1.76.1-4.784.112v-.176a13.247,13.247,0,0,1,.08-2h-1.2a5.394,5.394,0,0,1,.064.928Zm-.048,4.672a1.793,1.793,0,0,1-1.872,1.888,1.546,1.546,0,0,1-1.648-1.584,1.693,1.693,0,0,1,1.776-1.68,2.047,2.047,0,0,1,1.072.256A1.158,1.158,0,0,1,327.84,32.016Zm8.88,2.224a2.4,2.4,0,1,0,2.4,2.4A2.4,2.4,0,0,0,336.72,34.24Zm0,.912a1.488,1.488,0,1,1-1.488,1.488A1.5,1.5,0,0,1,336.72,35.152Z" transform="translate(529 3063)" fill="#333"/></g></svg>