<svg xmlns="http://www.w3.org/2000/svg" xmlns:xlink="http://www.w3.org/1999/xlink" width="1199" height="271.516" viewBox="0 0 1199 271.516"><defs><clipPath id="a"><rect width="1199" height="271.516" fill="none"/></clipPath></defs><rect width="171.982" height="264.371" transform="translate(0 3.801)" fill="#f8e6ee"/><rect width="26.833" height="2.454" transform="translate(21.012 107.253)" fill="#cc4782"/><g transform="translate(0 0)"><g clip-path="url(#a)"><path d="M20.015,44.683c0,3.9,3.214,4.218,8.787,4.218,4.659,0,9.354-.217,14.013-.437L41.9,50.918H30.44c-5.857,0-7.747-.315-9.448-1.2a4.375,4.375,0,0,1-2.044-2.013,33.31,33.31,0,0,1-3.277,2.517c-.032.256-.095.819-.473.819-.252,0-.378-.217-.5-.473l-1.071-1.95c1.575-.788,2.71-1.418,4.191-2.3V38.1H13.879V36.058h6.136Zm-3.273-20.09a48.748,48.748,0,0,1,3.84,6.14l-2.048,1.233a48.953,48.953,0,0,0-3.777-6.239Zm9.322,1.634c.059,2.993.059,3.6.059,4.6,0,10.012-.91,12.312-3.084,16.313l-1.953-1.225c2.584-4,2.962-7.558,2.962-13.923,0-3.714-.158-6.235-.284-7.743H40.358V43.931c0,3.052-.126,3.43-4.6,3.525l-.819-2.3a16.869,16.869,0,0,0,1.922.126c1.355,0,1.355-.347,1.355-1.638V26.227Zm5.006.819,2.233.13c.378.032.477.126.477.284,0,.248-.158.347-.567.536v1.6h3.43v1.827h-3.43v2.359H37.62v1.827H26.695V33.785h4.376V31.426H27.636V29.6h3.434Zm-3.277,10.52h8.692v6.392H29.779v1.3H27.794Zm6.743,1.8H29.779v2.8h4.758Z" transform="translate(40.031 71.258)" fill="#cc4782"/><path d="M34.274,24.217v9.921h-9.6V51.743H22.466V24.217Zm-2.2,1.89h-7.4v2.174h7.4Zm0,3.9h-7.4v2.269h7.4Zm-.5,18.9H29.425V37.1H41.583V47.269H31.568Zm7.81-9.921h-7.81v2.143h7.81Zm0,4.033h-7.81v2.363h7.81Zm3.682,6.266c.536.028,1.04.095,1.666.095,1.166,0,1.611-.224,1.611-1.008V34.138h-9.7V24.217h11.9v23.84c0,2.958-.248,3.462-4.344,3.588Zm3.277-23.178H38.779v2.174h7.558Zm0,3.9H38.779v2.269h7.558Z" transform="translate(66.016 71.161)" fill="#cc4782"/><path d="M45.366,46.1a14.9,14.9,0,0,0,4.817-2.422A10.36,10.36,0,0,0,53.9,35.835a9.208,9.208,0,0,0-4.978-8.153,11.112,11.112,0,0,0-4.317-.851,39.781,39.781,0,0,1-3.643,13.793c-1.327,2.8-3.029,5.541-4.892,5.541-2.635,0-5.38-4.061-5.38-8.629a12.969,12.969,0,0,1,13.32-12.847c6.613,0,12.249,4.159,12.249,11.146,0,8.566-7.617,11.623-9.511,12.379ZM35.008,31.3a10.356,10.356,0,0,0-2.174,6.172c0,3.371,1.922,5.92,3.178,5.92.662,0,1.422,0,3.47-5.037a37.5,37.5,0,0,0,2.706-11.461,10.254,10.254,0,0,0-7.18,4.407" transform="translate(90.185 72.548)" fill="#cc4782"/><path d="M18.59,42.969V35.978l2.454.284c.189.032.819.091.819.441,0,.252-.284.41-.819.725v5.541H31.28v2.206H21.044v6.55h9.165v2.233H21.044v7.31H33.58v2.2H5.455v-2.2H18.59v-7.31H9.8V51.724H18.59v-6.55H10.622a19.208,19.208,0,0,1-3.371,5.258L5.207,49.2A25.713,25.713,0,0,0,10.622,37.4l2.517.662c.224.063.693.189.693.536,0,.374-.595.532-1.1.662a32.168,32.168,0,0,1-1.2,3.714Z" transform="translate(15.301 105.721)" fill="#cc4782"/><path d="M18.376,50.183a38.648,38.648,0,0,0-4.663-2.867l1.323-2.08a29.651,29.651,0,0,1,4.6,2.9Zm-.221,13.068a3.017,3.017,0,0,1,.252.784.28.28,0,0,1-.288.256,1.7,1.7,0,0,1-.721-.256L15.194,62.81a55.4,55.4,0,0,0,5.384-12.127l1.827,1.7c-1.323,3.686-2.773,7.274-4.25,10.866m2.139-21.922a31.169,31.169,0,0,0-4.47-2.958l1.323-1.953a21.86,21.86,0,0,1,4.439,3.088ZM33.3,46.745v5.577h6.9V64.161H37.836V62.243H26.627v1.981h-2.3v-11.9h6.518V46.745H22.031V44.512h8.814V39.691c-3.371.319-5.1.382-6.837.414l-.973-2.3c.725.063,1.449.095,2.643.095a53.791,53.791,0,0,0,9.295-.882,36.3,36.3,0,0,0,4.061-1.04l1.445,1.67a.886.886,0,0,1,.256.5c0,.221-.13.315-.347.315a1.777,1.777,0,0,1-.76-.221,59.175,59.175,0,0,1-6.325,1.13v5.136h8.94v2.233Zm4.533,7.53H26.623v5.92H37.836Z" transform="translate(40.296 105.718)" fill="#cc4782"/><path d="M22.505,38.788h8.346V59.382h-2.2V57.334H24.715v3.938H22.505Zm6.144,1.985H24.715v6.266h3.935Zm0,8.216H24.715v6.361h3.935ZM40.142,36.082l2.269.122c.221,0,.595.035.595.315,0,.158-.122.284-.563.567V40.2H47.92v2.115H42.442v3.714h7.369v2.044H32.426V46.031h7.716V42.317H34.569V40.2h5.573ZM32.678,52.167H43.261V48.8l2.044.252c.5.063.725.095.725.347,0,.189-.063.221-.567.567v2.2h4.1v2.052h-4.1v7.144c0,1.355-.315,2.115-1.508,2.332a31.535,31.535,0,0,1-3.4.126l-.914-2.548c1.1.122,1.8.158,2.111.158,1.512,0,1.512-.5,1.512-1.386V54.219H32.678Zm3.34,3.529a13.869,13.869,0,0,1,2.706,4.159l-1.887,1.166a14.313,14.313,0,0,0-2.615-4.191Z" transform="translate(66.131 106.027)" fill="#cc4782"/><path d="M42.826,36.217v9.921H33.22V63.743H31.014V36.217Zm-2.206,1.89h-7.4v2.174h7.4Zm0,3.9h-7.4v2.269h7.4Zm-.5,18.9H37.977V49.1H50.131V59.269H40.12Zm7.806-9.921H40.12v2.143h7.806Zm0,4.033H40.12v2.363h7.806Zm3.682,6.266c.536.028,1.04.095,1.67.095,1.166,0,1.607-.224,1.607-1.008V46.138h-9.7V36.217h11.9v23.84c0,2.958-.252,3.462-4.344,3.588Zm3.277-23.178H47.327v2.174h7.558Zm0,3.9H47.327v2.269h7.558Z" transform="translate(91.134 106.423)" fill="#cc4782"/><path d="M263.655,6.179a24.946,24.946,0,0,1-3.4,5.155,13.079,13.079,0,0,0,3.588,3.395l-1.3,1.489a14.8,14.8,0,0,1-3.281-3.143V24.907h-1.957V14.592a22.347,22.347,0,0,1-4.084,3.281L252.009,16.3a27.9,27.9,0,0,0,8.909-9.185h-8.027V5.242h4.577V0l2.072.165c.331.028.524.055.524.248,0,.248-.248.358-.607.524v4.3h3.478Zm5.514,17.873c-2.154,0-2.513-.855-2.513-2.316V.221l2.072.221c.193.028.547.083.547.3s-.354.386-.607.469v19.7c0,1.3.39,1.351,1.461,1.351h2.261c1.938,0,2.186-.965,2.517-3.722l2.091.993c-.575,3.005-1.237,4.521-3.667,4.521Z" transform="translate(740.527 0)" fill="#1a1311"/><path d="M265.829,7.869V12.39a24.992,24.992,0,0,0,2.592-1.792l.28,2.072c-.717.551-1.323.993-2.871,2.013v7.172c0,1.709-.165,2.729-2.261,2.729-.855,0-1.654-.083-2.178-.11l-.221-2.15a10.724,10.724,0,0,0,1.9.358c.74,0,.74-.441.74-1.075V15.84c-.992.607-1.65.993-2.284,1.351-.114.441-.193.717-.445.717-.079,0-.221-.083-.354-.276l-1.3-1.875a27.539,27.539,0,0,0,4.384-2.154V7.869h-3.5V5.939h3.5V.035l2.048.331c.331.055.685.11.685.331,0,.248-.276.386-.717.579V5.939h3.092v1.93Zm12.5,9.984v6.924h-2.013V17.853h-6.538V15.978h6.538V12.859h-5.3V10.984h5.3V7.9h-5.3V6.022h5.3V2.9h-5.652V1.11h13.485V2.9h-5.821V6.022h5.6V7.9h-5.6v3.088h5.6v1.875h-5.6v3.119h6.4v1.875Z" transform="translate(762.331 0.103)" fill="#1a1311"/><path d="M272.561,5.023a2.47,2.47,0,1,1-2.481-2.481,2.486,2.486,0,0,1,2.481,2.481" transform="translate(786.406 7.47)" fill="#1a1311"/><path d="M278,4.563V7.269h4.439v9.488H278v2.32h5.1v1.709H278v4.08h-1.93v-4.08h-5.325V19.076h5.325v-2.32H271.38V7.269h4.691V4.563h-5.439V2.854h5.439V.014L278.084.1c.358.028.634.083.634.3,0,.3-.524.524-.717.607V2.854h5.542V4.563Zm2.592,4.36h-7.337v2.265h7.337Zm0,3.836h-7.337V15.1h7.337Zm9.133,11.749-.886-2.15c.634.055,2.316.165,2.844.165s.827-.083.827-1.075V15.3h-5.687a25.389,25.389,0,0,1-2.73,9.515l-1.847-1.075c2.4-3.694,2.871-7.613,2.871-14.344,0-2.013-.087-6.648-.138-8.688h9.46V22.137c0,2.013-.165,2.481-4.714,2.371m2.784-21.93h-5.518c0,.717.055,3.809.055,4.443h5.463Zm0,6.317h-5.463v4.521h5.463Z" transform="translate(795.251 0.041)" fill="#1a1311"/><path d="M290.2,9.832c-.193,2.481-.41,5.045-2.178,7.723a11.629,11.629,0,0,1-5.79,4.411l-1.93-1.737a9.5,9.5,0,0,0,5.652-3.749,11.149,11.149,0,0,0,1.961-6.648h-9.988V7.816H299.2V9.832Zm5.191-7.2H281.662V.616H295.4Z" transform="translate(816.702 1.81)" fill="#1a1311"/><path d="M302.741,2.555c-1.221.8-1.272.855-1.6,1.3a36.518,36.518,0,0,1-3.864,6.672,39.18,39.18,0,0,1,7.479,7.916l-1.879,1.575a22.163,22.163,0,0,0-3.529-4.718,27.626,27.626,0,0,0-3.367-3.037,26.152,26.152,0,0,1-10.063,7.176l-1.658-1.851a20.894,20.894,0,0,0,8.858-5.352,23.369,23.369,0,0,0,5.813-8.964h-11.5V1.342H299.7A2.544,2.544,0,0,0,301,.763Z" transform="translate(835.291 2.242)" fill="#1a1311"/><path d="M292.979,7.792a32.835,32.835,0,0,1,9.047,5.38l-1.347,1.93a30.559,30.559,0,0,0-3.785-2.895,22.782,22.782,0,0,0-4.714-2.481V22h-2.21V.455l2.1.11c.138,0,.768.028.768.386,0,.165-.225.3-.662.607V9.364Z" transform="translate(852.075 1.337)" fill="#1a1311"/><path d="M257.706,21.956c1.438-.882,1.737-1.048,2.592-1.654l.083,2.15c-.906.551-2.146,1.323-2.674,1.654v7.861c0,2.237-1.572,2.261-2.674,2.261-.551,0-1.052-.024-1.713-.083l-.575-2.064a21.9,21.9,0,0,0,2.209.217c.819,0,.819-.386.819-.965V25.319c-.713.445-1.871,1.13-2.123,1.3-.138.551-.161.61-.354.61-.165,0-.307-.224-.358-.358l-.965-1.961a30.145,30.145,0,0,0,3.8-1.875V17.155h-3.3V15.418h3.3V9.569l2.154.165c.386.028.579.2.579.3,0,.165-.221.331-.8.717v4.663h2.674v1.737h-2.674Zm17.459-2.15H263.03v3.5h-1.875V18.147h15.888v4.884h-1.879Zm-12,2.867h11.063l.662.993a15.561,15.561,0,0,1-4.021,5.9,19.392,19.392,0,0,0,6.538,2.288l-1.249,1.737a21.022,21.022,0,0,1-6.81-2.729,22.318,22.318,0,0,1-6.814,2.95l-1.241-1.65a18.154,18.154,0,0,0,6.534-2.513,15.225,15.225,0,0,1-2.922-4.25l1.658-.662a10.491,10.491,0,0,0,2.784,3.753,11.126,11.126,0,0,0,3.226-4.112h-9.409Zm-1.705-11.725c.744.055,1.823.165,3.308.165a26.726,26.726,0,0,0,9.547-1.6L275.8,10.9c.055.051.248.248.248.382,0,.165-.193.221-.3.221a3.081,3.081,0,0,1-.882-.138,44.209,44.209,0,0,1-12.635,1.382Zm1.493,2.375a15.168,15.168,0,0,1,2.729,3.033l-1.438,1.075a19.08,19.08,0,0,0-2.647-2.867Zm4.963-.193a10.865,10.865,0,0,1,2.454,3.226l-1.516.937a17.075,17.075,0,0,0-2.237-3.088Zm3.529,3.446a14.085,14.085,0,0,0,2.922-4.025l1.713,1.158c.11.083.3.221.3.386,0,.3-.362.276-.748.248a13.615,13.615,0,0,1-2.7,3.308Z" transform="translate(740.415 27.957)" fill="#1a1311"/><path d="M276.785,16.458l.492.358c.11.083.307.221.307.386,0,.276-.331.221-.583.193a6.443,6.443,0,0,1-.933,1.434h5.518V20.4h-8.779v1.768h8.417v1.654h-8.417v1.82h10.925V27.3h-9.047a17.472,17.472,0,0,0,8.44,4.443l-1.6,1.82a23.339,23.339,0,0,1-8.72-5.6v6.483h-1.985V28.014a29.183,29.183,0,0,1-8.9,5.9l-1.245-1.792a22.914,22.914,0,0,0,8.275-4.829h-8.881V25.643h10.756v-1.82h-8.854V22.169h8.854V20.4h-9.267V18.829h5.518a7.272,7.272,0,0,0-1.241-1.764l.8-.607h-7.007V14.8h8.83V9.479l1.82.11c.331.028.547.165.547.3s-.217.331-.52.524V14.8h2.836V9.562l1.824.11c.386.028.524.165.524.248,0,.138-.22.331-.437.524V14.8h8.992v1.658Zm-11.422-2.1a11.551,11.551,0,0,0-2.454-3.446l1.461-.993a11.533,11.533,0,0,1,2.7,3.363Zm2.343,2.1a6.77,6.77,0,0,1,1.241,1.709l-1.1.662h7.14l-.8-.662a7.29,7.29,0,0,0,1.189-1.709Zm12.056-5.187a15.876,15.876,0,0,1-2.564,3.037l-1.3-1.3A19.108,19.108,0,0,0,278.8,9.7l1.3.827c.193.138.437.276.437.5,0,.3-.492.276-.768.248" transform="translate(762.907 27.854)" fill="#1a1311"/><path d="M268.345,24.372a4.428,4.428,0,0,0,1.075-.138l1.213,1.571a3.343,3.343,0,0,0-1.351,1.654c-2.237,5.987-3.7,8.582-6.869,11.7a22.728,22.728,0,0,1-5.573,4.029l-2.013-1.658a20.93,20.93,0,0,0,8.22-6.372,20.565,20.565,0,0,0,4.135-8.936h-8.192a29.979,29.979,0,0,1-5.463,5.9l-1.792-1.351a21.688,21.688,0,0,0,5.049-5.077,17.174,17.174,0,0,0,2.513-4.856l2.123.776c.41.138.547.386.547.52,0,.221-.386.28-.878.362-.469.993-.638,1.323-.937,1.875Zm-.717-4.884a25.357,25.357,0,0,1,2.206,2.647L268.4,23.214a10.563,10.563,0,0,0-2.206-2.651Zm3.446-.579a22.814,22.814,0,0,1,2.229,2.647l-1.375,1.079a10.377,10.377,0,0,0-2.154-2.651Z" transform="translate(739.725 55.564)" fill="#1a1311"/><path d="M260.157,35.88v1.875H258V20.071h18.263V37.755h-2.182V35.88Zm13.927-13.848H260.157V33.946h13.927Z" transform="translate(758.141 58.979)" fill="#1a1311"/><rect width="19.972" height="2.013" transform="translate(1038.786 86.97)" fill="#1a1311"/><path d="M278.53,25.343a41.565,41.565,0,0,0,.272-6.014l2.651.331c.193.028.441.055.441.276,0,.11,0,.248-.8.634a31.373,31.373,0,0,1-.355,4.773h8.33a54.389,54.389,0,0,1-1.268,9.708c-.165.717-.882,3.749-2.32,4.911-.882.744-1.9.827-4.246.993l-.717-2.371a8.471,8.471,0,0,0,1.705.134c1.323,0,2.54,0,3.533-3.887a30.975,30.975,0,0,0,1.024-7.53H280.46a26.993,26.993,0,0,1-3.092,8.247,13.87,13.87,0,0,1-5.959,5.683l-1.737-1.709a12.128,12.128,0,0,0,5.3-4.443,21.311,21.311,0,0,0,3.17-7.779h-7.806V25.343Z" transform="translate(792.43 56.798)" fill="#1a1311"/><path d="M275.534,36.885c2.788-1.544,5.963-3.5,5.963-12.162,0-1.682-.087-3.312-.138-4.36l2.261.193c.106.028.607.055.607.331,0,.138-.055.193-.579.579.055,5.159-.083,6.731-.528,8.661-1.154,5.049-3.391,6.676-5.794,8.389Zm12.5-17.1,2.206.165c.272.028.524.11.524.276s-.083.221-.666.579V34.928a16.911,16.911,0,0,0,4.663-3.529,18.231,18.231,0,0,0,3.174-4.084l1.434,1.658a22.672,22.672,0,0,1-4.5,5.183,26.851,26.851,0,0,1-5.545,3.809l-1.292-1.024Z" transform="translate(809.655 58.135)" fill="#1a1311"/><path d="M300.877,21.555c-1.217.8-1.268.855-1.6,1.3a37.226,37.226,0,0,1-3.864,6.672,39.166,39.166,0,0,1,7.475,7.916l-1.875,1.575a22.315,22.315,0,0,0-3.529-4.718,27.285,27.285,0,0,0-3.371-3.037,26.093,26.093,0,0,1-10.063,7.176l-1.658-1.851a20.818,20.818,0,0,0,8.854-5.352,23.313,23.313,0,0,0,5.821-8.964h-11.5v-1.93h12.276a2.573,2.573,0,0,0,1.3-.579Z" transform="translate(829.813 58.073)" fill="#1a1311"/><path d="M306.952,25.3a3.475,3.475,0,0,0-.717.717c-2.036,4.58-2.422,5.3-3.616,7.062a19.894,19.894,0,0,1,2.733,2.206l-1.434,1.658a22.174,22.174,0,0,0-2.5-2.21A20.782,20.782,0,0,1,297,38.957a18.548,18.548,0,0,1-5.986,2.812l-1.438-1.957a16.709,16.709,0,0,0,5.463-2.265,18.284,18.284,0,0,0,4.584-4.053,32.53,32.53,0,0,0-4.8-2.564l1.3-1.658a49.54,49.54,0,0,1,4.714,2.568,25.718,25.718,0,0,0,3.092-6.317h-8.105a26.534,26.534,0,0,1-5.6,5.9l-1.879-1.438a19.638,19.638,0,0,0,5.711-5.569,21.78,21.78,0,0,0,2.84-5.077l2.15.91c.331.138.449.358.449.469,0,.3-.693.414-.941.441-.382.8-.5.965-1.437,2.568h6.762a8.305,8.305,0,0,0,1.792-.276Z" transform="translate(847.271 56.839)" fill="#1a1311"/><path d="M306.161,30.858a15.15,15.15,0,0,1-2.123,7.779,11.463,11.463,0,0,1-5.675,4.525l-1.961-1.8a9.356,9.356,0,0,0,5.6-3.8,11.642,11.642,0,0,0,1.875-6.7H294.03V28.845h21.126v2.013Zm5.195-7.255H297.642V21.536h13.714Zm4.521,2.871a23.531,23.531,0,0,0-2.729-2.072l1.016-1.434a26.837,26.837,0,0,1,2.651,2.15Zm1.016-4a20.358,20.358,0,0,0-2.67-2.1l.933-1.434a22.954,22.954,0,0,1,2.729,2.15Z" transform="translate(864.006 55.667)" fill="#1a1311"/><path d="M308.466,27.832a37.229,37.229,0,0,1-6.183,3.446l-1.654-1.43a22.691,22.691,0,0,0,7.723-4.057,28.7,28.7,0,0,0,5.49-5.132l1.292,1.185c.225.193.469.414.469.638,0,.138-.075.165-.268.165a4.859,4.859,0,0,1-.67-.059,37.443,37.443,0,0,1-4.407,3.891V38.757h-1.792Z" transform="translate(883.394 60.709)" fill="#1a1311"/><path d="M257.507,26.943a11.89,11.89,0,0,0-3.9,9.066,11.842,11.842,0,0,0,3.9,9.066v.1h-1.182a12.49,12.49,0,0,1-3.769-9.165,12.5,12.5,0,0,1,3.769-9.165h1.182Z" transform="translate(742.135 78.884)" fill="#1a1311"/><path d="M260.252,27.511h1.615l-.492,5.774.063.043L266.168,30l.827,1.418-5.266,2.442v.083l5.266,2.442-.827,1.418-4.73-3.328-.063.039.492,5.774h-1.615l.492-5.774-.059-.039-4.73,3.328-.827-1.418,5.262-2.442v-.083l-5.262-2.442L255.955,30l4.73,3.332.059-.043Z" transform="translate(749.692 80.84)" fill="#1a1311"/><path d="M277.227,43.96c-8.023,0-8.913,0-10.823-.1-2.623-.142-3.356-.965-3.9-1.993-.536.532-.894.886-1.5,1.441,0,.252,0,.689-.3.689-.1,0-.2-.059-.3-.28l-.744-1.654a10.707,10.707,0,0,0,2.166-1.339V36.37h-2.3V34.988h3.683V39.6a2.883,2.883,0,0,0,1.284,2.619c.764.394,1.615.532,4.608.532a80.312,80.312,0,0,0,8.7-.433ZM262.379,31.8a29.8,29.8,0,0,0-2.462-4.2l1.185-.614a20.485,20.485,0,0,1,2.525,4.1Zm10.331,7.491a11.065,11.065,0,0,0,3.174,1.851l-.788,1.221a24.713,24.713,0,0,1-3.47-2.087l.733-.985h-3.73l.772.926c.138.158.158.217.158.276,0,.217-.24.2-.614.158a27.513,27.513,0,0,1-2.426,1.772l-.961-1.063a8.832,8.832,0,0,0,2.623-2.068h-3.631V38.123h3.293V36.686H265.38V35.5h2.462V34.062l1.363.158c.114.02.335.039.335.2,0,.138-.138.236-.315.354V35.5h2.5V34.062l1.378.158c.315.039.378.118.378.2,0,.059-.039.217-.354.374V35.5h2.757v1.182h-2.757v1.438h3.545v1.166Zm-4.258-5.541H266.2c-.945,0-1.394-.256-1.394-1.2V29.963h3.686v-1.5h-3.844V27.284h5.085v3.7h-3.647v1.26c0,.358.177.378.492.378h1.461c.606,0,.823-.118,1.122-1.185l1.083.673c-.413,1.3-.807,1.634-1.8,1.634m3.273,2.938h-2.5v1.438h2.5Zm3.036-2.977h-1.989c-1.122,0-1.6-.256-1.6-1.378V29.963h3.545v-1.6h-3.505V27.284H276v3.7h-3.608v1.205c0,.433.2.433.555.433h1.359c.673,0,.768-.158,1.181-1.378l1.067.65c-.414,1.615-.906,1.812-1.8,1.812" transform="translate(762.619 79.295)" fill="#1a1311"/><path d="M269.645,36.977v5.955c0,1.359-.256,1.615-3.328,1.575l-.417-1.52c.315.024,1.241.1,1.737.1.409,0,.63-.118.63-.673V37.745c-1.481.752-1.8.91-2.19,1.107,0,.138-.039.63-.335.63-.158,0-.256-.217-.3-.335l-.555-1.619c.634-.236,1.894-.689,3.375-1.4V32.267h-3.135V30.928h3.135v-4l1.438.059c.22,0,.358.02.358.177s-.138.236-.418.394v3.371h2.009v1.339h-2.009v3.174c.394-.2,1.477-.811,2.21-1.245v1.6a22.489,22.489,0,0,1-2.21,1.182M281.1,44.192c-2.962-2.741-4.005-6.306-4.415-9.913h-1.953c-.122,2.284-.339,6.7-2.978,10.169l-1.441-.709c2.525-3.037,3.08-6.821,3.08-11.335,0-2.052-.1-3.549-.2-4.986h8.417v6.861h-3.568a12.619,12.619,0,0,0,4.435,9.086Zm-.87-15.494H274.67c.063.985.122,2.859.122,4.3h5.439Z" transform="translate(778.381 79.122)" fill="#1a1311"/><path d="M270.265,44.986a9.894,9.894,0,0,0,1.776-2.383,13.891,13.891,0,0,0,1.654-6.369,13.879,13.879,0,0,0-1.654-6.369,9.894,9.894,0,0,0-1.776-2.383l.807-.713a10.856,10.856,0,0,1,1.855,2.485,14.082,14.082,0,0,1,0,13.958,10.747,10.747,0,0,1-1.855,2.481Z" transform="translate(794.172 78.663)" fill="#1a1311"/><rect width="36.939" height="21.591" transform="translate(949.579 3.801)" fill="#9d4e55"/><rect width="36.939" height="21.591" transform="translate(949.579 40.547)" fill="#cc4782"/><rect width="36.939" height="21.591" transform="translate(949.579 77.293)" fill="#9bc6eb"/><rect width="151.254" height="20.307" transform="translate(673.376 201.545)" fill="#cc4782"/><rect width="62.106" height="20.303" transform="translate(294.367 53.264)" fill="#9d4e55"/><rect width="62.106" height="20.307" transform="translate(294.367 90.294)" fill="#9d4e55"/><rect width="62.106" height="20.303" transform="translate(294.367 127.379)" fill="#9d4e55"/><rect width="62.106" height="20.303" transform="translate(294.367 165.271)" fill="#9d4e55"/><rect width="62.106" height="20.307" transform="translate(294.367 201.545)" fill="#9d4e55"/><rect width="62.106" height="20.303" transform="translate(294.367 239.035)" fill="#9d4e55"/><rect width="302.756" height="20.303" transform="translate(356.446 53.264)" fill="#cc4782"/><rect width="302.756" height="20.307" transform="translate(356.446 90.294)" fill="#cc4782"/><rect width="302.756" height="20.303" transform="translate(356.446 127.379)" fill="#cc4782"/><rect width="302.756" height="20.303" transform="translate(356.446 165.271)" fill="#cc4782"/><rect width="302.756" height="20.307" transform="translate(356.446 201.545)" fill="#cc4782"/><rect width="302.756" height="20.303" transform="translate(356.446 239.035)" fill="#cc4782"/><rect width="151.293" height="20.303" transform="translate(673.376 53.264)" fill="#cc4782"/><rect width="151.293" height="20.307" transform="translate(673.376 90.294)" fill="#cc4782"/><rect width="151.293" height="20.303" transform="translate(673.376 127.379)" fill="#cc4782"/><rect width="226.893" height="20.303" transform="translate(673.376 165.271)" fill="#cc4782"/><line x2="709.268" transform="translate(191.796 45.026)" fill="none" stroke="#1a1311" stroke-width="0.567"/><line x2="709.268" transform="translate(191.796 5.059)" fill="none" stroke="#1a1311" stroke-width="0.567"/><line x2="709.268" transform="translate(191.796 82.163)" fill="none" stroke="#1a1311" stroke-width="0.283"/><line x2="709.268" transform="translate(191.796 119.299)" fill="none" stroke="#1a1311" stroke-width="0.283"/><line x2="709.268" transform="translate(191.796 156.437)" fill="none" stroke="#1a1311" stroke-width="0.283"/><line x2="709.268" transform="translate(191.796 193.573)" fill="none" stroke="#1a1311" stroke-width="0.283"/><line x2="709.268" transform="translate(191.796 230.708)" fill="none" stroke="#1a1311" stroke-width="0.283"/><line x2="709.268" transform="translate(191.796 267.846)" fill="none" stroke="#1a1311" stroke-width="0.567"/><line y2="263.107" transform="translate(356.47 5.062)" fill="none" stroke="#1a1311" stroke-width="0.283"/><line y2="263.107" transform="translate(432.102 5.062)" fill="none" stroke="#1a1311" stroke-width="0.283"/><line y2="263.107" transform="translate(507.748 5.062)" fill="none" stroke="#1a1311" stroke-width="0.283"/><line y2="263.107" transform="translate(583.395 5.062)" fill="none" stroke="#1a1311" stroke-width="0.283"/><line y2="263.107" transform="translate(673.339 5.062)" fill="none" stroke="#1a1311" stroke-width="0.283"/><line y2="263.107" transform="translate(659.042 5.062)" fill="none" stroke="#1a1311" stroke-width="0.283"/><line y2="263.107" transform="translate(294.366 5.062)" fill="none" stroke="#1a1311" stroke-width="0.283"/><rect width="75.599" height="20.303" transform="translate(824.67 201.549)" fill="#9bc6eb"/><line y2="263.107" transform="translate(748.985 5.062)" fill="none" stroke="#1a1311" stroke-width="0.283"/><line y2="263.107" transform="translate(824.628 5.062)" fill="none" stroke="#1a1311" stroke-width="0.283"/><path d="M93.252,20.918c2.631-.095,2.918-.268,2.946-1.776V8.189c0-.9-.315-1.438-.9-1.583a14.613,14.613,0,0,0-2.56-.095V5.778c2.749-.095,3.773-.461,4.848-1.7h.555V19.142c.051,1.461.441,1.7,3.068,1.776v.8h-7.96Z" transform="translate(272.516 11.98)" fill="#1a1311"/><path d="M97.554,6.065h3.041l.729-1.1,1.485,1.583a.646.646,0,0,1,.193.39c0,.1-.122.217-.291.268l-.437.122V21.614a.519.519,0,0,1-.39.559,2.334,2.334,0,0,1-.752.173c-.221,0-.366-.1-.366-.268V20.106H97.451v3.021a.515.515,0,0,1-.291.508,2.1,2.1,0,0,1-.874.244.346.346,0,0,1-.362-.315V5.112Zm3.21.583H97.451v6.109h3.312Zm0,6.692H97.451V19.5h3.312Zm1.8-1.922c2.237.1,3.143.122,4.234.122h1.119V7.912h-1.335c-1.048,0-1.583.024-3.017.075l-.319-.756c1.631.075,2.194.1,3.336.1h1.335V3.458l2.048.244c.366.047.563.221.563.488,0,.146-.126.291-.323.437l-.677.437V7.33h3.285l1.461-1.658,1.8,1.536c.217.169.268.268.268.39,0,.193-.146.315-.414.315h-6.4V11.54h4.257l1.532-1.753,1.78,1.536a.708.708,0,0,1,.291.484c0,.221-.146.315-.417.315h-3.84v3.383h1.142l1.315-1.485,1.556,1.315a.665.665,0,0,1,.291.488c0,.169-.1.264-.291.264H113.13v7.4c0,.512-.2.8-.831,1.241a1.552,1.552,0,0,1-.874.39c-.291,0-.414-.146-.465-.508-.075-.61-.075-.61-.756-.807l-1.894-.484v-.536l2.19.1.386.024h.173c.315,0,.461-.193.461-.634V16.089H106.9c-1.122,0-1.95.028-3.97.1l-.268-.8c2.119.1,2.97.122,4.238.122h4.62V12.123H106.8c-1.02,0-1.871.028-3.966.1Zm1.485,5.573a5.98,5.98,0,0,1,2.58,1.241,2.947,2.947,0,0,1,1.217,2.044,1.045,1.045,0,0,1-1.02,1.1c-.414,0-.61-.2-.729-.756a5.049,5.049,0,0,0-2.1-3.285Z" transform="translate(281.869 10.161)" fill="#1a1311"/><path d="M104.3,4.584h3.454l.634-.949,1.8,1.485a.586.586,0,0,1,.244.39c0,.193-.193.339-.488.339h-.634c-.87,1.682-.945,1.851-2.8,5.089,2.19,2.336,3.017,4.017,3.017,6.132a3.146,3.146,0,0,1-.945,2.678,2.76,2.76,0,0,1-1.611.7c-.362,0-.508-.193-.532-.634-.028-.583-.075-.658-.681-.8l-1-.217v-.39l1,.024.607.024c1.217,0,1.631-.484,1.631-1.9a7.114,7.114,0,0,0-1.071-3.8,9.411,9.411,0,0,0-.949-1.315c-.169-.217-.169-.217-.319-.433.953-2.655,1.315-3.726,1.926-5.845h-3.675V24.249c0,.268-.583.583-1.048.583-.217,0-.437-.118-.437-.24V3.564Zm8.491,0h5.719l.831-.949,1.631,1.193a.591.591,0,0,1,.291.437c0,.169-.146.315-.465.414l-.41.146v8.2c0,.315-.536.607-1.17.607-.244,0-.39-.122-.39-.291v-.7H115.37a14.547,14.547,0,0,0,1.8,4.21,35.257,35.257,0,0,0,4.116-3.868l1.39,1.213a.674.674,0,0,1,.24.465c0,.217-.24.366-.607.366h-.756c-1.824,1-2.41,1.312-4.163,2.162a13.64,13.64,0,0,0,5.939,4.482,6.724,6.724,0,0,0-1.946,1.654c-3.43-2.265-5.4-5.478-6.546-10.685H112.5V21.6c1.973-.343,2.339-.414,4.746-.973l.028.339c-2.678,1.119-3.872,1.607-6.573,2.58l-.291.756c-.075.169-.193.291-.339.291-.1,0-.173-.075-.272-.221l-1.485-2.19c1.339-.146,1.536-.169,2.7-.366V3.635Zm6.038.583H112.5v3.58h6.329Zm0,4.163H112.5v3.726h6.329Z" transform="translate(300.972 10.473)" fill="#1a1311"/><path d="M86.143,13.764a4.3,4.3,0,0,1,1.445,3.257c0,2.694-2.107,4.584-5.1,4.584-2.95,0-5.006-1.749-5.006-4.254,0-1.914,1.063-3.281,3.564-4.58C78.565,11,77.856,10.054,77.856,8.427c0-2.41,2.009-4.206,4.675-4.206,2.619,0,4.486,1.654,4.486,3.99,0,1.583-.709,2.552-2.974,4.041a11.323,11.323,0,0,1,2.1,1.512M81.684,13.2c-1.843,1.347-2.481,2.336-2.481,3.919,0,2.2,1.367,3.734,3.328,3.734a3.253,3.253,0,0,0,3.4-3.237A3.1,3.1,0,0,0,84.8,15.2a13.942,13.942,0,0,0-2.576-1.678Zm3.044-2.552a3.924,3.924,0,0,0,.733-2.383c0-1.985-1.182-3.285-2.95-3.285a3.01,3.01,0,0,0-3.1,2.9c0,1.465.851,2.316,3.946,3.946a7.485,7.485,0,0,0,1.371-1.182" transform="translate(227.669 12.403)" fill="#1a1311"/><path d="M83.939,6.316a1.617,1.617,0,1,1-3.234,0,1.617,1.617,0,0,1,3.234,0m0,9.165a1.617,1.617,0,1,1-3.234,0,1.617,1.617,0,0,1,3.234,0" transform="translate(237.151 13.849)" fill="#1a1311"/><path d="M82.175,20.193a43.248,43.248,0,0,1,4.888-6.282c2.06-2.336,2.694-3.682,2.694-5.573,0-2.1-.965-3.332-2.6-3.332a3.464,3.464,0,0,0-2.15.733,1.912,1.912,0,0,0-.618,1.087c0,.189.075.307.453.8a1.833,1.833,0,0,1,.54,1.252A1.278,1.278,0,0,1,84.113,10.2,1.708,1.708,0,0,1,82.6,8.362c0-2.221,2.269-4.159,4.868-4.159a4.229,4.229,0,0,1,4.482,4.23,4.764,4.764,0,0,1-.681,2.454c-.473.855-.473.855-2.552,2.883-2.926,2.788-3.994,3.99-5.171,5.9h4.915c1.674,0,2.076-.331,3.3-2.67l.7.236-1.3,4.112h-9Z" transform="translate(241.471 12.35)" fill="#1a1311"/><path d="M95.352,12.789a14.862,14.862,0,0,1-1.209,6.376,4.54,4.54,0,0,1-3.872,2.6,4.652,4.652,0,0,1-4.041-2.907A14.757,14.757,0,0,1,85.2,12.836c0-5.313,1.985-8.645,5.171-8.645,2.977,0,4.986,3.474,4.986,8.6M87.271,13c0,5.455.969,7.983,3.072,7.983a2.1,2.1,0,0,0,1.891-1.111c.638-1.134.969-3.446.969-6.8,0-5.786-.827-8.125-2.907-8.125-2,0-3.025,2.718-3.025,8.054" transform="translate(250.345 12.315)" fill="#1a1311"/><path d="M58.971,14.724h7.964l.851-1.142,1.5,1.461a1.129,1.129,0,0,1,.394.63c0,.122-.146.291-.343.366l-.461.169v16.4c0,.512-.315.926-1,1.315a2.075,2.075,0,0,1-.874.268c-.291,0-.39-.122-.414-.488-.051-.414-.1-.559-.272-.607l-2.749-.878.051-.315,3.064.024c.366,0,.417-.047.441-.291V25.653H58.707a12.1,12.1,0,0,1-.733,3.482,9.079,9.079,0,0,1-4.21,4.4,6.859,6.859,0,0,1-2.091.926.188.188,0,0,1-.2-.169c0-.1.095-.2.315-.319A11.6,11.6,0,0,0,56.1,29.4c.827-1.753,1.02-3.655,1.02-9.567,0-2.166-.024-3.505-.15-6.278ZM67.128,25.07V20.494h-8.35v2.871c0,.583-.024.926-.047,1.705Zm0-9.764H58.782v4.6h8.346Z" transform="translate(151.262 39.84)" fill="#1a1311"/><path d="M60.06,15.7h2.509l.855-1.044,1.288,1.363a.692.692,0,0,1,.268.512c0,.146-.122.268-.319.291l-.362.075V31.226c0,.221-.1.343-.339.465a2.615,2.615,0,0,1-.9.291c-.146,0-.244-.1-.244-.291V29.717H59.942v2.655c0,.339-.563.681-1.146.681a.288.288,0,0,1-.315-.291V14.578Zm2.753.587H59.942v6.156h2.871Zm0,6.743H59.942v6.109h2.871Zm5.864,1.166h3.655c.41-1.41.461-1.631.8-3.092l1.674.587a.462.462,0,0,1,.319.437.548.548,0,0,1-.319.461l-.583.3-.973,1.312h3.43l1.024-1.241L79.17,24.1c.2.146.291.264.291.414a.3.3,0,0,1-.315.264H73.715v2.143h2.316l1-1.044,1.339.9c.2.122.291.244.291.39a.36.36,0,0,1-.39.343H73.715v2.336h2.316l1-1.048,1.339.878a.5.5,0,0,1,.315.437.35.35,0,0,1-.366.315h-4.6v2.532h2.97l1.41-1.485,1.757,1.386a.471.471,0,0,1,.24.39.279.279,0,0,1-.291.291H68.776v.878c0,.291-.512.559-1.095.559-.169,0-.244-.075-.244-.221V26.042c-1.292,1.631-2.359,2.7-2.631,2.7a.168.168,0,0,1-.169-.169c0-.122.024-.146.488-.733A25.9,25.9,0,0,0,68.41,20.93l1.824.878a.468.468,0,0,1,.3.39c0,.169-.15.291-.339.339l-.681.169Zm2.288-10.709,1.367,1.071a.678.678,0,0,1,.291.488.364.364,0,0,1-.221.339l-.512.244V21.2c0,.268-.658.61-1.17.61-.169,0-.24-.1-.24-.3V19.934H66.051v-.583h4.431V17.5H66v-.587h4.482V14.991H68.749c-.7,0-1.335.024-2.97.075l-.287-.729c1.166.02,1.847.047,3.257.095H70.43Zm1.41,11.292h-3.6v2.143h3.6Zm0,2.729h-3.6v2.336h3.6Zm0,2.918h-3.6v2.532h3.6Zm.54-15.99h4.135l.658-.973,1.41,1.292a.673.673,0,0,1,.248.484.407.407,0,0,1-.343.366l-.39.047v5.333a.444.444,0,0,1-.343.461,4.305,4.305,0,0,1-.776.2c-.2,0-.291-.126-.291-.319V19.934H73.085v-.583h4.139V17.5H73.01v-.587h4.214v-1.9H72.916Z" transform="translate(171.846 39.549)" fill="#1a1311"/><path d="M68.084,15.022h9.685l1.024-1.217,1.556,1.434a.922.922,0,0,1,.366.61.54.54,0,0,1-.366.437l-.386.146V31.91c0,.319-.658.61-1.39.61-.217,0-.362-.169-.362-.465V30.839H67.887V32.47a.65.65,0,0,1-.414.709,1.742,1.742,0,0,1-.827.217.453.453,0,0,1-.512-.512V13.876Zm10.126.583H67.891v7.011H78.209Zm0,7.593H67.891v7.058H78.209Z" transform="translate(194.334 40.566)" fill="#1a1311"/><path d="M62.67,24.721c-.028.607-.028,1.241-.028,1.41-.024,1.339-.047,2.339-.047,2.434-.028.39-.051.61-.173,2.509A16.647,16.647,0,0,0,64.2,34.918a28.322,28.322,0,0,0,5.333-8.566L71.6,27.785a.6.6,0,0,1,.272.465c0,.221-.126.339-.441.437l-.8.244a55.76,55.76,0,0,1-6.085,6.424c1.922,2.875,4.549,4.628,8.885,5.916a5.837,5.837,0,0,0-2.143,2.044A17.415,17.415,0,0,1,62.229,32.63,11.686,11.686,0,0,1,58.07,40.3a16.309,16.309,0,0,1-4.116,2.556,8.3,8.3,0,0,1-2.044.729c-.173,0-.291-.095-.291-.24,0-.126.095-.221.315-.343,3.458-1.631,5.549-3.383,7.034-5.841,1.414-2.41,2-5.282,2-9.957,0-1.095-.051-2.19-.173-4.258l2.434.268c.319.047.536.217.536.461a.584.584,0,0,1-.288.437Zm-6.963,1.9a9.364,9.364,0,0,1,.658,3.576c0,2.509-1.146,4.454-2.631,4.454a.933.933,0,0,1-1-.851.9.9,0,0,1,.193-.583L54.025,32a6.559,6.559,0,0,0,1.245-4.017,12.022,12.022,0,0,0-.051-1.217Z" transform="translate(151.682 67.424)" fill="#1a1311"/><path d="M60.06,25.138h2.509l.855-1.044,1.288,1.363a.692.692,0,0,1,.268.512c0,.146-.122.268-.319.291l-.362.075V40.668c0,.221-.1.343-.339.465a2.615,2.615,0,0,1-.9.291c-.146,0-.244-.1-.244-.291V39.159H59.942v2.655c0,.339-.563.681-1.146.681a.288.288,0,0,1-.315-.291V24.02Zm2.753.587H59.942v6.156h2.871Zm0,6.743H59.942v6.109h2.871Zm5.864,1.166h3.655c.41-1.41.461-1.631.8-3.092l1.674.587a.462.462,0,0,1,.319.437.548.548,0,0,1-.319.461l-.583.3-.973,1.312h3.43l1.024-1.241,1.461,1.146c.2.146.291.264.291.414a.3.3,0,0,1-.315.264H73.715v2.143h2.316l1-1.044,1.339.9c.2.122.291.244.291.39a.36.36,0,0,1-.39.343H73.715v2.336h2.316l1-1.048,1.339.878a.5.5,0,0,1,.315.437.35.35,0,0,1-.366.315h-4.6V42.4h2.97l1.41-1.485L79.851,42.3a.471.471,0,0,1,.24.39.279.279,0,0,1-.291.291H68.776v.878c0,.291-.512.559-1.095.559-.169,0-.244-.075-.244-.221V35.485c-1.292,1.631-2.359,2.7-2.631,2.7a.168.168,0,0,1-.169-.169c0-.122.024-.146.488-.733a25.9,25.9,0,0,0,3.285-6.912l1.824.878a.468.468,0,0,1,.3.39c0,.169-.15.291-.339.339l-.681.169Zm2.288-10.709L72.333,24a.678.678,0,0,1,.291.488.364.364,0,0,1-.221.339l-.512.244V30.64c0,.268-.658.61-1.17.61-.169,0-.24-.1-.24-.3V29.376H66.051v-.583h4.431V26.942H66v-.587h4.482V24.433H68.749c-.7,0-1.335.024-2.97.075l-.287-.729c1.166.02,1.847.047,3.257.095H70.43Zm1.41,11.292h-3.6v2.143h3.6Zm0,2.729h-3.6v2.336h3.6Zm0,2.918h-3.6V42.4h3.6Zm.54-15.99h4.135l.658-.973,1.41,1.292a.673.673,0,0,1,.248.484.407.407,0,0,1-.343.366l-.39.047v5.333a.444.444,0,0,1-.343.461,4.305,4.305,0,0,1-.776.2c-.2,0-.291-.126-.291-.319V29.376H73.085v-.583h4.139V26.942H73.01v-.587h4.214v-1.9H72.916Z" transform="translate(171.846 67.294)" fill="#1a1311"/><path d="M68.084,24.464h9.685l1.024-1.217,1.556,1.438a.915.915,0,0,1,.366.607.53.53,0,0,1-.366.437l-.386.15V41.356c0,.315-.658.607-1.39.607-.217,0-.362-.169-.362-.461V40.285H67.887v1.631a.648.648,0,0,1-.414.7,1.747,1.747,0,0,1-.827.221.453.453,0,0,1-.512-.512V23.322Zm10.126.583H67.891v7.011H78.209Zm0,7.593H67.891V39.7H78.209Z" transform="translate(194.334 68.311)" fill="#1a1311"/><path d="M55.081,39.5c-.78,0-1.438.024-3.044.075l-.217-.756c.63.024,1.193.024,1.382.047,1.024.028,1.705.051,1.879.051h3.163l.8-1.071L60.63,39.62a.535.535,0,0,1,.146.366.383.383,0,0,1-.366.39l-.465.047a24.882,24.882,0,0,1-4.013,7.471,17.477,17.477,0,0,1-2.993,3.017,3.572,3.572,0,0,1-1.241.733.234.234,0,0,1-.2-.2c0-.095.244-.386.78-.874C55.2,47.5,56.735,44.633,58.244,39.5Zm3.6,11.9,2.41.024c.512-.047.587-.1.559-.484V32.294l2.024.221c.358.02.607.217.607.484a.729.729,0,0,1-.461.587l-.488.24v3.336A18.407,18.407,0,0,0,65.494,42.2l4.9-5.478,1.556,1.658a.433.433,0,0,1,.122.291.549.549,0,0,1-.634.488l-.071-.028-.484-.024-5.018,3.651a16.254,16.254,0,0,0,7.79,6.183,6.273,6.273,0,0,0-2.166,1.875,19.412,19.412,0,0,1-8.153-11.2V51.667a1.562,1.562,0,0,1-.681,1.315,1.844,1.844,0,0,1-1.1.536c-.268,0-.291-.075-.461-.855-.028-.071-.122-.146-.315-.217l-2.143-.634Z" transform="translate(151.335 94.896)" fill="#1a1311"/><path d="M60.06,34.58h2.509l.855-1.044L64.712,34.9a.692.692,0,0,1,.268.512c0,.146-.122.268-.319.291l-.362.075V50.11c0,.221-.1.343-.339.465a2.615,2.615,0,0,1-.9.291c-.146,0-.244-.1-.244-.291V48.6H59.942v2.655c0,.339-.563.681-1.146.681a.288.288,0,0,1-.315-.291V33.462Zm2.753.587H59.942v6.156h2.871Zm0,6.743H59.942v6.109h2.871Zm5.864,1.166h3.655c.41-1.41.461-1.631.8-3.092l1.674.587a.462.462,0,0,1,.319.437.548.548,0,0,1-.319.461l-.583.3-.973,1.312h3.43l1.024-1.241,1.461,1.146c.2.146.291.264.291.414a.3.3,0,0,1-.315.264H73.715V45.8h2.316l1-1.044,1.339.9c.2.122.291.244.291.39a.36.36,0,0,1-.39.343H73.715v2.336h2.316l1-1.048,1.339.878a.5.5,0,0,1,.315.437.35.35,0,0,1-.366.315h-4.6v2.532h2.97l1.41-1.485,1.757,1.386a.471.471,0,0,1,.24.39.279.279,0,0,1-.291.291H68.776V53.3c0,.291-.512.559-1.095.559-.169,0-.244-.075-.244-.221V44.926c-1.292,1.631-2.359,2.7-2.631,2.7a.168.168,0,0,1-.169-.169c0-.122.024-.146.488-.733a25.9,25.9,0,0,0,3.285-6.912l1.824.878a.468.468,0,0,1,.3.39c0,.169-.15.291-.339.339l-.681.169Zm2.288-10.709,1.367,1.071a.678.678,0,0,1,.291.488.364.364,0,0,1-.221.339l-.512.244v5.573c0,.268-.658.61-1.17.61-.169,0-.24-.1-.24-.3V38.818H66.051v-.583h4.431V36.384H66V35.8h4.482V33.875H68.749c-.7,0-1.335.024-2.97.075l-.287-.729c1.166.02,1.847.047,3.257.095H70.43Zm1.41,11.292h-3.6V45.8h3.6Zm0,2.729h-3.6v2.336h3.6Zm0,2.918h-3.6v2.532h3.6Zm.54-15.99h4.135l.658-.973,1.41,1.292a.673.673,0,0,1,.248.484.407.407,0,0,1-.343.366l-.39.047v5.333a.444.444,0,0,1-.343.461,4.3,4.3,0,0,1-.776.2c-.2,0-.291-.126-.291-.319V38.818H73.085v-.583h4.139V36.384H73.01V35.8h4.214V33.9H72.916Z" transform="translate(171.846 95.04)" fill="#1a1311"/><path d="M68.084,33.91h9.685l1.024-1.221,1.556,1.438a.914.914,0,0,1,.366.61.54.54,0,0,1-.366.437l-.386.146V50.8c0,.319-.658.607-1.39.607-.217,0-.362-.169-.362-.461V49.727H67.887v1.631a.648.648,0,0,1-.414.7,1.7,1.7,0,0,1-.827.221.453.453,0,0,1-.512-.512V32.764Zm10.126.583H67.891V41.5H78.209Zm0,7.593H67.891v7.058H78.209Z" transform="translate(194.334 96.056)" fill="#1a1311"/><path d="M57.046,48.611c-.268,0-1.052.024-2.2.051-.315.024-1.288.047-2.312.071l-.291-.827c2.946.071,3.289.1,4.8.122h4.671V41.675l2.143.146a.5.5,0,0,1,.484.414.587.587,0,0,1-.291.465l-.7.437v4.892h6.01l1.56-1.705,2.048,1.583a.481.481,0,0,1,.193.366c0,.217-.122.339-.3.339H63.394a18.735,18.735,0,0,0,10.658,9.858,5.217,5.217,0,0,0-2.143,1.9,21.744,21.744,0,0,1-8.562-10.22v12.58a.5.5,0,0,1-.244.488,3.794,3.794,0,0,1-1.146.244c-.169,0-.24-.1-.24-.268V51.411a31.144,31.144,0,0,1-6.38,7.278,15.387,15.387,0,0,1-3.647,2.481.259.259,0,0,1-.244-.244c0-.146.288-.414,1.119-1.071a32.746,32.746,0,0,0,8.515-11.244Z" transform="translate(151.171 122.462)" fill="#1a1311"/><path d="M60.06,44.023h2.509l.855-1.044,1.288,1.363a.692.692,0,0,1,.268.512c0,.146-.122.268-.319.291l-.362.075V59.553c0,.221-.1.343-.339.465a2.615,2.615,0,0,1-.9.291c-.146,0-.244-.1-.244-.291V58.044H59.942V60.7c0,.339-.563.681-1.146.681a.288.288,0,0,1-.315-.291V42.9Zm2.753.587H59.942v6.156h2.871Zm0,6.743H59.942v6.109h2.871Zm5.864,1.166h3.655c.41-1.41.461-1.631.8-3.092l1.674.587a.462.462,0,0,1,.319.437.548.548,0,0,1-.319.461l-.583.3-.973,1.312h3.43l1.024-1.241,1.461,1.146c.2.146.291.264.291.414a.3.3,0,0,1-.315.264H73.715v2.143h2.316l1-1.044,1.339.9c.2.122.291.244.291.39a.36.36,0,0,1-.39.343H73.715v2.336h2.316l1-1.048L78.366,58a.5.5,0,0,1,.315.437.35.35,0,0,1-.366.315h-4.6v2.532h2.97l1.41-1.485,1.757,1.386a.471.471,0,0,1,.24.39.279.279,0,0,1-.291.291H68.776v.878c0,.291-.512.559-1.095.559-.169,0-.244-.075-.244-.221V54.369c-1.292,1.631-2.359,2.7-2.631,2.7a.168.168,0,0,1-.169-.169c0-.122.024-.146.488-.733a25.9,25.9,0,0,0,3.285-6.912l1.824.878a.468.468,0,0,1,.3.39c0,.169-.15.291-.339.339l-.681.169ZM70.966,41.81l1.367,1.071a.678.678,0,0,1,.291.488.364.364,0,0,1-.221.339l-.512.244v5.573c0,.268-.658.61-1.17.61-.169,0-.24-.1-.24-.3V48.261H66.051v-.583h4.431V45.827H66V45.24h4.482V43.318H68.749c-.7,0-1.335.024-2.97.075l-.287-.729c1.166.02,1.847.047,3.257.095H70.43ZM72.376,53.1h-3.6v2.143h3.6Zm0,2.729h-3.6v2.336h3.6Zm0,2.918h-3.6v2.532h3.6Zm.54-15.99h4.135l.658-.973,1.41,1.292a.674.674,0,0,1,.248.484.407.407,0,0,1-.343.366l-.39.047v5.333a.444.444,0,0,1-.343.461,4.3,4.3,0,0,1-.776.2c-.2,0-.291-.126-.291-.319V48.261H73.085v-.583h4.139V45.827H73.01V45.24h4.214v-1.9H72.916Z" transform="translate(171.846 122.788)" fill="#1a1311"/><path d="M68.084,43.349h9.685l1.024-1.217,1.556,1.438a.907.907,0,0,1,.366.607.54.54,0,0,1-.366.437l-.386.146V60.241c0,.315-.658.607-1.39.607-.217,0-.362-.169-.362-.461V59.17H67.887V60.8a.648.648,0,0,1-.414.7,1.742,1.742,0,0,1-.827.217.45.45,0,0,1-.512-.508V42.2Zm10.126.583H67.891v7.011H78.209Zm0,7.593H67.891v7.058H78.209Z" transform="translate(194.334 123.805)" fill="#1a1311"/><path d="M63.514,51.937a.446.446,0,0,1,.291.39.331.331,0,0,1-.169.291l-.291.169c2.02,3.36,5.352,5.577,10.394,6.94-.221.146-.417.268-.465.291l-.654.366A4.753,4.753,0,0,0,71.6,61.48c-4.431-2.166-7.306-4.915-9.106-8.665a24.822,24.822,0,0,1-6.376,7.251,19.082,19.082,0,0,1-4.4,2.7.167.167,0,0,1-.173-.169c0-.169,0-.169.878-.8a26.724,26.724,0,0,0,8.834-10.709ZM61.446,64.764H56.283c-.922,0-1.725.024-3.891.095l-.244-.8c1,.024,2,.047,2.288.071.926.024,1.56.051,1.847.051h5.163V60.771H59.717c-1.024,0-1.512.028-2.922.075l-.264-.752,1.776.071c.607.024,1.119.024,1.434.024h4.915l1.292-1.532,1.824,1.438a.423.423,0,0,1,.2.362.316.316,0,0,1-.268.315H63.1v3.411h5.356l1.532-1.8,2.119,1.682a.615.615,0,0,1,.146.366.342.342,0,0,1-.291.339H63.1v6.668h1.973a40.024,40.024,0,0,0,2.434-5.841l1.871.949c.244.122.366.268.366.414a.588.588,0,0,1-.437.488l-.587.217-2.844,3.773H69.4l1.682-1.776,2.261,1.8a.383.383,0,0,1,.1.268c0,.146-.1.291-.2.291H56.4c-.291,0-1.044.028-2.162.051-.315.024-1.268.047-2.241.075l-.343-.831,2.56.075c1.044.024,2.115.047,2.237.047h4.99ZM55,65.836A6.058,6.058,0,0,1,57.307,67.1a3.42,3.42,0,0,1,1.217,2.387A1.186,1.186,0,0,1,57.48,70.8a.821.821,0,0,1-.658-.319c-.1-.169-.1-.169-.417-1.824a4.346,4.346,0,0,0-1.654-2.532Z" transform="translate(151.441 150.116)" fill="#1a1311"/><path d="M60.06,53.465h2.509l.855-1.044,1.288,1.363a.692.692,0,0,1,.268.512c0,.146-.122.268-.319.291l-.362.075V68.995c0,.221-.1.343-.339.465a2.615,2.615,0,0,1-.9.291c-.146,0-.244-.1-.244-.291V67.486H59.942v2.655c0,.339-.563.681-1.146.681a.288.288,0,0,1-.315-.291V52.347Zm2.753.587H59.942v6.156h2.871Zm0,6.743H59.942V66.9h2.871Zm5.864,1.166h3.655c.41-1.41.461-1.631.8-3.092l1.674.587a.462.462,0,0,1,.319.437.548.548,0,0,1-.319.461l-.583.3-.973,1.312h3.43l1.024-1.241,1.461,1.146c.2.146.291.264.291.414a.3.3,0,0,1-.315.264H73.715v2.143h2.316l1-1.044,1.339.9c.2.122.291.244.291.39a.36.36,0,0,1-.39.343H73.715v2.336h2.316l1-1.048,1.339.878a.5.5,0,0,1,.315.437.35.35,0,0,1-.366.315h-4.6v2.532h2.97l1.41-1.485,1.757,1.386a.471.471,0,0,1,.24.39.279.279,0,0,1-.291.291H68.776v.878c0,.291-.512.559-1.095.559-.169,0-.244-.075-.244-.221V63.812c-1.292,1.631-2.359,2.7-2.631,2.7a.168.168,0,0,1-.169-.169c0-.122.024-.146.488-.733A25.9,25.9,0,0,0,68.41,58.7l1.824.878a.468.468,0,0,1,.3.39c0,.169-.15.291-.339.339l-.681.169Zm2.288-10.709,1.367,1.071a.678.678,0,0,1,.291.488.364.364,0,0,1-.221.339l-.512.244v5.573c0,.268-.658.61-1.17.61-.169,0-.24-.1-.24-.3V57.7H66.051V57.12h4.431V55.269H66v-.587h4.482V52.76H68.749c-.7,0-1.335.024-2.97.075l-.287-.729c1.166.02,1.847.047,3.257.095H70.43Zm1.41,11.292h-3.6v2.143h3.6Zm0,2.729h-3.6v2.336h3.6Zm0,2.918h-3.6v2.532h3.6Zm.54-15.99h4.135l.658-.973,1.41,1.292a.673.673,0,0,1,.248.484.407.407,0,0,1-.343.366l-.39.047v5.333a.444.444,0,0,1-.343.461,4.307,4.307,0,0,1-.776.2c-.2,0-.291-.126-.291-.319V57.7H73.085V57.12h4.139V55.269H73.01v-.587h4.214v-1.9H72.916Z" transform="translate(171.846 150.533)" fill="#1a1311"/><path d="M68.084,52.791h9.685l1.024-1.217,1.556,1.438a.915.915,0,0,1,.366.607.54.54,0,0,1-.366.441l-.386.146V69.683c0,.315-.658.607-1.39.607-.217,0-.362-.169-.362-.461V68.612H67.887v1.631a.648.648,0,0,1-.414.705,1.748,1.748,0,0,1-.827.221.453.453,0,0,1-.512-.512V51.649Zm10.126.583H67.891v7.011H78.209Zm0,7.6H67.891v7.058H78.209Z" transform="translate(194.334 151.55)" fill="#1a1311"/><path d="M61.321,69.567H57.6c-.851,0-1.631.024-3.966.1l-.248-.8c2.655.1,3.363.122,4.214.122h3.722V60.658l2.194.244c.386.024.583.2.583.512,0,.193-.1.291-.488.559l-.512.315v6.7h5.089l1.508-1.827,2.02,1.753a.43.43,0,0,1,.173.339.292.292,0,0,1-.3.319H63.1V80.473H69.3l1.583-1.705,2.02,1.654a.511.511,0,0,1,.169.343.277.277,0,0,1-.268.291H56.331c-1.871,0-2.477.024-4.549.122l-.244-.855c2.19.122,2.8.15,4.793.15h4.99Z" transform="translate(151.444 178.243)" fill="#1a1311"/><path d="M60.06,62.908h2.509l.855-1.044,1.288,1.363a.692.692,0,0,1,.268.512c0,.146-.122.268-.319.291l-.362.075V78.438c0,.221-.1.343-.339.465a2.615,2.615,0,0,1-.9.291c-.146,0-.244-.1-.244-.291V76.929H59.942v2.655c0,.339-.563.681-1.146.681a.288.288,0,0,1-.315-.291V61.79Zm2.753.587H59.942v6.156h2.871Zm0,6.743H59.942v6.109h2.871ZM68.678,71.4h3.655c.41-1.41.461-1.631.8-3.092l1.674.587a.462.462,0,0,1,.319.437.548.548,0,0,1-.319.461l-.583.3L73.254,71.4h3.43l1.024-1.241,1.461,1.146c.2.146.291.264.291.414a.3.3,0,0,1-.315.264H73.715v2.143h2.316l1-1.044,1.339.9c.2.122.291.244.291.39a.36.36,0,0,1-.39.343H73.715v2.336h2.316l1-1.048,1.339.878a.5.5,0,0,1,.315.437.35.35,0,0,1-.366.315h-4.6v2.532h2.97l1.41-1.485,1.757,1.386a.471.471,0,0,1,.24.39.279.279,0,0,1-.291.291H68.776v.878c0,.291-.512.559-1.095.559-.169,0-.244-.075-.244-.221V73.255c-1.292,1.631-2.359,2.7-2.631,2.7a.168.168,0,0,1-.169-.169c0-.122.024-.146.488-.733a25.9,25.9,0,0,0,3.285-6.912l1.824.878a.468.468,0,0,1,.3.39c0,.169-.15.291-.339.339l-.681.169Zm2.288-10.709,1.367,1.071a.678.678,0,0,1,.291.488.364.364,0,0,1-.221.339l-.512.244V68.41c0,.268-.658.61-1.17.61-.169,0-.24-.1-.24-.3V67.146H66.051v-.583h4.431V64.712H66v-.587h4.482V62.2H68.749c-.7,0-1.335.024-2.97.075l-.287-.729c1.166.02,1.847.047,3.257.095H70.43Zm1.41,11.292h-3.6v2.143h3.6Zm0,2.729h-3.6v2.336h3.6Zm0,2.918h-3.6v2.532h3.6Zm.54-15.99h4.135l.658-.973,1.41,1.292a.673.673,0,0,1,.248.484.407.407,0,0,1-.343.366l-.39.047v5.333a.444.444,0,0,1-.343.461,4.305,4.305,0,0,1-.776.2c-.2,0-.291-.126-.291-.319V67.146H73.085v-.583h4.139V64.712H73.01v-.587h4.214v-1.9H72.916Z" transform="translate(171.846 178.281)" fill="#1a1311"/><path d="M68.084,62.234h9.685l1.024-1.217,1.556,1.434a.922.922,0,0,1,.366.61.54.54,0,0,1-.366.437l-.386.146V79.122c0,.319-.658.61-1.39.61-.217,0-.362-.169-.362-.465V78.051H67.887v1.631a.65.65,0,0,1-.414.709,1.741,1.741,0,0,1-.827.217.453.453,0,0,1-.512-.512V61.088Zm10.126.583H67.891v7.011H78.209Zm0,7.593H67.891v7.058H78.209Z" transform="translate(194.334 179.298)" fill="#1a1311"/><path d="M111.893,20.549a44.621,44.621,0,0,1,5.037-6.475c2.119-2.41,2.777-3.8,2.777-5.746,0-2.162-1-3.43-2.678-3.43a3.592,3.592,0,0,0-2.213.756,1.948,1.948,0,0,0-.634,1.119c0,.2.075.319.461.827a1.874,1.874,0,0,1,.563,1.292,1.324,1.324,0,0,1-1.315,1.363,1.765,1.765,0,0,1-1.56-1.9c0-2.288,2.339-4.285,5.018-4.285a4.362,4.362,0,0,1,4.624,4.356,4.943,4.943,0,0,1-.705,2.532c-.488.878-.488.878-2.631,2.97-3.021,2.871-4.112,4.112-5.333,6.085h5.069c1.725,0,2.139-.343,3.4-2.749l.729.244-1.339,4.234h-9.271Z" transform="translate(328.797 11.96)" fill="#1a1311"/><path d="M117.345,6.065h3.041l.729-1.1L122.6,6.55a.646.646,0,0,1,.193.39c0,.1-.122.217-.291.268l-.437.122V21.614a.519.519,0,0,1-.39.559,2.333,2.333,0,0,1-.752.173c-.221,0-.366-.1-.366-.268V20.106h-3.312v3.021a.515.515,0,0,1-.291.508,2.1,2.1,0,0,1-.874.244.347.347,0,0,1-.362-.315V5.112Zm3.21.583h-3.312v6.109h3.312Zm0,6.692h-3.312V19.5h3.312Zm1.8-1.922c2.237.1,3.143.122,4.234.122h1.119V7.912h-1.335c-1.048,0-1.583.024-3.017.075l-.319-.756c1.631.075,2.194.1,3.336.1h1.335V3.458l2.048.244c.366.047.563.221.563.488,0,.146-.126.291-.323.437l-.677.437V7.33H132.6l1.461-1.658,1.8,1.536c.217.169.268.268.268.39,0,.193-.146.315-.414.315h-6.4V11.54h4.258l1.532-1.753,1.78,1.536a.708.708,0,0,1,.291.484c0,.221-.146.315-.417.315h-3.84v3.383h1.142l1.315-1.485,1.556,1.315a.665.665,0,0,1,.291.488c0,.169-.1.264-.291.264h-4.013v7.4c0,.512-.2.8-.831,1.241a1.552,1.552,0,0,1-.874.39c-.291,0-.414-.146-.465-.508-.075-.61-.075-.61-.756-.807L128.1,23.32v-.536l2.19.1.386.024h.173c.315,0,.461-.193.461-.634V16.089h-4.62c-1.122,0-1.95.028-3.97.1l-.268-.8c2.119.1,2.97.122,4.238.122h4.62V12.123h-4.722c-1.02,0-1.871.028-3.966.1Zm1.485,5.573a5.98,5.98,0,0,1,2.58,1.241,2.947,2.947,0,0,1,1.217,2.044,1.044,1.044,0,0,1-1.02,1.1c-.414,0-.61-.2-.729-.756a5.049,5.049,0,0,0-2.1-3.285Z" transform="translate(340.025 10.161)" fill="#1a1311"/><path d="M124.09,4.584h3.458l.63-.949,1.8,1.485a.579.579,0,0,1,.24.39c0,.193-.193.339-.488.339h-.63c-.874,1.682-.949,1.851-2.8,5.089,2.194,2.336,3.021,4.017,3.021,6.132a3.136,3.136,0,0,1-.949,2.678,2.75,2.75,0,0,1-1.611.7c-.358,0-.5-.193-.532-.634-.024-.583-.075-.658-.681-.8l-1-.217v-.39l1,.024.607.024c1.221,0,1.631-.484,1.631-1.9a7.11,7.11,0,0,0-1.067-3.8,9.418,9.418,0,0,0-.949-1.315c-.169-.217-.169-.217-.319-.433.953-2.655,1.312-3.726,1.926-5.845H123.7V24.249c0,.268-.583.583-1.044.583-.221,0-.441-.118-.441-.24V3.564Zm8.5,0H138.3l.827-.949,1.631,1.193a.58.58,0,0,1,.291.437c0,.169-.146.315-.461.414l-.414.146v8.2c0,.315-.536.607-1.17.607-.244,0-.39-.122-.39-.291v-.7h-3.454a14.546,14.546,0,0,0,1.8,4.21,35.237,35.237,0,0,0,4.112-3.868l1.39,1.213a.674.674,0,0,1,.24.465c0,.217-.24.366-.607.366h-.752c-1.827,1-2.41,1.312-4.163,2.162a13.64,13.64,0,0,0,5.939,4.482,6.724,6.724,0,0,0-1.946,1.654c-3.434-2.265-5.4-5.478-6.55-10.685h-2.335V21.6c1.973-.343,2.335-.414,4.746-.973l.024.339c-2.678,1.119-3.872,1.607-6.569,2.58l-.291.756a.416.416,0,0,1-.343.291c-.1,0-.169-.075-.268-.221l-1.489-2.19c1.343-.146,1.536-.169,2.706-.366V3.635Zm6.034.583h-6.325v3.58h6.325Zm0,4.163h-6.325v3.726h6.325Z" transform="translate(359.128 10.473)" fill="#1a1311"/><path d="M134.442,12.114c.536.024.607.024.78.024,2.458,0,3.4-1,3.4-3.627,0-2.359-.9-3.623-2.6-3.623a1.968,1.968,0,0,0-2.142,1.631,1.909,1.909,0,0,0,.173.634,2.238,2.238,0,0,1,.169.8,1.229,1.229,0,0,1-1.213,1.268c-.8,0-1.339-.634-1.339-1.583,0-1.922,2.115-3.553,4.647-3.553a4.188,4.188,0,0,1,4.431,4.187,4.412,4.412,0,0,1-1.315,3.163,5.157,5.157,0,0,1-2.143,1.146,4.754,4.754,0,0,1,2.993,1.6,4.346,4.346,0,0,1,.973,2.8A5.081,5.081,0,0,1,135.875,22c-2.481,0-4.718-1.631-4.718-3.454a1.553,1.553,0,0,1,1.485-1.658,1.173,1.173,0,0,1,1.217,1.292,3.226,3.226,0,0,1-.319,1.193,1.748,1.748,0,0,0-.047.315c0,.78,1.118,1.508,2.359,1.508,2.02,0,3.139-1.485,3.139-4.21s-1.189-4.088-3.6-4.088c-.2,0-.366,0-.949.024Z" transform="translate(385.404 11.998)" fill="#1a1311"/><path d="M136.511,6.065h3.04l.733-1.1,1.485,1.583a.646.646,0,0,1,.193.39c0,.1-.122.217-.291.268l-.437.122V21.614a.523.523,0,0,1-.39.559,2.354,2.354,0,0,1-.756.173c-.221,0-.366-.1-.366-.268V20.106h-3.308v3.021a.521.521,0,0,1-.291.508,2.121,2.121,0,0,1-.878.244.349.349,0,0,1-.362-.315V5.112Zm3.21.583h-3.308v6.109h3.308Zm0,6.692h-3.308V19.5h3.308Zm1.8-1.922c2.237.1,3.139.122,4.234.122h1.119V7.912h-1.335c-1.048,0-1.583.024-3.021.075l-.315-.756c1.631.075,2.19.1,3.336.1h1.335V3.458l2.044.244c.366.047.563.221.563.488,0,.146-.126.291-.319.437l-.677.437V7.33h3.285l1.461-1.658,1.8,1.536c.217.169.264.268.264.39,0,.193-.146.315-.41.315h-6.4V11.54h4.257l1.532-1.753,1.78,1.536a.723.723,0,0,1,.291.484c0,.221-.146.315-.417.315h-3.844v3.383h1.146l1.312-1.485,1.556,1.315a.653.653,0,0,1,.291.488c0,.169-.094.264-.291.264h-4.013v7.4c0,.512-.2.8-.827,1.241a1.57,1.57,0,0,1-.878.39c-.291,0-.41-.146-.461-.508-.075-.61-.075-.61-.756-.807l-1.9-.484v-.536l2.194.1.386.024h.169c.315,0,.461-.193.461-.634V16.089h-4.62c-1.123,0-1.946.028-3.966.1l-.272-.8c2.123.1,2.97.122,4.238.122h4.62V12.123h-4.718c-1.024,0-1.871.028-3.97.1Zm1.485,5.573a6,6,0,0,1,2.58,1.241,2.947,2.947,0,0,1,1.217,2.044,1.048,1.048,0,0,1-1.024,1.1c-.41,0-.607-.2-.729-.756a5.02,5.02,0,0,0-2.1-3.285Z" transform="translate(396.344 10.161)" fill="#1a1311"/><path d="M143.257,4.584h3.454l.634-.949,1.8,1.485a.586.586,0,0,1,.244.39c0,.193-.193.339-.488.339h-.634c-.87,1.682-.945,1.851-2.8,5.089,2.19,2.336,3.017,4.017,3.017,6.132a3.146,3.146,0,0,1-.945,2.678,2.76,2.76,0,0,1-1.611.7c-.362,0-.508-.193-.532-.634-.028-.583-.075-.658-.681-.8l-1-.217v-.39l1,.024.607.024c1.217,0,1.631-.484,1.631-1.9a7.114,7.114,0,0,0-1.071-3.8,9.4,9.4,0,0,0-.949-1.315c-.169-.217-.169-.217-.319-.433.953-2.655,1.315-3.726,1.926-5.845h-3.675V24.249c0,.268-.583.583-1.048.583-.217,0-.437-.118-.437-.24V3.564Zm8.491,0h5.719l.831-.949,1.631,1.193a.591.591,0,0,1,.291.437c0,.169-.146.315-.465.414l-.41.146v8.2c0,.315-.536.607-1.17.607-.244,0-.39-.122-.39-.291v-.7h-3.458a14.545,14.545,0,0,0,1.8,4.21,35.267,35.267,0,0,0,4.116-3.868l1.39,1.213a.674.674,0,0,1,.24.465c0,.217-.24.366-.607.366h-.756c-1.824,1-2.41,1.312-4.163,2.162a13.64,13.64,0,0,0,5.939,4.482,6.725,6.725,0,0,0-1.946,1.654c-3.43-2.265-5.4-5.478-6.546-10.685h-2.339V21.6c1.973-.343,2.339-.414,4.746-.973l.028.339c-2.678,1.119-3.871,1.607-6.573,2.58l-.291.756c-.075.169-.193.291-.339.291-.1,0-.173-.075-.272-.221l-1.485-2.19c1.339-.146,1.536-.169,2.7-.366V3.635Zm6.038.583h-6.329v3.58h6.329Zm0,4.163h-6.329v3.726h6.329Z" transform="translate(415.45 10.473)" fill="#1a1311"/><path d="M158.036,4.076h.705V16.683h2.265v.78h-2.265v1.729c-.02,1.41.315,1.7,2.02,1.7v.827h-6.743v-.827l.291-.024h.512c1.682-.047,2.048-.366,2.02-1.631V17.463h-6.861v-.587Zm-1.193,12.607V7.337l-5.987,9.346Z" transform="translate(440.721 11.977)" fill="#1a1311"/><path d="M155.495,6.065h3.041l.732-1.1,1.485,1.583a.646.646,0,0,1,.193.39c0,.1-.122.217-.291.268l-.437.122V21.614a.523.523,0,0,1-.39.559,2.356,2.356,0,0,1-.756.173c-.221,0-.366-.1-.366-.268V20.106H155.4v3.021a.521.521,0,0,1-.292.508,2.12,2.12,0,0,1-.878.244.349.349,0,0,1-.362-.315V5.112Zm3.21.583H155.4v6.109H158.7Zm0,6.692H155.4V19.5H158.7Zm1.8-1.922c2.237.1,3.139.122,4.234.122h1.118V7.912h-1.335c-1.048,0-1.583.024-3.021.075l-.315-.756c1.631.075,2.19.1,3.336.1h1.335V3.458L167.9,3.7c.366.047.563.221.563.488,0,.146-.126.291-.319.437l-.677.437V7.33h3.285l1.461-1.658,1.8,1.536c.217.169.264.268.264.39,0,.193-.146.315-.41.315h-6.4V11.54h4.257l1.532-1.753,1.78,1.536a.723.723,0,0,1,.291.484c0,.221-.146.315-.417.315h-3.844v3.383h1.146l1.311-1.485,1.556,1.315a.653.653,0,0,1,.291.488c0,.169-.095.264-.291.264h-4.013v7.4c0,.512-.2.8-.827,1.241a1.57,1.57,0,0,1-.878.39c-.291,0-.41-.146-.461-.508-.075-.61-.075-.61-.756-.807l-1.9-.484v-.536l2.194.1.386.024H169c.315,0,.461-.193.461-.634V16.089h-4.62c-1.122,0-1.946.028-3.966.1l-.272-.8c2.123.1,2.97.122,4.238.122h4.62V12.123h-4.718c-1.024,0-1.871.028-3.97.1Zm1.485,5.573a6,6,0,0,1,2.58,1.241,2.947,2.947,0,0,1,1.217,2.044,1.048,1.048,0,0,1-1.024,1.1c-.41,0-.607-.2-.729-.756a5.02,5.02,0,0,0-2.1-3.285Z" transform="translate(452.129 10.161)" fill="#1a1311"/><path d="M162.237,4.584h3.458l.63-.949,1.8,1.485a.586.586,0,0,1,.244.39c0,.193-.2.339-.488.339h-.63c-.878,1.682-.953,1.851-2.8,5.089,2.19,2.336,3.017,4.017,3.017,6.132a3.136,3.136,0,0,1-.949,2.678,2.741,2.741,0,0,1-1.607.7c-.362,0-.508-.193-.536-.634-.024-.583-.071-.658-.681-.8l-1-.217v-.39l1,.024.61.024c1.217,0,1.631-.484,1.631-1.9a7.08,7.08,0,0,0-1.071-3.8,9.418,9.418,0,0,0-.949-1.315,4.986,4.986,0,0,1-.315-.433c.949-2.655,1.311-3.726,1.922-5.845h-3.675V24.249c0,.268-.587.583-1.048.583-.221,0-.437-.118-.437-.24V3.564Zm8.5,0h5.723l.823-.949,1.634,1.193a.591.591,0,0,1,.291.437c0,.169-.146.315-.461.414l-.418.146v8.2c0,.315-.536.607-1.17.607-.24,0-.386-.122-.386-.291v-.7h-3.454a14.332,14.332,0,0,0,1.8,4.21,35.868,35.868,0,0,0,4.112-3.868l1.386,1.213a.68.68,0,0,1,.244.465c0,.217-.244.366-.61.366H179.5c-1.827,1-2.406,1.312-4.163,2.162a13.64,13.64,0,0,0,5.939,4.482,6.725,6.725,0,0,0-1.946,1.654c-3.434-2.265-5.4-5.478-6.55-10.685h-2.336V21.6c1.973-.343,2.336-.414,4.746-.973l.024.339c-2.678,1.119-3.868,1.607-6.569,2.58l-.291.756a.416.416,0,0,1-.343.291c-.095,0-.169-.075-.264-.221l-1.489-2.19c1.343-.146,1.532-.169,2.7-.366V3.635Zm6.038.583h-6.325v3.58h6.325Zm0,4.163h-6.325v3.726h6.325Z" transform="translate(471.235 10.473)" fill="#1a1311"/><path d="M174.766,12.316a5.427,5.427,0,0,1,3.82-1.631c2.824,0,4.7,2.166,4.7,5.4,0,3.454-2.17,5.719-5.482,5.719-2.529,0-4.573-1.457-4.573-3.261a1.386,1.386,0,0,1,1.339-1.461A1.514,1.514,0,0,1,176,18.57a.966.966,0,0,1-.169.61.794.794,0,0,0-.118.414c0,.827.874,1.434,2.072,1.434,2.115,0,3.379-1.847,3.379-4.915,0-2.8-1.115-4.332-3.143-4.332a4.4,4.4,0,0,0-3.336,1.753l-.721-.24.9-9.129H182.6l-.264,1.753h-6.884Z" transform="translate(509.035 12.233)" fill="#1a1311"/><path d="M178.528,6.065h3.04l.729-1.1,1.485,1.583a.646.646,0,0,1,.193.39c0,.1-.122.217-.292.268l-.437.122V21.614a.519.519,0,0,1-.39.559,2.334,2.334,0,0,1-.752.173c-.221,0-.366-.1-.366-.268V20.106h-3.312v3.021a.515.515,0,0,1-.291.508,2.1,2.1,0,0,1-.874.244.346.346,0,0,1-.362-.315V5.112Zm3.21.583h-3.312v6.109h3.312Zm0,6.692h-3.312V19.5h3.312Zm1.8-1.922c2.237.1,3.143.122,4.234.122h1.119V7.912h-1.335c-1.048,0-1.583.024-3.017.075l-.319-.756c1.631.075,2.194.1,3.336.1h1.335V3.458l2.048.244c.366.047.563.221.563.488,0,.146-.126.291-.323.437l-.677.437V7.33h3.285l1.461-1.658,1.8,1.536c.217.169.268.268.268.39,0,.193-.146.315-.414.315h-6.4V11.54h4.258l1.532-1.753,1.78,1.536a.708.708,0,0,1,.291.484c0,.221-.146.315-.418.315H194.1v3.383h1.142l1.315-1.485,1.556,1.315a.665.665,0,0,1,.291.488c0,.169-.1.264-.291.264H194.1v7.4c0,.512-.2.8-.831,1.241a1.551,1.551,0,0,1-.874.39c-.291,0-.414-.146-.465-.508-.075-.61-.075-.61-.756-.807l-1.894-.484v-.536l2.19.1.386.024h.173c.315,0,.461-.193.461-.634V16.089h-4.62c-1.122,0-1.95.028-3.97.1l-.268-.8c2.119.1,2.97.122,4.238.122h4.62V12.123h-4.722c-1.02,0-1.871.028-3.966.1Zm1.485,5.573a5.981,5.981,0,0,1,2.58,1.241,2.947,2.947,0,0,1,1.217,2.044,1.045,1.045,0,0,1-1.02,1.1c-.414,0-.61-.2-.729-.756a5.049,5.049,0,0,0-2.1-3.285Z" transform="translate(519.811 10.161)" fill="#1a1311"/><path d="M185.27,4.584h3.458l.63-.949,1.8,1.485a.572.572,0,0,1,.244.39c0,.193-.2.339-.488.339h-.63c-.878,1.682-.949,1.851-2.8,5.089,2.19,2.336,3.017,4.017,3.017,6.132a3.136,3.136,0,0,1-.949,2.678,2.731,2.731,0,0,1-1.607.7c-.362,0-.508-.193-.536-.634-.024-.583-.071-.658-.681-.8l-.992-.217v-.39l.992.024.61.024c1.217,0,1.631-.484,1.631-1.9a7.08,7.08,0,0,0-1.071-3.8,9.419,9.419,0,0,0-.949-1.315,4.99,4.99,0,0,1-.315-.433c.949-2.655,1.312-3.726,1.922-5.845h-3.675V24.249c0,.268-.587.583-1.048.583-.221,0-.437-.118-.437-.24V3.564Zm8.5,0h5.719l.827-.949,1.631,1.193a.58.58,0,0,1,.292.437c0,.169-.146.315-.461.414l-.418.146v8.2c0,.315-.532.607-1.17.607-.24,0-.386-.122-.386-.291v-.7h-3.454a14.439,14.439,0,0,0,1.8,4.21,35.87,35.87,0,0,0,4.112-3.868l1.386,1.213a.68.68,0,0,1,.244.465c0,.217-.244.366-.607.366h-.756c-1.827,1-2.406,1.312-4.159,2.162A13.606,13.606,0,0,0,204.3,22.67a6.781,6.781,0,0,0-1.946,1.654c-3.434-2.265-5.4-5.478-6.55-10.685h-2.336V21.6c1.973-.343,2.336-.414,4.746-.973l.024.339c-2.674,1.119-3.868,1.607-6.569,2.58l-.291.756a.411.411,0,0,1-.343.291c-.095,0-.169-.075-.264-.221l-1.489-2.19c1.343-.146,1.536-.169,2.7-.366V3.635Zm6.034.583h-6.325v3.58H199.8Zm0,4.163h-6.325v3.726H199.8Z" transform="translate(538.917 10.473)" fill="#1a1311"/><path d="M198.109,11.007c2.6,0,4.407,2.068,4.407,5.065a6.98,6.98,0,0,1-1.682,4.647,4.419,4.419,0,0,1-3.21,1.288c-3.289,0-5.53-3.332-5.53-8.275,0-5.549,2.777-9.637,6.573-9.637,1.969,0,3.557,1.119,3.557,2.509A1.1,1.1,0,0,1,201,7.722c-.851,0-1.213-.414-1.457-1.631-.173-.949-.488-1.217-1.39-1.217-1.335,0-2.58,1.288-3.21,3.407a17.991,17.991,0,0,0-.634,4.868c1.264-1.532,2.312-2.143,3.8-2.143m-3.482,7.133c.465,1.946,1.583,3.115,2.97,3.115,1.705,0,2.7-1.705,2.7-4.6,0-2.871-.926-4.309-2.749-4.309a3.015,3.015,0,0,0-2,.756,7.092,7.092,0,0,0-1.241,1.41,14.046,14.046,0,0,0,.315,3.627" transform="translate(564.47 12.033)" fill="#1a1311"/><path d="M197.54,6.065h3.041l.733-1.1L202.8,6.55a.646.646,0,0,1,.193.39c0,.1-.122.217-.291.268l-.437.122V21.614a.523.523,0,0,1-.39.559,2.355,2.355,0,0,1-.756.173c-.221,0-.366-.1-.366-.268V20.106h-3.308v3.021a.521.521,0,0,1-.291.508,2.12,2.12,0,0,1-.878.244.349.349,0,0,1-.362-.315V5.112Zm3.21.583h-3.308v6.109h3.308Zm0,6.692h-3.308V19.5h3.308Zm1.8-1.922c2.237.1,3.139.122,4.234.122h1.119V7.912h-1.335c-1.048,0-1.583.024-3.021.075l-.315-.756c1.631.075,2.19.1,3.336.1h1.335V3.458l2.044.244c.366.047.563.221.563.488,0,.146-.126.291-.319.437l-.677.437V7.33H212.8l1.461-1.658,1.8,1.536c.217.169.264.268.264.39,0,.193-.146.315-.41.315h-6.4V11.54h4.258l1.532-1.753,1.78,1.536a.723.723,0,0,1,.291.484c0,.221-.146.315-.418.315h-3.844v3.383h1.146l1.311-1.485,1.556,1.315a.653.653,0,0,1,.291.488c0,.169-.095.264-.291.264h-4.013v7.4c0,.512-.2.8-.827,1.241a1.57,1.57,0,0,1-.878.39c-.291,0-.41-.146-.461-.508-.075-.61-.075-.61-.756-.807l-1.9-.484v-.536l2.194.1.386.024h.169c.315,0,.461-.193.461-.634V16.089h-4.62c-1.122,0-1.946.028-3.966.1l-.272-.8c2.123.1,2.97.122,4.238.122h4.62V12.123h-4.718c-1.024,0-1.871.028-3.97.1Zm1.485,5.573a6,6,0,0,1,2.58,1.241,2.947,2.947,0,0,1,1.217,2.044,1.048,1.048,0,0,1-1.024,1.1c-.41,0-.607-.2-.729-.756a5.02,5.02,0,0,0-2.1-3.285Z" transform="translate(575.678 10.161)" fill="#1a1311"/><path d="M204.285,4.584h3.458l.63-.949,1.8,1.485a.586.586,0,0,1,.244.39c0,.193-.2.339-.488.339h-.63c-.878,1.682-.953,1.851-2.8,5.089,2.19,2.336,3.017,4.017,3.017,6.132a3.136,3.136,0,0,1-.949,2.678,2.741,2.741,0,0,1-1.607.7c-.362,0-.508-.193-.536-.634-.024-.583-.075-.658-.681-.8l-1-.217v-.39l1,.024.607.024c1.221,0,1.635-.484,1.635-1.9a7.115,7.115,0,0,0-1.071-3.8,9.418,9.418,0,0,0-.949-1.315,5.016,5.016,0,0,1-.315-.433c.949-2.655,1.311-3.726,1.922-5.845h-3.679V24.249c0,.268-.583.583-1.044.583-.221,0-.441-.118-.441-.24V3.564Zm8.5,0H218.5l.827-.949,1.631,1.193a.587.587,0,0,1,.3.437c0,.169-.146.315-.461.414l-.417.146v8.2c0,.315-.536.607-1.17.607-.24,0-.386-.122-.386-.291v-.7h-3.454a14.333,14.333,0,0,0,1.8,4.21,35.872,35.872,0,0,0,4.112-3.868l1.386,1.213a.68.68,0,0,1,.244.465c0,.217-.244.366-.61.366h-.752c-1.827,1-2.406,1.312-4.163,2.162a13.64,13.64,0,0,0,5.939,4.482,6.724,6.724,0,0,0-1.946,1.654c-3.434-2.265-5.4-5.478-6.55-10.685h-2.336V21.6c1.973-.343,2.336-.414,4.746-.973l.024.339c-2.678,1.119-3.868,1.607-6.569,2.58l-.291.756a.416.416,0,0,1-.343.291c-.095,0-.169-.075-.264-.221l-1.489-2.19c1.339-.146,1.532-.169,2.7-.366V3.635Zm6.038.583h-6.325v3.58h6.325Zm0,4.163h-6.325v3.726h6.325Z" transform="translate(594.781 10.473)" fill="#1a1311"/><path d="M212.643,4.157h9.125V5.228c-3.99,6.01-5.155,8.98-5.155,13.1,0,.607,0,.607.071,1.7v.366c0,.973-.512,1.607-1.292,1.607-.9,0-1.359-.685-1.359-1.973a13.8,13.8,0,0,1,1.213-5.061,48.61,48.61,0,0,1,5.207-9.082h-5.1c-1.658.028-2.269.54-3.336,2.851l-.709-.343Z" transform="translate(620.916 12.215)" fill="#1a1311"/><path d="M216.617,6.065h3.04l.729-1.1,1.485,1.583a.646.646,0,0,1,.193.39c0,.1-.122.217-.291.268l-.437.122V21.614a.519.519,0,0,1-.39.559,2.333,2.333,0,0,1-.752.173c-.221,0-.366-.1-.366-.268V20.106h-3.312v3.021a.515.515,0,0,1-.291.508,2.1,2.1,0,0,1-.874.244.347.347,0,0,1-.362-.315V5.112Zm3.21.583h-3.312v6.109h3.312Zm0,6.692h-3.312V19.5h3.312Zm1.8-1.922c2.237.1,3.143.122,4.234.122h1.119V7.912h-1.335c-1.048,0-1.583.024-3.017.075l-.319-.756c1.631.075,2.194.1,3.336.1h1.335V3.458l2.048.244c.366.047.563.221.563.488,0,.146-.126.291-.323.437l-.677.437V7.33h3.285l1.461-1.658,1.8,1.536c.217.169.268.268.268.39,0,.193-.146.315-.414.315h-6.4V11.54h4.258l1.532-1.753,1.78,1.536a.708.708,0,0,1,.291.484c0,.221-.146.315-.418.315h-3.84v3.383h1.142l1.315-1.485,1.556,1.315a.665.665,0,0,1,.291.488c0,.169-.1.264-.291.264h-4.013v7.4c0,.512-.2.8-.831,1.241a1.552,1.552,0,0,1-.874.39c-.291,0-.414-.146-.465-.508-.075-.61-.075-.61-.756-.807l-1.894-.484v-.536l2.19.1.386.024h.173c.315,0,.461-.193.461-.634V16.089h-4.62c-1.122,0-1.95.028-3.97.1l-.268-.8c2.119.1,2.97.122,4.238.122h4.62V12.123H225.86c-1.02,0-1.871.028-3.966.1Zm1.485,5.573a5.98,5.98,0,0,1,2.58,1.241,2.947,2.947,0,0,1,1.217,2.044,1.045,1.045,0,0,1-1.02,1.1c-.414,0-.61-.2-.729-.756a5.05,5.05,0,0,0-2.1-3.285Z" transform="translate(631.735 10.161)" fill="#1a1311"/><path d="M223.359,4.584h3.458l.63-.949,1.8,1.485a.586.586,0,0,1,.244.39c0,.193-.2.339-.488.339h-.63c-.878,1.682-.953,1.851-2.8,5.089,2.19,2.336,3.017,4.017,3.017,6.132a3.136,3.136,0,0,1-.949,2.678,2.741,2.741,0,0,1-1.607.7c-.362,0-.508-.193-.536-.634-.024-.583-.071-.658-.681-.8l-1-.217v-.39l1,.024.61.024c1.217,0,1.631-.484,1.631-1.9a7.08,7.08,0,0,0-1.071-3.8,9.419,9.419,0,0,0-.949-1.315,5.016,5.016,0,0,1-.315-.433c.949-2.655,1.312-3.726,1.922-5.845h-3.675V24.249c0,.268-.587.583-1.048.583-.221,0-.437-.118-.437-.24V3.564Zm8.5,0h5.723l.827-.949,1.631,1.193a.591.591,0,0,1,.291.437c0,.169-.146.315-.461.414l-.418.146v8.2c0,.315-.536.607-1.17.607-.24,0-.386-.122-.386-.291v-.7h-3.454a14.332,14.332,0,0,0,1.8,4.21,35.873,35.873,0,0,0,4.112-3.868l1.386,1.213a.68.68,0,0,1,.244.465c0,.217-.244.366-.61.366h-.752c-1.827,1-2.406,1.312-4.163,2.162a13.64,13.64,0,0,0,5.939,4.482,6.723,6.723,0,0,0-1.946,1.654c-3.434-2.265-5.4-5.478-6.55-10.685h-2.336V21.6c1.973-.343,2.336-.414,4.746-.973l.024.339c-2.678,1.119-3.868,1.607-6.569,2.58l-.292.756a.415.415,0,0,1-.343.291c-.094,0-.169-.075-.264-.221l-1.489-2.19c1.343-.146,1.532-.169,2.7-.366V3.635Zm6.038.583h-6.325v3.58h6.325Zm0,4.163h-6.325v3.726h6.325Z" transform="translate(650.841 10.473)" fill="#1a1311"/><path d="M242.725,80.875l-.76-.76,7.68-7.649-7.68-7.653.76-.756,7.652,7.672,7.653-7.672.756.756-7.676,7.653,7.676,7.649-.756.76L250.378,73.2Zm3.186-8.409a1.973,1.973,0,1,1-1.961-1.961,1.966,1.966,0,0,1,1.961,1.961m6.424-6.428a1.96,1.96,0,1,1-1.957-1.981,1.968,1.968,0,0,1,1.957,1.981m0,12.851a1.959,1.959,0,1,1-1.957-1.961,1.953,1.953,0,0,1,1.957,1.961m6.451-6.424a1.973,1.973,0,1,1-1.985-1.961,1.976,1.976,0,0,1,1.985,1.961" transform="translate(711.013 188.234)" fill="#1a1311"/><path d="M247.258,81.685c.355-4.108,2.879-5.833,7.2-8.287,2.572-1.469,3.73-2.107,3.73-4.277,0-2.718-2.217-3.379-3.824-3.379-4.065,0-4.25,3.423-4.3,4.348h-2.245a6.326,6.326,0,0,1,1.532-4.159,6.769,6.769,0,0,1,4.962-1.957c2.458,0,6,1.13,6,5.026,0,3.052-1.772,4.348-4.935,6.026-4.348,2.312-4.935,3.8-5.411,4.888h10.346v1.772Z" transform="translate(726.566 187.987)" fill="#1a1311"/><path d="M257.652,82.158c-5.289,0-6.542-4.746-6.542-9.094s1.252-9.09,6.542-9.09,6.518,4.793,6.518,9.09c0,4.321-1.225,9.094-6.518,9.094m0-16.416c-3.375,0-4.3,3.45-4.3,7.322,0,4.041.992,7.322,4.3,7.322,3.332,0,4.3-3.3,4.3-7.322,0-3.99-.969-7.322-4.3-7.322" transform="translate(737.885 187.987)" fill="#1a1311"/><path d="M254.818,81.685c.355-4.108,2.879-5.833,7.2-8.287,2.572-1.469,3.73-2.107,3.73-4.277,0-2.718-2.217-3.379-3.824-3.379-4.064,0-4.25,3.423-4.3,4.348h-2.245a6.325,6.325,0,0,1,1.532-4.159,6.77,6.77,0,0,1,4.962-1.957c2.458,0,6,1.13,6,5.026,0,3.052-1.772,4.348-4.935,6.026-4.348,2.312-4.935,3.8-5.412,4.888h10.346v1.772Z" transform="translate(748.781 187.987)" fill="#1a1311"/><path d="M265.188,82.158a6.3,6.3,0,0,1-5.431-2.339,6.186,6.186,0,0,1-1.087-3.45h2.15c.067.9.284,4.017,4.415,4.017,2.9,0,4.368-1.678,4.368-3.777,0-2.5-2.076-3.308-3.919-3.308h-1.819v-1.56H265.4c1.323,0,3.682-.733,3.682-3.021,0-1.323-.752-2.978-3.639-2.978a3.893,3.893,0,0,0-3.068,1.182,4.008,4.008,0,0,0-.874,2.359h-2.127c.331-4.179,3.45-5.309,6.1-5.309,3.446,0,5.738,1.839,5.738,4.506a3.869,3.869,0,0,1-3,3.9,4.075,4.075,0,0,1,3.517,4.25c0,3.068-2.383,5.526-6.542,5.526" transform="translate(760.1 187.987)" fill="#1a1311"/><path d="M275,79.536v5.478h-1.8V79.536h-10.6V77.882h3.97V71.553H273.2V67.914h-5.337a26.691,26.691,0,0,1-2.643,3.214l-1.54-.993a19.3,19.3,0,0,0,4.679-6.707,7.485,7.485,0,0,1,1.654.733c.284.118.4.189.4.354,0,.284-.354.331-.709.374-.166.288-.354.638-.776,1.375h13.438v1.65H275v3.639h6.254v1.654H275v4.675h8.287v1.654Zm-1.8-6.329h-4.911v4.675H273.2Z" transform="translate(771.628 186.383)" fill="#1a1311"/><path d="M272.739,71.737c-.051,3.328-.118,9.043-2.647,13.2l-1.607-.614c1.56-2.694,2.525-5.553,2.525-12.351,0-.9-.043-5.195-.067-5.955h7.889V63.446l1.863.118c.142,0,.473.024.473.284,0,.284-.35.449-.5.52v1.65h9.094v1.54h-17.1c.051,1.225.075,1.627.075,2.761h3.753v-2.15l1.772.118c.28.024.5.047.5.236,0,.217-.217.358-.614.547v1.249h4.675v-2.15l1.678.118c.236.024.52.047.52.288,0,.142-.075.232-.52.5v1.249h4.108v1.418H284.5v3.072h-8.007V71.737Zm.729,11.93a23.043,23.043,0,0,0,6.333-2.009,12.306,12.306,0,0,1-2.58-3.025l1.445-.638a9.925,9.925,0,0,0,2.525,2.812,11.847,11.847,0,0,0,3.048-2.977H273.964V76.3h12.19l.61.681a16.092,16.092,0,0,1-4.179,4.651,17.592,17.592,0,0,0,6.944,1.489l-.8,1.725c-4.533-.614-6.14-1.343-7.6-2.245a24.948,24.948,0,0,1-6.664,2.481Zm9.354-11.93h-4.675v1.65h4.675Z" transform="translate(788.942 186.436)" fill="#1a1311"/><path d="M283.609,68.269l1.891.118c.331.024.445.118.445.26,0,.189-.138.284-.563.449v.969h6.282V71.6h-6.282v2.028h5.6v1.465h-5.6a10.494,10.494,0,0,1-.189,2.1h8.929v1.583H286.11c2.127,3.092,5.955,3.73,8.294,4.084l-1.158,1.8c-3.753-.851-6.542-1.961-8.669-5.384-1.418,2.623-3.4,4.675-8.854,5.36l-.969-1.678c5.971-.54,7.318-2.765,8.1-4.179H274.92V77.2h8.428a10.2,10.2,0,0,0,.26-2.1h-5.786V73.629h5.786V71.6H277.4V70.065h6.207Zm-.047-4.793,2.032.142c.095.024.378.047.378.28s-.284.406-.567.547v1.3h8.74v4.324h-1.725V67.348H276.575v2.836h-1.729V65.741h8.716Z" transform="translate(807.366 186.524)" fill="#1a1311"/><path d="M288.839,72.04a69.3,69.3,0,0,1-.5,8.858c-.473,3.474-1.39,3.474-3.757,3.521l-.469-1.843c.5.024,1.13.071,1.39.071.591,0,.922-.114,1.229-1.839a41.025,41.025,0,0,0,.449-7.231h-2.241a33.99,33.99,0,0,1-.76,5.36,16.734,16.734,0,0,1-2.241,5.6l-1.536-.992c3.025-4.277,3.025-10.91,3.025-13.887h-2.647V68.121h3.446V63.682l1.753.142c.35.047.54.095.54.26,0,.232-.425.421-.638.5v3.541h3.379v1.536h-4.183c-.024,1.39-.047,1.843-.071,2.383Zm-.236-.847a29.234,29.234,0,0,0,4.3-7.747l1.56.827c.354.189.382.26.382.331,0,.26-.331.284-.642.307-.185.449-.567,1.3-1.063,2.217h8.55v1.611h-9.425a37.21,37.21,0,0,1-2.316,3.564Zm5.833,13.225c-2.528,0-2.572-1.489-2.572-2.292V76.108l-2.339.492-.118-1.607,2.458-.425v-3.21l1.745.26c.378.047.449.142.449.236,0,.209-.26.331-.614.449v1.961l2.292-.5V69.775l1.654.142c.354.047.5.047.5.236,0,.213-.26.354-.547.473v2.836l3-.614.736.54a25.073,25.073,0,0,1-.618,5.955c-.374,1.371-.851,1.489-2.335,1.556l-.733-1.8a2.368,2.368,0,0,0,.874.193c.614,0,.78-.709.894-1.512a28.626,28.626,0,0,0,.264-3.214l-2.083.425v6.333h-1.6V75.348l-2.292.453v5.475c0,.969.051,1.654,1.678,1.654h3.616c1.437,0,1.792-.638,2.339-2.572l1.485.969c-.945,3.092-2.245,3.092-3.545,3.092Z" transform="translate(823.975 186.436)" fill="#1a1311"/><path d="M286.347,72.795a25.43,25.43,0,0,0,4.864-9.307l1.678.614c.047.024.284.114.284.28,0,.24-.236.264-.52.288-.756,1.8-.922,2.194-1.253,2.879.071.1.307.307.307.473,0,.122-.331.449-.5.638V84.72h-1.654V71.259a17.767,17.767,0,0,1-1.981,2.765Zm14.336-3.214c-.26,3.706-.567,6.825-2.269,10.157a15.459,15.459,0,0,1-4.037,4.888l-1.323-1.205a13.231,13.231,0,0,0,4.722-6.329,8.861,8.861,0,0,0-2.383-1.725l.729-1.418a10.036,10.036,0,0,1,2.225,1.418,23.547,23.547,0,0,0,.662-4.179h-2.769a17.045,17.045,0,0,1-2.525,5.171l-1.536-.681a15.352,15.352,0,0,0,2.528-4.939,20.689,20.689,0,0,0,.87-4.537h-2.217V64.67h8.172V66.2H297.28a25.068,25.068,0,0,1-.587,3.379Zm1.583-2.883,1.607.1c.071,0,.421.024.421.284,0,.138-.165.256-.35.421v11.5h-1.678Zm3.564-3.068,1.749.118c.118,0,.354.024.354.189,0,.213-.26.378-.5.5V82.475c0,1.4-.118,2.08-1.961,2.08h-1.91l-.8-1.961a16.423,16.423,0,0,0,2.383.26c.685,0,.685-.28.685-.685Z" transform="translate(841.429 186.559)" fill="#1a1311"/></g></g></svg>