<svg xmlns="http://www.w3.org/2000/svg" xmlns:xlink="http://www.w3.org/1999/xlink" width="450.701" height="342.786" viewBox="0 0 450.701 342.786"><defs><clipPath id="a"><rect width="450.701" height="342.786" fill="none"/></clipPath></defs><g clip-path="url(#a)"><path d="M14.773,4.332l3.1.337a.685.685,0,0,1,.639.606.808.808,0,0,1-.471.639l-.774.4V9.18h8.653l2.086-2.324,2.964,2.19a.741.741,0,0,1,.3.538c0,.2-.135.4-.2.4H7.737c-1.752,0-3,.034-6.1.168L1.1,9.012c1.752.034,3.2.067,3.67.1,1.38.034,2.894.067,2.964.067h7.036ZM6.086,20.122h20.1l.875-1.346,2.49,2.089a.683.683,0,0,1,.272.5c0,.2-.171.37-.474.5l-.6.272v9.831c0,.875-.44,1.447-1.618,2.12a2.851,2.851,0,0,1-1.18.44c-.4,0-.4,0-.606-1.012a.768.768,0,0,0-.6-.538l-2.762-.875.067-.471,2.695-.034c1.582,0,1.716-.1,1.817-1.144V20.93H5.716V33.422c0,.5-.067.606-.5.875a3.13,3.13,0,0,1-1.346.44c-.305,0-.437-.171-.437-.541V18.608Zm4.949-7.54H21L22.282,11.3l2.12,1.55a.689.689,0,0,1,.37.538.6.6,0,0,1-.37.5l-.572.3v3.771c0,.4-.942.909-1.784.909a.373.373,0,0,1-.406-.4v-.911H10.429v1.079c0,.437-.707.841-1.514.841-.437,0-.538-.1-.538-.471V11.132Zm1.618,10.942h6.6l1.111-1.111,1.786,1.413c.236.2.337.337.337.538a.539.539,0,0,1-.337.437l-.507.3v5.019c0,.606-.57.942-1.548.942-.337,0-.471-.135-.471-.474v-1.38h-7.3v1.55c0,.538-.743.976-1.618.976-.3,0-.4-.135-.4-.471V22.312ZM21.64,13.389H10.429v3.368H21.64ZM19.621,24.331H12.314v4.074h7.307Z" transform="translate(1.548 6.081)" fill="#1a1311"/><path d="M14.773,4.332l3.1.337a.685.685,0,0,1,.639.606.808.808,0,0,1-.471.639l-.774.4V9.18h8.653l2.086-2.324,2.964,2.19a.741.741,0,0,1,.3.538c0,.2-.135.4-.2.4H7.737c-1.752,0-3,.034-6.1.168L1.1,9.012c1.752.034,3.2.067,3.67.1,1.38.034,2.894.067,2.964.067h7.036ZM6.086,20.122h20.1l.875-1.346,2.49,2.089a.683.683,0,0,1,.272.5c0,.2-.171.37-.474.5l-.6.272v9.831c0,.875-.44,1.447-1.618,2.12a2.851,2.851,0,0,1-1.18.44c-.4,0-.4,0-.606-1.012a.768.768,0,0,0-.6-.538l-2.762-.875.067-.471,2.695-.034c1.582,0,1.716-.1,1.817-1.144V20.93H5.716V33.422c0,.5-.067.606-.5.875a3.13,3.13,0,0,1-1.346.44c-.305,0-.437-.171-.437-.541V18.608Zm4.949-7.54H21L22.282,11.3l2.12,1.55a.689.689,0,0,1,.37.538.6.6,0,0,1-.37.5l-.572.3v3.771c0,.4-.942.909-1.784.909a.373.373,0,0,1-.406-.4v-.911H10.429v1.079c0,.437-.707.841-1.514.841-.437,0-.538-.1-.538-.471V11.132Zm1.618,10.942h6.6l1.111-1.111,1.786,1.413c.236.2.337.337.337.538a.539.539,0,0,1-.337.437l-.507.3v5.019c0,.606-.57.942-1.548.942-.337,0-.471-.135-.471-.474v-1.38h-7.3v1.55c0,.538-.743.976-1.618.976-.3,0-.4-.135-.4-.471V22.312ZM21.64,13.389H10.429v3.368H21.64ZM19.621,24.331H12.314v4.074h7.307Z" transform="translate(1.548 6.081)" fill="none" stroke="#1a1311" stroke-linecap="round" stroke-linejoin="round" stroke-width="0.2"/><path d="M15.89,7.074a.328.328,0,0,1-.135.034.144.144,0,0,1-.132-.135c0-.2.536-.373,1.142-.373,1.851,0,3.536,1.416,3.536,2.964a11.95,11.95,0,0,1-.406,2.627,19.822,19.822,0,0,0-.6,5.151A9.234,9.234,0,0,0,20.774,23a2.859,2.859,0,0,0,1.815,1.279c.406,0,.474-.132,1.483-2.288,1.413-3.132,2.055-4.243,2.288-4.243a.26.26,0,0,1,.236.269c0,.135,0,.135-.4,1.245a17.352,17.352,0,0,0-1.18,4.985,3.92,3.92,0,0,0,.574,2.086c.2.3.238.337.238.5,0,.4-.608.774-1.183.74a7.044,7.044,0,0,1-3.4-1.447c-2.324-1.82-3.67-5.488-3.67-9.935,0-1.481.1-3.466.269-5.115.034-.474.07-.877.07-1.18,0-1.413-.981-2.827-1.954-2.827Zm15.961,5.959c-.305,0-.406-.034-.406-.168,0-.236.976-.471,2.156-.471,3.6,0,7.341,3.435,7.341,6.733a1.971,1.971,0,0,1-1.885,2.19c-.577,0-.81-.3-.81-1.113a7.64,7.64,0,0,0-3-6.194,5.669,5.669,0,0,0-3.3-.976Z" transform="translate(21.93 9.265)" fill="#1a1311"/><path d="M15.89,7.074a.328.328,0,0,1-.135.034.144.144,0,0,1-.132-.135c0-.2.536-.373,1.142-.373,1.851,0,3.536,1.416,3.536,2.964a11.95,11.95,0,0,1-.406,2.627,19.822,19.822,0,0,0-.6,5.151A9.234,9.234,0,0,0,20.774,23a2.859,2.859,0,0,0,1.815,1.279c.406,0,.474-.132,1.483-2.288,1.413-3.132,2.055-4.243,2.288-4.243a.26.26,0,0,1,.236.269c0,.135,0,.135-.4,1.245a17.352,17.352,0,0,0-1.18,4.985,3.92,3.92,0,0,0,.574,2.086c.2.3.238.337.238.5,0,.4-.608.774-1.183.74a7.044,7.044,0,0,1-3.4-1.447c-2.324-1.82-3.67-5.488-3.67-9.935,0-1.481.1-3.466.269-5.115.034-.474.07-.877.07-1.18,0-1.413-.981-2.827-1.954-2.827Zm15.961,5.959c-.305,0-.406-.034-.406-.168,0-.236.976-.471,2.156-.471,3.6,0,7.341,3.435,7.341,6.733a1.971,1.971,0,0,1-1.885,2.19c-.577,0-.81-.3-.81-1.113a7.64,7.64,0,0,0-3-6.194,5.669,5.669,0,0,0-3.3-.976Z" transform="translate(21.93 9.265)" fill="none" stroke="#1a1311" stroke-linecap="round" stroke-linejoin="round" stroke-width="0.2"/><path d="M31.8,12.85V11.81c-.034-.642-.034-1.077-.034-1.211a2.647,2.647,0,0,0-2.055-2.627c-.166-.067-.267-.135-.267-.2,0-.171.976-.44,1.683-.44a4.973,4.973,0,0,1,2.659,1.248,4.224,4.224,0,0,0,.608.471c.368.269.5.4.5.538,0,.067,0,.067-.2.437a6.753,6.753,0,0,0-.642,2.459c-.236,2.622-.37,4.579-.37,6.161,0,2.055.1,2.425.74,2.425,3.3,0,12.829-7.274,16.97-12.932.3-.435.337-.471.471-.471.1,0,.269.2.269.373a11.82,11.82,0,0,1-1.245,2.288A37.88,37.88,0,0,1,43.649,18.1a33.271,33.271,0,0,1-7.307,4.745,7.15,7.15,0,0,0-2.154,1.517c-.305.339-.474.44-.608.44A6.069,6.069,0,0,1,32.2,23.9c-.572-.507-.942-.978-.942-1.248a1.122,1.122,0,0,1,.135-.5,3.827,3.827,0,0,0,.4-1.752Z" transform="translate(41.327 10.288)" fill="#1a1311"/><path d="M31.8,12.85V11.81c-.034-.642-.034-1.077-.034-1.211a2.647,2.647,0,0,0-2.055-2.627c-.166-.067-.267-.135-.267-.2,0-.171.976-.44,1.683-.44a4.973,4.973,0,0,1,2.659,1.248,4.224,4.224,0,0,0,.608.471c.368.269.5.4.5.538,0,.067,0,.067-.2.437a6.753,6.753,0,0,0-.642,2.459c-.236,2.622-.37,4.579-.37,6.161,0,2.055.1,2.425.74,2.425,3.3,0,12.829-7.274,16.97-12.932.3-.435.337-.471.471-.471.1,0,.269.2.269.373a11.82,11.82,0,0,1-1.245,2.288A37.88,37.88,0,0,1,43.649,18.1a33.271,33.271,0,0,1-7.307,4.745,7.15,7.15,0,0,0-2.154,1.517c-.305.339-.474.44-.608.44A6.069,6.069,0,0,1,32.2,23.9c-.572-.507-.942-.978-.942-1.248a1.122,1.122,0,0,1,.135-.5,3.827,3.827,0,0,0,.4-1.752Z" transform="translate(41.327 10.288)" fill="none" stroke="#1a1311" stroke-linecap="round" stroke-linejoin="round" stroke-width="0.2"/><path d="M47.915,15.94c-.5.608-.875,1.012-1.077,1.248-.5.538-.841.942-.976,1.111-.978,1.281-1.281,1.483-1.954,1.483a3.062,3.062,0,0,1-2.558-1.954,5.241,5.241,0,0,1-.137-1.413c0-.168.067-.272.2-.272s.2.07.339.373a1.353,1.353,0,0,0,1.279.707c.5,0,.875-.2,1.952-1.043.709-.572,2.9-2.594,4.175-3.839,1.211-1.211,1.817-1.514,2.863-1.514.909,0,1.111.1,2.8,1.582,5.118,4.512,8.281,6.733,11.278,7.98,1.348.5,1.449.538,1.817.942a2.1,2.1,0,0,1,.639,1.447,1.21,1.21,0,0,1-1.346,1.113c-1.043,0-2.591-.877-5.017-2.8a105.633,105.633,0,0,1-7.98-7.173c-1.043-1.111-1.683-1.481-2.423-1.481s-1.144.37-3.872,3.5m14.478-5.185a1.14,1.14,0,0,1-1.077,1.113c-.437,0-.538-.1-.976-.808a5.689,5.689,0,0,0-3.1-2.493c-.1-.034-.168-.1-.168-.135,0-.135.471-.269,1.043-.269,2.12,0,4.276,1.312,4.276,2.591m3.5-1.38a1.153,1.153,0,0,1-1.043,1.046c-.437,0-.673-.171-.945-.675a5.851,5.851,0,0,0-3.13-2.591c-.135-.034-.2-.1-.2-.135,0-.137.4-.238.909-.238,2.291,0,4.411,1.248,4.411,2.594" transform="translate(57.852 9.52)" fill="#1a1311"/><path d="M47.915,15.94c-.5.608-.875,1.012-1.077,1.248-.5.538-.841.942-.976,1.111-.978,1.281-1.281,1.483-1.954,1.483a3.062,3.062,0,0,1-2.558-1.954,5.241,5.241,0,0,1-.137-1.413c0-.168.067-.272.2-.272s.2.07.339.373a1.353,1.353,0,0,0,1.279.707c.5,0,.875-.2,1.952-1.043.709-.572,2.9-2.594,4.175-3.839,1.211-1.211,1.817-1.514,2.863-1.514.909,0,1.111.1,2.8,1.582,5.118,4.512,8.281,6.733,11.278,7.98,1.348.5,1.449.538,1.817.942a2.1,2.1,0,0,1,.639,1.447,1.21,1.21,0,0,1-1.346,1.113c-1.043,0-2.591-.877-5.017-2.8a105.633,105.633,0,0,1-7.98-7.173c-1.043-1.111-1.683-1.481-2.423-1.481S50.643,12.811,47.915,15.94Zm14.478-5.185a1.14,1.14,0,0,1-1.077,1.113c-.437,0-.538-.1-.976-.808a5.689,5.689,0,0,0-3.1-2.493c-.1-.034-.168-.1-.168-.135,0-.135.471-.269,1.043-.269C60.236,8.164,62.392,9.477,62.392,10.755Zm3.5-1.38a1.153,1.153,0,0,1-1.043,1.046c-.437,0-.673-.171-.945-.675a5.851,5.851,0,0,0-3.13-2.591c-.135-.034-.2-.1-.2-.135,0-.137.4-.238.909-.238C63.774,6.782,65.894,8.03,65.894,9.376Z" transform="translate(57.852 9.52)" fill="none" stroke="#1a1311" stroke-linecap="round" stroke-linejoin="round" stroke-width="0.2"/><path d="M64.252,9.138c.909.5,1.651,1.144,1.651,1.447,0,.1-.036.135-.3.37a2.609,2.609,0,0,0-.406,1.178,29.333,29.333,0,0,1-3.1,7.879c-1.752,2.9-5.625,6.632-6.836,6.632a.344.344,0,0,1-.37-.337c0-.132.1-.269.337-.4A17.476,17.476,0,0,0,59.74,20.55c1.683-2.928,3.065-7.274,3.065-9.764a1.8,1.8,0,0,0-1.077-1.75c-.135-.07-.2-.135-.2-.236,0-.168.171-.269.474-.269a5,5,0,0,1,2.255.606m4.512,1.077a3.492,3.492,0,0,0-.269-1.887,1.288,1.288,0,0,0-.673-.469c-.2-.036-.236-.07-.236-.171,0-.168.639-.471,1.043-.471a3.486,3.486,0,0,1,2.053.909c.877.608.945.675.945.877,0,.1,0,.1-.269.437a6.442,6.442,0,0,0-.574,2.591c-.1,1.18-.334,6.23-.334,7.274,0,.437.168.639.5.639,1.211,0,3.735-1.447,6.06-3.5A35.545,35.545,0,0,0,83.41,9c.2-.37.3-.471.406-.471a.463.463,0,0,1,.37.4,19.891,19.891,0,0,1-2.425,4.341,28,28,0,0,1-5.017,5.591,24.029,24.029,0,0,1-4.444,3.1,4.177,4.177,0,0,0-1.952,1.413.241.241,0,0,1-.2.1c-.5,0-2.019-1.75-2.019-2.356a.809.809,0,0,1,.135-.406,3.583,3.583,0,0,0,.4-2.187l.034-3.94.034-2.8Z" transform="translate(77.053 10.131)" fill="#1a1311"/><path d="M64.252,9.138c.909.5,1.651,1.144,1.651,1.447,0,.1-.036.135-.3.37a2.609,2.609,0,0,0-.406,1.178,29.333,29.333,0,0,1-3.1,7.879c-1.752,2.9-5.625,6.632-6.836,6.632a.344.344,0,0,1-.37-.337c0-.132.1-.269.337-.4A17.476,17.476,0,0,0,59.74,20.55c1.683-2.928,3.065-7.274,3.065-9.764a1.8,1.8,0,0,0-1.077-1.75c-.135-.07-.2-.135-.2-.236,0-.168.171-.269.474-.269A5,5,0,0,1,64.252,9.138Zm4.512,1.077a3.492,3.492,0,0,0-.269-1.887,1.288,1.288,0,0,0-.673-.469c-.2-.036-.236-.07-.236-.171,0-.168.639-.471,1.043-.471a3.486,3.486,0,0,1,2.053.909c.877.608.945.675.945.877,0,.1,0,.1-.269.437a6.442,6.442,0,0,0-.574,2.591c-.1,1.18-.334,6.23-.334,7.274,0,.437.168.639.5.639,1.211,0,3.735-1.447,6.06-3.5A35.545,35.545,0,0,0,83.41,9c.2-.37.3-.471.406-.471a.463.463,0,0,1,.37.4,19.891,19.891,0,0,1-2.425,4.341,28,28,0,0,1-5.017,5.591,24.029,24.029,0,0,1-4.444,3.1,4.177,4.177,0,0,0-1.952,1.413.241.241,0,0,1-.2.1c-.5,0-2.019-1.75-2.019-2.356a.809.809,0,0,1,.135-.406,3.583,3.583,0,0,0,.4-2.187l.034-3.94.034-2.8Z" transform="translate(77.053 10.131)" fill="none" stroke="#1a1311" stroke-linecap="round" stroke-linejoin="round" stroke-width="0.2"/><path d="M87.548,7.014c3.5-.875,3.5-.875,3.973-.875a2.311,2.311,0,0,1,1.752.976,2.9,2.9,0,0,1,.875,1.517c0,.337-.37.606-.875.606A2.549,2.549,0,0,1,92.262,9a9.479,9.479,0,0,0-2.356-.337,10.348,10.348,0,0,0-3.94.877A10.053,10.053,0,0,0,81.724,15.1a22.567,22.567,0,0,0-.942,6.5c0,3.973,1.548,5.488,5.589,5.488a11.438,11.438,0,0,0,2.322-.2,1.5,1.5,0,0,1,.4-.031,1.609,1.609,0,0,1,1.281.538,2.806,2.806,0,0,1,.572,1.312c0,.707-.841.976-2.964.976-5.858,0-9.36-2.695-9.36-7.137,0-4.781,2.392-10.439,5.555-13.235a.261.261,0,0,0,.171-.233.155.155,0,0,0-.171-.135,19.038,19.038,0,0,0-3.805.976,34.3,34.3,0,0,0-6.766,3.163c-.875.639-1.178.776-1.716.776a4.683,4.683,0,0,1-2.425-1.315,3.8,3.8,0,0,1-.673-2.322c0-.135.067-.236.2-.236.067,0,.135.034.168.168.3.74.976,1.077,2.156,1.077a6.362,6.362,0,0,0,2.423-.5C78.726,9.2,81.253,8.531,84.654,7.754Zm4.579,9.394a1.168,1.168,0,0,1-1.111,1.111c-.3,0-.5-.166-.74-.606a5.464,5.464,0,0,0-3.166-2.591c-.236-.034-.269-.067-.269-.135,0-.135.437-.236,1.111-.236,2.089,0,4.175,1.211,4.175,2.457m3.368-1.75a1.158,1.158,0,0,1-1.111,1.178c-.3,0-.5-.135-.673-.5a5.681,5.681,0,0,0-3.3-2.762c-.2-.034-.236-.034-.236-.135,0-.132.437-.233,1.144-.233,2.086,0,4.175,1.209,4.175,2.457" transform="translate(96.568 8.617)" fill="#1a1311"/><path d="M87.548,7.014c3.5-.875,3.5-.875,3.973-.875a2.311,2.311,0,0,1,1.752.976,2.9,2.9,0,0,1,.875,1.517c0,.337-.37.606-.875.606A2.549,2.549,0,0,1,92.262,9a9.479,9.479,0,0,0-2.356-.337,10.348,10.348,0,0,0-3.94.877A10.053,10.053,0,0,0,81.724,15.1a22.567,22.567,0,0,0-.942,6.5c0,3.973,1.548,5.488,5.589,5.488a11.438,11.438,0,0,0,2.322-.2,1.5,1.5,0,0,1,.4-.031,1.609,1.609,0,0,1,1.281.538,2.806,2.806,0,0,1,.572,1.312c0,.707-.841.976-2.964.976-5.858,0-9.36-2.695-9.36-7.137,0-4.781,2.392-10.439,5.555-13.235a.261.261,0,0,0,.171-.233.155.155,0,0,0-.171-.135,19.038,19.038,0,0,0-3.805.976,34.3,34.3,0,0,0-6.766,3.163c-.875.639-1.178.776-1.716.776a4.683,4.683,0,0,1-2.425-1.315,3.8,3.8,0,0,1-.673-2.322c0-.135.067-.236.2-.236.067,0,.135.034.168.168.3.74.976,1.077,2.156,1.077a6.362,6.362,0,0,0,2.423-.5C78.726,9.2,81.253,8.531,84.654,7.754Zm4.579,9.394a1.168,1.168,0,0,1-1.111,1.111c-.3,0-.5-.166-.74-.606a5.464,5.464,0,0,0-3.166-2.591c-.236-.034-.269-.067-.269-.135,0-.135.437-.236,1.111-.236C90.041,13.951,92.127,15.163,92.127,16.408Zm3.368-1.75a1.158,1.158,0,0,1-1.111,1.178c-.3,0-.5-.135-.673-.5a5.681,5.681,0,0,0-3.3-2.762c-.2-.034-.236-.034-.236-.135,0-.132.437-.233,1.144-.233C93.406,12.2,95.495,13.41,95.495,14.658Z" transform="translate(96.568 8.617)" fill="none" stroke="#1a1311" stroke-linecap="round" stroke-linejoin="round" stroke-width="0.2"/><path d="M90.066,9.924H103.9c-.365-3.7-.5-5.706-.685-9.634l4.019.228a1.023,1.023,0,0,1,1,1.05,1.042,1.042,0,0,1-.548.868l-1.233.776c.091,3.425.183,4.521.365,6.711h9.543l2.923-3.24,3.654,2.832a1.248,1.248,0,0,1,.5.911.63.63,0,0,1-.685.6H106.916c.731,6.985,1.827,11.689,3.928,16.393a52.548,52.548,0,0,0,4.519-11.6l4.019,2.147a.868.868,0,0,1,.457.731c0,.411-.32.731-.822.868l-1.461.365a52.9,52.9,0,0,1-5.3,10.182c2.466,3.608,5.021,6.074,6.3,6.074.457,0,.776-.457,1.187-1.69l1.918-5.752.822.137-1,8.081v.183a2.4,2.4,0,0,0,.731,1.507c.639.776.868,1.187.868,1.507a1.126,1.126,0,0,1-1.187.913c-1.324,0-4.291-1.37-6.44-2.969a25.322,25.322,0,0,1-5.2-5.343,34.944,34.944,0,0,1-7.9,6.029c-2.421,1.461-4.019,2.238-4.521,2.238a.466.466,0,0,1-.5-.411c0-.32,0-.32,1.327-1.1a43.452,43.452,0,0,0,10.182-9.134c-2.512-5.432-3.7-10.182-4.841-19.36H89.244c.046,1.644.091,2.875.091,3.745,0,.774-.046,2.053-.091,3.651h7.307l1.1-1.964,2.969,2.969a1.26,1.26,0,0,1,.457.868c0,.365-.231.594-.642.731L99.7,21.3c-.089,6.9-.226,9.177-.776,11.509-.548,2.464-2.372,4.382-4.062,4.382-.685,0-.685,0-.822-1.781,0-.183-.228-.365-.594-.5l-3.882-1.553.091-.594,4.293.32c2.284.228,2.74-1.779,2.875-13.562H89.244c-.183,6.985-.639,9.908-1.918,13.516-1.507,4.11-4.2,8.266-5.387,8.266-.139,0-.231-.091-.231-.274,0-.228,0-.228.779-1.827,2.829-6.029,3.562-10.913,3.562-24.568,0-1.6,0-1.6-.046-6.985Zm18.723-7.716a6.82,6.82,0,0,1,.868-.046c3.471,0,6.711,2.147,6.711,4.43a1.759,1.759,0,0,1-1.642,1.781c-.639,0-.639,0-2.421-2.695a9.346,9.346,0,0,0-3.654-3.014Z" transform="translate(114.696 0.407)" fill="#bc323f"/><path d="M90.066,9.924H103.9c-.365-3.7-.5-5.706-.685-9.634l4.019.228a1.023,1.023,0,0,1,1,1.05,1.042,1.042,0,0,1-.548.868l-1.233.776c.091,3.425.183,4.521.365,6.711h9.543l2.923-3.24,3.654,2.832a1.248,1.248,0,0,1,.5.911.63.63,0,0,1-.685.6H106.916c.731,6.985,1.827,11.689,3.928,16.393a52.548,52.548,0,0,0,4.519-11.6l4.019,2.147a.868.868,0,0,1,.457.731c0,.411-.32.731-.822.868l-1.461.365a52.9,52.9,0,0,1-5.3,10.182c2.466,3.608,5.021,6.074,6.3,6.074.457,0,.776-.457,1.187-1.69l1.918-5.752.822.137-1,8.081v.183a2.4,2.4,0,0,0,.731,1.507c.639.776.868,1.187.868,1.507a1.126,1.126,0,0,1-1.187.913c-1.324,0-4.291-1.37-6.44-2.969a25.322,25.322,0,0,1-5.2-5.343,34.944,34.944,0,0,1-7.9,6.029c-2.421,1.461-4.019,2.238-4.521,2.238a.466.466,0,0,1-.5-.411c0-.32,0-.32,1.327-1.1a43.452,43.452,0,0,0,10.182-9.134c-2.512-5.432-3.7-10.182-4.841-19.36H89.244c.046,1.644.091,2.875.091,3.745,0,.774-.046,2.053-.091,3.651h7.307l1.1-1.964,2.969,2.969a1.26,1.26,0,0,1,.457.868c0,.365-.231.594-.642.731L99.7,21.3c-.089,6.9-.226,9.177-.776,11.509-.548,2.464-2.372,4.382-4.062,4.382-.685,0-.685,0-.822-1.781,0-.183-.228-.365-.594-.5l-3.882-1.553.091-.594,4.293.32c2.284.228,2.74-1.779,2.875-13.562H89.244c-.183,6.985-.639,9.908-1.918,13.516-1.507,4.11-4.2,8.266-5.387,8.266-.139,0-.231-.091-.231-.274,0-.228,0-.228.779-1.827,2.829-6.029,3.562-10.913,3.562-24.568,0-1.6,0-1.6-.046-6.985Zm18.723-7.716a6.82,6.82,0,0,1,.868-.046c3.471,0,6.711,2.147,6.711,4.43a1.759,1.759,0,0,1-1.642,1.781c-.639,0-.639,0-2.421-2.695a9.346,9.346,0,0,0-3.654-3.014Z" transform="translate(114.696 0.407)" fill="none" stroke="#bc323f" stroke-linecap="round" stroke-linejoin="round" stroke-width="0.2"/><path d="M113.2,19.279a10.67,10.67,0,0,0-2.055-3.151l.32-.457c3.836,2.284,5.617,4.384,5.617,6.8a1.746,1.746,0,0,1-1.507,1.873.931.931,0,0,1-.913-.594,13.1,13.1,0,0,1-.639-2.1l-.411-1.233-3.06.5V40.605a.651.651,0,0,1-.32.594,5.276,5.276,0,0,1-1.824.548c-.322,0-.548-.32-.548-.731V21.38l-3.425.5-.685.776a1.3,1.3,0,0,1-.776.411.921.921,0,0,1-.685-.411l-1.918-3.106c1.142.046,1.964.046,2.558.046.5,0,1.37,0,2.421-.046a96.393,96.393,0,0,0,7.442-13.379l2.969,1.918c.411.274.639.5.639.776a.823.823,0,0,1-.685.776l-1.05.228-7.581,9.68Zm-7.4,6.483a.938.938,0,0,1,.911.824.74.74,0,0,1-.409.639l-.822.637-.228,1.144c-.913,4.839-1.324,6.163-2.74,8.858-.731,1.37-1.187,1.918-1.553,1.918a.369.369,0,0,1-.32-.411,11.418,11.418,0,0,1,.594-2.055A38.628,38.628,0,0,0,102.7,27.5c0-.411-.046-1.19-.091-2.1Zm-4.521-18.9a17.285,17.285,0,0,1,3.791,1.735A45.7,45.7,0,0,0,108.677.1l3.243,1.827a.993.993,0,0,1,.5.731c0,.228-.228.457-.5.594l-1.324.5L106.03,9.371a5.345,5.345,0,0,1,1.642,3.469,1.832,1.832,0,0,1-1.687,1.918,1.121,1.121,0,0,1-.868-.411c-.183-.228-.183-.228-.913-2.738a10.6,10.6,0,0,0-3.151-4.247Zm10.456,17.718a22.111,22.111,0,0,1,2.969,2.969,9.068,9.068,0,0,1,1.964,4.976c0,1.233-.594,2.055-1.507,2.055-1,0-1.416-.5-1.507-1.873-.274-3.56-1.05-6.117-2.375-7.807ZM126.075,35.81c.594.411,1,.822,1,1.187,0,.32-.411.639-.913.639h-1.324a52.961,52.961,0,0,1-6.026,2.558,37.76,37.76,0,0,1-4.7,1.324.422.422,0,0,1-.457-.411c0-.137.091-.274.32-.32a35.218,35.218,0,0,0,10-6.3Zm1.1-24.614h-3.928l-5.615.139-.457-1.416c1.507,0,2.877.046,3.38.091,1.461.046,2.466.091,2.692.091h3.928V6.722h-5.25c-.185,0-1.19.046-2.695.091l-2.786.046-.594-1.416c1.507.046,2.923.046,3.38.091,1.461.046,2.464.091,2.695.091h5.25V.374L131.053.6c.594.046,1,.365,1,.776,0,.365-.274.639-.913,1l-1.05.594V5.626h6.257l2.329-2.649,3.334,2.649a.8.8,0,0,1,.409.639.548.548,0,0,1-.548.457H130.094V10.1h5.343l2.147-2.329,2.784,2.147c.365.272.548.5.548.774a.545.545,0,0,1-.548.5H130.094v3.517h6.668l2.375-2.647,3.425,2.738c.226.137.317.274.317.457a.518.518,0,0,1-.5.548H122.7c-.591,0-1.824.046-3.7.091-.548,0-1.964.046-3.7.094l-.5-1.507c1.918.046,4.567.135,7.9.226h4.476Zm-4.978,7.627h13.336l1.324-1.735,2.695,2.284a.79.79,0,0,1,.363.639.646.646,0,0,1-.454.639l-.642.183V33.983c0,.594-.135.776-.548.913a8.992,8.992,0,0,1-1.779.411c-.274,0-.457-.228-.457-.594v-1.05H122.1v.822c0,.639-1.1,1.324-2.192,1.324-.32,0-.5-.228-.5-.639V17.041Zm13.838,1.1H122.1V23.39h13.927Zm0,4.567H122.1v3.38h13.927Zm0,4.476H122.1V32.57h13.927ZM130.6,34.622a28.671,28.671,0,0,1,7.079,1.735c3.012,1.187,4.519,2.512,4.519,4.019a1.3,1.3,0,0,1-1.233,1.279c-.5,0-1.05-.365-3.058-2.01a24.4,24.4,0,0,0-7.536-4.2Z" transform="translate(140.888 0.14)" fill="#bc323f"/><path d="M113.2,19.279a10.67,10.67,0,0,0-2.055-3.151l.32-.457c3.836,2.284,5.617,4.384,5.617,6.8a1.746,1.746,0,0,1-1.507,1.873.931.931,0,0,1-.913-.594,13.1,13.1,0,0,1-.639-2.1l-.411-1.233-3.06.5V40.605a.651.651,0,0,1-.32.594,5.276,5.276,0,0,1-1.824.548c-.322,0-.548-.32-.548-.731V21.38l-3.425.5-.685.776a1.3,1.3,0,0,1-.776.411.921.921,0,0,1-.685-.411l-1.918-3.106c1.142.046,1.964.046,2.558.046.5,0,1.37,0,2.421-.046a96.393,96.393,0,0,0,7.442-13.379l2.969,1.918c.411.274.639.5.639.776a.823.823,0,0,1-.685.776l-1.05.228-7.581,9.68Zm-7.4,6.483a.938.938,0,0,1,.911.824.74.74,0,0,1-.409.639l-.822.637-.228,1.144c-.913,4.839-1.324,6.163-2.74,8.858-.731,1.37-1.187,1.918-1.553,1.918a.369.369,0,0,1-.32-.411,11.418,11.418,0,0,1,.594-2.055A38.628,38.628,0,0,0,102.7,27.5c0-.411-.046-1.19-.091-2.1Zm-4.521-18.9a17.285,17.285,0,0,1,3.791,1.735A45.7,45.7,0,0,0,108.677.1l3.243,1.827a.993.993,0,0,1,.5.731c0,.228-.228.457-.5.594l-1.324.5L106.03,9.371a5.345,5.345,0,0,1,1.642,3.469,1.832,1.832,0,0,1-1.687,1.918,1.121,1.121,0,0,1-.868-.411c-.183-.228-.183-.228-.913-2.738a10.6,10.6,0,0,0-3.151-4.247Zm10.456,17.718a22.111,22.111,0,0,1,2.969,2.969,9.068,9.068,0,0,1,1.964,4.976c0,1.233-.594,2.055-1.507,2.055-1,0-1.416-.5-1.507-1.873-.274-3.56-1.05-6.117-2.375-7.807ZM126.075,35.81c.594.411,1,.822,1,1.187,0,.32-.411.639-.913.639h-1.324a52.961,52.961,0,0,1-6.026,2.558,37.76,37.76,0,0,1-4.7,1.324.422.422,0,0,1-.457-.411c0-.137.091-.274.32-.32a35.218,35.218,0,0,0,10-6.3Zm1.1-24.614h-3.928l-5.615.139-.457-1.416c1.507,0,2.877.046,3.38.091,1.461.046,2.466.091,2.692.091h3.928V6.722h-5.25c-.185,0-1.19.046-2.695.091l-2.786.046-.594-1.416c1.507.046,2.923.046,3.38.091,1.461.046,2.464.091,2.695.091h5.25V.374L131.053.6c.594.046,1,.365,1,.776,0,.365-.274.639-.913,1l-1.05.594V5.626h6.257l2.329-2.649,3.334,2.649a.8.8,0,0,1,.409.639.548.548,0,0,1-.548.457H130.094V10.1h5.343l2.147-2.329,2.784,2.147c.365.272.548.5.548.774a.545.545,0,0,1-.548.5H130.094v3.517h6.668l2.375-2.647,3.425,2.738c.226.137.317.274.317.457a.518.518,0,0,1-.5.548H122.7c-.591,0-1.824.046-3.7.091-.548,0-1.964.046-3.7.094l-.5-1.507c1.918.046,4.567.135,7.9.226h4.476Zm-4.978,7.627h13.336l1.324-1.735,2.695,2.284a.79.79,0,0,1,.363.639.646.646,0,0,1-.454.639l-.642.183V33.983c0,.594-.135.776-.548.913a8.992,8.992,0,0,1-1.779.411c-.274,0-.457-.228-.457-.594v-1.05H122.1v.822c0,.639-1.1,1.324-2.192,1.324-.32,0-.5-.228-.5-.639V17.041Zm13.838,1.1H122.1V23.39h13.927Zm0,4.567H122.1v3.38h13.927Zm0,4.476H122.1V32.57h13.927ZM130.6,34.622a28.671,28.671,0,0,1,7.079,1.735c3.012,1.187,4.519,2.512,4.519,4.019a1.3,1.3,0,0,1-1.233,1.279c-.5,0-1.05-.365-3.058-2.01a24.4,24.4,0,0,0-7.536-4.2Z" transform="translate(140.888 0.14)" fill="none" stroke="#bc323f" stroke-linecap="round" stroke-linejoin="round" stroke-width="0.2"/><path d="M153.449,3.944c-3.836.137-5.069,1.142-5.069,4.156V22.667c0,4.613-.548,6.94-2.055,8.812-2.19,2.695-5.937,4.156-10.639,4.156s-8.266-1.37-10.182-4.019c-1.37-1.827-1.872-4.247-1.872-8.766V7.826c0-3.288-.5-3.7-5.024-3.882V2.437h14.247V3.944c-4.658.137-5.161.5-5.25,3.882V23.946c0,3.56.774,6.117,2.281,7.625,1.461,1.416,4.065,2.238,7.033,2.238,3.654,0,6.714-1.233,8.355-3.38,1.142-1.461,1.6-3.334,1.6-6.3V8.006c-.046-3.012-1.185-3.971-4.978-4.062V2.437h11.555Z" transform="translate(166.492 3.421)" fill="#bc323f"/><path d="M153.449,3.944c-3.836.137-5.069,1.142-5.069,4.156V22.667c0,4.613-.548,6.94-2.055,8.812-2.19,2.695-5.937,4.156-10.639,4.156s-8.266-1.37-10.182-4.019c-1.37-1.827-1.872-4.247-1.872-8.766V7.826c0-3.288-.5-3.7-5.024-3.882V2.437h14.247V3.944c-4.658.137-5.161.5-5.25,3.882V23.946c0,3.56.774,6.117,2.281,7.625,1.461,1.416,4.065,2.238,7.033,2.238,3.654,0,6.714-1.233,8.355-3.38,1.142-1.461,1.6-3.334,1.6-6.3V8.006c-.046-3.012-1.185-3.971-4.978-4.062V2.437h11.555Z" transform="translate(166.492 3.421)" fill="none" stroke="#bc323f" stroke-linecap="round" stroke-linejoin="round" stroke-width="0.2"/><path d="M133.483,33.424c4.11.046,4.978-.548,5.024-3.334V7.531c0-3.058-.639-3.471-5.024-3.606V2.418h17.124a14.683,14.683,0,0,1,7.81,2.238,7.682,7.682,0,0,1,3.195,6.392,7.578,7.578,0,0,1-3.651,6.622c-1.781,1.1-5.526,1.916-8.814,1.916h-6.577v10.5c0,2.832.733,3.334,4.844,3.334v1.507h-13.93Zm14.43-15.3c5.435,0,8.723-2.695,8.723-7.17,0-4.384-3.517-6.985-9.545-6.985-3.425,0-4.521.868-4.521,3.651v10.5Z" transform="translate(187.374 3.394)" fill="#bc323f"/><path d="M133.483,33.424c4.11.046,4.978-.548,5.024-3.334V7.531c0-3.058-.639-3.471-5.024-3.606V2.418h17.124a14.683,14.683,0,0,1,7.81,2.238,7.682,7.682,0,0,1,3.195,6.392,7.578,7.578,0,0,1-3.651,6.622c-1.781,1.1-5.526,1.916-8.814,1.916h-6.577v10.5c0,2.832.733,3.334,4.844,3.334v1.507h-13.93Zm14.43-15.3c5.435,0,8.723-2.695,8.723-7.17,0-4.384-3.517-6.985-9.545-6.985-3.425,0-4.521.868-4.521,3.651v10.5Z" transform="translate(187.374 3.394)" fill="none" stroke="#bc323f" stroke-linecap="round" stroke-linejoin="round" stroke-width="0.2"/><path d="M160.291,15.278a7.831,7.831,0,0,1,5.622-2.894c2.324,0,4.074,1.346,4.074,3.1a1.923,1.923,0,0,1-.844,1.719c-.673.5-.906.606-3.872,1.784a59.583,59.583,0,0,0-6.9,3.132c.135,1.75.168,2.56.168,3,0,1.582-.337,2.019-1.615,2.019-.37,0-.57-.135-.57-.337a1.162,1.162,0,0,1,.031-.269,25.023,25.023,0,0,0,.135-3.469c-2.829,1.719-3.906,2.964-3.906,4.411,0,1.618,1.548,2.257,5.319,2.257a18.174,18.174,0,0,0,4.747-.574,2.731,2.731,0,0,1,.844-.166A1.732,1.732,0,0,1,165.07,30.3c0,1.077-2.12,1.615-6.531,1.615a10.728,10.728,0,0,1-5.286-.976,3.823,3.823,0,0,1-2.223-3.267c0-1.413.875-2.627,2.863-3.973.538-.37.538-.37,2.594-1.582a12.021,12.021,0,0,0-.4-4.108,1.658,1.658,0,0,0-1.519-1.111c-1.279,0-3.469,2.019-5.084,4.68-.37.606-.707.909-1.074.909-.471,0-1.113-1.077-1.113-1.887,0-.435.135-.639.776-1.178,3.43-2.928,5.654-6.194,6.226-9.158a10.945,10.945,0,0,1-2.827.538,1.937,1.937,0,0,1-1.651-1.144,4.526,4.526,0,0,1-.5-1.245.15.15,0,0,1,.1-.135c.067,0,.1.067.168.135a2.12,2.12,0,0,0,1.918.875,8.361,8.361,0,0,0,2.964-.538,5.656,5.656,0,0,0,.1-.909,1.563,1.563,0,0,0-1.548-1.752c-.1,0-.135-.031-.135-.135,0-.3,1.077-.808,1.683-.808a2.279,2.279,0,0,1,2.156,1.918,3.768,3.768,0,0,1-.269,1.214A4.438,4.438,0,0,0,158.539,7.2c1.079.538,1.416.774,1.416,1.01,0,.4-.606.673-3.771,1.582a36.866,36.866,0,0,1-3.7,6.9,5.344,5.344,0,0,1,2.154-.572,3.006,3.006,0,0,1,2.392,1.111,5.387,5.387,0,0,1,.875,1.918,14.882,14.882,0,0,1,2.392-3.872m2.223,3.4c3.735-2.086,3.735-2.086,4.139-2.423a1.755,1.755,0,0,0,.642-1.147,1.949,1.949,0,0,0-1.954-1.615,6.155,6.155,0,0,0-4.108,2.223,17.237,17.237,0,0,0-2.9,5.084.7.7,0,0,0-.067.269c1.012-.606,1.012-.606,4.245-2.392" transform="translate(206.761 7.221)" fill="#1a1311"/><path d="M160.291,15.278a7.831,7.831,0,0,1,5.622-2.894c2.324,0,4.074,1.346,4.074,3.1a1.923,1.923,0,0,1-.844,1.719c-.673.5-.906.606-3.872,1.784a59.583,59.583,0,0,0-6.9,3.132c.135,1.75.168,2.56.168,3,0,1.582-.337,2.019-1.615,2.019-.37,0-.57-.135-.57-.337a1.162,1.162,0,0,1,.031-.269,25.023,25.023,0,0,0,.135-3.469c-2.829,1.719-3.906,2.964-3.906,4.411,0,1.618,1.548,2.257,5.319,2.257a18.174,18.174,0,0,0,4.747-.574,2.731,2.731,0,0,1,.844-.166A1.732,1.732,0,0,1,165.07,30.3c0,1.077-2.12,1.615-6.531,1.615a10.728,10.728,0,0,1-5.286-.976,3.823,3.823,0,0,1-2.223-3.267c0-1.413.875-2.627,2.863-3.973.538-.37.538-.37,2.594-1.582a12.021,12.021,0,0,0-.4-4.108,1.658,1.658,0,0,0-1.519-1.111c-1.279,0-3.469,2.019-5.084,4.68-.37.606-.707.909-1.074.909-.471,0-1.113-1.077-1.113-1.887,0-.435.135-.639.776-1.178,3.43-2.928,5.654-6.194,6.226-9.158a10.945,10.945,0,0,1-2.827.538,1.937,1.937,0,0,1-1.651-1.144,4.526,4.526,0,0,1-.5-1.245.15.15,0,0,1,.1-.135c.067,0,.1.067.168.135a2.12,2.12,0,0,0,1.918.875,8.361,8.361,0,0,0,2.964-.538,5.656,5.656,0,0,0,.1-.909,1.563,1.563,0,0,0-1.548-1.752c-.1,0-.135-.031-.135-.135,0-.3,1.077-.808,1.683-.808a2.279,2.279,0,0,1,2.156,1.918,3.768,3.768,0,0,1-.269,1.214A4.438,4.438,0,0,0,158.539,7.2c1.079.538,1.416.774,1.416,1.01,0,.4-.606.673-3.771,1.582a36.866,36.866,0,0,1-3.7,6.9,5.344,5.344,0,0,1,2.154-.572,3.006,3.006,0,0,1,2.392,1.111,5.387,5.387,0,0,1,.875,1.918A14.882,14.882,0,0,1,160.291,15.278Zm2.223,3.4c3.735-2.086,3.735-2.086,4.139-2.423a1.755,1.755,0,0,0,.642-1.147,1.949,1.949,0,0,0-1.954-1.615,6.155,6.155,0,0,0-4.108,2.223,17.237,17.237,0,0,0-2.9,5.084.7.7,0,0,0-.067.269C159.281,20.465,159.281,20.465,162.514,18.679Z" transform="translate(206.761 7.221)" fill="none" stroke="#1a1311" stroke-linecap="round" stroke-linejoin="round" stroke-width="0.2"/><path d="M158.745,23.773c3.738.168,5.118.2,6.6.2h6.194a20.047,20.047,0,0,0,.538-3.7h-4.007c-1.548,0-2.659.036-5.219.137l-.606-1.147c3.1.135,4.344.168,5.824.168h4.074c.034-1.077.067-2.12.067-2.49V15.524h-4.007c-1.649,0-2.692.034-5.286.135l-.538-1.144c3.1.135,4.31.168,5.824.168h4.007c-.135-1.784-.135-2.086-.37-4.142l3.1.337c.538.07.808.272.808.572,0,.272-.168.5-.572.743l-.639.4c.034.976.034,1.111.034,2.086h5.959l1.784-1.952,2.627,1.784a.734.734,0,0,1,.168.541c0,.233-.135.469-.236.469h-10.3a37.2,37.2,0,0,1-.135,3.906h5.05l1.817-1.985,2.493,1.784a.774.774,0,0,1,.269.572c0,.236-.168.471-.3.471H174.4c-.236,1.719-.269,1.988-.608,3.7H184l1.954-2.12,3.13,2.288a.507.507,0,0,1,.135.3c0,.2-.1.337-.236.337H174.672c3.13,4.007,8.62,6.836,14.949,7.677-.437.236-.841.437-.976.5a6.31,6.31,0,0,0-2.591,2.055c-6.5-2.594-9.733-5.252-12.324-10.237h-.137a9.805,9.805,0,0,1-3.332,5.625,21.278,21.278,0,0,1-7.341,3.94,17.621,17.621,0,0,1-2.9.74.318.318,0,0,1-.337-.337c0-.2,0-.2,1.147-.608,6.093-2.288,9.461-5.286,10.5-9.36h-5.992c-1.752,0-3,.036-6.029.2ZM163.223,9.3a12.543,12.543,0,0,1,.1,1.413c0,2.055-1.144,3.67-2.591,3.67a1.279,1.279,0,0,1-1.416-1.144,1.159,1.159,0,0,1,.236-.808l1.382-1.618a5.526,5.526,0,0,0,1.043-3.13,4.985,4.985,0,0,0-.034-.639l.437-.1a4.822,4.822,0,0,1,.707,1.514h9.629V4.178l3.065.4a.6.6,0,0,1,.5.538.812.812,0,0,1-.437.639l-.774.471V8.454h8.552l1.279-1.55,3.132,2.627a1.289,1.289,0,0,1,.437.875.81.81,0,0,1-.911.707l-1.582-.2L183.023,12.8l-.437-.168L183.931,9.3Z" transform="translate(222.835 5.865)" fill="#1a1311"/><path d="M158.745,23.773c3.738.168,5.118.2,6.6.2h6.194a20.047,20.047,0,0,0,.538-3.7h-4.007c-1.548,0-2.659.036-5.219.137l-.606-1.147c3.1.135,4.344.168,5.824.168h4.074c.034-1.077.067-2.12.067-2.49V15.524h-4.007c-1.649,0-2.692.034-5.286.135l-.538-1.144c3.1.135,4.31.168,5.824.168h4.007c-.135-1.784-.135-2.086-.37-4.142l3.1.337c.538.07.808.272.808.572,0,.272-.168.5-.572.743l-.639.4c.034.976.034,1.111.034,2.086h5.959l1.784-1.952,2.627,1.784a.734.734,0,0,1,.168.541c0,.233-.135.469-.236.469h-10.3a37.2,37.2,0,0,1-.135,3.906h5.05l1.817-1.985,2.493,1.784a.774.774,0,0,1,.269.572c0,.236-.168.471-.3.471H174.4c-.236,1.719-.269,1.988-.608,3.7H184l1.954-2.12,3.13,2.288a.507.507,0,0,1,.135.3c0,.2-.1.337-.236.337H174.672c3.13,4.007,8.62,6.836,14.949,7.677-.437.236-.841.437-.976.5a6.31,6.31,0,0,0-2.591,2.055c-6.5-2.594-9.733-5.252-12.324-10.237h-.137a9.805,9.805,0,0,1-3.332,5.625,21.278,21.278,0,0,1-7.341,3.94,17.621,17.621,0,0,1-2.9.74.318.318,0,0,1-.337-.337c0-.2,0-.2,1.147-.608,6.093-2.288,9.461-5.286,10.5-9.36h-5.992c-1.752,0-3,.036-6.029.2ZM163.223,9.3a12.543,12.543,0,0,1,.1,1.413c0,2.055-1.144,3.67-2.591,3.67a1.279,1.279,0,0,1-1.416-1.144,1.159,1.159,0,0,1,.236-.808l1.382-1.618a5.526,5.526,0,0,0,1.043-3.13,4.985,4.985,0,0,0-.034-.639l.437-.1a4.822,4.822,0,0,1,.707,1.514h9.629V4.178l3.065.4a.6.6,0,0,1,.5.538.812.812,0,0,1-.437.639l-.774.471V8.454h8.552l1.279-1.55,3.132,2.627a1.289,1.289,0,0,1,.437.875.81.81,0,0,1-.911.707l-1.582-.2L183.023,12.8l-.437-.168L183.931,9.3Z" transform="translate(222.835 5.865)" fill="none" stroke="#1a1311" stroke-linecap="round" stroke-linejoin="round" stroke-width="0.2"/><path d="M181.416,15.994,183,14.144l2.089,1.918c.233.2.269.269.269.437,0,.269-.168.4-.471.4H180v7.778c2.591-.538,3.029-.639,5.959-1.447l.1.606c-2.089,1.01-7.476,3.2-10.1,4.108l-.267.606c-.171.5-.4.707-.743.707-.236,0-.4-.1-.606-.4l-2.019-2.625c2.591-.437,2.964-.507,5.488-1.079V16.9h-.4c-1.55,0-2.055,0-4.074.1L172.9,15.86c2.423.1,3.368.135,4.512.135h.4V8.016h-.74c-1.582,0-2.156.031-3.973.1l-.538-1.147c2.221.1,3.1.135,4.512.135h4.815l1.784-1.985,2.257,2.086a.692.692,0,0,1,.269.5.313.313,0,0,1-.337.305H180v7.978ZM197.579,5.726l.942-1.178L200.775,6.5c.269.2.337.337.337.471,0,.2-.135.337-.5.471l-.606.2V23.571c0,.437-.841.875-1.716.875-.4,0-.572-.168-.572-.572v-.909H196.2v7.879c0,1.077.067,1.111,1.82,1.111,2.288,0,2.726-.168,3.029-1.18l1.281-4.24.5.2-.339,3.4-.034.507c0,.437.1.639.608,1.01.438.337.639.639.639.942,0,.976-1.514,1.346-5.252,1.346-3.872,0-4.445-.236-4.445-1.851V22.965h-1.584c-.4,4.613-1.784,7.2-4.848,9.158-1.884,1.211-5.858,2.759-7.1,2.759-.2,0-.337-.1-.337-.236,0-.2.168-.334.74-.536,6.565-2.627,8.99-5.557,9.225-11.146h-1.144v1.043c0,.538-.841,1.043-1.651,1.043-.269,0-.4-.1-.4-.337V4.346l2.358,1.38Zm.135.909h-8.754v4.444h8.754Zm0,5.353h-8.754v4.68h8.754Zm0,5.591h-8.754v4.478h8.754Z" transform="translate(241.897 6.101)" fill="#1a1311"/><path d="M181.416,15.994,183,14.144l2.089,1.918c.233.2.269.269.269.437,0,.269-.168.4-.471.4H180v7.778c2.591-.538,3.029-.639,5.959-1.447l.1.606c-2.089,1.01-7.476,3.2-10.1,4.108l-.267.606c-.171.5-.4.707-.743.707-.236,0-.4-.1-.606-.4l-2.019-2.625c2.591-.437,2.964-.507,5.488-1.079V16.9h-.4c-1.55,0-2.055,0-4.074.1L172.9,15.86c2.423.1,3.368.135,4.512.135h.4V8.016h-.74c-1.582,0-2.156.031-3.973.1l-.538-1.147c2.221.1,3.1.135,4.512.135h4.815l1.784-1.985,2.257,2.086a.692.692,0,0,1,.269.5.313.313,0,0,1-.337.305H180v7.978ZM197.579,5.726l.942-1.178L200.775,6.5c.269.2.337.337.337.471,0,.2-.135.337-.5.471l-.606.2V23.571c0,.437-.841.875-1.716.875-.4,0-.572-.168-.572-.572v-.909H196.2v7.879c0,1.077.067,1.111,1.82,1.111,2.288,0,2.726-.168,3.029-1.18l1.281-4.24.5.2-.339,3.4-.034.507c0,.437.1.639.608,1.01.438.337.639.639.639.942,0,.976-1.514,1.346-5.252,1.346-3.872,0-4.445-.236-4.445-1.851V22.965h-1.584c-.4,4.613-1.784,7.2-4.848,9.158-1.884,1.211-5.858,2.759-7.1,2.759-.2,0-.337-.1-.337-.236,0-.2.168-.334.74-.536,6.565-2.627,8.99-5.557,9.225-11.146h-1.144v1.043c0,.538-.841,1.043-1.651,1.043-.269,0-.4-.1-.4-.337V4.346l2.358,1.38Zm.135.909h-8.754v4.444h8.754Zm0,5.353h-8.754v4.68h8.754Zm0,5.591h-8.754v4.478h8.754Z" transform="translate(241.897 6.101)" fill="none" stroke="#1a1311" stroke-linecap="round" stroke-linejoin="round" stroke-width="0.2"/><path d="M100.629,109.2a15.769,15.769,0,0,0-1.1,4.788H97.5a13.5,13.5,0,0,1,1.01-4.38,10.522,10.522,0,0,1,3.05-4.613l-.659.072H95.68v-1.735h7.8v1.735a10.838,10.838,0,0,0-2.846,4.132" transform="translate(134.309 145.044)" fill="#2b2726"/><rect width="1.971" height="2.014" transform="translate(238.861 257.014)" fill="#2b2726"/><path d="M104.477,114.3c-2.935,0-3.738-2.846-3.738-5.036,0-1.123.1-6.014,3.913-6.014a3.239,3.239,0,0,1,2.276.892,3.114,3.114,0,0,1,.947,1.983H105.95a1.314,1.314,0,0,0-1.344-1.252c-1.56,0-1.793,1.868-1.971,3.3a2.448,2.448,0,0,1,2.178-1.139,3.3,3.3,0,0,1,3.223,3.447,3.674,3.674,0,0,1-3.56,3.822m0-5.663a1.848,1.848,0,0,0-1.755,2.014,1.738,1.738,0,0,0,1.68,1.913,1.714,1.714,0,0,0,1.651-1.928c0-1.139-.615-2-1.577-2" transform="translate(141.41 144.933)" fill="#2b2726"/><path d="M108.256,113.526c-2.507,0-3.892-1.459-3.892-3.995v-5.658h1.728v5.865a2.134,2.134,0,1,0,4.264,0v-5.865h1.726v5.658c0,2.957-1.817,3.995-3.827,3.995" transform="translate(146.499 145.809)" fill="#2b2726"/><path d="M112.691,109.891h-2.572v3.327h-1.728v-9.343h4.3a2.943,2.943,0,0,1,3.19,2.957,3.022,3.022,0,0,1-3.19,3.06m-.255-4.557h-2.317v3.1h2.317a1.477,1.477,0,0,0,1.625-1.613c0-1.127-.716-1.483-1.625-1.483" transform="translate(152.151 145.811)" fill="#2b2726"/><path d="M78.073,66.9a5.252,5.252,0,0,1-3.606-1.418,4.855,4.855,0,0,1-1.51-3.187h3.07a2.073,2.073,0,0,0,2.115,2.024c2.512,0,2.884-3,3.161-5.279a3.971,3.971,0,0,1-3.464,1.839A5.262,5.262,0,0,1,72.7,55.371c0-2.767,1.954-6.069,5.651-6.069,4.7,0,5.976,4.512,5.976,8.024,0,1.764-.185,9.579-6.255,9.579m.418-14.836c-1.442,0-2.627,1.07-2.627,3.07,0,1.791.976,3.163,2.488,3.163a2.943,2.943,0,0,0,2.812-3.209,2.742,2.742,0,0,0-2.673-3.024" transform="translate(102.052 69.206)" fill="#bc323f"/><rect width="3.139" height="3.209" transform="translate(188.481 132.578)" fill="#bc323f"/><path d="M88.308,58.776A25.15,25.15,0,0,0,86.563,66.4H83.332a21.476,21.476,0,0,1,1.606-6.976A16.79,16.79,0,0,1,89.8,52.079l-1.046.115H80.426V49.428H92.844v2.767a17.216,17.216,0,0,0-4.536,6.581" transform="translate(112.896 69.383)" fill="#bc323f"/><path d="M92.551,65.656c-3.993,0-6.19-2.32-6.19-6.351v-9h2.747V59.63c0,2.567,1.445,3.543,3.358,3.543,2.24,0,3.423-1.243,3.423-3.543V50.308h2.745v9c0,4.7-2.889,6.351-6.084,6.351" transform="translate(121.227 70.619)" fill="#bc323f"/><path d="M99.612,59.875H95.52v5.293H92.773V50.308h6.839c3.238,0,5.069,2.178,5.069,4.7a4.8,4.8,0,0,1-5.069,4.865m-.406-7.247H95.52v4.925h3.685a2.349,2.349,0,0,0,2.584-2.565c0-1.791-1.139-2.36-2.584-2.36" transform="translate(130.228 70.619)" fill="#bc323f"/><rect width="168.46" height="33.986" transform="translate(282.241 160.704)" fill="#bc323f"/><rect width="15.194" height="2.488" transform="translate(289.714 177.068)" fill="#fff"/><path d="M141.373,74.521l-.108,2.13h-11.4l.108-2.13h-2V73.168h2.074l.108-2.147h11.406l-.108,2.147h2.022v1.353Zm-.053,12.163a16.762,16.762,0,0,1-4.728-2.038l.793-.9h-3.752l.849.868a.562.562,0,0,1,.161.324c0,.216-.125.272-.233.272a1.273,1.273,0,0,1-.488-.147,21.465,21.465,0,0,1-4.1,1.678l-1.409-1.8a6.5,6.5,0,0,0,3.3-1.192h-1.731V77.1h11.423v6.639h-2.058a9.756,9.756,0,0,0,3.464,1.228Zm-9.4-12.163-.055.9h2.8l.072-.9Zm.125-2.166-.053.812h2.832l.055-.812Zm7.274,6.081h-7.29V79.1h7.29Zm0,1.625h-7.29v.666h7.29Zm0,1.625h-7.29v.685h7.29Zm-2.654-7.166-.072.9h2.779l.055-.9Zm.144-2.166-.053.812H139.5l.053-.812Z" transform="translate(179.631 99.694)" fill="#fff"/><path d="M140.463,80.223v6.1H138.55v-5.2c-.524.219-1.192.507-1.373.562a1.666,1.666,0,0,0-.649.305c-.144.2-.2.288-.324.288a.175.175,0,0,1-.163-.144l-.577-1.933c1.209-.341,2.11-.647,3.086-1.01V75.658h-1.012a10.366,10.366,0,0,1-.486,2l-1.788-.272a24.733,24.733,0,0,0,.849-5.014l1.966.469c.091.019.183.089.183.18s-.075.144-.291.269c-.108.091-.125.147-.18.613h.76v-2.8l2.091.2a.258.258,0,0,1,.236.255.288.288,0,0,1-.144.214c-.127.108-.269.219-.269.344v1.786h1.514v1.752h-1.514v2.779a14.473,14.473,0,0,0,1.514-.776V79.43a10.779,10.779,0,0,1-1.514.793m8.913-2.452v1.406h1.769v1.75h-1.769v3.7c0,1.228-.4,1.695-2.022,1.695h-.921l-.613-1.911c.558.055.921.072,1.1.072.288,0,.4-.089.4-.361V80.927h-4.853v-1.75h4.853V77.771h-5.144V76.019h3.2v-1.57h-2.529V72.735h2.529V70.983l2.127.127a.177.177,0,0,1,.18.163.275.275,0,0,1-.072.18.5.5,0,0,0-.18.322v.959h3.195v1.714h-3.195v1.57h3.844v1.752Zm-5.5,6.875a11.008,11.008,0,0,0-1.514-2.166l1.406-1.067a12.852,12.852,0,0,1,1.625,2.257Z" transform="translate(189.874 99.641)" fill="#fff"/><path d="M158.353,86.237c-1.788,0-4.656.034-6.442.034A16.767,16.767,0,0,1,148.248,86a2.566,2.566,0,0,1-1.986-1.356,16.7,16.7,0,0,1-1.7,1.445c-.252.18-.288.18-.305.4-.019.18-.091.327-.18.327-.038,0-.127,0-.236-.219l-.937-1.913a11.346,11.346,0,0,0,2.291-1.137V79.161h-2.038v-1.75h4.077v5.377c0,1.389.921,1.769,3.447,1.769,2.743,0,5.577,0,8.247-.233ZM145.666,74.885a9.914,9.914,0,0,0-2.435-2.163l1.262-1.536a9.882,9.882,0,0,1,2.454,2.238Zm5.18,8.122v.7h-2.022V76.077a5.915,5.915,0,0,1-.776.882l-1.589-1.082a11.329,11.329,0,0,0,3.267-4.928l1.625.724c.127.053.38.18.38.288,0,.089-.163.108-.2.127-.163.017-.2.053-.236.108-.2.4-.486.882-.793,1.389h2.365a27.514,27.514,0,0,0,.957-2.671l1.839.269c.127.019.416.053.416.161,0,.075-.127.127-.18.166a.451.451,0,0,0-.272.161c-.288.666-.757,1.553-.937,1.913h3.447V75.12H155v1.118h2.651v1.425H155v1.12h2.687v1.459H155v1.264h3.356v1.5Zm2.11-7.887h-2.11v1.12h2.11Zm0,2.543h-2.11v1.12h2.11Zm0,2.579h-2.11V81.5h2.11Z" transform="translate(200.602 99.547)" fill="#fff"/><path d="M159.95,82.918v-.632h-9.437V80.3h9.437V74.022h-9.4v-2H162.1v10.9Z" transform="translate(211.278 101.095)" fill="#fff"/><rect width="12.831" height="2.291" transform="translate(375.96 177.157)" fill="#fff"/><path d="M174.7,84.339a28.443,28.443,0,0,0-4.4-4.512,17.445,17.445,0,0,1-6.17,4.639l-1.589-1.644a15.959,15.959,0,0,0,5.755-3.9A14.4,14.4,0,0,0,171.359,74h-6.877V71.9h7.778a1.7,1.7,0,0,0,.937-.4l1.392,1.536a2.5,2.5,0,0,0-.976,1.082,21.872,21.872,0,0,1-2.091,4.043,36,36,0,0,1,4.781,4.457Z" transform="translate(228.155 100.378)" fill="#fff"/><path d="M178.044,80.8v5.25h-2.257V80.8H169.2V78.867h6.584V73h-5.863v-1.88h14.093V73h-5.973v5.863h6.55V80.8Zm-5.269-2.637a15.818,15.818,0,0,0-1.75-3.752l1.8-.8a12.209,12.209,0,0,1,1.716,3.827Zm10.105-3.5c-.305.127-.361.161-.416.288a20.592,20.592,0,0,1-1.442,3.392l-1.769-.738c.577-1.3,1.12-2.654,1.606-4.024l1.805.594c.125.038.341.127.341.288a.211.211,0,0,1-.125.2" transform="translate(237.515 99.84)" fill="#fff"/><path d="M191.761,84.093c-.488,1.663-1.173,2.546-2.743,2.546h-1.5l-.793-2.2c.252.019,1.517.125,1.805.125.486,0,1.046-.358,1.279-1.4a34.861,34.861,0,0,0,.632-7.762h-5.358a11.916,11.916,0,0,1-.921,1.714h3.9V79.1h-4.041v-1.75a7.82,7.82,0,0,1-.849,1.065l-1.824-.921a12.8,12.8,0,0,0,.9-1.12h-1.5v4.187c.793-.324,1.173-.488,1.894-.829v2.11c-1.334.687-2.454,1.137-4.4,1.966-.6.255-.666.272-.793.435-.125.142-.324.377-.433.377-.144,0-.252-.161-.272-.377l-.18-2.418a16.552,16.552,0,0,0,2.149-.562V76.37h-1.805V74.4h1.805V70.957l2,.255c.108.017.449.053.449.269a.313.313,0,0,1-.108.236c-.072.072-.305.305-.305.4V74.4h1.913v1.3a11.539,11.539,0,0,0,1.406-4.819l2.166.288c.18.019.324.108.324.269a.356.356,0,0,1-.18.274c-.18.127-.2.161-.216.216a14.159,14.159,0,0,1-.361,1.514h6.678c-.036,5.053-.055,8.411-.723,10.646m-7.471.019a2.73,2.73,0,0,0-.74.38c-.144.178-.2.252-.324.252-.108,0-.2-.108-.236-.236l-.63-1.966a29.5,29.5,0,0,0,6.425-2.762l.252,1.877a49.556,49.556,0,0,1-4.747,2.454" transform="translate(247.852 99.503)" fill="#fff"/><path d="M132.991,85.733l-20.6-8.944,20.6-4.877" transform="translate(157.773 100.944)" fill="#bc323f"/><rect width="168.46" height="33.986" transform="translate(282.241 211.182)" fill="#3396d6"/><path d="M132.991,106.733l-20.6-8.944,20.6-4.877" transform="translate(157.773 130.422)" fill="#3396d6"/><rect width="449.867" height="31.179" transform="translate(0.834 58.274)" fill="#e5dfdc"/><path d="M29.177,43.605H21.8v-15.8h6.925c3.2,0,5.086,1.471,5.086,3.937a3.479,3.479,0,0,1-.911,2.425,2.971,2.971,0,0,1-2.077.952,4.03,4.03,0,0,1,2.6,1.168,3.656,3.656,0,0,1,.952,2.553,4.91,4.91,0,0,1-5.194,4.762M29,30.274H24.721v3.851h3.808c1.276,0,2.36-.649,2.36-2.01A1.763,1.763,0,0,0,29,30.274m.238,6.255H24.721v4.608H28.9a2.34,2.34,0,0,0,2.509-2.38,2.105,2.105,0,0,0-2.163-2.228" transform="translate(30.598 39.035)" fill="#bc323f"/><path d="M30.848,36.363c.108.587.541,2.945,2.834,2.945A2.125,2.125,0,0,0,35.8,37.9h2.877a5.08,5.08,0,0,1-5.149,3.721c-3.161,0-5.541-2.1-5.541-6.079,0-4.156,2.574-6.125,5.454-6.125a4.963,4.963,0,0,1,4.283,2.207A8.65,8.65,0,0,1,38.9,36.363Zm2.618-4.608c-2.12,0-2.488,2.012-2.618,2.75H35.8c-.065-1.82-.909-2.75-2.336-2.75" transform="translate(39.29 41.296)" fill="#bc323f"/><path d="M40.958,41.341V33.984c0-1.3-.541-2.163-1.969-2.163a2.411,2.411,0,0,0-2.553,2.726v6.8H33.579V29.7h2.858v.974l-.108,1a3.832,3.832,0,0,1,3.591-2.25c2.466,0,3.894,1.471,3.894,4.11v7.812Z" transform="translate(47.136 41.296)" fill="#bc323f"/><path d="M41.756,36.363c.108.587.541,2.945,2.834,2.945A2.125,2.125,0,0,0,46.71,37.9h2.88a5.086,5.086,0,0,1-5.151,3.721c-3.158,0-5.541-2.1-5.541-6.079,0-4.156,2.574-6.125,5.454-6.125a4.963,4.963,0,0,1,4.283,2.207,8.651,8.651,0,0,1,1.171,4.738Zm2.618-4.608c-2.12,0-2.488,2.012-2.618,2.75H46.71c-.065-1.82-.909-2.75-2.336-2.75" transform="translate(54.602 41.296)" fill="#bc323f"/><path d="M49.221,41.625a5.391,5.391,0,0,1-3.764-1.363,3.657,3.657,0,0,1-1.06-2.728h2.856a1.9,1.9,0,0,0,2.1,1.82c.238,0,1.666,0,1.666-1.147,0-.8-.584-1.062-2.423-1.711-2.38-.865-3.981-1.428-3.981-3.548,0-1.947,1.86-3.529,4.521-3.529a4.777,4.777,0,0,1,3.4,1.211,3.621,3.621,0,0,1,1.06,2.642H50.736a1.5,1.5,0,0,0-1.666-1.579c-1.147,0-1.6.649-1.6,1.082,0,.584.541.779,1.449,1.125,2.9,1.1,3.007,1.168,3.678,1.623a3,3,0,0,1,1.3,2.49c0,2.272-2.144,3.613-4.675,3.613" transform="translate(62.321 41.296)" fill="#bc323f"/><path d="M54.171,41.625a5.391,5.391,0,0,1-3.764-1.363,3.657,3.657,0,0,1-1.06-2.728H52.2a1.9,1.9,0,0,0,2.1,1.82c.238,0,1.666,0,1.666-1.147,0-.8-.584-1.062-2.423-1.711-2.38-.865-3.981-1.428-3.981-3.548,0-1.947,1.86-3.529,4.521-3.529a4.777,4.777,0,0,1,3.4,1.211,3.62,3.62,0,0,1,1.06,2.642H55.686a1.5,1.5,0,0,0-1.666-1.579c-1.147,0-1.6.649-1.6,1.082,0,.584.541.779,1.449,1.125,2.9,1.1,3.007,1.168,3.678,1.623a3,3,0,0,1,1.3,2.49c0,2.272-2.144,3.613-4.675,3.613" transform="translate(69.27 41.296)" fill="#bc323f"/><path d="M57.11,36.363c.108.587.541,2.945,2.834,2.945a2.125,2.125,0,0,0,2.12-1.406h2.877a5.08,5.08,0,0,1-5.149,3.721c-3.161,0-5.541-2.1-5.541-6.079,0-4.156,2.574-6.125,5.454-6.125a4.963,4.963,0,0,1,4.283,2.207,8.651,8.651,0,0,1,1.171,4.738Zm2.618-4.608c-2.12,0-2.488,2.012-2.618,2.75h4.954c-.065-1.82-.909-2.75-2.336-2.75" transform="translate(76.155 41.296)" fill="#bc323f"/><path d="M75.5,36.458v-2.6H62.663v2.707H60.327V31.847H71.06a17.21,17.21,0,0,0,2.642-4.07l2.142.716c.13.043.368.195.368.368a.126.126,0,0,1-.087.13c-.065.065-.541.173-.627.26a18.429,18.429,0,0,1-1.687,2.6h4.067v4.61Zm-5.065,4.608v3.269c0,1.514-1.255,1.882-2.574,1.882H66.495l-.952-2.293c.257.019,1.471.127,1.731.127.368,0,.519-.322.519-.649V41.066H60.327v-2.12h7.466V37.6l1.038.173a3.942,3.942,0,0,0,.822-.909H63.875V34.854h9.8l.606.954c-.976.887-2.683,2.293-3.853,3.137h7.336v2.12Zm-6.8-9.413a13.335,13.335,0,0,0-1.86-2.88l1.99-1.209a13.2,13.2,0,0,1,1.928,2.791Zm4.913-.433A14.872,14.872,0,0,0,66.538,28.1l1.969-1.171a14.923,14.923,0,0,1,2.12,3.183Z" transform="translate(84.683 37.808)" fill="#bc323f"/><path d="M86.781,40.025c-.476,4.156-1.363,5.062-5.454,5.3l-1.1-2.707a14.31,14.31,0,0,0,1.733.151c1.687,0,1.925-.779,2.12-2.25a54.719,54.719,0,0,0,.519-7.358H79.163c-.216,4.286-1.9,9.651-7.444,12.617l-2.293-2.1c6.146-2.574,6.882-7.488,7.228-10.516H70.443V30.677h6.276c.022-1.906,0-2.836-.043-3.572l2.38.195c.584.043.911.087.911.325a.214.214,0,0,1-.067.173c-.065.087-.389.411-.433.5a15.911,15.911,0,0,0-.13,2.38h7.9a79.106,79.106,0,0,1-.454,9.348" transform="translate(97.455 38.048)" fill="#bc323f"/><path d="M89.6,45v.649H87.26V34.937a11.858,11.858,0,0,1-.974,1.1l-.173-.151.065,1.387c-1.536.649-1.709.712-2.228.887v4.889c0,1.993-.541,2.728-2.231,2.728H80.359l-1.3-2.642a13.912,13.912,0,0,0,1.687.13c.565,0,.692-.195.692-.584V39.158c-.151.043-1.385.5-1.428.519a.817.817,0,0,0-.216.26c-.151.238-.216.3-.324.3-.195,0-.281-.411-.3-.584l-.389-2.336c1.558-.433,1.8-.5,2.661-.76V32.579H78.993V30.327h2.445V27.06l2.555.087c.151,0,.519.043.519.281,0,.089-.065.13-.151.195-.368.325-.411.368-.411.5v2.2h2.293v2.036a20.625,20.625,0,0,0,2.445-5l2.555.608c.13.019.389.127.389.3,0,.13-.108.173-.173.216-.411.175-.454.175-.584.454-.324.736-.519,1.106-1.084,2.144h1.885a14.183,14.183,0,0,0,1.709-3.68L96,28.014c.216.041.435.127.435.322,0,.132-.089.195-.219.238-.454.151-.519.173-.606.327a23.771,23.771,0,0,1-1.471,2.185h3.442v2.12H93.947v1.6h2.661v2.142H93.947v1.776h2.661v2.12H93.947v1.9h3.637V45ZM83.95,32.579v3.18c.346-.065,1-.3,1.406-.433l-1.017-.736a12.955,12.955,0,0,0,1.774-2.012Zm7.639.627H89.6v1.6h1.993Zm0,3.743H89.6v1.774h1.993Zm0,3.9H89.6v1.9h1.993Z" transform="translate(110.581 37.985)" fill="#bc323f"/><path d="M96.576,46.107l-1.471-2.163a17.074,17.074,0,0,0,5.8-1.668,10.148,10.148,0,0,0-1.49-1.752,14.215,14.215,0,0,1-2.187,1.255l-1.733-1.8a14.331,14.331,0,0,0,6.17-4.392,21.925,21.925,0,0,1-4.437,2.142l-1.733-1.9a11.481,11.481,0,0,0,4.526-1.711A9.494,9.494,0,0,0,98.5,32.5a7.425,7.425,0,0,1-1.341.949l-1.339-1.038V34.55H93.851v.175a7.652,7.652,0,0,0,2.637,2.921l-1.536,1.817a7.1,7.1,0,0,1-1.1-1.147v7.574h-2.4V39.571a12.086,12.086,0,0,1-1.428,2.25l-2.036-1.493a16.805,16.805,0,0,0,3.163-5.779H88.764V32.235h2.683V30.31c-1.036.108-1.6.151-2.207.173l-.909-2.228a15.059,15.059,0,0,0,6.384-1.082L95.99,28.99a.856.856,0,0,1,.173.411.2.2,0,0,1-.214.195c-.108,0-.63-.087-.76-.087a.944.944,0,0,0-.368.087,7.56,7.56,0,0,1-.971.281v2.358H95.6l-.411-.3a8.759,8.759,0,0,0,3.033-2.163,12.608,12.608,0,0,0,2.1-2.834l2.272.757c.106.043.368.13.368.3s-.219.26-.3.281a.872.872,0,0,0-.433.281l-.2.238h4.545l.887.649a18.141,18.141,0,0,1-4.435,5.151l1.512.649c.111.043.392.173.392.368a.176.176,0,0,1-.046.151c-.062.065-.5.195-.584.26a6.558,6.558,0,0,0-.6.714h3.61l.933.649a15.314,15.314,0,0,1-11.663,8.721m3.745-15.365-.3.325a10.351,10.351,0,0,1,1.75,1.752,15.843,15.843,0,0,0,1.993-2.077Zm1.428,7.964c-.26.216-.305.26-.651.562a9.206,9.206,0,0,1,1.625,1.817,7.957,7.957,0,0,0,2.12-2.38Z" transform="translate(123.504 37.809)" fill="#bc323f"/><path d="M97.785,29.88H104.8v1.925H97.785Zm14.759,15.127-.887-1.9c.519-.024,1.449-.046,1.536-.046.454-.087.562-.346.562-1.082V29.252h-6.211v4.283c0,3.959-.3,8.288-2.423,11.644l-1.947-.887a8.242,8.242,0,0,0,.433-.738H100.3V44.9H98.131V37.887h6.276v4a14.019,14.019,0,0,0,.779-2.639,32.262,32.262,0,0,0,.411-5.8c0-2.012-.043-4.024-.108-6.038H115.94V42.3c0,1.8-.519,2.685-3.4,2.707M98.715,32.714h5.346v1.731H98.715Zm0,2.618h5.322v1.731H98.715ZM99,27.3h5.065v1.752H99Zm3.291,12.444H100.3v1.882h1.99Zm7.574,2.4v1.038H108V36.675H112.8v5.473Zm-1.841-6.512V33.9h1.647v-1.3H108.15V30.853h1.517V29.707l2.055.108c.087,0,.238.019.238.13,0,.065-.022.087-.13.192-.043.067-.151.175-.151.262v.454h1.449v1.752h-1.449v1.3h1.514v1.733Zm3.118,2.683h-1.276v1.9h1.276Z" transform="translate(137.263 38.326)" fill="#bc323f"/><path d="M124.859,36.834a19.224,19.224,0,0,1-2.38-1.127v7.812h3.57v1.947H107.417V43.519h3.637V35.577a17.433,17.433,0,0,1-2.512,1.214l-1.514-1.755a12.285,12.285,0,0,0,6.3-4.2H107.4v-1.86h7.747V27.051l2.663.238c.474.043.519.151.519.24,0,.106-.022.106-.216.257s-.219.173-.219.216v.976h8.182v1.86h-7.012a18.6,18.6,0,0,0,7.423,3.916Zm-6.968-4.5v2.531h-2.747V32.354a16.483,16.483,0,0,1-3.894,3.094h10.776a21.891,21.891,0,0,1-4.134-3.115m2.079,4.824h-6.384v1.06h6.384Zm0,2.6h-6.384v1.1h6.384Zm0,2.618h-6.384v1.147h6.384Z" transform="translate(150.238 37.972)" fill="#bc323f"/><path d="M136.354,45.971l-.671-2.312c1.06,0,1.32,0,1.32-.76v-.627h-1.341V45.3h-1.709V42.271h-.887V45.3h-1.731V42.271h-.887v3.5h-2.1V41.1a14.743,14.743,0,0,1-2.012,4.286l-1.841-1.322v1.82h-2.336V35.454a8.223,8.223,0,0,1-.736.974l-1.839-1.449a19.452,19.452,0,0,0,3.594-7.964l2.185.476c.216.043.671.089.671.411,0,.26-.3.284-.649.522-.433,1.385-.692,2.034-.974,2.747.627.216.692.238.692.411,0,.108-.022.195-.26.346-.087.043-.349.216-.349.433V43.634a7.681,7.681,0,0,0,1.344-2.423,19.409,19.409,0,0,0,1-6.73c0-1.449-.108-2.747-.173-3.94h12.225v4.978h-9.716c0,.065-.043,1.255-.043,1.365h10V44.24c0,1.19-.627,1.428-2.769,1.731M126.378,27.58h13.091v2.1H126.378Zm10.149,4.781h-7.444c.022.671.022.844.043,1.341h7.4Zm-5.192,6.449h-.887V40.3h.887Zm2.618,0h-.887V40.3h.887Zm3.05,0h-1.341V40.3H137Z" transform="translate(167.862 37.922)" fill="#bc323f"/><path d="M133.814,45.824V43.766a12.45,12.45,0,0,1-2.574,2.058l-2.252-1.711a10.922,10.922,0,0,0,5.757-6.468h-4.413V35.608h7.985V34.375h-5.238v-1.86h5.238V31.5h-7.274v-2.12h4.7a5,5,0,0,0-1.19-1.538l2.3-.887a11.3,11.3,0,0,1,1.707,2.058l-.971.368h3.591c.627-.976.952-1.538,1.428-2.425l2.272.649c.151.043.392.13.392.346,0,.108-.046.151-.26.238-.043.022-.413.151-.478.195a5.8,5.8,0,0,1-.627,1h4.286V31.5h-7.25v1.017H146v1.86h-5.065v1.233h7.942v2.036H137.451a12.735,12.735,0,0,1-.5,1.385h10.475v2.12h-4.892v2.466h6.406v2.209ZM140,41.148h-4.156a12.082,12.082,0,0,1-1.882,2.466H140Z" transform="translate(181.062 37.833)" fill="#bc323f"/><path d="M145.026,28.551c-.3.087-.346.087-.411.195a23.689,23.689,0,0,1-1.06,2.555c.173.108.519.346.519.584,0,.108-.065.195-.324.346-.111.065-.281.173-.281.281v13.4h-2.122V35.217a6.536,6.536,0,0,1-.692.844l-2.1-1.428a16.262,16.262,0,0,0,3.937-7.617l2.425.93c.151.065.368.173.368.346,0,.151-.13.216-.26.26m2.012,16.643v.714h-2.207V33.334l2.185.238c.238.022.562.087.562.3,0,.108-.087.173-.195.26-.324.216-.346.238-.346.325V43.18h11.211v2.014Zm6.211-14.369v1.341h3.894V42.315h-9.024V32.166H150.8V30.825h-5v-2.1h5V27.058l2.3.238c.519.043.692.151.692.3,0,.195-.216.3-.541.478v.649h5.019v2.1Zm1.687,3.223h-4.675v1.017h4.675Zm0,2.661h-4.675v1.017h4.675Zm0,2.663h-4.675v1.06h4.675Z" transform="translate(194.493 37.922)" fill="#bc323f"/><path d="M159.192,45v.649h-2.336V34.937a11.846,11.846,0,0,1-.974,1.1l-.173-.151.065,1.387c-1.536.649-1.709.712-2.228.887v4.889c0,1.993-.541,2.728-2.228,2.728h-1.365l-1.3-2.642a13.912,13.912,0,0,0,1.687.13c.565,0,.692-.195.692-.584V39.158c-.151.043-1.385.5-1.425.519a.826.826,0,0,0-.219.26c-.151.238-.214.3-.322.3-.195,0-.284-.411-.305-.584l-.387-2.336c1.555-.433,1.8-.5,2.659-.76V32.579h-2.445V30.327h2.445V27.06l2.555.087c.151,0,.519.043.519.281,0,.089-.065.13-.151.195-.368.325-.411.368-.411.5v2.2h2.293v2.036a20.7,20.7,0,0,0,2.447-5l2.553.608c.13.019.389.127.389.3,0,.13-.108.173-.173.216-.411.175-.454.175-.584.454-.324.736-.519,1.106-1.082,2.144h1.882a14.187,14.187,0,0,0,1.709-3.68l2.62.608c.214.041.433.127.433.322,0,.132-.087.195-.219.238-.454.151-.517.173-.606.327a23.784,23.784,0,0,1-1.471,2.185h3.442v2.12h-3.637v1.6H166.2v2.142h-2.661v1.776H166.2v2.12h-2.661v1.9h3.637V45Zm-5.646-12.42v3.18c.346-.065,1-.3,1.406-.433l-1.017-.736a12.955,12.955,0,0,0,1.774-2.012Zm7.639.627h-1.993v1.6h1.993Zm0,3.743h-1.993v1.774h1.993Zm0,3.9h-1.993v1.9h1.993Z" transform="translate(208.278 37.985)" fill="#bc323f"/><path d="M166.172,46.107,164.7,43.944a17.073,17.073,0,0,0,5.8-1.668,10.175,10.175,0,0,0-1.493-1.752,14.185,14.185,0,0,1-2.185,1.255l-1.733-1.8a14.309,14.309,0,0,0,6.168-4.392,21.847,21.847,0,0,1-4.435,2.142l-1.733-1.9a11.473,11.473,0,0,0,4.524-1.711A9.561,9.561,0,0,0,168.1,32.5a7.6,7.6,0,0,1-1.341.949l-1.341-1.038V34.55h-1.969v.175a7.661,7.661,0,0,0,2.639,2.921l-1.536,1.817a7.079,7.079,0,0,1-1.1-1.147v7.574h-2.4V39.571a12.214,12.214,0,0,1-1.428,2.25l-2.036-1.493a16.794,16.794,0,0,0,3.161-5.779h-2.38V32.235h2.683V30.31c-1.038.108-1.6.151-2.209.173l-.909-2.228a15.052,15.052,0,0,0,6.384-1.082l1.276,1.817a.886.886,0,0,1,.173.411.2.2,0,0,1-.216.195c-.108,0-.627-.087-.757-.087a.929.929,0,0,0-.368.087,7.568,7.568,0,0,1-.974.281v2.358H165.2l-.411-.3a8.756,8.756,0,0,0,3.031-2.163,12.608,12.608,0,0,0,2.1-2.834l2.272.757c.108.043.368.13.368.3s-.216.26-.3.281a.882.882,0,0,0-.433.281l-.195.238h4.545l.887.649a18.141,18.141,0,0,1-4.437,5.151l1.514.649c.111.043.389.173.389.368a.183.183,0,0,1-.043.151c-.065.065-.5.195-.584.26a6.574,6.574,0,0,0-.606.714H176.9l.933.649a15.318,15.318,0,0,1-11.665,8.721m3.745-15.365-.3.325a10.332,10.332,0,0,1,1.752,1.752,15.866,15.866,0,0,0,1.99-2.077Zm1.428,7.964c-.26.216-.3.26-.649.562a9.2,9.2,0,0,1,1.623,1.817,7.942,7.942,0,0,0,2.122-2.38Z" transform="translate(221.201 37.809)" fill="#bc323f"/><line x2="259.783" transform="translate(29.929 315.016)" fill="none" stroke="#1a1311" stroke-miterlimit="10" stroke-width="0.276"/><line y1="5.221" transform="translate(62.402 309.795)" fill="none" stroke="#1a1311" stroke-miterlimit="10" stroke-width="0.276"/><line y1="5.221" transform="translate(159.817 309.795)" fill="none" stroke="#1a1311" stroke-miterlimit="10" stroke-width="0.276"/><line y1="5.221" transform="translate(257.238 309.795)" fill="none" stroke="#1a1311" stroke-miterlimit="10" stroke-width="0.276"/><path d="M7.136,136.763a3.189,3.189,0,0,1-2.75-1.183,3.139,3.139,0,0,1-.55-1.748H4.925a1.983,1.983,0,0,0,2.235,2.034c1.471,0,2.211-.851,2.211-1.913,0-1.267-1.053-1.673-1.985-1.673H6.466v-.788h.779c.668,0,1.865-.373,1.865-1.531,0-.668-.382-1.507-1.841-1.507a1.97,1.97,0,0,0-1.555.6,2.031,2.031,0,0,0-.442,1.195H4.194a2.79,2.79,0,0,1,3.086-2.69c1.745,0,2.906.933,2.906,2.284a1.951,1.951,0,0,1-1.519,1.971,2.07,2.07,0,0,1,1.781,2.154c0,1.553-1.209,2.8-3.312,2.8" transform="translate(5.385 179.055)" fill="#1a1311"/><path d="M10.289,136.623a2.881,2.881,0,0,1-3.168-2.485H8.256a1.941,1.941,0,0,0,2.034,1.6,2.132,2.132,0,0,0,2.317-2.142,1.947,1.947,0,0,0-2.115-2.043,2.3,2.3,0,0,0-1.875.791H7.491l.776-4.687h4.985v.9H9.21l-.442,2.666a2.926,2.926,0,0,1,1.865-.562,2.809,2.809,0,0,1,3.1,2.928c0,2-1.591,3.038-3.445,3.038" transform="translate(9.996 179.195)" fill="#1a1311"/><path d="M9.163,120.207v2.07H8.086v-2.07H3.841v-.918l4.341-5.74h.981v5.74h1.279v.918Zm-1.077-5.163L4.87,119.289H8.086Z" transform="translate(5.392 159.392)" fill="#1a1311"/><path d="M10.432,122.655c-2.678,0-3.312-2.4-3.312-4.6s.635-4.6,3.312-4.6,3.3,2.428,3.3,4.6-.623,4.6-3.3,4.6m0-8.31c-1.709,0-2.175,1.747-2.175,3.707,0,2.046.5,3.707,2.175,3.707s2.175-1.673,2.175-3.707-.49-3.707-2.175-3.707" transform="translate(9.995 159.251)" fill="#1a1311"/><path d="M9.163,98.482v2.07H8.086v-2.07H3.841v-.918l4.341-5.74h.981v5.74h1.279v.918ZM8.086,93.319,4.87,97.564H8.086Z" transform="translate(5.392 128.896)" fill="#1a1311"/><path d="M10.289,100.79A2.881,2.881,0,0,1,7.121,98.3H8.256a1.941,1.941,0,0,0,2.034,1.6,2.132,2.132,0,0,0,2.317-2.142,1.947,1.947,0,0,0-2.115-2.043,2.3,2.3,0,0,0-1.875.791H7.491l.776-4.687h4.985v.9H9.21l-.442,2.666a2.927,2.927,0,0,1,1.865-.562,2.809,2.809,0,0,1,3.1,2.928c0,2-1.591,3.038-3.445,3.038" transform="translate(9.996 128.896)" fill="#1a1311"/><path d="M7.005,79.067a2.881,2.881,0,0,1-3.168-2.485H4.972a1.941,1.941,0,0,0,2.034,1.6,2.133,2.133,0,0,0,2.32-2.142A1.949,1.949,0,0,0,7.207,74a2.3,2.3,0,0,0-1.875.791H4.207L4.984,70.1H9.969V71H5.928l-.442,2.666A2.915,2.915,0,0,1,7.351,73.1a2.807,2.807,0,0,1,3.1,2.928c0,2-1.591,3.038-3.445,3.038" transform="translate(5.386 98.403)" fill="#1a1311"/><path d="M10.432,79.207c-2.678,0-3.312-2.4-3.312-4.6S7.755,70,10.432,70s3.3,2.428,3.3,4.6-.623,4.6-3.3,4.6m0-8.31c-1.709,0-2.175,1.747-2.175,3.707,0,2.046.5,3.707,2.175,3.707s2.175-1.673,2.175-3.707-.49-3.707-2.175-3.707" transform="translate(9.995 98.262)" fill="#1a1311"/><path d="M7.005,57.345a2.881,2.881,0,0,1-3.168-2.488H4.972a1.941,1.941,0,0,0,2.034,1.6,2.133,2.133,0,0,0,2.32-2.142,1.949,1.949,0,0,0-2.118-2.043,2.309,2.309,0,0,0-1.875.788H4.207l.776-4.687H9.969v.9H5.928l-.442,2.666a2.932,2.932,0,0,1,1.865-.56,2.807,2.807,0,0,1,3.1,2.928c0,2-1.591,3.038-3.445,3.038" transform="translate(5.386 67.908)" fill="#1a1311"/><path d="M10.289,57.345a2.881,2.881,0,0,1-3.168-2.488H8.256a1.941,1.941,0,0,0,2.034,1.6,2.132,2.132,0,0,0,2.317-2.142,1.947,1.947,0,0,0-2.115-2.043,2.306,2.306,0,0,0-1.875.788H7.491l.776-4.687h4.985v.9H9.21l-.442,2.666a2.944,2.944,0,0,1,1.865-.56,2.809,2.809,0,0,1,3.1,2.928c0,2-1.591,3.038-3.445,3.038" transform="translate(9.996 67.908)" fill="#1a1311"/><line y1="196.767" transform="translate(29.929 118.249)" fill="none" stroke="#1a1311" stroke-miterlimit="10" stroke-width="0.276"/><line x2="6.495" transform="translate(29.929 315.016)" fill="none" stroke="#1a1311" stroke-miterlimit="10" stroke-width="0.276"/><line x2="6.495" transform="translate(29.929 281.104)" fill="none" stroke="#1a1311" stroke-miterlimit="10" stroke-width="0.276"/><line x2="6.495" transform="translate(29.929 228.886)" fill="none" stroke="#1a1311" stroke-miterlimit="10" stroke-width="0.276"/><line x2="6.495" transform="translate(29.929 176.667)" fill="none" stroke="#1a1311" stroke-miterlimit="10" stroke-width="0.276"/><line x2="6.495" transform="translate(29.929 124.449)" fill="none" stroke="#1a1311" stroke-miterlimit="10" stroke-width="0.276"/><line x1="97.413" y2="57.189" transform="translate(62.403 244.551)" fill="none" stroke="#3396d6" stroke-linecap="round" stroke-miterlimit="10" stroke-width="1.843"/><line x1="97.421" y2="15.665" transform="translate(159.818 228.886)" fill="none" stroke="#3396d6" stroke-linecap="round" stroke-miterlimit="10" stroke-width="1.843"/><line x1="97.413" y2="92.93" transform="translate(62.403 151.527)" fill="none" stroke="#bc323f" stroke-linecap="round" stroke-miterlimit="10" stroke-width="2"/><line x1="97.421" y2="11.983" transform="translate(159.818 139.545)" fill="none" stroke="#bc323f" stroke-linecap="round" stroke-miterlimit="10" stroke-width="2"/><path d="M104.784,61.189a5.366,5.366,0,1,1,5.368,5.368,5.368,5.368,0,0,1-5.368-5.368" transform="translate(147.088 78.357)" fill="#bc323f"/><path d="M23.728,104.835A5.366,5.366,0,1,1,29.1,110.2a5.368,5.368,0,0,1-5.368-5.368" transform="translate(33.308 139.624)" fill="#bc323f"/><path d="M23.728,128.665a5.366,5.366,0,1,1,5.368,5.368,5.368,5.368,0,0,1-5.368-5.368" transform="translate(33.308 173.077)" fill="#3396d6"/><path d="M104.784,98.356a5.366,5.366,0,1,1,5.368,5.368,5.368,5.368,0,0,1-5.368-5.368" transform="translate(147.088 130.53)" fill="#3396d6"/><path d="M30.888,140.432v-.68h-3.4v3.884h-.9v-3.884H23.258v.62h-.906v-4.985h4.243v-2.606l.836.084c.156.012.276.024.276.132,0,.082-.1.142-.216.19v2.2H31.8v5.045ZM26.595,136.2H23.258v2.738h3.336Zm4.293,0h-3.4v2.738h3.4Z" transform="translate(31.376 186.388)" fill="#1a1311"/><path d="M29.422,142.031v-6.384H27.581v-.776A1.913,1.913,0,0,0,29.7,133.3h.824v8.728Z" transform="translate(38.716 187.121)" fill="#1a1311"/><path d="M19.506,138.26a5.989,5.989,0,0,0-1.077,1.449,7.918,7.918,0,0,0,0,7.721,5.989,5.989,0,0,0,1.077,1.449l-.49.43a6.61,6.61,0,0,1-1.125-1.507,8.542,8.542,0,0,1,0-8.466,6.61,6.61,0,0,1,1.125-1.507Z" transform="translate(23.538 193.476)" fill="#1a1311"/><path d="M28.319,148.38a8.871,8.871,0,0,1-2.618-2.368,9.2,9.2,0,0,1-1.615-3.348,8.726,8.726,0,0,1-4.757,5.836l-.659-.8a7.459,7.459,0,0,0,3.743-3.219,11.049,11.049,0,0,0,1.3-5.512H21.228v-.861h3.457c0,.226-.012.37-.024.791-.012.2-.048,1.074-.048,1.252a9,9,0,0,0,.873,3.865,7.979,7.979,0,0,0,3.529,3.55Z" transform="translate(26.208 193.867)" fill="#1a1311"/><path d="M29.508,145.723v1.841c0,.947-.274,1.291-1.805,1.279l-.442-.954c.382.024.608.024.752.024.312,0,.562-.012.562-.406v-1.784H23.72v-.776h4.856V143.87l.74.06a11.4,11.4,0,0,0,1.339-.969H26.016v-.743h6.017l.274.526c-1.279.959-2.344,1.651-2.8,1.94v.262h4.949v.776Zm3.851-2.786v-1.745h-8.55V143h-.873v-2.56h10.3v2.5Zm-7.031-2.678a7.678,7.678,0,0,0-1.3-1.4l.62-.538a6.92,6.92,0,0,1,1.339,1.4Zm2.678-.216a6.909,6.909,0,0,0-1.279-1.721l.7-.416a6.886,6.886,0,0,1,1.3,1.661Zm3.683-1.183a8.856,8.856,0,0,1-1.219,1.375l-.623-.524a6.906,6.906,0,0,0,1.435-1.805l.716.656c.06.07.1.12.1.166,0,.132-.192.132-.406.132" transform="translate(33.296 193.582)" fill="#1a1311"/><path d="M29,139.068h3.168v7.819h-.836v-.776h-1.5v1.5H29Zm2.332.755h-1.5v2.38h1.5Zm0,3.118h-1.5v2.416h1.5Zm4.363-4.9.863.048c.082,0,.226.014.226.12,0,.06-.048.108-.214.216v1.183h2.079v.8H36.568v1.411h2.8v.776h-6.6v-.776h2.928v-1.411H33.578v-.8h2.115Zm-2.832,6.11h4.017V142.87l.776.1c.192.024.276.036.276.132,0,.07-.024.082-.216.214v.836H39.27v.779H37.715v2.714c0,.512-.12.8-.574.885a12.268,12.268,0,0,1-1.291.048l-.346-.969c.418.046.68.06.8.06.574,0,.574-.192.574-.526v-2.211H32.862Zm1.267,1.339a5.3,5.3,0,0,1,1.029,1.579l-.719.442a5.37,5.37,0,0,0-.993-1.589Z" transform="translate(40.707 193.769)" fill="#1a1311"/><path d="M34.009,148.88a6.052,6.052,0,0,0,1.077-1.449,7.918,7.918,0,0,0,0-7.721,6.052,6.052,0,0,0-1.077-1.449l.49-.43a6.533,6.533,0,0,1,1.123,1.507,8.526,8.526,0,0,1,0,8.466A6.533,6.533,0,0,1,34.5,149.31Z" transform="translate(47.739 193.476)" fill="#1a1311"/><path d="M71.417,140.432v-.68h-3.4v3.884h-.9v-3.884H63.788v.62h-.909v-4.985h4.245v-2.606l.836.084c.156.012.276.024.276.132,0,.082-.1.142-.216.19v2.2h4.305v5.045ZM67.124,136.2H63.788v2.738h3.336Zm4.293,0h-3.4v2.738h3.4Z" transform="translate(88.265 186.388)" fill="#1a1311"/><path d="M67.611,142.17c.18-2.079,1.459-2.954,3.646-4.2,1.305-.74,1.889-1.062,1.889-2.163a1.705,1.705,0,0,0-1.937-1.709,2.047,2.047,0,0,0-2.175,2.2H67.9a3.187,3.187,0,0,1,.779-2.1,3.416,3.416,0,0,1,2.509-.993c1.243,0,3.038.572,3.038,2.546,0,1.543-.9,2.2-2.5,3.05-2.2,1.171-2.5,1.923-2.738,2.473h5.238v.9Z" transform="translate(94.907 186.982)" fill="#1a1311"/><path d="M111.944,140.432v-.68h-3.4v3.884h-.9v-3.884h-3.334v.62h-.909v-4.985h4.243v-2.606l.837.084c.156.012.276.024.276.132,0,.082-.1.142-.216.19v2.2h4.305v5.045Zm-4.293-4.231h-3.336v2.738h3.336Zm4.293,0h-3.4v2.738h3.4Z" transform="translate(145.157 186.388)" fill="#1a1311"/><path d="M111.5,142.41a3.19,3.19,0,0,1-2.75-1.183,3.139,3.139,0,0,1-.55-1.748h1.089a1.983,1.983,0,0,0,2.235,2.034c1.471,0,2.211-.851,2.211-1.913,0-1.267-1.053-1.673-1.985-1.673h-.921v-.788h.779c.668,0,1.865-.373,1.865-1.531,0-.668-.382-1.507-1.841-1.507a1.97,1.97,0,0,0-1.555.6,2.031,2.031,0,0,0-.442,1.195h-1.077a2.79,2.79,0,0,1,3.086-2.69c1.745,0,2.906.933,2.906,2.284a1.951,1.951,0,0,1-1.519,1.971,2.07,2.07,0,0,1,1.781,2.154c0,1.553-1.209,2.8-3.312,2.8" transform="translate(151.882 186.982)" fill="#1a1311"/><path d="M2.738,41.87a5.974,5.974,0,0,0-1.077,1.447,7.923,7.923,0,0,0,0,7.723,5.974,5.974,0,0,0,1.077,1.447l-.49.433a6.61,6.61,0,0,1-1.125-1.507,8.542,8.542,0,0,1,0-8.466A6.558,6.558,0,0,1,2.247,41.44Z" transform="translate(0 58.17)" fill="#1a1311"/><path d="M4.9,42.218A10.926,10.926,0,0,1,4.206,44c.06.038.192.108.192.2s-.192.2-.322.276v7.925h-.8V45.841a8.291,8.291,0,0,1-1.125,1.531l-.683-.562A12.429,12.429,0,0,0,4.206,41.55l.839.346a.235.235,0,0,1,.166.18c0,.07-.034.082-.31.142m5.944,10.129-.156-.8c.692.022.836.022.836-.312V49.514h-1v2.308H9.768V49.514h-1v2.344H8.021V49.514H7v2.738H6.227v-3.5a9.844,9.844,0,0,1-1.207,3.384L4.3,51.7c1-1.6,1.363-3.2,1.363-6.336,0-.144,0-.695-.022-1.579h6.622v2.308H6.444v.9H12.3v4.425c0,.812-.358.9-1.457.933M5.487,42.194h7.1v.776h-7.1Zm5.978,2.274H6.444v.945h5.021ZM8.021,47.684H7v1.149H8.021Zm1.748,0h-1v1.149h1Zm1.757,0h-1v1.149h1Z" transform="translate(2.061 58.325)" fill="#1a1311"/><path d="M9.933,47.724a5.787,5.787,0,0,1-1.183,3.4,6.083,6.083,0,0,1-1.435,1.4l-.743-.62a5.187,5.187,0,0,0,1.841-1.8,4.831,4.831,0,0,0,.707-2.38H7.075v-.752h4.759V45.919H8.441v-.752h3.394V44.114H7.448v-.752h2.966A8.475,8.475,0,0,0,9.3,42.056l.632-.524a7.928,7.928,0,0,1,1.233,1.421l-.562.409H13.64l-.466-.409a7.266,7.266,0,0,0,1.053-1.433l.683.406c.108.06.166.108.166.166,0,.108-.084.12-.3.144a9.094,9.094,0,0,1-.861,1.125H17.1v.752H12.71v1.053H16.1v.752H12.71v1.053h4.757v.752Zm-.37,4.233V51.2h3.421V49.4H10.616v-.743H16.2V49.4H13.832V51.2h3.421v.752Z" transform="translate(9.227 58.283)" fill="#1a1311"/><path d="M14.918,42.25c-.24.623-.5,1.281-.776,1.844.154.034.274.058.274.166,0,.06-.012.084-.214.286V52.5h-.839V45.493a13.585,13.585,0,0,1-1.183,1.625l-.68-.611a13.031,13.031,0,0,0,2.735-5l.9.382c.075.036.144.084.144.156,0,.142-.3.192-.358.2m4.507,1.675v.945h2.211v5.416H17.069V44.87h1.507v-.945H15.192v-.779h3.384V41.738l.824.142c.252.048.337.072.337.156s-.12.144-.312.226v.885h3.026v.779Zm-3.2,8.045V52.5h-.836V45.839l.861.07c.12.014.2.087.2.132,0,.084-.084.132-.228.252v4.925h6.17v.752ZM20.8,45.623H17.87v.861H20.8Zm0,1.519H17.87v.873H20.8Zm0,1.5H17.87v.933H20.8Z" transform="translate(16.143 58.269)" fill="#1a1311"/><path d="M16.644,52.489a6.037,6.037,0,0,0,1.077-1.447,7.94,7.94,0,0,0,0-7.723,6.037,6.037,0,0,0-1.077-1.447l.49-.43a6.517,6.517,0,0,1,1.123,1.5,8.526,8.526,0,0,1,0,8.466,6.481,6.481,0,0,1-1.123,1.507Z" transform="translate(23.364 58.172)" fill="#1a1311"/><path d="M64.254,66.174a5.366,5.366,0,1,1,5.368,5.368,5.368,5.368,0,0,1-5.368-5.368" transform="translate(90.195 85.355)" fill="#bc323f"/><path d="M64.254,104.873a5.366,5.366,0,1,1,5.368,5.368,5.368,5.368,0,0,1-5.368-5.368" transform="translate(90.195 139.678)" fill="#3396d6"/><path d="M131.313,97.113a18.691,18.691,0,0,1-2.75,5.281,13.958,13.958,0,0,1-4.622,3.812l-1.7-1.377a12.532,12.532,0,0,0,5.187-4.094,13.143,13.143,0,0,0,1.952-3.824h-8.326V95.1h8.843a.9.9,0,0,0,.517-.252l1.546,1.406a2.078,2.078,0,0,0-.642.861m1.048-1.784a1.492,1.492,0,1,1,1.469-1.5,1.478,1.478,0,0,1-1.469,1.5m0-2.372a.868.868,0,0,0-.858.873.883.883,0,0,0,.858.892.883.883,0,0,0,0-1.764" transform="translate(169.92 129.628)" fill="#fff"/><rect width="11.11" height="1.983" transform="translate(304.124 228.71)" fill="#fff"/><path d="M136.8,94.109c-.108.094-.108.125-.108.2a31.913,31.913,0,0,1-.079,3.846,7.958,7.958,0,0,1-3.375,5.67l-1.733-1.264c1.5-.875,3.344-2.2,3.344-6.093a23.466,23.466,0,0,0-.171-2.954l1.889.125c.281.017.454.063.454.236,0,.063-.034.077-.221.233m2.892,9.735-1.329-1.034V93.328l1.815.219c.139.017.435.046.435.2,0,.06-.029.108-.171.233,0,.014-.187.173-.187.19V101a13.854,13.854,0,0,0,4.125-4l1.062,1.582a20.851,20.851,0,0,1-5.75,5.264" transform="translate(184.601 131.007)" fill="#fff"/><path d="M148.877,99.531V97.659H139.61v1.952h-1.687V96.2h7.75a12.43,12.43,0,0,0,1.906-2.935l1.548.517c.094.029.264.139.264.264a.091.091,0,0,1-.062.094c-.046.048-.389.125-.452.187a13.519,13.519,0,0,1-1.219,1.873H150.6v3.329Zm-3.656,3.329v2.358c0,1.1-.906,1.36-1.861,1.36h-.983l-.687-1.656c.187.014,1.062.094,1.25.094.264,0,.375-.233.375-.469V102.86h-5.392v-1.531h5.392v-.969l.748.125a2.791,2.791,0,0,0,.6-.656h-4.173V98.377h7.079l.437.687c-.7.639-1.937,1.654-2.781,2.264h5.3v1.531Zm-4.906-6.8a9.575,9.575,0,0,0-1.344-2.079l1.435-.875a9.4,9.4,0,0,1,1.392,2.014Zm3.546-.315a10.843,10.843,0,0,0-1.452-2.25l1.421-.841a10.78,10.78,0,0,1,1.531,2.3Z" transform="translate(193.606 130.068)" fill="#fff"/><path d="M155.6,97.594V95.909h-5.125v1.719h-1.656V94.94l-1.312,2.841a5.365,5.365,0,0,1,1.406,3.61c0,1.954-1.611,2.344-2.565,2.579l-.56-1.219v3.531H144.15v-13.1h4.36l.719.846-.156.341h2.779V92.736l1.971.111c.125,0,.358.046.358.188s-.171.236-.327.375v.966h3.421v3.219Zm-9.735.488,1.156-3.283h-1.233v7.252a3.436,3.436,0,0,0,.514.043.943.943,0,0,0,1.031-1.077,4.16,4.16,0,0,0-1.469-2.935m10.079,8.187h-1.906c-.673,0-.937-.534-.937-1.079v-4.375h-2l1.221.406c.139.048.389.125.389.344,0,.094-.031.171-.389.327-.236,2.312-1.017,3.531-3.656,4.471l-1.392-1.454a4.988,4.988,0,0,0,2.8-1.3,5.347,5.347,0,0,0,.625-2.8h-1.736V99.269h8.423v1.546h-2.562v3.267c0,.233.094.341.313.341h.281c.437,0,.437-.858.421-1.483l1.687.829c-.2,1.435-.437,2.5-1.577,2.5m-5.031-9.5h4.125v1.514h-4.125Z" transform="translate(202.347 130.176)" fill="#fff"/><path d="M162.943,99.323a18.113,18.113,0,0,1-1.812-.923v1.125h-2.767v1.625h3.673v1.625h-3.673v1.75h5.329V106.1H151.131v-1.579h5.25v-1.75h-3.673V101.15h3.673V99.525h-2.767v-1a18.254,18.254,0,0,1-1.844,1.125l-1.452-1.315a11.75,11.75,0,0,0,6.062-5.67l1.921.392c.267.048.312.125.312.219,0,.048,0,.125-.3.264.671,1.173,2.719,3.065,6.031,4.406Zm-5.812-4.346a14.6,14.6,0,0,1-2.735,2.94h5.985a16.5,16.5,0,0,1-3.25-2.94" transform="translate(211.007 130.076)" fill="#fff"/><path d="M164.991,103.129v-.548h-8.173v-1.716h8.173V95.427H156.85V93.692h10v9.437Z" transform="translate(220.13 131.517)" fill="#fff"/><rect width="11.11" height="1.983" transform="translate(388.839 228.71)" fill="#fff"/><path d="M177.444,104.36a24.489,24.489,0,0,0-3.812-3.906,15.1,15.1,0,0,1-5.343,4.014l-1.375-1.421a13.85,13.85,0,0,0,4.983-3.375,12.432,12.432,0,0,0,2.656-4.267H168.6V93.594h6.735a1.471,1.471,0,0,0,.81-.344l1.2,1.329a2.15,2.15,0,0,0-.844.935,18.653,18.653,0,0,1-1.812,3.5,31.483,31.483,0,0,1,4.142,3.86Z" transform="translate(234.3 130.897)" fill="#fff"/><path d="M180.185,101.294v4.545h-1.954v-4.545h-5.7V99.621h5.7V94.542h-5.077V92.919h12.2v1.623h-5.173v5.079h5.673v1.673Zm-4.562-2.281a13.575,13.575,0,0,0-1.517-3.252l1.562-.687a10.527,10.527,0,0,1,1.485,3.312Zm8.75-3.034c-.264.111-.312.142-.358.25a18,18,0,0,1-1.25,2.937l-1.534-.639c.5-1.125.971-2.3,1.392-3.485l1.562.517c.111.031.3.108.3.25a.176.176,0,0,1-.108.171" transform="translate(242.184 130.433)" fill="#fff"/><path d="M191.906,104.147c-.421,1.44-1.014,2.2-2.375,2.2h-1.3l-.687-1.906c.219.014,1.312.108,1.562.108.421,0,.906-.312,1.108-1.219a30.263,30.263,0,0,0,.548-6.718h-4.642a10.242,10.242,0,0,1-.8,1.486H188.7v1.716h-3.5V98.3a6.555,6.555,0,0,1-.736.921l-1.579-.8a10.952,10.952,0,0,0,.784-.969h-1.3v3.627c.688-.281,1.014-.423,1.642-.721V102.2c-1.156.594-2.127.983-3.812,1.7-.517.216-.579.231-.687.373s-.284.329-.377.329c-.123,0-.216-.142-.233-.329l-.156-2.094a13.876,13.876,0,0,0,1.86-.483V97.46h-1.562v-1.7h1.562V92.772l1.733.221c.094.012.389.046.389.231a.267.267,0,0,1-.094.2c-.06.065-.264.267-.264.344v1.985h1.656v1.125a10,10,0,0,0,1.219-4.173l1.875.25c.156.017.281.094.281.236a.3.3,0,0,1-.156.233c-.156.111-.171.142-.187.187a12.1,12.1,0,0,1-.312,1.312h5.781c-.031,4.377-.046,7.283-.625,9.218m-6.468.017a2.434,2.434,0,0,0-.642.329c-.123.154-.171.219-.279.219s-.173-.1-.2-.2l-.546-1.7a25.671,25.671,0,0,0,5.562-2.394l.219,1.627a43.058,43.058,0,0,1-4.11,2.125" transform="translate(250.916 130.139)" fill="#fff"/></g></svg>