<svg xmlns="http://www.w3.org/2000/svg" xmlns:xlink="http://www.w3.org/1999/xlink" width="427" height="235.959" viewBox="0 0 427 235.959"><defs><clipPath id="a"><rect width="427" height="235.959" fill="none"/></clipPath></defs><g transform="translate(0 0)" clip-path="url(#a)"><path d="M102.954,102.933,10.539,148.006A102.82,102.82,0,0,1,57.881,10.517,101.738,101.738,0,0,1,102.954.109Z" transform="translate(0.26 0.258)" fill="#e3dead"/><path d="M102.954,102.933,10.539,148.006A102.82,102.82,0,0,1,57.881,10.517,101.738,101.738,0,0,1,102.954.109Z" transform="translate(0.26 0.258)" fill="none" stroke="#fff" stroke-width="0.219"/><path d="M95.618,30.6,12.435,91.043A97.23,97.23,0,0,1,3.2,75.678Z" transform="translate(7.597 72.586)" fill="#d2dbce"/><path d="M95.618,30.6,12.435,91.043A97.23,97.23,0,0,1,3.2,75.678Z" transform="translate(7.597 72.586)" fill="none" stroke="#fff" stroke-width="0.219"/><path d="M89.124,30.6l-57.5,85.244A97.434,97.434,0,0,1,5.941,91.043Z" transform="translate(14.09 72.586)" fill="#e4c6c9"/><path d="M89.124,30.6l-57.5,85.244A97.434,97.434,0,0,1,5.941,91.043Z" transform="translate(14.09 72.586)" fill="none" stroke="#fff" stroke-width="0.219"/><path d="M71.057,30.6,107.906,126.6c-32.392,12.435-65.583,8.655-94.347-10.749Z" transform="translate(32.158 72.586)" fill="#ebdabf"/><path d="M71.057,30.6,107.906,126.6c-32.392,12.435-65.583,8.655-94.347-10.749Z" transform="translate(32.158 72.586)" fill="none" stroke="#fff" stroke-width="0.219"/><path d="M30.612,31.867l102.807-1.794c.769,44-24.873,82.013-65.957,97.786Z" transform="translate(72.603 71.324)" fill="#c1cedc"/><path d="M30.612,31.867l102.807-1.794c.769,44-24.873,82.013-65.957,97.786Z" transform="translate(72.603 71.324)" fill="none" stroke="#fff" stroke-width="0.219"/><path d="M30.612,102.933V.109c56.732,0,101.816,44.308,102.807,101.03Z" transform="translate(72.603 0.258)" fill="#ccc8d7"/><path d="M30.612,102.933V.109c56.732,0,101.816,44.308,102.807,101.03Z" transform="translate(72.603 0.258)" fill="none" stroke="#fff" stroke-width="0.219"/><path d="M7.92,21.24a18.053,18.053,0,0,0,6.194-.826l.927,1.1a3.69,3.69,0,0,1-.742.745,44.289,44.289,0,0,0-3.614,3.9c.509-.118,1.116-.287,1.659-.421,2.057-.556,3.523-1.1,4.282-1.369l.219,1.369a9.419,9.419,0,0,1-1.062.253,7.717,7.717,0,0,0-2.549,1.888c-.59.607-1.972,1.976-1.972,3.594,0,1.3,1.2,1.787,2.225,1.959a9.633,9.633,0,0,0,1.942.084v1.349a19.281,19.281,0,0,1-2.124-.2,3.336,3.336,0,0,1-3.193-3.324c0-2.107,1.959-3.8,3.041-4.724-.964.3-5.25,1.5-6.13,1.77-.334.1-.6.185-1.264.421l-.472-1.45a13.8,13.8,0,0,0,2.768-.472A1.942,1.942,0,0,0,9.2,26.17c1.5-1.639,1.652-1.807,3.088-3.358a2.925,2.925,0,0,0,.691-1,33.422,33.422,0,0,1-4.437.745Z" transform="translate(12.539 48.416)" fill="#1a1311"/><path d="M17.234,32.173a7.915,7.915,0,0,0,2.583-1.3,5.535,5.535,0,0,0,1.993-4.2A4.951,4.951,0,0,0,19.146,22.3a5.967,5.967,0,0,0-2.316-.452,21.261,21.261,0,0,1-1.956,7.387c-.708,1.5-1.618,2.97-2.616,2.97-1.416,0-2.886-2.175-2.886-4.623A6.95,6.95,0,0,1,16.512,20.7c3.54,0,6.565,2.229,6.565,5.975,0,4.589-4.087,6.224-5.1,6.632Zm-5.55-7.93a5.539,5.539,0,0,0-1.163,3.308c0,1.807,1.028,3.173,1.7,3.173.357,0,.762,0,1.858-2.7a20,20,0,0,0,1.453-6.143,5.507,5.507,0,0,0-3.85,2.364" transform="translate(22.225 49.092)" fill="#1a1311"/><path d="M19.205,21.232a19.1,19.1,0,0,1-1.588,3.24l.354.1c.118.034.219.067.219.152,0,.1-.2.32-.3.421V35.542H16.656V26.091a15.513,15.513,0,0,1-1.807,2.549L13.807,27.9A24.414,24.414,0,0,0,18.278,20.2l1.113.452c.118.054.3.155.3.256,0,.084-.051.1-.489.32m7.9,13.821H22.395c-1.416,0-1.706-1.062-1.706-2.077V27.865c-.421.135-.489.152-1.45.472l-.4-1.15c.334-.1.607-.165,1.854-.539V22.311l1.146.2c.169.034.3.135.3.239s-.081.148-.27.287v3.254c.287-.084,1.554-.489,1.824-.573.169-.051.219-.067.506-.169V20.288l1.133.1c.371.037.371.189.371.206,0,.1-.135.253-.27.421v4.134c1.315-.421,2.225-.742,2.815-.944l.91.708c-.081,1.248-.371,3.679-.556,4.592-.287,1.433-1.025,1.548-1.939,1.635l-.577-1.268c.9.017,1.251-.017,1.4-1.045a28.465,28.465,0,0,0,.357-3.341c-.8.287-1.15.4-2.414.826v5.621H24.2V26.715c-.253.088-2.006.661-2.33.762v5.331c0,.708.189,1.1,1.4,1.1h3.476c1.116,0,1.537-.189,1.888-2.633l1.1.556c-.354,2.448-.947,3.223-2.633,3.223" transform="translate(32.746 47.918)" fill="#1a1311"/><path d="M43.26,19.8l1.248.088c.135.017.287.017.287.185,0,.135-.135.236-.354.337v1.113h4.167V25.2h2.65v1.116h-6.6a8.215,8.215,0,0,0,3.426,3.169,9.114,9.114,0,0,0,3.139.981L50.466,31.8a10.715,10.715,0,0,1-6.733-4.859,6.756,6.756,0,0,1-2.785,3.291A12.245,12.245,0,0,1,37.4,31.85l-.826-1.2a10.221,10.221,0,0,0,4.538-1.959,5.45,5.45,0,0,0,1.6-2.377H36.308V25.2h2.411V21.522H43.26Zm2.5.526v-1.18h-4v1.231H40.577V19.145H36.409v-1.1h4.167V16.512l1.3.135c.084,0,.253.034.253.152,0,.135-.185.219-.368.3v.944h4V16.424l1.264.121c.155.013.307.034.307.185s-.169.219-.371.3v1.012h4.2v1.1h-4.2v1.18ZM43.024,25.2a14.591,14.591,0,0,0,.236-2.583H39.919V25.2Zm4.454,0V22.618H44.441a16.3,16.3,0,0,1-.219,2.583Z" transform="translate(86.112 38.953)" fill="#1a1311"/><path d="M41.258,19h6.16v1.1h-6.16ZM45.83,30.862V30.17H43.011v.742h-1.1V25.73H46.96v5.132Zm-3.9-14.192h4.909v1.1H41.932Zm0,4.572h4.909v1.049H41.932Zm0,2.111h4.909V24.4H41.932Zm3.9,3.375H43.011v2.431H45.83ZM47.5,24.145V23.083H50l.59-2.3H48.595V19.725h2.262l.539-2.043H48.072V16.67h8v1.012h-3.4l-.539,2.043H55.4l-.135,3.358H56.63v1.062Zm6.986,6.632v-.742H49.964v.792h-1.2V25.511h6.865v5.267Zm0-4.221H49.96v2.38h4.525Zm-2.616-5.769-.607,2.3H54l.135-2.3Z" transform="translate(97.852 39.536)" fill="#1a1311"/><path d="M59.932,26.862c-.307-.759-.489-1.15-.657-1.487-1.349.051-4.639.2-4.963.2v6.16H53.03v-6.11c-2.886.121-3.935.169-5.84.185-.081.155-.216.425-.438.425-.135,0-.169-.121-.2-.354l-.206-1.3c.459.034,1,.067,2.326.067.728,0,1.976-.017,2.468-.034.185-.152.978-.86,1.146-1.012a22.067,22.067,0,0,0-3.341-2.5l.742-1.012c.017.017,1.167.775,1.183.775a17.493,17.493,0,0,0,2.208-2.4c-2.326.121-3.527.152-5.1.121l-.573-1.268c.627.034,1.571.084,3.105.084,4.639,0,6.582-.472,8.133-.961l1.015,1.113c.084.1.1.152.1.2a.189.189,0,0,1-.189.185,2.239,2.239,0,0,1-.657-.2,32.208,32.208,0,0,1-4.083.59c-.995,1.1-2.06,2.279-3.041,3.19.341.27.914.725,1.507,1.251a35.558,35.558,0,0,0,3.153-3.26l1.1.964c.071.067.152.135.152.219,0,.135-.169.169-.287.169a3.269,3.269,0,0,1-.351-.017c-.661.573-3.53,3.206-4.12,3.729,1.922-.034,3.867-.084,5.789-.219a9.5,9.5,0,0,0-1.13-1.554l1.011-.691a15.113,15.113,0,0,1,2.414,4.171Zm-8.655.877a18.673,18.673,0,0,1-3.834,3.173l-.907-.978a12.744,12.744,0,0,0,4.164-3.51l1.015.927c.118.118.152.169.152.236,0,.2-.421.169-.59.152M59.7,31.1a20.2,20.2,0,0,0-4.033-3.51l.792-.877a17.8,17.8,0,0,1,4.083,3.325Z" transform="translate(109.922 39.014)" fill="#1a1311"/><path d="M12.309,48.877c-2.566,1.15-4.184,1.757-5.368,2.178-.064.152-.152.354-.27.354-.135,0-.216-.2-.253-.3l-.455-1.163c.509-.135,1.622-.425,2.65-.759V44.844H6.506V43.7H8.613V40.053H6.368v-1.1h5.621v1.1H9.793V43.7h2.195v1.146H9.793v3.935c1.251-.442,1.908-.745,2.549-1.032Zm-.573,3.7v-1.1h4.441V49.066H13.189v-1.1h2.987V46.028H12.919V38.482h7.728v7.546H17.353v1.939h3.206v1.1H17.353v2.411h4.221v1.1ZM16.176,39.6H14.1v2.074h2.077Zm0,3.122H14.1v2.208h2.077ZM19.463,39.6H17.353v2.074h2.111Zm0,3.122H17.353v2.208h2.111Z" transform="translate(14.142 91.268)" fill="#1a1311"/><path d="M17.393,39.52a15.586,15.586,0,0,1-1.875.472v2.819H17.71v1.13H15.653a8.482,8.482,0,0,0,2.326,3.122l-.792.88a11.152,11.152,0,0,1-1.669-2.06v7.509h-1.2V45.882a14.824,14.824,0,0,1-2.246,4.134l-.995-.792A12.549,12.549,0,0,0,13.8,43.94H11.112v-1.13h3.206v-2.6a18.512,18.512,0,0,1-2.579.287l-.661-1.231A14.773,14.773,0,0,0,17,38.441l.931.792c.064.051.115.1.115.152,0,.219-.506.152-.654.135m6.6,8.116v5.722H22.754V48.04l-4.235,1.3-.421-1.13,4.656-1.4V38.323l1.386.135c.067,0,.32.034.32.169,0,.185-.236.287-.472.388V46.4l2.428-.792.341,1.1Zm-3.459-1.7a11.326,11.326,0,0,0-1.993-1.77l.678-.88a11.008,11.008,0,0,1,2.111,1.753Zm.169-3.308a10.879,10.879,0,0,0-1.939-1.7l.755-.931a9.757,9.757,0,0,1,2.01,1.72Z" transform="translate(26.274 90.891)" fill="#1a1311"/><path d="M29.713,48.71c-.307-.759-.489-1.15-.657-1.487-1.349.051-4.639.2-4.963.2v6.16H22.811v-6.11c-2.886.121-3.935.169-5.84.185-.081.155-.216.425-.438.425-.135,0-.169-.121-.2-.354l-.206-1.3c.459.034,1,.067,2.326.067.728,0,1.976-.017,2.468-.034.185-.152.978-.86,1.146-1.012a22.067,22.067,0,0,0-3.341-2.5l.742-1.012c.017.017,1.167.775,1.183.775a17.491,17.491,0,0,0,2.208-2.4c-2.326.121-3.527.152-5.1.121l-.573-1.268c.627.034,1.571.084,3.105.084,4.639,0,6.582-.472,8.133-.961l1.015,1.113c.084.1.1.152.1.2a.189.189,0,0,1-.189.185,2.239,2.239,0,0,1-.657-.2,32.206,32.206,0,0,1-4.083.59c-.995,1.1-2.06,2.279-3.041,3.19.341.27.914.725,1.507,1.251a35.556,35.556,0,0,0,3.153-3.26l1.1.964c.071.067.152.135.152.219,0,.135-.169.169-.287.169a3.269,3.269,0,0,1-.351-.017c-.661.573-3.53,3.206-4.12,3.729,1.922-.034,3.867-.084,5.789-.219a9.5,9.5,0,0,0-1.13-1.554l1.012-.691a15.113,15.113,0,0,1,2.414,4.171Zm-8.655.877a18.673,18.673,0,0,1-3.834,3.173l-.907-.978a12.744,12.744,0,0,0,4.164-3.51L21.5,49.2c.118.118.152.169.152.236,0,.2-.421.169-.59.152m8.419,3.358a20.2,20.2,0,0,0-4.033-3.51l.792-.877a17.8,17.8,0,0,1,4.083,3.324Z" transform="translate(38.251 90.831)" fill="#1a1311"/><path d="M13.148,48.942a8.611,8.611,0,0,0,1.588,1.5l-.792.826a7.794,7.794,0,0,1-1.672-1.892v2.633H11.125V49.33A17.843,17.843,0,0,1,7.834,52.2l-.843-.792a11.206,11.206,0,0,0,3.035-2.465h-2.6V47.9h3.7v-2.9l1.163.118c.32.034.421.219.421.287,0,.118-.253.287-.438.4V47.9h3.206v1.045Zm-4.96,8.048A14.209,14.209,0,0,0,9.537,55.1H7.429V54.091H10.16a14.729,14.729,0,0,0,.88-1.858l1.1.674c.152.084.256.152.256.27,0,.152-.239.2-.577.253-.2.354-.219.391-.391.661h4.441V55.1h-1.13a11.194,11.194,0,0,1-1.352,2.262,10.616,10.616,0,0,1,1.568,1.032l-.789.877A12.57,12.57,0,0,0,12.575,58.2a8.936,8.936,0,0,1-1.736,1.082,10.3,10.3,0,0,1-2.482.725l-.792-1.1a8,8,0,0,0,3.965-1.268,13.4,13.4,0,0,0-1.875-.708c-.2.27-.32.421-.556.708ZM9.1,45.163a8.483,8.483,0,0,1,1.672,1.618l-.745.711A11.38,11.38,0,0,0,8.407,45.9ZM10.9,55.1a11.687,11.687,0,0,1-.671,1.049,17.934,17.934,0,0,1,2.124.742,6.23,6.23,0,0,0,1.1-1.79Zm1.841-8.352A8.9,8.9,0,0,0,14.3,44.994l.708.674c.1.1.185.169.185.253,0,.152-.219.169-.32.185a8.926,8.926,0,0,1-1.335,1.335Zm9.282,13.129a8.241,8.241,0,0,1-3.257-2.633A9.906,9.906,0,0,1,15.7,60.2L14.55,59.4a9.81,9.81,0,0,0,3.561-3.257,16,16,0,0,1-1.453-5.836l1.1-.189a17.878,17.878,0,0,0,1.015,4.707,17.436,17.436,0,0,0,.931-5.449H16.961a13.95,13.95,0,0,1-1.652,2.987L14.3,51.66a17.491,17.491,0,0,0,2.883-6.767l1.251.489c.135.067.27.169.27.3s-.152.169-.472.27c-.135.354-.691,1.959-.826,2.279h4.791v1.146h-1.3c-.27,3.038-.486,4.66-1.5,6.767a7.278,7.278,0,0,0,3.426,2.684Z" transform="translate(16.581 106.473)" fill="#1a1311"/><path d="M20.19,55.859v2.6c0,1.332-.388,1.821-2.549,1.8l-.624-1.352c.539.037.86.037,1.062.037.438,0,.792-.017.792-.577V55.859H12.02v-1.1h6.851V53.242l1.049.084a16.45,16.45,0,0,0,1.888-1.366H15.26V50.912h8.49l.388.742c-1.8,1.352-3.308,2.33-3.948,2.738v.368h6.983v1.1Zm5.432-3.931V49.462H13.557v2.546H12.323V48.4H26.856v3.527ZM15.7,48.144a10.9,10.9,0,0,0-1.841-1.972l.877-.762a9.707,9.707,0,0,1,1.888,1.976Zm3.78-.3a9.827,9.827,0,0,0-1.807-2.431l1-.587a10.058,10.058,0,0,1,1.838,2.343Zm5.2-1.669a12.361,12.361,0,0,1-1.723,1.939l-.877-.742A9.556,9.556,0,0,0,24.1,44.823l1.012.927c.084.1.135.169.135.236,0,.185-.27.185-.573.185" transform="translate(28.508 106.307)" fill="#1a1311"/><path d="M30.68,55.295c-.307-.759-.489-1.15-.657-1.487-1.349.051-4.639.2-4.963.2v6.16H23.778v-6.11c-2.886.118-3.935.169-5.84.189-.081.152-.216.421-.438.421-.135,0-.169-.121-.2-.357l-.206-1.3c.459.034,1,.067,2.326.067.728,0,1.976-.017,2.468-.034.185-.152.978-.86,1.146-1.011a22.064,22.064,0,0,0-3.341-2.5l.742-1.012c.017.017,1.167.775,1.183.775a17.492,17.492,0,0,0,2.208-2.4c-2.326.118-3.527.152-5.1.118l-.573-1.264c.627.034,1.571.084,3.105.084,4.639,0,6.582-.472,8.133-.961L30.41,46c.084.1.1.152.1.2a.189.189,0,0,1-.189.185,2.238,2.238,0,0,1-.657-.2,32.207,32.207,0,0,1-4.083.59c-.995,1.1-2.06,2.279-3.041,3.19.341.27.914.725,1.507,1.248A35.115,35.115,0,0,0,27.2,47.951l1.1.964c.071.067.152.135.152.219,0,.135-.169.169-.287.169a3.272,3.272,0,0,1-.351-.017c-.661.573-3.53,3.206-4.12,3.729,1.922-.034,3.867-.084,5.789-.219a9.5,9.5,0,0,0-1.13-1.554l1.012-.691a15.158,15.158,0,0,1,2.414,4.167Zm-8.655.877a18.672,18.672,0,0,1-3.834,3.173l-.907-.981a12.662,12.662,0,0,0,4.164-3.51l1.015.931c.118.118.152.169.152.236,0,.2-.421.169-.59.152m8.419,3.358a20.2,20.2,0,0,0-4.033-3.51l.792-.877a17.8,17.8,0,0,1,4.083,3.324Z" transform="translate(40.544 106.449)" fill="#1a1311"/><path d="M24.89,57.694a12.654,12.654,0,0,1-2.279,1.841l-1.062-.792a15.293,15.293,0,0,0,5.2-5.014H22.173v-1.1H24.89V49.258l1.18.067c.121.017.408.034.408.2,0,.1-.034.135-.357.388v2.718h1.892l.388.438a13.308,13.308,0,0,1-1.922,2.954,9.26,9.26,0,0,0,2.63,2.06l-.826.843a7.576,7.576,0,0,1-2.161-1.774v7.121H24.89Zm7.559-8.436,1.231.118c.135.017.357.051.357.185s-.1.219-.357.421v4.323h2.954v1.143H33.68v6.77h3.51v1.146H28.448V62.219h4v-6.77H29.243V54.305H32.45Z" transform="translate(51.108 116.825)" fill="#1a1311"/><path d="M41.537,55.785a15.967,15.967,0,0,1-4.285-2.364,13.307,13.307,0,0,1-2.65-2.785,17.549,17.549,0,0,1-7.087,5.418l-.91-1.1a13.482,13.482,0,0,0,7.425-5.806l1.281.438c.206.067.371.135.371.3a.5.5,0,0,1-.067.219c.961,1.669,3.392,3.443,6.8,4.575Zm-7.323,3.473c-1.065,1.875-1.723,2.94-2.128,3.564,1.538-.189,3.257-.374,4.724-.573.459-.071.779-.118,1.082-.172-.8-1.079-.995-1.332-1.4-1.8l1.045-.573A18.212,18.212,0,0,1,40.576,64l-1.146.607c-.728-1.264-.779-1.332-.964-1.652-2.161.4-4.639.843-8.979,1.366-.1.169-.253.388-.354.388-.152,0-.216-.2-.25-.32l-.307-1.268c.539,0,.88-.03,2.057-.135a27.717,27.717,0,0,0,2.08-3.729H27.649v-1.2H41.723v1.2ZM30.9,54.737H38.28v1.13H30.9Z" transform="translate(63.097 116.576)" fill="#1a1311"/><path d="M45.369,59.63c-.3-.759-.489-1.15-.657-1.487-1.349.051-4.643.2-4.963.2v6.16H38.467V58.4c-2.886.118-3.931.169-5.84.189-.081.152-.216.421-.438.421-.135,0-.169-.121-.2-.357l-.206-1.3c.455.034.995.067,2.326.067.728,0,1.976-.017,2.468-.034.185-.152.978-.86,1.146-1.012a22.069,22.069,0,0,0-3.341-2.5l.742-1.012c.017.017,1.163.775,1.183.775a17.492,17.492,0,0,0,2.208-2.4c-2.326.118-3.527.152-5.1.118l-.573-1.264c.627.034,1.571.084,3.105.084,4.639,0,6.582-.472,8.133-.961L45.1,50.331c.084.1.1.152.1.2a.187.187,0,0,1-.185.185,2.21,2.21,0,0,1-.657-.2,32.2,32.2,0,0,1-4.083.59c-.995,1.1-2.06,2.279-3.038,3.19.337.27.91.725,1.5,1.248a35.117,35.117,0,0,0,3.153-3.257l1.1.964c.071.067.152.135.152.219,0,.135-.169.169-.287.169a3.32,3.32,0,0,1-.354-.017c-.658.573-3.527,3.207-4.117,3.729,1.922-.034,3.867-.084,5.789-.219a9.374,9.374,0,0,0-1.133-1.554l1.015-.691a15.158,15.158,0,0,1,2.414,4.167Zm-8.655.877a18.673,18.673,0,0,1-3.834,3.173l-.91-.981a12.639,12.639,0,0,0,4.167-3.51l1.015.931c.118.118.152.169.152.236,0,.2-.421.169-.59.152m8.419,3.358a20.2,20.2,0,0,0-4.033-3.51l.792-.877A17.8,17.8,0,0,1,45.976,62.8Z" transform="translate(75.382 116.73)" fill="#1a1311"/><path d="M51.678,52.374V51.8H40.609v.573H39.378V38.216H52.912V52.374Zm0-13.008H40.609V50.621H51.678Zm-10.189,9.6v-1.1h4.134V45.32H42.669V44.258h2.954V41.979H42.062V40.917h8.3v1.062H46.8v2.279h2.819V45.32H46.8v2.549h3.952v1.1ZM48.61,47.6a5.875,5.875,0,0,0-1.062-1.453l.843-.691A6.318,6.318,0,0,1,49.5,46.891Z" transform="translate(93.393 90.637)" fill="#1a1311"/><path d="M44.118,40.542h6.157v1.1H44.118ZM48.69,52.408v-.691H45.871v.742h-1.1V47.276H49.82v5.132Zm-3.9-14.192H49.7v1.1H44.792Zm0,4.572H49.7v1.049H44.792Zm0,2.111H49.7v1.045H44.792Zm3.9,3.375H45.871V50.7H48.69Zm1.669-2.583V44.629h2.5l.59-2.3H51.455V41.271h2.262l.539-2.043H50.932V38.216h8v1.012H55.541L55,41.271h3.257l-.135,3.358H59.49v1.062Zm6.986,6.632v-.742H52.824v.792h-1.2V47.057h6.868v5.267Zm0-4.221H52.82v2.38h4.525Zm-2.613-5.769-.61,2.3h2.734l.135-2.3Z" transform="translate(104.635 90.637)" fill="#1a1311"/><path d="M62.792,48.408c-.3-.759-.489-1.15-.654-1.487-1.352.051-4.646.2-4.967.2v6.16H55.89v-6.11c-2.886.121-3.931.169-5.84.185-.081.155-.216.425-.438.425-.135,0-.165-.121-.2-.354l-.206-1.3c.455.034.995.067,2.326.067.728,0,1.976-.017,2.468-.034.185-.152.978-.86,1.146-1.012a22.069,22.069,0,0,0-3.341-2.5l.742-1.012c.017.017,1.163.775,1.183.775a17.492,17.492,0,0,0,2.208-2.4c-2.326.121-3.527.152-5.1.121l-.573-1.268c.627.034,1.571.084,3.105.084,4.639,0,6.582-.472,8.133-.961l1.015,1.113c.084.1.1.152.1.2a.187.187,0,0,1-.185.185,2.21,2.21,0,0,1-.657-.2,32.209,32.209,0,0,1-4.083.59c-.991,1.1-2.06,2.279-3.038,3.19.337.27.91.725,1.5,1.251a35.111,35.111,0,0,0,3.153-3.26l1.1.964c.071.067.152.135.152.219,0,.135-.169.169-.287.169a3.32,3.32,0,0,1-.354-.017c-.657.573-3.527,3.207-4.117,3.729,1.922-.034,3.867-.084,5.789-.219a9.371,9.371,0,0,0-1.133-1.554l1.015-.691a15.151,15.151,0,0,1,2.418,4.171Zm-8.655.877A18.584,18.584,0,0,1,50.3,52.457l-.91-.978a12.72,12.72,0,0,0,4.167-3.51l1.015.927c.118.118.152.169.152.236,0,.2-.421.169-.59.152m8.423,3.358a20.291,20.291,0,0,0-4.036-3.51l.792-.877A17.9,17.9,0,0,1,63.4,51.581Z" transform="translate(116.705 90.115)" fill="#1a1311"/><path d="M21.106,74.915v6.834H18.962V75.926c-.583.243-1.332.566-1.537.627a1.86,1.86,0,0,0-.725.344c-.162.223-.226.32-.368.32a.2.2,0,0,1-.182-.158l-.644-2.165c1.352-.384,2.364-.728,3.456-1.133V69.8h-1.13a11.756,11.756,0,0,1-.55,2.242l-2-.3a27.662,27.662,0,0,0,.951-5.621l2.2.526c.1.02.206.1.206.2s-.084.162-.327.3c-.121.1-.142.162-.2.688h.85V64.7l2.347.223a.289.289,0,0,1,.263.283.355.355,0,0,1-.162.246c-.142.118-.3.239-.3.381v2h1.7V69.8h-1.7v3.112a16.013,16.013,0,0,0,1.7-.87v1.983a12.7,12.7,0,0,1-1.7.89m9.987-2.751v1.578h1.983V75.7H31.093v4.144c0,1.376-.445,1.9-2.266,1.9H27.8L27.108,79.6c.631.061,1.035.081,1.237.081.32,0,.445-.1.445-.4V75.7H23.348V73.741H28.79V72.163H23.028V70.2h3.577v-1.76H23.773V66.522h2.832V64.56l2.387.142a.2.2,0,0,1,.2.185.3.3,0,0,1-.084.2.557.557,0,0,0-.2.364v1.069h3.577v1.922H28.911V70.2h4.306v1.959Zm-6.167,7.7a12.342,12.342,0,0,0-1.7-2.428L24.8,76.25a14.417,14.417,0,0,1,1.821,2.525Z" transform="translate(36.247 153.117)" fill="#1a1311"/><path d="M38.944,81.672c-2,0-5.216.04-7.219.04a18.64,18.64,0,0,1-4.1-.3A2.88,2.88,0,0,1,25.4,79.892a18.737,18.737,0,0,1-1.9,1.618c-.283.2-.324.2-.347.445-.017.2-.1.364-.2.364-.04,0-.142,0-.263-.243l-1.052-2.144a12.879,12.879,0,0,0,2.569-1.271V73.745H21.92V71.786h4.572v6.025c0,1.554,1.028,1.979,3.857,1.979,3.075,0,6.251,0,9.242-.263ZM24.729,68.954A11.09,11.09,0,0,0,22,66.53l1.416-1.72a11.046,11.046,0,0,1,2.748,2.505Zm5.806,9.1v.789H28.269V70.289a6.786,6.786,0,0,1-.87.991l-1.777-1.214a12.761,12.761,0,0,0,3.658-5.519l1.821.809c.142.057.425.2.425.324,0,.1-.185.121-.226.142-.179.017-.219.061-.263.121-.219.445-.546.991-.887,1.554H32.8a29.383,29.383,0,0,0,1.072-2.991l2.06.3c.142.02.469.061.469.182,0,.081-.142.138-.2.182a.526.526,0,0,0-.3.182c-.324.749-.85,1.736-1.052,2.141H38.7v1.72h-3.52v1.254h2.974v1.6H35.185v1.251H38.2v1.639H35.185v1.416h3.759v1.676ZM32.9,69.217H30.535v1.254H32.9Zm0,2.852H30.535v1.254H32.9Zm0,2.89H30.535v1.416H32.9Z" transform="translate(51.317 152.992)" fill="#1a1311"/><path d="M32.328,83.579a14.409,14.409,0,0,1,0-19.33L33.866,65.6a12.528,12.528,0,0,0,0,16.619Z" transform="translate(67.845 152.38)" fill="#1a1311"/><path d="M47.266,82.083a17.1,17.1,0,0,1-6.912-3.638,21.857,21.857,0,0,1-7.566,3.78l-1.8-1.942a19.1,19.1,0,0,0,4.2-1.332,12.052,12.052,0,0,0,3.476-2.144,18.954,18.954,0,0,1-3.011-4.37A19.246,19.246,0,0,1,34.309,69.2H31.76V67.119h7.259V64.513l2.448.182c.1,0,.5.061.5.263,0,.1-.1.182-.2.243-.037.04-.243.162-.243.324v1.595h7.2V69.2H45.894a21.47,21.47,0,0,1-3.881,7.644,15.249,15.249,0,0,0,6.73,3.014ZM36.773,69.2a17.426,17.426,0,0,0,3.476,6.025A15.781,15.781,0,0,0,43.166,69.2Z" transform="translate(73.502 153.006)" fill="#1a1311"/><path d="M42.749,78.125a20.336,20.336,0,0,1-3.5,3.679l-1.8-1.578a12.835,12.835,0,0,0,3.743-3.759l1.979.951c.081.04.3.142.3.344,0,.239-.384.3-.728.364m9.93-.87c-.283-.566-.587-1.113-1.052-1.881-.769.04-.931.04-2.347.121-1.352.061-1.494.081-2.181.121v6.308H44.671V75.718c-1.032.061-3.4.162-4.569.223-.789.04-.89.04-1.092.324-.142.182-.223.283-.384.283-.239,0-.364-.2-.523-.829l-.469-1.9h5.54a18.538,18.538,0,0,0-2.084-2.144,21.9,21.9,0,0,0-2.323-1.777l1.659-1.7c.688.546,1.275,1.052,1.72,1.436A15.066,15.066,0,0,0,43.9,67.386c-1.538.081-3.115.1-4.629.1l-.745-2.04c1.008.061,2,.121,3.6.121a34.336,34.336,0,0,0,9.319-1.032l1.477,1.578a.992.992,0,0,1,.324.546.188.188,0,0,1-.2.179,1.121,1.121,0,0,1-.384-.118,1.224,1.224,0,0,0-.546-.165c-.162,0-1.8.307-2.144.344-.85.125-2.3.283-4.225.384l.688.506c.182.142.324.283.324.445,0,.182-.182.222-.243.243-.465.081-.529.1-.587.2-.708.87-1.133,1.4-2.165,2.488.486.465.671.668,1.113,1.15,1.214-1.17,1.959-1.939,4.2-4.468l1.618.769c.283.142.728.364.728.587,0,.182-.162.182-.263.2a1.027,1.027,0,0,0-1.032.486c-1.534,1.74-2.569,2.792-3.739,3.921,2.67-.02,3.112-.04,4.043-.081a8.23,8.23,0,0,0-1.231-1.17l1.777-1.4a19.1,19.1,0,0,1,3.78,4.852Zm-.587,4.67a19.649,19.649,0,0,1-3.824-4.043l1.578-1.558a19.433,19.433,0,0,0,4.043,3.985Z" transform="translate(88.825 153.063)" fill="#1a1311"/><path d="M45.083,83.579l-1.534-1.355a12.528,12.528,0,0,0,0-16.619l1.534-1.355a14.409,14.409,0,0,1,0,19.33" transform="translate(103.286 152.38)" fill="#1a1311"/><path d="M167.032,102.921,66.1,83.3C75.494,34.971,116.011.974,165.238.114Z" transform="translate(156.77 0.27)" fill="#e3dead"/><path d="M167.032,102.921,66.1,83.3C75.494,34.971,116.011.974,165.238.114Z" transform="translate(156.77 0.27)" fill="none" stroke="#fff" stroke-width="0.219"/><path d="M168.318,44.406,65.558,40.818a91.2,91.2,0,0,1,1.827-16.032Z" transform="translate(155.484 58.785)" fill="#ebdabf"/><path d="M168.318,44.406,65.558,40.818a91.2,91.2,0,0,1,1.827-16.032Z" transform="translate(155.484 58.785)" fill="none" stroke="#fff" stroke-width="0.219"/><path d="M168.37,33.128l-87.2,54.487C69.764,69.364,64.859,51.049,65.611,29.541Z" transform="translate(155.432 70.062)" fill="#c1cedc"/><path d="M168.37,33.128l-87.2,54.487C69.764,69.364,64.859,51.049,65.611,29.541Z" transform="translate(155.432 70.062)" fill="none" stroke="#fff" stroke-width="0.241"/><path d="M157.372,30.6l26.613,99.32C139.5,141.844,94.577,124.15,70.173,85.092Z" transform="translate(166.43 72.586)" fill="#d2dbce"/><path d="M157.372,30.6l26.613,99.32C139.5,141.844,94.577,124.15,70.173,85.092Z" transform="translate(166.43 72.586)" fill="none" stroke="#fff" stroke-width="0.219"/><path d="M96.035,34.39l102.682-5.381a102.075,102.075,0,0,1-76.069,104.7Z" transform="translate(227.767 68.801)" fill="#ccc8d7"/><path d="M96.035,34.39l102.682-5.381a102.075,102.075,0,0,1-76.069,104.7Z" transform="translate(227.767 68.801)" fill="none" stroke="#fff" stroke-width="0.219"/><path d="M96.035,102.933V.109A102.222,102.222,0,0,1,198.717,97.551Z" transform="translate(227.767 0.258)" fill="#eac5c7"/><path d="M79.312,16.958a18.053,18.053,0,0,0,6.194-.826l.927,1.1a3.69,3.69,0,0,1-.742.745,44.3,44.3,0,0,0-3.614,3.9c.509-.118,1.116-.287,1.659-.421,2.057-.556,3.523-1.1,4.282-1.369l.219,1.369a9.422,9.422,0,0,1-1.062.253,7.717,7.717,0,0,0-2.549,1.888c-.59.607-1.972,1.976-1.972,3.594,0,1.3,1.2,1.787,2.225,1.959a9.633,9.633,0,0,0,1.942.084v1.349a19.286,19.286,0,0,1-2.124-.2A3.336,3.336,0,0,1,81.5,27.05c0-2.107,1.959-3.8,3.041-4.724-.964.3-5.25,1.5-6.13,1.77-.334.1-.6.185-1.264.421l-.472-1.45a13.8,13.8,0,0,0,2.768-.472,1.942,1.942,0,0,0,1.146-.708c1.5-1.639,1.652-1.807,3.088-3.358a2.924,2.924,0,0,0,.691-1,33.422,33.422,0,0,1-4.437.745Z" transform="translate(181.86 38.26)" fill="#1a1311"/><path d="M88.627,27.891a7.915,7.915,0,0,0,2.583-1.3,5.535,5.535,0,0,0,1.993-4.2,4.951,4.951,0,0,0-2.664-4.373,5.967,5.967,0,0,0-2.316-.452,21.261,21.261,0,0,1-1.956,7.387c-.708,1.5-1.618,2.97-2.616,2.97-1.416,0-2.886-2.175-2.886-4.623a6.95,6.95,0,0,1,7.141-6.885c3.54,0,6.565,2.229,6.565,5.975,0,4.589-4.087,6.224-5.1,6.632Zm-5.55-7.93a5.539,5.539,0,0,0-1.163,3.308c0,1.807,1.028,3.173,1.7,3.173.357,0,.762,0,1.858-2.7A20,20,0,0,0,86.927,17.6a5.507,5.507,0,0,0-3.851,2.364" transform="translate(191.549 38.936)" fill="#1a1311"/><path d="M90.6,16.95a19.1,19.1,0,0,1-1.588,3.24l.354.1c.118.034.219.067.219.152,0,.1-.2.32-.3.421V31.26H88.049V21.809a15.513,15.513,0,0,1-1.807,2.549L85.2,23.616a24.414,24.414,0,0,0,4.471-7.694l1.113.452c.118.054.3.155.3.256,0,.084-.051.1-.489.32m7.9,13.821H93.788c-1.416,0-1.706-1.062-1.706-2.077V23.583c-.421.135-.489.152-1.45.472l-.4-1.15c.334-.1.607-.165,1.854-.539V18.029l1.146.2c.169.034.3.135.3.239s-.081.148-.27.287v3.254c.287-.084,1.554-.489,1.824-.573.169-.051.219-.067.506-.169V16.006l1.133.1c.371.037.371.189.371.206,0,.1-.135.253-.27.421v4.134c1.315-.421,2.225-.742,2.815-.944l.91.708c-.081,1.248-.371,3.679-.556,4.592-.287,1.433-1.025,1.548-1.939,1.635l-.577-1.268c.9.017,1.251-.017,1.4-1.045A28.473,28.473,0,0,0,99.24,21.2c-.8.287-1.15.4-2.414.826v5.621H95.592V22.433c-.253.088-2.006.661-2.33.762v5.331c0,.708.189,1.1,1.4,1.1h3.476c1.116,0,1.538-.189,1.888-2.633l1.1.556c-.354,2.448-.947,3.223-2.633,3.223" transform="translate(202.07 37.762)" fill="#1a1311"/><path d="M111.535,41.321l1.248.084c.135.017.287.017.287.189,0,.135-.135.233-.354.334v1.116h4.167v3.679h2.65v1.113h-6.6a8.219,8.219,0,0,0,3.426,3.173,9.262,9.262,0,0,0,3.139.981l-.759,1.332a10.708,10.708,0,0,1-6.733-4.862,6.742,6.742,0,0,1-2.785,3.291,12.164,12.164,0,0,1-3.544,1.622l-.826-1.2a10.258,10.258,0,0,0,4.538-1.956,5.474,5.474,0,0,0,1.6-2.38h-6.413V46.723h2.411V43.044h4.542Zm2.5.523v-1.18h-4v1.231h-1.183V40.664h-4.167v-1.1h4.167V38.03l1.3.135c.084,0,.253.034.253.152,0,.135-.185.219-.368.307v.944h4V37.946l1.264.118c.155.017.307.034.307.185s-.169.219-.371.3v1.015h4.2v1.1h-4.2v1.18ZM111.3,46.723a14.653,14.653,0,0,0,.236-2.583h-3.341v2.583Zm4.454,0V44.14h-3.038a16.331,16.331,0,0,1-.219,2.583Z" transform="translate(248.04 89.997)" fill="#1a1311"/><path d="M109.533,40.517h6.16v1.1h-6.16Zm4.572,11.865v-.691h-2.819v.742h-1.1V47.251h5.044v5.132Zm-3.9-14.192h4.909v1.1h-4.909Zm0,4.572h4.909v1.045h-4.909Zm0,2.111h4.909v1.045h-4.909Zm3.9,3.375h-2.819V50.68h2.819Zm1.669-2.583V44.6h2.5l.59-2.3H116.87V41.246h2.262l.539-2.043h-3.325V38.191h8V39.2h-3.4l-.539,2.043h3.26l-.135,3.358H124.9v1.062ZM122.76,52.3v-.742h-4.522v.792h-1.2V47.032h6.865V52.3Zm0-4.221h-4.525v2.38h4.525Zm-2.616-5.769-.607,2.3h2.734l.135-2.3Z" transform="translate(259.78 90.578)" fill="#1a1311"/><path d="M128.207,48.383c-.307-.759-.489-1.15-.657-1.487-1.349.051-4.639.2-4.963.2v6.16H121.3v-6.11c-2.886.118-3.935.169-5.84.189-.081.152-.216.421-.438.421-.135,0-.169-.121-.2-.357l-.206-1.3c.459.034,1,.067,2.326.067.728,0,1.976-.017,2.468-.034.185-.152.978-.86,1.146-1.012a22.066,22.066,0,0,0-3.341-2.5l.742-1.012c.017.017,1.167.776,1.183.776a17.492,17.492,0,0,0,2.209-2.4c-2.326.118-3.527.152-5.1.118l-.573-1.264c.627.034,1.571.084,3.105.084,4.639,0,6.582-.472,8.133-.961l1.015,1.113c.084.1.1.152.1.2a.189.189,0,0,1-.189.185,2.239,2.239,0,0,1-.657-.2,32.205,32.205,0,0,1-4.083.59c-.995,1.1-2.06,2.279-3.041,3.19.341.27.914.725,1.507,1.248a35.12,35.12,0,0,0,3.153-3.257l1.1.964c.071.067.152.135.152.219,0,.135-.169.169-.287.169a3.266,3.266,0,0,1-.351-.017c-.661.573-3.53,3.207-4.12,3.729,1.922-.034,3.867-.084,5.789-.219a9.5,9.5,0,0,0-1.13-1.554l1.012-.691a15.157,15.157,0,0,1,2.414,4.167Zm-8.655.877a18.674,18.674,0,0,1-3.834,3.173l-.907-.981a12.662,12.662,0,0,0,4.164-3.51l1.015.931c.118.118.152.169.152.236,0,.2-.421.169-.59.152m8.419,3.358a20.2,20.2,0,0,0-4.033-3.51l.792-.877a17.8,17.8,0,0,1,4.083,3.324Z" transform="translate(271.85 90.056)" fill="#1a1311"/><path d="M88.285,55.432c-2.566,1.15-4.184,1.757-5.368,2.178-.067.152-.152.354-.27.354-.135,0-.219-.2-.253-.3L81.939,56.5c.506-.135,1.618-.425,2.65-.759V51.4H82.478V50.253h2.111V46.608H82.344v-1.1h5.621v1.1H85.769v3.645h2.195V51.4H85.769v3.931c1.251-.438,1.908-.742,2.549-1.028Zm-.573,3.7v-1.1h4.437V55.617H89.161v-1.1h2.987V52.58h-3.26V45.037h7.731V52.58H93.329v1.942h3.206v1.1H93.329v2.414H97.55v1.1Zm4.437-12.974H90.072v2.074h2.077Zm0,3.122H90.072v2.208h2.077Zm3.291-3.122H93.329v2.074h2.111Zm0,3.122H93.329v2.208h2.111Z" transform="translate(194.336 106.814)" fill="#1a1311"/><path d="M93.369,46.075a15.774,15.774,0,0,1-1.875.472v2.819h2.192V50.5H91.629a8.482,8.482,0,0,0,2.326,3.122l-.792.88a11.152,11.152,0,0,1-1.669-2.06v7.509h-1.2V52.437a14.824,14.824,0,0,1-2.246,4.134l-.995-.792A12.549,12.549,0,0,0,89.772,50.5H87.088v-1.13h3.206v-2.6a18.51,18.51,0,0,1-2.579.287l-.661-1.231A14.773,14.773,0,0,0,92.978,45l.931.792c.064.051.118.1.118.152,0,.219-.509.152-.657.135m6.6,8.116v5.722H98.73V54.6L94.5,55.9l-.421-1.13,4.656-1.4V44.878l1.386.135c.067,0,.32.034.32.169,0,.185-.236.287-.469.388V52.96l2.428-.792.337,1.1Zm-3.463-1.7a11.326,11.326,0,0,0-1.993-1.77l.678-.88A11.008,11.008,0,0,1,97.3,51.591Zm.169-3.308a10.88,10.88,0,0,0-1.939-1.7l.755-.931a9.757,9.757,0,0,1,2.01,1.72Z" transform="translate(206.467 106.437)" fill="#1a1311"/><path d="M105.689,55.265c-.3-.759-.489-1.15-.657-1.487-1.349.051-4.643.2-4.963.2v6.16H98.787v-6.11c-2.886.121-3.931.169-5.84.185-.081.155-.216.425-.438.425-.135,0-.169-.121-.2-.354l-.206-1.3c.455.034.995.067,2.327.067.728,0,1.976-.017,2.468-.034.185-.152.978-.86,1.146-1.012a22.067,22.067,0,0,0-3.341-2.5l.742-1.012c.017.017,1.163.775,1.183.775a17.489,17.489,0,0,0,2.208-2.4c-2.326.121-3.527.152-5.1.121l-.573-1.268c.627.034,1.571.084,3.105.084,4.639,0,6.582-.472,8.133-.961l1.015,1.113c.084.1.1.152.1.2a.187.187,0,0,1-.185.185,2.21,2.21,0,0,1-.657-.2,32.2,32.2,0,0,1-4.083.59c-.995,1.1-2.06,2.279-3.038,3.19.337.27.91.725,1.5,1.251a35.549,35.549,0,0,0,3.153-3.26l1.1.964c.071.067.152.135.152.219,0,.135-.169.169-.287.169a3.321,3.321,0,0,1-.354-.017c-.658.573-3.527,3.207-4.117,3.729,1.922-.034,3.867-.084,5.789-.219a9.371,9.371,0,0,0-1.133-1.554l1.015-.691a15.112,15.112,0,0,1,2.414,4.171Zm-8.655.877A18.673,18.673,0,0,1,93.2,59.314l-.91-.978a12.72,12.72,0,0,0,4.167-3.51l1.015.927c.118.118.152.169.152.236,0,.2-.421.169-.59.152m8.419,3.358a20.2,20.2,0,0,0-4.033-3.51l.792-.877a17.8,17.8,0,0,1,4.083,3.325Z" transform="translate(218.444 106.378)" fill="#1a1311"/><path d="M109.28,18.778a8.612,8.612,0,0,0,1.588,1.5l-.792.826a7.793,7.793,0,0,1-1.672-1.892V21.85h-1.146V19.166a17.841,17.841,0,0,1-3.291,2.869l-.843-.792a11.206,11.206,0,0,0,3.035-2.465h-2.6V17.733h3.7v-2.9l1.163.118c.32.034.421.219.421.287,0,.118-.253.287-.438.4v2.094h3.206v1.045Zm-4.96,8.048a14.207,14.207,0,0,0,1.349-1.892h-2.107V23.927h2.731a14.732,14.732,0,0,0,.88-1.858l1.1.674c.152.084.256.152.256.27,0,.152-.239.2-.577.253-.2.354-.219.391-.391.661H112v1.008h-1.13a11.191,11.191,0,0,1-1.352,2.262,10.618,10.618,0,0,1,1.568,1.032l-.789.877a12.572,12.572,0,0,0-1.588-1.065,8.937,8.937,0,0,1-1.736,1.082,10.3,10.3,0,0,1-2.482.725l-.792-1.1a8,8,0,0,0,3.965-1.268,13.4,13.4,0,0,0-1.875-.708c-.2.27-.32.421-.556.708ZM105.23,15a8.483,8.483,0,0,1,1.672,1.618l-.745.711a11.383,11.383,0,0,0-1.618-1.588Zm1.8,9.936a11.685,11.685,0,0,1-.671,1.049,17.927,17.927,0,0,1,2.124.742,6.229,6.229,0,0,0,1.1-1.79Zm1.841-8.352a8.9,8.9,0,0,0,1.554-1.753l.708.674c.1.1.185.169.185.253,0,.152-.219.169-.32.185a8.927,8.927,0,0,1-1.335,1.335Zm9.282,13.129A8.24,8.24,0,0,1,114.9,27.08a9.906,9.906,0,0,1-3.072,2.954l-1.146-.792a9.809,9.809,0,0,0,3.561-3.257,16.005,16.005,0,0,1-1.453-5.836l1.1-.189a17.876,17.876,0,0,0,1.015,4.707,17.435,17.435,0,0,0,.931-5.449h-2.738a13.948,13.948,0,0,1-1.652,2.987l-1.012-.708a17.491,17.491,0,0,0,2.883-6.767l1.251.489c.135.067.27.169.27.3s-.152.169-.472.27c-.135.354-.691,1.959-.826,2.279h4.791v1.146h-1.3c-.27,3.038-.486,4.66-1.5,6.767a7.277,7.277,0,0,0,3.426,2.684Z" transform="translate(244.578 34.933)" fill="#1a1311"/><path d="M116.323,25.695v2.6c0,1.332-.388,1.821-2.549,1.8l-.624-1.352c.539.037.86.037,1.062.037.438,0,.792-.017.792-.577V25.695h-6.851V24.6H115V23.078l1.049.084a16.446,16.446,0,0,0,1.888-1.366h-6.548V20.748h8.49l.388.742c-1.8,1.352-3.308,2.33-3.948,2.738V24.6h6.983v1.1Zm5.432-3.931V19.3H109.69v2.546h-1.234V18.236h14.532v3.527Zm-9.92-3.783a10.9,10.9,0,0,0-1.841-1.972l.877-.762a9.708,9.708,0,0,1,1.888,1.976Zm3.78-.3a9.828,9.828,0,0,0-1.807-2.431l1-.587A10.059,10.059,0,0,1,116.643,17Zm5.2-1.669a12.361,12.361,0,0,1-1.723,1.939l-.877-.742a9.556,9.556,0,0,0,2.026-2.546l1.012.927c.084.1.135.169.135.236,0,.185-.27.185-.573.185" transform="translate(256.507 34.767)" fill="#1a1311"/><path d="M126.813,25.131c-.307-.759-.489-1.15-.657-1.487-1.349.051-4.639.2-4.963.2v6.16h-1.281V23.9c-2.886.118-3.935.169-5.84.189-.081.152-.216.421-.438.421-.135,0-.169-.121-.2-.357l-.206-1.3c.459.034,1,.067,2.327.067.728,0,1.976-.017,2.468-.034.185-.152.978-.86,1.146-1.012a22.065,22.065,0,0,0-3.341-2.5l.742-1.012c.017.017,1.167.775,1.183.775a17.489,17.489,0,0,0,2.208-2.4c-2.326.118-3.527.152-5.1.118L114.29,15.6c.627.034,1.571.084,3.105.084,4.639,0,6.582-.472,8.133-.961l1.015,1.113c.084.1.1.152.1.2a.189.189,0,0,1-.189.185,2.239,2.239,0,0,1-.657-.2,32.207,32.207,0,0,1-4.083.59c-.995,1.1-2.06,2.279-3.041,3.19.341.27.914.725,1.507,1.248a35.112,35.112,0,0,0,3.153-3.257l1.1.964c.071.067.152.135.152.219,0,.135-.169.169-.287.169a3.268,3.268,0,0,1-.351-.017c-.661.573-3.53,3.206-4.12,3.729,1.922-.034,3.867-.084,5.789-.219a9.5,9.5,0,0,0-1.129-1.554l1.011-.691a15.157,15.157,0,0,1,2.414,4.167Zm-8.655.877a18.673,18.673,0,0,1-3.834,3.173l-.907-.981a12.662,12.662,0,0,0,4.164-3.51l1.015.931c.118.118.152.169.152.236,0,.2-.421.169-.59.152m8.419,3.358a20.2,20.2,0,0,0-4.033-3.51l.792-.877A17.8,17.8,0,0,1,127.42,28.3Z" transform="translate(268.544 34.909)" fill="#1a1311"/><path d="M69.374,33.188A12.653,12.653,0,0,1,67.1,35.029l-1.062-.792a15.293,15.293,0,0,0,5.2-5.014H66.657v-1.1h2.718V24.752l1.18.067c.121.017.408.034.408.2,0,.1-.034.135-.357.388v2.718H72.5l.388.438a13.309,13.309,0,0,1-1.922,2.954,9.261,9.261,0,0,0,2.63,2.06l-.826.843a7.576,7.576,0,0,1-2.161-1.774V39.77H69.374Zm7.559-8.436,1.231.118c.135.017.357.051.357.185s-.1.219-.357.421V29.8h2.954v1.143H78.164v6.77h3.51v1.146H72.932V37.713h4v-6.77H73.727V29.8h3.206Z" transform="translate(156.611 58.704)" fill="#1a1311"/><path d="M86.021,31.279a15.9,15.9,0,0,1-4.282-2.364,13.241,13.241,0,0,1-2.654-2.785A17.491,17.491,0,0,1,72,31.549l-.91-1.1a13.49,13.49,0,0,0,7.428-5.806l1.278.438c.206.067.374.135.374.3a.507.507,0,0,1-.071.219c.961,1.669,3.392,3.443,6.8,4.575ZM78.7,34.755c-1.062,1.871-1.723,2.937-2.128,3.561,1.537-.185,3.257-.374,4.727-.573.455-.071.776-.118,1.079-.169-.792-1.082-.995-1.335-1.4-1.807l1.049-.573a18.318,18.318,0,0,1,3.035,4.3l-1.146.607c-.728-1.264-.775-1.332-.964-1.652-2.161.4-4.639.843-8.975,1.366-.1.169-.253.388-.357.388-.152,0-.216-.2-.25-.32l-.307-1.264c.539,0,.88-.034,2.06-.135A28,28,0,0,0,77.2,34.755H72.133v-1.2H86.21v1.2ZM75.39,30.231h7.377v1.13H75.39Z" transform="translate(168.6 58.455)" fill="#1a1311"/><path d="M89.853,35.124c-.3-.759-.489-1.15-.657-1.487-1.349.051-4.643.2-4.963.2V40H82.951V33.89c-2.886.118-3.931.169-5.84.189-.081.152-.216.421-.438.421-.135,0-.169-.121-.2-.357l-.206-1.3c.455.034.995.067,2.326.067.728,0,1.976-.017,2.468-.034.185-.152.978-.86,1.146-1.012a22.067,22.067,0,0,0-3.341-2.5l.742-1.012c.017.017,1.163.775,1.183.775A17.487,17.487,0,0,0,83,26.735c-2.326.118-3.527.152-5.1.118l-.573-1.264c.627.034,1.571.084,3.105.084,4.639,0,6.582-.472,8.133-.961l1.015,1.113c.084.1.1.152.1.2a.187.187,0,0,1-.185.185,2.21,2.21,0,0,1-.657-.2,32.205,32.205,0,0,1-4.083.59c-.995,1.1-2.06,2.279-3.038,3.19.337.27.91.725,1.5,1.248a35.115,35.115,0,0,0,3.153-3.257l1.1.964c.071.067.152.135.152.219,0,.135-.169.169-.287.169a3.323,3.323,0,0,1-.354-.017c-.657.573-3.527,3.206-4.117,3.729,1.922-.034,3.867-.084,5.789-.219a9.373,9.373,0,0,0-1.133-1.554l1.015-.691a15.158,15.158,0,0,1,2.414,4.167ZM81.2,36a18.673,18.673,0,0,1-3.834,3.173l-.91-.981a12.638,12.638,0,0,0,4.167-3.51l1.015.931c.118.118.152.169.152.236,0,.2-.421.169-.59.152m8.419,3.358a20.2,20.2,0,0,0-4.033-3.51l.792-.877A17.8,17.8,0,0,1,90.46,38.3Z" transform="translate(180.886 58.609)" fill="#1a1311"/><path d="M81.2,48.622v-.573H70.134v.573H68.9V34.464H82.437V48.622Zm0-13.008H70.134V46.869H81.2Zm-10.189,9.6v-1.1h4.134V41.568H72.194V40.506h2.954V38.227H71.587V37.165h8.3v1.062H76.328v2.279h2.819v1.062H76.328v2.549h3.952v1.1Zm7.121-1.366a5.876,5.876,0,0,0-1.062-1.453l.843-.691a6.319,6.319,0,0,1,1.113,1.436Z" transform="translate(163.418 81.738)" fill="#1a1311"/><path d="M73.643,36.79H79.8v1.1H73.643Zm4.572,11.865v-.691H75.4v.742H74.3V43.524h5.044v5.132Zm-3.9-14.192h4.909v1.1H74.317Zm0,4.572h4.909v1.049H74.317Zm0,2.111h4.909v1.045H74.317Zm3.9,3.375H75.4v2.431h2.819Zm1.669-2.583V40.877h2.5l.59-2.3H80.98V37.519h2.262l.539-2.043H80.457V34.464h8v1.012H85.066l-.539,2.043h3.257l-.135,3.358h1.366v1.062Zm6.986,6.632v-.742H82.349v.792h-1.2V43.3h6.868v5.267Zm0-4.221H82.345v2.38H86.87Zm-2.613-5.769-.61,2.3h2.734l.135-2.3Z" transform="translate(174.66 81.738)" fill="#1a1311"/><path d="M92.318,44.656c-.3-.759-.489-1.15-.657-1.487-1.349.051-4.643.2-4.963.2v6.16H85.416v-6.11c-2.886.121-3.931.169-5.84.185-.081.155-.216.425-.438.425-.135,0-.169-.121-.2-.354l-.206-1.3c.455.034.995.067,2.326.067.728,0,1.976-.017,2.468-.034.185-.152.978-.86,1.146-1.012a22.065,22.065,0,0,0-3.341-2.5l.742-1.012c.017.017,1.163.775,1.183.775a17.492,17.492,0,0,0,2.208-2.4c-2.326.121-3.527.152-5.1.121L79.8,35.121c.627.034,1.571.084,3.105.084,4.639,0,6.582-.472,8.133-.961l1.015,1.113c.084.1.1.152.1.2a.187.187,0,0,1-.185.185,2.21,2.21,0,0,1-.657-.2,32.211,32.211,0,0,1-4.083.59c-.995,1.1-2.06,2.279-3.038,3.19.337.27.91.725,1.5,1.251a35.558,35.558,0,0,0,3.153-3.26l1.1.964c.071.067.152.135.152.219,0,.135-.169.169-.287.169a3.32,3.32,0,0,1-.354-.017c-.657.573-3.527,3.206-4.117,3.729,1.922-.034,3.867-.084,5.789-.219A9.372,9.372,0,0,0,89.988,40.6L91,39.912a15.113,15.113,0,0,1,2.414,4.171Zm-8.655.877a18.673,18.673,0,0,1-3.834,3.173l-.91-.978a12.72,12.72,0,0,0,4.167-3.51l1.015.927c.118.118.152.169.152.236,0,.2-.421.169-.59.152m8.419,3.358a20.2,20.2,0,0,0-4.033-3.51l.792-.877a17.8,17.8,0,0,1,4.083,3.325Z" transform="translate(186.732 81.216)" fill="#1a1311"/><path d="M86.835,74.915v6.834H84.691V75.926c-.583.243-1.335.566-1.537.627a1.859,1.859,0,0,0-.725.344c-.162.223-.226.32-.364.32a.2.2,0,0,1-.185-.158l-.644-2.165c1.352-.384,2.364-.728,3.456-1.133V69.8h-1.13a11.756,11.756,0,0,1-.55,2.242l-2-.3a27.664,27.664,0,0,0,.951-5.621l2.2.526c.1.02.206.1.206.2s-.084.162-.327.3c-.121.1-.142.162-.2.688h.85V64.7l2.347.223a.289.289,0,0,1,.263.283.355.355,0,0,1-.162.246c-.142.118-.3.239-.3.381v2h1.7V69.8h-1.7v3.112a15.589,15.589,0,0,0,1.7-.87v1.983a12.456,12.456,0,0,1-1.7.89m9.987-2.751v1.578H98.8V75.7H96.822v4.144c0,1.376-.445,1.9-2.266,1.9H93.528L92.837,79.6c.631.061,1.035.081,1.237.081.32,0,.445-.1.445-.4V75.7H89.077V73.741h5.442V72.163H88.757V70.2h3.577v-1.76H89.5V66.522h2.832V64.56l2.387.142a.2.2,0,0,1,.2.185.3.3,0,0,1-.084.2.557.557,0,0,0-.2.364v1.069h3.577v1.922H94.64V70.2h4.306v1.959Zm-6.167,7.7a12.344,12.344,0,0,0-1.7-2.428l1.578-1.19a14.417,14.417,0,0,1,1.821,2.525Z" transform="translate(192.137 153.117)" fill="#1a1311"/><path d="M104.671,81.672c-2,0-5.213.04-7.215.04a18.678,18.678,0,0,1-4.107-.3,2.879,2.879,0,0,1-2.222-1.517,18.678,18.678,0,0,1-1.9,1.618c-.283.2-.32.2-.344.445-.02.2-.1.364-.2.364-.037,0-.142,0-.263-.243l-1.049-2.144a12.96,12.96,0,0,0,2.566-1.271V73.745H87.65V71.786h4.569v6.025c0,1.554,1.032,1.979,3.861,1.979,3.075,0,6.248,0,9.242-.263ZM90.459,68.954a11.114,11.114,0,0,0-2.731-2.424l1.416-1.72a10.929,10.929,0,0,1,2.748,2.505Zm5.8,9.1v.789H94V70.289a6.971,6.971,0,0,1-.867.991l-1.78-1.214a12.7,12.7,0,0,0,3.658-5.519l1.821.809c.142.057.425.2.425.324,0,.1-.182.121-.223.142-.182.017-.223.061-.263.121-.223.445-.546.991-.89,1.554h2.647A30.2,30.2,0,0,0,99.6,64.507l2.06.3c.142.02.469.061.469.182,0,.081-.142.138-.206.182a.547.547,0,0,0-.3.182c-.32.749-.85,1.736-1.049,2.141h3.861v1.72h-3.52v1.254h2.974v1.6h-2.974v1.251h3.014v1.639h-3.014v1.416h3.759v1.676Zm2.367-8.834H96.265v1.254h2.364Zm0,2.852H96.265v1.254h2.364Zm0,2.89H96.265v1.416h2.364Z" transform="translate(207.209 152.992)" fill="#1a1311"/><path d="M98.058,83.579a14.409,14.409,0,0,1,0-19.33L99.6,65.6a12.527,12.527,0,0,0,0,16.619Z" transform="translate(223.738 152.38)" fill="#1a1311"/><path d="M100.082,77.917c-.384.142-2.222.728-2.387.85-.037.044-.26.364-.341.364s-.142-.1-.2-.384l-.384-1.939c.927-.2,1.76-.445,2.448-.668V72.155H97.5V70.176h1.72V66.919H97.193V65.081h6.248v1.838H101.4v3.257h1.72v1.979H101.4v3.338a21.773,21.773,0,0,0,2.165-.647v1.76c-1.153.462-2.306.887-3.48,1.312m2.468,2.974V79.01h5.681V77.068h-3.416V75.25h3.416V73.369h-3.759V64.717h9.646v8.652h-3.786V75.25h3.581v1.817h-3.581V79.01h4.228v1.881Zm5.681-14.357h-1.72v1.615h1.72Zm0,3.318h-1.72v1.8h1.72Zm3.84-3.318h-1.74v1.615h1.74Zm0,3.318h-1.74v1.8h1.74Z" transform="translate(229.506 153.49)" fill="#1a1311"/><path d="M108.479,78.125a20.337,20.337,0,0,1-3.5,3.679l-1.8-1.578a12.836,12.836,0,0,0,3.743-3.759l1.979.951c.081.04.3.142.3.344,0,.239-.384.3-.728.364m9.93-.87c-.283-.566-.587-1.113-1.052-1.881-.769.04-.931.04-2.347.121-1.352.061-1.494.081-2.182.121v6.308H110.4V75.718c-1.032.061-3.4.162-4.569.223-.789.04-.89.04-1.092.324-.142.182-.223.283-.384.283-.239,0-.364-.2-.523-.829l-.469-1.9h5.54a18.535,18.535,0,0,0-2.084-2.144,21.894,21.894,0,0,0-2.323-1.777l1.659-1.7c.688.546,1.274,1.052,1.72,1.436a15.064,15.064,0,0,0,1.757-2.246c-1.538.081-3.115.1-4.629.1l-.745-2.04c1.008.061,2,.121,3.6.121a34.335,34.335,0,0,0,9.319-1.032l1.477,1.578a.992.992,0,0,1,.324.546.188.188,0,0,1-.2.179,1.121,1.121,0,0,1-.384-.118,1.223,1.223,0,0,0-.546-.165c-.162,0-1.8.307-2.144.344-.85.125-2.3.283-4.225.384l.688.506c.182.142.324.283.324.445,0,.182-.182.222-.243.243-.465.081-.529.1-.587.2-.708.87-1.133,1.4-2.165,2.488.486.465.671.668,1.113,1.15,1.214-1.17,1.959-1.939,4.2-4.468l1.618.769c.283.142.728.364.728.587,0,.182-.162.182-.263.2a1.027,1.027,0,0,0-1.032.486c-1.534,1.74-2.569,2.792-3.739,3.921,2.67-.02,3.112-.04,4.043-.081a8.233,8.233,0,0,0-1.231-1.17l1.777-1.4a19.1,19.1,0,0,1,3.78,4.852Zm-.587,4.67A19.648,19.648,0,0,1,114,77.882l1.578-1.558a19.434,19.434,0,0,0,4.043,3.985Z" transform="translate(244.718 153.063)" fill="#1a1311"/><path d="M110.813,83.579l-1.534-1.355a12.528,12.528,0,0,0,0-16.619l1.534-1.355a14.409,14.409,0,0,1,0,19.33" transform="translate(259.178 152.38)" fill="#1a1311"/></g></svg>