<svg xmlns="http://www.w3.org/2000/svg" xmlns:xlink="http://www.w3.org/1999/xlink" width="245.932" height="220.776" viewBox="0 0 245.932 220.776"><defs><clipPath id="a"><rect width="245.932" height="220.776" fill="none"/></clipPath></defs><g transform="translate(0 0)"><g transform="translate(0 0)" clip-path="url(#a)"><path d="M113.114,110.018,8.617,76.064C23.616,29.9,64.568.142,113.114.142Z" transform="translate(22.43 0.369)" fill="#e3dead" fill-rule="evenodd"/><path d="M113.114,110.018,8.617,76.064C23.616,29.9,64.568.142,113.114.142Z" transform="translate(22.43 0.369)" fill="none" stroke="#fff" stroke-width="0.227"/><path d="M116.41,55.168,7.351,41.776a111.6,111.6,0,0,1,4.561-20.562Z" transform="translate(19.135 55.219)" fill="#d2dbce" fill-rule="evenodd"/><path d="M116.41,55.168,7.351,41.776a111.6,111.6,0,0,1,4.561-20.562Z" transform="translate(19.135 55.219)" fill="none" stroke="#fff" stroke-width="0.283"/><path d="M117.019,40.313,7.294,46.064A101.494,101.494,0,0,1,7.96,26.921Z" transform="translate(18.525 70.074)" fill="#ebdabf" fill-rule="evenodd"/><path d="M117.019,40.313,7.294,46.064A101.494,101.494,0,0,1,7.96,26.921Z" transform="translate(18.525 70.074)" fill="none" stroke="#fff" stroke-width="0.283"/><path d="M116.891,30.638,12.394,64.592a101.789,101.789,0,0,1-5.228-28.2Z" transform="translate(18.653 79.749)" fill="#eac5c7" fill-rule="evenodd"/><path d="M113.114,30.638,103.538,140.1c-44.854-3.924-81.006-32.683-94.921-75.5Z" transform="translate(22.43 79.749)" fill="#c1cedc" fill-rule="evenodd"/><path d="M113.114,30.638,103.538,140.1c-44.854-3.924-81.006-32.683-94.921-75.5Z" transform="translate(22.43 79.749)" fill="none" stroke="#fff" stroke-width="0.283"/><path d="M44.539,30.638,152.012,53.481A109.936,109.936,0,0,1,34.962,140.1Z" transform="translate(91.005 79.749)" fill="#ccc8d7" fill-rule="evenodd"/><path d="M44.539,30.638,152.012,53.481A109.936,109.936,0,0,1,34.962,140.1Z" transform="translate(91.005 79.749)" fill="none" stroke="#fff" stroke-width="0.283"/><path d="M37.62,110.018V.142A109.879,109.879,0,0,1,147.5,110.018a97.8,97.8,0,0,1-2.4,22.843Z" transform="translate(97.924 0.369)" fill="#f2c9a0" fill-rule="evenodd"/><path d="M37.62,110.018V.142A109.879,109.879,0,0,1,147.5,110.018a97.8,97.8,0,0,1-2.4,22.843Z" transform="translate(97.924 0.369)" fill="none" stroke="#fff" stroke-width="0.283"/><path d="M22.946,14.327a19.2,19.2,0,0,0,6.619-.886l.987,1.175a3.718,3.718,0,0,1-.789.793A48.425,48.425,0,0,0,25.9,19.573c.544-.126,1.189-.306,1.769-.45,2.2-.594,3.769-1.171,4.579-1.459l.234,1.459a10.257,10.257,0,0,1-1.135.27,8.218,8.218,0,0,0-2.724,2.021c-.631.649-2.111,2.108-2.111,3.841,0,1.387,1.283,1.91,2.382,2.09a10.043,10.043,0,0,0,2.075.09V28.88a21.524,21.524,0,0,1-2.27-.216c-.994-.162-3.412-.742-3.412-3.553,0-2.255,2.09-4.057,3.246-5.051-1.027.328-5.606,1.607-6.547,1.9-.357.108-.645.2-1.351.45l-.5-1.549a14.765,14.765,0,0,0,2.958-.508,2.075,2.075,0,0,0,1.225-.757c1.6-1.747,1.769-1.928,3.3-3.589a3.086,3.086,0,0,0,.739-1.063,35.823,35.823,0,0,1-4.742.793Z" transform="translate(52.403 34.986)" fill="#1a1311"/><path d="M32.618,25.992A8.636,8.636,0,0,0,35.382,24.6a5.923,5.923,0,0,0,2.126-4.489,5.285,5.285,0,0,0-2.85-4.673,6.408,6.408,0,0,0-2.472-.486,22.717,22.717,0,0,1-2.09,7.9c-.757,1.607-1.729,3.174-2.792,3.174-1.517,0-3.088-2.324-3.088-4.94a7.427,7.427,0,0,1,7.631-7.357c3.783,0,7.015,2.378,7.015,6.384,0,4.9-4.367,6.651-5.448,7.087Zm-5.931-8.478a5.919,5.919,0,0,0-1.243,3.535c0,1.931,1.1,3.39,1.82,3.39.382,0,.814,0,1.985-2.886A21.369,21.369,0,0,0,30.8,14.988a5.885,5.885,0,0,0-4.115,2.526" transform="translate(63.034 35.73)" fill="#1a1311"/><path d="M34.42,14.331a20.143,20.143,0,0,1-1.693,3.462l.378.108c.126.036.234.072.234.162,0,.108-.213.342-.321.45V29.622H31.7v-10.1a16.426,16.426,0,0,1-1.931,2.724l-1.117-.793a25.974,25.974,0,0,0,4.781-8.222l1.189.486c.126.054.324.162.324.27,0,.09-.054.108-.526.342M42.862,29.1h-5.03c-1.513,0-1.82-1.135-1.82-2.219V21.418c-.454.144-.526.162-1.553.5l-.432-1.229c.357-.1.649-.177,1.985-.576V15.484l1.221.216c.18.04.324.144.324.252s-.086.162-.288.31v3.477c.306-.09,1.661-.522,1.949-.613.18-.054.234-.072.544-.18V13.322l1.207.108c.4.036.4.2.4.213,0,.112-.144.274-.288.454v4.417c1.405-.45,2.378-.793,3.012-1.009l.969.757c-.086,1.333-.393,3.931-.594,4.9-.306,1.535-1.1,1.661-2.072,1.751l-.612-1.355c.955.018,1.333-.018,1.5-1.117a29.837,29.837,0,0,0,.378-3.571c-.847.306-1.225.432-2.576.883v6.006H39.764V20.189c-.274.09-2.147.706-2.493.811v5.7c0,.757.2,1.175,1.5,1.175h3.715c1.193,0,1.643-.2,2.018-2.814l1.171.594c-.375,2.616-1.005,3.444-2.81,3.444" transform="translate(74.581 34.442)" fill="#1a1311"/><path d="M50.683,42.362l1.333.094c.144.018.306.018.306.2,0,.144-.144.252-.378.36V44.2H56.4v3.931H59.23v1.193H52.179a8.779,8.779,0,0,0,3.661,3.387,9.739,9.739,0,0,0,3.354,1.048l-.811,1.423a11.441,11.441,0,0,1-7.2-5.192,7.2,7.2,0,0,1-2.976,3.516,13.128,13.128,0,0,1-3.787,1.729l-.883-1.279a10.922,10.922,0,0,0,4.85-2.093,5.791,5.791,0,0,0,1.715-2.54H43.254V48.134H45.83V44.2h4.853Zm2.666.562V41.663H49.076v1.315H47.815V41.663H43.362V40.488h4.453V38.849l1.387.144c.09,0,.27.036.27.162,0,.144-.2.234-.4.324v1.009H53.35V38.755l1.355.13c.162.014.324.036.324.2s-.184.234-.4.324v1.081h4.489v1.175H54.632v1.261Zm-2.918,5.21a15.593,15.593,0,0,0,.252-2.76H47.113v2.76Zm4.76,0v-2.76H51.944a17.424,17.424,0,0,1-.234,2.76Z" transform="translate(112.589 100.878)" fill="#1a1311"/><path d="M48.2,41.487h6.579v1.175H48.2ZM53.09,54.166v-.739H50.078v.793H48.907V48.682H54.3v5.484ZM48.925,39h5.25v1.171h-5.25Zm0,4.886h5.25v1.121h-5.25Zm0,2.255h5.25v1.117h-5.25Zm4.165,3.607H50.078v2.6H53.09Zm1.787-2.76V45.854h2.666l.634-2.454H56.048V42.265h2.414l.576-2.183H55.486V39h8.55v1.081H60.411l-.576,2.183h3.48l-.144,3.589h1.463v1.135Zm7.462,7.087v-.793H57.507v.847H56.228V48.448h7.336v5.628Zm0-4.511H57.5v2.544h4.835ZM59.55,43.4l-.656,2.454h2.922L61.96,43.4Z" transform="translate(125.474 101.518)" fill="#1a1311"/><path d="M57,42.222A1.614,1.614,0,1,1,55.383,40.6,1.629,1.629,0,0,1,57,42.222" transform="translate(139.978 105.672)" fill="#1a1311"/><path d="M41.612,59.6l-1.207-.94a11.1,11.1,0,0,0,4.868-4.742A21.417,21.417,0,0,0,42.408,51.5l.7-1.117a18.906,18.906,0,0,1,2.832,2.2A18.674,18.674,0,0,0,47.312,47.9H43.759a22.269,22.269,0,0,1-3.21,5.549l-1.135-.811a18.374,18.374,0,0,0,4.237-8.867l1.373.468c.086.036.306.126.306.288s-.162.177-.508.213a16.971,16.971,0,0,1-.576,1.9h4.637c-1.229,7.552-3.79,10.65-7.271,12.964m13.724-4.277A12.28,12.28,0,0,1,52.381,53.5v6.6H51.062V52.327A12.272,12.272,0,0,1,48.9,49.57l.937-.811A15.877,15.877,0,0,0,51.062,50.4V43.82l1.549.213a.3.3,0,0,1,.288.238c0,.2-.375.339-.519.4v7.087a12.1,12.1,0,0,0,3.567,2.306Z" transform="translate(102.594 113.921)" fill="#1a1311"/><path d="M57.858,59.13v-.613H46.029v.613H44.714V44H59.176V59.13Zm0-13.9H46.029V57.256H57.858ZM46.969,55.487V54.316h4.417V51.592H48.23V50.458h3.156V48.022h-3.8V46.887h8.874v1.135H52.648v2.436H55.66v1.135H52.648v2.724H56.87v1.171Zm7.609-1.459a6.279,6.279,0,0,0-1.135-1.553l.9-.739a6.752,6.752,0,0,1,1.189,1.535Z" transform="translate(116.39 114.533)" fill="#1a1311"/><path d="M49.454,46.487h6.579v1.175H49.454ZM54.34,59.166v-.739H51.328v.793H50.157V53.682H55.55v5.484ZM50.175,44h5.25v1.171h-5.25Zm0,4.886h5.25v1.121h-5.25Zm0,2.255h5.25v1.117h-5.25Zm4.165,3.607H51.328v2.6H54.34Zm1.787-2.76V50.854h2.666l.634-2.454H57.3V47.265h2.414l.576-2.183H56.736V44h8.55v1.081H61.661l-.576,2.183h3.48l-.144,3.589h1.463v1.135Zm7.462,7.087v-.793H58.757v.847H57.478V53.448h7.336v5.628Zm0-4.511H58.753v2.544h4.835ZM60.8,48.4l-.656,2.454h2.922L63.21,48.4Z" transform="translate(128.728 114.533)" fill="#1a1311"/><path d="M69.06,54.907c-.324-.811-.522-1.229-.7-1.589-1.441.054-4.961.216-5.3.216v6.583H61.685V53.588c-3.084.13-4.2.18-6.24.2-.086.166-.231.454-.468.454-.144,0-.18-.13-.213-.378l-.22-1.391c.486.036,1.063.072,2.486.072.778,0,2.111-.018,2.637-.036.2-.162,1.045-.919,1.225-1.081a23.581,23.581,0,0,0-3.571-2.67l.793-1.081c.018.018,1.243.829,1.265.829a18.691,18.691,0,0,0,2.36-2.562c-2.486.13-3.769.162-5.448.13l-.612-1.355c.67.036,1.679.09,3.318.09,4.958,0,7.033-.5,8.69-1.027l1.084,1.189c.09.108.108.162.108.216a.2.2,0,0,1-.2.2,2.362,2.362,0,0,1-.7-.216,34.42,34.42,0,0,1-4.363.631c-1.063,1.175-2.2,2.436-3.246,3.408.36.288.973.775,1.607,1.337a37.992,37.992,0,0,0,3.369-3.484l1.171,1.03c.076.072.162.144.162.234,0,.144-.18.18-.306.18a3.552,3.552,0,0,1-.378-.018c-.7.613-3.769,3.426-4.4,3.985,2.054-.036,4.133-.09,6.186-.234a10.016,10.016,0,0,0-1.211-1.661l1.084-.739a16.149,16.149,0,0,1,2.58,4.457Zm-9.249.937a19.954,19.954,0,0,1-4.1,3.39l-.973-1.045A13.592,13.592,0,0,0,59.2,54.439l1.085.991c.126.126.162.18.162.252,0,.216-.45.18-.631.162m9,3.589A21.583,21.583,0,0,0,64.5,55.682l.847-.937A19.022,19.022,0,0,1,69.709,58.3Z" transform="translate(141.977 113.96)" fill="#1a1311"/><path d="M52.685,21.649v1.405H51.37V21.649h-3.9v1.5H46.21v-1.5H41.6V20.424H46.21V18.583l1.333.18c.216.036.342.036.342.162,0,.184-.306.306-.414.346v1.153h3.9V18.677l1.4.123c.076.022.27.04.27.166,0,.162-.213.267-.357.324v1.135H57.39v1.225Zm-3.7,7.357c-1.243,1.856-2.036,2.868-2.81,3.859,1.423-.108,4.6-.432,7.213-.847a10.854,10.854,0,0,0-1.7-1.693l.994-.85a19.846,19.846,0,0,1,3.8,4.511l-1.229.847a13.529,13.529,0,0,0-1.171-1.877c-2.67.522-10.222,1.423-10.748,1.481-.054.144-.162.45-.378.45-.162,0-.234-.216-.252-.342l-.36-1.535c.252.018.414.036.883.036.522,0,.883-.018,1.229-.036,1.257-1.621,2.018-2.684,2.9-4h-5.48V27.8H57.1v1.207Zm-4.417-4.922H54.09v1.175H44.567Z" transform="translate(108.271 48.37)" fill="#1a1311"/><path d="M46.4,28.682A16.02,16.02,0,0,0,50.406,23.2l1.131.616c.148.072.22.144.22.234,0,.162-.256.2-.468.2-.144.234-.757,1.261-.883,1.477.18.108.288.166.288.27,0,.184-.162.274-.432.45v8.208H49.033V27.6c-.613.757-1.1,1.315-1.639,1.874Zm.436-5.967a17.6,17.6,0,0,0,3.477-4.039l1.045.721c.076.068.18.144.18.234,0,.144-.195.18-.5.216a22.593,22.593,0,0,1-3.268,3.769Zm4.071,9.015a21.615,21.615,0,0,0,1.229-6.709l1.207.18c.144.036.342.072.342.216,0,.162-.288.288-.432.342a29.359,29.359,0,0,1-1.117,6.4Zm3.336-8.348H51.721V22.208h2.522V18.583l1.355.094c.306.014.342.144.342.213,0,.126-.036.144-.414.342v2.976h2.526v1.175H55.525V34.274H54.243Zm2.6-4.241A10.325,10.325,0,0,1,58.2,20.748l-.886.7a19.921,19.921,0,0,0-1.315-1.585ZM57.33,25a33.725,33.725,0,0,1,1.3,6.222l-1.193.45a34.343,34.343,0,0,0-1.225-6.258Zm1.153,8.186a8.769,8.769,0,0,0,.991.072c.7,0,.739-.216.739-.631v-7.79H58.1V23.649h5.214v1.193H61.474v7.826c0,1.567-.036,1.9-2.616,1.9Zm.375-13.324h4.079v1.171H58.858Z" transform="translate(120.776 48.37)" fill="#1a1311"/><path d="M51.564,31.161V30.022H62.207V29l1.261.126c.267.018.468.054.468.2,0,.126-.144.252-.414.4v.306h4.021v1.139H63.522v1.964c0,1.463-.432,1.769-2.688,1.787l-.594-1.5c.847.068,1.171.068,1.229.068.537,0,.739-.144.739-.649V31.161H55.859a17.336,17.336,0,0,1,1.874,2.111l-1.066.789a25.7,25.7,0,0,0-1.928-2.2l.793-.7Zm7.307-12.643,1.387.144c.144.018.306.04.306.144s-.072.184-.324.36v.994h7.231v1.171H60.24v1.189h4.742v6.186H54.2V22.521h4.673V21.332H51.6V20.161h7.271Zm0,5.087H55.513v1.441h3.358Zm0,2.522H55.513v1.5h3.358Zm4.8-2.522H60.24v1.441h3.426Zm0,2.522H60.24v1.5h3.426Z" transform="translate(134.22 48.201)" fill="#1a1311"/><path d="M58.07,25.124V34.34H56.755V18.7H63.23v6.421Zm3.949-5.336H58.07v1.571h3.949Zm0,2.648H58.07v1.657h3.949Zm8.78,11.63c-.288.112-.4.112-2.216.13l-.414-1.463a10.227,10.227,0,0,0,1.405.144c.292,0,.5-.054.5-.558v-7.2h-5.21V18.7h6.525V32.967c0,.778-.306.994-.594,1.1m-.721-14.279H66.148v1.571h3.931Zm0,2.648H66.148v1.657h3.931Z" transform="translate(147.732 48.683)" fill="#1a1311"/><path d="M3.571,36.875a13.692,13.692,0,0,1-2.436,1.967L0,38a16.378,16.378,0,0,0,5.556-5.358H.667V31.467h2.9V27.86l1.261.072c.13.018.436.036.436.216,0,.108-.04.144-.382.414v2.9H6.907l.414.468a14.177,14.177,0,0,1-2.054,3.156,9.8,9.8,0,0,0,2.81,2.2l-.883.9a8.037,8.037,0,0,1-2.31-1.9v7.609H3.571Zm8.078-9.015,1.315.126c.144.018.382.054.382.2s-.112.234-.382.45V33.25H16.12v1.229H12.964V41.71h3.751v1.225H7.372V41.71h4.277V34.479H8.222V33.25h3.426Z" transform="translate(0 72.518)" fill="#1a1311"/><path d="M21.01,34.841a17.007,17.007,0,0,1-4.579-2.522A14.291,14.291,0,0,1,13.6,29.343a18.712,18.712,0,0,1-7.577,5.786l-.969-1.171a14.376,14.376,0,0,0,7.934-6.2l1.369.468c.216.072.4.148.4.328a.587.587,0,0,1-.072.234c1.03,1.783,3.625,3.679,7.267,4.886Zm-7.826,3.715c-1.135,2-1.838,3.138-2.27,3.8,1.643-.2,3.477-.4,5.048-.613.49-.072.829-.126,1.153-.18-.847-1.153-1.063-1.423-1.5-1.931l1.121-.609a19.537,19.537,0,0,1,3.243,4.594l-1.225.652c-.775-1.351-.829-1.423-1.027-1.769-2.306.432-4.961.9-9.595,1.463-.108.18-.27.414-.378.414-.162,0-.234-.216-.274-.342l-.321-1.351c.576,0,.937-.04,2.2-.144a29.75,29.75,0,0,0,2.216-3.988H6.169V37.277H21.212v1.279ZM9.653,33.724h7.88v1.207H9.653Z" transform="translate(13.161 72.242)" fill="#1a1311"/><path d="M24.751,38.946c-.328-.811-.522-1.229-.7-1.589-1.441.054-4.958.216-5.3.216v6.583H17.376V37.627c-3.084.13-4.2.18-6.24.2-.086.166-.231.454-.468.454-.144,0-.18-.13-.213-.378l-.22-1.391c.49.036,1.066.072,2.486.072.778,0,2.111-.018,2.637-.036.2-.162,1.045-.919,1.225-1.081a23.581,23.581,0,0,0-3.571-2.67l.793-1.081c.018.018,1.247.829,1.265.829a18.692,18.692,0,0,0,2.36-2.562c-2.486.13-3.769.162-5.448.13l-.613-1.355c.67.036,1.679.09,3.318.09,4.958,0,7.033-.5,8.69-1.027l1.084,1.189c.09.108.112.162.112.216a.2.2,0,0,1-.2.2,2.392,2.392,0,0,1-.7-.216,34.415,34.415,0,0,1-4.363.631c-1.063,1.175-2.2,2.436-3.25,3.408.364.288.976.775,1.611,1.337A37.992,37.992,0,0,0,21.037,31.1l1.171,1.03c.076.072.162.144.162.234,0,.144-.18.18-.306.18a3.492,3.492,0,0,1-.375-.018c-.706.613-3.772,3.426-4.4,3.985,2.054-.036,4.133-.09,6.186-.234a10.15,10.15,0,0,0-1.207-1.661l1.081-.739a16.15,16.15,0,0,1,2.58,4.457Zm-9.249.937a19.954,19.954,0,0,1-4.1,3.39l-.969-1.045a13.618,13.618,0,0,0,4.45-3.751l1.084.991c.126.126.162.18.162.252,0,.216-.45.18-.631.162m9,3.589a21.583,21.583,0,0,0-4.309-3.751l.847-.937A19.023,19.023,0,0,1,25.4,42.336Z" transform="translate(26.641 72.414)" fill="#1a1311"/><path d="M31.6,58.224v-.616H19.768v.616H18.449V43.091H32.911V58.224Zm0-13.9H19.768V56.346H31.6ZM20.7,54.577V53.406h4.417V50.682H21.966V49.548h3.156V47.112h-3.8V45.977h8.874v1.135H26.383v2.436h3.012v1.135H26.383v2.724h4.223v1.171Zm7.613-1.459a6.388,6.388,0,0,0-1.139-1.553l.9-.739a6.752,6.752,0,0,1,1.189,1.535Z" transform="translate(48.022 112.164)" fill="#1a1311"/><path d="M23.19,45.577h6.583v1.171H23.19Zm4.886,12.679v-.739H25.064v.793H23.893V52.772h5.39v5.484ZM23.911,43.091h5.246v1.171H23.911Zm0,4.886h5.246v1.117H23.911Zm0,2.255h5.246v1.117H23.911Zm4.165,3.607H25.064v2.6h3.012Zm1.783-2.76V49.944h2.67l.631-2.454H31.03V46.355h2.418l.576-2.183H30.472V43.091h8.55v1.081H35.393l-.576,2.183H38.3l-.144,3.589h1.459v1.135Zm7.465,7.087v-.793H32.493v.847H31.214V52.538h7.336v5.628Zm0-4.511H32.489V56.2h4.835Zm-2.8-6.165-.649,2.454H36.8l.144-2.454Z" transform="translate(60.363 112.164)" fill="#1a1311"/><path d="M42.8,54c-.328-.811-.522-1.229-.7-1.589-1.441.054-4.958.216-5.3.216v6.583H35.42V52.678c-3.084.126-4.2.18-6.24.2-.086.162-.231.45-.468.45-.144,0-.18-.13-.213-.382l-.22-1.387c.49.036,1.066.072,2.486.072.778,0,2.111-.018,2.637-.036.2-.162,1.045-.919,1.225-1.081a23.582,23.582,0,0,0-3.571-2.67l.793-1.081c.018.018,1.247.829,1.265.829a18.691,18.691,0,0,0,2.36-2.562c-2.486.126-3.769.162-5.448.126l-.613-1.351c.67.036,1.679.09,3.318.09,4.958,0,7.033-.5,8.69-1.027l1.084,1.189c.09.108.112.162.112.216a.2.2,0,0,1-.2.2,2.392,2.392,0,0,1-.7-.216,34.415,34.415,0,0,1-4.363.631c-1.063,1.175-2.2,2.436-3.25,3.408.364.288.976.775,1.611,1.333a37.522,37.522,0,0,0,3.369-3.48l1.171,1.03c.076.072.162.144.162.234,0,.144-.18.18-.306.18a3.492,3.492,0,0,1-.375-.018c-.706.613-3.772,3.426-4.4,3.985,2.054-.036,4.133-.09,6.186-.234a10.15,10.15,0,0,0-1.207-1.661l1.081-.739a16.2,16.2,0,0,1,2.58,4.453Zm-9.249.937a19.954,19.954,0,0,1-4.1,3.39l-.969-1.048a13.531,13.531,0,0,0,4.45-3.751l1.084.994c.126.126.162.18.162.252,0,.216-.45.18-.631.162m9,3.589a21.583,21.583,0,0,0-4.309-3.751l.847-.937a19.022,19.022,0,0,1,4.363,3.553Z" transform="translate(73.61 111.592)" fill="#1a1311"/><path d="M6.851,33.265C4.109,34.49,2.38,35.139,1.115,35.589c-.068.166-.162.378-.288.378-.144,0-.231-.213-.27-.321L.07,34.4c.544-.144,1.733-.45,2.832-.811V28.956H.646V27.727H2.9V23.832H.5V22.661H6.509v1.171H4.163v3.895H6.509v1.229H4.163v4.2c1.337-.468,2.036-.8,2.724-1.1Zm-.613,3.949V36.043h4.745v-2.58H7.791V32.292h3.192V30.217H7.5v-8.06h8.258v8.06h-3.52v2.075h3.426v1.171H12.241v2.58h4.511v1.171ZM10.983,23.35H8.764v2.216h2.219Zm0,3.333H8.764v2.36h2.219ZM14.5,23.35H12.241v2.216H14.5Zm0,3.333H12.241v2.36H14.5Z" transform="translate(0.182 57.674)" fill="#1a1311"/><path d="M11.933,23.276a16.653,16.653,0,0,1-2,.5v3.012h2.342V28h-2.2a9.064,9.064,0,0,0,2.486,3.336l-.847.94a11.918,11.918,0,0,1-1.783-2.2V38.1H8.647V30.075a15.841,15.841,0,0,1-2.4,4.417l-1.063-.847A13.41,13.41,0,0,0,8.089,28H5.221V26.793H8.647V24.015a19.784,19.784,0,0,1-2.756.306l-.706-1.315a15.786,15.786,0,0,0,6.33-.883l.994.847c.068.054.122.108.122.162,0,.234-.54.162-.7.144m7.047,8.672v6.114H17.662V32.381l-4.525,1.391-.45-1.207,4.976-1.5V22l1.481.144c.072,0,.342.036.342.18,0,.2-.252.306-.5.414v7.9l2.594-.847.364,1.171Zm-3.7-1.82a12.1,12.1,0,0,0-2.129-1.892l.724-.94a11.762,11.762,0,0,1,2.255,1.874Zm.18-3.535a11.625,11.625,0,0,0-2.072-1.82l.807-.994a10.427,10.427,0,0,1,2.147,1.838Z" transform="translate(13.496 57.257)" fill="#1a1311"/><path d="M24.751,33.1c-.328-.811-.522-1.229-.7-1.589-1.441.054-4.958.216-5.3.216v6.583H17.376V31.779c-3.084.13-4.2.18-6.24.2-.086.166-.231.454-.468.454-.144,0-.18-.13-.213-.378l-.22-1.391c.49.036,1.066.072,2.486.072.778,0,2.111-.018,2.637-.036.2-.162,1.045-.919,1.225-1.081a23.581,23.581,0,0,0-3.571-2.67l.793-1.081c.018.018,1.247.829,1.265.829a18.692,18.692,0,0,0,2.36-2.562c-2.486.13-3.769.162-5.448.13l-.613-1.355c.67.036,1.679.09,3.318.09,4.958,0,7.033-.5,8.69-1.027l1.084,1.189c.09.108.112.162.112.216a.2.2,0,0,1-.2.2,2.392,2.392,0,0,1-.7-.216,34.416,34.416,0,0,1-4.363.631c-1.063,1.175-2.2,2.436-3.25,3.408.364.288.976.775,1.611,1.337a37.992,37.992,0,0,0,3.369-3.484l1.171,1.03c.076.072.162.144.162.234,0,.144-.18.18-.306.18a3.492,3.492,0,0,1-.375-.018c-.706.613-3.772,3.426-4.4,3.985,2.054-.036,4.133-.09,6.186-.234a10.15,10.15,0,0,0-1.207-1.661l1.081-.739a16.15,16.15,0,0,1,2.58,4.457Zm-9.249.937a19.953,19.953,0,0,1-4.1,3.39l-.969-1.045a13.618,13.618,0,0,0,4.45-3.751l1.084.991c.126.126.162.18.162.252,0,.216-.45.18-.631.162m9,3.589a21.583,21.583,0,0,0-4.309-3.751l.847-.937A19.023,19.023,0,0,1,25.4,36.488Z" transform="translate(26.641 57.192)" fill="#1a1311"/><path d="M6.71,38a9.2,9.2,0,0,0,1.7,1.607l-.847.883a8.329,8.329,0,0,1-1.787-2.021v2.814H4.548V38.419a19.067,19.067,0,0,1-3.517,3.066l-.9-.847A11.974,11.974,0,0,0,3.374,38H.6V36.887H4.548v-3.1l1.243.126c.342.036.45.234.45.306,0,.126-.27.306-.468.432v2.237H9.2V38Zm-5.3,8.6a15.186,15.186,0,0,0,1.441-2.021H.6V43.506H3.518a15.738,15.738,0,0,0,.94-1.985l1.171.721c.162.09.274.162.274.288,0,.162-.256.216-.616.27-.216.378-.234.418-.418.706H9.614v1.077H8.407A11.962,11.962,0,0,1,6.962,47a11.343,11.343,0,0,1,1.675,1.1l-.843.937A13.431,13.431,0,0,0,6.1,47.9a9.549,9.549,0,0,1-1.856,1.157,11,11,0,0,1-2.652.775L.744,48.662a8.543,8.543,0,0,0,4.237-1.355,14.313,14.313,0,0,0-2-.757c-.216.288-.342.45-.594.757Zm.973-12.639A9.065,9.065,0,0,1,4.17,35.695l-.8.76a12.162,12.162,0,0,0-1.729-1.7ZM4.31,44.583A12.493,12.493,0,0,1,3.593,45.7a19.164,19.164,0,0,1,2.27.793,6.657,6.657,0,0,0,1.171-1.913Zm1.967-8.925a9.505,9.505,0,0,0,1.661-1.874l.757.721c.108.108.2.18.2.27,0,.162-.234.18-.342.2A9.537,9.537,0,0,1,7.124,36.4ZM16.2,49.689a8.806,8.806,0,0,1-3.48-2.814,10.586,10.586,0,0,1-3.282,3.156l-1.225-.847a10.483,10.483,0,0,0,3.8-3.48,17.1,17.1,0,0,1-1.553-6.237l1.171-.2a19.1,19.1,0,0,0,1.084,5.03,18.632,18.632,0,0,0,.994-5.822H10.785A14.907,14.907,0,0,1,9.02,41.665l-1.081-.757a18.691,18.691,0,0,0,3.081-7.231l1.337.522c.144.072.288.18.288.324s-.162.18-.5.288c-.144.378-.739,2.093-.883,2.436h5.12v1.225H14.986c-.288,3.246-.519,4.979-1.6,7.231a7.777,7.777,0,0,0,3.661,2.868Z" transform="translate(0.341 87.66)" fill="#1a1311"/><path d="M13.89,45.4v2.778c0,1.423-.414,1.946-2.724,1.928L10.5,48.66c.576.04.919.04,1.135.04.468,0,.847-.018.847-.616V45.4H5.16V44.225h7.321V42.6l1.121.09a17.576,17.576,0,0,0,2.018-1.459h-7V40.114h9.072l.414.793c-1.928,1.445-3.535,2.49-4.219,2.926v.393h7.462V45.4Zm5.8-4.2V38.565H6.8v2.72H5.484V37.43H21.013V41.2Zm-10.6-4.043a11.647,11.647,0,0,0-1.967-2.108l.937-.814a10.373,10.373,0,0,1,2.018,2.111Zm4.039-.324a10.5,10.5,0,0,0-1.931-2.6l1.066-.627a10.749,10.749,0,0,1,1.964,2.5Zm5.552-1.783a13.208,13.208,0,0,1-1.841,2.072l-.937-.793a10.211,10.211,0,0,0,2.165-2.72l1.081.991c.09.108.144.18.144.252,0,.2-.288.2-.613.2" transform="translate(13.431 87.478)" fill="#1a1311"/><path d="M24.751,44.793c-.328-.811-.522-1.229-.7-1.589-1.441.054-4.958.216-5.3.216V50H17.376V43.474c-3.084.126-4.2.18-6.24.2-.086.162-.231.45-.468.45-.144,0-.18-.13-.213-.382l-.22-1.387c.49.036,1.066.072,2.486.072.778,0,2.111-.018,2.637-.036.2-.162,1.045-.919,1.225-1.081a23.58,23.58,0,0,0-3.571-2.67l.793-1.081c.018.018,1.247.829,1.265.829a18.692,18.692,0,0,0,2.36-2.562c-2.486.126-3.769.162-5.448.126L11.37,34.6c.67.036,1.679.09,3.318.09,4.958,0,7.033-.5,8.69-1.027l1.084,1.189c.09.108.112.162.112.216a.2.2,0,0,1-.2.2,2.392,2.392,0,0,1-.7-.216,34.416,34.416,0,0,1-4.363.631c-1.063,1.175-2.2,2.436-3.25,3.408.364.288.976.775,1.611,1.333a37.525,37.525,0,0,0,3.369-3.48l1.171,1.03c.076.072.162.144.162.234,0,.144-.18.18-.306.18a3.492,3.492,0,0,1-.375-.018c-.706.613-3.772,3.426-4.4,3.985,2.054-.036,4.133-.09,6.186-.234a10.149,10.149,0,0,0-1.207-1.661l1.081-.739a16.2,16.2,0,0,1,2.58,4.453ZM15.5,45.73a19.954,19.954,0,0,1-4.1,3.39l-.969-1.048a13.531,13.531,0,0,0,4.45-3.751l1.084.994c.126.126.162.18.162.252,0,.216-.45.18-.631.162m9,3.589a21.583,21.583,0,0,0-4.309-3.751l.847-.937A19.023,19.023,0,0,1,25.4,48.183Z" transform="translate(26.641 87.634)" fill="#1a1311"/></g></g></svg>