<svg xmlns="http://www.w3.org/2000/svg" xmlns:xlink="http://www.w3.org/1999/xlink" width="1200" height="281.093" viewBox="0 0 1200 281.093"><defs><clipPath id="a"><rect width="1200" height="281.093" fill="none"/></clipPath></defs><g transform="translate(0 0)"><rect width="179.683" height="276.205" transform="translate(0 4.061)" fill="#d7ecea"/><rect width="28.034" height="2.568" transform="translate(21.953 112.141)" fill="#00857b"/><g transform="translate(0 0)"><g clip-path="url(#a)"><path d="M20.3,45.619c0,4.082,3.354,4.411,9.176,4.411,4.872,0,9.773-.23,14.641-.461l-.955,2.564H31.19c-6.119,0-8.094-.329-9.872-1.247a4.608,4.608,0,0,1-2.14-2.107,34.354,34.354,0,0,1-3.419,2.634c-.033.263-.1.856-.494.856-.267,0-.4-.23-.527-.494l-1.115-2.041c1.642-.823,2.827-1.481,4.374-2.4V38.747H13.883v-2.14H20.3ZM16.879,24.633a51.045,51.045,0,0,1,4.012,6.411l-2.136,1.288a52.621,52.621,0,0,0-3.946-6.518Zm9.74,1.708c.062,3.127.062,3.753.062,4.806,0,10.46-.951,12.863-3.222,17.04l-2.041-1.28c2.7-4.181,3.094-7.9,3.094-14.542,0-3.884-.165-6.514-.3-8.094h17.34V44.833c0,3.189-.136,3.584-4.806,3.687l-.852-2.4a18.525,18.525,0,0,0,2,.132c1.416,0,1.416-.362,1.416-1.712v-18.2Zm5.226.856,2.341.132c.391.033.494.132.494.3,0,.263-.165.362-.593.56v1.675h3.584v1.909H34.087v2.469h4.6v1.909H27.273V34.237h4.572V31.768H28.261V29.859h3.584ZM28.425,38.187h9.081v6.678H30.5v1.35H28.425Zm7.045,1.876H30.5v2.926H35.47Z" transform="translate(42.437 75.602)" fill="#00857b"/><path d="M34.8,24.239V34.6H24.77V52.994h-2.3V24.239ZM32.5,26.21H24.77v2.271H32.5Zm0,4.078H24.77v2.37H32.5Zm-.527,19.743H29.737V37.695h12.7V48.319H31.975ZM40.131,39.67H31.975v2.238h8.156Zm0,4.209H31.975v2.469h8.156Zm3.851,6.547c.564.033,1.082.1,1.745.1,1.218,0,1.679-.23,1.679-1.049V34.6H37.271V24.239H49.706v24.9c0,3.09-.259,3.617-4.539,3.753ZM47.406,26.21h-7.9v2.271h7.9Zm0,4.078h-7.9v2.37h7.9Z" transform="translate(69.978 75.503)" fill="#00857b"/><path d="M46.027,47.082a15.648,15.648,0,0,0,5.032-2.531,10.82,10.82,0,0,0,3.88-8.2,9.618,9.618,0,0,0-5.2-8.518,11.625,11.625,0,0,0-4.51-.889,41.659,41.659,0,0,1-3.81,14.41c-1.383,2.926-3.16,5.79-5.107,5.79-2.761,0-5.625-4.242-5.625-9.016A13.548,13.548,0,0,1,44.612,24.71c6.909,0,12.793,4.345,12.793,11.645,0,8.95-7.958,12.143-9.933,12.933ZM35.2,31.619a10.82,10.82,0,0,0-2.271,6.448c0,3.522,2.008,6.185,3.325,6.185.691,0,1.477,0,3.617-5.263A38.674,38.674,0,0,0,42.7,27.014a10.729,10.729,0,0,0-7.5,4.6" transform="translate(95.598 76.97)" fill="#00857b"/><path d="M19.189,43.3V36l2.564.3c.2.033.856.095.856.461,0,.263-.3.428-.856.757V43.3H32.447v2.3H21.753v6.843h9.571v2.333H21.753v7.637H34.846v2.3H5.466v-2.3H19.189V54.782h-9.18V52.449h9.18V45.606H10.865A20.068,20.068,0,0,1,7.343,51.1L5.207,49.816a26.906,26.906,0,0,0,5.658-12.336l2.629.691c.23.066.724.2.724.56,0,.391-.621.556-1.152.691A33.969,33.969,0,0,1,11.82,43.3Z" transform="translate(16.219 112.13)" fill="#00857b"/><path d="M18.581,50.84a40.542,40.542,0,0,0-4.868-3L15.1,45.672A30.979,30.979,0,0,1,19.9,48.7Zm-.226,13.653a3.164,3.164,0,0,1,.263.823.289.289,0,0,1-.3.263,1.837,1.837,0,0,1-.753-.263l-2.3-1.284a58.248,58.248,0,0,0,5.629-12.665l1.9,1.778c-1.378,3.847-2.893,7.6-4.436,11.349m2.234-22.9a33.053,33.053,0,0,0-4.67-3.094L17.3,36.463a22.7,22.7,0,0,1,4.637,3.222ZM34.18,47.252v5.822h7.2V65.448H38.912V63.44H27.206v2.07H24.8V53.075h6.81V47.252H22.4V44.915h9.213V39.882c-3.522.329-5.333.4-7.139.428l-1.02-2.4c.753.066,1.514.1,2.761.1a56.2,56.2,0,0,0,9.711-.926A37.007,37.007,0,0,0,40.167,36l1.51,1.745a.937.937,0,0,1,.267.527c0,.23-.136.329-.362.329a1.824,1.824,0,0,1-.794-.226,62.931,62.931,0,0,1-6.608,1.181v5.362h9.341v2.337Zm4.732,7.863H27.2V61.3H38.912Z" transform="translate(42.714 112.13)" fill="#00857b"/><path d="M22.505,38.93h8.719V60.446h-2.3v-2.14H24.813v4.115H22.505ZM28.924,41H24.813V47.55h4.111Zm0,8.584H24.813v6.645h4.111ZM40.931,36.1l2.366.128c.235,0,.625.037.625.329,0,.165-.128.3-.588.593v3.255h5.724v2.21H43.334V46.5h7.7v2.136H32.87V46.5h8.061v-3.88H35.109v-2.21h5.823Zm-7.8,16.805H44.19V49.39l2.136.263c.527.066.757.1.757.362,0,.2-.066.23-.593.593v2.3h4.275v2.144H46.49v7.464c0,1.416-.329,2.21-1.576,2.436a33.041,33.041,0,0,1-3.555.132L40.4,62.422c1.152.128,1.876.165,2.206.165,1.58,0,1.58-.527,1.58-1.448V55.052H33.134Zm3.485,3.687A14.406,14.406,0,0,1,39.45,60.94l-1.971,1.218a15.042,15.042,0,0,0-2.732-4.378Z" transform="translate(70.1 112.457)" fill="#00857b"/><path d="M43.354,36.239V46.6H33.318V64.994h-2.3V36.239Zm-2.3,1.971H33.318v2.271H41.05Zm0,4.078H33.318v2.37H41.05Zm-.523,19.743H38.285V49.695h12.7V60.319H40.528ZM48.683,51.67H40.528v2.238h8.156Zm0,4.21H40.528v2.469h8.156Zm3.851,6.547c.556.033,1.082.1,1.741.1,1.214,0,1.679-.23,1.679-1.049V46.6H45.823V36.239H58.254v24.9c0,3.09-.259,3.617-4.539,3.753ZM55.954,38.21h-7.9v2.271h7.9Zm0,4.078h-7.9v2.37h7.9Z" transform="translate(96.604 112.881)" fill="#00857b"/><path d="M263.976,6.477a26.062,26.062,0,0,1-3.551,5.386,13.663,13.663,0,0,0,3.749,3.547l-1.358,1.555a15.461,15.461,0,0,1-3.428-3.284V26.043h-2.045V15.267a23.343,23.343,0,0,1-4.267,3.428l-1.267-1.642a29.145,29.145,0,0,0,9.308-9.6H252.73V5.5h4.781V.021l2.164.173c.346.029.547.058.547.259,0,.259-.259.374-.634.547V5.5h3.633Zm5.761,18.673c-2.251,0-2.625-.893-2.625-2.42V.251l2.165.23c.2.029.572.086.572.317s-.37.4-.634.49V21.867c0,1.354.407,1.411,1.527,1.411H273.1c2.025,0,2.284-1.008,2.629-3.889l2.185,1.037c-.6,3.14-1.292,4.724-3.831,4.724Z" transform="translate(784.343 0.067)" fill="#1a1311"/><path d="M265.915,8.24v4.724a26.086,26.086,0,0,0,2.708-1.872l.292,2.164c-.749.576-1.383,1.037-3,2.1v7.493c0,1.786-.173,2.852-2.362,2.852-.893,0-1.728-.086-2.276-.115l-.23-2.247a11.2,11.2,0,0,0,1.987.374c.774,0,.774-.461.774-1.123V16.569c-1.037.634-1.724,1.037-2.387,1.411-.119.461-.2.749-.465.749-.082,0-.23-.086-.37-.288l-1.358-1.959a28.781,28.781,0,0,0,4.58-2.251V8.24h-3.654V6.224h3.654V.056l2.14.346c.346.058.716.115.716.346,0,.259-.288.4-.749.6V6.224h3.23V8.24Zm13.056,10.431v7.234h-2.1V18.672h-6.831V16.713h6.831V13.454h-5.534V11.5h5.534V8.269h-5.534V6.311h5.534V3.052h-5.9V1.179h14.089V3.052h-6.082V6.311h5.851V8.269h-5.851V11.5h5.851v1.959h-5.851v3.259h6.687v1.959Z" transform="translate(807.455 0.176)" fill="#1a1311"/><path d="M272.581,5.155a2.58,2.58,0,1,1-2.592-2.592,2.6,2.6,0,0,1,2.592,2.592" transform="translate(832.975 7.985)" fill="#1a1311"/><path d="M270.431,4.9h9.312V6.767h-9.312ZM277.41,25.07v-1.3h-4.123v1.9h-1.93V16.338h8.011V25.07Zm-6-12.567h8.044v1.815h-8.044Zm.086-3.8h7.958v1.79H271.5ZM271.558.92h7.666V2.706h-7.666Zm5.851,17.233h-4.123v3.806h4.123Zm8.9-2.765c-.144,5.592-1,8.1-4.954,10.316l-1.5-1.642c4-2.1,4.382-3.773,4.411-9.769l2.362.259c.35.029.432.173.432.259,0,.259-.346.4-.749.576m7.263.115V12.878H282.426V15.5h-1.963v-4.5H295.54v4.5ZM288.94,4.636V7.175h5.419V8.989H281.821V7.175h5.016V4.636h-6.2V2.821h6.2V.056l2.247.259c.2.029.518.086.518.317,0,.173-.119.259-.662.518V2.821h6.97V4.636Zm4.378,20.55h-2.827c-1.959,0-2.16-.749-2.16-2.592V14.524l2.016.144c.436.029.638.058.638.259,0,.144-.436.432-.691.6v6.654c0,.983.288,1.127,1.3,1.127h1.5c1.152,0,1.383-.173,1.786-3.144l1.786.9c-.572,3.917-1.3,4.119-3.341,4.119" transform="translate(842.351 0.176)" fill="#1a1311"/><path d="M289.411,0l2.045.23c.144,0,.634.058.634.35,0,.226-.461.432-.6.486V2.107h8.793V5.131H303.5V6.773h-3.226v3h-8.793V11.1h8.645v1.44h-8.645v1.354h11.933v1.642H278V13.892h11.411V12.538h-8.357V11.1h8.357V9.769H281.2V8.242h8.213V6.773H277.943V5.131h11.468V3.691H281.14V2.107h8.271ZM299.53,26.084h-2.14V24.73h-13.34v1.354h-2.074V16.863H299.53Zm-2.14-7.724h-13.34v1.584h13.34Zm0,3.082h-13.34v1.642h13.34Zm.839-17.751h-6.744v1.44h6.744Zm0,3.082h-6.744V8.242h6.744Z" transform="translate(865.749 0.002)" fill="#1a1311"/><path d="M257.761,22.534c1.5-.922,1.815-1.095,2.708-1.728l.086,2.247c-.946.576-2.243,1.383-2.794,1.728v8.213c0,2.337-1.642,2.362-2.794,2.362-.576,0-1.1-.025-1.79-.086l-.6-2.156a22.877,22.877,0,0,0,2.308.226c.856,0,.856-.4.856-1.008V26.048c-.745.465-1.955,1.181-2.218,1.354-.144.576-.169.638-.37.638-.173,0-.321-.235-.375-.374l-1.008-2.049a31.5,31.5,0,0,0,3.971-1.959V17.518h-3.452V15.7h3.452V9.593l2.251.173c.4.029.6.206.6.317,0,.173-.23.346-.835.749V15.7h2.794v1.815h-2.794ZM276,20.287H263.325v3.658h-1.959v-5.39h16.6v5.1H276Zm-12.538,3h11.559l.691,1.037a16.256,16.256,0,0,1-4.2,6.168,20.263,20.263,0,0,0,6.831,2.391l-1.3,1.815a21.962,21.962,0,0,1-7.115-2.852,23.317,23.317,0,0,1-7.119,3.082l-1.3-1.724a18.97,18.97,0,0,0,6.827-2.625,15.905,15.905,0,0,1-3.053-4.44l1.732-.691a10.961,10.961,0,0,0,2.909,3.921,11.624,11.624,0,0,0,3.37-4.3h-9.83Zm-1.782-12.25c.778.058,1.905.173,3.457.173a27.922,27.922,0,0,0,9.974-1.671l1.555,1.444c.057.053.259.259.259.4,0,.173-.2.23-.317.23a3.22,3.22,0,0,1-.922-.144,46.188,46.188,0,0,1-13.2,1.444Zm1.56,2.481a15.847,15.847,0,0,1,2.852,3.168l-1.5,1.123a19.931,19.931,0,0,0-2.765-3Zm5.185-.2a11.35,11.35,0,0,1,2.564,3.37l-1.584.979a17.849,17.849,0,0,0-2.337-3.226Zm3.687,3.6a14.713,14.713,0,0,0,3.053-4.205l1.79,1.21c.115.086.317.23.317.4,0,.317-.379.288-.782.259a14.225,14.225,0,0,1-2.819,3.456Z" transform="translate(784.224 29.702)" fill="#1a1311"/><path d="M277.352,16.792l.514.374c.115.086.321.23.321.4,0,.288-.346.23-.609.2a6.731,6.731,0,0,1-.975,1.5h5.765V20.91H273.2v1.848h8.793v1.728H273.2v1.9h11.415v1.728h-9.452a18.255,18.255,0,0,0,8.818,4.642l-1.671,1.9a24.385,24.385,0,0,1-9.11-5.851V35.58h-2.074V28.864a30.49,30.49,0,0,1-9.3,6.168l-1.3-1.872a23.94,23.94,0,0,0,8.645-5.045h-9.279V26.387h11.238v-1.9h-9.25V22.758h9.25V20.91H261.44V19.269h5.765a7.6,7.6,0,0,0-1.3-1.843l.835-.634h-7.32V15.059h9.225V9.5l1.9.115c.346.029.572.173.572.317s-.226.346-.543.547v4.58h2.963V9.586l1.905.115c.4.029.547.173.547.259,0,.144-.23.346-.457.547v4.551h9.394v1.732ZM265.419,14.6a12.067,12.067,0,0,0-2.564-3.6l1.527-1.037a12.048,12.048,0,0,1,2.823,3.514Zm2.448,2.193a7.075,7.075,0,0,1,1.3,1.786l-1.148.691h7.46l-.835-.691a7.616,7.616,0,0,0,1.243-1.786Zm12.6-5.419a16.587,16.587,0,0,1-2.679,3.173l-1.354-1.358a19.955,19.955,0,0,0,3.024-3.456l1.354.864c.2.144.457.288.457.518,0,.317-.514.288-.8.259" transform="translate(808.066 29.593)" fill="#1a1311"/><path d="M260.645,34.873a15.824,15.824,0,0,1-2.1-1.963V45.218h-2.074V32.713a20.487,20.487,0,0,1-3.168,2.679l-1.584-1.411c3.658-2.51,6.073-5.218,7.287-7.81H252.7V24.384h3.773V19.253l2.247.288c.346.058.523.115.523.288,0,.259-.288.4-.7.576v3.979h2.333l.749.807a23.913,23.913,0,0,1-3.082,5.185,13.311,13.311,0,0,0,3.226,3Zm1.588-4.757a7.559,7.559,0,0,1-1.613,1.675l-1.037-.983a7.007,7.007,0,0,0,1.786-2.247l1.234.951c.091.058.346.23.346.374,0,.317-.572.259-.716.23m8.876-5.53v2.708h6.049V42.107c0,2.42,0,2.852-3.888,2.794l-.457-2.1c.547.058,1.609.115,1.7.115.724,0,.724-.2.724-1.095V38.7h-4.123v6.082h-1.963V38.7h-3.979v6.283h-1.955V27.293h5.934V24.586h-6.831V22.71h6.831V19.253l2.049.23c.346.029.576.086.576.317,0,.2-.284.346-.662.547V22.71h7.176v1.876Zm-1.963,4.522h-3.979v3h3.979Zm0,4.728h-3.979V36.98h3.979Zm6.086-4.728h-4.123v3h4.123Zm0,4.728h-4.123V36.98h4.123Zm.8-11.731a15.561,15.561,0,0,0-3.082-1.642l.753-1.5a14.266,14.266,0,0,1,3.164,1.584Z" transform="translate(784.056 59.075)" fill="#1a1311"/><path d="M265.52,28.8c.835.058,1.584.115,2.218.115.86,0,.86-.317.86-1.008V21.131h-9.106V19.259h11.122v9.02c0,1.93-.6,2.827-4.637,2.535Zm1.811-2.16c-1.988,1.3-3.168,2.074-5.588,3.543-.091.4-.177.778-.379.778a.427.427,0,0,1-.346-.259l-1.206-1.9a49.987,49.987,0,0,0,7.436-4.354Zm-6.078-4.584a17.357,17.357,0,0,1,3.975,1.123l-.691,1.872a13.545,13.545,0,0,0-3.888-1.123Zm19.224,10.176V44.014h-2.107V42.891H265.315v1.354h-2.045V32.229h6.4a24.5,24.5,0,0,0,2.448-3.288l1.843.979c.2.115.346.2.346.346,0,.259-.2.288-.839.4-.313.35-1.057,1.239-1.35,1.56Zm-2.107,1.815H265.315V36.55h13.056Zm0,4.378H265.315v2.592h13.056Zm-.173-9.481a12.288,12.288,0,0,0,2.16.23c1.066,0,1.239-.346,1.239-1.123V21.131h-9.625V19.259h11.641v9.193c0,1.066,0,2.592-2.794,2.592-.49,0-1.267-.058-1.992-.086Zm2.852-3.37c-1.7,1.383-3.46,2.708-5.214,4-.062.374-.148.979-.407.979-.144,0-.288-.2-.346-.288l-1.239-2.074a53.719,53.719,0,0,0,6.831-4.411ZM274.392,22.2a24.7,24.7,0,0,1,4.032,1.21l-.518,1.728a15.844,15.844,0,0,0-3.971-1.062Z" transform="translate(808.277 59.991)" fill="#1a1311"/><rect width="38.593" height="22.558" transform="translate(991.27 4.061)" fill="#9d4e55"/><rect width="38.593" height="22.558" transform="translate(991.27 41.095)" fill="#00857b"/><rect width="38.593" height="22.558" transform="translate(991.27 78.129)" fill="#70bbb6"/><rect width="158.027" height="21.216" transform="translate(703.527 210.659)" fill="#00857b"/><rect width="64.887" height="21.212" transform="translate(307.548 55.74)" fill="#9d4e55"/><rect width="64.887" height="21.216" transform="translate(307.548 94.423)" fill="#9d4e55"/><rect width="64.887" height="21.212" transform="translate(307.548 133.173)" fill="#9d4e55"/><rect width="64.887" height="21.212" transform="translate(307.548 172.762)" fill="#9d4e55"/><rect width="64.887" height="21.216" transform="translate(307.548 210.659)" fill="#9d4e55"/><rect width="64.887" height="21.212" transform="translate(307.548 249.829)" fill="#9d4e55"/><rect width="316.312" height="21.212" transform="translate(372.406 55.74)" fill="#00857b"/><rect width="316.312" height="21.216" transform="translate(372.406 94.423)" fill="#00857b"/><rect width="316.312" height="21.212" transform="translate(372.406 133.173)" fill="#00857b"/><rect width="316.312" height="21.212" transform="translate(372.406 172.762)" fill="#00857b"/><rect width="316.312" height="21.216" transform="translate(372.406 210.659)" fill="#00857b"/><rect width="316.312" height="21.212" transform="translate(372.406 249.829)" fill="#00857b"/><rect width="158.031" height="21.212" transform="translate(703.527 55.74)" fill="#00857b"/><rect width="158.031" height="21.216" transform="translate(703.527 94.423)" fill="#00857b"/><rect width="158.022" height="21.212" transform="translate(703.527 133.173)" fill="#00857b"/><rect width="237.052" height="21.212" transform="translate(703.527 172.762)" fill="#00857b"/><rect width="79.021" height="21.216" transform="translate(861.558 210.659)" fill="#70bbb6"/><rect width="79.021" height="21.216" transform="translate(861.558 133.169)" fill="#70bbb6"/><path d="M93.277,21.692c2.745-.1,3.045-.28,3.074-1.856V8.393c0-.938-.329-1.5-.938-1.654a15.232,15.232,0,0,0-2.675-.1V5.875c2.876-.1,3.946-.481,5.065-1.778h.584V19.836c.049,1.527.457,1.778,3.2,1.856v.839H93.277Z" transform="translate(288.865 12.764)" fill="#1a1311"/><path d="M97.624,6.2H100.8l.761-1.148,1.551,1.654a.684.684,0,0,1,.206.407c0,.1-.128.226-.3.28l-.457.128V22.447a.545.545,0,0,1-.411.584,2.438,2.438,0,0,1-.786.181c-.23,0-.383-.1-.383-.28V20.871H97.517v3.156a.538.538,0,0,1-.3.531,2.2,2.2,0,0,1-.914.255.365.365,0,0,1-.379-.329V5.206Zm3.354.609H97.517v6.382h3.461Zm0,6.991H97.517v6.432h3.461Zm1.885-2.008c2.337.1,3.28.128,4.419.128h1.173V8.132h-1.395c-1.095,0-1.658.025-3.156.078l-.333-.79c1.7.078,2.292.1,3.489.1h1.395V3.478l2.136.255c.383.049.588.23.588.51,0,.152-.132.3-.337.457l-.7.457V7.523h3.432L115.1,5.791l1.88,1.6c.222.177.276.28.276.407,0,.2-.152.329-.428.329h-6.687v3.79h4.444l1.6-1.831,1.86,1.6a.756.756,0,0,1,.3.506c0,.23-.152.329-.436.329H113.9v3.535h1.2l1.37-1.551,1.625,1.374a.7.7,0,0,1,.3.51c0,.177-.1.276-.3.276H113.9v7.732c0,.535-.206.839-.868,1.3a1.621,1.621,0,0,1-.914.407c-.3,0-.428-.152-.486-.531-.074-.638-.074-.638-.79-.844l-1.979-.506v-.56l2.288.1.407.025h.177c.329,0,.481-.2.481-.662v-6.46h-4.827c-1.173,0-2.033.029-4.148.1l-.28-.839c2.218.1,3.1.128,4.428.128h4.827V12.531h-4.934c-1.066,0-1.95.029-4.144.1Zm1.551,5.823a6.253,6.253,0,0,1,2.691,1.3,3.079,3.079,0,0,1,1.271,2.136A1.091,1.091,0,0,1,107.31,22.2c-.428,0-.638-.206-.761-.79a5.275,5.275,0,0,0-2.189-3.432Z" transform="translate(298.776 10.835)" fill="#1a1311"/><path d="M104.38,4.65h3.613l.658-.992,1.88,1.551a.62.62,0,0,1,.259.407c0,.206-.206.358-.51.358h-.667c-.909,1.753-.988,1.93-2.922,5.316,2.288,2.44,3.156,4.193,3.156,6.407a3.268,3.268,0,0,1-.992,2.794,2.846,2.846,0,0,1-1.679.741c-.383,0-.535-.206-.56-.662-.025-.613-.078-.687-.712-.839l-1.041-.226v-.411l1.041.029.634.025c1.276,0,1.7-.51,1.7-1.983a7.423,7.423,0,0,0-1.119-3.967,9.408,9.408,0,0,0-.988-1.374c-.177-.23-.177-.23-.329-.457.988-2.773,1.37-3.893,2.008-6.1h-3.843V25.2c0,.28-.609.609-1.09.609-.23,0-.461-.128-.461-.255V3.584Zm8.876,0h5.971l.868-.992L121.8,4.9a.624.624,0,0,1,.309.461c0,.177-.156.329-.486.432l-.432.152v8.567c0,.329-.56.634-1.222.634-.251,0-.407-.123-.407-.3V14.11h-3.613a15.079,15.079,0,0,0,1.885,4.4,36.79,36.79,0,0,0,4.3-4.041l1.453,1.271a.7.7,0,0,1,.251.481c0,.23-.251.383-.634.383h-.786c-1.909,1.041-2.522,1.374-4.349,2.263a14.164,14.164,0,0,0,6.205,4.679,7.1,7.1,0,0,0-2.033,1.728c-3.588-2.366-5.65-5.72-6.843-11.164h-2.44v8.316c2.057-.354,2.44-.432,4.958-1.016l.025.354c-2.8,1.173-4.045,1.679-6.864,2.7l-.3.786c-.082.177-.206.3-.358.3-.1,0-.181-.074-.284-.226l-1.551-2.292c1.4-.152,1.6-.177,2.827-.379v-19Zm6.3.613h-6.608V9h6.608Zm0,4.345h-6.608V13.5h6.608Z" transform="translate(319.026 11.166)" fill="#1a1311"/><path d="M86.17,14.212a4.491,4.491,0,0,1,1.51,3.4c0,2.815-2.2,4.79-5.333,4.79-3.086,0-5.23-1.827-5.23-4.444,0-2,1.107-3.428,3.724-4.786-2.584-1.852-3.329-2.839-3.329-4.539,0-2.518,2.1-4.395,4.88-4.395,2.74,0,4.691,1.728,4.691,4.168,0,1.654-.741,2.666-3.1,4.222a11.77,11.77,0,0,1,2.189,1.58m-4.654-.593c-1.934,1.407-2.6,2.44-2.6,4.094,0,2.3,1.432,3.9,3.477,3.9a3.394,3.394,0,0,0,3.555-3.382,3.228,3.228,0,0,0-1.177-2.518,14.7,14.7,0,0,0-2.7-1.753ZM84.7,10.953a4.154,4.154,0,0,0,.765-2.489c0-2.074-1.239-3.432-3.086-3.432a3.148,3.148,0,0,0-3.238,3.033c0,1.531.893,2.42,4.123,4.123A7.894,7.894,0,0,0,84.7,10.953" transform="translate(240.207 13.215)" fill="#1a1311"/><path d="M83.966,6.409a1.691,1.691,0,1,1-3.382,0,1.691,1.691,0,0,1,3.382,0m0,9.575a1.691,1.691,0,1,1-3.382,0,1.691,1.691,0,0,1,3.382,0" transform="translate(251.007 14.748)" fill="#1a1311"/><path d="M82.294,20.93A45.554,45.554,0,0,1,87.4,14.367c2.148-2.44,2.815-3.847,2.815-5.823,0-2.2-1.012-3.481-2.716-3.481a3.608,3.608,0,0,0-2.243.765,2,2,0,0,0-.646,1.136c0,.2.074.321.469.839a1.922,1.922,0,0,1,.568,1.309,1.338,1.338,0,0,1-1.333,1.378,1.785,1.785,0,0,1-1.58-1.922c0-2.321,2.37-4.345,5.086-4.345a4.416,4.416,0,0,1,4.683,4.419,4.938,4.938,0,0,1-.712,2.564c-.494.893-.494.893-2.662,3.012-3.061,2.913-4.172,4.168-5.407,6.168h5.135c1.749,0,2.169-.346,3.456-2.79l.737.247L91.7,22.14h-9.4Z" transform="translate(256.333 13.159)" fill="#1a1311"/><path d="M96.162,13.195A15.531,15.531,0,0,1,94.9,19.857a4.744,4.744,0,0,1-4.045,2.716,4.856,4.856,0,0,1-4.222-3.037,15.417,15.417,0,0,1-1.082-6.292c0-5.551,2.074-9.032,5.4-9.032,3.111,0,5.209,3.629,5.209,8.983m-8.44.222c0,5.7,1.012,8.341,3.205,8.341a2.2,2.2,0,0,0,1.979-1.16c.667-1.185,1.012-3.6,1.012-7.106C93.919,7.446,93.051,5,90.883,5c-2.1,0-3.16,2.839-3.16,8.415" transform="translate(266.487 13.122)" fill="#1a1311"/><path d="M59.3,14.8h8.32l.893-1.193,1.576,1.527a1.223,1.223,0,0,1,.4.662.518.518,0,0,1-.358.379l-.481.177V33.486c0,.535-.329.967-1.045,1.374a2.168,2.168,0,0,1-.913.28c-.3,0-.4-.123-.432-.506-.053-.432-.1-.584-.276-.638l-2.88-.913.053-.333,3.2.029c.387,0,.436-.053.461-.309V26.215h-8.8a12.806,12.806,0,0,1-.761,3.638,9.46,9.46,0,0,1-4.4,4.6,7.165,7.165,0,0,1-2.185.967.192.192,0,0,1-.2-.177c0-.1.1-.206.329-.329a12.09,12.09,0,0,0,4.5-4.781c.864-1.831,1.07-3.814,1.07-9.995,0-2.263-.029-3.662-.152-6.559Zm8.522,10.81V20.824H59.1v3c0,.613-.025.967-.053,1.782Zm0-10.2H59.1v4.806h8.719Z" transform="translate(160.334 42.295)" fill="#1a1311"/><path d="M60.132,15.816h2.621l.889-1.09,1.346,1.424a.723.723,0,0,1,.28.535.332.332,0,0,1-.329.3l-.383.078V32.041c0,.23-.1.358-.354.486a2.732,2.732,0,0,1-.942.3c-.152,0-.255-.1-.255-.3V30.465H60v2.773c0,.354-.588.712-1.2.712a.3.3,0,0,1-.329-.3v-19ZM63,16.429H60v6.432h3Zm0,7.045H60v6.382h3Zm6.131,1.218H72.95c.428-1.473.481-1.7.839-3.23l1.749.613a.483.483,0,0,1,.333.457.573.573,0,0,1-.333.481l-.609.309-1.012,1.37H77.5l1.07-1.3,1.522,1.2c.206.152.3.276.3.432a.309.309,0,0,1-.329.276H74.4v2.238h2.415l1.041-1.09,1.4.938c.206.128.3.255.3.407a.377.377,0,0,1-.407.358H74.4v2.44h2.415L77.855,29.5l1.4.918a.519.519,0,0,1,.329.457.365.365,0,0,1-.379.329H74.4v2.646h3.1L78.97,32.3l1.835,1.448a.5.5,0,0,1,.255.407.294.294,0,0,1-.3.3H69.234v.918c0,.3-.535.584-1.144.584-.177,0-.255-.078-.255-.23v-9.1c-1.346,1.7-2.465,2.823-2.745,2.823a.173.173,0,0,1-.177-.177c0-.128.025-.152.506-.765a26.811,26.811,0,0,0,3.432-7.222l1.905.918a.489.489,0,0,1,.309.407c0,.177-.156.3-.354.354L70,23.141ZM71.522,13.5l1.428,1.119a.7.7,0,0,1,.3.51.381.381,0,0,1-.23.354l-.535.255v5.823c0,.28-.687.638-1.218.638-.181,0-.255-.1-.255-.309v-1.65H66.387v-.609h4.629V17.7H66.337v-.613h4.679V15.08H69.205c-.732,0-1.395.025-3.1.078l-.3-.761c1.218.021,1.934.049,3.4.1h1.761ZM73,25.3H69.234v2.238H73Zm0,2.852H69.234v2.44H73ZM73,31.2H69.234v2.646H73Zm.56-16.706H77.88l.691-1.016,1.469,1.35a.7.7,0,0,1,.259.506.425.425,0,0,1-.358.383l-.407.049v5.571a.464.464,0,0,1-.354.481,4.618,4.618,0,0,1-.815.206c-.206,0-.3-.132-.3-.333V20.244H73.736v-.609h4.325V17.7h-4.4v-.613h4.4V15.1h-4.5Z" transform="translate(182.15 41.987)" fill="#1a1311"/><path d="M68.165,15.1H78.283l1.07-1.271,1.629,1.5a.964.964,0,0,1,.379.634.565.565,0,0,1-.379.461l-.407.152V32.745c0,.329-.687.634-1.448.634-.23,0-.383-.177-.383-.481V31.626H67.963v1.7a.682.682,0,0,1-.432.737,1.841,1.841,0,0,1-.868.23.47.47,0,0,1-.531-.535V13.9Zm10.579.609H67.963V23.03H78.744Zm0,7.933H67.963v7.374H78.744Z" transform="translate(205.991 43.065)" fill="#1a1311"/><path d="M63.162,24.82c-.025.634-.025,1.3-.025,1.473-.025,1.4-.053,2.444-.053,2.543-.029.407-.053.638-.181,2.621a17.565,17.565,0,0,0,1.856,4.016,29.51,29.51,0,0,0,5.572-8.95l2.16,1.5a.631.631,0,0,1,.284.486c0,.23-.132.354-.461.457l-.839.255a58.255,58.255,0,0,1-6.357,6.711c2.008,3,4.753,4.835,9.283,6.181a6.1,6.1,0,0,0-2.238,2.136A18.2,18.2,0,0,1,62.7,33.082a12.209,12.209,0,0,1-4.345,8.012,17.039,17.039,0,0,1-4.3,2.671,8.613,8.613,0,0,1-2.136.761c-.181,0-.3-.1-.3-.251,0-.132.1-.23.329-.358,3.613-1.7,5.8-3.535,7.349-6.1,1.477-2.518,2.086-5.518,2.086-10.4,0-1.144-.053-2.288-.181-4.448l2.547.28c.329.049.556.226.556.481a.611.611,0,0,1-.3.457ZM55.887,26.8a9.7,9.7,0,0,1,.687,3.736c0,2.621-1.193,4.654-2.745,4.654a.976.976,0,0,1-1.045-.889.941.941,0,0,1,.2-.609l1.148-1.271a6.852,6.852,0,0,0,1.3-4.2c0-.358,0-.638-.049-1.271Z" transform="translate(160.776 71.531)" fill="#1a1311"/><path d="M60.132,25.258h2.621l.889-1.09,1.346,1.424a.723.723,0,0,1,.28.535.332.332,0,0,1-.329.3l-.383.078V41.483c0,.23-.1.358-.354.486a2.732,2.732,0,0,1-.942.3c-.152,0-.255-.1-.255-.3V39.907H60V42.68c0,.354-.588.712-1.2.712a.3.3,0,0,1-.329-.3v-19ZM63,25.871H60V32.3h3Zm0,7.045H60V39.3h3Zm6.131,1.218H72.95c.428-1.473.481-1.7.839-3.23l1.749.613a.483.483,0,0,1,.333.457.573.573,0,0,1-.333.481l-.609.309-1.012,1.37H77.5l1.07-1.3,1.522,1.2c.206.152.3.276.3.432a.309.309,0,0,1-.329.276H74.4v2.238h2.415l1.041-1.09,1.4.938c.206.128.3.255.3.407a.377.377,0,0,1-.407.358H74.4v2.44h2.415l1.041-1.095,1.4.918a.519.519,0,0,1,.329.457.365.365,0,0,1-.379.329H74.4v2.646h3.1l1.469-1.551,1.835,1.448a.5.5,0,0,1,.255.407.294.294,0,0,1-.3.3H69.234v.918c0,.3-.535.584-1.144.584-.177,0-.255-.078-.255-.23v-9.1c-1.346,1.7-2.465,2.823-2.745,2.823a.173.173,0,0,1-.177-.177c0-.128.025-.152.506-.765a26.811,26.811,0,0,0,3.432-7.222l1.905.918a.489.489,0,0,1,.309.407c0,.177-.156.3-.354.354L70,32.583Zm2.387-11.188,1.428,1.119a.7.7,0,0,1,.3.51.381.381,0,0,1-.23.354l-.535.255v5.823c0,.28-.687.638-1.218.638-.181,0-.255-.1-.255-.309v-1.65H66.387v-.609h4.629V27.143H66.337V26.53h4.679V24.522H69.205c-.732,0-1.395.025-3.1.078l-.3-.761c1.218.021,1.934.049,3.4.1h1.761ZM73,34.743H69.234v2.238H73Zm0,2.852H69.234v2.44H73Zm0,3.049H69.234v2.646H73Zm.56-16.706H77.88l.691-1.016,1.469,1.35a.7.7,0,0,1,.259.506.425.425,0,0,1-.358.383l-.407.049V30.78a.464.464,0,0,1-.354.481,4.618,4.618,0,0,1-.815.206c-.206,0-.3-.132-.3-.333V29.686H73.736v-.609h4.325V27.143h-4.4V26.53h4.4V24.546h-4.5Z" transform="translate(182.15 71.397)" fill="#1a1311"/><path d="M68.165,24.539H78.283l1.07-1.271,1.629,1.5a.962.962,0,0,1,.379.638.566.566,0,0,1-.379.457l-.407.152V42.184c0,.333-.687.634-1.448.634-.23,0-.383-.173-.383-.481V41.065H67.963v1.7a.679.679,0,0,1-.432.737,1.794,1.794,0,0,1-.868.23.47.47,0,0,1-.531-.535V23.342Zm10.579.609H67.963v7.324H78.744Zm0,7.933H67.963v7.374H78.744Z" transform="translate(205.991 72.478)" fill="#1a1311"/><path d="M55.238,39.84c-.815,0-1.5.025-3.177.078l-.23-.79c.663.025,1.247.025,1.448.049,1.07.029,1.778.053,1.959.053h3.308l.835-1.119,1.654,1.856a.559.559,0,0,1,.152.383.4.4,0,0,1-.383.407l-.486.049a26,26,0,0,1-4.193,7.806A18.26,18.26,0,0,1,53,51.765a3.732,3.732,0,0,1-1.292.765.244.244,0,0,1-.21-.206c0-.1.255-.4.815-.913,3.049-3.205,4.658-6.205,6.234-11.571ZM59,52.275l2.514.025c.535-.049.613-.1.588-.506V32.314l2.111.23c.379.021.634.226.634.506a.762.762,0,0,1-.481.613l-.51.251V37.4a19.117,19.117,0,0,0,2.263,5.263l5.115-5.724,1.621,1.732a.434.434,0,0,1,.128.3.57.57,0,0,1-.658.51l-.078-.029-.506-.025L66.5,43.247a16.994,16.994,0,0,0,8.143,6.46,6.574,6.574,0,0,0-2.267,1.959,20.282,20.282,0,0,1-8.518-11.7V52.555a1.622,1.622,0,0,1-.712,1.374,1.928,1.928,0,0,1-1.144.56c-.284,0-.309-.078-.486-.893-.025-.074-.128-.152-.329-.226l-2.238-.662Z" transform="translate(160.408 100.655)" fill="#1a1311"/><path d="M60.132,34.7h2.621l.889-1.09,1.346,1.424a.723.723,0,0,1,.28.535.332.332,0,0,1-.329.3l-.383.078V50.925c0,.23-.1.358-.354.486a2.732,2.732,0,0,1-.942.3c-.152,0-.255-.1-.255-.3V49.349H60v2.773c0,.354-.588.712-1.2.712a.3.3,0,0,1-.329-.3v-19ZM63,35.313H60v6.432h3Zm0,7.045H60V48.74h3Zm6.131,1.218H72.95c.428-1.473.481-1.7.839-3.23l1.749.613a.483.483,0,0,1,.333.457.573.573,0,0,1-.333.481l-.609.309-1.012,1.37H77.5l1.07-1.3,1.522,1.2c.206.152.3.276.3.432a.309.309,0,0,1-.329.276H74.4v2.238h2.415l1.041-1.09,1.4.938c.206.128.3.255.3.407a.377.377,0,0,1-.407.358H74.4v2.44h2.415l1.041-1.095,1.4.918a.519.519,0,0,1,.329.457.365.365,0,0,1-.379.329H74.4v2.646h3.1L78.97,51.18l1.835,1.448a.5.5,0,0,1,.255.407.294.294,0,0,1-.3.3H69.234v.918c0,.3-.535.584-1.144.584-.177,0-.255-.078-.255-.23v-9.1c-1.346,1.7-2.465,2.823-2.745,2.823a.173.173,0,0,1-.177-.177c0-.128.025-.152.506-.765a26.811,26.811,0,0,0,3.432-7.222l1.905.918a.489.489,0,0,1,.309.407c0,.177-.156.3-.354.354L70,42.025Zm2.387-11.188,1.428,1.119a.7.7,0,0,1,.3.51.381.381,0,0,1-.23.354l-.535.255v5.823c0,.28-.687.638-1.218.638-.181,0-.255-.1-.255-.309v-1.65H66.387v-.609h4.629V36.585H66.337v-.613h4.679V33.964H69.205c-.732,0-1.395.025-3.1.078l-.3-.761c1.218.021,1.934.049,3.4.1h1.761ZM73,44.185H69.234v2.238H73Zm0,2.852H69.234v2.44H73Zm0,3.049H69.234v2.646H73Zm.56-16.706H77.88l.691-1.016,1.469,1.35a.7.7,0,0,1,.259.506.425.425,0,0,1-.358.383l-.407.049v5.572a.464.464,0,0,1-.354.481,4.617,4.617,0,0,1-.815.206c-.206,0-.3-.132-.3-.333V39.128H73.736v-.609h4.325V36.585h-4.4v-.613h4.4V33.988h-4.5Z" transform="translate(182.15 100.808)" fill="#1a1311"/><path d="M68.165,33.982H78.283l1.07-1.271,1.629,1.5a.964.964,0,0,1,.379.634.566.566,0,0,1-.379.457l-.407.152V51.63c0,.329-.687.634-1.448.634-.23,0-.383-.177-.383-.481V50.511H67.963v1.7a.682.682,0,0,1-.432.737,1.841,1.841,0,0,1-.868.23.47.47,0,0,1-.531-.535V32.784Zm10.579.609H67.963v7.324H78.744Zm0,7.933H67.963V49.9H78.744Z" transform="translate(205.991 101.889)" fill="#1a1311"/><path d="M57.29,48.941c-.276,0-1.095.025-2.288.053-.329.025-1.35.049-2.42.074l-.3-.864c3.078.074,3.436.1,5.012.128h4.884V41.695l2.234.152a.526.526,0,0,1,.51.432.613.613,0,0,1-.3.486l-.737.457v5.111h6.283l1.621-1.782,2.14,1.654a.478.478,0,0,1,.2.383c0,.226-.123.354-.3.354H63.927a19.562,19.562,0,0,0,11.135,10.3,5.418,5.418,0,0,0-2.234,1.983c-4.629-3.255-6.662-5.67-8.95-10.678V63.689a.519.519,0,0,1-.255.51,3.936,3.936,0,0,1-1.193.255c-.181,0-.255-.1-.255-.28V51.867a32.445,32.445,0,0,1-6.666,7.6,15.991,15.991,0,0,1-3.81,2.592.274.274,0,0,1-.255-.255c0-.152.3-.432,1.169-1.119a34.224,34.224,0,0,0,8.9-11.748Z" transform="translate(160.237 129.875)" fill="#1a1311"/><path d="M60.132,44.143h2.621l.889-1.09,1.346,1.424a.723.723,0,0,1,.28.535.332.332,0,0,1-.329.3l-.383.078V60.368c0,.23-.1.358-.354.486a2.732,2.732,0,0,1-.942.3c-.152,0-.255-.1-.255-.3V58.792H60v2.773c0,.354-.588.712-1.2.712a.3.3,0,0,1-.329-.3v-19ZM63,44.756H60v6.432h3ZM63,51.8H60v6.382h3Zm6.131,1.218H72.95c.428-1.473.481-1.7.839-3.23l1.749.613a.483.483,0,0,1,.333.457.573.573,0,0,1-.333.481l-.609.309-1.012,1.37H77.5l1.07-1.3,1.522,1.2c.206.152.3.276.3.432a.309.309,0,0,1-.329.276H74.4v2.238h2.415l1.041-1.09,1.4.938c.206.128.3.255.3.407a.377.377,0,0,1-.407.358H74.4v2.44h2.415l1.041-1.095,1.4.918a.519.519,0,0,1,.329.457.365.365,0,0,1-.379.329H74.4v2.646h3.1l1.469-1.551,1.835,1.448a.5.5,0,0,1,.255.407.294.294,0,0,1-.3.3H69.234V63.7c0,.3-.535.584-1.144.584-.177,0-.255-.078-.255-.23v-9.1c-1.346,1.7-2.465,2.823-2.745,2.823a.173.173,0,0,1-.177-.177c0-.128.025-.152.506-.765a26.811,26.811,0,0,0,3.432-7.222l1.905.918a.489.489,0,0,1,.309.407c0,.177-.156.3-.354.354L70,51.468Zm2.387-11.188L72.95,42.95a.7.7,0,0,1,.3.51.381.381,0,0,1-.23.354l-.535.255v5.823c0,.28-.687.638-1.218.638-.181,0-.255-.1-.255-.309v-1.65H66.387v-.609h4.629V46.028H66.337v-.613h4.679V43.407H69.205c-.732,0-1.395.025-3.1.078l-.3-.761c1.218.021,1.934.049,3.4.1h1.761ZM73,53.628H69.234v2.238H73Zm0,2.852H69.234v2.44H73Zm0,3.049H69.234v2.646H73Zm.56-16.706H77.88l.691-1.016,1.469,1.35a.7.7,0,0,1,.259.506.425.425,0,0,1-.358.383l-.407.049v5.571a.464.464,0,0,1-.354.481,4.617,4.617,0,0,1-.815.206c-.206,0-.3-.132-.3-.333V48.571H73.736v-.609h4.325V46.028h-4.4v-.613h4.4V43.431h-4.5Z" transform="translate(182.15 130.221)" fill="#1a1311"/><path d="M68.165,43.423H78.283l1.07-1.271,1.629,1.5a.964.964,0,0,1,.379.634.565.565,0,0,1-.379.461l-.407.152V61.072c0,.333-.687.634-1.448.634-.23,0-.383-.177-.383-.481V59.953H67.963v1.7a.682.682,0,0,1-.432.737,1.841,1.841,0,0,1-.868.23.47.47,0,0,1-.531-.535V42.23Zm10.579.609H67.963v7.324H78.744Zm0,7.938H67.963v7.374H78.744Z" transform="translate(205.991 131.299)" fill="#1a1311"/><path d="M64.048,51.995a.473.473,0,0,1,.3.407.342.342,0,0,1-.181.3l-.3.177c2.111,3.51,5.6,5.827,10.859,7.25-.23.152-.44.28-.481.3l-.687.383a4.936,4.936,0,0,0-1.074,1.144c-4.625-2.263-7.633-5.135-9.514-9.053a25.875,25.875,0,0,1-6.662,7.575,19.937,19.937,0,0,1-4.6,2.823.176.176,0,0,1-.177-.177c0-.177,0-.177.913-.839a27.931,27.931,0,0,0,9.234-11.188ZM61.884,65.4H56.489c-.959,0-1.794.025-4.065.1l-.255-.835c1.045.025,2.086.049,2.395.074.967.025,1.629.053,1.926.053h5.395V61.224H60.077c-1.066,0-1.576.029-3.049.078l-.276-.786,1.852.074c.638.025,1.169.025,1.5.025h5.139l1.346-1.6,1.909,1.5a.448.448,0,0,1,.2.379.334.334,0,0,1-.28.329H63.616v3.563h5.6l1.6-1.885,2.206,1.757a.618.618,0,0,1,.152.383.357.357,0,0,1-.3.354H63.616v6.966h2.062a41.361,41.361,0,0,0,2.543-6.1l1.95.992c.255.128.387.28.387.432a.62.62,0,0,1-.457.51l-.617.226-2.971,3.942H70.2l1.757-1.856,2.358,1.88a.383.383,0,0,1,.107.28c0,.152-.107.3-.2.3h-17.6c-.309,0-1.09.029-2.259.053-.333.025-1.329.049-2.341.078l-.362-.868,2.675.078c1.09.025,2.214.049,2.341.049h5.209Zm-6.732,1.119a6.373,6.373,0,0,1,2.411,1.321,3.6,3.6,0,0,1,1.276,2.494,1.244,1.244,0,0,1-1.1,1.374.87.87,0,0,1-.687-.333c-.107-.177-.107-.177-.432-1.905A4.574,4.574,0,0,0,54.9,66.821Z" transform="translate(160.524 159.189)" fill="#1a1311"/><path d="M60.132,53.585h2.621l.889-1.09,1.346,1.424a.723.723,0,0,1,.28.535.332.332,0,0,1-.329.3l-.383.078V69.81c0,.23-.1.358-.354.486a2.732,2.732,0,0,1-.942.3c-.152,0-.255-.1-.255-.3V68.234H60v2.773c0,.354-.588.712-1.2.712a.3.3,0,0,1-.329-.3v-19ZM63,54.2H60V60.63h3Zm0,7.045H60v6.382h3Zm6.131,1.218H72.95c.428-1.473.481-1.7.839-3.23l1.749.613a.483.483,0,0,1,.333.457.573.573,0,0,1-.333.481l-.609.309-1.012,1.37H77.5l1.07-1.3,1.522,1.2c.206.152.3.276.3.432a.309.309,0,0,1-.329.276H74.4v2.238h2.415l1.041-1.09,1.4.938c.206.128.3.255.3.407a.377.377,0,0,1-.407.358H74.4v2.44h2.415l1.041-1.095,1.4.918a.519.519,0,0,1,.329.457.365.365,0,0,1-.379.329H74.4v2.646h3.1l1.469-1.551,1.835,1.448a.5.5,0,0,1,.255.407.294.294,0,0,1-.3.3H69.234v.918c0,.3-.535.584-1.144.584-.177,0-.255-.078-.255-.23v-9.1c-1.346,1.7-2.465,2.823-2.745,2.823a.173.173,0,0,1-.177-.177c0-.128.025-.152.506-.765a26.811,26.811,0,0,0,3.432-7.222l1.905.918a.489.489,0,0,1,.309.407c0,.177-.156.3-.354.354L70,60.91Zm2.387-11.188,1.428,1.119a.7.7,0,0,1,.3.51.381.381,0,0,1-.23.354l-.535.255v5.823c0,.28-.687.638-1.218.638-.181,0-.255-.1-.255-.309v-1.65H66.387V57.4h4.629V55.47H66.337v-.613h4.679V52.849H69.205c-.732,0-1.395.025-3.1.078l-.3-.761c1.218.021,1.934.049,3.4.1h1.761ZM73,63.07H69.234v2.238H73Zm0,2.852H69.234v2.44H73Zm0,3.049H69.234v2.646H73Zm.56-16.706H77.88l.691-1.016L80.04,52.6a.7.7,0,0,1,.259.506.425.425,0,0,1-.358.383l-.407.049v5.572a.464.464,0,0,1-.354.481,4.618,4.618,0,0,1-.815.206c-.206,0-.3-.132-.3-.333V58.013H73.736V57.4h4.325V55.47h-4.4v-.613h4.4V52.873h-4.5Z" transform="translate(182.15 159.632)" fill="#1a1311"/><path d="M68.165,52.866H78.283l1.07-1.271,1.629,1.5a.971.971,0,0,1,.379.638.566.566,0,0,1-.379.457l-.407.152V70.511c0,.333-.687.638-1.448.638-.23,0-.383-.177-.383-.486V69.392H67.963v1.7a.684.684,0,0,1-.432.741,1.835,1.835,0,0,1-.868.226.47.47,0,0,1-.531-.535V51.669Zm10.579.609H67.963V60.8H78.744Zm0,7.933H67.963v7.374H78.744Z" transform="translate(205.991 160.712)" fill="#1a1311"/><path d="M61.756,69.986H57.868c-.889,0-1.7.025-4.144.1l-.255-.839c2.773.1,3.51.128,4.4.128h3.889v-8.7l2.292.255c.407.025.609.206.609.535,0,.2-.1.3-.506.584l-.539.329v7h5.316l1.58-1.909L72.615,69.3a.45.45,0,0,1,.181.354.3.3,0,0,1-.309.333H63.612V81.38H70.1L71.755,79.6l2.107,1.728a.534.534,0,0,1,.177.358.286.286,0,0,1-.276.3H56.547c-1.959,0-2.592.025-4.757.128l-.255-.893c2.288.128,2.926.156,5.012.156h5.209Z" transform="translate(160.524 189.005)" fill="#1a1311"/><path d="M60.132,63.027h2.621l.889-1.09,1.346,1.424a.723.723,0,0,1,.28.535.332.332,0,0,1-.329.3l-.383.078V79.252c0,.23-.1.358-.354.486a2.732,2.732,0,0,1-.942.3c-.152,0-.255-.1-.255-.3V77.676H60v2.773c0,.354-.588.712-1.2.712a.3.3,0,0,1-.329-.3v-19ZM63,63.64H60v6.432h3Zm0,7.045H60v6.382h3ZM69.135,71.9H72.95c.428-1.473.481-1.7.839-3.23l1.749.613a.483.483,0,0,1,.333.457.573.573,0,0,1-.333.481l-.609.309L73.917,71.9H77.5l1.07-1.3,1.522,1.2c.206.152.3.276.3.432a.309.309,0,0,1-.329.276H74.4V74.75h2.415l1.041-1.09,1.4.938c.206.128.3.255.3.407a.377.377,0,0,1-.407.358H74.4V77.8h2.415l1.041-1.095,1.4.918a.519.519,0,0,1,.329.457.365.365,0,0,1-.379.329H74.4v2.646h3.1l1.469-1.551,1.835,1.448a.5.5,0,0,1,.255.407.294.294,0,0,1-.3.3H69.234v.918c0,.3-.535.584-1.144.584-.177,0-.255-.078-.255-.23v-9.1c-1.346,1.7-2.465,2.823-2.745,2.823a.173.173,0,0,1-.177-.177c0-.128.025-.152.506-.765A26.811,26.811,0,0,0,68.852,68.5l1.905.918a.489.489,0,0,1,.309.407c0,.177-.156.3-.354.354L70,70.352Zm2.387-11.188,1.428,1.119a.7.7,0,0,1,.3.51.381.381,0,0,1-.23.354l-.535.255v5.822c0,.28-.687.638-1.218.638-.181,0-.255-.1-.255-.309v-1.65H66.387v-.609h4.629V64.912H66.337V64.3h4.679V62.291H69.205c-.732,0-1.395.025-3.1.078l-.3-.761c1.218.021,1.934.049,3.4.1h1.761ZM73,72.512H69.234V74.75H73Zm0,2.852H69.234V77.8H73Zm0,3.049H69.234v2.646H73Zm.56-16.706H77.88l.691-1.016,1.469,1.35a.7.7,0,0,1,.259.506.425.425,0,0,1-.358.383l-.407.049v5.571a.464.464,0,0,1-.354.481,4.618,4.618,0,0,1-.815.206c-.206,0-.3-.132-.3-.333V67.455H73.736v-.609h4.325V64.912h-4.4V64.3h4.4V62.315h-4.5Z" transform="translate(182.15 189.042)" fill="#1a1311"/><path d="M68.165,62.309H78.283l1.07-1.271,1.629,1.5a.964.964,0,0,1,.379.634.555.555,0,0,1-.379.457l-.407.156V79.957c0,.329-.687.634-1.448.634-.23,0-.383-.177-.383-.481V78.838H67.963v1.7a.682.682,0,0,1-.432.737,1.841,1.841,0,0,1-.868.23.47.47,0,0,1-.531-.535V61.115Zm10.579.609H67.963v7.324H78.744Zm0,7.933H67.963v7.374H78.744Z" transform="translate(205.991 190.123)" fill="#1a1311"/><line x2="740.199" transform="translate(200.384 47.131)" fill="none" stroke="#1a1311" stroke-width="0.567"/><line x2="740.199" transform="translate(200.384 5.373)" fill="none" stroke="#1a1311" stroke-width="0.567"/><line x2="740.199" transform="translate(200.384 85.93)" fill="none" stroke="#1a1311" stroke-width="0.283"/><line x2="740.199" transform="translate(200.384 124.73)" fill="none" stroke="#1a1311" stroke-width="0.283"/><line x2="740.199" transform="translate(200.384 163.529)" fill="none" stroke="#1a1311" stroke-width="0.283"/><line x2="740.199" transform="translate(200.384 202.329)" fill="none" stroke="#1a1311" stroke-width="0.283"/><line x2="740.199" transform="translate(200.384 241.127)" fill="none" stroke="#1a1311" stroke-width="0.283"/><line x2="740.199" transform="translate(200.384 279.927)" fill="none" stroke="#1a1311" stroke-width="0.567"/><line y2="274.888" transform="translate(372.432 5.377)" fill="none" stroke="#1a1311" stroke-width="0.283"/><line y2="274.888" transform="translate(451.45 5.377)" fill="none" stroke="#1a1311" stroke-width="0.283"/><line y2="274.888" transform="translate(530.483 5.377)" fill="none" stroke="#1a1311" stroke-width="0.283"/><line y2="274.888" transform="translate(609.518 5.377)" fill="none" stroke="#1a1311" stroke-width="0.283"/><line y2="274.888" transform="translate(703.488 5.377)" fill="none" stroke="#1a1311" stroke-width="0.283"/><line y2="274.888" transform="translate(688.551 5.377)" fill="none" stroke="#1a1311" stroke-width="0.283"/><line y2="274.888" transform="translate(307.546 5.377)" fill="none" stroke="#1a1311" stroke-width="0.283"/><path d="M111.89,21.307a46.622,46.622,0,0,1,5.263-6.765c2.214-2.518,2.9-3.967,2.9-6,0-2.259-1.045-3.584-2.794-3.584a3.756,3.756,0,0,0-2.317.79,2.051,2.051,0,0,0-.658,1.169c0,.206.074.333.481.864a1.969,1.969,0,0,1,.584,1.35,1.382,1.382,0,0,1-1.37,1.424,1.844,1.844,0,0,1-1.634-1.983c0-2.391,2.444-4.477,5.242-4.477a4.557,4.557,0,0,1,4.831,4.551,5.125,5.125,0,0,1-.737,2.646c-.51.918-.51.918-2.745,3.1-3.16,3-4.3,4.3-5.571,6.357h5.292c1.8,0,2.234-.358,3.559-2.872l.761.255-1.4,4.423h-9.69Z" transform="translate(348.52 12.742)" fill="#1a1311"/><path d="M117.415,6.2h3.177l.761-1.148L122.9,6.708a.684.684,0,0,1,.206.407c0,.1-.128.226-.3.28l-.457.128V22.447a.545.545,0,0,1-.411.584,2.438,2.438,0,0,1-.786.181c-.23,0-.383-.1-.383-.28V20.871h-3.461v3.156a.538.538,0,0,1-.3.531,2.2,2.2,0,0,1-.913.255.365.365,0,0,1-.379-.329V5.206Zm3.354.609h-3.461v6.382h3.461Zm0,6.991h-3.461v6.432h3.461Zm1.885-2.008c2.337.1,3.28.128,4.419.128h1.173V8.132H126.85c-1.095,0-1.658.025-3.156.078l-.333-.79c1.7.078,2.292.1,3.489.1h1.395V3.478l2.136.255c.383.049.588.23.588.51,0,.152-.132.3-.337.457l-.7.457V7.523h3.432l1.527-1.732,1.88,1.6c.222.177.276.28.276.407,0,.2-.152.329-.428.329h-6.687v3.79h4.444l1.6-1.831,1.86,1.6a.756.756,0,0,1,.3.506c0,.23-.152.329-.436.329h-4.016v3.535h1.2l1.37-1.551,1.625,1.374a.7.7,0,0,1,.3.51c0,.177-.1.276-.3.276h-4.193v7.732c0,.535-.206.839-.868,1.3a1.621,1.621,0,0,1-.913.407c-.3,0-.428-.152-.486-.531-.074-.638-.074-.638-.79-.844l-1.979-.506v-.56l2.288.1.407.025h.177c.329,0,.481-.2.481-.662v-6.46h-4.827c-1.173,0-2.033.029-4.148.1l-.28-.839c2.218.1,3.1.128,4.428.128h4.827V12.531h-4.934c-1.066,0-1.95.029-4.144.1Zm1.551,5.823a6.253,6.253,0,0,1,2.691,1.3,3.079,3.079,0,0,1,1.271,2.136A1.091,1.091,0,0,1,127.1,22.2c-.428,0-.638-.206-.761-.79a5.275,5.275,0,0,0-2.189-3.432Z" transform="translate(360.422 10.835)" fill="#1a1311"/><path d="M124.175,4.65h3.609l.658-.992,1.885,1.551a.612.612,0,0,1,.255.407c0,.206-.2.358-.506.358h-.667c-.909,1.753-.992,1.93-2.922,5.316,2.288,2.44,3.152,4.193,3.152,6.407a3.278,3.278,0,0,1-.988,2.794,2.867,2.867,0,0,1-1.679.741c-.383,0-.535-.206-.564-.662-.025-.613-.074-.687-.708-.839l-1.045-.226v-.411l1.045.029.634.025c1.272,0,1.7-.51,1.7-1.983a7.423,7.423,0,0,0-1.119-3.967,9.284,9.284,0,0,0-.992-1.374c-.177-.23-.177-.23-.329-.457.992-2.773,1.374-3.893,2.008-6.1h-3.843V25.2c0,.28-.609.609-1.09.609-.226,0-.461-.128-.461-.255V3.584Zm8.872,0h5.975l.864-.992,1.7,1.247a.613.613,0,0,1,.309.461c0,.177-.156.329-.486.432l-.432.152v8.567c0,.329-.556.634-1.222.634-.247,0-.4-.123-.4-.3V14.11h-3.613a15.081,15.081,0,0,0,1.885,4.4,36.441,36.441,0,0,0,4.292-4.041l1.457,1.271a.7.7,0,0,1,.251.481c0,.23-.251.383-.638.383H142.2c-1.905,1.041-2.518,1.374-4.349,2.263a14.211,14.211,0,0,0,6.205,4.679,7.154,7.154,0,0,0-2.033,1.728c-3.584-2.366-5.646-5.72-6.839-11.164h-2.444v8.316c2.062-.354,2.444-.432,4.958-1.016l.025.354c-2.8,1.173-4.045,1.679-6.864,2.7l-.3.786c-.078.177-.2.3-.354.3-.107,0-.181-.074-.284-.226l-1.551-2.292c1.4-.152,1.6-.177,2.823-.379v-19Zm6.308.613h-6.613V9h6.613Zm0,4.345h-6.613V13.5h6.613Z" transform="translate(380.671 11.166)" fill="#1a1311"/><path d="M134.586,12.493c.564.025.634.025.815.025,2.568,0,3.555-1.041,3.555-3.79,0-2.465-.938-3.786-2.716-3.786-1.222,0-2.243.786-2.243,1.7a2.1,2.1,0,0,0,.181.662,2.358,2.358,0,0,1,.181.835,1.287,1.287,0,0,1-1.271,1.325c-.839,0-1.4-.662-1.4-1.654,0-2.008,2.214-3.712,4.86-3.712a4.374,4.374,0,0,1,4.625,4.374,4.622,4.622,0,0,1-1.37,3.3,5.438,5.438,0,0,1-2.243,1.2,4.956,4.956,0,0,1,3.127,1.675,4.518,4.518,0,0,1,1.016,2.926,5.308,5.308,0,0,1-5.617,5.238c-2.6,0-4.934-1.7-4.934-3.609a1.623,1.623,0,0,1,1.551-1.732,1.225,1.225,0,0,1,1.271,1.35,3.285,3.285,0,0,1-.333,1.247,1.81,1.81,0,0,0-.045.329c0,.815,1.165,1.576,2.465,1.576,2.107,0,3.28-1.551,3.28-4.4s-1.243-4.271-3.765-4.271c-.206,0-.383,0-.992.025Z" transform="translate(408.524 12.782)" fill="#1a1311"/><path d="M136.581,6.2h3.181l.761-1.148,1.551,1.654a.675.675,0,0,1,.2.407c0,.1-.128.226-.3.28l-.457.128V22.447a.546.546,0,0,1-.407.584,2.437,2.437,0,0,1-.79.181c-.226,0-.379-.1-.379-.28V20.871h-3.461v3.156a.538.538,0,0,1-.3.531,2.215,2.215,0,0,1-.914.255.366.366,0,0,1-.383-.329V5.206Zm3.358.609h-3.461v6.382h3.461Zm0,6.991h-3.461v6.432h3.461Zm1.88-2.008c2.337.1,3.28.128,4.424.128h1.169V8.132h-1.395c-1.095,0-1.654.025-3.152.078l-.333-.79c1.7.078,2.288.1,3.485.1h1.395V3.478l2.14.255c.379.049.584.23.584.51,0,.152-.128.3-.333.457l-.708.457V7.523h3.432l1.527-1.732,1.88,1.6c.226.177.28.28.28.407,0,.2-.152.329-.432.329h-6.687v3.79h4.448l1.6-1.831L157,11.7a.756.756,0,0,1,.3.506c0,.23-.152.329-.436.329h-4.016v3.535h1.2l1.374-1.551,1.621,1.374a.682.682,0,0,1,.3.51c0,.177-.1.276-.3.276h-4.193v7.732c0,.535-.2.839-.864,1.3a1.632,1.632,0,0,1-.914.407c-.3,0-.432-.152-.486-.531-.078-.638-.078-.638-.79-.844l-1.979-.506v-.56l2.288.1.4.025h.177c.329,0,.481-.2.481-.662v-6.46h-4.827c-1.169,0-2.033.029-4.144.1l-.28-.839c2.214.1,3.1.128,4.423.128h4.827V12.531h-4.93c-1.066,0-1.955.029-4.144.1Zm1.551,5.823a6.271,6.271,0,0,1,2.7,1.3,3.079,3.079,0,0,1,1.271,2.136,1.094,1.094,0,0,1-1.066,1.148c-.432,0-.638-.206-.761-.79a5.275,5.275,0,0,0-2.189-3.432Z" transform="translate(420.121 10.835)" fill="#1a1311"/><path d="M143.338,4.65h3.609l.663-.992,1.885,1.551a.612.612,0,0,1,.255.407c0,.206-.206.358-.51.358h-.662c-.913,1.753-.992,1.93-2.926,5.316,2.292,2.44,3.152,4.193,3.152,6.407a3.266,3.266,0,0,1-.988,2.794,2.856,2.856,0,0,1-1.679.741c-.379,0-.531-.206-.56-.662-.029-.613-.078-.687-.712-.839l-1.045-.226v-.411l1.045.029.634.025c1.271,0,1.7-.51,1.7-1.983a7.418,7.418,0,0,0-1.115-3.967,9.17,9.17,0,0,0-1-1.374c-.177-.23-.177-.23-.329-.457,1-2.773,1.374-3.893,2.008-6.1H142.93V25.2c0,.28-.609.609-1.095.609-.226,0-.457-.128-.457-.255V3.584Zm8.872,0h5.979l.864-.992,1.7,1.247a.612.612,0,0,1,.309.461c0,.177-.156.329-.49.432l-.428.152v8.567c0,.329-.56.634-1.222.634-.251,0-.407-.123-.407-.3V14.11h-3.609a15.2,15.2,0,0,0,1.88,4.4,36.461,36.461,0,0,0,4.3-4.041l1.453,1.271a.7.7,0,0,1,.251.481c0,.23-.251.383-.634.383h-.79c-1.905,1.041-2.518,1.374-4.349,2.263a14.257,14.257,0,0,0,6.205,4.679,7.217,7.217,0,0,0-2.033,1.728c-3.584-2.366-5.641-5.72-6.839-11.164H151.9v8.316c2.062-.354,2.444-.432,4.958-1.016l.029.354c-2.8,1.173-4.045,1.679-6.868,2.7l-.3.786a.425.425,0,0,1-.354.3c-.107,0-.177-.074-.284-.226l-1.551-2.292c1.4-.152,1.6-.177,2.823-.379v-19Zm6.308.613H151.9V9h6.613Zm0,4.345H151.9V13.5h6.613Z" transform="translate(440.374 11.166)" fill="#1a1311"/><path d="M158.4,4.1h.732V17.268h2.37v.815h-2.37v1.806c-.021,1.473.333,1.778,2.111,1.778v.864H154.2v-.864l.3-.025h.531c1.757-.049,2.14-.383,2.115-1.7V18.082h-7.172v-.613Zm-1.247,13.172V7.5l-6.259,9.765Z" transform="translate(467.161 12.76)" fill="#1a1311"/><path d="M155.565,6.2h3.181l.761-1.148,1.551,1.654a.675.675,0,0,1,.2.407c0,.1-.128.226-.3.28l-.457.128V22.447a.546.546,0,0,1-.407.584,2.436,2.436,0,0,1-.79.181c-.226,0-.379-.1-.379-.28V20.871h-3.461v3.156a.538.538,0,0,1-.3.531,2.215,2.215,0,0,1-.913.255.366.366,0,0,1-.383-.329V5.206Zm3.358.609h-3.461v6.382h3.461Zm0,6.991h-3.461v6.432h3.461Zm1.88-2.008c2.337.1,3.28.128,4.423.128h1.169V8.132H165c-1.094,0-1.654.025-3.152.078l-.333-.79c1.7.078,2.288.1,3.485.1h1.395V3.478l2.14.255c.379.049.584.23.584.51,0,.152-.128.3-.333.457l-.708.457V7.523h3.432l1.527-1.732,1.88,1.6c.226.177.28.28.28.407,0,.2-.152.329-.432.329h-6.687v3.79h4.448l1.6-1.831,1.86,1.6a.756.756,0,0,1,.3.506c0,.23-.152.329-.436.329h-4.016v3.535h1.2l1.374-1.551,1.621,1.374a.682.682,0,0,1,.3.51c0,.177-.1.276-.3.276h-4.193v7.732c0,.535-.2.839-.864,1.3a1.632,1.632,0,0,1-.913.407c-.3,0-.432-.152-.486-.531-.078-.638-.078-.638-.79-.844l-1.979-.506v-.56l2.288.1.4.025h.177c.329,0,.481-.2.481-.662v-6.46h-4.827c-1.169,0-2.033.029-4.144.1l-.28-.839c2.214.1,3.1.128,4.423.128h4.827V12.531h-4.93c-1.066,0-1.955.029-4.144.1Zm1.551,5.823a6.271,6.271,0,0,1,2.7,1.3,3.079,3.079,0,0,1,1.271,2.136,1.094,1.094,0,0,1-1.066,1.148c-.432,0-.638-.206-.761-.79a5.275,5.275,0,0,0-2.189-3.432Z" transform="translate(479.253 10.835)" fill="#1a1311"/><path d="M162.322,4.65h3.609l.658-.992,1.885,1.551a.6.6,0,0,1,.255.407c0,.206-.2.358-.506.358h-.662c-.914,1.753-.992,1.93-2.922,5.316,2.284,2.44,3.148,4.193,3.148,6.407a3.278,3.278,0,0,1-.988,2.794,2.867,2.867,0,0,1-1.679.741c-.383,0-.535-.206-.564-.662-.025-.613-.07-.687-.708-.839l-1.041-.226v-.411l1.041.029.638.025c1.267,0,1.7-.51,1.7-1.983a7.392,7.392,0,0,0-1.123-3.967,9.289,9.289,0,0,0-.992-1.374c-.177-.23-.177-.23-.329-.457.992-2.773,1.374-3.893,2.008-6.1h-3.839V25.2c0,.28-.613.609-1.095.609-.226,0-.457-.128-.457-.255V3.584Zm8.876,0h5.975l.864-.992,1.7,1.247a.606.606,0,0,1,.3.461c0,.177-.152.329-.481.432l-.436.152v8.567c0,.329-.551.634-1.222.634-.247,0-.4-.123-.4-.3V14.11h-3.613a15.084,15.084,0,0,0,1.88,4.4,36.792,36.792,0,0,0,4.3-4.041l1.453,1.271a.7.7,0,0,1,.251.481c0,.23-.251.383-.634.383h-.79c-1.905,1.041-2.514,1.374-4.345,2.263a14.175,14.175,0,0,0,6.2,4.679,7.215,7.215,0,0,0-2.033,1.728c-3.584-2.366-5.646-5.72-6.839-11.164h-2.444v8.316c2.062-.354,2.444-.432,4.958-1.016l.025.354c-2.794,1.173-4.041,1.679-6.864,2.7l-.3.786a.424.424,0,0,1-.354.3c-.1,0-.181-.074-.28-.226l-1.551-2.292c1.4-.152,1.6-.177,2.819-.379v-19Zm6.308.613h-6.613V9h6.613Zm0,4.345h-6.613V13.5h6.613Z" transform="translate(499.506 11.166)" fill="#1a1311"/><path d="M174.829,12.7a5.685,5.685,0,0,1,4-1.7c2.946,0,4.909,2.263,4.909,5.646,0,3.609-2.267,5.975-5.724,5.975-2.642,0-4.781-1.522-4.781-3.407a1.446,1.446,0,0,1,1.4-1.527,1.586,1.586,0,0,1,1.5,1.551,1.042,1.042,0,0,1-.181.638.83.83,0,0,0-.124.432c0,.864.914,1.5,2.164,1.5,2.21,0,3.531-1.93,3.531-5.135,0-2.926-1.169-4.526-3.284-4.526a4.588,4.588,0,0,0-3.481,1.831l-.761-.251.938-9.538h8.086l-.28,1.831h-7.193Z" transform="translate(539.578 13.031)" fill="#1a1311"/><path d="M178.6,6.2h3.177l.761-1.148,1.551,1.654a.684.684,0,0,1,.206.407c0,.1-.128.226-.3.28l-.457.128V22.447a.545.545,0,0,1-.411.584,2.438,2.438,0,0,1-.786.181c-.23,0-.383-.1-.383-.28V20.871h-3.461v3.156a.538.538,0,0,1-.3.531,2.2,2.2,0,0,1-.914.255.365.365,0,0,1-.379-.329V5.206Zm3.354.609h-3.461v6.382h3.461Zm0,6.991h-3.461v6.432h3.461Zm1.885-2.008c2.337.1,3.28.128,4.419.128h1.173V8.132h-1.395c-1.095,0-1.658.025-3.156.078l-.333-.79c1.7.078,2.292.1,3.489.1h1.395V3.478l2.136.255c.383.049.588.23.588.51,0,.152-.132.3-.337.457l-.7.457V7.523h3.432l1.527-1.732,1.88,1.6c.222.177.276.28.276.407,0,.2-.152.329-.428.329h-6.687v3.79h4.444l1.6-1.831,1.86,1.6a.756.756,0,0,1,.3.506c0,.23-.152.329-.436.329h-4.016v3.535h1.2l1.37-1.551,1.625,1.374a.7.7,0,0,1,.3.51c0,.177-.1.276-.3.276h-4.193v7.732c0,.535-.206.839-.868,1.3a1.621,1.621,0,0,1-.914.407c-.3,0-.428-.152-.486-.531-.074-.638-.074-.638-.79-.844l-1.979-.506v-.56l2.288.1.407.025h.177c.329,0,.481-.2.481-.662v-6.46h-4.827c-1.173,0-2.033.029-4.148.1l-.28-.839c2.218.1,3.1.128,4.428.128h4.827V12.531h-4.934c-1.066,0-1.95.029-4.144.1Zm1.551,5.823a6.253,6.253,0,0,1,2.691,1.3,3.079,3.079,0,0,1,1.272,2.136,1.091,1.091,0,0,1-1.066,1.148c-.428,0-.638-.206-.761-.79a5.275,5.275,0,0,0-2.189-3.432Z" transform="translate(550.997 10.835)" fill="#1a1311"/><path d="M185.359,4.65h3.6l.663-.992,1.885,1.551a.6.6,0,0,1,.251.407c0,.206-.2.358-.506.358h-.662c-.913,1.753-.992,1.93-2.922,5.316,2.288,2.44,3.152,4.193,3.152,6.407a3.279,3.279,0,0,1-.992,2.794,2.856,2.856,0,0,1-1.679.741c-.383,0-.535-.206-.564-.662-.021-.613-.07-.687-.7-.839L185.84,19.5v-.411l1.045.029.634.025c1.271,0,1.7-.51,1.7-1.983A7.423,7.423,0,0,0,188.1,13.2a9.989,9.989,0,0,0-1-1.374c-.177-.23-.177-.23-.329-.457.992-2.773,1.374-3.893,2.012-6.1h-3.843V25.2c0,.28-.613.609-1.095.609-.222,0-.457-.128-.457-.255V3.584Zm8.872,0h5.975l.864-.992,1.7,1.247a.606.606,0,0,1,.3.461c0,.177-.152.329-.481.432l-.432.152v8.567c0,.329-.555.634-1.222.634-.251,0-.4-.123-.4-.3V14.11h-3.613a15.084,15.084,0,0,0,1.88,4.4,36.793,36.793,0,0,0,4.3-4.041l1.457,1.271a.69.69,0,0,1,.247.481c0,.23-.247.383-.634.383h-.79c-1.905,1.041-2.514,1.374-4.345,2.263a14.209,14.209,0,0,0,6.205,4.679,7.186,7.186,0,0,0-2.037,1.728c-3.584-2.366-5.646-5.72-6.839-11.164h-2.44v8.316c2.061-.354,2.44-.432,4.958-1.016l.021.354c-2.794,1.173-4.041,1.679-6.859,2.7l-.309.786a.425.425,0,0,1-.354.3c-.1,0-.181-.074-.28-.226l-1.551-2.292c1.4-.152,1.6-.177,2.823-.379v-19Zm6.308.613h-6.612V9h6.612Zm0,4.345h-6.612V13.5h6.612Z" transform="translate(571.25 11.166)" fill="#1a1311"/><path d="M198.372,11.337c2.724,0,4.6,2.16,4.6,5.292a7.311,7.311,0,0,1-1.753,4.856,4.633,4.633,0,0,1-3.358,1.346c-3.432,0-5.773-3.481-5.773-8.645,0-5.8,2.9-10.069,6.864-10.069,2.057,0,3.716,1.169,3.716,2.621A1.149,1.149,0,0,1,201.4,7.9c-.893,0-1.271-.432-1.527-1.7-.177-.992-.506-1.271-1.448-1.271-1.4,0-2.7,1.346-3.358,3.559a18.81,18.81,0,0,0-.658,5.086c1.317-1.6,2.411-2.238,3.963-2.238m-3.633,7.452c.481,2.033,1.65,3.255,3.1,3.255,1.778,0,2.819-1.782,2.819-4.806,0-3-.963-4.5-2.872-4.5a3.15,3.15,0,0,0-2.086.79A7.36,7.36,0,0,0,194.41,15a14.678,14.678,0,0,0,.329,3.79" transform="translate(598.34 12.82)" fill="#1a1311"/><path d="M197.61,6.2h3.181l.761-1.148L203.1,6.708a.675.675,0,0,1,.2.407c0,.1-.128.226-.3.28l-.457.128V22.447a.546.546,0,0,1-.407.584,2.436,2.436,0,0,1-.79.181c-.226,0-.379-.1-.379-.28V20.871h-3.461v3.156a.538.538,0,0,1-.3.531,2.215,2.215,0,0,1-.913.255.366.366,0,0,1-.383-.329V5.206Zm3.358.609h-3.461v6.382h3.461Zm0,6.991h-3.461v6.432h3.461Zm1.88-2.008c2.337.1,3.28.128,4.423.128h1.169V8.132h-1.395c-1.095,0-1.654.025-3.152.078l-.333-.79c1.7.078,2.288.1,3.485.1h1.395V3.478l2.14.255c.379.049.584.23.584.51,0,.152-.128.3-.333.457l-.708.457V7.523h3.432l1.527-1.732,1.88,1.6c.226.177.28.28.28.407,0,.2-.152.329-.432.329h-6.687v3.79h4.448l1.6-1.831,1.86,1.6a.756.756,0,0,1,.3.506c0,.23-.152.329-.436.329h-4.016v3.535h1.2l1.374-1.551,1.621,1.374a.682.682,0,0,1,.3.51c0,.177-.1.276-.3.276h-4.193v7.732c0,.535-.2.839-.864,1.3a1.632,1.632,0,0,1-.913.407c-.3,0-.432-.152-.486-.531-.078-.638-.078-.638-.79-.844l-1.979-.506v-.56l2.288.1.4.025h.177c.329,0,.481-.2.481-.662v-6.46h-4.827c-1.169,0-2.033.029-4.144.1l-.28-.839c2.214.1,3.1.128,4.423.128H212.2V12.531h-4.93c-1.066,0-1.955.029-4.144.1Zm1.551,5.823a6.271,6.271,0,0,1,2.7,1.3,3.079,3.079,0,0,1,1.271,2.136A1.094,1.094,0,0,1,207.3,22.2c-.432,0-.638-.206-.761-.79a5.275,5.275,0,0,0-2.189-3.432Z" transform="translate(610.217 10.835)" fill="#1a1311"/><path d="M204.367,4.65h3.609l.658-.992,1.885,1.551a.612.612,0,0,1,.255.407c0,.206-.2.358-.506.358H209.6c-.914,1.753-1,1.93-2.922,5.316,2.284,2.44,3.148,4.193,3.148,6.407a3.279,3.279,0,0,1-.988,2.794,2.866,2.866,0,0,1-1.679.741c-.383,0-.535-.206-.564-.662-.025-.613-.07-.687-.708-.839l-1.045-.226v-.411l1.045.029.638.025c1.267,0,1.7-.51,1.7-1.983a7.392,7.392,0,0,0-1.123-3.967,9.278,9.278,0,0,0-.992-1.374c-.177-.23-.177-.23-.329-.457.992-2.773,1.374-3.893,2.008-6.1h-3.839V25.2c0,.28-.613.609-1.095.609-.226,0-.457-.128-.457-.255V3.584Zm8.872,0h5.979l.864-.992,1.7,1.247a.617.617,0,0,1,.3.461c0,.177-.152.329-.481.432l-.436.152v8.567c0,.329-.556.634-1.222.634-.247,0-.4-.123-.4-.3V14.11h-3.613a15.085,15.085,0,0,0,1.88,4.4,36.793,36.793,0,0,0,4.3-4.041l1.453,1.271a.7.7,0,0,1,.251.481c0,.23-.251.383-.634.383h-.79c-1.905,1.041-2.514,1.374-4.349,2.263a14.21,14.21,0,0,0,6.205,4.679,7.156,7.156,0,0,0-2.033,1.728c-3.584-2.366-5.646-5.72-6.839-11.164h-2.444v8.316c2.062-.354,2.444-.432,4.958-1.016l.025.354c-2.794,1.173-4.041,1.679-6.864,2.7l-.3.786c-.078.177-.2.3-.354.3-.1,0-.181-.074-.28-.226l-1.551-2.292c1.4-.152,1.6-.177,2.819-.379v-19Zm6.312.613h-6.613V9h6.613Zm0,4.345h-6.613V13.5h6.613Z" transform="translate(630.47 11.166)" fill="#1a1311"/><path d="M212.984,4.177h9.53V5.3c-4.168,6.279-5.386,9.382-5.386,13.682,0,.634,0,.634.074,1.778v.383c0,1.016-.531,1.679-1.35,1.679-.938,0-1.42-.716-1.42-2.062a14.5,14.5,0,0,1,1.267-5.288,51.024,51.024,0,0,1,5.44-9.489h-5.333c-1.728.029-2.366.564-3.485,2.979l-.737-.358Z" transform="translate(659.054 13.013)" fill="#1a1311"/><path d="M216.971,6.2h3.177l.765-1.148,1.551,1.654a.666.666,0,0,1,.2.407c0,.1-.128.226-.3.28l-.457.128V22.447a.543.543,0,0,1-.4.584,2.461,2.461,0,0,1-.79.181c-.23,0-.383-.1-.383-.28V20.871h-3.456v3.156a.544.544,0,0,1-.3.531,2.215,2.215,0,0,1-.918.255.362.362,0,0,1-.379-.329V5.206Zm3.354.609h-3.456v6.382h3.456Zm0,6.991h-3.456v6.432h3.456Zm1.88-2.008c2.337.1,3.284.128,4.428.128H227.8V8.132H226.4c-1.095,0-1.65.025-3.152.078l-.329-.79c1.7.078,2.288.1,3.481.1H227.8V3.478l2.14.255c.383.049.588.23.588.51,0,.152-.132.3-.333.457l-.712.457V7.523h3.432l1.527-1.732,1.88,1.6c.23.177.28.28.28.407,0,.2-.152.329-.432.329H229.48v3.79h4.452l1.6-1.831,1.86,1.6a.74.74,0,0,1,.3.506c0,.23-.152.329-.436.329h-4.012v3.535h1.193l1.374-1.551,1.625,1.374a.682.682,0,0,1,.3.51c0,.177-.1.276-.3.276h-4.193v7.732c0,.535-.206.839-.864,1.3a1.64,1.64,0,0,1-.918.407c-.3,0-.432-.152-.481-.531-.082-.638-.082-.638-.79-.844l-1.983-.506v-.56l2.292.1.4.025h.181c.329,0,.481-.2.481-.662v-6.46h-4.827c-1.173,0-2.037.029-4.144.1l-.284-.839c2.214.1,3.1.128,4.428.128h4.827V12.531h-4.93c-1.07,0-1.959.029-4.148.1Zm1.551,5.823a6.224,6.224,0,0,1,2.7,1.3,3.071,3.071,0,0,1,1.276,2.136,1.1,1.1,0,0,1-1.07,1.148c-.432,0-.634-.206-.761-.79a5.245,5.245,0,0,0-2.189-3.432Z" transform="translate(670.523 10.835)" fill="#1a1311"/><path d="M223.724,4.65h3.613L228,3.658l1.88,1.551a.613.613,0,0,1,.255.407c0,.206-.21.358-.514.358h-.658c-.918,1.753-.988,1.93-2.926,5.316,2.292,2.44,3.156,4.193,3.156,6.407a3.267,3.267,0,0,1-.992,2.794,2.856,2.856,0,0,1-1.683.741c-.374,0-.531-.206-.551-.662-.029-.613-.082-.687-.716-.839l-1.041-.226v-.411l1.041.029.634.025c1.276,0,1.7-.51,1.7-1.983a7.418,7.418,0,0,0-1.115-3.967,10.012,10.012,0,0,0-1-1.374c-.177-.23-.177-.23-.329-.457,1-2.773,1.37-3.893,2.012-6.1H223.32V25.2c0,.28-.609.609-1.1.609-.226,0-.453-.128-.453-.255V3.584Zm8.876,0h5.975l.868-.992,1.7,1.247a.617.617,0,0,1,.3.461c0,.177-.152.329-.486.432l-.428.152v8.567c0,.329-.564.634-1.222.634-.259,0-.411-.123-.411-.3V14.11h-3.609a15.085,15.085,0,0,0,1.88,4.4,37.14,37.14,0,0,0,4.3-4.041l1.448,1.271a.7.7,0,0,1,.255.481c0,.23-.255.383-.634.383h-.794c-1.905,1.041-2.514,1.374-4.345,2.263a14.211,14.211,0,0,0,6.205,4.679,7.187,7.187,0,0,0-2.037,1.728c-3.588-2.366-5.646-5.72-6.843-11.164h-2.436v8.316c2.062-.354,2.436-.432,4.958-1.016l.029.354c-2.8,1.173-4.045,1.679-6.868,2.7l-.309.786a.424.424,0,0,1-.358.3c-.1,0-.177-.074-.276-.226l-1.555-2.292c1.4-.152,1.609-.177,2.827-.379v-19Zm6.3.613h-6.608V9H238.9Zm0,4.345h-6.608V13.5H238.9Z" transform="translate(690.776 11.166)" fill="#1a1311"/><line y2="274.888" transform="translate(782.522 5.377)" fill="none" stroke="#1a1311" stroke-width="0.283"/><line y2="274.888" transform="translate(861.552 5.377)" fill="none" stroke="#1a1311" stroke-width="0.283"/><path d="M242.558,80.193l-.794-.794,8.024-7.991-8.024-8,.794-.79,8,8.016,8-8.016.79.79-8.02,8,8.02,7.991-.79.794-8-8.02Zm3.329-8.785a2.062,2.062,0,1,1-2.049-2.049,2.054,2.054,0,0,1,2.049,2.049m6.711-6.715a2.047,2.047,0,1,1-2.045-2.07,2.056,2.056,0,0,1,2.045,2.07m0,13.427a2.047,2.047,0,1,1-2.045-2.049A2.041,2.041,0,0,1,252.6,78.12m6.74-6.711a2.062,2.062,0,1,1-2.074-2.049,2.065,2.065,0,0,1,2.074,2.049" transform="translate(753.057 195.063)" fill="#1a1311"/><path d="M247.057,81.043c.37-4.292,3.008-6.094,7.526-8.658,2.687-1.535,3.9-2.2,3.9-4.469,0-2.839-2.317-3.531-4-3.531-4.246,0-4.44,3.576-4.489,4.543H247.65a6.608,6.608,0,0,1,1.6-4.345,7.073,7.073,0,0,1,5.185-2.045c2.568,0,6.267,1.181,6.267,5.251,0,3.189-1.852,4.543-5.156,6.3-4.543,2.415-5.156,3.971-5.654,5.107H260.7v1.852Z" transform="translate(769.544 194.801)" fill="#1a1311"/><path d="M257.744,81.537c-5.526,0-6.835-4.958-6.835-9.5s1.309-9.5,6.835-9.5,6.81,5.008,6.81,9.5c0,4.514-1.28,9.5-6.81,9.5m0-17.151c-3.526,0-4.493,3.6-4.493,7.649,0,4.222,1.037,7.65,4.493,7.65,3.481,0,4.493-3.452,4.493-7.65,0-4.168-1.012-7.649-4.493-7.649" transform="translate(781.543 194.801)" fill="#1a1311"/><path d="M254.617,81.043c.37-4.292,3.008-6.094,7.526-8.658,2.687-1.535,3.9-2.2,3.9-4.469,0-2.839-2.317-3.531-4-3.531-4.246,0-4.44,3.576-4.489,4.543H255.21a6.609,6.609,0,0,1,1.6-4.345,7.073,7.073,0,0,1,5.185-2.045c2.568,0,6.267,1.181,6.267,5.251,0,3.189-1.852,4.543-5.156,6.3-4.543,2.415-5.156,3.971-5.654,5.107h10.81v1.852Z" transform="translate(793.092 194.801)" fill="#1a1311"/><path d="M265.282,81.537c-2.078,0-4.325-.518-5.678-2.444a6.465,6.465,0,0,1-1.136-3.6h2.247c.07.942.3,4.2,4.613,4.2,3.033,0,4.563-1.753,4.563-3.946,0-2.617-2.168-3.456-4.094-3.456h-1.9V70.653h1.6c1.383,0,3.847-.765,3.847-3.156,0-1.383-.786-3.111-3.8-3.111a4.067,4.067,0,0,0-3.205,1.234,4.152,4.152,0,0,0-.909,2.465H259.2c.346-4.366,3.6-5.547,6.37-5.547,3.6,0,6,1.922,6,4.707a4.042,4.042,0,0,1-3.131,4.078,4.257,4.257,0,0,1,3.675,4.44c0,3.205-2.485,5.773-6.831,5.773" transform="translate(805.088 194.801)" fill="#1a1311"/><path d="M275.346,78.82v5.724h-1.876V78.82H262.392V77.1h4.148V70.479h6.929v-3.8h-5.576a28.075,28.075,0,0,1-2.761,3.362L263.524,69a20.207,20.207,0,0,0,4.889-7.008,7.621,7.621,0,0,1,1.728.761c.3.123.42.2.42.37,0,.3-.37.346-.741.4-.173.3-.37.667-.815,1.432h14.044v1.724h-7.7v3.8h6.538v1.728h-6.538V77.1h8.662V78.82Zm-1.876-6.613h-5.131v4.884h5.131Z" transform="translate(817.31 193.104)" fill="#1a1311"/><path d="M272.728,70.677c-.053,3.473-.128,9.448-2.765,13.789l-1.679-.642c1.629-2.815,2.638-5.8,2.638-12.9,0-.934-.045-5.427-.07-6.218h8.242V62.011l1.946.123c.148,0,.494.025.494.3,0,.292-.366.465-.518.543V64.7h9.5v1.6H272.65c.053,1.284.078,1.7.078,2.884h3.921V66.945l1.852.128c.292.025.519.045.519.243,0,.226-.226.374-.642.572v1.3h4.884V66.945l1.753.128c.247.025.543.045.543.3,0,.148-.078.247-.543.518v1.3h4.292v1.485h-4.292v3.206H276.65V70.677Zm.761,12.46a24.078,24.078,0,0,0,6.617-2.1,12.931,12.931,0,0,1-2.7-3.156l1.51-.667a10.413,10.413,0,0,0,2.638,2.934,12.374,12.374,0,0,0,3.185-3.107H274.008v-1.6h12.735l.638.716a16.862,16.862,0,0,1-4.366,4.856,18.378,18.378,0,0,0,7.255,1.555l-.839,1.806c-4.736-.642-6.415-1.407-7.942-2.35a25.929,25.929,0,0,1-6.962,2.592Zm9.773-12.46h-4.884V72.4h4.884Z" transform="translate(835.663 193.157)" fill="#1a1311"/><path d="M283.8,67.049l1.975.123c.346.025.465.123.465.272,0,.2-.144.3-.588.469v1.012h6.563v1.6h-6.563v2.119H291.5V74.18h-5.847a10.968,10.968,0,0,1-.2,2.2h9.328v1.654h-8.37c2.222,3.23,6.222,3.9,8.666,4.267l-1.21,1.876c-3.922-.889-6.835-2.049-9.057-5.625-1.481,2.74-3.551,4.884-9.25,5.6L274.554,82.4c6.238-.564,7.645-2.889,8.46-4.366h-8.287V76.377h8.806a10.671,10.671,0,0,0,.272-2.2H277.76V72.649H283.8V70.53h-6.485v-1.6H283.8Zm-.049-5.008,2.123.148c.1.025.4.049.4.292s-.3.424-.593.572v1.354h9.131v4.518h-1.8V66.086H276.455v2.963h-1.806V64.407h9.106Z" transform="translate(855.193 193.25)" fill="#1a1311"/><path d="M289.016,70.99a72.388,72.388,0,0,1-.518,9.254c-.494,3.629-1.453,3.629-3.926,3.679L284.082,82c.518.025,1.181.074,1.453.074.617,0,.963-.119,1.284-1.922a42.83,42.83,0,0,0,.469-7.555h-2.341a35.506,35.506,0,0,1-.794,5.6,17.492,17.492,0,0,1-2.341,5.851l-1.6-1.037c3.16-4.469,3.16-11.4,3.16-14.509H280.6V66.9h3.6V62.258l1.831.148c.366.049.564.1.564.272,0,.243-.444.44-.667.518v3.7h3.531v1.6h-4.37c-.025,1.453-.049,1.926-.074,2.489Zm-.247-.885a30.538,30.538,0,0,0,4.489-8.094l1.629.864c.37.2.4.272.4.346,0,.272-.346.3-.671.321-.193.469-.593,1.358-1.111,2.317h8.933v1.683h-9.847a38.849,38.849,0,0,1-2.42,3.724Zm6.094,13.818c-2.642,0-2.687-1.555-2.687-2.395V75.24l-2.444.514-.123-1.679,2.568-.444V70.278l1.823.272c.395.049.469.148.469.247,0,.218-.272.346-.642.469v2.049l2.395-.518V68.624l1.728.148c.37.049.519.049.519.247,0,.222-.272.37-.572.494v2.963l3.135-.642.77.564a26.2,26.2,0,0,1-.646,6.222c-.391,1.432-.889,1.555-2.44,1.625l-.765-1.876a2.473,2.473,0,0,0,.913.2c.642,0,.815-.741.934-1.58a29.917,29.917,0,0,0,.276-3.358l-2.177.444v6.617h-1.675V74.446l-2.395.473v5.72c0,1.012.054,1.728,1.753,1.728h3.777c1.5,0,1.872-.667,2.444-2.687l1.551,1.012c-.987,3.23-2.345,3.23-3.7,3.23Z" transform="translate(872.798 193.157)" fill="#1a1311"/><path d="M286.146,71.776a26.572,26.572,0,0,0,5.082-9.723l1.753.642c.049.025.3.119.3.292,0,.251-.247.276-.543.3-.79,1.876-.963,2.292-1.309,3.008.074.1.321.321.321.494,0,.128-.346.469-.518.667v16.78H289.5V70.172a18.557,18.557,0,0,1-2.07,2.889Zm14.978-3.358c-.272,3.872-.593,7.131-2.37,10.612a16.148,16.148,0,0,1-4.218,5.107l-1.383-1.259a13.825,13.825,0,0,0,4.934-6.613,9.261,9.261,0,0,0-2.49-1.8l.761-1.481a10.482,10.482,0,0,1,2.325,1.481,24.561,24.561,0,0,0,.691-4.366h-2.893a17.807,17.807,0,0,1-2.638,5.4l-1.6-.712a16.045,16.045,0,0,0,2.642-5.16,21.617,21.617,0,0,0,.909-4.74h-2.317v-1.6h8.538v1.6h-4.444a26.166,26.166,0,0,1-.613,3.531Zm1.654-3.012,1.679.1c.074,0,.44.025.44.3,0,.144-.173.267-.366.44V78.265h-1.753ZM306.5,62.2l1.827.123c.123,0,.37.025.37.2,0,.222-.272.4-.518.518v18.85c0,1.461-.123,2.173-2.049,2.173h-2l-.839-2.049a17.168,17.168,0,0,0,2.49.272c.716,0,.716-.292.716-.716Z" transform="translate(891.3 193.287)" fill="#1a1311"/></g></g></g></svg>