<svg xmlns="http://www.w3.org/2000/svg" xmlns:xlink="http://www.w3.org/1999/xlink" width="270" height="62" viewBox="0 0 270 62">
  <defs>
    <clipPath id="clip-path">
      <rect id="長方形_4999" data-name="長方形 4999" width="200.259" height="62" fill="none"/>
    </clipPath>
  </defs>
  <g id="グループ_246" data-name="グループ 246" transform="translate(-10566 -5364)">
    <g id="グループ_235" data-name="グループ 235" transform="translate(10566 5364)">
      <rect id="長方形_4995" data-name="長方形 4995" width="61.516" height="61.998" transform="translate(69.37 0.002)" fill="#cd0068"/>
      <g id="グループ_234" data-name="グループ 234" transform="translate(0 0)">
        <g id="グループ_233" data-name="グループ 233" clip-path="url(#clip-path)">
          <path id="パス_1407" data-name="パス 1407" d="M30.661,4.479a9.36,9.36,0,0,1-.933.365c-.41.136-.664.229-.775.277V3.443a9.724,9.724,0,0,0,1.2-.584,4.132,4.132,0,0,0,1-.714h1.763V13.967H30.661Z" transform="translate(43.87 3.251)" fill="#fff"/>
          <path id="パス_1408" data-name="パス 1408" d="M31.806,13.341a3.662,3.662,0,0,1-.81-2.49v-5.3a3.813,3.813,0,0,1,.79-2.548,2.954,2.954,0,0,1,2.379-.926,2.939,2.939,0,0,1,2.364.926,3.812,3.812,0,0,1,.787,2.548v5.3a3.63,3.63,0,0,1-.817,2.483,2.941,2.941,0,0,1-2.334.933,2.961,2.961,0,0,1-2.359-.926m3.219-2.533V5.6A3.05,3.05,0,0,0,34.857,4.5a.666.666,0,0,0-.692-.438.681.681,0,0,0-.717.43,3.247,3.247,0,0,0-.161,1.1v5.212q0,1.475.878,1.474.86,0,.86-1.474" transform="translate(46.966 3.152)" fill="#fff"/>
          <path id="パス_1409" data-name="パス 1409" d="M49.052,16.175H37.63a.132.132,0,0,0-.123.138v3.431a.133.133,0,0,0,.123.141H49.052a.131.131,0,0,0,.123-.141V16.313a.13.13,0,0,0-.123-.138" transform="translate(56.831 24.509)" fill="#fff"/>
          <path id="パス_1410" data-name="パス 1410" d="M49.052,13.272H37.63a.132.132,0,0,0-.123.138v3.431a.133.133,0,0,0,.123.141H49.052a.131.131,0,0,0,.123-.141V13.41a.13.13,0,0,0-.123-.138" transform="translate(56.831 20.11)" fill="#fff"/>
          <path id="パス_1411" data-name="パス 1411" d="M48.734,14.529,43.253,9.048a.093.093,0,0,0-.133,0l-5.481,5.481a.094.094,0,0,0,.065.161H48.666a.094.094,0,0,0,.068-.161" transform="translate(56.988 13.667)" fill="#fff"/>
          <path id="パス_1412" data-name="パス 1412" d="M44.175,24.368l5.481-5.481a.093.093,0,0,0,0-.133l-5.481-5.481a.094.094,0,0,0-.161.065V24.3a.094.094,0,0,0,.161.068" transform="translate(66.691 20.069)" fill="#fff"/>
          <path id="パス_1413" data-name="パス 1413" d="M37.638,19.809l5.481,5.481a.093.093,0,0,0,.133,0l5.481-5.481a.094.094,0,0,0-.065-.161H37.706a.094.094,0,0,0-.068.161" transform="translate(56.987 29.771)" fill="#fff"/>
          <path id="パス_1414" data-name="パス 1414" d="M38.895,13.272l-5.481,5.481a.093.093,0,0,0,0,.133l5.481,5.481a.094.094,0,0,0,.161-.065V13.34a.094.094,0,0,0-.161-.068" transform="translate(50.587 20.068)" fill="#fff"/>
          <path id="パス_1415" data-name="パス 1415" d="M39.3,6.691a4.611,4.611,0,0,1-1.68-2.314,5.7,5.7,0,0,1-.246.7,3.471,3.471,0,0,1-.986,1.3,2.7,2.7,0,0,1-.468.3l-.41-.48a2.539,2.539,0,0,0,.548-.312,3.414,3.414,0,0,0,1.127-2.09,9.893,9.893,0,0,0,.07-1.66l.634.07a.085.085,0,0,1,.086.078.1.1,0,0,1-.08.1c-.01.219-.015.43-.015.649a3.971,3.971,0,0,0,.712,2.052,3.88,3.88,0,0,0,1.182,1.087Z" transform="translate(53.798 3.232)" fill="#fff"/>
          <path id="パス_1416" data-name="パス 1416" d="M39.96,5.031a2.334,2.334,0,0,1-.541-.063,4.146,4.146,0,0,0-.171-.553,2.155,2.155,0,0,0,.579.093c.357,0,.692-.138.692-.646a.444.444,0,0,0-.423-.485.873.873,0,0,0-.269.043c.053.161.111.322.166.483-.153.075-.3.143-.453.206-.06-.174-.121-.345-.179-.518a5.479,5.479,0,0,0-.611.324c.146.4.287.815.41,1.227.118.39.259.772.357,1.17-.163.093-.329.156-.5.234a22.827,22.827,0,0,0-.7-2.384c-.234.151-.47.307-.694.468-.091-.181-.186-.36-.267-.548.249-.141.508-.287.76-.42-.126-.3-.269-.6-.42-.88.065-.02.511-.186.541-.186s.03.02.045.05c.1.262.191.528.289.79.194-.106.385-.2.584-.3a5.7,5.7,0,0,0-.39-.785c.169-.063.34-.136.506-.194a8.361,8.361,0,0,1,.375.8,1.809,1.809,0,0,1,.531-.068.9.9,0,0,1,.888.981,1.07,1.07,0,0,1-1.1,1.154" transform="translate(56.599 3.272)" fill="#fff"/>
          <path id="パス_1417" data-name="パス 1417" d="M39.243,2.131h3.745V6.714H39.243Zm3.209.511H39.771V6.226h2.681Zm-2.52,3.139V5.325h.88V4.543h-.7V4.108h.7V3.56h-.835V3.1h2.291v.45h-.951V4.1h.719v.375l.231.136a.047.047,0,0,1,.023.038c0,.05-.055.07-.093.07-.078.179-.156.36-.226.543l-.377-.141c.058-.191.113-.385.169-.581h-.45v.792h.968v.445Z" transform="translate(59.462 3.229)" fill="#fff"/>
          <path id="パス_1418" data-name="パス 1418" d="M43.334,6.128c-.131-.148-.252-.309-.382-.455.672-.2,1.293-.483,1.293-1.466A1.359,1.359,0,0,0,43.357,2.8c-.116.9-.342,2.319-1.011,2.847a.616.616,0,0,1-.395.166.63.63,0,0,1-.455-.3,1.9,1.9,0,0,1-.272-1.061A2.008,2.008,0,0,1,43.1,2.282a1.7,1.7,0,0,1,1.7,1.886,1.872,1.872,0,0,1-1.464,1.959m-1.5-2.389a2.114,2.114,0,0,0-.118.712c0,.211.038.762.277.762.086,0,.156-.1.209-.166a4.621,4.621,0,0,0,.611-2.241,1.569,1.569,0,0,0-.978.933" transform="translate(62.463 3.458)" fill="#fff"/>
          <path id="パス_1419" data-name="パス 1419" d="M45.648,2.7c-.088.169-.174.34-.269.5V6.681h-.551V4a4.8,4.8,0,0,1-1.469,1.376L42.969,5a4.913,4.913,0,0,0,2-2.306H43.231V2.164h3.745V2.7Zm1.237,2.749A6.081,6.081,0,0,1,45.439,3.9c.146-.133.282-.277.423-.415a4.33,4.33,0,0,0,1.406,1.484Z" transform="translate(65.107 3.279)" fill="#fff"/>
          <path id="パス_1420" data-name="パス 1420" d="M47.206,4.979V6.722h-.551V4.979H44.927V4.459h1.728V2.693H45.166V2.18H48.7v.513H47.2V4.459h1.73v.521Zm-1.3-.724c-.161-.377-.324-.76-.516-1.117l.488-.267a6.641,6.641,0,0,1,.428,1.149Zm2.538-.973c-.158.335-.319.672-.5,1l-.4-.191c.151-.4.287-.81.4-1.225l.546.252a.1.1,0,0,1,.063.091c0,.058-.07.078-.108.078" transform="translate(68.074 3.304)" fill="#fff"/>
          <path id="パス_1421" data-name="パス 1421" d="M48.287,3l.05.37-.372.1-.146-.48h-.128a3.729,3.729,0,0,1-.488.639l-.395-.259a3.048,3.048,0,0,0,.674-1.326l.523.171a.078.078,0,0,1,.058.068.1.1,0,0,1-.086.086,1.131,1.131,0,0,1-.1.191h.883V3Zm1.544,1.879-.005.319h.9v.473h-.89c0,.815.08,1.273-.747,1.414l-.312-.45c.317-.06.543-.088.543-.528V5.673H47.988c.136.128.262.262.39.4.1.1.2.194.287.3l-.342.382a10.184,10.184,0,0,0-.767-.745l.3-.34h-.848V5.2h2.3V4.876h-2.44V4.428h1.675V4.111H47.344V3.658h1.192V3.3H49.1c.023.005-.106.1-.106.123s.058-.123.068-.158v.4H50.39v.453H49.057v.317h1.766v.453Zm.335-1.856-.146.458-.395-.043.018-.43h-.294A5.114,5.114,0,0,1,49,3.462l-.46-.166a3.774,3.774,0,0,0,.624-1.222l.538.158a.07.07,0,0,1,.055.06c0,.048-.06.055-.093.055-.03.08-.068.156-.1.229h1.2v.448Z" transform="translate(70.924 3.101)" fill="#fff"/>
          <path id="パス_1422" data-name="パス 1422" d="M39.286,7.2a.126.126,0,0,1-.068-.025c-.329.111-.961.362-1.26.5v.817l-.538-.005c.005-.075.005-.153.005-.244v-.3c-.362.169-.546.387-.546.631,0,.211.209.324.624.324a3.991,3.991,0,0,0,1.326-.214l-.018.624a3.753,3.753,0,0,1-1.144.153c-.893,0-1.338-.282-1.338-.853a1.052,1.052,0,0,1,.375-.765,3.187,3.187,0,0,1,.689-.455c-.008-.241-.08-.362-.214-.362a.664.664,0,0,0-.468.2,4.207,4.207,0,0,0-.35.362c-.169.186-.274.314-.337.377-.083-.1-.209-.239-.377-.435A3.877,3.877,0,0,0,36.793,6.1c-.241.03-.511.053-.8.068-.018-.2-.045-.39-.073-.553a7.828,7.828,0,0,0,1.044-.053,4.677,4.677,0,0,0,.153-.734l.616.138c.035.013.053.03.053.063s-.023.06-.073.08c-.023.091-.063.229-.121.41a7.468,7.468,0,0,0,.85-.2l-.05.586c-.252.05-.589.106-1.006.163A3.453,3.453,0,0,1,37.1,6.6a.882.882,0,0,1,.259-.038c.277,0,.46.184.541.568.365-.191.78-.387,1.23-.591l.209.6c0,.043-.018.063-.055.063" transform="translate(54.011 7.308)" fill="#fff"/>
          <path id="パス_1423" data-name="パス 1423" d="M39.648,6.016c-.224.065-.443.118-.664.161a10.975,10.975,0,0,1-.994,2.493,5.561,5.561,0,0,1-.5-.287A8.686,8.686,0,0,0,38.4,6.24a4.7,4.7,0,0,1-.679.058c-.023-.184-.05-.372-.073-.563a1.652,1.652,0,0,0,.252.013,4.1,4.1,0,0,0,.631-.045,5.56,5.56,0,0,0,.123-.918c.214.033.425.058.634.106-.055.244-.108.5-.184.739a4.662,4.662,0,0,0,.548-.181c0,.186-.005.377-.005.568m1.273,3.255a3.892,3.892,0,0,0-.606-.548c0,.058,0,.118,0,.174-.02.551-.377.7-.787.7a1.254,1.254,0,0,1-.43-.07.8.8,0,0,1-.536-.755.793.793,0,0,1,.83-.807,2.3,2.3,0,0,1,.372.03c-.005-.249-.013-.5-.005-.75a1.139,1.139,0,0,1,.068-.362h.412c.025,0,.158-.02.156.043l-.005.023a.693.693,0,0,0-.093.324c-.01.282,0,.558.01.84a3.17,3.17,0,0,1,.963.634c-.111.181-.226.36-.35.526M39.786,8.5a.775.775,0,0,0-.324-.058c-.174,0-.39.053-.4.3s.252.357.43.357.292-.038.3-.264c.005-.113,0-.224-.005-.337M41,6.726A2.785,2.785,0,0,0,39.9,6.115l.264-.531A2.811,2.811,0,0,1,41.3,6.2Z" transform="translate(56.805 7.249)" fill="#fff"/>
          <path id="パス_1424" data-name="パス 1424" d="M41.472,9.5a8.811,8.811,0,0,0-1.333-1.577,4.271,4.271,0,0,0-.392-.355,1.328,1.328,0,0,1-.224-.206.47.47,0,0,1-.078-.289.615.615,0,0,1,.219-.448c.224-.229.46-.443.677-.677.327-.355.659-.709.976-1.084l.39.337a1.2,1.2,0,0,1,.148.131.063.063,0,0,1,.02.048c0,.075-.1.086-.153.073-.3.282-.619.556-.933.84-.131.118-.252.249-.382.37-.06.058-.131.108-.186.171a.338.338,0,0,0-.113.209.221.221,0,0,0,.078.163c.186.184.4.345.589.518a8.953,8.953,0,0,1,1.185,1.331c-.163.143-.322.3-.485.445" transform="translate(59.767 7.369)" fill="#fff"/>
          <path id="パス_1425" data-name="パス 1425" d="M43.089,7.217a1.246,1.246,0,0,0-.38,1.152c.1.518.724.573,1.054.566.1,0,.214-.013.322-.025-.045.2-.1.4-.143.6l-.1,0c-.641.015-1.564-.075-1.67-1.064a1.82,1.82,0,0,1,.342-1.378,9.716,9.716,0,0,0-1.585.41c-.035-.2-.086-.4-.128-.6a3.982,3.982,0,0,0,.84-.221,5.96,5.96,0,0,0,1.074-1.134,7.219,7.219,0,0,1-.958.05c0-.186-.01-.375-.025-.558a5.908,5.908,0,0,0,1.444-.045,1.364,1.364,0,0,0,.36-.138c.1.166.191.337.277.508a12.15,12.15,0,0,0-1.351,1.278c.672-.1,1.348-.184,2.022-.244,0,.214.005.428,0,.641a2.391,2.391,0,0,0-1.393.2" transform="translate(61.825 7.327)" fill="#fff"/>
          <path id="パス_1426" data-name="パス 1426" d="M43.884,9.863c-.171-.158-.342-.322-.526-.463A2.229,2.229,0,0,0,44.7,8.452a2.193,2.193,0,0,0,.189-.84c.033-.483-.106-.77-.538-.8A3.859,3.859,0,0,0,43,7.305c-.025-.083-.211-.656-.209-.707s.048-.028.068-.028a3,3,0,0,0,.584-.118,3.148,3.148,0,0,1,1.1-.2c.742.048,1.029.656.973,1.464a2.432,2.432,0,0,1-1.63,2.151M44.7,5.819a6.829,6.829,0,0,0-1.315-.5c.088-.2.171-.4.259-.6a5.1,5.1,0,0,1,1.348.506c-.093.2-.186.4-.292.591" transform="translate(64.836 7.155)" fill="#fff"/>
          <rect id="長方形_4996" data-name="長方形 4996" width="62" height="62" fill="#25862a"/>
          <path id="パス_1427" data-name="パス 1427" d="M2.7,13.333a4.147,4.147,0,0,1-.745-2.641v-.41H4.2v.395a3.084,3.084,0,0,0,.219,1.3.759.759,0,0,0,.745.395.713.713,0,0,0,.722-.4,3.409,3.409,0,0,0,.181-1.305,2.815,2.815,0,0,0-.277-1.409A1.119,1.119,0,0,0,4.77,8.781a2.66,2.66,0,0,0-.41-.015V7.115h.367a1.2,1.2,0,0,0,1.049-.407,2.363,2.363,0,0,0,.292-1.343,2.319,2.319,0,0,0-.211-1.124A.792.792,0,0,0,5.1,3.876a.7.7,0,0,0-.7.395,2.891,2.891,0,0,0-.2,1.167v.526H1.953V5.32a3.278,3.278,0,0,1,.825-2.392A3.092,3.092,0,0,1,5.1,2.08,3.223,3.223,0,0,1,7.469,2.9,3.144,3.144,0,0,1,8.3,5.247a3.236,3.236,0,0,1-.423,1.715A1.8,1.8,0,0,1,6.8,7.83q1.505.555,1.5,2.789a4.228,4.228,0,0,1-.76,2.676,2.861,2.861,0,0,1-2.407.971A2.929,2.929,0,0,1,2.7,13.333" transform="translate(2.959 3.152)" fill="#fff"/>
          <path id="パス_1428" data-name="パス 1428" d="M26.986,17.331a2.926,2.926,0,0,0-2.827-3.174,4.379,4.379,0,0,0-2.437,1.507c-.558-.573-1.517-1.507-2.369-1.507a2.98,2.98,0,0,0-2.9,3.174,3.215,3.215,0,0,0,.905,2.244l4.366,4.374,4.359-4.369,0,0a3.214,3.214,0,0,0,.9-2.246" transform="translate(24.933 21.451)" fill="#fff"/>
          <path id="パス_1429" data-name="パス 1429" d="M27.212,38.486h-.045a.717.717,0,0,1-.661-.6L24.286,24.975,20.929,31.2a.716.716,0,0,1-1.341-.236L18.162,21l-2.611,5.86a.721.721,0,0,1-.654.425H4.756a.717.717,0,1,1,0-1.434h9.676l3.431-7.709a.717.717,0,0,1,1.366.189L20.7,28.609l3.313-6.142a.715.715,0,0,1,1.336.219L27.4,34.648,34.888,9.783a.718.718,0,0,1,1.333-.1l3.936,8.164a.717.717,0,0,1-1.29.624l-3.136-6.5L27.9,37.976a.719.719,0,0,1-.687.511" transform="translate(6.12 14.054)" fill="#fff"/>
          <path id="パス_1430" data-name="パス 1430" d="M16.386,6.783c-.163.015-.324.038-.493.058a7.062,7.062,0,0,1-.234-2.062,13.306,13.306,0,0,1,.234-2.322l.395.093a1.063,1.063,0,0,1,.191.048.07.07,0,0,1,.053.073.074.074,0,0,1-.073.07,10.735,10.735,0,0,0-.264,2.41c0,.2.01.387.01.586.083-.246.158-.5.244-.745.113.1.226.211.34.317a5.237,5.237,0,0,0-.4,1.474m2.87-.1a3.63,3.63,0,0,1-.825.048c-.646-.023-1.248-.128-1.326-1.122.153-.116.3-.236.46-.347,0,.563.262.817.684.833a2.9,2.9,0,0,0,1.016-.123c0,.236-.005.47-.01.712m-.113-3.038A3.479,3.479,0,0,0,18.1,3.576a4.719,4.719,0,0,0-.722.128c-.02-.2-.033-.438-.058-.634a5.425,5.425,0,0,1,1.026-.126,3.741,3.741,0,0,1,.853.045c-.018.214-.03.435-.053.651" transform="translate(23.727 3.723)" fill="#fff"/>
          <path id="パス_1431" data-name="パス 1431" d="M10.1,3.753c-.186-.015-.377-.025-.561-.03-.279-.008-.551-.02-.825-.01.005.2,0,.395.01.6a1.8,1.8,0,0,1,.169.873A2.027,2.027,0,0,1,7.761,7.222c-.163-.143-.342-.269-.5-.42a1.42,1.42,0,0,0,1-.951.69.69,0,0,1-.382.091c-.392,0-.621-.506-.621-.931,0-.533.262-1.059.745-1.059a.749.749,0,0,1,.184.023c0-.088,0-.179-.008-.267-.314,0-.626.023-.938.043-.3.025-.594.055-.885.1-.018-.211-.01-.425-.018-.636C6.944,3.2,7.552,3.2,8.166,3.177c-.015-.272-.02-.538-.025-.817.133.013.274.035.407.055a1.157,1.157,0,0,1,.171.028c.033.005.07.018.07.068a.153.153,0,0,1-.063.116c0,.176-.008.367-.008.543.47-.005.946-.013,1.414-.028ZM8.048,4.49c-.214,0-.3.244-.3.47,0,.184.055.448.241.448.206,0,.244-.309.244-.5,0-.148,0-.42-.181-.42" transform="translate(9.599 3.576)" fill="#fff"/>
          <path id="パス_1432" data-name="パス 1432" d="M11.767,7.006c-.234-.314-.506-.639-.75-.988-.287-.41-.584-.84-.863-1.248-.1-.138-.191-.289-.287-.428-.05-.07-.113-.2-.2-.2-.123,0-.241.236-.309.34-.093.146-.184.3-.272.443-.153.254-.292.516-.443.765v.03c0,.045-.018.086-.058.086l-.508-.561a6.614,6.614,0,0,0,.538-.707c.176-.259.329-.551.513-.812.174-.236.309-.377.568-.377a.607.607,0,0,1,.455.289c.1.123.2.287.287.412.216.307.43.624.649.913.337.458.777,1,1.132,1.431ZM11.1,3.759c-.146-.262-.307-.506-.468-.75l.312-.272a6.44,6.44,0,0,1,.458.752Zm.538-.357a7.053,7.053,0,0,0-.47-.757l.314-.262a7.341,7.341,0,0,1,.453.757Z" transform="translate(12.238 3.611)" fill="#fff"/>
          <path id="パス_1433" data-name="パス 1433" d="M13.32,3.163a4.752,4.752,0,0,0-.672.181,1.431,1.431,0,0,0-.928,1.479c.008,1.112.7,1.215,1.386,1.227-.033.209-.065.423-.111.629h-.091a2.215,2.215,0,0,1-.9-.211,1.659,1.659,0,0,1-.87-1.585A2.551,2.551,0,0,1,11.675,3.3c-.506.033-1.071.086-1.569.158-.023-.274-.01-.438-.038-.651a21.348,21.348,0,0,0,2.606-.161c.2-.03.548-.075.667-.093.023.083.073.508.078.551s-.05.048-.1.058" transform="translate(15.255 3.87)" fill="#fff"/>
          <path id="パス_1434" data-name="パス 1434" d="M14.01,6.676c-.136-.163-.259-.335-.4-.49.7-.209,1.356-.516,1.356-1.569A1.462,1.462,0,0,0,14.035,3.1c-.121.961-.357,2.488-1.056,3.053a.644.644,0,0,1-.412.179.653.653,0,0,1-.475-.322A2.069,2.069,0,0,1,11.8,4.876a2.133,2.133,0,0,1,1.962-2.322,1.81,1.81,0,0,1,1.778,2.022,2,2,0,0,1-1.534,2.1m-1.564-2.56a2.271,2.271,0,0,0-.126.76c0,.229.04.817.289.817.091,0,.166-.106.219-.179a5.083,5.083,0,0,0,.641-2.4,1.638,1.638,0,0,0-1.024,1" transform="translate(17.886 3.87)" fill="#fff"/>
          <path id="パス_1435" data-name="パス 1435" d="M17.359,7.119a4.765,4.765,0,0,1-1.68-2.394,5.668,5.668,0,0,1-.246.722,3.535,3.535,0,0,1-.986,1.341,2.673,2.673,0,0,1-.468.314l-.4-.463a2.593,2.593,0,0,0,.543-.357,3.551,3.551,0,0,0,1.122-2.163A10.012,10.012,0,0,0,15.314,2.4l.634.073c.035.005.086.028.086.08a.109.109,0,0,1-.08.1q-.015.336-.015.672a4.21,4.21,0,0,0,.712,2.123,3.913,3.913,0,0,0,1.182,1.122Z" transform="translate(20.571 3.642)" fill="#fff"/>
          <path id="パス_1436" data-name="パス 1436" d="M10.549,9.981c-.206.005-.415.013-.624.013A2.282,2.282,0,0,1,8.061,9.33a2.982,2.982,0,0,1-.5.674l-.3-.262v.3H6.753V7.468a3.166,3.166,0,0,1-.2.335l-.3-.45a6.634,6.634,0,0,0,.8-2.337l.551.249a.073.073,0,0,1,.038.055.085.085,0,0,1-.05.07H8.58v.443L7.956,6.95h.672a6.068,6.068,0,0,1-.314,1.929,1.877,1.877,0,0,0,1.668.614c.241,0,.475-.015.717-.033Zm-3.2-2.623V7.174L8,5.836H7.571V5.461a10.14,10.14,0,0,1-.309.983V9.6a1.9,1.9,0,0,0,.523-.674,7.107,7.107,0,0,1-.37-1.293c.143-.075.282-.151.425-.229a5.144,5.144,0,0,0,.186.908,8.615,8.615,0,0,0,.111-.956Zm3.066-.631v.757H9.626V7.77h.863v.415H9.626v.264h.923v.43H9.631v.468h-.5v-.48H8.575V8.459H9.13V8.185H8.658V7.778H9.13V7.483H8.69V7.091h.44V6.726H8.436V6.294H9.13v-.35H8.479V5.5h.636V5.031l.533.05a.076.076,0,0,1,.073.083c0,.043-.05.075-.078.1V5.5h.765v.795h.277v.433Zm-.48-.782h-.3V6.3h.3Zm0,.782h-.3v.365h.3Z" transform="translate(9.482 7.601)" fill="#fff"/>
          <path id="パス_1437" data-name="パス 1437" d="M12.364,9.989A3.335,3.335,0,0,1,10.935,8.9c0,.128,0,.252,0,.38,0,.578-.148.79-.609.918l-.362-.4c.352-.1.478-.166.478-.631V8.085H9.728c.171.153.337.3.493.47l-.3.319c-.184-.133-.37-.264-.558-.385l.3-.4h-.07V7.677h.855V7.418H9.26c-.005.2-.005.392-.02.589a4.522,4.522,0,0,1-.551,2.05c-.136-.106-.267-.214-.4-.314a4.855,4.855,0,0,0,.468-2.48c0-.591-.023-1.187-.033-1.781h1.572V4.951c.176.01.4.01.568.033.033.008.075.018.075.068a.111.111,0,0,1-.08.1v.335h1.587V5.96H9.265c0,.335.005.664.005,1h1.165V6.724h-.85V6.3h.84V6.015l.485.028c.038,0,.083.005.083.068a.1.1,0,0,1-.063.088V6.3h1.016v.646h.568v.48h-.568v.493l.043-.035.342.478a.132.132,0,0,1,.023.073.062.062,0,0,1-.06.065.214.214,0,0,1-.1-.038c-.254.078-.508.174-.762.259a2.565,2.565,0,0,0,1.26.8Zm-2.045-.737a9.1,9.1,0,0,1-.865.418c-.01.04-.03.113-.073.113-.023,0-.043-.023-.055-.045l-.269-.475a13.658,13.658,0,0,0,1.29-.533Zm1.119-2.538H10.93v.252h.508Zm0,.7H10.93v.269h.508Zm-.508.672v.43a7.816,7.816,0,0,0,.79-.435Z" transform="translate(12.552 7.502)" fill="#fff"/>
          <path id="パス_1438" data-name="パス 1438" d="M12.108,9.677c-.636,0-1.658-.1-1.658-1.147a1.6,1.6,0,0,1,1.044-1.409,8.689,8.689,0,0,1-.181-1.932l.407.033a1.971,1.971,0,0,1,.2.023c.02.005.048.015.048.048a.107.107,0,0,1-.03.06,3.725,3.725,0,0,0-.028.5,3.551,3.551,0,0,0,.083.976.054.054,0,0,0,.04.018,4.843,4.843,0,0,0,1.127-.485c.07.234.113.48.166.719C12.769,7.222,11,7.569,11,8.47c0,.511.659.606.968.606a4.051,4.051,0,0,0,1.441-.191c.023.231.035.465.04.7a7.258,7.258,0,0,1-1.338.093" transform="translate(15.834 7.864)" fill="#fff"/>
          <path id="パス_1439" data-name="パス 1439" d="M13.768,9.951V7.987l-.214.43c-.093-.106-.174-.216-.264-.324v1.919h-.5V8.032a2.493,2.493,0,0,1-.4.428l-.314-.39a3.282,3.282,0,0,0,1.061-1.612h-.863V5.992h.511V5.074l.526.043a.069.069,0,0,1,.073.063.106.106,0,0,1-.073.088v.724h.46a4.1,4.1,0,0,1-.5,1.393,2.3,2.3,0,0,0,.49.553v-.3h2.578V9.951Zm.008-4.631h2.643V5.8H13.775ZM14,6.078h2.105V7.383H14Zm.8,1.982h-.538V8.57H14.8Zm0,.908h-.538v.576H14.8ZM15.6,6.5H14.482v.483H15.6Zm.236,1.559h-.553V8.57h.553Zm0,.908h-.553v.576h.553Z" transform="translate(18.304 7.689)" fill="#fff"/>
          <path id="パス_1440" data-name="パス 1440" d="M15.332,7.482V7.5a4.2,4.2,0,0,0,.611.621l-.279.433a3.859,3.859,0,0,1-.327-.345v1.841h-.516V8.1a2.859,2.859,0,0,1-.412.423l-.335-.412A4.338,4.338,0,0,0,15.281,6.45h-1V5.98h.581V5.067l.558.05a.081.081,0,0,1,.065.075.1.1,0,0,1-.075.083v.7h.563a4.1,4.1,0,0,1-.639,1.5m.282,2.407V9.411h.463V6.3l.531.065a.077.077,0,0,1,.07.075c0,.05-.05.078-.083.1V9.411H17V5.145l.531.06c.038.005.086.025.086.075s-.053.078-.086.1V6.906h.83v.526h-.84V9.4h.916v.488Z" transform="translate(21.325 7.678)" fill="#fff"/>
          <path id="パス_1441" data-name="パス 1441" d="M19.83,7.528a.126.126,0,0,1-.068-.025c-.327.108-.961.36-1.26.5v.82l-.538-.005c.005-.075.005-.156.005-.244v-.3c-.365.171-.546.387-.546.634,0,.211.209.322.624.322a4.053,4.053,0,0,0,1.326-.211l-.02.621a3.738,3.738,0,0,1-1.142.156c-.893,0-1.338-.282-1.338-.853a1.054,1.054,0,0,1,.372-.765,3.375,3.375,0,0,1,.692-.458c-.008-.239-.08-.362-.214-.362a.663.663,0,0,0-.468.2,4.507,4.507,0,0,0-.35.36c-.169.189-.274.314-.337.38-.083-.1-.209-.239-.38-.438a3.82,3.82,0,0,0,1.149-1.441c-.241.033-.511.055-.8.07-.018-.2-.045-.39-.073-.553a7.828,7.828,0,0,0,1.044-.053,4.676,4.676,0,0,0,.153-.734l.614.138a.064.064,0,0,1,.055.063c0,.033-.023.058-.073.08-.023.091-.063.229-.121.407a6.878,6.878,0,0,0,.85-.194l-.05.584c-.252.053-.589.106-1.006.166a3.324,3.324,0,0,1-.282.531.882.882,0,0,1,.259-.038c.277,0,.46.186.541.568.365-.191.78-.387,1.227-.589l.211.6c0,.04-.018.063-.055.063" transform="translate(24.528 7.805)" fill="#fff"/>
          <rect id="長方形_4997" data-name="長方形 4997" width="62" height="62" transform="translate(138.259)" fill="#f68e00"/>
          <path id="パス_1442" data-name="パス 1442" d="M58.146,4.479a9.647,9.647,0,0,1-.933.365c-.41.136-.667.229-.775.277V3.443a9.724,9.724,0,0,0,1.2-.584,4.108,4.108,0,0,0,1-.714h1.766V13.967H58.146Z" transform="translate(85.516 3.251)" fill="#fff"/>
          <path id="パス_1443" data-name="パス 1443" d="M60.113,4.479a9.647,9.647,0,0,1-.933.365c-.41.136-.667.229-.775.277V3.443a9.723,9.723,0,0,0,1.2-.584,4.108,4.108,0,0,0,1-.714h1.766V13.967H60.113Z" transform="translate(88.496 3.251)" fill="#fff"/>
          <path id="パス_1444" data-name="パス 1444" d="M59.31,22.743h9.369a.23.23,0,0,0,.169-.385l-.013-.013-4.661-6.031-.045-.05a.233.233,0,0,0-.171-.073.24.24,0,0,0-.151.058l-.028.033-.043.05L59.189,22.3l-.07.086a.226.226,0,0,0-.038.128.23.23,0,0,0,.229.231" transform="translate(89.52 24.533)" fill="#fff"/>
          <path id="パス_1445" data-name="パス 1445" d="M68.68,19.134H59.293a.23.23,0,0,0-.231.229V26.71a.231.231,0,0,0,.231.231h3.021V22.318a.228.228,0,0,1,.229-.229H65.35a.228.228,0,0,1,.229.229v4.623h3.1a.23.23,0,0,0,.229-.231V19.363a.23.23,0,0,0-.229-.229" transform="translate(89.492 28.993)" fill="#fff"/>
          <path id="パス_1446" data-name="パス 1446" d="M81.521,18.369H72.23A.225.225,0,0,0,72,18.59v9.382a.225.225,0,0,0,.229.221h9.291a.223.223,0,0,0,.226-.221V18.59a.223.223,0,0,0-.226-.221M76.435,24.5a.223.223,0,0,1-.226.221H73.435a.223.223,0,0,1-.229-.221V22.808a.223.223,0,0,1,.229-.221h2.774a.223.223,0,0,1,.226.221Zm0-3.119a.223.223,0,0,1-.226.221H73.435a.223.223,0,0,1-.229-.221V19.689a.223.223,0,0,1,.229-.221h2.774a.223.223,0,0,1,.226.221ZM80.678,24.5a.223.223,0,0,1-.226.221H77.675a.223.223,0,0,1-.226-.221V22.808a.223.223,0,0,1,.226-.221h2.777a.223.223,0,0,1,.226.221Zm0-3.119a.223.223,0,0,1-.226.221H77.675a.223.223,0,0,1-.226-.221V19.689a.223.223,0,0,1,.226-.221h2.777a.223.223,0,0,1,.226.221Z" transform="translate(109.097 27.833)" fill="#fff"/>
          <path id="パス_1447" data-name="パス 1447" d="M72.809,9.711H63.716a.222.222,0,0,0-.221.224V41.008a.224.224,0,0,0,.221.224h9.092a.224.224,0,0,0,.224-.224V9.935a.223.223,0,0,0-.224-.224M67.4,37.69a.122.122,0,0,1-.121.121H65.2a.12.12,0,0,1-.118-.121V35.371a.12.12,0,0,1,.118-.121H67.28a.122.122,0,0,1,.121.121Zm0-5.33a.121.121,0,0,1-.121.121H65.2a.119.119,0,0,1-.118-.121V30.041a.118.118,0,0,1,.118-.118H67.28a.12.12,0,0,1,.121.118Zm0-5.327a.121.121,0,0,1-.121.121H65.2a.119.119,0,0,1-.118-.121V24.714a.12.12,0,0,1,.118-.121H67.28a.122.122,0,0,1,.121.121Zm0-5.327a.122.122,0,0,1-.121.121H65.2a.12.12,0,0,1-.118-.121V19.385a.118.118,0,0,1,.118-.118H67.28a.12.12,0,0,1,.121.118Zm0-5.327a.12.12,0,0,1-.121.118H65.2a.118.118,0,0,1-.118-.118V14.057a.118.118,0,0,1,.118-.118H67.28a.12.12,0,0,1,.121.118ZM71.483,37.69a.121.121,0,0,1-.121.121h-2.08a.121.121,0,0,1-.121-.121V35.371a.121.121,0,0,1,.121-.121h2.08a.121.121,0,0,1,.121.121Zm0-5.33a.119.119,0,0,1-.121.121h-2.08a.119.119,0,0,1-.121-.121V30.041a.119.119,0,0,1,.121-.118h2.08a.119.119,0,0,1,.121.118Zm0-5.327a.119.119,0,0,1-.121.121h-2.08a.119.119,0,0,1-.121-.121V24.714a.121.121,0,0,1,.121-.121h2.08a.121.121,0,0,1,.121.121Zm0-5.327a.121.121,0,0,1-.121.121h-2.08a.121.121,0,0,1-.121-.121V19.385a.119.119,0,0,1,.121-.118h2.08a.119.119,0,0,1,.121.118Zm0-5.327a.119.119,0,0,1-.121.118h-2.08a.119.119,0,0,1-.121-.118V14.057a.119.119,0,0,1,.121-.118h2.08a.119.119,0,0,1,.121.118Z" transform="translate(96.208 14.715)" fill="#fff"/>
          <path id="長方形_4998" data-name="長方形 4998" d="M.074,0H9.652a.074.074,0,0,1,.074.074V2.169a.075.075,0,0,1-.075.075H.074A.074.074,0,0,1,0,2.17V.074A.074.074,0,0,1,.074,0Z" transform="translate(181.107 43.202)" fill="#fff"/>
          <path id="パス_1448" data-name="パス 1448" d="M77.292,12.149a.238.238,0,0,0-.229-.174.245.245,0,0,0-.131.043l-.015.013-.078.1L67.9,23.462l-.04.055a.265.265,0,0,0-.078.176V37.625a.222.222,0,0,0,.224.221h9.082a.222.222,0,0,0,.224-.221V12.242a.231.231,0,0,0-.023-.093M73.53,18.306l.065-.08c.611-.785,1.64-2.052,2.143-2.669l.065-.08a.268.268,0,0,1,.2-.093.253.253,0,0,1,.246.209v2.867a.255.255,0,0,1-.246.254l-.01,0-.013,0H73.749l-.01,0-.013,0a.255.255,0,0,1-.246-.254.249.249,0,0,1,.05-.153M72.116,34.182a.22.22,0,0,1-.221.221H69.183a.22.22,0,0,1-.221-.221v-1.7a.222.222,0,0,1,.221-.221h2.711a.222.222,0,0,1,.221.221Zm0-3.134a.22.22,0,0,1-.221.221H69.183a.22.22,0,0,1-.221-.221v-1.7a.22.22,0,0,1,.221-.221h2.711a.22.22,0,0,1,.221.221Zm0-3.134a.222.222,0,0,1-.221.221H69.183a.222.222,0,0,1-.221-.221v-1.7a.22.22,0,0,1,.221-.221h2.711a.22.22,0,0,1,.221.221Zm.008-6.869v3.738A.222.222,0,0,1,71.9,25H69.191a.222.222,0,0,1-.224-.221v-.47a.286.286,0,0,1,.018-.083L69,24.2l.018-.028.028-.038c.345-.5,1.909-2.42,2.566-3.225l.065-.08a.253.253,0,0,1,.448.113Zm4.135,13.137a.222.222,0,0,1-.224.221H73.326a.22.22,0,0,1-.221-.221v-1.7a.222.222,0,0,1,.221-.221h2.709a.224.224,0,0,1,.224.221Zm0-3.134a.222.222,0,0,1-.224.221H73.326a.22.22,0,0,1-.221-.221v-1.7a.22.22,0,0,1,.221-.221h2.709a.222.222,0,0,1,.224.221Zm0-3.134a.224.224,0,0,1-.224.221H73.326a.222.222,0,0,1-.221-.221v-1.7a.22.22,0,0,1,.221-.221h2.709a.222.222,0,0,1,.224.221Zm0-3.134a.222.222,0,0,1-.224.219H73.326a.22.22,0,0,1-.221-.219v-1.7a.22.22,0,0,1,.221-.221h2.709a.222.222,0,0,1,.224.221Zm0-3.136a.222.222,0,0,1-.224.221H73.326a.22.22,0,0,1-.221-.221v-1.7a.221.221,0,0,1,.221-.224h2.709a.223.223,0,0,1,.224.224Z" transform="translate(102.709 18.145)" fill="#fff"/>
          <path id="パス_1449" data-name="パス 1449" d="M63.54,2.546c-.118.34-.259.664-.4.988V6.918H62.62V4.407a2.348,2.348,0,0,1-.34.483L61.943,4.5a5.688,5.688,0,0,0,1.084-2.362l.586.254a.076.076,0,0,1,.045.065c0,.058-.08.086-.118.091M63.4,6.779V6.321h1.137V5.195h-.916V4.732h.916V3.763H63.485v-.5h2.659v.5H65.069v.968H66v.463h-.933V6.321h1.187v.458Zm1.456-3.536a5.148,5.148,0,0,0-.843-.677l.365-.445a5.524,5.524,0,0,1,.438.372,4.4,4.4,0,0,1,.37.35Z" transform="translate(93.857 3.214)" fill="#fff"/>
          <path id="パス_1450" data-name="パス 1450" d="M67.672,5.7a6.447,6.447,0,0,0-.619-.44,2.683,2.683,0,0,1-.938,1.3l-.473-.3a2.23,2.23,0,0,0,.928-1.232,3.23,3.23,0,0,0-.85-.309,4.705,4.705,0,0,1-.219.531c-.2.425-.443.858-.905.858a.721.721,0,0,1-.651-.8,1.121,1.121,0,0,1,.843-1.079,1.974,1.974,0,0,1,.556-.048,7.922,7.922,0,0,0,.332-1.26l-.971.166-.1-.614h.05a6.622,6.622,0,0,0,1.534-.189c.068.083.146.163.221.244-.1.322-.2.644-.3.966-.078.246-.151.49-.236.729a3.439,3.439,0,0,1,.85.267,4.7,4.7,0,0,0,.151-1.064c.181.123.362.239.536.372a5.362,5.362,0,0,1-.169.926,5.883,5.883,0,0,1,.692.387c-.08.2-.166.4-.259.6M64.46,5.273c0,.133.05.249.171.249a.233.233,0,0,0,.194-.1,2.8,2.8,0,0,0,.367-.782c-.319.028-.732.184-.732.629" transform="translate(96.889 3.448)" fill="#fff"/>
          <path id="パス_1451" data-name="パス 1451" d="M66.525,5.423a5.653,5.653,0,0,1-.309,1.243l-.392-.211a5.553,5.553,0,0,0,.292-1.346l.44.184a.061.061,0,0,1,.03.053.082.082,0,0,1-.06.078M69.407,5.2V4.686H67.953v.528h-.443V4.842l-.319.141c-.018-.058-.035-.118-.048-.179l-.083.018v2.1H66.6V4.875c-.216.015-.435.04-.651.068l-.058-.45a1.11,1.11,0,0,0,.221-.028.2.2,0,0,0,.118-.088c.118-.158.219-.332.327-.5a5.2,5.2,0,0,0-.586-.252V3.391a5.606,5.606,0,0,0,.747-1.273l.475.262c.035.023.1.048.1.106,0,.088-.083.088-.136.083-.206.269-.407.541-.631.792.083.053.169.093.254.151.083-.136.161-.277.241-.418l.412.292a.091.091,0,0,1,.045.073c0,.073-.07.068-.113.068-.239.317-.463.641-.714.938a3.347,3.347,0,0,0,.387-.03,2.207,2.207,0,0,0-.088-.267l.352-.143c.078.246.141.5.209.75V4.266H69.9V5.2Zm-2.1.983c-.065-.287-.123-.581-.171-.873l.34-.148c.053.294.111.591.181.88Zm1.26-1.089a3.723,3.723,0,0,1-.141.87,1.9,1.9,0,0,1-.762,1.031l-.4-.324c.679-.425.79-.938.815-1.8l.475.088a.063.063,0,0,1,.06.063.086.086,0,0,1-.05.068m.307-1.879v.377h.807v.423H67.621V3.592h.755V3.207h-.958V2.752h.953V2.146l.511.04a.069.069,0,0,1,.07.063.1.1,0,0,1-.07.086v.418h.994v.463Zm1.152,3.529a1.616,1.616,0,0,1-.775.194c-.324,0-.536-.184-.536-.591V4.875l.465.05c.028.008.07.018.07.058a.091.091,0,0,1-.06.075V6.137c0,.257.03.322.254.322a1.218,1.218,0,0,0,.616-.287Z" transform="translate(99.736 3.21)" fill="#fff"/>
          <path id="パス_1452" data-name="パス 1452" d="M68.686,6.291c-.151.023-.3.04-.455.055a5.226,5.226,0,0,1-.317-1.962,10.516,10.516,0,0,1,.229-2.012c.136.033.277.07.415.108a1.088,1.088,0,0,1,.176.053c.028.01.053.023.053.058s-.04.07-.078.08a8.4,8.4,0,0,0-.264,2.13,2.984,2.984,0,0,0,.045.667c.091-.257.181-.518.272-.775a4.313,4.313,0,0,0,.327.415,4.86,4.86,0,0,0-.4,1.182m2.244-2.234c0,.231,0,.463-.008.694a4.115,4.115,0,0,1-.1.86,1.941,1.941,0,0,1-.667,1.114,5.106,5.106,0,0,0-.5-.282,2.054,2.054,0,0,0,.717-1.733c.008-.211.008-.42.005-.634a6.867,6.867,0,0,1-.82.02c-.086,0-.171-.01-.259-.015-.02-.186-.03-.372-.045-.558a5.116,5.116,0,0,0,.589.053,4.988,4.988,0,0,0,.513,0c0-.294-.023-.584-.033-.873-.01-.153-.023-.317-.043-.475.146.025.289.043.435.063a.638.638,0,0,1,.181.033c.03.005.063.02.063.063a.094.094,0,0,1-.063.075c0,.35.018.7.02,1.051a3.181,3.181,0,0,0,.812-.191c.005.2-.013.4-.005.594a4.541,4.541,0,0,1-.8.141" transform="translate(102.902 3.378)" fill="#fff"/>
          <path id="パス_1453" data-name="パス 1453" d="M71.215,6.832c-.093.025-.184.045-.279.065-.043-.08-.284-.455-.284-.455,0-.015.018-.02.028-.02a2.914,2.914,0,0,0,.677-.2.966.966,0,0,0,.674-.858c.005-.41-.214-.636-.561-.639-.531-.008-1.016.566-1.192,1.117-.151-.028-.3-.063-.455-.086a5.812,5.812,0,0,1-.043-.807,10.679,10.679,0,0,1,.184-1.728l.528.161a.065.065,0,0,1,.053.063.1.1,0,0,1-.07.086A6.442,6.442,0,0,0,70.3,4.827a1.681,1.681,0,0,1,1.32-.634,1.033,1.033,0,0,1,1.011,1.1c-.01.968-.712,1.338-1.416,1.537M71.476,3.4a4.521,4.521,0,0,0-.953-.873c.118-.136.231-.279.35-.415a3.336,3.336,0,0,1,1.019.858c-.143.141-.277.289-.415.43" transform="translate(105.728 3.207)" fill="#fff"/>
          <path id="パス_1454" data-name="パス 1454" d="M74.461,6.346c-.41,0-.591-.309-.591-.762,0-.473.073-.938.1-1.414.005-.068.005-.143.005-.214,0-.1-.013-.2-.123-.2-.264,0-.9.611-1.046.868,0,.674.01,1.368.038,2.042l-.561.063c0-.558.005-1.127.005-1.69-.2.34-.415.664-.619.994-.141-.148-.267-.319-.4-.478a8.6,8.6,0,0,0,.991-1.532V3.771c-.254.05-.5.118-.757.161-.03-.181-.058-.362-.1-.538a4.773,4.773,0,0,0,.845-.136c0-.367-.015-.737-.03-1.1a3.289,3.289,0,0,1,.581.063.073.073,0,0,1,.058.075.057.057,0,0,1-.035.058c-.015.262-.03.516-.033.772.08-.023.158-.06.241-.086.033.138.058.277.091.41-.081.1-.153.211-.231.324l.008.015a1.774,1.774,0,0,1,1.165-.626c.307,0,.475.287.475.621a6.726,6.726,0,0,1-.055.8c-.033.282-.073.563-.078.853v.015c-.005.118.01.287.141.287.284,0,.47-.458.584-.712.068.244.136.488.2.734a1.011,1.011,0,0,1-.87.578" transform="translate(107.992 3.275)" fill="#fff"/>
          <path id="パス_1455" data-name="パス 1455" d="M74.994,6.714c-.377,0-.988-.158-.988-.737a.621.621,0,0,1,.656-.6.674.674,0,0,1,.629.5,1.348,1.348,0,0,1,.045.3.84.84,0,0,0,.581-.817.764.764,0,0,0-.8-.843c-.687,0-1.082.656-1.509,1.2-.141-.151-.282-.3-.425-.445a11.677,11.677,0,0,0,1.725-2.329c-.362.088-.727.161-1.092.236l-.1-.649a1.414,1.414,0,0,0,.146.005,4.414,4.414,0,0,0,.606-.055,7.332,7.332,0,0,0,.833-.153,2.555,2.555,0,0,0,.287-.1l.314.443a1.533,1.533,0,0,0-.138.121,4.62,4.62,0,0,0-.294.37c-.219.3-.423.606-.634.908a1.584,1.584,0,0,1,.42-.048,1.154,1.154,0,0,1,1.21,1.24,1.364,1.364,0,0,1-1.474,1.449m-.387-.9c-.085,0-.141.04-.141.148,0,.2.259.231.377.231-.023-.158-.068-.38-.236-.38" transform="translate(110.892 3.382)" fill="#fff"/>
          <path id="パス_1456" data-name="パス 1456" d="M65.36,9.154a5.516,5.516,0,0,0-1.029-.616.8.8,0,0,1-.257.7,1.165,1.165,0,0,1-.624.2c-.45-.005-1.134-.161-1.124-.835a.816.816,0,0,1,.752-.772,2.49,2.49,0,0,1,.362-.01,2.219,2.219,0,0,1,.317.033c0-.171-.008-.342-.015-.506q-.226.011-.46.008c-.35-.005-.843-.038-.835-.586a1.032,1.032,0,0,1,.118-.44l.488-.025a1.232,1.232,0,0,0-.106.367c0,.169.189.171.287.174a2.913,2.913,0,0,0,.493-.015c-.015-.254-.015-.516-.015-.77a11.232,11.232,0,0,0-1.537.121c-.028-.189-.048-.372-.068-.561.533-.033,1.066-.063,1.6-.075-.005-.166,0-.332,0-.5l0-.229c.128.018.254.03.382.048.063.013.136.013.2.03.023.005.05.015.05.053a.088.088,0,0,1-.06.08c-.013.163-.015.324-.018.488q.611-.023,1.215-.03l0,.543c-.4-.005-.81-.013-1.21,0-.005.262,0,.516.005.777a5.357,5.357,0,0,0,1.165-.226l-.033.606c-.372.058-.742.106-1.117.131,0,.219.008.443.018.659a5.284,5.284,0,0,1,1.366.654c-.1.174-.206.35-.312.518m-1.587-.775a.99.99,0,0,0-.4-.086c-.166,0-.48.06-.485.312s.3.324.46.327a.385.385,0,0,0,.43-.435l0-.118" transform="translate(94.107 7.304)" fill="#fff"/>
          <path id="パス_1457" data-name="パス 1457" d="M66.724,8.989a2.527,2.527,0,0,1-1.3.511c-.1-.171-.174-.352-.279-.516.511-.048,1.439-.214,1.439-1a.539.539,0,0,0-.6-.548,1.375,1.375,0,0,0-.8.327,1.907,1.907,0,0,0-.473.679l-.506-.272a4.381,4.381,0,0,0,.611-1.824c-.179.01-.352.018-.528.018h-.37c-.013-.2-.035-.39-.04-.586a5.289,5.289,0,0,0,.664.043c.108,0,.219,0,.327-.008a8.939,8.939,0,0,0,.05-1.009l.41.058a1.561,1.561,0,0,1,.184.033c.03.01.068.028.068.075a.137.137,0,0,1-.083.106c-.018.234-.03.468-.063.7A6.963,6.963,0,0,0,66.829,5.5l-.01.621a12.627,12.627,0,0,1-1.464.2,6.916,6.916,0,0,1-.214.936,1.7,1.7,0,0,1,.991-.287.977.977,0,0,1,1.014,1.071,1.267,1.267,0,0,1-.423.953" transform="translate(96.798 7.28)" fill="#fff"/>
          <path id="パス_1458" data-name="パス 1458" d="M68.888,8.706a3.234,3.234,0,0,1-1.741.734c-.136-.176-.264-.357-.4-.516a5.245,5.245,0,0,0,1.049-.244,1.291,1.291,0,0,0,.994-1.245c0-.7-.362-.936-.9-.936a4.051,4.051,0,0,0-1.567.521,3.6,3.6,0,0,1-.586.206c-.023-.075-.221-.679-.221-.694,0-.055.058-.038.086-.038a3.62,3.62,0,0,0,1.114-.284,4.164,4.164,0,0,1,1.333-.287,1.331,1.331,0,0,1,1.328,1.459,1.754,1.754,0,0,1-.488,1.323m-.553-2.93a6.112,6.112,0,0,0-.458-.649l.342-.2a4.208,4.208,0,0,1,.443.641Zm.621-.171a4.6,4.6,0,0,0-.468-.689l.352-.2a3.891,3.891,0,0,1,.438.677Z" transform="translate(99.269 7.148)" fill="#fff"/>
          <path id="パス_1459" data-name="パス 1459" d="M69.557,9.356a8.6,8.6,0,0,0-1.333-1.5,3.99,3.99,0,0,0-.387-.337,1.375,1.375,0,0,1-.224-.2.472.472,0,0,1-.08-.279.581.581,0,0,1,.2-.44c.214-.229.433-.44.641-.672.309-.352.624-.7.926-1.077.128.108.259.211.385.319a1.17,1.17,0,0,1,.148.123.089.089,0,0,1,.02.048c0,.073-.1.083-.148.073-.289.279-.594.553-.888.838-.126.118-.236.249-.362.367-.058.058-.123.108-.179.171A.338.338,0,0,0,68.171,7a.2.2,0,0,0,.083.156c.186.176.395.324.584.49a8.682,8.682,0,0,1,1.177,1.268c-.153.146-.307.3-.458.445" transform="translate(102.325 7.351)" fill="#fff"/>
          <path id="パス_1460" data-name="パス 1460" d="M69.718,7.913c-.156-.01-.314-.028-.465-.043a3.538,3.538,0,0,1-.181-1.2c.02-.576.116-1.147.184-1.715l.415.07c.05.013.116.015.163.033a.055.055,0,0,1,.04.055c0,.035-.035.06-.058.078a7.338,7.338,0,0,0-.226,1.519c0,.106,0,.211,0,.319,0,.01-.005.038.013.038s.023-.043.028-.048c.065-.169.131-.329.2-.493l.257.382a4.694,4.694,0,0,0-.372,1.009m1.8-2.742c-.005.621-.008,1.263-.03,1.889a2.624,2.624,0,0,1-1.061,2.392,2.5,2.5,0,0,0-.475-.289c-.013-.005-.028-.008-.025-.028s.023-.038.038-.048a1.762,1.762,0,0,0,.309-.2,2.438,2.438,0,0,0,.667-1.866c.023-.7,0-1.416-.048-2.115a3.231,3.231,0,0,1,.415.058A1.563,1.563,0,0,1,71.527,5a.054.054,0,0,1,.043.063.209.209,0,0,1-.053.108" transform="translate(104.656 7.433)" fill="#fff"/>
          <path id="パス_1461" data-name="パス 1461" d="M73.961,7.212a.118.118,0,0,1-.065-.025c-.307.111-.9.362-1.185.5v.82L72.206,8.5c.005-.075.005-.156.005-.246v-.3c-.342.171-.513.387-.513.631,0,.214.2.327.586.327A3.536,3.536,0,0,0,73.529,8.7l-.018.624a3.3,3.3,0,0,1-1.074.153c-.838,0-1.258-.282-1.258-.853a1.076,1.076,0,0,1,.352-.765,3.022,3.022,0,0,1,.649-.46c-.008-.239-.075-.362-.2-.362a.613.613,0,0,0-.44.2,4.171,4.171,0,0,0-.329.362c-.156.186-.257.314-.314.377-.078-.1-.2-.239-.357-.435a3.81,3.81,0,0,0,1.079-1.444c-.226.03-.48.053-.755.068-.015-.2-.04-.39-.068-.553a7.319,7.319,0,0,0,.981-.053,4.916,4.916,0,0,0,.146-.737l.576.138a.066.066,0,0,1,.053.065c0,.03-.023.058-.068.078-.023.091-.06.229-.116.41a6.189,6.189,0,0,0,.8-.2l-.045.589c-.236.05-.553.106-.946.163a3.485,3.485,0,0,1-.264.533.777.777,0,0,1,.244-.038c.259,0,.43.186.508.568.342-.191.732-.387,1.154-.589l.2.6c0,.043-.015.063-.05.063" transform="translate(106.88 7.319)" fill="#fff"/>
        </g>
      </g>
    </g>
    <rect id="長方形_5014" data-name="長方形 5014" width="60" height="62" transform="translate(10776 5364)" fill="none"/>
  </g>
</svg>
