<svg xmlns="http://www.w3.org/2000/svg" xmlns:xlink="http://www.w3.org/1999/xlink" width="270" height="62" viewBox="0 0 270 62">
  <defs>
    <clipPath id="clip-path">
      <rect id="長方形_5003" data-name="長方形 5003" width="200.608" height="62" fill="none"/>
    </clipPath>
  </defs>
  <g id="グループ_245" data-name="グループ 245" transform="translate(-815 -5189)">
    <g id="グループ_243" data-name="グループ 243" transform="translate(815 5189)">
      <rect id="長方形_5000" data-name="長方形 5000" width="60.516" height="61.998" transform="translate(140.093 0.002)" fill="#002555"/>
      <g id="グループ_237" data-name="グループ 237" transform="translate(0 0)">
        <g id="グループ_236" data-name="グループ 236" clip-path="url(#clip-path)">
          <path id="パス_1462" data-name="パス 1462" d="M58.285,4.478a9.646,9.646,0,0,1-.933.365c-.41.136-.667.229-.775.277V3.442a9.724,9.724,0,0,0,1.2-.584,4.107,4.107,0,0,0,1-.714h1.766V13.966H58.285Z" transform="translate(85.726 3.25)" fill="#fff"/>
          <path id="パス_1463" data-name="パス 1463" d="M61.9,3.867H58.689V2.144H64.1V3.618l-2.5,10.35H59.421Z" transform="translate(88.926 3.249)" fill="#fff"/>
          <path id="パス_1464" data-name="パス 1464" d="M92.356,23.1A8.122,8.122,0,0,0,84.541,15a8.11,8.11,0,0,0-15.295,0,8.107,8.107,0,0,0-4.683,14.5,8.106,8.106,0,0,0,12.37,8.942A8.109,8.109,0,0,0,89.239,29.49,8.106,8.106,0,0,0,92.356,23.1M83.371,17.7a6.481,6.481,0,0,1-5.523,6.4,6.429,6.429,0,0,1,5.44-7.395,6.456,6.456,0,0,1,.083.994m-6.449,18.64a6.465,6.465,0,0,1-.058-9.231,6.46,6.46,0,0,1,.058,9.231M70.5,16.7a6.431,6.431,0,0,1,5.44,7.4,6.431,6.431,0,0,1-5.44-7.4M75.33,26a6.457,6.457,0,0,1-8.763,2.852A6.457,6.457,0,0,1,75.33,26m3.106-.043a6.462,6.462,0,0,1,8.806,2.882,6.455,6.455,0,0,1-8.806-2.882M76.895,11.222a6.488,6.488,0,0,1,5.938,3.894,8.137,8.137,0,0,0-5.938,4.56,8.146,8.146,0,0,0-5.941-4.56,6.489,6.489,0,0,1,5.941-3.894M63.066,23.1a6.488,6.488,0,0,1,5.782-6.441A8.306,8.306,0,0,0,68.78,17.7a8.094,8.094,0,0,0,2.651,5.994,8.13,8.13,0,0,0-6.22,4.215,6.462,6.462,0,0,1-2.145-4.8m2.81,8.647a6.386,6.386,0,0,1,.141-1.343,8.1,8.1,0,0,0,7.445-.2,8.067,8.067,0,0,0,2.153,7.136,6.468,6.468,0,0,1-9.739-5.589M87.914,31.7a6.47,6.47,0,0,1-9.676,5.627A8.079,8.079,0,0,0,80.315,30.2a8.1,8.1,0,0,0,7.465.2,6.267,6.267,0,0,1,.133,1.3m-5.508-8.054a8.094,8.094,0,0,0,2.6-5.946,8.308,8.308,0,0,0-.068-1.036A6.467,6.467,0,0,1,88.593,27.89a8.126,8.126,0,0,0-6.187-4.246" transform="translate(93.081 14.527)" fill="#fff"/>
          <path id="パス_1465" data-name="パス 1465" d="M64.292,3.544c-.038.229-.088.453-.146.672a5.558,5.558,0,0,1-.976,2.125,5.557,5.557,0,0,0-.493-.395,5.161,5.161,0,0,0,1.077-3l.591.443a.076.076,0,0,1,.025.063.1.1,0,0,1-.078.091m1.67,2.591A9.574,9.574,0,0,0,64.9,3.345l.468-.392a10.171,10.171,0,0,1,1.117,2.716Zm.093-2.968a.536.536,0,0,1-.453-.594.535.535,0,0,1,.453-.591.541.541,0,0,1,.455.591.541.541,0,0,1-.455.594m0-.908c-.133,0-.236.143-.236.314s.1.317.236.317.244-.148.244-.317a.289.289,0,0,0-.244-.314" transform="translate(94.969 3.004)" fill="#fff"/>
          <path id="パス_1466" data-name="パス 1466" d="M67.329,3.485c-.246-.015-.443-.015-.644-.015-.229-.008-1.713,0-2.264.02-.01-.219-.023-.5-.028-.659-.005-.083.03-.088.058-.083a1.749,1.749,0,0,0,.252.038c.264.018.664.013.968.013.631,0,.976-.018,1.68-.028-.015.219-.018.5-.023.714" transform="translate(97.569 4.162)" fill="#fff"/>
          <path id="パス_1467" data-name="パス 1467" d="M67.833,4.983a6.456,6.456,0,0,0-1.275-.868c0,.088,0,.176,0,.257V5.6c0,.322.01.649.013.971h-.609c.03-.7.035-1.4.035-2.1,0-.812-.005-1.627-.02-2.435l.624.07c.033.008.06.023.06.065a.114.114,0,0,1-.068.1c-.015.5-.023.994-.033,1.492a1.877,1.877,0,0,0,.153-.267,5.864,5.864,0,0,1,1.464.916c-.116.191-.229.385-.342.573" transform="translate(99.942 3.084)" fill="#fff"/>
          <path id="パス_1468" data-name="パス 1468" d="M70.526,3.986c-.214,0-.425-.005-.639-.005H69.2A2.679,2.679,0,0,1,67.963,6.59a4.133,4.133,0,0,0-.49-.407,2.154,2.154,0,0,0,1.154-2.206c-.5.02-1,.043-1.494.07,0-.224-.005-.448-.018-.672.277.01.556.018.83.018h.531a1.132,1.132,0,0,0,.161-.008c0-.078,0-.151,0-.234,0-.37-.013-.742-.03-1.114l.6.078c.028.005.065.02.065.065a.114.114,0,0,1-.053.086L69.213,3.38c.445-.015.888-.033,1.336-.065,0,.224-.018.448-.023.672" transform="translate(101.694 3.088)" fill="#fff"/>
          <path id="パス_1469" data-name="パス 1469" d="M71.532,3.485c-.247-.015-.443-.015-.641-.015-.231-.008-1.549,0-2.1.02-.008-.219-.023-.5-.025-.659-.005-.083.03-.088.055-.083a1.75,1.75,0,0,0,.252.038c.267.018.943.013,1.248.013.629,0,.531-.018,1.235-.028-.015.219-.018.5-.023.714" transform="translate(104.193 4.162)" fill="#fff"/>
          <path id="パス_1470" data-name="パス 1470" d="M71.223,4.446a5.282,5.282,0,0,0-.986-.792c.108-.181.2-.367.3-.548a4.154,4.154,0,0,1,1,.777Zm-.649,1.962c-.028-.063-.289-.584-.289-.611s.043-.043.06-.048a4.623,4.623,0,0,0,.79-.244,6.683,6.683,0,0,0,2.271-1.771c.015.272.04.543.07.807a5.917,5.917,0,0,1-2.9,1.866m1.232-3.169a4.688,4.688,0,0,0-.913-.649c.1-.176.191-.362.277-.548a3.3,3.3,0,0,1,.953.644c-.1.191-.206.372-.317.553" transform="translate(106.424 3.094)" fill="#fff"/>
          <path id="パス_1471" data-name="パス 1471" d="M72.286,4.129a6.677,6.677,0,0,0-.345-1.17l.47-.191a5.962,5.962,0,0,1,.332,1.162c-.151.075-.307.136-.458.2m2.3-1.212a5.3,5.3,0,0,1-.745,2.11,2.6,2.6,0,0,1-1.175.911c-.118-.148-.244-.287-.365-.438,1.215-.365,1.647-1.429,1.778-2.923l.533.206a.051.051,0,0,1,.03.048.1.1,0,0,1-.058.086m-1.5.926a6.937,6.937,0,0,0-.332-1.127c.156-.055.309-.106.465-.166a5.672,5.672,0,0,1,.319,1.127c-.151.048-.3.106-.453.166" transform="translate(109.006 3.863)" fill="#fff"/>
          <path id="パス_1472" data-name="パス 1472" d="M76.171,3.415a5.277,5.277,0,0,1-1.409,2.654,2.942,2.942,0,0,1-.807.548c-.161-.174-.332-.34-.506-.493a3.352,3.352,0,0,0,2.078-2.618c-.734.01-1.471.063-2.208.1-.013-.216-.02-.435-.023-.654.2.005.395.018.591.018.387,0,.772-.013,1.16-.018.2-.005.4,0,.6-.015a.312.312,0,0,0,.219-.08,3.778,3.778,0,0,1,.387.463c0,.043-.06.075-.08.1M76.422,3a.5.5,0,0,1-.433-.541.446.446,0,1,1,.868,0A.5.5,0,0,1,76.422,3m0-.835a.268.268,0,0,0-.231.294.26.26,0,0,0,.231.282.265.265,0,0,0,.231-.282.269.269,0,0,0-.231-.294" transform="translate(111.059 2.889)" fill="#fff"/>
          <path id="パス_1473" data-name="パス 1473" d="M77.916,2.779a.324.324,0,0,0-.053-.013,1.455,1.455,0,0,0-.548.106,1.82,1.82,0,0,0-.931,1.6c-.04,1.044.692,1.192,1.31,1.215-.035.2-.075.4-.121.594l-.088-.005a2.126,2.126,0,0,1-.843-.211A1.482,1.482,0,0,1,75.909,4.6a3.136,3.136,0,0,1,.47-1.577c-.465.08-.921.174-1.376.289-.018-.2-.043-.4-.058-.6.418-.05.83-.106,1.243-.174a8.845,8.845,0,0,0,1.665-.41c.02.086.116.543.116.6s-.025.05-.053.05M77.562,4.1c-.073-.252-.156-.5-.244-.737l.3-.158a5.549,5.549,0,0,1,.229.727Zm.483-.186a5.49,5.49,0,0,0-.246-.777l.294-.166c.088.252.171.5.244.757Z" transform="translate(113.559 3.228)" fill="#fff"/>
          <path id="パス_1474" data-name="パス 1474" d="M62.857,4.757H65.77V9.3H62.857Zm2.4.538H63.347V6.09h1.912Zm0,1.323H63.347V7.4h1.912Zm0,1.285H63.347v.878h1.912Z" transform="translate(95.242 7.209)" fill="#fff"/>
          <path id="パス_1475" data-name="パス 1475" d="M65.6,7.57c-.06-.091-.123-.171-.176-.267V9.5h-.46V7.457a1.968,1.968,0,0,1-.335.6l-.317-.377a3.6,3.6,0,0,0,.624-1.5h-.448V5.7h.473V4.66l.463.038a.072.072,0,0,1,.073.07.1.1,0,0,1-.073.083V5.7h.262v.48h-.267v.259a3.505,3.505,0,0,0,.43.709c-.083.143-.163.287-.249.425M66.465,8.6a3.25,3.25,0,0,1-.616.765l-.324-.329a1.847,1.847,0,0,0,.6-.817l.418.287a.052.052,0,0,1,.018.043c0,.058-.055.063-.091.053m.986-3.282v.329h.667V6.926H65.8V5.643h.609V5.314h-.745V4.879h2.591v.435Zm-.226,2.83c0,.246.005.5.005.739,0,.506-.294.611-.636.667l-.264-.4c.179-.038.41-.038.41-.337V8.144H65.688V7.729h2.578v.415ZM66,7.145h1.934v.4H66Zm.42-1.1H66.2v.506h.221Zm.619-.734h-.234v.329h.234Zm0,.734h-.234v.506h.234Zm1.034,3.33a3.928,3.928,0,0,1-.694-.863l.392-.272a2.745,2.745,0,0,0,.631.785Zm-.392-3.33h-.247v.506h.247Z" transform="translate(97.451 7.062)" fill="#fff"/>
          <path id="パス_1476" data-name="パス 1476" d="M69.609,7.1a.116.116,0,0,1-.063-.028c-.307.113-.9.362-1.18.5v.82l-.5-.008c.005-.073.005-.153.005-.244v-.3c-.34.169-.511.387-.511.631,0,.214.2.324.584.324a3.549,3.549,0,0,0,1.237-.211l-.018.621a3.277,3.277,0,0,1-1.069.153c-.833,0-1.25-.279-1.25-.85a1.073,1.073,0,0,1,.35-.765,3.064,3.064,0,0,1,.646-.458c-.01-.241-.075-.362-.2-.362a.611.611,0,0,0-.44.2,4.587,4.587,0,0,0-.329.362c-.156.186-.254.314-.314.377-.075-.1-.194-.239-.352-.435A3.841,3.841,0,0,0,67.277,5.99c-.226.033-.478.053-.75.068-.018-.2-.043-.387-.07-.553a6.843,6.843,0,0,0,.976-.053,4.466,4.466,0,0,0,.146-.732l.573.136a.066.066,0,0,1,.053.065c0,.033-.023.058-.07.078-.02.093-.058.231-.113.41a6.167,6.167,0,0,0,.795-.2l-.045.586c-.236.053-.551.106-.943.163a3.077,3.077,0,0,1-.264.533.8.8,0,0,1,.244-.038c.259,0,.43.186.508.568.34-.191.727-.387,1.149-.591l.194.6c0,.043-.015.065-.05.065" transform="translate(100.312 7.153)" fill="#fff"/>
          <path id="パス_1477" data-name="パス 1477" d="M71.512,9.451c-.219,0-.44.015-.661.015a3.691,3.691,0,0,1-2.264-.6,3.131,3.131,0,0,1-.317.644l-.362-.269a3.726,3.726,0,0,0,.475-2.1h-.526V6.679h1a7.769,7.769,0,0,1-.166,1.663,3.039,3.039,0,0,0,2.239.634c.239,0,.48-.02.717-.03ZM68.629,5.832a6.424,6.424,0,0,0-.664-.546L68.3,4.8a4.823,4.823,0,0,1,.6.639Zm2.447.395c-.055.128-.106.264-.156.4h.674v.41H70.483v.246h.885v.4h-.885v.226h1.129v.42H70.488v.5h-.453v-.5H68.991v-.42h1.044V7.68h-.82v-.4h.82V7.036H68.981v-.41h.6c-.038-.136-.07-.272-.116-.4h-.493v-.41h1.049v-.3H69.11V5.072h.913V4.647l.465.035c.038.005.08,0,.08.063,0,.04-.043.063-.068.078v.249h.983v.443H70.5v.3H71.62v.41Zm-1.142-.01c.018.138.04.274.058.415h.526c.025-.141.053-.277.073-.415Z" transform="translate(102.818 7.042)" fill="#fff"/>
          <path id="パス_1478" data-name="パス 1478" d="M73.3,9.6a3.461,3.461,0,0,1-.931-1.009,2.744,2.744,0,0,1-1.024.976L71,9.206a2.659,2.659,0,0,0,1.112-1.112,6.419,6.419,0,0,1-.5-2.015H70.59v.03c0,.2,0,.4,0,.6h.994c-.008.41-.008.825-.053,1.232-.08.667-.274.88-.79.936l-.229-.433c.508-.065.576-.284.584-.911l.005-.372H70.58a4.476,4.476,0,0,1-.538,2.41l-.395-.312a3.711,3.711,0,0,0,.463-2.2c0-.49-.028-.991-.035-1.481h1.5c-.025-.324-.033-.654-.043-.976l.553.078c.03.005.088.02.088.075a.152.152,0,0,1-.08.116c-.005.131-.005.257-.005.387,0,.1,0,.214.005.319h1.348v.508H72.119a6.321,6.321,0,0,0,.257,1.434,5.451,5.451,0,0,0,.294-1.177l.526.362a.13.13,0,0,1,.05.1c0,.06-.083.083-.118.088a6.8,6.8,0,0,1-.458,1.215,3,3,0,0,0,.981.953Zm-.126-4.588c-.1.181-.2.367-.3.543l-.385-.148a7.429,7.429,0,0,0,.234-.795l.49.219a.115.115,0,0,1,.065.093c0,.055-.065.083-.1.088" transform="translate(105.53 6.983)" fill="#fff"/>
          <path id="パス_1479" data-name="パス 1479" d="M73.747,8.831a1.876,1.876,0,0,1-1.129.362c-.6,0-.983-.43-1.016-1.185-.01-.1-.005-.2-.005-.3,0-.287.005-.573.013-.868.013-.687.023-1.376.03-2.062.131.02.269.048.4.078a1.141,1.141,0,0,1,.166.038c.035.018.078.038.078.086a.11.11,0,0,1-.065.091c-.05.926-.088,1.861-.088,2.787,0,.473.169.762.566.762a1.106,1.106,0,0,0,.541-.156,2.155,2.155,0,0,0,.855-1.109l.312.689a2.512,2.512,0,0,1-.656.792" transform="translate(108.482 7.235)" fill="#fff"/>
          <path id="パス_1480" data-name="パス 1480" d="M75.96,9.066a4.944,4.944,0,0,0-.966-.755.827.827,0,0,1-.921.888A1,1,0,0,1,73,8.294a.845.845,0,0,1,.933-.86,2,2,0,0,1,.531.068c0-.745-.03-1.494-.086-2.234-.015-.181-.025-.362-.055-.536l.566.088c.028.008.073.033.073.075a.1.1,0,0,1-.045.075v.2c0,.234-.005.468,0,.7h.053a4.163,4.163,0,0,0,.586-.033c.156-.02.3-.058.453-.083,0,.206-.01.412-.013.626-.239.023-.483.038-.719.038-.111,0-.221-.005-.337-.01.013.425.018.85.03,1.283a6.81,6.81,0,0,1,1.331.807ZM74.474,8.06a1.251,1.251,0,0,0-.563-.138.374.374,0,0,0-.377.335c0,.329.3.415.506.415.257,0,.435-.116.435-.463Z" transform="translate(110.618 7.171)" fill="#fff"/>
          <path id="パス_1481" data-name="パス 1481" d="M75.7,9.486c-.158-.153-.314-.314-.483-.453a2.054,2.054,0,0,0,1.227-.926,1.784,1.784,0,0,0,.166-.782c0-.473-.143-.742-.541-.742a3.376,3.376,0,0,0-1.2.568c-.03-.08-.234-.629-.234-.677s.043-.033.06-.033a2.572,2.572,0,0,0,.526-.153,2.774,2.774,0,0,1,.994-.269c.682,0,.978.573.978,1.366a2.255,2.255,0,0,1-1.489,2.1m.745-3.836a6.01,6.01,0,0,0-1.2-.478c.08-.191.156-.382.239-.576a4.639,4.639,0,0,1,1.235.485c-.086.191-.171.382-.269.568" transform="translate(113.086 6.965)" fill="#fff"/>
          <rect id="長方形_5001" data-name="長方形 5001" width="62" height="62" fill="#830025"/>
          <path id="パス_1482" data-name="パス 1482" d="M1.93,10.638a3.945,3.945,0,0,1,.35-1.723A2.285,2.285,0,0,1,3.316,7.836a2.9,2.9,0,0,1-.875-1.059,3.537,3.537,0,0,1-.335-1.612A3.152,3.152,0,0,1,2.878,2.9,2.92,2.92,0,0,1,5.1,2.086a2.894,2.894,0,0,1,2.206.8A3.125,3.125,0,0,1,8.06,5.122,3.843,3.843,0,0,1,7.74,6.784a2.68,2.68,0,0,1-.863,1.051A2.265,2.265,0,0,1,7.914,8.945a4.244,4.244,0,0,1,.35,1.8,3.927,3.927,0,0,1-.757,2.568,2.947,2.947,0,0,1-2.41.918q-3.165,0-3.167-3.589m3.934,1.393a3.717,3.717,0,0,0,.2-1.305,3.964,3.964,0,0,0-.2-1.386A.751.751,0,0,0,5.1,8.827a.749.749,0,0,0-.765.518,3.935,3.935,0,0,0-.2,1.381,3.655,3.655,0,0,0,.2,1.305.746.746,0,0,0,.765.518.749.749,0,0,0,.767-.518m.065-6.867a2.118,2.118,0,0,0-.2-1.014A.671.671,0,0,0,5.1,3.779a.7.7,0,0,0-.641.372,2,2,0,0,0-.219,1.014c0,1.217.287,1.824.86,1.824.556,0,.833-.606.833-1.824" transform="translate(2.924 3.162)" fill="#fff"/>
          <path id="パス_1483" data-name="パス 1483" d="M21.056,12.239,14.725,18.26a1.054,1.054,0,0,0-.362.905v16.88a.363.363,0,0,0,.362.36h6.54a.361.361,0,0,0,.36-.36V12.39c0-.2-.156-.561-.568-.151" transform="translate(21.763 18.262)" fill="#fff"/>
          <path id="パス_1484" data-name="パス 1484" d="M13.806,15.359,7.473,21.381a1.055,1.055,0,0,0-.362.9v9.035a.365.365,0,0,0,.362.36h6.542a.361.361,0,0,0,.357-.36V15.51c0-.2-.156-.563-.566-.151" transform="translate(10.775 22.988)" fill="#fff"/>
          <path id="パス_1485" data-name="パス 1485" d="M36.206,9.336a.18.18,0,0,0-.053-.136.209.209,0,0,0-.118-.053L36,9.15l-.05,0L31.1,10.246l-.088.01a.182.182,0,0,0-.093.309l.055.055,1.107,1.107L21.1,22.712l-5.073-5.073a.144.144,0,0,0-.206,0l-1.378,1.376v0L6.3,27.146a.152.152,0,0,0,0,.209L7.686,28.73a.141.141,0,0,0,.2,0L15.921,20.7,19.6,24.384l.01.018,1.378,1.376a.144.144,0,0,0,.206,0L33.663,13.31l1.165,1.162a.178.178,0,0,0,.257,0,.171.171,0,0,0,.053-.118l0-.015L36.2,9.388Z" transform="translate(9.491 13.861)" fill="#fff"/>
          <path id="パス_1486" data-name="パス 1486" d="M17.42,15.8l-3.064,3.089a.146.146,0,0,1-.2-.008l-2.777-2.83c-.508-.506-.616-.1-.616.1V30.7a.359.359,0,0,0,.357.36h6.542a.361.361,0,0,0,.36-.36V15.909c0-.2-.156-.563-.606-.113" transform="translate(16.314 23.609)" fill="#fff"/>
          <path id="パス_1487" data-name="パス 1487" d="M10.919,6.007c-.035.639-.219.911-.765,1.054l-.3-.44c.382-.075.528-.176.563-.651.05-.664.05-1.338.05-2.01h-.151a8.393,8.393,0,0,1-.209,1.831,2.968,2.968,0,0,1-.664,1.29l-.418-.3A3.687,3.687,0,0,0,9.272,6.5c-.395.086-.792.166-1.187.254-.005.043-.028.08-.068.08s-.065-.038-.078-.073l-.191-.47c.246-.025.488-.063.732-.1V5.939H7.853V5.544h.626V5.363H7.866V3.816h.609V3.64H7.853V3.22h.621V3c-.148.013-.3.023-.45.038L7.9,2.805c-.055.209-.106.42-.163.629-.01.038-.065.2-.065.224V7.071H7.181V4.679A2.783,2.783,0,0,1,7,4.966l-.3-.44a6.04,6.04,0,0,0,.772-2.332l.538.2a.086.086,0,0,1,.045.065c0,.043-.058.063-.086.068l-.02.08a4.989,4.989,0,0,0,1.388-.3l.342.528a.057.057,0,0,1-.063.058.13.13,0,0,1-.083-.03c-.2.04-.395.068-.591.1V3.22h.682v.272H9.86V2.252l.511.07c.03.005.086.025.086.075a.1.1,0,0,1-.065.088c-.008.337-.02.677-.035,1.011.2-.005.41-.01.614-.01-.005.84,0,1.68-.05,2.52M8.494,4.146H8.265v.287h.229Zm0,.626H8.265v.262h.229Zm.629-.626H8.917v.287h.206Zm.008.626H8.917v.262h.214Zm.478-.812V3.64H8.932v.176h.594V5.363H8.932v.181h.586v.385H8.932v.216c.181-.028.357-.063.541-.1l-.028.181A5.258,5.258,0,0,0,9.84,3.96Z" transform="translate(10.153 3.325)" fill="#fff"/>
          <path id="パス_1488" data-name="パス 1488" d="M11.179,4.41a3.791,3.791,0,0,0,.591.948c-.1.153-.209.3-.317.44a2.48,2.48,0,0,0-1.23-.319c-.186,0-.6.091-.6.382,0,.47.629.5.916.5a5.122,5.122,0,0,0,.941-.121c-.045.2-.08.4-.118.606a4.268,4.268,0,0,1-.667.063c-.581,0-1.6-.073-1.6-.988,0-.667.646-.888,1.114-.888a3.371,3.371,0,0,1,.729.1c-.091-.2-.186-.4-.274-.611a10.776,10.776,0,0,1-1.655.2l-.118-.533a7.1,7.1,0,0,0,1.58-.158c-.055-.161-.106-.319-.151-.478a7.16,7.16,0,0,1-1.157.163c-.048-.171-.093-.345-.138-.516a6.551,6.551,0,0,0,1.162-.143c-.068-.257-.121-.521-.166-.782.186-.015.372-.038.558-.048H10.6a.065.065,0,0,1,.073.065.125.125,0,0,1-.045.083c.023.176.05.352.088.528a2.472,2.472,0,0,0,.631-.3c.038.2.083.395.118.6-.209.08-.423.153-.636.224q.075.253.174.5a5.974,5.974,0,0,0,1.064-.4c.04.2.063.4.1.6a5.84,5.84,0,0,1-.988.292" transform="translate(13.478 3.371)" fill="#fff"/>
          <path id="パス_1489" data-name="パス 1489" d="M12.744,6.643a.679.679,0,0,1-.513.166,1.018,1.018,0,0,1-.448-.113c-.018-.2-.03-.4-.053-.6a.951.951,0,0,0,.5.148c.367,0,.362-1.2.362-1.5,0-.219.005-.609-.254-.609a1.156,1.156,0,0,0-.274.045,10.391,10.391,0,0,1-.973,2.641c-.176-.1-.34-.2-.518-.287a7.534,7.534,0,0,0,.921-2.264c-.211.04-.42.093-.624.153-.015-.06-.133-.571-.133-.571,0-.025.033-.03.045-.03.04,0,.078.01.118.01a3.614,3.614,0,0,0,.707-.1,9.243,9.243,0,0,0,.163-1.268c.136.033.267.075.4.118.06.02.128.038.186.063.023.013.06.028.06.065s-.033.048-.055.058c-.053.3-.113.6-.186.9a1.989,1.989,0,0,1,.272-.028.536.536,0,0,1,.6.453,2.98,2.98,0,0,1,.091.807,3.057,3.057,0,0,1-.395,1.733m.664-3.35a5.9,5.9,0,0,0-.345-.755l.367-.176a6.432,6.432,0,0,1,.324.734Zm.465,2.347c-.1-.156-.209-.3-.319-.443.133-.025.465-.106.465-.309A2.633,2.633,0,0,0,13.362,3.7a5.641,5.641,0,0,0,.511-.287A3.4,3.4,0,0,1,14.595,5c0,.4-.458.548-.722.639m.146-2.533a5.4,5.4,0,0,0-.342-.755l.35-.191a4.5,4.5,0,0,1,.342.75Z" transform="translate(16.02 3.275)" fill="#fff"/>
          <path id="パス_1490" data-name="パス 1490" d="M13.708,6.3a.5.5,0,0,1-.36-.141,2.766,2.766,0,0,1-.611-1.728,8.586,8.586,0,0,1,.03-1.461c.013-.189.028-.37.053-.553a3.715,3.715,0,0,1,.651.209.07.07,0,0,1,.038.058.113.113,0,0,1-.088.106,5.678,5.678,0,0,0-.131,1.082,6.1,6.1,0,0,0,.02.677,2.658,2.658,0,0,0,.143.7c.033.1.113.34.226.332.219-.015.46-.729.543-.951l.317.667c-.118.362-.473.978-.833,1m2-.953a4.836,4.836,0,0,0-.737-2.256c.189-.088.367-.191.556-.274a5.737,5.737,0,0,1,.77,2.261c-.194.1-.39.186-.589.269" transform="translate(19.271 3.66)" fill="#fff"/>
          <path id="パス_1491" data-name="パス 1491" d="M16.615,6.843c-.636.005-1.258-.264-1.265-1.124,0-.126.013-.254.023-.38-.332-.118-.78-.267-.787-.762a1.958,1.958,0,0,1,.2-.682c.171.038.345.091.513.128a1.008,1.008,0,0,0-.221.47c0,.186.262.264.385.3.073-.42.156-.835.226-1.255-.08.1-.158.2-.234.3a8.531,8.531,0,0,0-.729-.629c.1-.161.2-.319.314-.478a6.3,6.3,0,0,1,.677.584,6.811,6.811,0,0,0,.146-1.064c.146.028.3.07.443.108a.916.916,0,0,1,.181.048c.033.01.063.025.063.068a.21.21,0,0,1-.086.138c-.033.118-.058.244-.086.36-.055.252-.111.5-.169.752-.086.392-.176.792-.246,1.19.184.033.37.033.551.048l-.083.518A3.876,3.876,0,0,1,15.9,5.44a1.443,1.443,0,0,0-.013.234.591.591,0,0,0,.659.621c.387-.005.561-.239.556-.679a2.281,2.281,0,0,0-.669-1.338,3.826,3.826,0,0,0,.5-.241,2.517,2.517,0,0,1,.765,1.728,1.026,1.026,0,0,1-1.079,1.079" transform="translate(22.099 3.415)" fill="#fff"/>
          <path id="パス_1492" data-name="パス 1492" d="M7.471,8.109A4.619,4.619,0,0,1,7.1,9.354l-.382-.2a4.355,4.355,0,0,0,.342-1.333l.41.156a.069.069,0,0,1,.05.073c0,.028-.03.048-.05.058m3.308-.335a3.531,3.531,0,0,1-1.21-.712,3.1,3.1,0,0,1-.888.621L8.495,7.4l.053.234a2.972,2.972,0,0,1-.355.156C8.17,7.7,8.145,7.6,8.12,7.513L8,7.535V9.673h-.46V7.588c-.224.028-.443.065-.667.091l-.05-.463A1.064,1.064,0,0,0,7.1,7.188c.151-.191.292-.4.425-.606A2.81,2.81,0,0,0,6.9,6.343V6.109a6.012,6.012,0,0,0,.83-1.275,4.341,4.341,0,0,1,.465.244c.038.02.1.053.1.111s-.075.07-.108.07c-.236.277-.473.553-.729.807.093.055.184.113.274.166A4.821,4.821,0,0,0,7.979,5.8c.07.045.465.289.465.375,0,.058-.068.068-.1.058-.254.319-.506.644-.77.956.151-.015.3-.035.453-.053-.028-.091-.055-.186-.091-.272.121-.048.241-.1.362-.153.06.176.108.352.158.528a3.084,3.084,0,0,0,.78-.521,4.741,4.741,0,0,1-.6-.772l.294-.3H8.495V5.179h2.1v.4A3.668,3.668,0,0,1,9.923,6.7a3.386,3.386,0,0,0,1.142.581c-.1.158-.194.329-.287.493M8.288,8.961a9.048,9.048,0,0,1-.234-.968l.377-.156a6.659,6.659,0,0,0,.226.953Zm.1.606V9.125h.958V8.494H8.638V8.051h.7v-.6c.121.015.246.025.37.043a.909.909,0,0,1,.161.02.058.058,0,0,1,.043.055.1.1,0,0,1-.073.086v.4h.777v.443H9.84v.631h1.019v.443Zm.689-3.926a3.184,3.184,0,0,0,.475.714,2.638,2.638,0,0,0,.412-.714Z" transform="translate(10.181 7.326)" fill="#fff"/>
          <path id="パス_1493" data-name="パス 1493" d="M9.449,7.2a7.459,7.459,0,0,0-.762-.526l.324-.511a3.908,3.908,0,0,1,.707.606ZM9.293,9.533a.186.186,0,0,1,.023.083.047.047,0,0,1-.045.045,5.561,5.561,0,0,1-.546-.35,7.962,7.962,0,0,0,.6-1.793l.43.4C9.61,8.466,9.464,9,9.293,9.533m.264-3.662A6.508,6.508,0,0,0,8.9,5.405l.35-.508a4.29,4.29,0,0,1,.586.563Zm3.177,1.766a4.759,4.759,0,0,1-.453-.148V9.651h-.493V8.763H10.659a2.213,2.213,0,0,1-.594.973l-.392-.3a2.5,2.5,0,0,0,.646-1.992,3.03,3.03,0,0,1-.468.163L9.6,7.169a3.475,3.475,0,0,0,1.275-.5,3.828,3.828,0,0,1-.594-.767H9.889V5.438h1.056V4.832l.566.038a.092.092,0,0,1,.083.086c0,.053-.053.08-.088.091v.392h1.245V5.9h-.48a3.221,3.221,0,0,1-.6.772A3.565,3.565,0,0,0,12.98,7.1Zm-.946.34h-.994c-.01.123-.023.249-.043.372h1.036Zm0-.672a5.748,5.748,0,0,1-.528-.345,4.567,4.567,0,0,1-.443.254c0,.118,0,.231-.005.347h.976ZM10.848,5.9a1.96,1.96,0,0,0,.425.49,1.78,1.78,0,0,0,.385-.49Z" transform="translate(13.163 7.323)" fill="#fff"/>
          <path id="パス_1494" data-name="パス 1494" d="M14.536,9.737a3.61,3.61,0,0,1-1-1,2.869,2.869,0,0,1-1.107.963l-.375-.357a2.756,2.756,0,0,0,1.2-1.1,5.9,5.9,0,0,1-.538-1.995h-1.1v.028c0,.2.005.4.005.6H12.69c-.01.407-.01.817-.06,1.22-.088.662-.294.87-.85.926l-.252-.428c.551-.065.624-.282.634-.9l0-.367H11.6A4.143,4.143,0,0,1,11.02,9.71L10.592,9.4a3.418,3.418,0,0,0,.5-2.173c0-.488-.028-.981-.038-1.469H12.68c-.028-.319-.035-.644-.045-.963l.6.075c.033.005.1.023.1.075a.145.145,0,0,1-.086.113c-.005.131-.005.254-.005.385,0,.1,0,.211.005.314H14.7v.506H13.263a5.857,5.857,0,0,0,.277,1.419,5.013,5.013,0,0,0,.319-1.165l.568.357a.126.126,0,0,1,.055.1c0,.058-.093.08-.128.086a6.129,6.129,0,0,1-.5,1.2,3.147,3.147,0,0,0,1.059.943ZM14.4,5.195c-.111.181-.214.362-.327.536l-.42-.146A6.223,6.223,0,0,0,13.91,4.8l.528.216c.03.018.073.043.073.093s-.073.08-.111.086" transform="translate(16.049 7.266)" fill="#fff"/>
          <path id="パス_1495" data-name="パス 1495" d="M16.18,9.478a3.459,3.459,0,0,1-1.846-1.557,10.872,10.872,0,0,0,1.152-.415h-1.61v1.2l.732-.189-.06.5q-.724.189-1.454.38c-.013.038-.043.083-.08.083a.057.057,0,0,1-.048-.035l-.234-.546c.216-.035.433-.063.644-.108V7.531h-.747v-.5h.747V4.92H16.15v.473H13.879v.279h1.987V6.1H13.879v.272h1.987v.41H13.879v.264h2.55v.463h-.616l.246.377a.069.069,0,0,1-.068.073.194.194,0,0,1-.088-.03c-.279.068-.566.126-.848.171a2.576,2.576,0,0,0,1.461.878Z" transform="translate(19.136 7.456)" fill="#fff"/>
          <path id="パス_1496" data-name="パス 1496" d="M16.57,9.494c-.636.005-1.255-.264-1.265-1.122,0-.128.013-.257.023-.382-.332-.118-.78-.267-.787-.762a1.929,1.929,0,0,1,.2-.679c.171.035.345.088.513.126a1.008,1.008,0,0,0-.221.47c.005.184.262.264.385.3.073-.42.156-.835.229-1.255-.083.1-.161.2-.236.3a8.97,8.97,0,0,0-.729-.626c.1-.161.206-.319.314-.48a6.614,6.614,0,0,1,.677.586A6.852,6.852,0,0,0,15.818,4.9c.146.028.3.068.443.106a1.138,1.138,0,0,1,.181.05c.033.01.065.025.065.068a.22.22,0,0,1-.086.138c-.033.116-.06.244-.088.36-.055.252-.111.5-.169.752-.086.392-.179.792-.246,1.19.184.033.37.033.551.05l-.08.513a3.848,3.848,0,0,1-.538-.04,1.428,1.428,0,0,0-.013.231.592.592,0,0,0,.659.624c.387-.005.561-.239.556-.679a2.267,2.267,0,0,0-.669-1.336,4.6,4.6,0,0,0,.5-.244,2.517,2.517,0,0,1,.765,1.728A1.026,1.026,0,0,1,16.57,9.494" transform="translate(22.031 7.432)" fill="#fff"/>
          <rect id="長方形_5002" data-name="長方形 5002" width="62" height="62" transform="translate(69.478)" fill="#e85200"/>
          <path id="パス_1497" data-name="パス 1497" d="M30.451,13.462a3.3,3.3,0,0,1-.709-2.269v-.176h2.133a2.832,2.832,0,0,0,.166,1.139.7.7,0,0,0,.7.335.668.668,0,0,0,.543-.219,1.474,1.474,0,0,0,.259-.722,11.451,11.451,0,0,0,.073-1.451V8.9a1.257,1.257,0,0,1-.6.5,2.315,2.315,0,0,1-.946.181,2.078,2.078,0,0,1-1.912-.963,4.753,4.753,0,0,1-.6-2.553q0-3.984,3.184-3.984a2.84,2.84,0,0,1,2.4,1.006,4.456,4.456,0,0,1,.775,2.774v4.306a5.334,5.334,0,0,1-.707,2.975,2.757,2.757,0,0,1-2.488,1.066,2.972,2.972,0,0,1-2.271-.752m3.162-6.137V5.444a3.2,3.2,0,0,0-.191-1.227.747.747,0,0,0-1.388.038,5.046,5.046,0,0,0-.171,1.554c0,.506.013.893.04,1.16a1.277,1.277,0,0,0,.241.649.725.725,0,0,0,.609.249.97.97,0,0,0,.86-.541" transform="translate(44.779 3.162)" fill="#fff"/>
          <path id="パス_1498" data-name="パス 1498" d="M65.178,26.909l-7.4-4.273V14.087a.5.5,0,0,0-.252-.435L49.868,9.23a.517.517,0,0,0-.506,0l-7.656,4.422a.5.5,0,0,0-.252.435v8.549l-7.4,4.273a.5.5,0,0,0-.254.438v8.841a.5.5,0,0,0,.254.438l7.654,4.419a.5.5,0,0,0,.506,0l7.4-4.273,7.4,4.273a.5.5,0,0,0,.506,0l7.656-4.419a.507.507,0,0,0,.254-.438V27.347a.507.507,0,0,0-.254-.438m-16.067,8.4-6.142-3.544,6.142-3.546Zm7.148-12.385-6.14,3.544v-7.09Zm-7.148,3.544-6.142-3.544,6.142-3.546Zm1.514.875,6.645-3.836,6.645,3.836L57.27,31.185Zm6.14-5.295-6.14-3.544,6.14-3.546Zm-8.159-3.544-6.142,3.546V14.962ZM41.454,39.732,34.809,35.9V28.222l6.645,3.838Zm1.009,0v-7.09l6.142,3.546ZM64.421,35.9l-6.648,3.836V32.06l6.648-3.838Z" transform="translate(51.211 13.886)" fill="#fff"/>
          <path id="パス_1499" data-name="パス 1499" d="M35.461,4.293c.005.138.008.274.008.412a5.978,5.978,0,0,1-.2,1.668,2.7,2.7,0,0,1-.322.742l-.425-.307a3.561,3.561,0,0,0,.438-1.972c0-.329-.01-.662-.023-.988h.9c-.08-.163-.158-.329-.244-.485l.332-.151h-1v-.49H36.4V2.173l.546.038c.04,0,.086,0,.086.065a.1.1,0,0,1-.068.08v.365h1.544v.49H37.468l.3.113a.057.057,0,0,1,.045.053c0,.033-.038.05-.06.055-.068.141-.131.279-.209.415h1.119v.445Zm-.023,2.732V6.592h1.293V6.117h-.687V5.7h.687V5.3h-.573a4.093,4.093,0,0,1-.332.817l-.377-.252a4.541,4.541,0,0,0,.4-1.441l.483.136a.062.062,0,0,1,.053.058c0,.043-.035.06-.068.065-.018.063-.035.128-.055.194h.465V4.374l.556.045c.028,0,.045.04.045.068,0,.053-.06.086-.1.1v.269h1.175v.44H37.232v.4h.938v.425h-.938v.465h1.341v.443Zm.687-3.813c.065.179.161.49.209.672-.068.028-.171.055-.231-.035h.961c.06-.211.113-.42.153-.636Z" transform="translate(52.302 3.294)" fill="#fff"/>
          <path id="パス_1500" data-name="パス 1500" d="M40.439,7.03a3.235,3.235,0,0,1-1.617-.988V7.088h-.5V6.029A3.445,3.445,0,0,1,36.741,7l-.3-.443a3.113,3.113,0,0,0,1.486-.8h-1.31V5.322h1.7V5.111h-1.27v-.4h1.27V4.477H36.769V4.052h.943c-.05-.123-.1-.252-.156-.372h-.991V3.232h.772a4.3,4.3,0,0,0-.382-.626l.488-.3c.108.262.214.526.314.792l-.257.133h.415V2.216l.511.05a.047.047,0,0,1,.05.053c0,.035-.043.068-.068.078v.835h.309V2.211l.518.043a.056.056,0,0,1,.05.058c0,.038-.045.065-.07.075v.84H39.6l-.229-.121c.1-.267.206-.528.282-.8l.521.249c.025.018.058.038.058.08,0,.06-.078.065-.108.065-.113.181-.229.355-.342.531h.8V3.68H39.6c-.073.128-.146.249-.219.372h1.046v.425h-1.61v.234h1.305v.4H38.819v.211h1.715V5.76H39.168a3.291,3.291,0,0,0,1.564.792ZM38.107,3.68l.068.372h.742c.033-.123.06-.252.088-.372Z" transform="translate(55.217 3.351)" fill="#fff"/>
          <path id="パス_1501" data-name="パス 1501" d="M40.192,6.744c-.639,0-1.658-.1-1.658-1.117a1.554,1.554,0,0,1,1.041-1.373A8.119,8.119,0,0,1,39.4,2.373c.133.01.272.02.4.033a1.817,1.817,0,0,1,.2.02c.023.005.048.015.048.048a.108.108,0,0,1-.03.058,3.562,3.562,0,0,0-.025.49,3.286,3.286,0,0,0,.083.951.062.062,0,0,0,.04.015,4.813,4.813,0,0,0,1.124-.473c.068.229.113.468.166.7-.558.133-2.332.475-2.332,1.351,0,.5.662.591.971.591a3.786,3.786,0,0,0,1.434-.239c.025.224.048.453.06.682a6.452,6.452,0,0,1-1.351.143" transform="translate(58.387 3.597)" fill="#fff"/>
          <path id="パス_1502" data-name="パス 1502" d="M41.333,4.852V6a1.232,1.232,0,0,1-.576,1.144l-.392-.362a.878.878,0,0,0,.473-.853v-.85c-.126.086-.257.153-.38.244,0,.043-.023.111-.068.111-.025,0-.035-.025-.045-.053l-.153-.584c.216-.1.435-.191.646-.3V3.74H40.3V3.272h.533V2.246l.521.07a.053.053,0,0,1,.048.045c0,.038-.04.075-.063.093v.817h.329V3.74h-.34v.6l.385-.2v.5c-.126.073-.252.136-.38.211m2.8,2.271a3.259,3.259,0,0,1-1.17-.81,3.264,3.264,0,0,1-1.2.762l-.36-.4a2.714,2.714,0,0,0,1.217-.75A4.279,4.279,0,0,1,42,4.809l.2-.186h-.347v-.44h.795V3.5h-.875V3.028h.858V2.241l.541.048a.072.072,0,0,1,.073.08c0,.043-.058.073-.086.086v.568h1.112V3.5H43.144v.682h.878V4.5c0,.015-.06.2-.068.229a3.47,3.47,0,0,1-.651,1.21,2.925,2.925,0,0,0,1.165.684Zm-1.68-2.51a3.172,3.172,0,0,0,.516.958,2.971,2.971,0,0,0,.45-.958Z" transform="translate(60.898 3.397)" fill="#fff"/>
          <path id="パス_1503" data-name="パス 1503" d="M44.454,3.888V7.027h-.5V3.893H43.39V3.825c-.106.2-.2.4-.322.594V7.042h-.5V5.08a2.714,2.714,0,0,1-.267.272l-.254-.423a4.329,4.329,0,0,0,1.016-1.577l.327.292v-.2h.553V2.288l.521.053c.03.005.075.015.075.063a.113.113,0,0,1-.086.1v.938h.619v.445Zm-1.1-1.109a4.743,4.743,0,0,1-.853,1l-.367-.332a3.3,3.3,0,0,0,.83-1.144l.468.324a.087.087,0,0,1,.045.07c0,.068-.078.1-.123.086m.458,1.876A10.336,10.336,0,0,1,43.561,6.5l-.39-.345a8.065,8.065,0,0,0,.2-1.808l.468.176a.056.056,0,0,1,.033.053c0,.033-.04.065-.058.075m1.029,1.514a8.82,8.82,0,0,1-.254-1.615l.425-.128a9.183,9.183,0,0,0,.239,1.5Zm.41-3.053V2.723a.054.054,0,0,1-.058.043c-.068.191-.136.387-.211.578L44.653,3.2c.063-.244.106-.488.158-.734l.425.209.013.023v-.1h.963v.521Zm.692,1.278V6.1a.872.872,0,0,1-.631.978l-.335-.415a.551.551,0,0,0,.47-.624V4.393h-.39V3.93h1.232v.463Z" transform="translate(63.71 3.468)" fill="#fff"/>
          <path id="パス_1504" data-name="パス 1504" d="M46.252,6.421v.8h-.5v-.8H43.993V5.946h1.756V5.6H44.5V4.145h1.25V3.886h-.674V3.24h-.938v-.47h.928V2.241l.523.04a.059.059,0,0,1,.058.053c0,.033-.043.07-.065.086v.35h.853V2.241l.523.04c.023,0,.06.02.06.053s-.045.07-.068.086v.35h.905v.47h-.9v.646h-.712v.259H47.55V5.6H46.242v.342h1.8v.475Zm-.5-1.864h-.76v.611h.76Zm.687-1.341h-.853v.292h.853Zm.6,1.341h-.79v.611h.79Z" transform="translate(66.659 3.397)" fill="#fff"/>
          <path id="パス_1505" data-name="パス 1505" d="M47.259,4.478l-.005.317h.687V5.22h-.626a2.15,2.15,0,0,0,.563.556l-.252.4a1.935,1.935,0,0,1-.367-.365v1.32h-.473V5.874a2.591,2.591,0,0,1-.6.692l-.329-.37a2.718,2.718,0,0,0,.79-.976h-.634V4.795h.772V4.478h-.8V4.045H46.5c-.073-.2-.151-.407-.241-.6l.314-.118h-.511V2.871h.709V2.247l.523.033a.069.069,0,0,1,.07.063.1.1,0,0,1-.07.093v.435h.636v.455h-.5l.312.176a.073.073,0,0,1,.043.058c0,.06-.063.078-.1.078-.06.138-.131.274-.2.407h.465v.433Zm-.511-1.152c.048.2.166.646.206.85-.086.045-.236-.169-.322-.131h.47c.055-.236.108-.478.151-.719ZM49.48,4.483V7.094h-.511V4.483h-.345a3.657,3.657,0,0,1-.767,2.586l-.37-.324a3.313,3.313,0,0,0,.656-2.483c0-.5-.018-1-.02-1.492l.3.02a1.423,1.423,0,0,0,.3-.086,6.038,6.038,0,0,0,.765-.34l.347.626a.077.077,0,0,1-.078.08.137.137,0,0,1-.088-.033,9.57,9.57,0,0,1-1.036.171v.825H49.9v.448Z" transform="translate(69.485 3.406)" fill="#fff"/>
          <path id="パス_1506" data-name="パス 1506" d="M49.938,6.57c-.136-.158-.259-.329-.395-.483.694-.209,1.338-.513,1.338-1.557a1.449,1.449,0,0,0-.921-1.5c-.118.951-.352,2.465-1.044,3.026a.634.634,0,0,1-.407.176.654.654,0,0,1-.473-.319,2.071,2.071,0,0,1-.282-1.127A2.11,2.11,0,0,1,49.7,2.49a1.788,1.788,0,0,1,1.756,2A1.975,1.975,0,0,1,49.938,6.57M48.389,4.034a2.293,2.293,0,0,0-.123.755c0,.226.04.807.287.807.088,0,.163-.1.216-.176A5.023,5.023,0,0,0,49.4,3.046a1.622,1.622,0,0,0-1.011.988" transform="translate(72.359 3.774)" fill="#fff"/>
          <path id="パス_1507" data-name="パス 1507" d="M38.537,9a3.043,3.043,0,0,1-.767-.47v.319h-.863V9.2h1.351v.43H35.086V9.2h1.331V8.844h-.843V8.487a3.653,3.653,0,0,1-.775.49l-.3-.4a2.9,2.9,0,0,0,1.192-.86H34.643V7.245h.943V5.856h-.777V5.4h.77V4.83l.518.03a.055.055,0,0,1,.053.06c0,.035-.04.068-.068.078v.4h1.17V4.83l.528.03a.061.061,0,0,1,.06.06c0,.035-.043.068-.07.078v.4h.722v.458H37.77V7.245h.921v.468H37.611a2.839,2.839,0,0,0,1.248.817ZM36.98,7.685h-.669a3.336,3.336,0,0,1-.646.729h.747V7.946l.5.038a.057.057,0,0,1,.06.053.1.1,0,0,1-.068.086v.292h.737a3.324,3.324,0,0,1-.659-.729m.269-1.829H36.082v.229h1.167Zm0,.6H36.082v.219h1.167Zm0,.578H36.082v.234h1.167Z" transform="translate(52.275 7.319)" fill="#fff"/>
          <path id="パス_1508" data-name="パス 1508" d="M40.527,8.048a2.872,2.872,0,0,1-1.019-.438,3.075,3.075,0,0,1-.838.347l-.254-.352A.645.645,0,0,1,37.928,8l-.289-.314c.254-.075.377-.156.377-.49V6.612l-.151.015v.863H37.5v-.82l-.113.01a2.219,2.219,0,0,1-.438,1.426l-.395-.246a1.818,1.818,0,0,0,.372-1.122c-.073.018-.146.038-.219.053-.008.038-.035.075-.07.075s-.048-.043-.055-.075l-.116-.475c.151,0,.307,0,.458-.013,0-.362-.01-.729-.01-1.089h.473c.055-.138.1-.282.146-.425l.566.068a.07.07,0,0,1,.053.063c0,.07-.078.1-.123.1-.055.065-.108.128-.169.194h.616v1.9a1.557,1.557,0,0,1-.055.485,2.418,2.418,0,0,0,.7-.277,3.286,3.286,0,0,1-.4-.415,1.9,1.9,0,0,1,.186-.131h-.319V6.38h.329l-.38-.174a1.25,1.25,0,0,0,.211-.787c0-.123-.005-.249-.01-.372h1.29c-.005.209-.013.415-.013.624,0,.131.03.179.148.179a1.085,1.085,0,0,0,.513-.254l-.035.548a1.3,1.3,0,0,1-.573.148c-.342,0-.528-.038-.528-.473,0-.118,0-.241,0-.357h-.322a1.311,1.311,0,0,1-.287.918h1.524v.3a1.9,1.9,0,0,1-.551.634,2.578,2.578,0,0,0,.875.267ZM36.613,9.705v-.43h.516V8.025h3.008v1.25H40.6v.43ZM38.006,5.61h-.624v.257c.108-.075.219-.148.327-.219.086.128.169.262.252.392l-.259.224.3-.02Zm-.624.267v.41l.3-.023a4.674,4.674,0,0,0-.3-.387M38,8.44h-.377v.84H38Zm.815,0h-.367v.84h.367ZM39.2,6.773a2.6,2.6,0,0,0,.324.3,1.491,1.491,0,0,0,.3-.3Zm.45,1.668h-.392v.84h.392Z" transform="translate(55.248 7.256)" fill="#fff"/>
          <path id="パス_1509" data-name="パス 1509" d="M42.1,7.247a.126.126,0,0,1-.068-.025c-.327.111-.961.36-1.26.5v.82l-.538-.005c.005-.075.005-.156.005-.246v-.3c-.365.171-.546.387-.546.634,0,.211.209.324.624.324a3.967,3.967,0,0,0,1.323-.214l-.018.621a3.662,3.662,0,0,1-1.142.156c-.893,0-1.338-.282-1.338-.853a1.052,1.052,0,0,1,.375-.765,3.278,3.278,0,0,1,.689-.458c-.008-.239-.08-.362-.214-.362a.663.663,0,0,0-.468.2,4.207,4.207,0,0,0-.35.362c-.169.186-.274.312-.337.375-.083-.093-.209-.236-.377-.435A3.842,3.842,0,0,0,39.6,6.14c-.241.033-.511.053-.8.07-.018-.2-.045-.39-.073-.553A7.762,7.762,0,0,0,39.769,5.6a4.347,4.347,0,0,0,.156-.734l.614.138c.038.01.055.03.055.063s-.023.06-.073.08c-.023.091-.063.229-.123.41a7.585,7.585,0,0,0,.853-.2l-.05.586c-.252.053-.589.108-1.006.163a3.579,3.579,0,0,1-.282.536.8.8,0,0,1,.259-.038c.277,0,.458.184.541.566.365-.191.78-.387,1.23-.589l.209.6c0,.043-.018.063-.055.063" transform="translate(58.269 7.38)" fill="#fff"/>
          <path id="パス_1510" data-name="パス 1510" d="M42.794,8.525a3.908,3.908,0,0,1-.815.219c-.141-.166-.274-.342-.423-.493a5.981,5.981,0,0,0,1.049-.279A1.3,1.3,0,0,0,43.568,6.7c-.015-.7-.377-.923-.911-.911-.737.02-1.419.576-2.138.782-.023-.073-.234-.664-.234-.689,0-.053.065-.035.1-.035a3.894,3.894,0,0,0,1.092-.307A4.135,4.135,0,0,1,42.8,5.21a1.326,1.326,0,0,1,1.358,1.421,1.809,1.809,0,0,1-1.368,1.894" transform="translate(61.042 7.895)" fill="#fff"/>
          <path id="パス_1511" data-name="パス 1511" d="M44.38,9.538a8.794,8.794,0,0,0-1.371-1.547,4.59,4.59,0,0,0-.395-.347,1.087,1.087,0,0,1-.229-.2.464.464,0,0,1-.086-.287.612.612,0,0,1,.209-.453c.219-.234.445-.45.659-.692.319-.362.641-.722.953-1.107.131.113.264.219.395.332a.8.8,0,0,1,.151.126.078.078,0,0,1,.023.05c0,.073-.1.083-.151.073-.3.287-.609.568-.913.86-.131.123-.246.257-.375.377-.06.06-.128.113-.184.176a.357.357,0,0,0-.108.214.193.193,0,0,0,.083.158c.191.181.4.337.6.506a9.334,9.334,0,0,1,1.212,1.3c-.161.148-.314.309-.473.458" transform="translate(64.094 7.433)" fill="#fff"/>
          <path id="パス_1512" data-name="パス 1512" d="M45.261,9.43a2.4,2.4,0,0,0-.246-.438.093.093,0,0,1-.023-.048c0-.015.023-.02.03-.025a4.017,4.017,0,0,0,.674-.086c.475-.123.908-.367.908-1.016a.664.664,0,0,0-.747-.734,1.532,1.532,0,0,0-1.192.747,8.756,8.756,0,0,0-.506.742l-.465-.423A15.7,15.7,0,0,0,45,6.356a4.829,4.829,0,0,0,.392-.7c-.123.028-.239.065-.357.1-.214.06-.43.123-.649.171-.033-.206-.065-.415-.106-.621a10.154,10.154,0,0,0,1.494-.262,2.074,2.074,0,0,0,.314-.1,3.652,3.652,0,0,1,.284.453c0,.053-.055.068-.086.073a9.728,9.728,0,0,0-.931,1.225,2.263,2.263,0,0,1,.594-.091,1.171,1.171,0,0,1,1.24,1.29c0,1.134-1.144,1.5-1.927,1.544" transform="translate(66.206 7.479)" fill="#fff"/>
          <path id="パス_1513" data-name="パス 1513" d="M46.622,9.783c-.169-.158-.335-.322-.513-.465a2.2,2.2,0,0,0,1.31-.951,1.784,1.784,0,0,0,.179-.8c0-.485-.156-.765-.578-.765a3.725,3.725,0,0,0-1.29.584c-.03-.083-.249-.644-.249-.694s.045-.033.065-.033a2.847,2.847,0,0,0,.563-.158,3.043,3.043,0,0,1,1.059-.277c.729,0,1.049.589,1.049,1.4a2.329,2.329,0,0,1-1.595,2.158m.8-3.939a6.565,6.565,0,0,0-1.288-.493c.086-.2.169-.392.254-.589a4.866,4.866,0,0,1,1.32.5c-.091.194-.181.392-.287.584" transform="translate(68.912 7.218)" fill="#fff"/>
        </g>
      </g>
    </g>
    <rect id="長方形_5013" data-name="長方形 5013" width="61" height="62" transform="translate(1024 5189)" fill="none"/>
  </g>
</svg>
