<svg id="グループ_241" data-name="グループ 241" xmlns="http://www.w3.org/2000/svg" xmlns:xlink="http://www.w3.org/1999/xlink" width="270.353" height="62" viewBox="0 0 270.353 62">
  <defs>
    <clipPath id="clip-path">
      <rect id="長方形_5008" data-name="長方形 5008" width="270.353" height="62" fill="none"/>
    </clipPath>
  </defs>
  <rect id="長方形_5004" data-name="長方形 5004" width="63.477" height="62" transform="translate(0 0)" fill="#db0015"/>
  <g id="グループ_240" data-name="グループ 240" transform="translate(0 0)">
    <g id="グループ_239" data-name="グループ 239" clip-path="url(#clip-path)">
      <path id="パス_1514" data-name="パス 1514" d="M3.173,4.478a9.524,9.524,0,0,1-.936.365c-.407.136-.664.229-.772.277V3.442a9.9,9.9,0,0,0,1.2-.584,4.108,4.108,0,0,0,1-.714H5.434V13.965H3.173Z" transform="translate(2.22 3.249)" fill="#fff"/>
      <path id="パス_1515" data-name="パス 1515" d="M18.981,12.8a1.724,1.724,0,1,1,1.725,1.725A1.725,1.725,0,0,1,18.981,12.8" transform="translate(28.76 16.777)" fill="#fff"/>
      <path id="パス_1516" data-name="パス 1516" d="M24.15,12.713A2.3,2.3,0,0,1,26.238,15v4.779a.669.669,0,0,1-1.338,0v-4.1c0-.153-.045-.362-.324-.362-.2,0-.236.206-.244.337v12.3a.961.961,0,1,1-1.922,0v-7.09a.26.26,0,0,0-.272-.282h0a.264.264,0,0,0-.277.282v7.09a.96.96,0,1,1-1.919,0v-12.3c-.008-.131-.05-.337-.241-.337-.284,0-.327.209-.327.362v4.1a.668.668,0,0,1-1.336,0V15a2.3,2.3,0,0,1,2.088-2.291.985.985,0,0,1,.128-.01H24.02a1.025,1.025,0,0,1,.131.01" transform="translate(27.328 19.248)" fill="#fff"/>
      <path id="パス_1517" data-name="パス 1517" d="M16.871,13.1a1.632,1.632,0,1,0-1.632,1.632A1.633,1.633,0,0,0,16.871,13.1" transform="translate(20.616 17.377)" fill="#fff"/>
      <path id="パス_1518" data-name="パス 1518" d="M13.791,14.358l-1.358,4.419s-.241.81.445,1.011.893-.589.893-.589l1.094-3.687s.058-.284.272-.221.133.365.133.365l-1.9,6.909h1.771v4.95a.851.851,0,0,0,1.7,0v-4.95h.483v4.95a.85.85,0,0,0,1.7,0v-4.95h1.771l-1.9-6.909s-.08-.3.131-.365.274.221.274.221L20.391,19.2s.209.792.89.589.445-1.011.445-1.011l-1.356-4.419s-.485-1.278-1.559-1.278H15.35c-1.074,0-1.559,1.278-1.559,1.278" transform="translate(18.776 19.82)" fill="#fff"/>
      <path id="パス_1519" data-name="パス 1519" d="M12.983,13.1a1.632,1.632,0,1,0-1.632,1.632A1.633,1.633,0,0,0,12.983,13.1" transform="translate(14.725 17.377)" fill="#fff"/>
      <path id="パス_1520" data-name="パス 1520" d="M9.9,14.358,8.545,18.777s-.244.81.445,1.011.89-.589.89-.589l1.094-3.687s.06-.284.272-.221.133.365.133.365l-1.9,6.909h1.771v4.95a.851.851,0,0,0,1.7,0v-4.95h.483v4.95a.851.851,0,0,0,1.7,0v-4.95h1.771L15,15.656s-.08-.3.133-.365.272.221.272.221L16.5,19.2s.209.792.89.589.445-1.011.445-1.011l-1.356-4.419S16,13.08,14.921,13.08H11.46c-1.071,0-1.559,1.278-1.559,1.278" transform="translate(12.884 19.82)" fill="#fff"/>
      <path id="パス_1521" data-name="パス 1521" d="M17.9,17.389a1.359,1.359,0,1,0-1.358-1.361A1.358,1.358,0,0,0,17.9,17.389" transform="translate(25.068 22.229)" fill="#fff"/>
      <path id="パス_1522" data-name="パス 1522" d="M15.819,19.652a.474.474,0,0,0,.2.644A.452.452,0,0,0,16.6,20.1l.739-2.354s.128-.158.128,0V23.3h0a.7.7,0,0,0,1.4,0V21.113s-.04-.309.209-.309.211.309.211.309V23.3a.7.7,0,0,0,1.4,0V17.753c0-.161.088-.045.088-.045l.578,1.612a4.007,4.007,0,0,0,.327.755.516.516,0,0,0,.674-.279.5.5,0,0,0-.055-.5l.005-.005c-.015-.053-.865-2.135-.963-2.427-.307-.9-.865-.885-1.4-.9s-.858,0-.858,0-.342-.015-1.054.005-.931.387-1.713,2.4c-.111.289-.488,1.225-.493,1.283Z" transform="translate(23.893 24.186)" fill="#fff"/>
      <path id="パス_1523" data-name="パス 1523" d="M7.3,12.8a1.724,1.724,0,1,0-1.725,1.725A1.727,1.727,0,0,0,7.3,12.8" transform="translate(5.831 16.777)" fill="#fff"/>
      <path id="パス_1524" data-name="パス 1524" d="M4.99,12.713A2.3,2.3,0,0,0,2.9,15v4.779a.669.669,0,0,0,1.338,0v-4.1c0-.153.045-.362.327-.362.194,0,.234.206.241.337v12.3a.96.96,0,1,0,1.919,0v-7.09A.264.264,0,0,1,7,20.586H7a.264.264,0,0,1,.277.282v7.09a.96.96,0,1,0,1.919,0v-12.3c.008-.131.05-.337.244-.337.282,0,.324.209.324.362v4.1a.669.669,0,0,0,1.338,0V15a2.3,2.3,0,0,0-2.09-2.291.981.981,0,0,0-.126-.01H5.12a1.025,1.025,0,0,0-.131.01" transform="translate(4.397 19.248)" fill="#fff"/>
      <line id="線_1" data-name="線 1" x1="1.532" y2="8.117" transform="translate(6.352 39.727)" fill="none" stroke="#fff" stroke-linecap="round" stroke-width="0.194"/>
      <path id="パス_1525" data-name="パス 1525" d="M7.041,15.607a.5.5,0,0,0-.916.262.873.873,0,0,0,.05.216l1.368,2.48a.866.866,0,0,1,.086.327v5.325h0a.669.669,0,0,0,1.338,0v-2.1s-.038-.3.2-.3.2.3.2.3v2.1a.672.672,0,0,0,1.343,0V18.892a.886.886,0,0,1,.083-.327l1.265-2.289a2.246,2.246,0,0,0,.156-.407.5.5,0,0,0-.916-.262l-.005,0c-.04.033-.674,1.165-.883,1.373a.559.559,0,0,1-.42.2H8.348a.559.559,0,0,1-.42-.2c-.211-.209-.843-1.341-.883-1.373Z" transform="translate(9.281 23.298)" fill="#fff"/>
      <path id="パス_1526" data-name="パス 1526" d="M8.154,17.389A1.359,1.359,0,1,0,6.8,16.028a1.358,1.358,0,0,0,1.358,1.361" transform="translate(10.297 22.229)" fill="#fff"/>
      <path id="パス_1527" data-name="パス 1527" d="M8.7,16.509l1.537,1.122.729,2.686H6.435l.732-2.686Z" transform="translate(9.751 25.016)" fill="#fff"/>
      <path id="パス_1528" data-name="パス 1528" d="M9.567,3.789a3.3,3.3,0,0,1-.6-.382,1.626,1.626,0,0,1-.06.327c-.123.44-.619.468-.953.48l-.2-.382c.171,0,.526,0,.6-.221A.945.945,0,0,0,8.4,3.417H7.756a2.187,2.187,0,0,1-.83.822H9.2v2H8.654a2.207,2.207,0,0,0,1.092.39l-.3.5a4.807,4.807,0,0,1-1.421-.619l.292-.274H7.064l.277.246a.132.132,0,0,1,.05.075c0,.043-.05.058-.078.058a.136.136,0,0,1-.075-.02,5.185,5.185,0,0,1-1.258.543l-.3-.47a2.489,2.489,0,0,0,1.079-.433h-.46V4.564a2.229,2.229,0,0,1-.377.143l-.269-.428a2.141,2.141,0,0,0,1.416-.863h-.7a2.623,2.623,0,0,1-.511.287l-.37-.372A2.451,2.451,0,0,0,6.815,2.169l.558.184a.067.067,0,0,1,.045.068c0,.07-.073.1-.121.1a3.027,3.027,0,0,1-.468.5H8.508a5.8,5.8,0,0,1-.523-.558l.493-.3A3.218,3.218,0,0,0,9.909,3.3Zm-.893.828H6.78v.2H8.674Zm0,.528h-1.9v.2h1.9Zm0,.516h-1.9v.2h1.9Z" transform="translate(8.314 3.279)" fill="#fff"/>
      <path id="パス_1529" data-name="パス 1529" d="M7.616,2.3h3.748V6.872H7.616Zm3.2.5H8.134V6.389h2.684Zm-.372,3.028a4.476,4.476,0,0,1-.709-1.054V6.248h-.48V4.785a3.48,3.48,0,0,1-.77,1.029l-.345-.362a3.288,3.288,0,0,0,.971-1.378H8.32v-.45h.918v-.7l.483.043c.043.005.088.01.088.075,0,.033-.038.063-.06.075v.511h.9v.45H9.87a3.781,3.781,0,0,0,.946,1.368Z" transform="translate(11.54 3.481)" fill="#fff"/>
      <path id="パス_1530" data-name="パス 1530" d="M13.158,4.6a.126.126,0,0,1-.068-.025c-.327.111-.961.36-1.263.5V5.9l-.536,0c0-.075,0-.156,0-.244v-.3c-.365.171-.546.387-.546.634,0,.211.209.322.624.322A6.908,6.908,0,0,0,12.7,6.212l.008.594a5.386,5.386,0,0,1-1.17.065c-.89,0-1.338-.282-1.338-.853a1.054,1.054,0,0,1,.372-.765,3.333,3.333,0,0,1,.694-.458c-.01-.239-.083-.362-.216-.362a.667.667,0,0,0-.468.2,3.774,3.774,0,0,0-.35.36c-.169.186-.274.314-.337.377-.083-.1-.211-.236-.377-.435A3.862,3.862,0,0,0,10.663,3.5c-.241.033-.511.053-.8.07-.02-.2-.045-.39-.073-.553a7.7,7.7,0,0,0,1.041-.055,4.019,4.019,0,0,0,.156-.732l.616.138a.064.064,0,0,1,.053.063c0,.033-.023.058-.07.08-.023.091-.065.229-.126.407a6.8,6.8,0,0,0,.853-.194l-.05.584c-.249.053-.586.106-1.006.163A3.239,3.239,0,0,1,10.972,4a.882.882,0,0,1,.259-.038c.279,0,.46.186.541.568.365-.191.78-.387,1.232-.589l.209.6c0,.04-.018.063-.055.063" transform="translate(14.419 3.376)" fill="#fff"/>
      <path id="パス_1531" data-name="パス 1531" d="M7.71,6.132c-.224.065-.443.118-.664.161a10.975,10.975,0,0,1-.994,2.493,5.56,5.56,0,0,1-.5-.287,8.686,8.686,0,0,0,.911-2.143,4.7,4.7,0,0,1-.679.058c-.023-.184-.05-.372-.073-.563a1.669,1.669,0,0,0,.252.013A4.156,4.156,0,0,0,6.6,5.818,5.593,5.593,0,0,0,6.717,4.9c.214.033.425.058.634.106-.053.244-.108.5-.184.739a4.663,4.663,0,0,0,.548-.181c0,.186-.005.377-.005.568M8.983,9.387a3.892,3.892,0,0,0-.606-.548c0,.058,0,.118,0,.174-.02.551-.377.7-.787.7a1.264,1.264,0,0,1-.43-.07.8.8,0,0,1-.536-.755.793.793,0,0,1,.83-.807,2.3,2.3,0,0,1,.372.03c-.005-.249-.013-.5,0-.75A1.015,1.015,0,0,1,7.891,7H8.3c.025,0,.158-.02.156.043l-.005.023a.693.693,0,0,0-.093.324c-.01.282,0,.558.01.84a3.212,3.212,0,0,1,.966.634c-.113.179-.229.36-.352.526M7.848,8.62a.775.775,0,0,0-.324-.058c-.174,0-.39.053-.4.3s.252.357.43.357.292-.038.3-.264c0-.113,0-.224-.008-.337M9.066,6.842a2.785,2.785,0,0,0-1.107-.611L8.223,5.7a2.8,2.8,0,0,1,1.134.611Z" transform="translate(8.412 7.425)" fill="#fff"/>
      <path id="パス_1532" data-name="パス 1532" d="M9.492,9.614A8.721,8.721,0,0,0,8.157,8.036a4.223,4.223,0,0,0-.387-.355,1.091,1.091,0,0,1-.224-.206.456.456,0,0,1-.08-.289.615.615,0,0,1,.219-.448c.224-.229.458-.443.677-.677.327-.355.656-.709.976-1.084l.39.337a1.024,1.024,0,0,1,.146.131.066.066,0,0,1,.023.048c0,.075-.1.086-.153.073-.307.282-.621.556-.933.84-.131.118-.252.249-.382.37-.06.058-.131.108-.186.171a.35.35,0,0,0-.113.211A.2.2,0,0,0,8.2,7.32c.186.184.4.345.589.518A9.1,9.1,0,0,1,9.978,9.168c-.163.143-.322.3-.485.445" transform="translate(11.311 7.543)" fill="#fff"/>
      <path id="パス_1533" data-name="パス 1533" d="M11.062,7.329a1.251,1.251,0,0,0-.41,1.142c.086.521.712.591,1.041.591.1,0,.214-.005.324-.015-.053.2-.111.4-.161.594h-.1c-.644,0-1.562-.116-1.645-1.107a1.813,1.813,0,0,1,.377-1.366,9.541,9.541,0,0,0-1.6.37c-.028-.2-.073-.4-.113-.6a4.132,4.132,0,0,0,.845-.2,6.049,6.049,0,0,0,1.1-1.107,7.687,7.687,0,0,1-.961.025c0-.186,0-.375-.01-.558a5.9,5.9,0,0,0,1.444-.01,1.353,1.353,0,0,0,.362-.128c.093.169.184.342.264.513a12.3,12.3,0,0,0-1.381,1.245c.674-.088,1.353-.148,2.027-.194-.008.214-.008.428-.018.639a2.382,2.382,0,0,0-1.4.166" transform="translate(13.308 7.516)" fill="#fff"/>
      <path id="パス_1534" data-name="パス 1534" d="M11.819,9.966c-.171-.156-.342-.319-.523-.463a2.217,2.217,0,0,0,1.338-.946,2.193,2.193,0,0,0,.189-.84c.033-.483-.106-.772-.538-.8a3.859,3.859,0,0,0-1.351.493c-.025-.083-.211-.659-.209-.707s.048-.028.068-.028a3.027,3.027,0,0,0,.586-.118,3.127,3.127,0,0,1,1.1-.206c.742.05,1.029.659.973,1.466a2.426,2.426,0,0,1-1.63,2.148m.815-3.989a6.829,6.829,0,0,0-1.315-.5c.088-.2.171-.4.259-.6a5.1,5.1,0,0,1,1.348.506c-.093.2-.186.4-.292.591" transform="translate(16.251 7.395)" fill="#fff"/>
      <rect id="長方形_5005" data-name="長方形 5005" width="62" height="62" transform="translate(69.339)" fill="#d39400"/>
      <path id="パス_1535" data-name="パス 1535" d="M29.556,12.464l2.86-4.422.176-.264a11.2,11.2,0,0,0,.817-1.393,2.858,2.858,0,0,0,.262-1.232,1.453,1.453,0,0,0-.219-.868.725.725,0,0,0-.626-.3.864.864,0,0,0-.848.465,2.911,2.911,0,0,0-.234,1.285v.541H29.556V5.693a4.074,4.074,0,0,1,.782-2.636,2.947,2.947,0,0,1,2.445-.971,3.126,3.126,0,0,1,2.327.81,3.145,3.145,0,0,1,.795,2.3,3.919,3.919,0,0,1-.2,1.27,5.727,5.727,0,0,1-.48,1.066c-.186.312-.473.752-.863,1.328l-2.276,3.416H35.6v1.778H29.556Z" transform="translate(44.784 3.161)" fill="#fff"/>
      <path id="パス_1536" data-name="パス 1536" d="M44.242,28.758v.875l0,.02,0,.02a.415.415,0,0,0,.4.395h10.31a.415.415,0,0,0,.4-.412v-1a16,16,0,0,0,11.069-12.3l.005-.033.005-.058a.414.414,0,0,0-.415-.418H33.281a.416.416,0,0,0-.415.418l.02.186a16.046,16.046,0,0,0,11.356,12.3" transform="translate(49.799 24.024)" fill="#fff"/>
      <path id="パス_1537" data-name="パス 1537" d="M42.7,10.555c-.136.191-3.3,4.746.07,8.428,1.544,1.69,1.411,3.182.971,4.19H45.9A5.316,5.316,0,0,0,44.4,17.9c-2.483-2.714.03-6.384.068-6.439a.81.81,0,0,0-.35-1.21,1.152,1.152,0,0,0-1.424.3" transform="translate(62.456 15.35)" fill="#fff"/>
      <path id="パス_1538" data-name="パス 1538" d="M41.148,23.174h2.161a5.317,5.317,0,0,0-1.5-5.269c-2.485-2.714.028-6.381.068-6.441a.809.809,0,0,0-.352-1.207,1.149,1.149,0,0,0-1.421.3c-.136.191-3.3,4.746.07,8.428,1.544,1.693,1.411,3.184.971,4.19" transform="translate(58.53 15.35)" fill="#fff"/>
      <path id="パス_1539" data-name="パス 1539" d="M37.515,10.556c-.136.191-3.3,4.746.07,8.428,1.544,1.693,1.411,3.184.971,4.19h2.161a5.313,5.313,0,0,0-1.5-5.269c-2.483-2.714.033-6.384.07-6.441a.809.809,0,0,0-.352-1.207,1.143,1.143,0,0,0-1.421.3" transform="translate(54.605 15.349)" fill="#fff"/>
      <path id="パス_1540" data-name="パス 1540" d="M41.984,4.559a.126.126,0,0,1-.068-.025c-.327.111-.961.36-1.263.5v.817l-.536,0c0-.075,0-.153,0-.244V5.3c-.365.171-.546.39-.546.634,0,.211.209.324.624.324a6.916,6.916,0,0,0,1.326-.1l.008.594a5.549,5.549,0,0,1-1.17.065c-.89,0-1.338-.282-1.338-.853a1.054,1.054,0,0,1,.372-.765,3.236,3.236,0,0,1,.694-.458c-.01-.239-.083-.362-.216-.362a.667.667,0,0,0-.468.2,3.568,3.568,0,0,0-.35.362c-.169.186-.274.314-.34.377-.08-.1-.209-.239-.375-.438a3.862,3.862,0,0,0,1.147-1.441c-.241.033-.511.053-.8.07-.02-.2-.045-.39-.073-.553a8.28,8.28,0,0,0,1.044-.053,4.677,4.677,0,0,0,.153-.734l.616.138a.062.062,0,0,1,.053.063c0,.033-.023.06-.07.08-.023.091-.065.229-.126.41a7.46,7.46,0,0,0,.853-.2l-.05.586c-.249.053-.586.108-1.006.166a3.326,3.326,0,0,1-.282.531.954.954,0,0,1,.259-.035c.279,0,.46.184.543.568.362-.191.777-.39,1.23-.591l.209.6c0,.04-.018.063-.055.063" transform="translate(58.096 3.307)" fill="#fff"/>
      <path id="パス_1541" data-name="パス 1541" d="M38.833,6.736a1.09,1.09,0,0,1-.541.191c-.546,0-.624-.335-.624-.858,0-1.021,0-2.04-.01-3.064h-.48v1.1c0,1.021-.038,2.246-.83,2.94L35.9,6.769a1.535,1.535,0,0,0,.294-.317l-.131.091c-.038-.068-.083-.138-.116-.206-.412.191-.838.345-1.255.526-.005.028-.028.091-.06.091a.076.076,0,0,1-.078-.05l-.244-.493c.136-.03.272-.063.4-.106V3.954a2.278,2.278,0,0,1-.189.161l-.335-.372a3.741,3.741,0,0,0,1.167-1.615l.538.133c.018.005.073.02.073.053a.05.05,0,0,1-.045.053,3.8,3.8,0,0,0,.664.782l-.36.392a5.99,5.99,0,0,1-.594-.709,4.411,4.411,0,0,1-.7.921h.415V3.29l.5.035c.038.008.093.008.093.065,0,.043-.055.073-.083.091v.272h.475V5.446H35.218V6.17c.169-.058.34-.133.508-.2a3.252,3.252,0,0,0-.211-.272c.133-.075.274-.156.41-.229.151.224.3.453.435.687A4.388,4.388,0,0,0,36.637,4.4c0-.629-.015-1.263-.03-1.891h1.627c-.02,1.19-.025,2.382-.025,3.569,0,.123-.01.289.146.289a.856.856,0,0,0,.513-.332Zm-3-2.621h-.614v.314h.614Zm0,.687h-.614v.292h.614Z" transform="translate(51.808 3.225)" fill="#fff"/>
      <path id="パス_1542" data-name="パス 1542" d="M40.333,7.053a2.962,2.962,0,0,1-.566-.81,2.534,2.534,0,0,1-.707.7l-.236-.312a.984.984,0,0,1-.475.42l-.314-.36c.365-.146.47-.312.47-.755,0-.153,0-.3,0-.458l-.181.1c0,.048-.033.118-.078.118-.015,0-.038-.023-.043-.038l-.143-.4v.229h-.893v.739c.148-.068.3-.126.45-.206-.053-.1-.108-.191-.169-.284l.372-.211c.156.277.3.558.433.848l-.342.249c-.033-.068-.075-.133-.111-.2-.34.169-.687.329-1.029.488,0,.048-.02.1-.068.1a.061.061,0,0,1-.045-.033l-.274-.485c.111-.038.219-.07.324-.116V3.937a1.073,1.073,0,0,1-.158.143l-.3-.4a3.454,3.454,0,0,0,.986-1.529l.546.171a.039.039,0,0,1,.028.038.056.056,0,0,1-.025.043,2.33,2.33,0,0,0,.357.538,2.772,2.772,0,0,0,.888-.528c.088.133.181.257.269.385-.005-.161-.005-.319-.005-.48V2.221l.573.111a.066.066,0,0,1,.055.065c0,.058-.06.091-.1.1-.025.38-.025.762-.025,1.139v.143h.782v.475H39.8a5.687,5.687,0,0,0,.065.9,4.14,4.14,0,0,0,.156-.762l.463.324a.079.079,0,0,1,.038.068.105.105,0,0,1-.08.093,3.914,3.914,0,0,1-.35.858,2.017,2.017,0,0,0,.639.845ZM37.224,3.346c-.1.143-.209.282-.324.415h.324Zm-.06.777v.329H37.6l.005-.329Zm.44.7h-.44v.319h.44Zm.9-.573h-.38V3.793h.38V3.275a2.868,2.868,0,0,1-.312.138l-.116-.138-.161.156a3.065,3.065,0,0,1-.4-.566,4.683,4.683,0,0,1-.259.433c.143.015.282.03.425.048.033.005.1.01.1.063s-.048.08-.08.1v.257h.362V5.134c.148-.053.3-.1.445-.158Zm.83,0h-.365v.563c.111-.053.221-.1.329-.153l0,.48c-.106.055-.221.093-.327.153v.787a1.1,1.1,0,0,1-.07.395,2.076,2.076,0,0,0,.649-.752,4.672,4.672,0,0,1-.219-1.474M39.3,2.961l-.06-.015c-.086.053-.169.106-.254.151v.7h.332c0-.277-.015-.553-.018-.833m1.28-.025c-.111.2-.209.42-.322.621l-.362-.174c.093-.279.153-.571.226-.858l.541.287c.015.005.02.038.02.053,0,.058-.065.07-.1.07" transform="translate(54.916 3.252)" fill="#fff"/>
      <path id="パス_1543" data-name="パス 1543" d="M38.241,6.687c-.063.1-.113.206-.171.3A5.664,5.664,0,0,1,37,8.4a3.263,3.263,0,0,0-.5-.377,3.754,3.754,0,0,0,.845-1.1c-.181.023-.36.058-.533.083-.267.045-.528.088-.795.138-.005.211-.01.42-.01.631v.772c0,.438.206.478.548.478a5.881,5.881,0,0,0,1.507-.181c-.018.236-.053.475-.073.709-.493.045-.983.068-1.479.068-.579,0-1.142-.163-1.142-.931V7.228c-.365.063-.717.141-1.077.211-.025-.221-.05-.45-.08-.672.385-.033.767-.073,1.152-.136V5.374l.687.08c.04.005.086.023.086.078a.114.114,0,0,1-.078.1c-.008.3-.015.6-.02.911.488-.073.973-.163,1.459-.244a1.481,1.481,0,0,0,.38-.108,4.687,4.687,0,0,1,.42.445c0,.033-.038.05-.055.055M37.585,6a5.661,5.661,0,0,0-.445-.765l.372-.216a5.665,5.665,0,0,1,.423.739Zm.7-.234a6.053,6.053,0,0,0-.46-.785l.362-.229a5.285,5.285,0,0,1,.435.762Z" transform="translate(51.838 7.195)" fill="#fff"/>
      <path id="パス_1544" data-name="パス 1544" d="M39.06,8.812V8.528H37.035v.307H36.4c0-1.21.008-2.42.008-3.632.561,0,1.127.013,1.688.013.536,0,1.074-.013,1.607-.013,0,1.147,0,2.291,0,3.441v.169Zm0-3.036H37.035V7.955H39.06Z" transform="translate(55.16 7.884)" fill="#fff"/>
      <path id="パス_1545" data-name="パス 1545" d="M39.029,9.386c-.166.018-.332.04-.5.063a7.1,7.1,0,0,1-.239-2.093A13.411,13.411,0,0,1,38.526,5l.4.093a1.1,1.1,0,0,1,.2.053.067.067,0,0,1,.053.07.077.077,0,0,1-.075.073,10.873,10.873,0,0,0-.267,2.44c0,.2.01.395.01.6.08-.252.161-.506.246-.757.116.106.231.216.347.322a5.222,5.222,0,0,0-.41,1.492m2.928-.259a3.785,3.785,0,0,1-.843.048c-.656-.023-1.27-.128-1.351-1.137.156-.116.309-.239.47-.352,0,.573.267.83.7.845A2.9,2.9,0,0,0,41.967,8.4c-.005.239-.008.478-.01.722m-.169-2.973a3.535,3.535,0,0,0-1.066-.065,4.612,4.612,0,0,0-.737.128c-.02-.2-.033-.445-.058-.644a5.606,5.606,0,0,1,1.044-.123,3.737,3.737,0,0,1,.87.043c-.018.219-.03.443-.053.662" transform="translate(58.013 7.583)" fill="#fff"/>
      <rect id="長方形_5006" data-name="長方形 5006" width="62" height="62" transform="translate(138.845)" fill="#e01f10"/>
      <path id="パス_1546" data-name="パス 1546" d="M58.375,13.724a2.183,2.183,0,0,1-.921-1.217,6.744,6.744,0,0,1-.246-1.972H59.4a4.146,4.146,0,0,0,.191,1.481.84.84,0,0,0,1.386.169,1.667,1.667,0,0,0,.254-.795c.035-.337.053-.82.053-1.454a4.881,4.881,0,0,0-.2-1.612.781.781,0,0,0-.81-.533c-.523,0-.86.355-1.006,1.066H57.324l.161-6.713h5.443V4.083H59.338L59.208,6.7a1.509,1.509,0,0,1,.7-.415,3.279,3.279,0,0,1,1.066-.169,2.013,2.013,0,0,1,1.824.978,5.153,5.153,0,0,1,.614,2.744,9.148,9.148,0,0,1-.249,2.327,2.617,2.617,0,0,1-.941,1.459,3.178,3.178,0,0,1-1.977.533,3.454,3.454,0,0,1-1.869-.43" transform="translate(86.682 3.249)" fill="#fff"/>
      <path id="パス_1547" data-name="パス 1547" d="M87.925,9.314H80.183a.1.1,0,0,0-.1.1v2.573a.1.1,0,0,0,.1.1h3.084l-3.423,3.423A10.134,10.134,0,1,0,72.285,33.53V36.5H69.231a.1.1,0,0,0-.1.1v2.757a.1.1,0,0,0,.1.1h3.053v2.918a.1.1,0,0,0,.1.1h2.754a.1.1,0,0,0,.1-.1V39.449h3.053a.1.1,0,0,0,.1-.1V36.594a.1.1,0,0,0-.1-.1H75.238V33.483A10.131,10.131,0,0,0,81.88,17.647l3.373-3.373v2.88a.1.1,0,0,0,.1.1h2.571a.1.1,0,0,0,.1-.1V9.412a.1.1,0,0,0-.1-.1M73.593,30.942a7.463,7.463,0,1,1,7.463-7.463,7.471,7.471,0,0,1-7.463,7.463" transform="translate(96.146 14.113)" fill="#fff"/>
      <path id="パス_1548" data-name="パス 1548" d="M74.809,13.728H65.757a.093.093,0,0,0-.1.088v2.191a.092.092,0,0,0,.1.091h9.052a.094.094,0,0,0,.1-.091V13.816a.1.1,0,0,0-.1-.088" transform="translate(99.487 20.801)" fill="#fff"/>
      <path id="パス_1549" data-name="パス 1549" d="M74.809,15.283H65.757a.1.1,0,0,0-.1.091v2.193a.093.093,0,0,0,.1.088h9.052a.1.1,0,0,0,.1-.088V15.374a.1.1,0,0,0-.1-.091" transform="translate(99.487 23.158)" fill="#fff"/>
      <path id="パス_1550" data-name="パス 1550" d="M62.787,4.807a5.756,5.756,0,0,0-1.059-.792c.113-.176.216-.362.332-.541a4.653,4.653,0,0,1,1.074.77ZM62.1,6.771c-.038-.063-.319-.616-.319-.651s.04-.038.063-.045a5.375,5.375,0,0,0,.855-.259,7.177,7.177,0,0,0,2.455-1.879c.018.282.045.568.083.858A6.452,6.452,0,0,1,62.1,6.771M63.426,3.6a4.5,4.5,0,0,0-.994-.649c.111-.179.209-.365.312-.551a3.922,3.922,0,0,1,1.024.641c-.111.191-.219.377-.342.558M64.8,3.318a5.75,5.75,0,0,0-.382-.717l.342-.181a6.727,6.727,0,0,1,.35.684Zm.578-.229c-.123-.244-.246-.5-.387-.734l.327-.2a4.867,4.867,0,0,1,.36.714Z" transform="translate(93.531 3.27)" fill="#fff"/>
      <path id="パス_1551" data-name="パス 1551" d="M63.644,5.488v-.5h1.215V3.4h-.991V2.877h2.566V3.4H65.41v1.59h1.248v.5Z" transform="translate(96.435 4.36)" fill="#fff"/>
      <path id="パス_1552" data-name="パス 1552" d="M66.482,5.971a4,4,0,0,1-.8.289c-.028-.065-.314-.667-.314-.667,0-.02.02-.02.035-.02a.879.879,0,0,0,.2-.028,4.765,4.765,0,0,0,1.451-.626,8.119,8.119,0,0,0,1.7-1.411c.038.262.083.521.123.782a7.8,7.8,0,0,1-2.389,1.68m-.106-2.148a5.781,5.781,0,0,0-.91-.988c.179-.151.347-.309.521-.463a5.1,5.1,0,0,1,.878.973,3.807,3.807,0,0,1-.488.478" transform="translate(99.046 3.595)" fill="#fff"/>
      <path id="パス_1553" data-name="パス 1553" d="M70.164,3.649c-.02.063-.033.131-.053.194a4.665,4.665,0,0,1-.153.5,6.565,6.565,0,0,1-.4.923c.206.161.41.329.6.511-.118.161-.244.314-.377.463-.171-.169-.35-.335-.528-.493a3.9,3.9,0,0,1-1.665,1.26c-.128-.148-.264-.292-.4-.43l-.013-.028c0-.02.018-.02.028-.028a1.6,1.6,0,0,0,.262-.088,3.319,3.319,0,0,0,1.326-1.059c-.184-.148-.377-.277-.568-.41.113-.148.214-.3.327-.453q.272.192.536.4A3.663,3.663,0,0,0,69.47,3.84c-.309,0-.614,0-.923.015a5.5,5.5,0,0,1-.961,1.28c-.151-.116-.3-.231-.465-.34A4.4,4.4,0,0,0,68.374,2.5l.614.259a.058.058,0,0,1,.038.06c0,.048-.05.063-.083.063-.058.138-.113.277-.174.41a12.124,12.124,0,0,0,1.28-.065,2.507,2.507,0,0,0,.2.236,1.652,1.652,0,0,0-.08.181m-.184-.523c-.113-.234-.241-.46-.372-.684l.34-.189a6.633,6.633,0,0,1,.342.682Zm.619-.153a5.8,5.8,0,0,0-.375-.712l.329-.2a4.242,4.242,0,0,1,.355.7Z" transform="translate(101.703 3.128)" fill="#fff"/>
      <path id="パス_1554" data-name="パス 1554" d="M72.493,3.666c-.259-.015-.483-.023-.692-.023-.241,0-2.379,0-2.958.023-.008-.214-.018-.483-.023-.644-.005-.078.03-.043.058-.04.078.013.224.015.264.02.277.008.988-.01,1.305-.01.662,0,1.313-.018,2.05-.028-.015.211,0,.488-.005.7" transform="translate(104.277 4.492)" fill="#fff"/>
      <path id="パス_1555" data-name="パス 1555" d="M73.033,5.068V6.811h-.551V5.068H70.754V4.547h1.728V2.782H70.993V2.271h3.531v.511h-1.5V4.547h1.73v.521Zm-1.3-.724c-.158-.377-.322-.76-.513-1.117l.488-.264a6.543,6.543,0,0,1,.428,1.147Zm2.54-.973c-.158.337-.319.672-.5,1l-.4-.191c.151-.4.287-.81.4-1.225l.546.252a.105.105,0,0,1,.065.091c0,.058-.073.078-.111.078" transform="translate(107.207 3.442)" fill="#fff"/>
      <path id="パス_1556" data-name="パス 1556" d="M74.095,3.091l.05.367-.372.1-.148-.48H73.5a3.85,3.85,0,0,1-.485.639l-.4-.262a2.986,2.986,0,0,0,.674-1.323l.523.169a.081.081,0,0,1,.058.07.1.1,0,0,1-.086.086,1.132,1.132,0,0,1-.1.191h.883v.44ZM75.639,4.97l-.008.319h.9v.473h-.89c0,.812.08,1.27-.747,1.414l-.312-.45c.314-.06.543-.086.543-.528V5.762H73.8c.136.128.262.259.39.4.1.1.2.191.287.3l-.34.382c-.252-.254-.5-.521-.77-.745l.3-.34H72.82V5.289h2.3V4.965h-2.44V4.517h1.675V4.2H73.152V3.745h1.192v-.36l.551.073c.023.005.023-.023.023.005s-.018.106-.045.118v.163H76.2V4.2H74.865v.319H76.63V4.97Zm.335-1.856-.146.455-.395-.04.02-.433h-.3a4.006,4.006,0,0,1-.282.485l-.528-.2a3.787,3.787,0,0,0,.624-1.225l.538.161a.067.067,0,0,1,.055.058c0,.048-.06.058-.091.058-.033.08-.07.156-.106.229h1.2v.448Z" transform="translate(110.029 3.235)" fill="#fff"/>
      <path id="パス_1557" data-name="パス 1557" d="M78,4.6a.118.118,0,0,1-.065-.025c-.312.111-.918.362-1.2.5V5.9l-.513-.005c.005-.075.005-.156.005-.246v-.3c-.347.171-.523.387-.523.634,0,.211.2.322.594.322A3.71,3.71,0,0,0,77.562,6.1l-.018.621a3.414,3.414,0,0,1-1.092.153c-.85,0-1.278-.282-1.278-.85a1.078,1.078,0,0,1,.357-.767,3.224,3.224,0,0,1,.659-.458c-.008-.239-.078-.362-.2-.362a.624.624,0,0,0-.448.2A4.5,4.5,0,0,0,75.206,5c-.161.186-.259.312-.319.377-.08-.1-.2-.239-.362-.435A3.8,3.8,0,0,0,75.618,3.5c-.229.033-.485.053-.765.07-.015-.2-.043-.39-.068-.553a7.132,7.132,0,0,0,1-.053,4.871,4.871,0,0,0,.146-.734l.586.138a.062.062,0,0,1,.053.063c0,.033-.02.06-.07.08-.02.091-.06.229-.116.41a6.5,6.5,0,0,0,.812-.2l-.048.586c-.239.053-.561.106-.961.166A3.4,3.4,0,0,1,75.915,4a.877.877,0,0,1,.246-.035c.267,0,.44.184.518.566.347-.189.742-.387,1.172-.589l.2.6c0,.04-.018.063-.053.063" transform="translate(112.92 3.376)" fill="#fff"/>
      <path id="パス_1558" data-name="パス 1558" d="M65.554,9.69a3.347,3.347,0,0,1-1.074-.473,2.287,2.287,0,0,1-.737-.787,2.7,2.7,0,0,1-1.73,1.23L61.7,9.192a2.2,2.2,0,0,0,1.562-.943H61.726V7.776h1.713c0-.1.008-.2.008-.3h-1.3V7.016h1.31V6.684H62.432V6.229h1.029V5.887l.531.038a.052.052,0,0,1,.055.053.089.089,0,0,1-.058.075v.176h1.059v.455H63.979v.332h1.368v.458H63.969c-.005.1-.005.2-.005.3h1.791v.473H64.2a2.483,2.483,0,0,0,1.66.921Zm-.41-3.222V5.8H62.337v.664h-.5V5.336h1.617V4.76l.563.038a.064.064,0,0,1,.073.063.113.113,0,0,1-.075.091v.385h1.658V6.468Z" transform="translate(93.493 7.213)" fill="#fff"/>
      <path id="パス_1559" data-name="パス 1559" d="M65.231,8.047c-.423.206-.855.382-1.283.578-.01.033-.03.08-.063.08-.018,0-.043-.015-.06-.053l-.2-.533c.221-.073.445-.148.669-.229V6.754h-.523V6.291H64.3V5.368h-.566V4.913h1.507v.455h-.423v.923h.377v.463H64.8v.994c.146-.063.3-.133.443-.2ZM67.957,9.38a1.824,1.824,0,0,1-.772.143c-.352,0-.717-.068-.717-.578v-1.1h-.407c.04.033.259.191.259.246,0,.03-.04.053-.065.058a4.212,4.212,0,0,1-.284.526,2.755,2.755,0,0,1-1.117.958l-.392-.372a2.174,2.174,0,0,0,1.315-1.416h-.4V4.86h2.241V7.848h-.639v.921c0,.176.05.292.214.292A1.316,1.316,0,0,0,68,8.716Zm-.868-4.052H65.875v.415h1.215Zm-1.217.84v.4h1.217l.005-.4ZM67.094,7h-1.22v.435h1.22Z" transform="translate(96.407 7.364)" fill="#fff"/>
      <path id="パス_1560" data-name="パス 1560" d="M68.079,8.945a2.118,2.118,0,0,1-1.207.362c-.644,0-1.051-.433-1.087-1.187-.01-.1-.005-.2-.005-.3,0-.284.005-.573.015-.865.013-.687.023-1.378.03-2.062.141.02.287.048.428.078A1.32,1.32,0,0,1,66.431,5c.038.015.08.038.08.086a.108.108,0,0,1-.068.091c-.053.926-.1,1.861-.1,2.787,0,.473.184.762.606.762a1.27,1.27,0,0,0,.578-.156,2.209,2.209,0,0,0,.916-1.112l.332.692a2.6,2.6,0,0,1-.7.792" transform="translate(99.668 7.407)" fill="#fff"/>
      <path id="パス_1561" data-name="パス 1561" d="M70.53,9.2A5.114,5.114,0,0,0,69.5,8.445a.862.862,0,0,1-.983.888c-.45,0-1.142-.267-1.142-.905a.881.881,0,0,1,1-.86,2.283,2.283,0,0,1,.568.068c0-.742-.033-1.494-.091-2.231-.018-.184-.028-.362-.06-.538l.606.091c.028.005.078.03.078.073a.1.1,0,0,1-.05.075v.2c0,.231-.005.465.005.7h.055a4.748,4.748,0,0,0,.626-.03c.163-.023.324-.06.483-.086,0,.206-.008.415-.015.626-.254.023-.513.038-.767.038-.118,0-.236-.005-.36-.01.013.425.018.85.033,1.28a7.643,7.643,0,0,1,1.424.81ZM68.943,8.194a1.4,1.4,0,0,0-.6-.136c-.158,0-.4.116-.4.332,0,.332.319.415.541.415a.408.408,0,0,0,.465-.463Z" transform="translate(102.084 7.374)" fill="#fff"/>
      <path id="パス_1562" data-name="パス 1562" d="M70.388,9.618c-.169-.156-.335-.314-.513-.453a2.193,2.193,0,0,0,1.31-.926,1.691,1.691,0,0,0,.176-.782c0-.473-.153-.745-.576-.745a3.725,3.725,0,0,0-1.288.571c-.033-.08-.252-.629-.252-.677s.045-.033.063-.033a2.922,2.922,0,0,0,.566-.153,3.091,3.091,0,0,1,1.059-.272c.729,0,1.046.576,1.046,1.366a2.275,2.275,0,0,1-1.592,2.1m.8-3.836A6.672,6.672,0,0,0,69.9,5.3c.086-.191.166-.382.254-.573a4.972,4.972,0,0,1,1.32.483c-.091.191-.181.382-.287.568" transform="translate(104.922 7.169)" fill="#fff"/>
      <rect id="長方形_5007" data-name="長方形 5007" width="62" height="62" transform="translate(208.353)" fill="#cd0068"/>
      <path id="パス_1563" data-name="パス 1563" d="M86.014,4.478a9.644,9.644,0,0,1-.933.365c-.41.136-.667.229-.775.277V3.442a9.724,9.724,0,0,0,1.2-.584,4.108,4.108,0,0,0,1-.714h1.766V13.965H86.014Z" transform="translate(127.742 3.249)" fill="#fff"/>
      <path id="パス_1564" data-name="パス 1564" d="M87.158,13.341a3.662,3.662,0,0,1-.81-2.49v-5.3a3.813,3.813,0,0,1,.79-2.548,3.5,3.5,0,0,1,4.744,0,3.812,3.812,0,0,1,.787,2.548v5.3a3.63,3.63,0,0,1-.817,2.483,3.427,3.427,0,0,1-4.693.008m3.219-2.533V5.6A3.05,3.05,0,0,0,90.209,4.5a.666.666,0,0,0-.692-.438.681.681,0,0,0-.717.43,3.247,3.247,0,0,0-.161,1.1v5.212q0,1.475.878,1.474.86,0,.86-1.474" transform="translate(130.836 3.152)" fill="#fff"/>
      <path id="パス_1565" data-name="パス 1565" d="M104.4,16.175H92.983a.132.132,0,0,0-.123.138v3.431a.133.133,0,0,0,.123.141H104.4a.133.133,0,0,0,.126-.141V16.313a.132.132,0,0,0-.126-.138" transform="translate(140.703 24.509)" fill="#fff"/>
      <path id="パス_1566" data-name="パス 1566" d="M104.4,13.272H92.983a.132.132,0,0,0-.123.138v3.431a.133.133,0,0,0,.123.141H104.4a.133.133,0,0,0,.126-.141V13.41a.132.132,0,0,0-.126-.138" transform="translate(140.703 20.11)" fill="#fff"/>
      <path id="パス_1567" data-name="パス 1567" d="M104.086,14.529,98.605,9.048a.093.093,0,0,0-.133,0l-5.481,5.481a.094.094,0,0,0,.065.161h10.961a.094.094,0,0,0,.068-.161" transform="translate(140.858 13.667)" fill="#fff"/>
      <path id="パス_1568" data-name="パス 1568" d="M99.528,24.368l5.481-5.481a.093.093,0,0,0,0-.133l-5.481-5.481a.094.094,0,0,0-.161.065V24.3a.094.094,0,0,0,.161.068" transform="translate(150.562 20.069)" fill="#fff"/>
      <path id="パス_1569" data-name="パス 1569" d="M92.991,19.809l5.481,5.481a.093.093,0,0,0,.133,0l5.481-5.481a.094.094,0,0,0-.065-.161H93.059a.094.094,0,0,0-.068.161" transform="translate(140.858 29.771)" fill="#fff"/>
      <path id="パス_1570" data-name="パス 1570" d="M94.247,13.272l-5.481,5.481a.093.093,0,0,0,0,.133l5.481,5.481a.1.1,0,0,0,.163-.065V13.34a.1.1,0,0,0-.163-.068" transform="translate(134.457 20.068)" fill="#fff"/>
      <path id="パス_1571" data-name="パス 1571" d="M94.647,6.691a4.611,4.611,0,0,1-1.68-2.314,5.7,5.7,0,0,1-.246.7,3.471,3.471,0,0,1-.986,1.3,2.8,2.8,0,0,1-.468.3l-.41-.48a2.539,2.539,0,0,0,.548-.312,3.426,3.426,0,0,0,1.127-2.09,9.894,9.894,0,0,0,.07-1.66l.634.07a.085.085,0,0,1,.086.078.1.1,0,0,1-.08.1c-.01.219-.015.43-.015.649a3.971,3.971,0,0,0,.712,2.052A3.88,3.88,0,0,0,95.12,6.165Z" transform="translate(137.668 3.232)" fill="#fff"/>
      <path id="パス_1572" data-name="パス 1572" d="M95.314,5.031a2.318,2.318,0,0,1-.541-.063,3.816,3.816,0,0,0-.174-.553,2.19,2.19,0,0,0,.581.093c.355,0,.692-.138.692-.646a.444.444,0,0,0-.425-.485.87.87,0,0,0-.267.043c.053.161.108.322.163.483-.151.075-.3.143-.45.206l-.181-.518a6.2,6.2,0,0,0-.611.324c.148.4.289.815.412,1.227.116.39.259.772.355,1.17-.161.093-.33.156-.5.234a22.836,22.836,0,0,0-.7-2.384c-.231.151-.468.307-.692.468-.091-.181-.186-.36-.269-.548.252-.141.508-.287.762-.42-.126-.3-.269-.6-.42-.88.065-.02.511-.186.541-.186s.03.02.045.05c.1.262.189.528.289.79.194-.106.385-.2.581-.3a5.984,5.984,0,0,0-.387-.785c.169-.063.337-.136.506-.194a8.339,8.339,0,0,1,.372.8,1.826,1.826,0,0,1,.533-.068.9.9,0,0,1,.888.981,1.07,1.07,0,0,1-1.1,1.154" transform="translate(140.469 3.272)" fill="#fff"/>
      <path id="パス_1573" data-name="パス 1573" d="M94.6,2.131h3.745V6.714H94.6Zm3.209.511H95.124V6.226h2.681Zm-2.52,3.139V5.325h.88V4.543h-.7V4.108h.7V3.56H95.33V3.1h2.291v.45h-.951V4.1h.719v.375l.231.136a.047.047,0,0,1,.023.038c0,.05-.055.07-.093.07-.078.179-.156.36-.226.543l-.377-.141c.058-.191.113-.385.169-.581h-.45v.792h.968v.445Z" transform="translate(143.333 3.229)" fill="#fff"/>
      <path id="パス_1574" data-name="パス 1574" d="M98.687,6.128c-.131-.148-.252-.309-.382-.455.672-.2,1.293-.483,1.293-1.466A1.359,1.359,0,0,0,98.71,2.8c-.116.9-.342,2.319-1.011,2.847a.616.616,0,0,1-.395.166.63.63,0,0,1-.455-.3,1.9,1.9,0,0,1-.272-1.061,2.008,2.008,0,0,1,1.876-2.168,1.7,1.7,0,0,1,1.7,1.886,1.872,1.872,0,0,1-1.464,1.959m-1.5-2.389a2.114,2.114,0,0,0-.118.712c0,.211.038.762.277.762.086,0,.156-.1.209-.166a4.621,4.621,0,0,0,.611-2.241,1.569,1.569,0,0,0-.978.933" transform="translate(146.335 3.458)" fill="#fff"/>
      <path id="パス_1575" data-name="パス 1575" d="M101,2.7c-.088.169-.174.34-.269.5V6.68h-.551V3.994A4.8,4.8,0,0,1,98.712,5.37L98.322,5a4.913,4.913,0,0,0,2-2.306H98.584V2.163h3.745V2.7Zm1.237,2.749A6.081,6.081,0,0,1,100.792,3.9c.146-.133.282-.277.423-.415a4.33,4.33,0,0,0,1.406,1.484Z" transform="translate(148.979 3.278)" fill="#fff"/>
      <path id="パス_1576" data-name="パス 1576" d="M102.558,4.979V6.722h-.551V4.979h-1.728V4.459h1.728V2.693h-1.489V2.18h3.534v.513h-1.5V4.459h1.73v.521Zm-1.3-.724c-.161-.377-.324-.76-.516-1.117l.488-.267a6.642,6.642,0,0,1,.428,1.149Zm2.538-.973c-.158.335-.319.672-.5,1l-.4-.191c.151-.4.287-.81.4-1.225l.546.252a.1.1,0,0,1,.065.091c0,.058-.073.078-.111.078" transform="translate(151.944 3.304)" fill="#fff"/>
      <path id="パス_1577" data-name="パス 1577" d="M103.64,3l.05.37-.372.1-.146-.48h-.128a3.73,3.73,0,0,1-.488.639l-.395-.259a3.048,3.048,0,0,0,.674-1.326l.523.171a.078.078,0,0,1,.058.068.1.1,0,0,1-.086.086,1.131,1.131,0,0,1-.1.191h.883V3Zm1.544,1.879-.005.319h.9v.473h-.89c0,.815.08,1.273-.747,1.414l-.312-.45c.317-.06.543-.088.543-.528V5.673h-1.328c.136.128.262.262.39.4.1.1.2.194.287.3l-.342.382a10.183,10.183,0,0,0-.767-.745l.3-.34h-.848V5.2h2.3V4.876h-2.44V4.428H103.9V4.111H102.7V3.658h1.192V3.3h.566c.023.005-.106.1-.106.123s.058-.123.068-.158v.4h1.326v.453H104.41v.317h1.766v.453Zm.335-1.856-.146.458-.395-.043.018-.43H104.7a5.111,5.111,0,0,1-.352.453l-.46-.166a3.774,3.774,0,0,0,.624-1.222l.538.158a.07.07,0,0,1,.055.06c0,.048-.06.055-.093.055-.03.08-.068.156-.1.229h1.2v.448Z" transform="translate(154.796 3.101)" fill="#fff"/>
      <path id="パス_1578" data-name="パス 1578" d="M94.64,7.2a.126.126,0,0,1-.068-.025c-.329.111-.961.362-1.26.5v.817l-.538-.005c.005-.075.005-.153.005-.244v-.3c-.362.169-.546.387-.546.631,0,.211.209.324.624.324a3.991,3.991,0,0,0,1.326-.214l-.018.624a3.753,3.753,0,0,1-1.144.153c-.893,0-1.338-.282-1.338-.853a1.058,1.058,0,0,1,.372-.765,3.279,3.279,0,0,1,.692-.455c-.008-.241-.08-.362-.214-.362a.664.664,0,0,0-.468.2,4.211,4.211,0,0,0-.35.362c-.168.186-.274.314-.337.377L91,7.537A3.859,3.859,0,0,0,92.147,6.1c-.241.03-.511.053-.8.068-.018-.2-.045-.39-.073-.553a7.828,7.828,0,0,0,1.044-.053,4.676,4.676,0,0,0,.153-.734l.616.138c.035.013.053.033.053.063s-.023.06-.073.08c-.023.091-.063.229-.121.41a7.468,7.468,0,0,0,.85-.2l-.05.586c-.252.05-.589.106-1.006.163a3.454,3.454,0,0,1-.282.533.882.882,0,0,1,.259-.038c.277,0,.46.184.541.568.365-.191.78-.387,1.23-.591l.209.6c0,.043-.018.063-.055.063" transform="translate(137.881 7.308)" fill="#fff"/>
      <path id="パス_1579" data-name="パス 1579" d="M95,6.016c-.224.065-.443.118-.664.161a10.974,10.974,0,0,1-.994,2.493,5.559,5.559,0,0,1-.5-.287,8.685,8.685,0,0,0,.911-2.143,4.7,4.7,0,0,1-.679.058c-.023-.184-.05-.372-.073-.563a1.652,1.652,0,0,0,.252.013,4.1,4.1,0,0,0,.631-.045,5.56,5.56,0,0,0,.123-.918c.214.033.425.058.634.106-.055.244-.108.5-.184.739a4.665,4.665,0,0,0,.548-.181c0,.186-.005.377-.005.568m1.273,3.255a3.892,3.892,0,0,0-.606-.548c0,.058,0,.118,0,.174-.02.551-.377.7-.787.7a1.254,1.254,0,0,1-.43-.07.8.8,0,0,1-.536-.755.793.793,0,0,1,.83-.807,2.3,2.3,0,0,1,.372.03c-.005-.249-.013-.5-.005-.75a1.138,1.138,0,0,1,.068-.362h.412c.025,0,.158-.02.156.043l-.005.023a.693.693,0,0,0-.093.324c-.01.282,0,.558.01.84a3.17,3.17,0,0,1,.963.634c-.111.181-.226.36-.35.526M95.138,8.5a.78.78,0,0,0-.327-.058c-.171,0-.387.053-.4.3s.252.357.43.357.292-.038.3-.264c.005-.113,0-.224-.005-.337m1.217-1.778a2.785,2.785,0,0,0-1.107-.611l.264-.531a2.811,2.811,0,0,1,1.134.611Z" transform="translate(140.675 7.249)" fill="#fff"/>
      <path id="パス_1580" data-name="パス 1580" d="M96.825,9.5A8.721,8.721,0,0,0,95.49,7.921a3.94,3.94,0,0,0-.39-.355,1.239,1.239,0,0,1-.224-.206.47.47,0,0,1-.078-.289.615.615,0,0,1,.219-.448c.224-.229.458-.443.677-.677.327-.355.656-.709.976-1.084l.39.337a1.024,1.024,0,0,1,.146.131.066.066,0,0,1,.023.048c0,.075-.1.086-.153.073-.307.282-.621.556-.933.84-.131.118-.252.249-.382.37-.06.058-.131.108-.186.171a.338.338,0,0,0-.113.209.205.205,0,0,0,.078.163c.186.184.4.345.589.518a9.1,9.1,0,0,1,1.185,1.331c-.163.143-.322.3-.485.445" transform="translate(143.639 7.369)" fill="#fff"/>
      <path id="パス_1581" data-name="パス 1581" d="M98.442,7.217a1.246,1.246,0,0,0-.38,1.152c.1.518.724.573,1.054.566.1,0,.214-.013.322-.025-.045.2-.1.4-.143.6l-.1,0c-.641.015-1.564-.075-1.67-1.064a1.82,1.82,0,0,1,.342-1.378,9.716,9.716,0,0,0-1.585.41c-.035-.2-.086-.4-.128-.6A3.982,3.982,0,0,0,97,6.661,5.96,5.96,0,0,0,98.07,5.527a7.219,7.219,0,0,1-.958.05c0-.186-.01-.375-.025-.558a5.908,5.908,0,0,0,1.444-.045,1.364,1.364,0,0,0,.36-.138c.1.166.191.337.277.508a12.152,12.152,0,0,0-1.351,1.278c.672-.1,1.348-.184,2.022-.244,0,.214.005.428,0,.641a2.391,2.391,0,0,0-1.393.2" transform="translate(145.697 7.327)" fill="#fff"/>
      <path id="パス_1582" data-name="パス 1582" d="M99.237,9.863c-.171-.158-.342-.322-.526-.463a2.229,2.229,0,0,0,1.341-.948,2.192,2.192,0,0,0,.189-.84c.033-.483-.106-.77-.538-.8a3.859,3.859,0,0,0-1.351.493c-.025-.083-.211-.656-.209-.707s.048-.028.068-.028a2.966,2.966,0,0,0,.584-.118,3.148,3.148,0,0,1,1.1-.2c.742.048,1.029.656.973,1.464a2.432,2.432,0,0,1-1.63,2.151m.815-4.044a6.829,6.829,0,0,0-1.315-.5c.088-.2.171-.4.259-.6a5.062,5.062,0,0,1,1.348.506c-.093.2-.186.4-.292.591" transform="translate(148.708 7.155)" fill="#fff"/>
    </g>
  </g>
</svg>
