<svg xmlns="http://www.w3.org/2000/svg" xmlns:xlink="http://www.w3.org/1999/xlink" width="1204" height="272.648" viewBox="0 0 1204 272.648"><defs><clipPath id="a"><rect width="1204" height="272.648" fill="none"/></clipPath></defs><rect width="172.699" height="265.474" transform="translate(0 3.817)" fill="#fae5cf"/><rect width="26.945" height="2.464" transform="translate(21.099 107.7)" fill="#c65a00"/><g transform="translate(0 0)"><g clip-path="url(#a)"><path d="M20.042,44.768c0,3.919,3.227,4.236,8.823,4.236,4.679,0,9.393-.218,14.072-.439l-.918,2.464H30.511c-5.881,0-7.779-.316-9.488-1.2a4.394,4.394,0,0,1-2.053-2.021,33.448,33.448,0,0,1-3.29,2.527c-.032.257-.095.823-.475.823-.253,0-.38-.218-.506-.475l-1.076-1.958c1.582-.791,2.721-1.424,4.208-2.31V38.159H13.88V36.107h6.162ZM16.755,24.594a48.951,48.951,0,0,1,3.856,6.166L18.555,32a49.156,49.156,0,0,0-3.793-6.265Zm9.361,1.641c.059,3.006.059,3.611.059,4.619,0,10.053-.914,12.363-3.1,16.381l-1.962-1.23c2.594-4.018,2.974-7.589,2.974-13.981,0-3.729-.158-6.261-.285-7.775H40.469V44.013c0,3.065-.127,3.445-4.615,3.54l-.823-2.31a16.941,16.941,0,0,0,1.93.127c1.36,0,1.36-.348,1.36-1.645V26.235Zm5.027.823,2.242.131c.38.032.479.127.479.285,0,.249-.158.348-.57.538v1.61H36.74v1.835H33.295v2.369H37.72V35.66H26.749V33.825h4.394V31.456H27.695V29.621h3.449Zm-3.29,10.564h8.729V44.04H29.846v1.3H27.853Zm6.771,1.8H29.846v2.812h4.778Z" transform="translate(40.255 71.657)" fill="#c65a00"/><path d="M34.323,24.217v9.962H24.681V51.858H22.466V24.217Zm-2.211,1.9H24.681V28.3h7.431Zm0,3.919H24.681v2.278h7.431ZM31.606,49.01H29.454V37.154H41.663V47.365H31.606Zm7.843-9.962H31.606V41.2h7.843Zm0,4.05H31.606v2.373h7.843Zm3.7,6.292c.538.028,1.044.095,1.673.095,1.171,0,1.618-.225,1.618-1.012V34.179H36.7V24.217H48.648V48.156c0,2.97-.249,3.476-4.362,3.6Zm3.29-23.275H38.847V28.3h7.589Zm0,3.919H38.847v2.278h7.589Z" transform="translate(66.385 71.559)" fill="#c65a00"/><path d="M45.427,46.192a14.962,14.962,0,0,0,4.837-2.432A10.4,10.4,0,0,0,54,35.881a9.246,9.246,0,0,0-5-8.187,11.158,11.158,0,0,0-4.335-.854,39.947,39.947,0,0,1-3.658,13.85c-1.333,2.812-3.041,5.565-4.912,5.565-2.646,0-5.4-4.078-5.4-8.665a13.023,13.023,0,0,1,13.376-12.9c6.64,0,12.3,4.176,12.3,11.192,0,8.6-7.649,11.671-9.551,12.43Zm-10.4-14.863a10.4,10.4,0,0,0-2.183,6.2c0,3.385,1.93,5.944,3.192,5.944.664,0,1.428,0,3.484-5.058A37.656,37.656,0,0,0,42.235,26.9a10.3,10.3,0,0,0-7.21,4.426" transform="translate(90.689 72.954)" fill="#c65a00"/><path d="M18.646,43v-7.02l2.464.285c.19.032.823.091.823.443,0,.253-.285.411-.823.728V43H31.389v2.215H21.11V51.79h9.2v2.242h-9.2v7.34H33.7v2.211H5.456V61.373h13.19v-7.34H9.822V51.79h8.823V45.213h-8a19.288,19.288,0,0,1-3.385,5.28L5.207,49.259A25.82,25.82,0,0,0,10.645,37.4l2.527.664c.225.063.7.19.7.538,0,.376-.6.534-1.1.664A32.3,32.3,0,0,1,11.563,43Z" transform="translate(15.386 106.312)" fill="#c65a00"/><path d="M18.4,50.242a38.807,38.807,0,0,0-4.683-2.879l1.329-2.088a29.774,29.774,0,0,1,4.615,2.911Zm-.221,13.122a3.03,3.03,0,0,1,.253.787.281.281,0,0,1-.289.257,1.708,1.708,0,0,1-.724-.257L15.2,62.922a55.629,55.629,0,0,0,5.406-12.177l1.835,1.709c-1.329,3.7-2.784,7.3-4.267,10.912m2.148-22.013a31.3,31.3,0,0,0-4.489-2.97l1.329-1.962a21.952,21.952,0,0,1,4.457,3.1ZM33.385,46.79v5.6H40.31V64.278H37.937V62.352H26.681v1.989h-2.31V52.39h6.545v-5.6H22.066V44.547h8.851V39.706c-3.385.32-5.122.384-6.866.415l-.977-2.31c.728.063,1.455.095,2.654.095a54.015,54.015,0,0,0,9.334-.886,36.457,36.457,0,0,0,4.078-1.044l1.451,1.677a.89.89,0,0,1,.257.506c0,.221-.131.316-.348.316a1.784,1.784,0,0,1-.763-.221,59.419,59.419,0,0,1-6.352,1.135v5.157h8.978V46.79Zm4.552,7.562H26.677V60.3h11.26Z" transform="translate(40.521 106.309)" fill="#c65a00"/><path d="M22.505,38.8h8.38v20.68H28.675V57.423H24.724v3.955H22.505Zm6.17,1.993H24.724v6.292h3.951Zm0,8.25H24.724v6.387h3.951Zm11.54-12.96,2.278.123c.221,0,.6.036.6.316,0,.158-.123.285-.566.57v3.128h5.5v2.124h-5.5v3.729h7.4v2.053H32.467V46.072h7.748V42.343h-5.6V40.219h5.6ZM32.721,52.234H43.347V48.852l2.053.253c.506.063.728.095.728.348,0,.19-.063.221-.57.569v2.211h4.113v2.061H45.558v7.174c0,1.36-.316,2.124-1.515,2.341a31.663,31.663,0,0,1-3.417.127l-.918-2.559c1.107.123,1.8.158,2.12.158,1.519,0,1.519-.506,1.519-1.392V54.294H32.721Zm3.354,3.544a13.927,13.927,0,0,1,2.717,4.176L36.9,61.125a14.373,14.373,0,0,0-2.626-4.208Z" transform="translate(66.5 106.619)" fill="#c65a00"/><path d="M42.875,36.217v9.962H33.229V63.858H31.014V36.217Zm-2.215,1.9H33.225V40.3H40.66Zm0,3.919H33.225v2.278H40.66Zm-.5,18.976H38.006V49.154h12.2V59.365H40.158ZM48,51.048H40.158V53.2H48Zm0,4.05H40.158v2.373H48Zm3.7,6.292c.538.028,1.044.095,1.677.095,1.171,0,1.614-.225,1.614-1.012V46.179H45.248V36.217H57.2V60.156c0,2.97-.253,3.476-4.362,3.6Zm3.291-23.275H47.4V40.3h7.59Zm0,3.919H47.4v2.278h7.59Z" transform="translate(91.644 107.018)" fill="#c65a00"/><path d="M263.7,6.205a25.058,25.058,0,0,1-3.413,5.177,13.131,13.131,0,0,0,3.6,3.409l-1.305,1.495a14.856,14.856,0,0,1-3.294-3.156V25.011h-1.966V14.653a22.438,22.438,0,0,1-4.1,3.294l-1.218-1.578a28.012,28.012,0,0,0,8.946-9.223h-8.06V5.264h4.6V0l2.08.166c.332.028.526.055.526.249,0,.249-.249.36-.609.526V5.264h3.492Zm5.537,17.947c-2.163,0-2.523-.858-2.523-2.325V.221l2.08.221c.194.028.55.083.55.3s-.356.388-.609.471V21c0,1.3.392,1.357,1.467,1.357h2.27c1.946,0,2.2-.969,2.527-3.737l2.1,1c-.577,3.018-1.242,4.54-3.682,4.54Z" transform="translate(744.666 0)" fill="#1a1311"/><path d="M265.856,7.9v4.54a25.082,25.082,0,0,0,2.6-1.8l.281,2.08c-.72.554-1.329,1-2.883,2.021v7.2c0,1.716-.166,2.741-2.27,2.741-.858,0-1.661-.083-2.187-.111l-.221-2.159a10.769,10.769,0,0,0,1.91.36c.743,0,.743-.443.743-1.08v-5.79c-1,.609-1.657,1-2.294,1.357-.115.443-.194.72-.447.72-.079,0-.222-.083-.356-.277l-1.305-1.883a27.651,27.651,0,0,0,4.4-2.163V7.9h-3.512V5.963h3.512V.035l2.057.332c.332.055.688.111.688.332,0,.249-.277.388-.72.581V5.963h3.1V7.9ZM278.4,17.927V24.88h-2.021V17.927h-6.565V16.045h6.565V12.912h-5.319V11.03h5.319v-3.1h-5.319V6.046h5.319V2.914h-5.675v-1.8H284.25v1.8H278.4V6.046h5.624V7.929H278.4v3.1h5.624v1.883H278.4v3.132h6.427v1.883Z" transform="translate(766.592 0.103)" fill="#1a1311"/><path d="M272.581,5.034a2.48,2.48,0,1,1-2.492-2.492,2.5,2.5,0,0,1,2.492,2.492" transform="translate(790.801 7.511)" fill="#1a1311"/><path d="M278.032,4.582V7.3h4.457v9.527h-4.457v2.329h5.122v1.716h-5.122v4.1h-1.938v-4.1h-5.347V19.156h5.347V16.826h-4.71V7.3h4.71V4.582h-5.462V2.865h5.462V.014L278.115.1c.36.028.637.083.637.3,0,.3-.526.526-.72.609V2.865H283.6V4.582Zm2.6,4.378h-7.368v2.274h7.368Zm0,3.852h-7.368v2.353h7.368Zm9.172,11.8-.89-2.159c.637.055,2.325.166,2.855.166s.831-.083.831-1.08V15.359h-5.711a25.492,25.492,0,0,1-2.741,9.555l-1.855-1.08c2.413-3.71,2.883-7.645,2.883-14.4,0-2.021-.087-6.676-.138-8.725h9.5V22.229c0,2.021-.166,2.492-4.734,2.381m2.8-22.021h-5.541c0,.72.055,3.824.055,4.461H292.6Zm0,6.344h-5.486v4.54H292.6Z" transform="translate(799.696 0.041)" fill="#1a1311"/><path d="M290.256,9.871c-.194,2.492-.411,5.066-2.187,7.756a11.678,11.678,0,0,1-5.814,4.43l-1.938-1.744a9.542,9.542,0,0,0,5.675-3.765,11.2,11.2,0,0,0,1.969-6.676h-10.03V7.846h21.353V9.871Zm5.213-7.234H281.677V.616h13.791Z" transform="translate(821.267 1.82)" fill="#1a1311"/><path d="M302.818,2.562c-1.226.8-1.277.858-1.61,1.305a36.671,36.671,0,0,1-3.88,6.7,39.343,39.343,0,0,1,7.51,7.949L302.953,20.1a22.258,22.258,0,0,0-3.544-4.738,27.747,27.747,0,0,0-3.381-3.049,26.261,26.261,0,0,1-10.1,7.206l-1.665-1.859a20.981,20.981,0,0,0,8.895-5.375,23.468,23.468,0,0,0,5.837-9H287.442V1.344h12.323A2.554,2.554,0,0,0,301.07.763Z" transform="translate(839.959 2.255)" fill="#1a1311"/><path d="M292.992,7.823a32.972,32.972,0,0,1,9.084,5.4l-1.353,1.938a30.675,30.675,0,0,0-3.8-2.907,22.875,22.875,0,0,0-4.734-2.492V22.088H289.97V.455l2.112.111c.138,0,.771.028.771.388,0,.166-.226.3-.664.609V9.4Z" transform="translate(856.838 1.344)" fill="#1a1311"/><path d="M257.729,22.008c1.444-.886,1.744-1.052,2.6-1.661l.083,2.159c-.91.554-2.155,1.329-2.685,1.661v7.894c0,2.246-1.578,2.27-2.685,2.27-.554,0-1.056-.024-1.72-.083l-.577-2.072a21.988,21.988,0,0,0,2.219.218c.823,0,.823-.388.823-.969V25.385c-.716.447-1.879,1.135-2.132,1.3-.138.554-.162.613-.356.613-.166,0-.309-.225-.36-.36l-.969-1.97a30.265,30.265,0,0,0,3.817-1.883v-5.9h-3.318V15.442h3.318V9.569l2.163.166c.388.028.581.2.581.3,0,.166-.222.332-.8.72v4.683h2.685v1.744h-2.685Zm17.532-2.159H263.077v3.516h-1.883V18.183h15.954v4.9h-1.887Zm-12.051,2.879H274.32l.664,1a15.624,15.624,0,0,1-4.038,5.928,19.472,19.472,0,0,0,6.565,2.3l-1.254,1.744a21.11,21.11,0,0,1-6.838-2.741,22.411,22.411,0,0,1-6.842,2.962l-1.246-1.657a18.231,18.231,0,0,0,6.561-2.523,15.288,15.288,0,0,1-2.934-4.267l1.665-.664a10.535,10.535,0,0,0,2.8,3.769,11.172,11.172,0,0,0,3.239-4.129h-9.448ZM261.5,10.954c.747.055,1.831.166,3.322.166a26.837,26.837,0,0,0,9.587-1.606L275.9,10.9c.055.051.249.249.249.384,0,.166-.194.221-.3.221a3.094,3.094,0,0,1-.886-.138,44.394,44.394,0,0,1-12.687,1.388Zm1.5,2.385a15.227,15.227,0,0,1,2.741,3.045l-1.443,1.08a19.161,19.161,0,0,0-2.658-2.879Zm4.983-.194a10.91,10.91,0,0,1,2.464,3.239l-1.523.941a17.15,17.15,0,0,0-2.246-3.1Zm3.544,3.461a14.145,14.145,0,0,0,2.935-4.042l1.72,1.163c.111.083.3.221.3.388,0,.3-.364.277-.751.249a13.671,13.671,0,0,1-2.709,3.322Z" transform="translate(744.554 28.113)" fill="#1a1311"/><path d="M276.857,16.487l.494.36c.111.083.309.221.309.388,0,.277-.332.221-.585.194a6.47,6.47,0,0,1-.937,1.44h5.541v1.578h-8.816v1.776h8.452v1.661h-8.452V25.71h10.971v1.661h-9.084a17.544,17.544,0,0,0,8.475,4.461l-1.606,1.827a23.438,23.438,0,0,1-8.756-5.624v6.51h-1.993V28.091a29.3,29.3,0,0,1-8.942,5.928l-1.25-1.8a23.01,23.01,0,0,0,8.309-4.849h-8.918V25.71h10.8V23.883h-8.891V22.222h8.891V20.446h-9.306V18.868H267.1a7.3,7.3,0,0,0-1.246-1.772l.8-.609h-7.036V14.822h8.867V9.479l1.827.111c.332.028.55.166.55.3s-.218.332-.522.526v4.4h2.848V9.562l1.831.111c.388.028.526.166.526.249,0,.138-.221.332-.439.526v4.374h9.029v1.665Zm-11.469-2.108a11.6,11.6,0,0,0-2.464-3.461l1.467-1A11.581,11.581,0,0,1,267.1,13.3Zm2.353,2.108a6.8,6.8,0,0,1,1.246,1.716l-1.1.664h7.17l-.8-.664a7.32,7.32,0,0,0,1.194-1.716Zm12.106-5.209a15.946,15.946,0,0,1-2.575,3.049l-1.3-1.305A19.189,19.189,0,0,0,278.878,9.7l1.3.831c.194.138.439.277.439.5,0,.3-.494.277-.771.249" transform="translate(767.171 28.01)" fill="#1a1311"/><path d="M268.414,24.394a4.447,4.447,0,0,0,1.08-.138l1.218,1.578a3.357,3.357,0,0,0-1.357,1.661c-2.246,6.011-3.718,8.618-6.9,11.746a22.825,22.825,0,0,1-5.6,4.046l-2.021-1.665a21.018,21.018,0,0,0,8.254-6.4,20.65,20.65,0,0,0,4.153-8.974h-8.226a30.1,30.1,0,0,1-5.485,5.928l-1.8-1.357a21.779,21.779,0,0,0,5.07-5.1,17.248,17.248,0,0,0,2.523-4.876l2.132.779c.411.138.55.388.55.522,0,.221-.388.281-.882.364-.471,1-.641,1.329-.941,1.883Zm-.72-4.9a25.475,25.475,0,0,1,2.215,2.658l-1.444,1.084a10.607,10.607,0,0,0-2.215-2.662Zm3.461-.581a22.911,22.911,0,0,1,2.239,2.658l-1.38,1.084a10.422,10.422,0,0,0-2.163-2.662Z" transform="translate(743.859 55.875)" fill="#1a1311"/><path d="M260.166,35.946v1.883H258V20.071h18.339V37.829h-2.191V35.946Zm13.985-13.905H260.166V34h13.985Z" transform="translate(762.378 59.308)" fill="#1a1311"/><rect width="20.055" height="2.021" transform="translate(1043.118 87.333)" fill="#1a1311"/><path d="M278.567,25.368a41.737,41.737,0,0,0,.273-6.039l2.662.332c.194.028.443.055.443.277,0,.111,0,.249-.807.637a31.512,31.512,0,0,1-.356,4.793h8.365a54.619,54.619,0,0,1-1.274,9.749c-.166.72-.886,3.765-2.329,4.932-.886.747-1.91.831-4.263,1l-.72-2.381a8.506,8.506,0,0,0,1.713.134c1.329,0,2.551,0,3.548-3.9a31.1,31.1,0,0,0,1.028-7.562H280.5a27.107,27.107,0,0,1-3.1,8.282,13.927,13.927,0,0,1-5.984,5.707l-1.744-1.716a12.178,12.178,0,0,0,5.319-4.461,21.4,21.4,0,0,0,3.184-7.811h-7.839V25.368Z" transform="translate(796.859 57.116)" fill="#1a1311"/><path d="M275.534,36.956c2.8-1.55,5.988-3.516,5.988-12.213,0-1.689-.087-3.326-.138-4.378l2.27.194c.107.028.609.055.609.332,0,.138-.055.194-.581.581.055,5.181-.083,6.759-.53,8.7-1.159,5.07-3.405,6.7-5.818,8.424Zm12.553-17.172,2.215.166c.273.028.526.111.526.277s-.083.221-.668.581V34.991a16.983,16.983,0,0,0,4.683-3.544,18.313,18.313,0,0,0,3.188-4.1l1.44,1.665a22.763,22.763,0,0,1-4.517,5.2,26.962,26.962,0,0,1-5.568,3.824l-1.3-1.028Z" transform="translate(814.181 58.46)" fill="#1a1311"/><path d="M300.954,21.562c-1.222.8-1.273.858-1.606,1.305a37.373,37.373,0,0,1-3.88,6.7,39.331,39.331,0,0,1,7.506,7.949L301.093,39.1a22.4,22.4,0,0,0-3.544-4.738,27.4,27.4,0,0,0-3.385-3.049,26.2,26.2,0,0,1-10.1,7.206l-1.665-1.859a20.9,20.9,0,0,0,8.891-5.375,23.411,23.411,0,0,0,5.845-9H285.578V20.344h12.327a2.584,2.584,0,0,0,1.305-.581Z" transform="translate(834.452 58.398)" fill="#1a1311"/><path d="M307.03,25.327a3.489,3.489,0,0,0-.72.72c-2.045,4.6-2.432,5.319-3.631,7.091a19.978,19.978,0,0,1,2.745,2.215l-1.44,1.665a22.264,22.264,0,0,0-2.515-2.219,20.869,20.869,0,0,1-4.434,4.24,18.625,18.625,0,0,1-6.011,2.824L289.581,39.9a16.779,16.779,0,0,0,5.485-2.274,18.364,18.364,0,0,0,4.6-4.07,32.667,32.667,0,0,0-4.825-2.575l1.3-1.665a49.734,49.734,0,0,1,4.734,2.579,25.822,25.822,0,0,0,3.1-6.344h-8.139a26.643,26.643,0,0,1-5.624,5.928l-1.887-1.444a19.719,19.719,0,0,0,5.735-5.592,21.871,21.871,0,0,0,2.852-5.1l2.159.914c.332.138.451.36.451.471,0,.3-.7.415-.945.443-.384.8-.5.969-1.444,2.579h6.791a8.339,8.339,0,0,0,1.8-.277Z" transform="translate(852.007 57.157)" fill="#1a1311"/><path d="M306.211,30.908a15.21,15.21,0,0,1-2.132,7.811,11.51,11.51,0,0,1-5.7,4.544l-1.97-1.8a9.4,9.4,0,0,0,5.624-3.82,11.69,11.69,0,0,0,1.883-6.731H294.03V28.887h21.214v2.021Zm5.217-7.285H297.657V21.546h13.771Zm4.54,2.883a23.634,23.634,0,0,0-2.741-2.08l1.02-1.44a26.937,26.937,0,0,1,2.662,2.159Zm1.02-4.018a20.449,20.449,0,0,0-2.681-2.1l.937-1.44a23.048,23.048,0,0,1,2.741,2.159Z" transform="translate(868.835 55.978)" fill="#1a1311"/><path d="M308.5,27.862a37.386,37.386,0,0,1-6.209,3.461l-1.661-1.436a22.786,22.786,0,0,0,7.756-4.074A28.824,28.824,0,0,0,313.9,20.66l1.3,1.19c.225.194.471.415.471.641,0,.138-.075.166-.269.166a4.878,4.878,0,0,1-.672-.059,37.585,37.585,0,0,1-4.426,3.907V38.833h-1.8Z" transform="translate(888.331 61.049)" fill="#1a1311"/><path d="M257.527,26.944a11.939,11.939,0,0,0-3.919,9.1,11.891,11.891,0,0,0,3.919,9.1v.1h-1.187a12.542,12.542,0,0,1-3.785-9.2,12.549,12.549,0,0,1,3.785-9.2h1.187Z" transform="translate(746.283 79.325)" fill="#1a1311"/><path d="M260.273,27.511h1.621l-.494,5.8.063.044,4.75-3.346.831,1.424-5.288,2.452v.083l5.288,2.452-.831,1.424-4.75-3.342-.063.04.494,5.8h-1.621l.494-5.8-.059-.04-4.75,3.342-.831-1.424,5.284-2.452v-.083l-5.284-2.452.831-1.424,4.75,3.346.059-.044Z" transform="translate(753.883 81.292)" fill="#1a1311"/><path d="M277.3,44.031c-8.056,0-8.95,0-10.868-.1-2.634-.142-3.37-.969-3.915-2-.538.534-.9.89-1.507,1.447,0,.253,0,.692-.3.692-.1,0-.2-.059-.3-.281l-.747-1.661a10.748,10.748,0,0,0,2.175-1.345V36.41h-2.314V35.021h3.7v4.635a2.9,2.9,0,0,0,1.289,2.63c.767.4,1.622.534,4.627.534a80.642,80.642,0,0,0,8.732-.435ZM262.39,31.818a29.916,29.916,0,0,0-2.472-4.216l1.19-.617a20.565,20.565,0,0,1,2.535,4.117Zm10.374,7.522a11.111,11.111,0,0,0,3.188,1.859l-.791,1.226a24.816,24.816,0,0,1-3.484-2.1l.736-.989h-3.745l.775.929c.138.158.158.218.158.277,0,.218-.241.2-.617.158a27.644,27.644,0,0,1-2.436,1.78l-.965-1.068a8.869,8.869,0,0,0,2.634-2.076H264.57V38.17h3.306V36.726H265.4V35.539h2.472V34.092l1.368.158c.115.02.336.04.336.2,0,.138-.138.237-.316.356v.736h2.511V34.092l1.384.158c.316.04.38.119.38.2,0,.059-.04.218-.356.376v.716h2.768v1.186h-2.768V38.17h3.559V39.34Zm-4.275-5.565H266.23c-.949,0-1.4-.257-1.4-1.206V29.975h3.7V28.468h-3.86V27.286h5.106V31h-3.662v1.266c0,.36.178.38.494.38h1.467c.609,0,.827-.119,1.127-1.19l1.088.676c-.415,1.305-.811,1.641-1.8,1.641m3.287,2.95H269.26V38.17h2.515Zm3.049-2.99h-2c-1.127,0-1.606-.257-1.606-1.384V29.975h3.559v-1.6h-3.52V27.286h4.809V31h-3.623v1.21c0,.435.2.435.558.435h1.364c.676,0,.771-.158,1.186-1.384l1.072.653c-.415,1.622-.91,1.819-1.8,1.819" transform="translate(766.881 79.738)" fill="#1a1311"/><path d="M269.665,37.019V43c0,1.364-.257,1.622-3.342,1.582l-.419-1.527c.316.024,1.246.1,1.744.1.411,0,.633-.119.633-.676V37.79c-1.487.755-1.8.914-2.2,1.111,0,.138-.039.633-.336.633-.158,0-.257-.218-.3-.336l-.558-1.625c.637-.237,1.9-.692,3.389-1.4v-3.88h-3.148V30.944h3.148V26.926l1.444.059c.222,0,.36.02.36.178s-.138.237-.419.4v3.385h2.017v1.345h-2.017v3.188c.4-.2,1.483-.815,2.219-1.25v1.606a22.58,22.58,0,0,1-2.219,1.186m11.5,7.245c-2.974-2.753-4.022-6.332-4.434-9.955h-1.961c-.123,2.294-.34,6.727-2.99,10.212l-1.448-.712c2.535-3.049,3.093-6.85,3.093-11.382,0-2.061-.1-3.563-.2-5.007h8.452V34.31H278.1a12.671,12.671,0,0,0,4.453,9.124ZM280.3,28.706h-5.584c.063.989.123,2.871.123,4.315H280.3Z" transform="translate(782.731 79.564)" fill="#1a1311"/><path d="M270.265,45.062a9.939,9.939,0,0,0,1.784-2.393,13.949,13.949,0,0,0,1.661-6.4,13.936,13.936,0,0,0-1.661-6.4,9.938,9.938,0,0,0-1.784-2.393l.811-.716a10.9,10.9,0,0,1,1.863,2.5,14.141,14.141,0,0,1,0,14.016,10.8,10.8,0,0,1-1.863,2.492Z" transform="translate(798.611 79.103)" fill="#1a1311"/><rect width="37.093" height="21.677" transform="translate(953.539 3.82)" fill="#9d4e55"/><rect width="37.093" height="21.681" transform="translate(953.539 40.716)" fill="#c65a00"/><rect width="37.093" height="21.681" transform="translate(953.539 77.611)" fill="#9bc6eb"/><rect width="151.885" height="20.392" transform="translate(676.184 202.385)" fill="#c65a00"/><rect width="62.365" height="20.388" transform="translate(295.595 53.486)" fill="#9d4e55"/><rect width="62.365" height="20.392" transform="translate(295.595 90.67)" fill="#9d4e55"/><rect width="62.365" height="20.388" transform="translate(295.595 127.91)" fill="#9d4e55"/><rect width="62.365" height="20.388" transform="translate(295.595 165.96)" fill="#9d4e55"/><rect width="62.365" height="20.392" transform="translate(295.595 202.385)" fill="#9d4e55"/><rect width="62.365" height="20.388" transform="translate(295.595 240.032)" fill="#9d4e55"/><rect width="304.019" height="20.388" transform="translate(357.932 53.486)" fill="#c65a00"/><rect width="304.019" height="20.392" transform="translate(357.932 90.67)" fill="#c65a00"/><rect width="304.019" height="20.388" transform="translate(357.932 127.91)" fill="#c65a00"/><rect width="304.019" height="20.388" transform="translate(357.932 165.96)" fill="#c65a00"/><rect width="304.019" height="20.392" transform="translate(357.932 202.385)" fill="#c65a00"/><rect width="304.019" height="20.388" transform="translate(357.932 240.032)" fill="#c65a00"/><rect width="151.924" height="20.388" transform="translate(676.184 53.486)" fill="#c65a00"/><rect width="151.924" height="20.392" transform="translate(676.184 90.67)" fill="#c65a00"/><rect width="151.924" height="20.388" transform="translate(676.184 127.91)" fill="#c65a00"/><rect width="227.839" height="20.388" transform="translate(676.184 165.96)" fill="#c65a00"/><line x2="712.226" transform="translate(192.596 45.213)" fill="none" stroke="#1a1311" stroke-width="0.567"/><line x2="712.226" transform="translate(192.596 5.079)" fill="none" stroke="#1a1311" stroke-width="0.567"/><line x2="712.226" transform="translate(192.596 82.505)" fill="none" stroke="#1a1311" stroke-width="0.283"/><line x2="712.226" transform="translate(192.596 119.796)" fill="none" stroke="#1a1311" stroke-width="0.283"/><line x2="712.226" transform="translate(192.596 157.088)" fill="none" stroke="#1a1311" stroke-width="0.283"/><line x2="712.226" transform="translate(192.596 194.38)" fill="none" stroke="#1a1311" stroke-width="0.283"/><line x2="712.226" transform="translate(192.596 231.67)" fill="none" stroke="#1a1311" stroke-width="0.283"/><line x2="712.226" transform="translate(192.596 268.962)" fill="none" stroke="#1a1311" stroke-width="0.567"/><line y2="264.204" transform="translate(357.957 5.083)" fill="none" stroke="#1a1311" stroke-width="0.283"/><line y2="264.204" transform="translate(433.904 5.083)" fill="none" stroke="#1a1311" stroke-width="0.283"/><line y2="264.204" transform="translate(509.866 5.083)" fill="none" stroke="#1a1311" stroke-width="0.283"/><line y2="264.204" transform="translate(585.828 5.083)" fill="none" stroke="#1a1311" stroke-width="0.283"/><line y2="264.204" transform="translate(676.146 5.083)" fill="none" stroke="#1a1311" stroke-width="0.283"/><line y2="264.204" transform="translate(661.79 5.083)" fill="none" stroke="#1a1311" stroke-width="0.283"/><line y2="264.204" transform="translate(295.593 5.083)" fill="none" stroke="#1a1311" stroke-width="0.283"/><rect width="75.915" height="20.388" transform="translate(828.109 202.389)" fill="#9bc6eb"/><line y2="264.204" transform="translate(752.109 5.083)" fill="none" stroke="#1a1311" stroke-width="0.283"/><line y2="264.204" transform="translate(828.067 5.083)" fill="none" stroke="#1a1311" stroke-width="0.283"/><path d="M93.254,20.988c2.642-.095,2.931-.269,2.958-1.784v-11c0-.9-.316-1.444-.9-1.59a14.674,14.674,0,0,0-2.571-.095V5.786c2.761-.095,3.789-.463,4.869-1.709h.558V19.2c.051,1.467.443,1.709,3.081,1.784V21.8H93.254Z" transform="translate(274.039 12.047)" fill="#1a1311"/><path d="M97.56,6.076h3.053l.732-1.1,1.491,1.59a.649.649,0,0,1,.194.392c0,.1-.123.218-.293.269l-.439.123V21.69a.521.521,0,0,1-.392.562,2.343,2.343,0,0,1-.755.174c-.221,0-.368-.1-.368-.269V20.175H97.458v3.033a.517.517,0,0,1-.293.51,2.113,2.113,0,0,1-.878.245.348.348,0,0,1-.364-.316V5.119Zm3.223.585H97.458V12.8h3.326Zm0,6.719H97.458v6.182h3.326Zm1.807-1.93c2.246.1,3.156.123,4.252.123h1.123V7.931h-1.341c-1.052,0-1.59.024-3.029.075l-.32-.759c1.637.075,2.2.1,3.35.1h1.341V3.458l2.057.245c.368.047.566.221.566.49,0,.146-.127.293-.324.439l-.68.439V7.346h3.3l1.467-1.665,1.807,1.542c.218.17.269.269.269.392,0,.194-.146.316-.415.316h-6.427v3.642h4.275l1.538-1.76,1.788,1.542a.711.711,0,0,1,.293.486c0,.221-.146.316-.419.316H113.2v3.4h1.147l1.321-1.491,1.562,1.321a.668.668,0,0,1,.293.49c0,.17-.1.265-.293.265H113.2v7.431c0,.514-.2.807-.834,1.246a1.558,1.558,0,0,1-.878.392c-.293,0-.415-.146-.467-.51-.075-.613-.075-.613-.759-.811l-1.9-.486v-.538l2.2.1.388.024h.174c.316,0,.463-.194.463-.637V16.141h-4.639c-1.127,0-1.958.028-3.987.1l-.269-.807c2.128.1,2.982.123,4.255.123h4.639v-3.4h-4.742c-1.024,0-1.879.028-3.983.1Zm1.491,5.6a6,6,0,0,1,2.59,1.246,2.959,2.959,0,0,1,1.222,2.053,1.049,1.049,0,0,1-1.024,1.1c-.415,0-.613-.2-.732-.759a5.07,5.07,0,0,0-2.1-3.3Z" transform="translate(283.445 10.218)" fill="#1a1311"/><path d="M104.307,4.588h3.468l.637-.953,1.807,1.491a.589.589,0,0,1,.245.392c0,.194-.194.34-.49.34h-.637c-.874,1.689-.949,1.859-2.808,5.11,2.2,2.345,3.029,4.034,3.029,6.158a3.159,3.159,0,0,1-.949,2.689,2.772,2.772,0,0,1-1.618.708c-.364,0-.51-.194-.534-.637-.028-.585-.075-.66-.684-.807l-1-.218V18.47l1,.024.609.024c1.222,0,1.637-.486,1.637-1.906a7.144,7.144,0,0,0-1.076-3.813,9.453,9.453,0,0,0-.953-1.321c-.17-.218-.17-.218-.32-.435.957-2.666,1.321-3.741,1.934-5.869h-3.69V24.335c0,.269-.585.585-1.052.585-.218,0-.439-.119-.439-.241V3.564Zm8.527,0h5.743l.834-.953,1.637,1.2a.594.594,0,0,1,.293.439c0,.17-.146.316-.467.415l-.411.146v8.238c0,.316-.538.609-1.175.609-.245,0-.392-.123-.392-.293v-.708h-3.472a14.606,14.606,0,0,0,1.807,4.228,35.408,35.408,0,0,0,4.133-3.884l1.4,1.218a.677.677,0,0,1,.241.467c0,.218-.241.368-.609.368h-.759c-1.831,1-2.42,1.317-4.18,2.171a13.7,13.7,0,0,0,5.964,4.5,6.752,6.752,0,0,0-1.954,1.661c-3.445-2.274-5.426-5.5-6.573-10.73h-2.349v7.993c1.981-.344,2.349-.415,4.766-.977l.028.34c-2.689,1.123-3.888,1.614-6.6,2.59l-.293.759c-.075.17-.194.293-.34.293-.1,0-.174-.075-.273-.221l-1.491-2.2c1.345-.146,1.542-.17,2.713-.368V3.635Zm6.063.585h-6.356v3.6H118.9Zm0,4.18h-6.356V13.1H118.9Z" transform="translate(302.655 10.531)" fill="#1a1311"/><path d="M86.179,13.8a4.316,4.316,0,0,1,1.451,3.271c0,2.705-2.116,4.6-5.126,4.6-2.962,0-5.027-1.756-5.027-4.271,0-1.922,1.068-3.294,3.579-4.6-2.488-1.78-3.2-2.729-3.2-4.362,0-2.42,2.017-4.224,4.694-4.224,2.63,0,4.5,1.661,4.5,4.006,0,1.59-.712,2.563-2.986,4.058A11.37,11.37,0,0,1,86.179,13.8m-4.477-.57c-1.851,1.353-2.492,2.345-2.492,3.935,0,2.207,1.372,3.749,3.342,3.749a3.267,3.267,0,0,0,3.417-3.251,3.112,3.112,0,0,0-1.139-2.42,14,14,0,0,0-2.587-1.685Zm3.057-2.563a3.94,3.94,0,0,0,.736-2.393c0-1.993-1.186-3.3-2.962-3.3A3.023,3.023,0,0,0,79.42,7.9c0,1.471.854,2.325,3.963,3.963a7.516,7.516,0,0,0,1.376-1.186" transform="translate(228.941 12.473)" fill="#1a1311"/><path d="M83.952,6.323a1.624,1.624,0,1,1-3.247,0,1.624,1.624,0,0,1,3.247,0m0,9.2a1.624,1.624,0,1,1-3.247,0,1.624,1.624,0,0,1,3.247,0" transform="translate(238.477 13.927)" fill="#1a1311"/><path d="M82.175,20.26a43.429,43.429,0,0,1,4.908-6.308c2.068-2.345,2.705-3.7,2.705-5.6,0-2.112-.969-3.346-2.606-3.346a3.479,3.479,0,0,0-2.159.736A1.92,1.92,0,0,0,84.4,6.837c0,.19.075.308.455.807A1.841,1.841,0,0,1,85.4,8.9a1.283,1.283,0,0,1-1.277,1.325A1.715,1.715,0,0,1,82.6,8.379C82.6,6.149,84.88,4.2,87.49,4.2a4.247,4.247,0,0,1,4.5,4.248,4.784,4.784,0,0,1-.684,2.464c-.475.858-.475.858-2.563,2.895-2.939,2.8-4.01,4.006-5.193,5.928h4.936c1.681,0,2.084-.332,3.318-2.681l.708.237-1.3,4.129H82.175Z" transform="translate(242.82 12.419)" fill="#1a1311"/><path d="M95.395,12.825a14.923,14.923,0,0,1-1.214,6.4,4.559,4.559,0,0,1-3.888,2.61,4.671,4.671,0,0,1-4.058-2.919,14.818,14.818,0,0,1-1.04-6.047c0-5.335,1.993-8.681,5.193-8.681,2.99,0,5.007,3.488,5.007,8.634m-8.115.214c0,5.478.973,8.017,3.085,8.017a2.11,2.11,0,0,0,1.9-1.115c.641-1.139.973-3.461.973-6.83,0-5.81-.831-8.159-2.919-8.159-2.013,0-3.037,2.729-3.037,8.088" transform="translate(251.744 12.384)" fill="#1a1311"/><path d="M59,14.729h8l.854-1.147,1.511,1.467a1.133,1.133,0,0,1,.4.633c0,.123-.146.293-.344.368l-.463.17V32.692c0,.514-.316.929-1,1.321a2.083,2.083,0,0,1-.878.269c-.293,0-.392-.123-.415-.49-.051-.415-.1-.562-.273-.609L63.622,32.3l.051-.316,3.077.024c.368,0,.419-.047.443-.293V25.7H58.737A12.145,12.145,0,0,1,58,29.2a9.117,9.117,0,0,1-4.228,4.422,6.887,6.887,0,0,1-2.1.929.189.189,0,0,1-.2-.17c0-.1.095-.2.316-.32a11.651,11.651,0,0,0,4.331-4.592c.831-1.76,1.024-3.67,1.024-9.606,0-2.175-.024-3.52-.15-6.3Zm8.191,10.39v-4.6H58.808v2.883c0,.585-.024.929-.047,1.712Zm0-9.8h-8.38v4.619h8.38Z" transform="translate(152.107 40.063)" fill="#1a1311"/><path d="M60.067,15.705h2.519l.858-1.048,1.293,1.368a.7.7,0,0,1,.269.514c0,.146-.123.269-.32.293l-.364.075V31.3c0,.221-.1.344-.34.467a2.626,2.626,0,0,1-.906.293c-.146,0-.245-.1-.245-.293V29.785H59.948v2.666c0,.34-.566.684-1.151.684a.289.289,0,0,1-.316-.293V14.582Zm2.765.589H59.948v6.182h2.883Zm0,6.771H59.948V29.2h2.883Zm5.889,1.171h3.67c.411-1.416.463-1.637.807-3.1l1.681.589a.464.464,0,0,1,.32.439.551.551,0,0,1-.32.463l-.585.3-.977,1.317h3.445l1.028-1.246,1.467,1.151c.2.146.293.265.293.415a.3.3,0,0,1-.316.265H73.779v2.151H76.1l1-1.048,1.345.9c.2.123.293.245.293.392a.362.362,0,0,1-.392.344H73.779v2.345H76.1l1-1.052,1.345.882a.506.506,0,0,1,.316.439.352.352,0,0,1-.368.316H73.779v2.543h2.982l1.416-1.491,1.764,1.392a.473.473,0,0,1,.241.392.28.28,0,0,1-.293.293H68.819V34.5c0,.293-.514.562-1.1.562-.17,0-.245-.075-.245-.221V26.095c-1.3,1.637-2.369,2.713-2.642,2.713a.169.169,0,0,1-.17-.17c0-.123.024-.146.49-.736a26.008,26.008,0,0,0,3.3-6.941l1.831.882a.47.47,0,0,1,.3.392c0,.17-.15.293-.34.34l-.684.17Zm2.3-10.753,1.372,1.076a.681.681,0,0,1,.293.49.366.366,0,0,1-.221.34l-.514.245v5.6c0,.269-.66.613-1.175.613-.17,0-.241-.1-.241-.3V19.961H66.082v-.585h4.449V17.517h-4.5v-.589h4.5V15h-1.74c-.7,0-1.341.024-2.982.075l-.289-.732c1.171.02,1.855.047,3.271.095H70.48Zm1.416,11.339H68.819v2.151h3.615Zm0,2.741H68.819v2.345h3.615Zm0,2.931H68.819v2.543h3.615Zm.542-16.057h4.153l.66-.977,1.416,1.3a.676.676,0,0,1,.249.486.408.408,0,0,1-.344.368l-.392.047v5.355a.446.446,0,0,1-.344.463,4.324,4.324,0,0,1-.779.2c-.2,0-.293-.127-.293-.32V19.961H73.146v-.585H77.3V17.517H73.071v-.589H77.3V15.021H72.976Z" transform="translate(172.807 39.77)" fill="#1a1311"/><path d="M68.092,15.027h9.725l1.028-1.222,1.562,1.44a.926.926,0,0,1,.368.613.542.542,0,0,1-.368.439l-.388.146V31.986c0,.32-.66.613-1.4.613-.218,0-.364-.17-.364-.467V30.91H67.894v1.637a.653.653,0,0,1-.415.712,1.749,1.749,0,0,1-.831.218.455.455,0,0,1-.514-.514V13.876Zm10.168.585H67.9v7.04H78.26Zm0,7.625H67.9v7.087H78.26Z" transform="translate(195.421 40.793)" fill="#1a1311"/><path d="M62.717,24.729c-.028.609-.028,1.246-.028,1.416-.024,1.345-.047,2.349-.047,2.444-.028.392-.051.613-.174,2.519a16.716,16.716,0,0,0,1.784,3.86,28.44,28.44,0,0,0,5.355-8.6l2.076,1.44a.607.607,0,0,1,.273.467c0,.221-.127.34-.443.439l-.807.245a55.992,55.992,0,0,1-6.11,6.45c1.93,2.887,4.568,4.647,8.922,5.94A5.861,5.861,0,0,0,71.366,43.4a17.487,17.487,0,0,1-9.092-10.73,11.735,11.735,0,0,1-4.176,7.7,16.376,16.376,0,0,1-4.133,2.567,8.334,8.334,0,0,1-2.053.732c-.174,0-.293-.095-.293-.241,0-.127.095-.221.316-.344,3.472-1.637,5.572-3.4,7.063-5.865,1.42-2.42,2.005-5.3,2.005-10,0-1.1-.051-2.2-.174-4.275l2.444.269c.32.047.538.218.538.463a.587.587,0,0,1-.289.439Zm-6.992,1.906a9.4,9.4,0,0,1,.66,3.591c0,2.519-1.151,4.473-2.642,4.473a.937.937,0,0,1-1-.854.9.9,0,0,1,.194-.585l1.1-1.222A6.587,6.587,0,0,0,55.285,28a12.07,12.07,0,0,0-.051-1.222Z" transform="translate(152.53 67.801)" fill="#1a1311"/><path d="M60.067,25.147h2.519l.858-1.048,1.293,1.368a.7.7,0,0,1,.269.514c0,.146-.123.269-.32.293l-.364.075V40.742c0,.221-.1.344-.34.467a2.626,2.626,0,0,1-.906.293c-.146,0-.245-.1-.245-.293V39.227H59.948v2.666c0,.34-.566.684-1.151.684a.289.289,0,0,1-.316-.293V24.024Zm2.765.589H59.948v6.182h2.883Zm0,6.771H59.948v6.134h2.883Zm5.889,1.171h3.67c.411-1.416.463-1.637.807-3.1l1.681.589a.464.464,0,0,1,.32.439.551.551,0,0,1-.32.463l-.585.3-.977,1.317h3.445l1.028-1.246,1.467,1.151c.2.146.293.265.293.415a.3.3,0,0,1-.316.265H73.779v2.151H76.1l1-1.048,1.345.9c.2.123.293.245.293.392a.362.362,0,0,1-.392.344H73.779V39.35H76.1l1-1.052,1.345.882a.506.506,0,0,1,.316.439.352.352,0,0,1-.368.316H73.779v2.543h2.982l1.416-1.491,1.764,1.392a.473.473,0,0,1,.241.392.28.28,0,0,1-.293.293H68.819v.882c0,.293-.514.562-1.1.562-.17,0-.245-.075-.245-.221V35.537c-1.3,1.637-2.369,2.713-2.642,2.713a.169.169,0,0,1-.17-.17c0-.123.024-.146.49-.736a26.008,26.008,0,0,0,3.3-6.941l1.831.882a.47.47,0,0,1,.3.392c0,.17-.15.293-.34.34l-.684.17Zm2.3-10.753L72.39,24a.681.681,0,0,1,.293.49.366.366,0,0,1-.221.34l-.514.245v5.6c0,.269-.66.613-1.175.613-.17,0-.241-.1-.241-.3V29.4H66.082v-.585h4.449V26.959h-4.5v-.589h4.5v-1.93h-1.74c-.7,0-1.341.024-2.982.075l-.289-.732c1.171.02,1.855.047,3.271.095H70.48Zm1.416,11.339H68.819v2.151h3.615Zm0,2.741H68.819V39.35h3.615Zm0,2.931H68.819v2.543h3.615Zm.542-16.057h4.153l.66-.977L79.2,24.2a.676.676,0,0,1,.249.486.408.408,0,0,1-.344.368l-.392.047v5.355a.446.446,0,0,1-.344.463,4.323,4.323,0,0,1-.779.2c-.2,0-.293-.127-.293-.32V29.4H73.146v-.585H77.3V26.959H73.071v-.589H77.3V24.463H72.976Z" transform="translate(172.807 67.671)" fill="#1a1311"/><path d="M68.092,24.469h9.725l1.028-1.222,1.562,1.444a.919.919,0,0,1,.368.609.532.532,0,0,1-.368.439l-.388.15V41.432c0,.316-.66.609-1.4.609-.218,0-.364-.17-.364-.463V40.356H67.894v1.637a.651.651,0,0,1-.415.708,1.755,1.755,0,0,1-.831.221.455.455,0,0,1-.514-.514V23.322Zm10.168.585H67.9v7.04H78.26Zm0,7.625H67.9v7.087H78.26Z" transform="translate(195.421 68.693)" fill="#1a1311"/><path d="M55.1,39.528c-.783,0-1.444.024-3.057.075l-.218-.759c.633.024,1.2.024,1.388.047,1.028.028,1.712.051,1.887.051h3.176l.807-1.076,1.59,1.784a.538.538,0,0,1,.146.368.385.385,0,0,1-.368.392l-.467.047a24.986,24.986,0,0,1-4.03,7.5,17.551,17.551,0,0,1-3.006,3.029,3.586,3.586,0,0,1-1.246.736.235.235,0,0,1-.2-.2c0-.095.245-.388.783-.878,2.931-3.081,4.473-5.964,5.988-11.121Zm3.615,11.952,2.42.024c.514-.047.589-.1.562-.486V32.294l2.033.221c.36.02.609.218.609.486a.732.732,0,0,1-.463.589l-.49.241v3.35a18.484,18.484,0,0,0,2.171,5.058l4.916-5.5L72.031,38.4a.434.434,0,0,1,.123.293.552.552,0,0,1-.637.49l-.071-.028-.486-.024L65.921,42.8a16.322,16.322,0,0,0,7.823,6.209,6.3,6.3,0,0,0-2.175,1.883A19.493,19.493,0,0,1,63.382,39.65v12.1a1.568,1.568,0,0,1-.684,1.321,1.852,1.852,0,0,1-1.1.538c-.269,0-.293-.075-.463-.858-.028-.071-.123-.146-.316-.218l-2.151-.637Z" transform="translate(152.181 95.426)" fill="#1a1311"/><path d="M60.067,34.589h2.519l.858-1.048,1.293,1.368a.7.7,0,0,1,.269.514c0,.146-.123.269-.32.293l-.364.075V50.184c0,.221-.1.344-.34.467a2.626,2.626,0,0,1-.906.293c-.146,0-.245-.1-.245-.293V48.669H59.948v2.666c0,.34-.566.684-1.151.684a.289.289,0,0,1-.316-.293V33.466Zm2.765.589H59.948V41.36h2.883Zm0,6.771H59.948v6.134h2.883ZM68.72,43.12h3.67c.411-1.416.463-1.637.807-3.1l1.681.589a.464.464,0,0,1,.32.439.551.551,0,0,1-.32.463l-.585.3-.977,1.317h3.445l1.028-1.246,1.467,1.151c.2.146.293.265.293.415a.3.3,0,0,1-.316.265H73.779v2.151H76.1l1-1.048,1.345.9c.2.123.293.245.293.392a.362.362,0,0,1-.392.344H73.779v2.345H76.1l1-1.052,1.345.882a.506.506,0,0,1,.316.439.352.352,0,0,1-.368.316H73.779V51.92h2.982l1.416-1.491,1.764,1.392a.473.473,0,0,1,.241.392.28.28,0,0,1-.293.293H68.819v.882c0,.293-.514.562-1.1.562-.17,0-.245-.075-.245-.221V44.979c-1.3,1.637-2.369,2.713-2.642,2.713a.169.169,0,0,1-.17-.17c0-.123.024-.146.49-.736a26.008,26.008,0,0,0,3.3-6.941l1.831.882a.47.47,0,0,1,.3.392c0,.17-.15.293-.34.34l-.684.17Zm2.3-10.753,1.372,1.076a.681.681,0,0,1,.293.49.366.366,0,0,1-.221.34l-.514.245v5.6c0,.269-.66.613-1.175.613-.17,0-.241-.1-.241-.3V38.845H66.082V38.26h4.449V36.4h-4.5v-.589h4.5v-1.93h-1.74c-.7,0-1.341.024-2.982.075l-.289-.732c1.171.02,1.855.047,3.271.095H70.48Zm1.416,11.339H68.819v2.151h3.615Zm0,2.741H68.819v2.345h3.615Zm0,2.931H68.819V51.92h3.615Zm.542-16.057h4.153l.66-.977,1.416,1.3a.676.676,0,0,1,.249.486.408.408,0,0,1-.344.368l-.392.047V39.9a.446.446,0,0,1-.344.463,4.323,4.323,0,0,1-.779.2c-.2,0-.293-.127-.293-.32V38.845H73.146V38.26H77.3V36.4H73.071v-.589H77.3V33.905H72.976Z" transform="translate(172.807 95.571)" fill="#1a1311"/><path d="M68.092,33.915h9.725l1.028-1.226,1.562,1.444a.917.917,0,0,1,.368.613.542.542,0,0,1-.368.439l-.388.146V50.874c0,.32-.66.609-1.4.609-.218,0-.364-.17-.364-.463V49.8H67.894v1.637a.651.651,0,0,1-.415.708,1.71,1.71,0,0,1-.831.221.455.455,0,0,1-.514-.514V32.764ZM78.26,34.5H67.9v7.04H78.26Zm0,7.625H67.9v7.087H78.26Z" transform="translate(195.421 96.593)" fill="#1a1311"/><path d="M57.069,48.64c-.269,0-1.056.024-2.207.051-.316.024-1.293.047-2.322.071l-.293-.831c2.958.071,3.3.1,4.821.123h4.691V41.675l2.151.146a.5.5,0,0,1,.486.415.589.589,0,0,1-.293.467l-.708.439v4.912h6.035L71,46.342l2.057,1.59a.483.483,0,0,1,.194.368c0,.218-.123.34-.3.34H63.444a18.813,18.813,0,0,0,10.7,9.9,5.239,5.239,0,0,0-2.151,1.906c-4.445-3.128-6.4-5.45-8.6-10.263V62.814a.5.5,0,0,1-.245.49A3.81,3.81,0,0,1,62,63.55c-.17,0-.241-.1-.241-.269V51.452a31.274,31.274,0,0,1-6.407,7.309,15.45,15.45,0,0,1-3.662,2.492.261.261,0,0,1-.245-.245c0-.146.289-.415,1.123-1.076A32.883,32.883,0,0,0,61.119,48.64Z" transform="translate(152.016 123.146)" fill="#1a1311"/><path d="M60.067,44.032h2.519l.858-1.048,1.293,1.368a.7.7,0,0,1,.269.514c0,.146-.123.269-.32.293l-.364.075V59.627c0,.221-.1.344-.34.467a2.626,2.626,0,0,1-.906.293c-.146,0-.245-.1-.245-.293V58.112H59.948v2.666c0,.34-.566.684-1.151.684a.289.289,0,0,1-.316-.293V42.909Zm2.765.589H59.948V50.8h2.883Zm0,6.771H59.948v6.134h2.883Zm5.889,1.171h3.67c.411-1.416.463-1.637.807-3.1l1.681.589a.464.464,0,0,1,.32.439.551.551,0,0,1-.32.463l-.585.3-.977,1.317h3.445l1.028-1.246,1.467,1.151c.2.146.293.265.293.415a.3.3,0,0,1-.316.265H73.779V55.3H76.1l1-1.048,1.345.9c.2.123.293.245.293.392a.362.362,0,0,1-.392.344H73.779v2.345H76.1l1-1.052,1.345.882a.506.506,0,0,1,.316.439.352.352,0,0,1-.368.316H73.779v2.543h2.982l1.416-1.491,1.764,1.392a.473.473,0,0,1,.241.392.28.28,0,0,1-.293.293H68.819v.882c0,.293-.514.562-1.1.562-.17,0-.245-.075-.245-.221V54.422c-1.3,1.637-2.369,2.713-2.642,2.713a.169.169,0,0,1-.17-.17c0-.123.024-.146.49-.736a26.008,26.008,0,0,0,3.3-6.941l1.831.882a.47.47,0,0,1,.3.392c0,.17-.15.293-.34.34l-.684.17Zm2.3-10.753,1.372,1.076a.681.681,0,0,1,.293.49.366.366,0,0,1-.221.34l-.514.245v5.6c0,.269-.66.613-1.175.613-.17,0-.241-.1-.241-.3V48.288H66.082V47.7h4.449V45.844h-4.5v-.589h4.5v-1.93h-1.74c-.7,0-1.341.024-2.982.075l-.289-.732c1.171.02,1.855.047,3.271.095H70.48Zm1.416,11.339H68.819V55.3h3.615Zm0,2.741H68.819v2.345h3.615Zm0,2.931H68.819v2.543h3.615Zm.542-16.057h4.153l.66-.977,1.416,1.3a.676.676,0,0,1,.249.486.408.408,0,0,1-.344.368l-.392.047V49.34a.446.446,0,0,1-.344.463,4.322,4.322,0,0,1-.779.2c-.2,0-.293-.127-.293-.32V48.288H73.146V47.7H77.3V45.844H73.071v-.589H77.3V43.348H72.976Z" transform="translate(172.807 123.474)" fill="#1a1311"/><path d="M68.092,43.354h9.725l1.028-1.222,1.562,1.444a.911.911,0,0,1,.368.609.542.542,0,0,1-.368.439l-.388.146V60.317c0,.316-.66.609-1.4.609-.218,0-.364-.17-.364-.463V59.241H67.894v1.637a.651.651,0,0,1-.415.708,1.749,1.749,0,0,1-.831.218.452.452,0,0,1-.514-.51V42.2Zm10.168.585H67.9v7.04H78.26Zm0,7.625H67.9v7.087H78.26Z" transform="translate(195.421 124.497)" fill="#1a1311"/><path d="M63.564,51.94a.448.448,0,0,1,.293.392.333.333,0,0,1-.17.293l-.293.17c2.029,3.374,5.375,5.6,10.437,6.969-.221.146-.419.269-.467.293l-.657.368a4.773,4.773,0,0,0-1.028,1.1c-4.449-2.175-7.336-4.936-9.144-8.7a24.926,24.926,0,0,1-6.4,7.281,19.162,19.162,0,0,1-4.422,2.713.167.167,0,0,1-.174-.17c0-.17,0-.17.882-.807A26.835,26.835,0,0,0,61.29,51.086ZM61.488,64.821H56.3c-.925,0-1.732.024-3.907.095l-.245-.8c1,.024,2.005.047,2.3.071.929.024,1.566.051,1.855.051h5.185V60.811H59.751c-1.028,0-1.519.028-2.935.075l-.265-.755,1.784.071c.609.024,1.123.024,1.44.024h4.936l1.3-1.538,1.831,1.444a.425.425,0,0,1,.2.364.317.317,0,0,1-.269.316H63.149v3.425h5.379l1.538-1.811,2.128,1.689a.618.618,0,0,1,.146.368.343.343,0,0,1-.293.34h-8.9v6.7H65.13a40.191,40.191,0,0,0,2.444-5.865l1.879.953c.245.123.368.269.368.415a.59.59,0,0,1-.439.49l-.589.218-2.855,3.789h3.54l1.689-1.784,2.27,1.807a.384.384,0,0,1,.1.269c0,.146-.1.293-.2.293H56.425c-.293,0-1.048.028-2.171.051-.316.024-1.273.047-2.25.075l-.344-.834,2.571.075c1.048.024,2.124.047,2.246.047h5.011ZM55.009,65.9a6.083,6.083,0,0,1,2.322,1.27,3.435,3.435,0,0,1,1.222,2.4A1.19,1.19,0,0,1,57.5,70.884a.825.825,0,0,1-.66-.32c-.1-.17-.1-.17-.419-1.831a4.364,4.364,0,0,0-1.661-2.543Z" transform="translate(152.288 150.955)" fill="#1a1311"/><path d="M60.067,53.474h2.519l.858-1.048,1.293,1.368a.7.7,0,0,1,.269.514c0,.146-.123.269-.32.293l-.364.075V69.069c0,.221-.1.344-.34.467a2.626,2.626,0,0,1-.906.293c-.146,0-.245-.1-.245-.293V67.554H59.948V70.22c0,.34-.566.684-1.151.684a.289.289,0,0,1-.316-.293V52.351Zm2.765.589H59.948v6.182h2.883Zm0,6.771H59.948v6.134h2.883Zm5.889,1.171h3.67c.411-1.416.463-1.637.807-3.1l1.681.589a.464.464,0,0,1,.32.439.551.551,0,0,1-.32.463l-.585.3-.977,1.317h3.445l1.028-1.246,1.467,1.151c.2.146.293.265.293.415a.3.3,0,0,1-.316.265H73.779v2.151H76.1l1-1.048,1.345.9c.2.123.293.245.293.392a.362.362,0,0,1-.392.344H73.779v2.345H76.1l1-1.052,1.345.882a.506.506,0,0,1,.316.439.352.352,0,0,1-.368.316H73.779V70.8h2.982l1.416-1.491,1.764,1.392a.473.473,0,0,1,.241.392.28.28,0,0,1-.293.293H68.819v.882c0,.293-.514.562-1.1.562-.17,0-.245-.075-.245-.222V63.864c-1.3,1.637-2.369,2.713-2.642,2.713a.169.169,0,0,1-.17-.17c0-.123.024-.146.49-.736a26.008,26.008,0,0,0,3.3-6.941l1.831.882a.47.47,0,0,1,.3.392c0,.17-.15.293-.34.34l-.684.17Zm2.3-10.753,1.372,1.076a.681.681,0,0,1,.293.49.366.366,0,0,1-.221.34l-.514.245V59c0,.269-.66.613-1.175.613-.17,0-.241-.1-.241-.3V57.73H66.082v-.585h4.449V55.286h-4.5V54.7h4.5v-1.93h-1.74c-.7,0-1.341.024-2.982.075l-.289-.732c1.171.02,1.855.047,3.271.095H70.48ZM72.434,62.59H68.819v2.151h3.615Zm0,2.741H68.819v2.345h3.615Zm0,2.931H68.819V70.8h3.615ZM72.976,52.2h4.153l.66-.977,1.416,1.3a.676.676,0,0,1,.249.486.408.408,0,0,1-.344.368l-.392.047v5.355a.446.446,0,0,1-.344.463,4.325,4.325,0,0,1-.779.2c-.2,0-.293-.127-.293-.32V57.73H73.146v-.585H77.3V55.286H73.071V54.7H77.3V52.79H72.976Z" transform="translate(172.807 151.375)" fill="#1a1311"/><path d="M68.092,52.8h9.725l1.028-1.222,1.562,1.444a.919.919,0,0,1,.368.609.542.542,0,0,1-.368.443l-.388.146V69.759c0,.316-.66.609-1.4.609-.218,0-.364-.17-.364-.463V68.683H67.894V70.32a.651.651,0,0,1-.415.708,1.755,1.755,0,0,1-.831.221.455.455,0,0,1-.514-.514V51.649Zm10.168.585H67.9v7.04H78.26Zm0,7.629H67.9V68.1H78.26Z" transform="translate(195.421 152.397)" fill="#1a1311"/><path d="M61.362,69.6H57.625c-.854,0-1.637.024-3.983.1l-.249-.807c2.666.1,3.377.123,4.232.123h3.737V60.658l2.2.245c.388.024.585.2.585.514,0,.194-.1.293-.49.562l-.514.316v6.723h5.11l1.515-1.835,2.029,1.76a.432.432,0,0,1,.174.34.293.293,0,0,1-.3.32H63.146V80.555h6.233l1.59-1.713L73,80.5a.513.513,0,0,1,.17.344.278.278,0,0,1-.269.293H56.351c-1.879,0-2.488.024-4.568.123l-.245-.858c2.2.123,2.812.15,4.813.15h5.011Z" transform="translate(152.291 179.239)" fill="#1a1311"/><path d="M60.067,62.917h2.519l.858-1.048,1.293,1.368a.7.7,0,0,1,.269.514c0,.146-.123.269-.32.293l-.364.075V78.512c0,.221-.1.344-.34.467a2.626,2.626,0,0,1-.906.293c-.146,0-.245-.1-.245-.293V77H59.948v2.666c0,.34-.566.684-1.151.684a.289.289,0,0,1-.316-.293V61.794Zm2.765.589H59.948v6.182h2.883Zm0,6.771H59.948v6.134h2.883Zm5.889,1.171h3.67c.411-1.416.463-1.637.807-3.1l1.681.589a.464.464,0,0,1,.32.439.551.551,0,0,1-.32.463l-.585.3-.977,1.317h3.445L77.789,70.2l1.467,1.151c.2.146.293.265.293.415a.3.3,0,0,1-.316.265H73.779v2.151H76.1l1-1.048,1.345.9c.2.123.293.245.293.392a.362.362,0,0,1-.392.344H73.779V77.12H76.1l1-1.052,1.345.882a.506.506,0,0,1,.316.439.352.352,0,0,1-.368.316H73.779v2.543h2.982l1.416-1.491,1.764,1.392a.473.473,0,0,1,.241.392.28.28,0,0,1-.293.293H68.819v.882c0,.293-.514.562-1.1.562-.17,0-.245-.075-.245-.221V73.307c-1.3,1.637-2.369,2.713-2.642,2.713a.169.169,0,0,1-.17-.17c0-.123.024-.146.49-.736a26.008,26.008,0,0,0,3.3-6.941l1.831.882a.47.47,0,0,1,.3.392c0,.17-.15.293-.34.34l-.684.17Zm2.3-10.753L72.39,61.77a.681.681,0,0,1,.293.49.366.366,0,0,1-.221.34l-.514.245v5.6c0,.269-.66.613-1.175.613-.17,0-.241-.1-.241-.3V67.173H66.082v-.585h4.449V64.729h-4.5v-.589h4.5v-1.93h-1.74c-.7,0-1.341.024-2.982.075l-.289-.732c1.171.02,1.855.047,3.271.095H70.48Zm1.416,11.339H68.819v2.151h3.615Zm0,2.741H68.819V77.12h3.615Zm0,2.931H68.819v2.543h3.615Zm.542-16.057h4.153l.66-.977,1.416,1.3a.676.676,0,0,1,.249.486.408.408,0,0,1-.344.368l-.392.047v5.355a.446.446,0,0,1-.344.463,4.325,4.325,0,0,1-.779.2c-.2,0-.293-.127-.293-.32V67.173H73.146v-.585H77.3V64.729H73.071v-.589H77.3V62.233H72.976Z" transform="translate(172.807 179.278)" fill="#1a1311"/><path d="M68.092,62.239h9.725l1.028-1.222,1.562,1.44a.926.926,0,0,1,.368.613.542.542,0,0,1-.368.439l-.388.146V79.2c0,.32-.66.613-1.4.613-.218,0-.364-.17-.364-.467V78.122H67.894v1.637a.653.653,0,0,1-.415.712,1.749,1.749,0,0,1-.831.218.455.455,0,0,1-.514-.514V61.088Zm10.168.585H67.9v7.04H78.26Zm0,7.625H67.9v7.087H78.26Z" transform="translate(195.421 180.3)" fill="#1a1311"/><path d="M111.893,20.617a44.809,44.809,0,0,1,5.058-6.5c2.128-2.42,2.788-3.813,2.788-5.77,0-2.171-1-3.445-2.689-3.445a3.607,3.607,0,0,0-2.223.759,1.957,1.957,0,0,0-.637,1.123c0,.2.075.32.463.831a1.882,1.882,0,0,1,.566,1.3,1.329,1.329,0,0,1-1.321,1.368,1.772,1.772,0,0,1-1.566-1.906c0-2.3,2.349-4.3,5.039-4.3a4.38,4.38,0,0,1,4.643,4.374,4.964,4.964,0,0,1-.708,2.543c-.49.882-.49.882-2.642,2.982-3.033,2.883-4.129,4.129-5.355,6.11h5.09c1.732,0,2.147-.344,3.417-2.761l.732.245L121.2,21.816h-9.31Z" transform="translate(330.635 12.026)" fill="#1a1311"/><path d="M117.351,6.076H120.4l.732-1.1,1.491,1.59a.649.649,0,0,1,.194.392c0,.1-.123.218-.293.269l-.439.123V21.69a.521.521,0,0,1-.392.562,2.343,2.343,0,0,1-.755.174c-.221,0-.368-.1-.368-.269V20.175h-3.326v3.033a.517.517,0,0,1-.293.51,2.113,2.113,0,0,1-.878.245.348.348,0,0,1-.364-.316V5.119Zm3.223.585h-3.326V12.8h3.326Zm0,6.719h-3.326v6.182h3.326Zm1.807-1.93c2.246.1,3.156.123,4.252.123h1.123V7.931h-1.341c-1.052,0-1.59.024-3.03.075l-.32-.759c1.637.075,2.2.1,3.35.1h1.341V3.458l2.057.245c.368.047.565.221.565.49,0,.146-.127.293-.324.439l-.68.439V7.346h3.3l1.467-1.665,1.807,1.542c.218.17.269.269.269.392,0,.194-.146.316-.415.316h-6.427v3.642h4.275l1.538-1.76,1.788,1.542a.711.711,0,0,1,.293.486c0,.221-.146.316-.419.316h-3.856v3.4h1.147l1.321-1.491,1.562,1.321a.668.668,0,0,1,.293.49c0,.17-.1.265-.293.265h-4.03v7.431c0,.514-.2.807-.835,1.246a1.558,1.558,0,0,1-.878.392c-.293,0-.415-.146-.467-.51-.075-.613-.075-.613-.759-.811l-1.9-.486v-.538l2.2.1.388.024h.174c.316,0,.463-.194.463-.637V16.141h-4.639c-1.127,0-1.958.028-3.987.1l-.269-.807c2.128.1,2.982.123,4.255.123h4.639v-3.4h-4.742c-1.024,0-1.879.028-3.983.1Zm1.491,5.6a6,6,0,0,1,2.59,1.246,2.959,2.959,0,0,1,1.222,2.053,1.049,1.049,0,0,1-1.024,1.1c-.415,0-.613-.2-.732-.759a5.07,5.07,0,0,0-2.1-3.3Z" transform="translate(341.926 10.218)" fill="#1a1311"/><path d="M124.1,4.588h3.472l.633-.953,1.811,1.491a.581.581,0,0,1,.241.392c0,.194-.194.34-.49.34h-.633c-.878,1.689-.953,1.859-2.812,5.11,2.2,2.345,3.033,4.034,3.033,6.158a3.149,3.149,0,0,1-.953,2.689,2.762,2.762,0,0,1-1.618.708c-.36,0-.506-.194-.534-.637-.024-.585-.075-.66-.684-.807l-1-.218V18.47l1,.024.609.024c1.226,0,1.637-.486,1.637-1.906a7.139,7.139,0,0,0-1.072-3.813,9.452,9.452,0,0,0-.953-1.321c-.17-.218-.17-.218-.32-.435.957-2.666,1.317-3.741,1.934-5.869h-3.694V24.335c0,.269-.585.585-1.048.585-.221,0-.443-.119-.443-.241V3.564Zm8.531,0h5.743l.831-.953,1.637,1.2a.583.583,0,0,1,.293.439c0,.17-.146.316-.463.415l-.415.146v8.238c0,.316-.538.609-1.175.609-.245,0-.392-.123-.392-.293v-.708h-3.468a14.607,14.607,0,0,0,1.807,4.228,35.385,35.385,0,0,0,4.129-3.884l1.4,1.218a.677.677,0,0,1,.241.467c0,.218-.241.368-.609.368h-.755c-1.835,1-2.42,1.317-4.18,2.171a13.7,13.7,0,0,0,5.964,4.5,6.752,6.752,0,0,0-1.954,1.661c-3.449-2.274-5.426-5.5-6.577-10.73h-2.345v7.993c1.981-.344,2.345-.415,4.766-.977l.024.34c-2.689,1.123-3.888,1.614-6.6,2.59l-.293.759a.417.417,0,0,1-.344.293c-.1,0-.17-.075-.269-.221l-1.495-2.2c1.349-.146,1.542-.17,2.717-.368V3.635Zm6.059.585h-6.352v3.6h6.352Zm0,4.18h-6.352V13.1h6.352Z" transform="translate(361.135 10.531)" fill="#1a1311"/><path d="M134.455,12.147c.538.024.609.024.783.024,2.468,0,3.417-1,3.417-3.642,0-2.369-.9-3.639-2.614-3.639a1.976,1.976,0,0,0-2.151,1.637,1.916,1.916,0,0,0,.174.637,2.248,2.248,0,0,1,.17.8,1.234,1.234,0,0,1-1.218,1.273c-.807,0-1.345-.637-1.345-1.59,0-1.93,2.124-3.567,4.667-3.567a4.205,4.205,0,0,1,4.449,4.2,4.43,4.43,0,0,1-1.321,3.176,5.179,5.179,0,0,1-2.151,1.151,4.774,4.774,0,0,1,3.006,1.61,4.365,4.365,0,0,1,.977,2.812,5.1,5.1,0,0,1-5.4,5.035c-2.492,0-4.738-1.637-4.738-3.468a1.56,1.56,0,0,1,1.491-1.665,1.178,1.178,0,0,1,1.222,1.3,3.241,3.241,0,0,1-.32,1.2,1.751,1.751,0,0,0-.047.316c0,.783,1.123,1.515,2.369,1.515,2.029,0,3.152-1.491,3.152-4.228s-1.194-4.105-3.615-4.105c-.2,0-.368,0-.953.024Z" transform="translate(387.558 12.065)" fill="#1a1311"/><path d="M136.517,6.076h3.053l.736-1.1,1.491,1.59a.649.649,0,0,1,.194.392c0,.1-.123.218-.293.269l-.439.123V21.69a.525.525,0,0,1-.392.562,2.364,2.364,0,0,1-.759.174c-.221,0-.368-.1-.368-.269V20.175h-3.322v3.033a.523.523,0,0,1-.293.51,2.13,2.13,0,0,1-.882.245.351.351,0,0,1-.364-.316V5.119Zm3.223.585h-3.322V12.8h3.322Zm0,6.719h-3.322v6.182h3.322Zm1.811-1.93c2.246.1,3.152.123,4.252.123h1.123V7.931h-1.341c-1.052,0-1.59.024-3.033.075l-.316-.759c1.637.075,2.2.1,3.35.1h1.341V3.458l2.053.245c.368.047.566.221.566.49,0,.146-.127.293-.32.439l-.68.439V7.346h3.3l1.467-1.665,1.807,1.542c.218.17.265.269.265.392,0,.194-.146.316-.411.316h-6.427v3.642h4.275l1.538-1.76,1.788,1.542a.726.726,0,0,1,.293.486c0,.221-.146.316-.419.316h-3.86v3.4h1.151l1.317-1.491,1.562,1.321a.656.656,0,0,1,.293.49c0,.17-.095.265-.293.265h-4.03v7.431c0,.514-.2.807-.83,1.246a1.577,1.577,0,0,1-.882.392c-.293,0-.411-.146-.463-.51-.075-.613-.075-.613-.759-.811l-1.906-.486v-.538l2.2.1.388.024h.17c.316,0,.463-.194.463-.637V16.141H145.9c-1.127,0-1.954.028-3.983.1l-.273-.807c2.132.1,2.982.123,4.256.123h4.639v-3.4H145.8c-1.028,0-1.879.028-3.987.1Zm1.491,5.6a6.028,6.028,0,0,1,2.59,1.246,2.959,2.959,0,0,1,1.222,2.053,1.052,1.052,0,0,1-1.028,1.1c-.411,0-.609-.2-.732-.759a5.041,5.041,0,0,0-2.1-3.3Z" transform="translate(398.56 10.218)" fill="#1a1311"/><path d="M143.265,4.588h3.468l.637-.953,1.807,1.491a.588.588,0,0,1,.245.392c0,.194-.194.34-.49.34H148.3c-.874,1.689-.949,1.859-2.808,5.11,2.2,2.345,3.03,4.034,3.03,6.158a3.16,3.16,0,0,1-.949,2.689,2.772,2.772,0,0,1-1.618.708c-.364,0-.51-.194-.534-.637-.028-.585-.075-.66-.684-.807l-1-.218V18.47l1,.024.609.024c1.222,0,1.637-.486,1.637-1.906A7.144,7.144,0,0,0,145.9,12.8a9.444,9.444,0,0,0-.953-1.321c-.17-.218-.17-.218-.32-.435.957-2.666,1.321-3.741,1.934-5.869h-3.69V24.335c0,.269-.585.585-1.052.585-.218,0-.439-.119-.439-.241V3.564Zm8.527,0h5.742l.834-.953,1.637,1.2a.594.594,0,0,1,.293.439c0,.17-.146.316-.467.415l-.411.146v8.238c0,.316-.538.609-1.175.609-.245,0-.392-.123-.392-.293v-.708h-3.472a14.606,14.606,0,0,0,1.807,4.228,35.408,35.408,0,0,0,4.133-3.884l1.4,1.218a.677.677,0,0,1,.241.467c0,.218-.241.368-.609.368h-.759c-1.831,1-2.42,1.317-4.18,2.171a13.7,13.7,0,0,0,5.964,4.5,6.753,6.753,0,0,0-1.954,1.661c-3.445-2.274-5.426-5.5-6.573-10.73H151.5v7.993c1.981-.344,2.349-.415,4.766-.977l.028.34c-2.689,1.123-3.888,1.614-6.6,2.59l-.293.759c-.075.17-.194.293-.34.293-.1,0-.174-.075-.273-.221l-1.491-2.2c1.345-.146,1.542-.17,2.713-.368V3.635Zm6.063.585H151.5v3.6h6.356Zm0,4.18H151.5V13.1h6.356Z" transform="translate(417.772 10.531)" fill="#1a1311"/><path d="M158.07,4.076h.708v12.66h2.274v.783h-2.274v1.736c-.02,1.416.316,1.709,2.029,1.709v.831h-6.771v-.831l.293-.024h.514c1.689-.047,2.057-.368,2.029-1.637V17.519h-6.889v-.589Zm-1.2,12.66V7.351l-6.012,9.385Z" transform="translate(443.185 12.044)" fill="#1a1311"/><path d="M155.5,6.076h3.053l.736-1.1,1.491,1.59a.649.649,0,0,1,.194.392c0,.1-.123.218-.293.269l-.439.123V21.69a.525.525,0,0,1-.392.562,2.365,2.365,0,0,1-.759.174c-.221,0-.368-.1-.368-.269V20.175H155.4v3.033a.523.523,0,0,1-.293.51,2.129,2.129,0,0,1-.882.245.351.351,0,0,1-.364-.316V5.119Zm3.223.585H155.4V12.8h3.322Zm0,6.719H155.4v6.182h3.322Zm1.811-1.93c2.246.1,3.152.123,4.252.123h1.123V7.931H164.57c-1.052,0-1.59.024-3.033.075l-.316-.759c1.637.075,2.2.1,3.35.1h1.341V3.458l2.053.245c.368.047.566.221.566.49,0,.146-.127.293-.32.439l-.68.439V7.346h3.3l1.467-1.665L174.1,7.223c.217.17.265.269.265.392,0,.194-.146.316-.411.316h-6.427v3.642H171.8l1.538-1.76,1.788,1.542a.726.726,0,0,1,.293.486c0,.221-.146.316-.419.316h-3.86v3.4h1.151l1.317-1.491,1.562,1.321a.655.655,0,0,1,.293.49c0,.17-.095.265-.293.265h-4.03v7.431c0,.514-.2.807-.831,1.246a1.577,1.577,0,0,1-.882.392c-.293,0-.411-.146-.463-.51-.075-.613-.075-.613-.759-.811L166.3,23.4v-.538l2.2.1.388.024h.17c.316,0,.463-.194.463-.637V16.141h-4.639c-1.127,0-1.954.028-3.983.1l-.273-.807c2.132.1,2.982.123,4.256.123h4.639v-3.4h-4.738c-1.028,0-1.879.028-3.987.1Zm1.491,5.6a6.027,6.027,0,0,1,2.59,1.246,2.959,2.959,0,0,1,1.222,2.053,1.052,1.052,0,0,1-1.028,1.1c-.411,0-.609-.2-.732-.759a5.041,5.041,0,0,0-2.1-3.3Z" transform="translate(454.656 10.218)" fill="#1a1311"/><path d="M162.245,4.588h3.472l.633-.953,1.811,1.491a.589.589,0,0,1,.245.392c0,.194-.2.34-.49.34h-.633c-.882,1.689-.957,1.859-2.812,5.11,2.2,2.345,3.029,4.034,3.029,6.158a3.149,3.149,0,0,1-.953,2.689,2.752,2.752,0,0,1-1.614.708c-.364,0-.51-.194-.538-.637-.024-.585-.071-.66-.684-.807l-1-.218V18.47l1,.024.613.024c1.222,0,1.637-.486,1.637-1.906a7.109,7.109,0,0,0-1.076-3.813,9.454,9.454,0,0,0-.953-1.321,5.025,5.025,0,0,1-.316-.435c.953-2.666,1.317-3.741,1.93-5.869h-3.69V24.335c0,.269-.589.585-1.052.585-.221,0-.439-.119-.439-.241V3.564Zm8.531,0h5.746l.827-.953,1.641,1.2a.594.594,0,0,1,.293.439c0,.17-.146.316-.463.415l-.419.146v8.238c0,.316-.538.609-1.175.609-.241,0-.388-.123-.388-.293v-.708H173.37a14.39,14.39,0,0,0,1.807,4.228,36.02,36.02,0,0,0,4.129-3.884l1.392,1.218a.683.683,0,0,1,.245.467c0,.218-.245.368-.613.368h-.755c-1.835,1-2.416,1.317-4.18,2.171a13.7,13.7,0,0,0,5.964,4.5A6.752,6.752,0,0,0,179.4,24.41c-3.449-2.274-5.426-5.5-6.577-10.73h-2.345v7.993c1.981-.344,2.345-.415,4.766-.977l.024.34c-2.689,1.123-3.884,1.614-6.6,2.59l-.293.759a.417.417,0,0,1-.344.293c-.095,0-.17-.075-.265-.221l-1.495-2.2c1.349-.146,1.538-.17,2.713-.368V3.635Zm6.063.585h-6.352v3.6h6.352Zm0,4.18h-6.352V13.1h6.352Z" transform="translate(473.869 10.531)" fill="#1a1311"/><path d="M174.772,12.35a5.45,5.45,0,0,1,3.836-1.637c2.836,0,4.718,2.175,4.718,5.426,0,3.468-2.179,5.743-5.505,5.743-2.539,0-4.592-1.463-4.592-3.275a1.392,1.392,0,0,1,1.345-1.467,1.52,1.52,0,0,1,1.44,1.491.97.97,0,0,1-.17.613.8.8,0,0,0-.119.415c0,.831.878,1.44,2.08,1.44,2.124,0,3.393-1.855,3.393-4.936,0-2.812-1.119-4.35-3.156-4.35a4.422,4.422,0,0,0-3.35,1.76l-.724-.241.9-9.168h7.767l-.265,1.76h-6.913Z" transform="translate(511.881 12.301)" fill="#1a1311"/><path d="M178.534,6.076h3.053l.732-1.1,1.491,1.59a.649.649,0,0,1,.194.392c0,.1-.123.218-.293.269l-.439.123V21.69a.521.521,0,0,1-.392.562,2.343,2.343,0,0,1-.755.174c-.221,0-.368-.1-.368-.269V20.175h-3.326v3.033a.517.517,0,0,1-.293.51,2.113,2.113,0,0,1-.878.245.348.348,0,0,1-.364-.316V5.119Zm3.223.585h-3.326V12.8h3.326Zm0,6.719h-3.326v6.182h3.326Zm1.807-1.93c2.246.1,3.156.123,4.252.123h1.123V7.931H187.6c-1.052,0-1.59.024-3.029.075l-.32-.759c1.637.075,2.2.1,3.35.1h1.341V3.458L191,3.7c.368.047.566.221.566.49,0,.146-.127.293-.324.439l-.68.439V7.346h3.3l1.467-1.665,1.807,1.542c.217.17.269.269.269.392,0,.194-.146.316-.415.316h-6.427v3.642h4.275l1.538-1.76,1.788,1.542a.711.711,0,0,1,.293.486c0,.221-.146.316-.419.316h-3.856v3.4h1.147l1.321-1.491,1.562,1.321a.668.668,0,0,1,.293.49c0,.17-.1.265-.293.265h-4.03v7.431c0,.514-.2.807-.835,1.246a1.558,1.558,0,0,1-.878.392c-.293,0-.415-.146-.467-.51-.075-.613-.075-.613-.759-.811l-1.9-.486v-.538l2.2.1.388.024h.174c.316,0,.463-.194.463-.637V16.141h-4.639c-1.127,0-1.958.028-3.987.1l-.269-.807c2.128.1,2.982.123,4.256.123h4.639v-3.4h-4.742c-1.024,0-1.879.028-3.983.1Zm1.491,5.6a6.006,6.006,0,0,1,2.59,1.246,2.959,2.959,0,0,1,1.222,2.053,1.049,1.049,0,0,1-1.024,1.1c-.415,0-.613-.2-.732-.759a5.07,5.07,0,0,0-2.1-3.3Z" transform="translate(522.716 10.218)" fill="#1a1311"/><path d="M185.278,4.588h3.472l.633-.953,1.811,1.491a.574.574,0,0,1,.245.392c0,.194-.2.34-.49.34h-.633c-.882,1.689-.953,1.859-2.812,5.11,2.2,2.345,3.029,4.034,3.029,6.158a3.149,3.149,0,0,1-.953,2.689,2.742,2.742,0,0,1-1.614.708c-.364,0-.51-.194-.538-.637-.024-.585-.071-.66-.684-.807l-1-.218V18.47l1,.024.613.024c1.222,0,1.637-.486,1.637-1.906A7.11,7.11,0,0,0,187.92,12.8a9.456,9.456,0,0,0-.953-1.321,5.037,5.037,0,0,1-.316-.435c.953-2.666,1.317-3.741,1.93-5.869h-3.69V24.335c0,.269-.589.585-1.052.585-.221,0-.439-.119-.439-.241V3.564Zm8.535,0h5.743l.831-.953,1.637,1.2a.583.583,0,0,1,.293.439c0,.17-.146.316-.463.415l-.419.146v8.238c0,.316-.534.609-1.175.609-.241,0-.388-.123-.388-.293v-.708H196.4a14.5,14.5,0,0,0,1.807,4.228,36.018,36.018,0,0,0,4.129-3.884l1.392,1.218a.683.683,0,0,1,.245.467c0,.218-.245.368-.609.368h-.759c-1.835,1-2.416,1.317-4.176,2.171a13.663,13.663,0,0,0,5.96,4.5,6.809,6.809,0,0,0-1.954,1.661c-3.449-2.274-5.426-5.5-6.577-10.73h-2.345v7.993c1.981-.344,2.345-.415,4.766-.977l.024.34c-2.685,1.123-3.884,1.614-6.6,2.59l-.293.759a.412.412,0,0,1-.344.293c-.095,0-.17-.075-.265-.221l-1.495-2.2c1.349-.146,1.542-.17,2.713-.368V3.635Zm6.059.585H193.52v3.6h6.352Zm0,4.18H193.52V13.1h6.352Z" transform="translate(541.929 10.531)" fill="#1a1311"/><path d="M198.134,11.036c2.614,0,4.426,2.076,4.426,5.086a7.009,7.009,0,0,1-1.689,4.667,4.437,4.437,0,0,1-3.223,1.293c-3.3,0-5.553-3.346-5.553-8.309,0-5.572,2.788-9.678,6.6-9.678,1.977,0,3.571,1.123,3.571,2.519a1.107,1.107,0,0,1-1.226,1.123c-.854,0-1.218-.415-1.463-1.637-.174-.953-.49-1.222-1.4-1.222-1.341,0-2.59,1.293-3.223,3.421a18.067,18.067,0,0,0-.637,4.888c1.27-1.538,2.322-2.151,3.813-2.151m-3.5,7.162c.467,1.954,1.59,3.128,2.982,3.128,1.712,0,2.713-1.712,2.713-4.619,0-2.883-.929-4.327-2.761-4.327a3.027,3.027,0,0,0-2.005.759,7.121,7.121,0,0,0-1.246,1.416,14.108,14.108,0,0,0,.316,3.642" transform="translate(567.625 12.1)" fill="#1a1311"/><path d="M197.546,6.076H200.6l.736-1.1,1.491,1.59a.649.649,0,0,1,.194.392c0,.1-.123.218-.293.269l-.439.123V21.69a.525.525,0,0,1-.392.562,2.364,2.364,0,0,1-.759.174c-.221,0-.368-.1-.368-.269V20.175h-3.322v3.033a.523.523,0,0,1-.293.51,2.129,2.129,0,0,1-.882.245.351.351,0,0,1-.364-.316V5.119Zm3.223.585h-3.322V12.8h3.322Zm0,6.719h-3.322v6.182h3.322Zm1.811-1.93c2.246.1,3.152.123,4.252.123h1.123V7.931h-1.341c-1.052,0-1.59.024-3.033.075l-.316-.759c1.637.075,2.2.1,3.35.1h1.341V3.458l2.053.245c.368.047.566.221.566.49,0,.146-.127.293-.32.439l-.68.439V7.346h3.3l1.467-1.665,1.807,1.542c.218.17.265.269.265.392,0,.194-.146.316-.411.316h-6.427v3.642h4.275l1.538-1.76,1.788,1.542a.726.726,0,0,1,.293.486c0,.221-.146.316-.419.316h-3.86v3.4h1.151l1.317-1.491,1.562,1.321a.656.656,0,0,1,.293.49c0,.17-.095.265-.293.265h-4.03v7.431c0,.514-.2.807-.831,1.246a1.577,1.577,0,0,1-.882.392c-.293,0-.411-.146-.463-.51-.075-.613-.075-.613-.759-.811l-1.906-.486v-.538l2.2.1.388.024h.17c.316,0,.463-.194.463-.637V16.141h-4.639c-1.127,0-1.954.028-3.983.1l-.273-.807c2.132.1,2.982.123,4.255.123h4.639v-3.4h-4.738c-1.028,0-1.879.028-3.987.1Zm1.491,5.6a6.028,6.028,0,0,1,2.59,1.246,2.959,2.959,0,0,1,1.222,2.053,1.052,1.052,0,0,1-1.028,1.1c-.411,0-.609-.2-.732-.759a5.041,5.041,0,0,0-2.1-3.3Z" transform="translate(578.895 10.218)" fill="#1a1311"/><path d="M204.293,4.588h3.472l.633-.953,1.811,1.491a.588.588,0,0,1,.245.392c0,.194-.2.34-.49.34h-.633c-.882,1.689-.957,1.859-2.812,5.11,2.2,2.345,3.029,4.034,3.029,6.158a3.149,3.149,0,0,1-.953,2.689,2.752,2.752,0,0,1-1.614.708c-.364,0-.51-.194-.538-.637-.024-.585-.075-.66-.684-.807l-1-.218V18.47l1,.024.609.024c1.226,0,1.641-.486,1.641-1.906a7.144,7.144,0,0,0-1.076-3.813,9.46,9.46,0,0,0-.953-1.321,5.031,5.031,0,0,1-.316-.435c.953-2.666,1.317-3.741,1.93-5.869H203.9V24.335c0,.269-.585.585-1.048.585-.221,0-.443-.119-.443-.241V3.564Zm8.531,0h5.743l.831-.953,1.637,1.2a.589.589,0,0,1,.3.439c0,.17-.146.316-.463.415l-.419.146v8.238c0,.316-.538.609-1.175.609-.241,0-.388-.123-.388-.293v-.708h-3.468a14.392,14.392,0,0,0,1.807,4.228,36.023,36.023,0,0,0,4.129-3.884l1.392,1.218a.683.683,0,0,1,.245.467c0,.218-.245.368-.613.368h-.755c-1.835,1-2.417,1.317-4.18,2.171a13.7,13.7,0,0,0,5.964,4.5,6.752,6.752,0,0,0-1.954,1.661c-3.449-2.274-5.426-5.5-6.577-10.73h-2.345v7.993c1.981-.344,2.345-.415,4.766-.977l.024.34c-2.689,1.123-3.884,1.614-6.6,2.59l-.293.759a.417.417,0,0,1-.344.293c-.095,0-.17-.075-.265-.221l-1.495-2.2c1.345-.146,1.538-.17,2.713-.368V3.635Zm6.063.585h-6.352v3.6h6.352Zm0,4.18h-6.352V13.1h6.352Z" transform="translate(598.105 10.531)" fill="#1a1311"/><path d="M212.649,4.157h9.164V5.233c-4.006,6.035-5.177,9.017-5.177,13.15,0,.609,0,.609.071,1.709v.368c0,.977-.514,1.614-1.3,1.614-.9,0-1.364-.688-1.364-1.981a13.852,13.852,0,0,1,1.218-5.082,48.813,48.813,0,0,1,5.228-9.12h-5.126c-1.665.028-2.278.542-3.35,2.863l-.712-.344Z" transform="translate(624.386 12.284)" fill="#1a1311"/><path d="M216.623,6.076h3.053l.732-1.1,1.491,1.59a.649.649,0,0,1,.194.392c0,.1-.123.218-.293.269l-.439.123V21.69a.521.521,0,0,1-.392.562,2.343,2.343,0,0,1-.755.174c-.222,0-.368-.1-.368-.269V20.175h-3.326v3.033a.517.517,0,0,1-.293.51,2.114,2.114,0,0,1-.878.245.348.348,0,0,1-.364-.316V5.119Zm3.223.585h-3.326V12.8h3.326Zm0,6.719h-3.326v6.182h3.326Zm1.807-1.93c2.246.1,3.156.123,4.252.123h1.123V7.931h-1.341c-1.052,0-1.59.024-3.029.075l-.32-.759c1.637.075,2.2.1,3.35.1h1.341V3.458l2.057.245c.368.047.566.221.566.49,0,.146-.127.293-.324.439l-.68.439V7.346h3.3l1.467-1.665,1.807,1.542c.217.17.269.269.269.392,0,.194-.146.316-.415.316h-6.427v3.642h4.275l1.539-1.76,1.788,1.542a.711.711,0,0,1,.293.486c0,.221-.146.316-.419.316h-3.856v3.4h1.147l1.321-1.491,1.562,1.321a.667.667,0,0,1,.293.49c0,.17-.1.265-.293.265h-4.03v7.431c0,.514-.2.807-.834,1.246a1.558,1.558,0,0,1-.878.392c-.293,0-.415-.146-.467-.51-.075-.613-.075-.613-.759-.811l-1.9-.486v-.538l2.2.1.388.024h.174c.316,0,.463-.194.463-.637V16.141h-4.639c-1.127,0-1.958.028-3.987.1l-.269-.807c2.128.1,2.982.123,4.255.123h4.639v-3.4h-4.742c-1.024,0-1.879.028-3.983.1Zm1.491,5.6a6.006,6.006,0,0,1,2.59,1.246,2.959,2.959,0,0,1,1.222,2.053,1.049,1.049,0,0,1-1.024,1.1c-.415,0-.613-.2-.732-.759a5.071,5.071,0,0,0-2.1-3.3Z" transform="translate(635.266 10.218)" fill="#1a1311"/><path d="M223.367,4.588h3.472l.633-.953,1.811,1.491a.588.588,0,0,1,.245.392c0,.194-.2.34-.49.34h-.633c-.882,1.689-.957,1.859-2.812,5.11,2.2,2.345,3.03,4.034,3.03,6.158a3.149,3.149,0,0,1-.953,2.689,2.752,2.752,0,0,1-1.613.708c-.364,0-.51-.194-.538-.637-.024-.585-.071-.66-.684-.807l-1-.218V18.47l1,.024.613.024c1.222,0,1.637-.486,1.637-1.906a7.11,7.11,0,0,0-1.076-3.813,9.459,9.459,0,0,0-.953-1.321,5.045,5.045,0,0,1-.316-.435c.953-2.666,1.317-3.741,1.93-5.869h-3.69V24.335c0,.269-.589.585-1.052.585-.221,0-.439-.119-.439-.241V3.564Zm8.531,0h5.746l.831-.953,1.637,1.2a.594.594,0,0,1,.293.439c0,.17-.146.316-.463.415l-.419.146v8.238c0,.316-.538.609-1.175.609-.241,0-.388-.123-.388-.293v-.708h-3.468a14.39,14.39,0,0,0,1.807,4.228,36.027,36.027,0,0,0,4.129-3.884l1.392,1.218a.683.683,0,0,1,.245.467c0,.218-.245.368-.613.368H240.7c-1.835,1-2.417,1.317-4.18,2.171a13.7,13.7,0,0,0,5.964,4.5,6.75,6.75,0,0,0-1.954,1.661c-3.449-2.274-5.426-5.5-6.577-10.73H231.6v7.993c1.981-.344,2.345-.415,4.766-.977l.024.34c-2.689,1.123-3.884,1.614-6.6,2.59l-.293.759a.417.417,0,0,1-.344.293c-.095,0-.17-.075-.265-.221l-1.495-2.2c1.349-.146,1.538-.17,2.713-.368V3.635Zm6.063.585h-6.352v3.6h6.352Zm0,4.18h-6.352V13.1h6.352Z" transform="translate(654.479 10.531)" fill="#1a1311"/><path d="M242.728,80.946l-.763-.763,7.712-7.68-7.712-7.684.763-.759,7.684,7.7,7.684-7.7.759.759L251.148,72.5l7.708,7.68-.759.763-7.684-7.708Zm3.2-8.444a1.981,1.981,0,1,1-1.97-1.97,1.974,1.974,0,0,1,1.97,1.97m6.451-6.454a1.968,1.968,0,1,1-1.966-1.989,1.976,1.976,0,0,1,1.966,1.989m0,12.9a1.968,1.968,0,1,1-1.966-1.97,1.961,1.961,0,0,1,1.966,1.97m6.478-6.45a1.981,1.981,0,1,1-1.993-1.97,1.984,1.984,0,0,1,1.993,1.97" transform="translate(714.987 189.286)" fill="#1a1311"/><path d="M247.258,81.759c.356-4.125,2.891-5.857,7.234-8.321,2.583-1.475,3.745-2.116,3.745-4.3,0-2.729-2.227-3.393-3.84-3.393-4.082,0-4.267,3.437-4.315,4.366h-2.254a6.352,6.352,0,0,1,1.539-4.176,6.8,6.8,0,0,1,4.983-1.966c2.468,0,6.023,1.135,6.023,5.046,0,3.065-1.78,4.366-4.956,6.051-4.366,2.322-4.956,3.817-5.434,4.908h10.39v1.78Z" transform="translate(730.627 189.038)" fill="#1a1311"/><path d="M257.679,82.234c-5.311,0-6.569-4.766-6.569-9.132s1.258-9.128,6.569-9.128,6.545,4.813,6.545,9.128c0,4.339-1.23,9.132-6.545,9.132m0-16.484c-3.389,0-4.319,3.465-4.319,7.352,0,4.058,1,7.352,4.319,7.352,3.346,0,4.319-3.318,4.319-7.352,0-4.006-.973-7.352-4.319-7.352" transform="translate(742.01 189.038)" fill="#1a1311"/><path d="M254.818,81.759c.356-4.125,2.891-5.857,7.234-8.321,2.582-1.475,3.745-2.116,3.745-4.3,0-2.729-2.227-3.393-3.84-3.393-4.081,0-4.267,3.437-4.315,4.366h-2.254a6.351,6.351,0,0,1,1.538-4.176,6.8,6.8,0,0,1,4.983-1.966c2.468,0,6.023,1.135,6.023,5.046,0,3.065-1.78,4.366-4.955,6.051-4.366,2.322-4.956,3.817-5.434,4.908h10.39v1.78Z" transform="translate(752.967 189.038)" fill="#1a1311"/><path d="M265.215,82.234a6.325,6.325,0,0,1-5.454-2.349,6.212,6.212,0,0,1-1.092-3.465h2.159c.067.906.285,4.034,4.434,4.034,2.915,0,4.386-1.685,4.386-3.793,0-2.515-2.084-3.322-3.935-3.322h-1.827V71.773h1.542c1.329,0,3.7-.736,3.7-3.033,0-1.329-.755-2.99-3.654-2.99a3.909,3.909,0,0,0-3.081,1.186,4.026,4.026,0,0,0-.878,2.369h-2.136c.332-4.2,3.464-5.331,6.122-5.331,3.461,0,5.762,1.847,5.762,4.524a3.885,3.885,0,0,1-3.01,3.919,4.092,4.092,0,0,1,3.532,4.267c0,3.081-2.393,5.549-6.569,5.549" transform="translate(764.349 189.038)" fill="#1a1311"/><path d="M275.047,79.6v5.5H273.24V79.6H262.593V77.943h3.987V71.587h6.66V67.933h-5.359a26.811,26.811,0,0,1-2.654,3.227l-1.546-1a19.384,19.384,0,0,0,4.7-6.735,7.515,7.515,0,0,1,1.661.736c.285.119.4.19.4.356,0,.285-.356.332-.712.376-.166.289-.356.641-.779,1.38h13.494v1.657h-7.4v3.654h6.28v1.661h-6.28v4.694h8.321V79.6Zm-1.807-6.356h-4.932v4.694h4.932Z" transform="translate(775.941 187.425)" fill="#1a1311"/><path d="M272.756,71.771c-.051,3.342-.119,9.08-2.658,13.257l-1.614-.617c1.566-2.705,2.535-5.576,2.535-12.4,0-.9-.044-5.217-.067-5.98h7.922V63.446l1.871.119c.142,0,.475.024.475.285,0,.285-.352.451-.5.522v1.657h9.132v1.546H272.681c.051,1.23.075,1.633.075,2.772h3.769V68.188l1.78.119c.281.024.5.047.5.237,0,.218-.218.36-.617.55v1.254h4.695V68.188l1.685.119c.237.024.522.047.522.289,0,.142-.075.233-.522.5v1.254h4.125v1.424h-4.125v3.085h-8.04V71.771Zm.732,11.979a23.139,23.139,0,0,0,6.359-2.017,12.362,12.362,0,0,1-2.591-3.037l1.451-.641a9.966,9.966,0,0,0,2.535,2.824,11.9,11.9,0,0,0,3.061-2.99H273.986V76.351h12.241l.613.684a16.163,16.163,0,0,1-4.2,4.671,17.665,17.665,0,0,0,6.973,1.495l-.807,1.732c-4.552-.617-6.166-1.349-7.633-2.254a25.054,25.054,0,0,1-6.692,2.492Zm9.393-11.979h-4.695v1.657h4.695Z" transform="translate(793.351 187.478)" fill="#1a1311"/><path d="M283.646,68.289l1.9.119c.332.024.447.119.447.261,0,.19-.138.285-.566.451v.973h6.308v1.542h-6.308v2.037h5.62v1.471h-5.62a10.544,10.544,0,0,1-.19,2.112H294.2v1.59h-8.044c2.136,3.1,5.98,3.745,8.329,4.1l-1.163,1.8c-3.769-.854-6.569-1.97-8.7-5.406-1.424,2.634-3.413,4.695-8.891,5.383l-.973-1.685c6-.542,7.348-2.776,8.131-4.2h-7.965v-1.59h8.464a10.251,10.251,0,0,0,.261-2.112h-5.81V73.672h5.81V71.635h-6.233V70.093h6.233Zm-.047-4.813,2.041.142c.095.024.38.047.38.281s-.285.407-.569.55v1.3h8.776v4.342h-1.732V67.364h-15.91v2.848h-1.736V65.75H283.6Z" transform="translate(811.879 187.566)" fill="#1a1311"/><path d="M288.875,72.076a69.6,69.6,0,0,1-.5,8.895c-.475,3.488-1.4,3.488-3.773,3.536l-.471-1.851c.5.024,1.135.071,1.4.071.593,0,.925-.115,1.234-1.847a41.182,41.182,0,0,0,.451-7.261h-2.25A34.114,34.114,0,0,1,284.2,79a16.8,16.8,0,0,1-2.25,5.624l-1.542-1c3.037-4.3,3.037-10.955,3.037-13.945h-2.658V68.141h3.461V63.683l1.76.142c.352.047.542.095.542.261,0,.233-.427.423-.641.5v3.555H289.3v1.542h-4.2c-.024,1.4-.047,1.851-.071,2.393Zm-.237-.85a29.356,29.356,0,0,0,4.315-7.779l1.566.831c.356.19.384.261.384.332,0,.261-.332.285-.645.308-.186.451-.569,1.305-1.068,2.227h8.586v1.618h-9.464a37.358,37.358,0,0,1-2.326,3.579Zm5.857,13.281c-2.539,0-2.583-1.495-2.583-2.3V76.161l-2.349.494-.119-1.614,2.468-.427V71.391l1.752.261c.38.047.451.142.451.237,0,.21-.261.332-.617.451v1.97l2.3-.5V69.8l1.661.142c.356.047.5.047.5.237,0,.214-.261.356-.55.475V73.5l3.014-.617.74.542a25.182,25.182,0,0,1-.621,5.98c-.376,1.376-.854,1.495-2.345,1.562l-.736-1.8a2.377,2.377,0,0,0,.878.194c.617,0,.783-.712.9-1.519a28.742,28.742,0,0,0,.265-3.227l-2.092.427V81.4H295.8v-6l-2.3.455v5.5c0,.973.051,1.661,1.685,1.661h3.631c1.444,0,1.8-.641,2.349-2.583l1.491.973c-.949,3.1-2.254,3.1-3.56,3.1Z" transform="translate(828.58 187.478)" fill="#1a1311"/><path d="M286.347,72.833a25.536,25.536,0,0,0,4.884-9.345l1.685.617c.047.024.285.115.285.281,0,.241-.237.265-.522.289-.759,1.8-.925,2.2-1.258,2.891.071.1.309.309.309.475,0,.123-.332.451-.5.641V84.809H289.57V71.291a17.853,17.853,0,0,1-1.989,2.776Zm14.4-3.227c-.261,3.722-.57,6.854-2.278,10.2a15.523,15.523,0,0,1-4.054,4.908l-1.329-1.21a13.287,13.287,0,0,0,4.742-6.356,8.9,8.9,0,0,0-2.393-1.732l.732-1.424a10.075,10.075,0,0,1,2.235,1.424,23.637,23.637,0,0,0,.664-4.2h-2.78a17.118,17.118,0,0,1-2.535,5.193l-1.542-.684a15.415,15.415,0,0,0,2.539-4.959,20.782,20.782,0,0,0,.874-4.556h-2.227V64.674H301.6v1.538h-4.271a25.164,25.164,0,0,1-.589,3.393Zm1.59-2.895,1.613.1c.071,0,.423.024.423.285,0,.138-.166.257-.352.423V79.07h-1.685Zm3.579-3.081,1.756.119c.119,0,.356.024.356.19,0,.214-.261.38-.5.5V82.555c0,1.4-.119,2.088-1.969,2.088h-1.918l-.807-1.97a16.492,16.492,0,0,0,2.393.261c.688,0,.688-.281.688-.688Z" transform="translate(846.132 187.602)" fill="#1a1311"/></g></g></svg>