<svg xmlns="http://www.w3.org/2000/svg" xmlns:xlink="http://www.w3.org/1999/xlink" width="548.045" height="291.465" viewBox="0 0 548.045 291.465"><defs><clipPath id="a"><rect width="250.738" height="291.465" fill="none"/></clipPath><clipPath id="b"><rect width="250.738" height="291.252" fill="none"/></clipPath></defs><g transform="translate(-851.955 -2533)"><g transform="translate(851.955 2533)"><g clip-path="url(#a)"><path d="M119.413,135.353,15.706,185.933A115.383,115.383,0,0,1,68.833,31.647a114.2,114.2,0,0,1,50.58-11.675Z" transform="translate(8.016 40.001)" fill="#e3dead"/><path d="M119.413,135.353,15.706,185.933A115.383,115.383,0,0,1,68.833,31.647a114.2,114.2,0,0,1,50.58-11.675Z" transform="translate(8.016 40.001)" fill="none" stroke="#fff" stroke-width="0.219"/><path d="M111.606,58.4,18.26,126.215A109.51,109.51,0,0,1,7.9,108.976Z" transform="translate(15.822 116.958)" fill="#d2dbce"/><path d="M111.606,58.4,18.26,126.215A109.51,109.51,0,0,1,7.9,108.976Z" transform="translate(15.822 116.958)" fill="none" stroke="#fff" stroke-width="0.219"/><path d="M104.7,58.4,40.174,154.052A109.372,109.372,0,0,1,11.35,126.215Z" transform="translate(22.732 116.958)" fill="#e4c6c9"/><path d="M104.7,58.4,40.174,154.052A109.372,109.372,0,0,1,11.35,126.215Z" transform="translate(22.732 116.958)" fill="none" stroke="#fff" stroke-width="0.219"/><path d="M85.471,58.4l41.352,107.718c-36.352,13.954-73.6,9.711-105.874-12.062Z" transform="translate(41.958 116.958)" fill="#ebdabf"/><path d="M85.471,58.4l41.352,107.718c-36.352,13.954-73.6,9.711-105.874-12.062Z" transform="translate(41.958 116.958)" fill="none" stroke="#fff" stroke-width="0.219"/><path d="M42.436,59.74,157.8,57.725c.865,49.382-27.908,92.034-74.011,109.733Z" transform="translate(84.993 115.614)" fill="#c1cedc"/><path d="M42.436,59.74,157.8,57.725c.865,49.382-27.908,92.034-74.011,109.733Z" transform="translate(84.993 115.614)" fill="none" stroke="#fff" stroke-width="0.219"/><path d="M42.436,135.353V19.972c63.66,0,114.252,49.715,115.363,113.366Z" transform="translate(84.993 40.001)" fill="#ccc8d7"/><path d="M42.436,135.353V19.972c63.66,0,114.252,49.715,115.363,113.366Z" transform="translate(84.993 40.001)" fill="none" stroke="#fff" stroke-width="0.219"/><path d="M17.707,46.486a20.2,20.2,0,0,0,6.946-.928l1.039,1.231a4.079,4.079,0,0,1-.832.832,49.812,49.812,0,0,0-4.051,4.372c.571-.132,1.249-.321,1.856-.474,2.309-.625,3.955-1.228,4.808-1.531l.246,1.531a10.951,10.951,0,0,1-1.192.285c-.91.189-2.348,1.61-2.859,2.12-.661.682-2.213,2.213-2.213,4.03,0,1.456,1.342,2.006,2.5,2.2a10.72,10.72,0,0,0,2.177.1v1.513a21.81,21.81,0,0,1-2.384-.228c-1.042-.168-3.576-.775-3.576-3.727,0-2.366,2.2-4.258,3.405-5.3-1.078.342-5.886,1.685-6.868,1.988-.378.114-.682.207-1.42.471l-.528-1.628a15.425,15.425,0,0,0,3.1-.528,2.174,2.174,0,0,0,1.288-.8c1.685-1.835,1.856-2.024,3.462-3.766a3.309,3.309,0,0,0,.778-1.117,37.477,37.477,0,0,1-4.979.835Z" transform="translate(29.552 91.246)" fill="#1a1311"/><path d="M28.718,58.785a8.938,8.938,0,0,0,2.895-1.456,6.219,6.219,0,0,0,2.234-4.714,5.538,5.538,0,0,0-2.991-4.9,6.7,6.7,0,0,0-2.591-.51,23.906,23.906,0,0,1-2.2,8.288c-.793,1.685-1.817,3.333-2.934,3.333-1.589,0-3.234-2.441-3.234-5.186a7.791,7.791,0,0,1,8.006-7.72c3.973,0,7.36,2.5,7.36,6.7,0,5.15-4.579,6.985-5.714,7.438Zm-6.225-8.894A6.227,6.227,0,0,0,21.187,53.6c0,2.024,1.153,3.558,1.913,3.558.4,0,.85,0,2.081-3.027a22.389,22.389,0,0,0,1.628-6.889,6.177,6.177,0,0,0-4.315,2.649" transform="translate(39.861 91.967)" fill="#1a1311"/><path d="M31.546,46.447a21.573,21.573,0,0,1-1.778,3.633l.4.114c.135.036.246.075.246.171s-.225.357-.339.471V62.494H28.69V51.9a17.838,17.838,0,0,1-2.024,2.856l-1.177-.832a27.245,27.245,0,0,0,5.018-8.627l1.246.51c.135.057.342.168.342.282,0,.093-.057.114-.55.36m8.855,15.5H35.122c-1.589,0-1.913-1.192-1.913-2.327V53.882c-.471.153-.547.171-1.628.532l-.453-1.288c.381-.111.685-.189,2.081-.6V47.657l1.288.228c.192.039.339.15.339.264s-.093.171-.3.321v3.651c.321-.093,1.742-.547,2.045-.643.189-.057.246-.075.568-.189v-5.9l1.267.114c.417.039.417.207.417.228,0,.111-.153.282-.3.471v4.636c1.474-.471,2.5-.835,3.159-1.06l1.024.8c-.1,1.4-.417,4.123-.625,5.147-.324,1.607-1.156,1.742-2.177,1.835l-.646-1.42c1,.021,1.4-.018,1.573-1.171a30.633,30.633,0,0,0,.393-3.748c-.889.321-1.282.453-2.7.928v6.3H37.149V52.6c-.285.093-2.252.739-2.612.85v5.982c0,.8.207,1.231,1.57,1.231H40c1.249,0,1.721-.21,2.12-2.955l1.228.625c-.393,2.745-1.057,3.615-2.952,3.615" transform="translate(51.051 90.717)" fill="#1a1311"/><path d="M57.408,44.316l1.4.1c.15.018.321.018.321.207,0,.153-.153.264-.4.378v1.249h4.675v4.126h2.97v1.249h-7.4A9.2,9.2,0,0,0,62.82,55.18a10.288,10.288,0,0,0,3.516,1.1l-.85,1.5a12,12,0,0,1-7.549-5.45,7.568,7.568,0,0,1-3.123,3.69,13.762,13.762,0,0,1-3.976,1.817l-.925-1.342a11.5,11.5,0,0,0,5.09-2.2,6.078,6.078,0,0,0,1.8-2.667H49.61V50.372h2.706V46.246h5.093Zm2.8.589V43.577H55.721v1.384H54.4V43.577H49.724V42.349H54.4V40.625l1.456.153c.1,0,.285.036.285.171s-.207.243-.417.339v1.06h4.486V40.532l1.42.132c.171.018.339.039.339.207s-.189.246-.414.342v1.135h4.711v1.228H61.552V44.9Zm-3.066,5.468a15.915,15.915,0,0,0,.267-2.895H53.661v2.895Zm5,0V47.478H58.73a17.842,17.842,0,0,1-.246,2.895Z" transform="translate(99.361 81.179)" fill="#1a1311"/><path d="M55.847,43.452h6.91v1.231h-6.91Zm5.129,13.3V55.98H57.814v.832H56.586V51h5.657v5.75ZM56.6,40.84h5.507v1.231H56.6Zm0,5.129h5.507v1.174H56.6Zm0,2.366h5.507v1.174H56.6Zm4.372,3.784H57.814v2.727h3.162Zm1.874-2.895V48.032h2.8l.661-2.573H64.078V44.266h2.537l.607-2.291h-3.73V40.84h8.97v1.135h-3.8l-.6,2.291h3.648l-.15,3.766h1.531v1.192Zm7.837,7.438V55.83H65.612v.889H64.27V50.758h7.7v5.9Zm0-4.732H65.615V54.6h5.072ZM67.75,45.458l-.682,2.573h3.066l.153-2.573Z" transform="translate(111.853 81.796)" fill="#1a1311"/><path d="M77.493,52.239c-.339-.853-.55-1.285-.736-1.664-1.516.054-5.207.225-5.567.225v6.907H69.755V50.858c-3.237.132-4.411.189-6.549.207-.093.171-.246.474-.492.474-.15,0-.186-.132-.225-.4l-.228-1.459c.514.039,1.117.078,2.612.078.811,0,2.213-.021,2.763-.039.207-.171,1.1-.967,1.285-1.135a24.556,24.556,0,0,0-3.748-2.8l.835-1.135c.021.018,1.3.871,1.324.871a19.754,19.754,0,0,0,2.477-2.688c-2.609.132-3.952.171-5.714.132l-.643-1.42c.7.039,1.76.1,3.48.1,5.207,0,7.381-.532,9.123-1.078l1.135,1.249c.1.111.114.168.114.225a.212.212,0,0,1-.207.21,2.519,2.519,0,0,1-.739-.228,36.448,36.448,0,0,1-4.579.664c-1.117,1.228-2.309,2.552-3.405,3.576.378.3,1.021.814,1.682,1.4a39.343,39.343,0,0,0,3.54-3.651l1.228,1.078c.078.075.171.15.171.246,0,.15-.189.189-.321.189a3.874,3.874,0,0,1-.4-.018c-.739.643-3.958,3.594-4.618,4.18,2.156-.036,4.333-.093,6.492-.246A10.237,10.237,0,0,0,74.884,47.7l1.135-.778A16.9,16.9,0,0,1,78.725,51.6Zm-9.708.985a20.737,20.737,0,0,1-4.294,3.558l-1.024-1.1a14.222,14.222,0,0,0,4.675-3.937l1.138,1.042c.129.132.168.189.168.264,0,.228-.474.189-.664.171m9.444,3.766a22.621,22.621,0,0,0-4.522-3.937l.889-.985a20.129,20.129,0,0,1,4.579,3.73Z" transform="translate(124.697 81.243)" fill="#1a1311"/><path d="M18.491,79.983c-2.877,1.285-4.69,1.967-6.018,2.441-.075.168-.168.4-.3.4-.153,0-.246-.228-.285-.342l-.51-1.3c.568-.153,1.817-.474,2.97-.853V75.458H11.981V74.173h2.366V70.086H11.827V68.855h6.3v1.231H15.671v4.087H18.13v1.285H15.671v4.408a29.913,29.913,0,0,0,2.859-1.153Zm-.646,4.141V82.9h4.982V80.19H19.473V78.959h3.354V76.785H19.172V68.326h8.669v8.459H24.148v2.174h3.594V80.19H24.148V82.9h4.732v1.228Zm4.982-14.552H20.5V71.9h2.327Zm0,3.5H20.5v2.48h2.327Zm3.687-3.5H24.148V71.9h2.366Zm0,3.5H24.148v2.48h2.366Z" transform="translate(22.786 136.846)" fill="#1a1311"/><path d="M24.9,69.466A17.153,17.153,0,0,1,22.8,70v3.159h2.462v1.267H22.95a9.488,9.488,0,0,0,2.609,3.5l-.889.985A12.575,12.575,0,0,1,22.8,76.6v8.423H21.454V76.6a16.7,16.7,0,0,1-2.516,4.636l-1.117-.889a14.047,14.047,0,0,0,3.048-5.925H17.86V73.157h3.594V70.244a20.661,20.661,0,0,1-2.895.321l-.739-1.381a16.545,16.545,0,0,0,6.642-.928l1.042.889c.075.057.132.114.132.171,0,.246-.571.171-.739.15m7.4,9.1v6.414H30.916V79.024l-4.747,1.456-.477-1.267,5.225-1.574V68.124l1.552.15c.075,0,.357.039.357.189,0,.21-.264.321-.529.435V77.19l2.727-.892.378,1.231Zm-3.877-1.913a12.934,12.934,0,0,0-2.237-1.988l.757-.982a12.187,12.187,0,0,1,2.366,1.967Zm.186-3.709a12.4,12.4,0,0,0-2.177-1.913L27.283,70a10.98,10.98,0,0,1,2.252,1.931Z" transform="translate(35.693 136.442)" fill="#1a1311"/><path d="M39.417,79.768c-.339-.853-.55-1.285-.736-1.667-1.516.057-5.207.228-5.567.228v6.907H31.679V78.387c-3.237.132-4.411.189-6.549.207-.093.171-.246.474-.492.474-.15,0-.186-.132-.225-.4l-.228-1.459c.513.039,1.117.078,2.612.078.811,0,2.213-.021,2.763-.039.207-.171,1.1-.964,1.285-1.135a24.555,24.555,0,0,0-3.748-2.8l.835-1.135c.021.018,1.3.871,1.324.871a19.755,19.755,0,0,0,2.477-2.688c-2.609.132-3.952.171-5.714.132l-.643-1.42c.7.039,1.76.1,3.48.1,5.207,0,7.381-.532,9.123-1.078l1.135,1.249c.1.111.114.168.114.225a.212.212,0,0,1-.207.21,2.519,2.519,0,0,1-.739-.228,36.451,36.451,0,0,1-4.579.664c-1.117,1.231-2.309,2.552-3.405,3.576.378.3,1.021.814,1.682,1.4a39.34,39.34,0,0,0,3.54-3.651l1.228,1.078c.078.075.171.15.171.246,0,.15-.189.189-.321.189a3.869,3.869,0,0,1-.4-.018c-.739.643-3.958,3.594-4.618,4.18,2.156-.036,4.333-.093,6.492-.246a10.237,10.237,0,0,0-1.267-1.739l1.135-.778a16.9,16.9,0,0,1,2.706,4.675Zm-9.708.985a20.738,20.738,0,0,1-4.294,3.558l-1.024-1.1a14.223,14.223,0,0,0,4.675-3.937L30.2,80.318c.129.132.168.189.168.264,0,.228-.474.189-.664.171m9.444,3.766a22.621,22.621,0,0,0-4.522-3.937l.889-.985a20.128,20.128,0,0,1,4.579,3.73Z" transform="translate(48.437 136.38)" fill="#1a1311"/><path d="M19.578,80.943a9.543,9.543,0,0,0,1.778,1.685l-.889.928a8.849,8.849,0,0,1-1.874-2.12v2.952H17.307V81.379a19.962,19.962,0,0,1-3.691,3.216l-.946-.889a12.45,12.45,0,0,0,3.405-2.763H13.163V79.769h4.144V76.514l1.3.135c.36.039.474.243.474.321,0,.132-.282.321-.492.453v2.345h3.6v1.174ZM14.013,89.97a16.038,16.038,0,0,0,1.513-2.12H13.163V86.715h3.063a16.451,16.451,0,0,0,.985-2.081l1.231.757c.168.1.282.171.282.3,0,.171-.264.228-.643.282-.228.4-.246.435-.435.739h4.976V87.85H21.355a12.364,12.364,0,0,1-1.513,2.537A12.065,12.065,0,0,1,21.6,91.54l-.889.985a14.14,14.14,0,0,0-1.778-1.192,10.084,10.084,0,0,1-1.952,1.21,11.3,11.3,0,0,1-2.778.814l-.892-1.228a9.041,9.041,0,0,0,4.447-1.42,14.779,14.779,0,0,0-2.1-.8c-.228.3-.36.474-.625.8ZM15.037,76.7a9.607,9.607,0,0,1,1.871,1.817l-.832.8a12.843,12.843,0,0,0-1.817-1.778ZM17.061,87.85c-.378.625-.435.721-.757,1.174a20.569,20.569,0,0,1,2.384.832,6.976,6.976,0,0,0,1.228-2.006Zm2.06-9.366a9.857,9.857,0,0,0,1.742-1.97l.8.76c.114.111.207.189.207.282,0,.171-.246.189-.357.207a10.056,10.056,0,0,1-1.5,1.5ZM29.532,93.207a9.26,9.26,0,0,1-3.654-2.952,11.151,11.151,0,0,1-3.441,3.312l-1.288-.892a10.974,10.974,0,0,0,3.994-3.651,17.859,17.859,0,0,1-1.628-6.546l1.228-.21a20.241,20.241,0,0,0,1.135,5.282,19.484,19.484,0,0,0,1.042-6.114H23.854A15.67,15.67,0,0,1,22,84.784l-1.135-.793A19.6,19.6,0,0,0,24.1,76.4l1.4.547c.153.078.3.189.3.342s-.171.189-.529.3c-.153.4-.778,2.2-.928,2.552h5.372v1.288H28.262c-.3,3.405-.547,5.222-1.682,7.588a8.164,8.164,0,0,0,3.841,3.009Z" transform="translate(25.378 153.023)" fill="#1a1311"/><path d="M28.168,88.689V91.6c0,1.5-.435,2.045-2.856,2.027l-.7-1.513c.6.039.961.039,1.189.039.489,0,.889-.021.889-.646v-2.82H19.009V87.461H26.69V85.755l1.174.1a18.517,18.517,0,0,0,2.117-1.531H22.642V83.145h9.519l.435.832c-2.024,1.513-3.712,2.609-4.429,3.066v.417h7.837v1.228Zm6.093-4.408V81.518H20.733v2.856H19.348V80.326H35.642v3.955Zm-11.129-4.24a11.948,11.948,0,0,0-2.063-2.213l.988-.853a10.97,10.97,0,0,1,2.117,2.216Zm4.243-.339a10.835,10.835,0,0,0-2.03-2.727l1.12-.661a11.132,11.132,0,0,1,2.06,2.63ZM33.2,77.827A13.957,13.957,0,0,1,31.267,80l-.982-.835a10.753,10.753,0,0,0,2.273-2.856l1.135,1.039c.1.114.15.189.15.267,0,.207-.3.207-.643.207" transform="translate(38.072 152.845)" fill="#1a1311"/><path d="M40.636,88.065c-.339-.853-.55-1.285-.736-1.664-1.516.054-5.207.225-5.567.225v6.907H32.9V86.684c-3.237.132-4.411.189-6.549.207-.093.171-.246.474-.492.474-.15,0-.186-.132-.225-.4L25.4,85.51c.513.039,1.117.078,2.612.078.811,0,2.213-.021,2.763-.039.207-.171,1.1-.967,1.285-1.135a24.557,24.557,0,0,0-3.748-2.8l.835-1.135c.021.018,1.3.871,1.324.871a19.753,19.753,0,0,0,2.477-2.688c-2.609.132-3.952.171-5.714.132l-.643-1.42c.7.039,1.76.1,3.48.1,5.207,0,7.381-.532,9.123-1.078l1.135,1.249c.1.111.114.168.114.225a.212.212,0,0,1-.207.21,2.519,2.519,0,0,1-.739-.228,36.451,36.451,0,0,1-4.579.664c-1.117,1.228-2.309,2.552-3.405,3.576.378.3,1.021.814,1.682,1.4a39.342,39.342,0,0,0,3.54-3.651l1.228,1.078c.078.075.171.15.171.246,0,.15-.189.189-.321.189a3.876,3.876,0,0,1-.4-.018c-.739.643-3.958,3.594-4.618,4.18,2.156-.036,4.333-.093,6.492-.246a10.237,10.237,0,0,0-1.267-1.739l1.135-.778a16.9,16.9,0,0,1,2.706,4.675Zm-9.708.985a20.738,20.738,0,0,1-4.294,3.558l-1.024-1.1a14.223,14.223,0,0,0,4.675-3.937l1.138,1.042c.129.132.168.189.168.264,0,.228-.474.189-.664.171m9.444,3.766a22.621,22.621,0,0,0-4.522-3.937l.889-.985a20.128,20.128,0,0,1,4.579,3.73Z" transform="translate(50.878 152.997)" fill="#1a1311"/><path d="M34.762,91.364a14.419,14.419,0,0,1-2.555,2.063l-1.192-.889a17.134,17.134,0,0,0,5.829-5.621H31.714V85.689h3.048V81.9l1.324.075c.132.021.453.039.453.228,0,.114-.036.15-.4.435v3.048h2.12l.432.489a14.568,14.568,0,0,1-2.156,3.312A10.382,10.382,0,0,0,39.491,91.8l-.928.946a8.5,8.5,0,0,1-2.42-1.988v7.988H34.762ZM43.239,81.9l1.381.132c.153.021.4.057.4.21s-.111.243-.4.471v4.844h3.309v1.288H44.62v7.588h3.937v1.288h-9.8V96.436h4.486V88.848H39.644V87.559h3.594Z" transform="translate(62.116 164.037)" fill="#1a1311"/><path d="M54.13,89.208a17.74,17.74,0,0,1-4.8-2.649,15.19,15.19,0,0,1-2.973-3.123,19.693,19.693,0,0,1-7.946,6.075L37.383,88.28a15.083,15.083,0,0,0,8.327-6.51l1.438.492c.225.075.417.15.417.339a.59.59,0,0,1-.078.246c1.081,1.874,3.8,3.862,7.627,5.129Zm-8.213,3.9c-1.192,2.1-1.931,3.294-2.384,3.994,1.724-.21,3.654-.417,5.3-.643.513-.078.874-.135,1.213-.189-.889-1.213-1.114-1.5-1.57-2.027l1.174-.643a20.359,20.359,0,0,1,3.405,4.826l-1.285.679c-.814-1.417-.871-1.492-1.078-1.853-2.423.453-5.207.946-10.069,1.534-.114.189-.285.435-.4.435-.168,0-.246-.228-.282-.36l-.342-1.42c.607,0,.985-.036,2.309-.15a31.151,31.151,0,0,0,2.327-4.183H38.557V91.763h15.78v1.342Zm-3.709-5.072h8.27V89.3h-8.27Z" transform="translate(74.872 163.773)" fill="#1a1311"/><path d="M59.143,93.527c-.339-.853-.55-1.285-.736-1.667-1.516.057-5.207.228-5.567.228V99H51.405v-6.85c-3.237.132-4.411.189-6.549.207-.093.171-.246.474-.492.474-.15,0-.186-.132-.225-.4l-.228-1.459c.514.039,1.117.078,2.612.078.811,0,2.213-.021,2.763-.039.207-.171,1.1-.964,1.285-1.135a24.554,24.554,0,0,0-3.748-2.8l.835-1.135c.021.018,1.3.871,1.324.871a19.754,19.754,0,0,0,2.477-2.688c-2.609.132-3.952.171-5.714.132l-.643-1.42c.7.039,1.76.1,3.48.1,5.207,0,7.381-.532,9.123-1.078L58.84,83.1c.1.111.114.168.114.225a.212.212,0,0,1-.207.21,2.52,2.52,0,0,1-.739-.228,36.45,36.45,0,0,1-4.579.664c-1.117,1.231-2.309,2.552-3.405,3.576.378.3,1.021.814,1.682,1.4a39.341,39.341,0,0,0,3.54-3.651l1.228,1.078c.078.075.171.15.171.246,0,.15-.189.189-.321.189a3.871,3.871,0,0,1-.4-.018c-.739.643-3.958,3.594-4.618,4.18,2.156-.036,4.333-.093,6.492-.246a10.237,10.237,0,0,0-1.267-1.739l1.135-.778a16.9,16.9,0,0,1,2.706,4.675Zm-9.708.985a20.737,20.737,0,0,1-4.294,3.558l-1.024-1.1a14.223,14.223,0,0,0,4.675-3.937l1.138,1.042c.129.132.168.189.168.264,0,.228-.474.189-.664.171m9.444,3.766a22.62,22.62,0,0,0-4.522-3.937l.889-.985a20.129,20.129,0,0,1,4.579,3.73Z" transform="translate(87.945 163.937)" fill="#1a1311"/><path d="M67.272,83.865v-.643H54.861v.643H53.48V67.989H68.653V83.865Zm0-14.588H54.858V81.9H67.272ZM55.846,80.042V78.814h4.636V75.956H57.167V74.763h3.315V72.208H56.489V71.016H65.8v1.192H61.8v2.555h3.162v1.192H61.8v2.859h4.429v1.228Zm7.985-1.531a6.4,6.4,0,0,0-1.192-1.628l.946-.775a7.107,7.107,0,0,1,1.249,1.607Z" transform="translate(107.112 136.171)" fill="#1a1311"/><path d="M59.451,70.6h6.91v1.231h-6.91ZM64.58,83.9v-.775H61.418v.832H60.19V78.154h5.657V83.9ZM60.208,67.989h5.507V69.22H60.208Zm0,5.129h5.507v1.174H60.208Zm0,2.366h5.507v1.174H60.208Zm4.372,3.784H61.418v2.727H64.58Zm1.874-2.895V75.181h2.8l.661-2.573H67.682V71.415h2.537l.607-2.291H67.1V67.989h8.97v1.135h-3.8l-.6,2.291h3.648l-.15,3.766H76.69v1.192Zm7.837,7.438v-.832H69.216v.889H67.874V77.907h7.7v5.9Zm0-4.732H69.219v2.67h5.072Zm-2.937-6.471-.682,2.573h3.066l.153-2.573Z" transform="translate(119.071 136.171)" fill="#1a1311"/><path d="M81.1,79.387c-.339-.853-.55-1.285-.736-1.664-1.516.054-5.207.225-5.567.225v6.907H73.36V78.006c-3.237.132-4.411.189-6.549.207-.093.171-.246.474-.492.474-.15,0-.186-.132-.225-.4l-.228-1.459c.513.039,1.117.078,2.612.078.811,0,2.213-.021,2.763-.039.207-.171,1.1-.967,1.285-1.135a24.555,24.555,0,0,0-3.748-2.8l.835-1.135c.021.018,1.3.871,1.324.871a19.752,19.752,0,0,0,2.477-2.688c-2.609.132-3.952.171-5.714.132l-.643-1.42c.7.039,1.76.1,3.48.1,5.207,0,7.381-.532,9.123-1.078L80.8,68.961c.1.111.114.168.114.225a.212.212,0,0,1-.207.21,2.519,2.519,0,0,1-.739-.228,36.451,36.451,0,0,1-4.579.664c-1.117,1.228-2.309,2.552-3.405,3.576.378.3,1.021.814,1.682,1.4a39.339,39.339,0,0,0,3.54-3.651l1.228,1.078c.078.075.171.15.171.246,0,.15-.189.189-.321.189a3.874,3.874,0,0,1-.4-.018c-.739.643-3.958,3.594-4.618,4.18,2.156-.036,4.333-.093,6.492-.246a10.236,10.236,0,0,0-1.267-1.739l1.135-.778a16.9,16.9,0,0,1,2.706,4.675Zm-9.708.985A20.738,20.738,0,0,1,67.1,83.93l-1.024-1.1a14.223,14.223,0,0,0,4.675-3.937l1.138,1.042c.129.132.168.189.168.264,0,.228-.474.189-.664.171m9.444,3.766A22.62,22.62,0,0,0,76.312,80.2l.889-.985a20.129,20.129,0,0,1,4.579,3.73Z" transform="translate(131.917 135.617)" fill="#1a1311"/><rect width="250.738" height="40.812" fill="#90c9c5"/><path d="M53.779,25.81c-6.009-1.64-7.979-3.231-9.468-4.417-2.676,2.246-5.075,3.459-9.669,4.669l-1.363-1.841a19.516,19.516,0,0,0,9.8-4.192c-1.189-1.339-3.79-4.291-5.357-11.261H33.279V7h9.846V3.517l2.12.126c.228.027.456.078.456.279,0,.177-.078.225-.658.607V7h10.2V8.769H50.927a24.434,24.434,0,0,1-5.3,11.261c2.679,2.12,4.9,3,9.672,3.814ZM39.642,8.769a23.935,23.935,0,0,0,4.669,10,21.707,21.707,0,0,0,4.621-10Z" transform="translate(66.653 7.044)" fill="#1a1311"/><path d="M62.408,19.054c-.453-1.138-.73-1.718-.982-2.222-2.021.075-6.943.3-7.426.3v9.216H52.084V17.21c-4.318.174-5.883.252-8.735.276-.126.228-.33.634-.658.634-.2,0-.252-.177-.3-.532l-.3-1.946c.679.051,1.489.1,3.483.1,1.084,0,2.952-.024,3.684-.051.279-.225,1.465-1.288,1.718-1.513a33.246,33.246,0,0,0-5-3.739l1.111-1.513c.021.024,1.742,1.162,1.766,1.162A26.364,26.364,0,0,0,52.16,6.5c-3.483.177-5.276.228-7.624.177l-.859-1.895c.934.051,2.348.126,4.645.126,6.943,0,9.846-.706,12.171-1.438l1.513,1.667c.126.153.15.228.15.3a.277.277,0,0,1-.276.276,3.417,3.417,0,0,1-.985-.3,48.1,48.1,0,0,1-6.111.883c-1.489,1.64-3.078,3.408-4.543,4.772.5.4,1.366,1.084,2.246,1.868A52.036,52.036,0,0,0,57.21,8.069l1.64,1.438c.1.1.228.2.228.33,0,.2-.252.252-.429.252a4.686,4.686,0,0,1-.532-.027c-.985.859-5.276,4.8-6.159,5.579,2.88-.048,5.783-.126,8.66-.327a13.519,13.519,0,0,0-1.694-2.321l1.516-1.036a22.4,22.4,0,0,1,3.609,6.237ZM49.46,20.366a27.687,27.687,0,0,1-5.732,4.744l-1.363-1.462A18.991,18.991,0,0,0,48.6,18.4l1.513,1.387c.177.177.228.252.228.354,0,.3-.631.252-.883.228m12.6,5.024a30.135,30.135,0,0,0-6.036-5.252l1.189-1.312A26.752,26.752,0,0,1,63.318,23.8Z" transform="translate(84.296 6.96)" fill="#1a1311"/></g></g><g transform="translate(1149.262 2533)"><g transform="translate(0 0)" clip-path="url(#b)"><path d="M117.708,135.343,4.444,113.326C14.987,59.092,60.456,20.941,115.693,19.977Z" transform="translate(8.901 40.011)" fill="#e3dead"/><path d="M117.708,135.343,4.444,113.326C14.987,59.092,60.456,20.941,115.693,19.977Z" transform="translate(8.901 40.011)" fill="none" stroke="#fff" stroke-width="0.219"/><path d="M119.074,73.081,3.762,69.054A102.352,102.352,0,0,1,5.81,51.064Z" transform="translate(7.535 102.274)" fill="#ebdabf"/><path d="M119.074,73.081,3.762,69.054A102.352,102.352,0,0,1,5.81,51.064Z" transform="translate(7.535 102.274)" fill="none" stroke="#fff" stroke-width="0.219"/><path d="M119.13,61.082,21.279,122.226C8.481,101.743,2.974,81.192,3.818,57.055Z" transform="translate(7.479 114.273)" fill="#c1cedc"/><path d="M119.13,61.082,21.279,122.226C8.481,101.743,2.974,81.192,3.818,57.055Z" transform="translate(7.479 114.273)" fill="none" stroke="#fff" stroke-width="0.241"/><path d="M107.428,58.4l29.863,111.451C87.372,183.224,36.963,163.366,9.577,119.54Z" transform="translate(19.181 116.958)" fill="#d2dbce"/><path d="M107.428,58.4l29.863,111.451C87.372,183.224,36.963,163.366,9.577,119.54Z" transform="translate(19.181 116.958)" fill="none" stroke="#fff" stroke-width="0.219"/><path d="M42.163,62.424l115.225-6.039c2.88,54.919-32.242,103.256-85.362,117.489Z" transform="translate(84.446 112.931)" fill="#ccc8d7"/><path d="M42.163,62.424l115.225-6.039c2.88,54.919-32.242,103.256-85.362,117.489Z" transform="translate(84.446 112.931)" fill="none" stroke="#fff" stroke-width="0.219"/><path d="M42.163,135.353V19.972A114.706,114.706,0,0,1,157.388,129.315Z" transform="translate(84.446 40.001)" fill="#eac5c7"/><path d="M20.726,41.09a20.2,20.2,0,0,0,6.946-.928l1.039,1.231a4.08,4.08,0,0,1-.832.832A49.811,49.811,0,0,0,23.828,46.6c.571-.132,1.249-.321,1.856-.474,2.309-.625,3.955-1.228,4.808-1.531l.246,1.531a10.951,10.951,0,0,1-1.192.285c-.91.189-2.348,1.61-2.859,2.12-.661.682-2.213,2.213-2.213,4.03,0,1.456,1.342,2.006,2.5,2.2a10.72,10.72,0,0,0,2.177.1v1.513a21.81,21.81,0,0,1-2.384-.228c-1.042-.168-3.576-.775-3.576-3.727,0-2.366,2.2-4.258,3.405-5.3-1.078.342-5.886,1.685-6.868,1.988-.378.114-.682.207-1.42.471l-.529-1.628a15.425,15.425,0,0,0,3.1-.528,2.175,2.175,0,0,0,1.288-.8c1.685-1.835,1.856-2.024,3.462-3.766a3.309,3.309,0,0,0,.778-1.117,37.477,37.477,0,0,1-4.979.835Z" transform="translate(35.599 80.439)" fill="#1a1311"/><path d="M31.736,53.389a8.938,8.938,0,0,0,2.895-1.456,6.219,6.219,0,0,0,2.234-4.714,5.538,5.538,0,0,0-2.991-4.9,6.7,6.7,0,0,0-2.591-.51,23.906,23.906,0,0,1-2.2,8.288c-.793,1.685-1.817,3.333-2.934,3.333-1.589,0-3.234-2.441-3.234-5.186a7.791,7.791,0,0,1,8.006-7.72c3.973,0,7.36,2.5,7.36,6.7,0,5.15-4.579,6.985-5.714,7.438Zm-6.225-8.894A6.227,6.227,0,0,0,24.205,48.2c0,2.024,1.153,3.558,1.913,3.558.4,0,.85,0,2.081-3.027a22.389,22.389,0,0,0,1.628-6.889,6.177,6.177,0,0,0-4.315,2.649" transform="translate(45.905 81.16)" fill="#1a1311"/><path d="M34.565,41.051a21.573,21.573,0,0,1-1.778,3.633l.4.114c.135.036.246.075.246.171s-.225.357-.339.471V57.1H31.709V46.5a17.837,17.837,0,0,1-2.024,2.856l-1.177-.832A27.245,27.245,0,0,0,33.526,39.9l1.246.51c.135.057.342.168.342.282,0,.093-.057.114-.55.36m8.858,15.5H38.141c-1.589,0-1.913-1.192-1.913-2.327V48.486c-.471.153-.547.171-1.628.532l-.453-1.288c.381-.111.685-.189,2.081-.6V42.261l1.288.228c.192.039.339.15.339.264s-.093.171-.3.321v3.651c.321-.093,1.742-.547,2.045-.643.186-.057.246-.075.568-.189v-5.9l1.267.114c.417.039.417.207.417.228,0,.111-.153.282-.3.471v4.636c1.474-.471,2.5-.835,3.159-1.06l1.024.8c-.1,1.4-.417,4.123-.625,5.147-.324,1.607-1.156,1.742-2.177,1.835l-.646-1.42c1,.021,1.4-.018,1.573-1.171a30.631,30.631,0,0,0,.393-3.748c-.889.321-1.282.453-2.7.928v6.3H40.168V47.2c-.285.093-2.252.739-2.612.85v5.982c0,.8.207,1.231,1.57,1.231h3.9c1.249,0,1.721-.21,2.12-2.955l1.228.625c-.393,2.745-1.057,3.615-2.949,3.615" transform="translate(57.097 79.91)" fill="#1a1311"/><path d="M60.73,71.433l1.4.1c.15.018.321.018.321.207,0,.153-.153.264-.4.378v1.249h4.675v4.126H69.7v1.249H62.3A9.2,9.2,0,0,0,66.142,82.3a10.288,10.288,0,0,0,3.516,1.1l-.85,1.5a12,12,0,0,1-7.549-5.45,7.555,7.555,0,0,1-3.123,3.691,13.762,13.762,0,0,1-3.976,1.817L53.235,83.6a11.5,11.5,0,0,0,5.09-2.2,6.078,6.078,0,0,0,1.8-2.667H52.932V77.489h2.706V73.363H60.73Zm2.8.589V70.694H59.043v1.384H57.719V70.694H53.046V69.466h4.672V67.742l1.456.153c.1,0,.285.036.285.168,0,.153-.207.246-.417.342v1.06h4.486V67.649l1.42.132c.171.018.339.039.339.207s-.189.246-.414.342v1.135h4.711v1.228H64.874v1.327Zm-3.066,5.468a15.915,15.915,0,0,0,.267-2.895H56.983v2.895Zm5,0V74.595H62.052a17.844,17.844,0,0,1-.246,2.895Z" transform="translate(106.015 135.491)" fill="#1a1311"/><path d="M59.169,70.569h6.91V71.8h-6.91Zm5.129,13.3V83.1H61.136v.832H59.908V78.122h5.657v5.75ZM59.926,67.957h5.507v1.231H59.926Zm0,5.129h5.507V74.26H59.926Zm0,2.366h5.507v1.174H59.926ZM64.3,79.236H61.136v2.727H64.3Zm1.874-2.895V75.149h2.8l.661-2.573H67.4V71.383h2.537l.607-2.291h-3.73V67.957h8.97v1.135h-3.8l-.6,2.291h3.648l-.15,3.766h1.531v1.192Zm7.837,7.438v-.832H68.934v.889H67.592V77.875h7.7v5.9Zm0-4.732H68.937v2.67h5.072Zm-2.937-6.471-.682,2.573h3.066l.153-2.573Z" transform="translate(118.506 136.108)" fill="#1a1311"/><path d="M80.815,79.355c-.339-.853-.55-1.285-.736-1.667-1.516.057-5.207.228-5.567.228v6.907H73.077V77.974c-3.237.132-4.411.189-6.549.207-.093.171-.246.474-.492.474-.15,0-.186-.132-.225-.4L65.582,76.8c.513.039,1.117.078,2.612.078.811,0,2.213-.021,2.763-.039.207-.171,1.1-.964,1.285-1.135a24.558,24.558,0,0,0-3.748-2.8l.835-1.135c.021.018,1.3.871,1.324.871a19.755,19.755,0,0,0,2.477-2.688c-2.609.132-3.952.171-5.714.132l-.643-1.42c.7.039,1.76.1,3.48.1,5.207,0,7.381-.532,9.123-1.078l1.135,1.249c.1.111.114.168.114.225a.212.212,0,0,1-.207.21,2.519,2.519,0,0,1-.739-.228A36.451,36.451,0,0,1,75.1,69.8c-1.117,1.231-2.309,2.552-3.405,3.576.378.3,1.021.814,1.682,1.4a39.345,39.345,0,0,0,3.54-3.651L78.146,72.2c.078.075.171.15.171.246,0,.15-.189.189-.321.189a3.872,3.872,0,0,1-.4-.018c-.739.643-3.958,3.594-4.618,4.18,2.156-.036,4.333-.093,6.492-.246a10.235,10.235,0,0,0-1.267-1.739l1.135-.778a16.9,16.9,0,0,1,2.706,4.675Zm-9.708.985A20.738,20.738,0,0,1,66.813,83.9l-1.024-1.1a14.222,14.222,0,0,0,4.675-3.937L71.6,79.9c.129.132.168.189.168.264,0,.228-.474.189-.664.171m9.444,3.766a22.621,22.621,0,0,0-4.522-3.937l.889-.985a20.129,20.129,0,0,1,4.579,3.73Z" transform="translate(131.351 135.553)" fill="#1a1311"/><path d="M31.517,88.241c-2.877,1.288-4.693,1.967-6.015,2.441-.078.171-.171.4-.3.4-.153,0-.246-.225-.285-.339L24.4,89.433c.571-.15,1.82-.474,2.976-.853V83.719H25.01V82.431h2.366V78.344H24.856V77.113h6.3v1.231H28.7v4.087h2.459v1.288H28.7v4.408c1.4-.492,2.141-.832,2.859-1.153Zm-.643,4.144V91.154h4.979V88.448H32.5V87.22h3.351V85.043H32.2V76.584h8.669v8.459H37.174V87.22h3.6v1.228h-3.6v2.706h4.732v1.231Zm4.979-14.552H33.526V80.16h2.327Zm0,3.5H33.526v2.48h2.327Zm3.687-3.5H37.174V80.16H39.54Zm0,3.5H37.174v2.48H39.54Z" transform="translate(48.869 153.386)" fill="#1a1311"/><path d="M37.923,77.724a17.157,17.157,0,0,1-2.1.531v3.159h2.462v1.267H35.974a9.488,9.488,0,0,0,2.609,3.5l-.889.985a12.575,12.575,0,0,1-1.874-2.309v8.423H34.481V84.859A16.79,16.79,0,0,1,31.962,89.5l-1.117-.889a14.047,14.047,0,0,0,3.048-5.925H30.884V81.415h3.6V78.5a20.73,20.73,0,0,1-2.9.321l-.739-1.381a16.546,16.546,0,0,0,6.642-.928l1.042.889c.075.057.132.114.132.171,0,.246-.571.171-.739.15m7.4,9.1v6.414H43.94V87.282l-4.748,1.456-.477-1.267L43.94,85.9V76.382l1.552.15c.075,0,.357.039.357.189,0,.21-.264.321-.529.435v8.291l2.727-.892.378,1.231Zm-3.877-1.913a12.935,12.935,0,0,0-2.237-1.988l.757-.982a12.187,12.187,0,0,1,2.366,1.967Zm.189-3.709a12.509,12.509,0,0,0-2.18-1.913l.853-1.039a10.981,10.981,0,0,1,2.252,1.931Z" transform="translate(61.778 152.982)" fill="#1a1311"/><path d="M52.441,88.026c-.339-.853-.55-1.285-.736-1.664-1.516.054-5.207.225-5.567.225v6.907H44.7V86.645c-3.237.132-4.411.189-6.549.207-.093.171-.246.474-.492.474-.15,0-.186-.132-.225-.4l-.228-1.459c.513.039,1.117.078,2.612.078.811,0,2.213-.021,2.763-.039.207-.171,1.1-.967,1.285-1.135a24.556,24.556,0,0,0-3.748-2.8l.835-1.135c.021.018,1.3.871,1.324.871a19.753,19.753,0,0,0,2.477-2.688c-2.609.132-3.952.171-5.714.132l-.643-1.42c.7.039,1.76.1,3.48.1,5.207,0,7.381-.532,9.123-1.078L52.138,77.6c.1.111.114.168.114.225a.212.212,0,0,1-.207.21,2.52,2.52,0,0,1-.739-.228,36.451,36.451,0,0,1-4.579.664c-1.117,1.228-2.309,2.552-3.405,3.576.378.3,1.021.814,1.682,1.4a39.342,39.342,0,0,0,3.54-3.651l1.228,1.078c.078.075.171.15.171.246,0,.15-.189.189-.321.189a3.874,3.874,0,0,1-.4-.018c-.739.643-3.958,3.594-4.618,4.18,2.156-.036,4.333-.093,6.492-.246a10.237,10.237,0,0,0-1.267-1.739l1.135-.778a16.9,16.9,0,0,1,2.706,4.675Zm-9.708.985a20.738,20.738,0,0,1-4.294,3.558l-1.024-1.1a14.223,14.223,0,0,0,4.675-3.937l1.138,1.042c.129.132.168.189.168.264,0,.228-.474.189-.664.171m9.444,3.766a22.621,22.621,0,0,0-4.522-3.937l.889-.985a20.129,20.129,0,0,1,4.579,3.73Z" transform="translate(74.522 152.919)" fill="#1a1311"/><path d="M56.582,44.352a9.543,9.543,0,0,0,1.778,1.685l-.889.928a8.849,8.849,0,0,1-1.874-2.12V47.8H54.311V44.788A19.963,19.963,0,0,1,50.621,48l-.946-.889a12.45,12.45,0,0,0,3.405-2.763H50.167V43.178h4.144V39.923l1.3.135c.36.036.474.243.474.321,0,.132-.282.321-.492.453v2.345h3.6v1.174Zm-5.564,9.027a16.039,16.039,0,0,0,1.513-2.12H50.167V50.124H53.23a16.453,16.453,0,0,0,.985-2.081l1.231.757c.168.1.282.171.282.3,0,.171-.264.228-.643.282-.228.4-.246.435-.435.739h4.976v1.135H58.359A12.364,12.364,0,0,1,56.846,53.8a12.062,12.062,0,0,1,1.76,1.153l-.889.985a14.141,14.141,0,0,0-1.778-1.192,10.082,10.082,0,0,1-1.952,1.21,11.3,11.3,0,0,1-2.778.814l-.892-1.228a9.041,9.041,0,0,0,4.447-1.42,14.78,14.78,0,0,0-2.1-.8c-.228.3-.36.474-.625.8Zm1.024-13.267a9.607,9.607,0,0,1,1.871,1.817l-.832.8a12.842,12.842,0,0,0-1.817-1.778Zm2.024,11.147c-.378.625-.435.721-.757,1.174a20.573,20.573,0,0,1,2.384.832,6.976,6.976,0,0,0,1.228-2.006Zm2.06-9.366a9.857,9.857,0,0,0,1.742-1.97l.8.76c.114.111.207.189.207.282,0,.171-.246.189-.357.207a10.057,10.057,0,0,1-1.5,1.5ZM66.536,56.616a9.259,9.259,0,0,1-3.654-2.952,11.151,11.151,0,0,1-3.441,3.312l-1.288-.892a10.974,10.974,0,0,0,3.994-3.651,17.858,17.858,0,0,1-1.628-6.546l1.228-.21a20.24,20.24,0,0,0,1.135,5.282,19.484,19.484,0,0,0,1.042-6.114H60.858A15.669,15.669,0,0,1,59,48.193L57.867,47.4A19.6,19.6,0,0,0,61.1,39.812l1.4.547c.153.078.3.189.3.342s-.171.189-.528.3c-.153.4-.778,2.2-.928,2.552h5.372v1.288H65.266c-.3,3.405-.547,5.222-1.682,7.588a8.163,8.163,0,0,0,3.841,3.009Z" transform="translate(99.491 79.738)" fill="#1a1311"/><path d="M65.171,52.1v2.913c0,1.5-.432,2.045-2.856,2.027l-.7-1.513c.6.039.964.039,1.189.039.492,0,.892-.021.892-.646V52.1H56.012V50.871H63.7V49.165l1.174.1a18.789,18.789,0,0,0,2.117-1.531H59.645V46.555h9.519l.435.832C67.576,48.9,65.888,50,65.171,50.453v.417h7.837V52.1Zm6.1-4.408V44.928H57.736v2.856H56.354V43.736h16.29v3.955Zm-11.132-4.24a12.035,12.035,0,0,0-2.06-2.213l.985-.853A10.885,10.885,0,0,1,61.177,42.6Zm4.243-.339a10.906,10.906,0,0,0-2.027-2.727l1.117-.661a11.155,11.155,0,0,1,2.063,2.63ZM70.2,41.237a13.822,13.822,0,0,1-1.931,2.177l-.982-.835a10.811,10.811,0,0,0,2.27-2.856L70.7,40.763c.1.114.153.189.153.267,0,.207-.3.207-.646.207" transform="translate(112.183 79.561)" fill="#1a1311"/><path d="M77.64,51.475c-.339-.853-.55-1.285-.736-1.667-1.516.057-5.207.228-5.567.228v6.907H69.9V50.094c-3.237.132-4.411.189-6.549.207-.093.171-.246.474-.492.474-.15,0-.186-.132-.225-.4l-.228-1.459c.513.039,1.117.078,2.612.078.811,0,2.213-.021,2.763-.039.207-.171,1.1-.964,1.285-1.135a24.556,24.556,0,0,0-3.748-2.8l.835-1.135c.021.018,1.3.871,1.324.871a19.755,19.755,0,0,0,2.477-2.688c-2.609.132-3.952.171-5.714.132l-.643-1.42c.7.039,1.76.1,3.48.1,5.207,0,7.381-.532,9.123-1.078l1.135,1.249c.1.111.114.168.114.225a.212.212,0,0,1-.207.21,2.519,2.519,0,0,1-.739-.228,36.45,36.45,0,0,1-4.579.664c-1.117,1.231-2.309,2.552-3.405,3.576.378.3,1.021.814,1.682,1.4a39.341,39.341,0,0,0,3.54-3.651l1.228,1.078c.078.075.171.15.171.246,0,.15-.189.189-.321.189a3.871,3.871,0,0,1-.4-.018c-.739.643-3.958,3.594-4.618,4.18,2.156-.036,4.333-.093,6.492-.246a10.235,10.235,0,0,0-1.267-1.739l1.135-.778a16.9,16.9,0,0,1,2.706,4.675Zm-9.708.985a20.737,20.737,0,0,1-4.294,3.558l-1.024-1.1a14.222,14.222,0,0,0,4.675-3.937l1.138,1.042c.129.132.168.189.168.264,0,.228-.474.189-.664.171m9.444,3.766a22.621,22.621,0,0,0-4.522-3.937l.889-.985a20.129,20.129,0,0,1,4.579,3.73Z" transform="translate(124.992 79.714)" fill="#1a1311"/><path d="M8.108,60.486a14.275,14.275,0,0,1-2.555,2.063L4.36,61.663a17.135,17.135,0,0,0,5.829-5.624H5.06V54.811H8.108V51.024l1.324.075c.132.021.453.042.453.228,0,.117-.036.15-.4.438v3.045h2.12l.432.492a14.55,14.55,0,0,1-2.156,3.309,10.383,10.383,0,0,0,2.952,2.309l-.928.946a8.453,8.453,0,0,1-2.42-1.988v7.988H8.108Zm8.477-9.462,1.381.135c.153.021.4.057.4.21s-.111.243-.4.471v4.844h3.309v1.288H17.966v7.585H21.9v1.288H12.1V65.558h4.486V57.973H12.99V56.684h3.594Z" transform="translate(8.732 102.193)" fill="#1a1311"/><path d="M27.476,58.33a17.756,17.756,0,0,1-4.808-2.649,14.947,14.947,0,0,1-2.97-3.123,19.634,19.634,0,0,1-7.949,6.075L10.729,57.4a15.083,15.083,0,0,0,8.327-6.51l1.435.492c.228.075.417.153.417.342a.663.663,0,0,1-.075.246c1.078,1.874,3.8,3.859,7.627,5.129Zm-8.216,3.9c-1.189,2.1-1.928,3.294-2.384,3.994,1.727-.21,3.654-.417,5.3-.643.513-.078.871-.135,1.21-.189-.889-1.21-1.114-1.5-1.567-2.024l1.171-.646a20.272,20.272,0,0,1,3.405,4.826l-1.282.682c-.817-1.42-.871-1.5-1.081-1.853-2.42.45-5.2.943-10.066,1.531-.114.189-.285.435-.4.435-.171,0-.246-.228-.285-.36l-.339-1.42c.607,0,.985-.036,2.306-.15a30.919,30.919,0,0,0,2.33-4.183H11.9V60.885H27.683v1.342Zm-3.706-5.072h8.27v1.267h-8.27Z" transform="translate(21.489 101.929)" fill="#1a1311"/><path d="M32.488,62.649c-.339-.853-.55-1.285-.736-1.667-1.516.057-5.207.228-5.567.228v6.907H24.75V61.268c-3.237.132-4.411.189-6.549.207-.093.171-.246.474-.492.474-.15,0-.186-.132-.225-.4l-.228-1.459c.513.039,1.117.078,2.612.078.811,0,2.213-.021,2.763-.039.207-.171,1.1-.964,1.285-1.135a24.556,24.556,0,0,0-3.748-2.8L21,55.061c.021.018,1.3.871,1.324.871A19.752,19.752,0,0,0,24.8,53.244c-2.609.132-3.952.171-5.714.132l-.643-1.42c.7.039,1.76.1,3.48.1,5.207,0,7.381-.532,9.123-1.078l1.135,1.249c.1.111.114.168.114.225a.212.212,0,0,1-.207.21,2.519,2.519,0,0,1-.739-.228,36.451,36.451,0,0,1-4.579.664c-1.117,1.231-2.309,2.552-3.405,3.576.378.3,1.021.814,1.682,1.4a39.341,39.341,0,0,0,3.54-3.651L29.819,55.5c.078.075.171.15.171.246,0,.15-.189.189-.321.189a3.872,3.872,0,0,1-.4-.018c-.739.643-3.958,3.594-4.618,4.18,2.156-.036,4.333-.093,6.492-.246a10.236,10.236,0,0,0-1.267-1.739l1.135-.778a16.9,16.9,0,0,1,2.706,4.675Zm-9.708.985a20.737,20.737,0,0,1-4.294,3.558l-1.024-1.1a14.223,14.223,0,0,0,4.675-3.937L23.276,63.2c.129.132.168.189.168.264,0,.228-.474.189-.664.171M32.224,67.4A22.621,22.621,0,0,0,27.7,63.463l.889-.985a20.128,20.128,0,0,1,4.579,3.73Z" transform="translate(34.559 102.093)" fill="#1a1311"/><path d="M21.768,79.138V78.5H9.357v.643H7.976V63.262H23.149V79.138Zm0-14.588H9.354V77.171H21.768ZM10.342,75.315V74.087h4.636V71.229H11.663V70.036h3.315V67.481H10.985V66.289h9.309v1.192H16.3v2.555h3.162v1.192H16.3v2.859h4.429v1.228Zm7.985-1.531a6.4,6.4,0,0,0-1.192-1.628l.946-.775a7.106,7.106,0,0,1,1.249,1.607Z" transform="translate(15.975 126.704)" fill="#1a1311"/><path d="M13.947,65.874h6.91v1.231h-6.91Zm5.129,13.3V78.4H15.914v.832H14.686V73.427h5.657v5.75ZM14.7,63.262h5.507v1.231H14.7Zm0,5.129h5.507v1.174H14.7Zm0,2.366h5.507v1.174H14.7Zm4.372,3.784H15.914v2.727h3.162Zm1.874-2.895V70.454h2.8l.661-2.573H22.178V66.688h2.537l.607-2.291h-3.73V63.262h8.969V64.4h-3.8l-.6,2.291h3.648l-.15,3.766h1.531v1.192Zm7.837,7.438v-.832H23.712v.889H22.37V73.18h7.7v5.9Zm0-4.732H23.715v2.67h5.072ZM25.85,67.88l-.682,2.573h3.066l.153-2.573Z" transform="translate(27.934 126.704)" fill="#1a1311"/><path d="M35.594,74.66c-.339-.853-.55-1.285-.736-1.667-1.516.057-5.207.228-5.567.228v6.907H27.856V73.279c-3.237.132-4.411.189-6.549.207-.093.171-.246.474-.492.474-.15,0-.186-.132-.225-.4L20.361,72.1c.513.039,1.117.078,2.612.078.811,0,2.213-.021,2.763-.039.207-.171,1.1-.964,1.285-1.135a24.556,24.556,0,0,0-3.748-2.8l.835-1.135c.021.018,1.3.871,1.324.871a19.754,19.754,0,0,0,2.477-2.688c-2.609.132-3.952.171-5.714.132l-.643-1.42c.7.039,1.76.1,3.48.1,5.207,0,7.381-.532,9.123-1.078l1.135,1.249c.1.111.114.168.114.225a.212.212,0,0,1-.207.21,2.519,2.519,0,0,1-.739-.228,36.451,36.451,0,0,1-4.579.664c-1.117,1.231-2.309,2.552-3.405,3.576.378.3,1.021.814,1.682,1.4a39.344,39.344,0,0,0,3.54-3.651l1.228,1.078c.078.075.171.15.171.246,0,.15-.189.189-.321.189a3.872,3.872,0,0,1-.4-.018c-.739.643-3.958,3.594-4.618,4.18,2.156-.036,4.333-.093,6.492-.246a10.236,10.236,0,0,0-1.267-1.739l1.135-.778a16.9,16.9,0,0,1,2.706,4.675Zm-9.708.985A20.737,20.737,0,0,1,21.592,79.2l-1.024-1.1a14.222,14.222,0,0,0,4.675-3.937l1.138,1.042c.129.132.168.189.168.264,0,.228-.474.189-.664.171m9.444,3.766a22.621,22.621,0,0,0-4.522-3.937l.889-.985a20.128,20.128,0,0,1,4.579,3.73Z" transform="translate(40.78 126.149)" fill="#1a1311"/><rect width="250.738" height="40.812" transform="translate(0 0)" fill="#90c9c5"/><path d="M42.479,19.338c-3.844,1.718-6.264,2.627-8.03,3.258-.105.228-.228.528-.405.528-.2,0-.327-.3-.381-.453l-.682-1.742c.757-.2,2.423-.631,3.967-1.135V13.305H33.792V11.587h3.156V6.134h-3.36V4.495H42v1.64H38.713v5.453H42v1.718H38.713v5.883c1.871-.658,2.856-1.111,3.811-1.54Zm-.865,5.531V23.226h6.639V19.617H43.785V17.974h4.468v-2.9H43.386V3.786H54.947V15.074H50.025v2.9h4.8v1.643h-4.8v3.609h6.312v1.643ZM48.253,5.453h-3.1v3.1h3.1Zm0,4.672h-3.1v3.306h3.1Zm4.928-4.672H50.025v3.1h3.156Zm0,4.672H50.025v3.306h3.156Z" transform="translate(66.056 7.583)" fill="#1a1311"/><path d="M62.554,19.054c-.45-1.138-.733-1.718-.985-2.222-2.018.075-6.937.3-7.42.3v9.216H52.233V17.21c-4.318.174-5.883.252-8.738.276-.123.228-.33.634-.658.634-.2,0-.252-.177-.3-.532l-.3-1.946c.679.051,1.489.1,3.483.1,1.084,0,2.955-.024,3.688-.051.276-.225,1.462-1.288,1.715-1.513a32.941,32.941,0,0,0-5-3.739l1.108-1.513c.027.024,1.742,1.162,1.772,1.162A26.561,26.561,0,0,0,52.309,6.5c-3.483.177-5.279.228-7.624.177l-.862-1.895c.937.051,2.351.126,4.645.126,6.943,0,9.846-.706,12.171-1.438l1.51,1.667c.129.153.153.228.153.3a.279.279,0,0,1-.276.276,3.444,3.444,0,0,1-.985-.3A47.95,47.95,0,0,1,54.93,6.3c-1.489,1.64-3.078,3.408-4.546,4.772.51.4,1.369,1.084,2.252,1.868a52.419,52.419,0,0,0,4.723-4.874L59,9.508c.105.1.228.2.228.33,0,.2-.252.252-.429.252a4.585,4.585,0,0,1-.528-.027c-.985.859-5.276,4.8-6.162,5.579,2.88-.048,5.783-.126,8.66-.327a13.518,13.518,0,0,0-1.694-2.321l1.519-1.036A22.361,22.361,0,0,1,64.2,18.195ZM49.606,20.366a27.609,27.609,0,0,1-5.732,4.744l-1.366-1.462A19.009,19.009,0,0,0,48.75,18.4l1.51,1.387c.177.177.231.252.231.354,0,.3-.634.252-.886.228M62.2,25.39a30.135,30.135,0,0,0-6.036-5.252l1.192-1.312a26.8,26.8,0,0,1,6.1,4.973Z" transform="translate(84.588 6.96)" fill="#1a1311"/></g></g></g></svg>