<svg xmlns="http://www.w3.org/2000/svg" xmlns:xlink="http://www.w3.org/1999/xlink" width="1200" height="271.742" viewBox="0 0 1200 271.742"><defs><clipPath id="a"><rect width="1200" height="271.742" fill="none"/></clipPath></defs><rect width="172.126" height="264.592" transform="translate(0 3.804)" fill="#d7ecea"/><rect width="26.855" height="2.456" transform="translate(21.029 107.343)" fill="#00857b"/><g transform="translate(0 0)"><g clip-path="url(#a)"><path d="M20.021,44.7c0,3.906,3.216,4.222,8.794,4.222,4.663,0,9.362-.217,14.025-.438l-.914,2.456H30.454c-5.861,0-7.753-.315-9.456-1.2a4.379,4.379,0,0,1-2.046-2.014,33.337,33.337,0,0,1-3.28,2.519c-.032.256-.095.82-.473.82-.252,0-.378-.217-.5-.473l-1.072-1.951c1.577-.788,2.712-1.419,4.194-2.3V38.113H13.879V36.067h6.141ZM16.745,24.593a48.788,48.788,0,0,1,3.843,6.145l-2.05,1.234a48.994,48.994,0,0,0-3.78-6.244Zm9.33,1.636c.059,3,.059,3.6.059,4.6,0,10.02-.911,12.322-3.086,16.327l-1.955-1.226c2.586-4,2.964-7.564,2.964-13.934,0-3.717-.158-6.24-.284-7.75H40.38v19.7c0,3.055-.126,3.433-4.6,3.528l-.82-2.3a16.886,16.886,0,0,0,1.924.126c1.356,0,1.356-.347,1.356-1.64V26.229Zm5.01.82,2.235.13c.378.032.477.126.477.284,0,.248-.158.347-.568.536v1.6h3.433v1.829H33.229v2.361H37.64v1.829H26.706V33.793h4.379V31.432H27.648V29.6h3.437Zm-3.28,10.529h8.7v6.4H29.792v1.3H27.806Zm6.748,1.8H29.792v2.8h4.762Z" transform="translate(40.076 71.338)" fill="#00857b"/><path d="M34.283,24.217v9.929h-9.61v17.62H22.466V24.217Zm-2.2,1.892H24.673v2.176H32.08Zm0,3.906H24.673v2.27H32.08Zm-.5,18.913H29.431V37.111H41.6V47.288H31.575ZM39.392,39H31.575v2.144h7.817Zm0,4.036H31.575V45.4h7.817Zm3.686,6.271c.536.028,1.041.095,1.667.095,1.167,0,1.612-.225,1.612-1.009V34.146H36.649V24.217H48.561v23.86c0,2.96-.248,3.465-4.348,3.591Zm3.28-23.2H38.793v2.176h7.564Zm0,3.906H38.793v2.27h7.564Z" transform="translate(66.09 71.241)" fill="#00857b"/><path d="M45.378,46.12A14.912,14.912,0,0,0,50.2,43.7a10.368,10.368,0,0,0,3.721-7.852,9.216,9.216,0,0,0-4.982-8.159,11.121,11.121,0,0,0-4.32-.851,39.814,39.814,0,0,1-3.646,13.8c-1.328,2.8-3.031,5.546-4.9,5.546-2.637,0-5.384-4.064-5.384-8.636A12.98,12.98,0,0,1,44.022,24.689c6.618,0,12.259,4.163,12.259,11.155,0,8.573-7.623,11.632-9.519,12.389ZM35.011,31.307a10.364,10.364,0,0,0-2.176,6.177c0,3.374,1.924,5.924,3.181,5.924.662,0,1.423,0,3.473-5.042A37.531,37.531,0,0,0,42.2,26.9a10.262,10.262,0,0,0-7.186,4.411" transform="translate(90.286 72.63)" fill="#00857b"/><path d="M18.6,42.975v-7l2.456.284c.189.032.82.091.82.441,0,.252-.284.41-.82.725v5.546H31.3v2.207H21.057v6.555h9.173v2.235H21.057v7.316H33.6v2.2H5.455v-2.2H18.6V53.972H9.807V51.737H18.6V45.182H10.627a19.224,19.224,0,0,1-3.374,5.262l-2.046-1.23A25.734,25.734,0,0,0,10.627,37.4l2.519.662c.225.063.694.189.694.536,0,.374-.6.532-1.1.662a32.2,32.2,0,0,1-1.2,3.717Z" transform="translate(15.318 105.839)" fill="#00857b"/><path d="M18.38,50.2a38.677,38.677,0,0,0-4.667-2.87l1.324-2.081a29.676,29.676,0,0,1,4.6,2.9Zm-.221,13.079a3.019,3.019,0,0,1,.252.784.281.281,0,0,1-.288.256,1.7,1.7,0,0,1-.721-.256L15.2,62.832A55.444,55.444,0,0,0,20.584,50.7l1.829,1.7c-1.324,3.689-2.775,7.28-4.253,10.875m2.14-21.94a31.194,31.194,0,0,0-4.474-2.96l1.324-1.955a21.879,21.879,0,0,1,4.442,3.09Zm13.02,5.42v5.582h6.9V64.184H37.856v-1.92H26.638v1.983h-2.3V52.335H30.86V46.754H22.038V44.519H30.86V39.694c-3.374.319-5.1.382-6.843.414l-.974-2.3c.725.063,1.451.095,2.645.095a53.835,53.835,0,0,0,9.3-.883,36.33,36.33,0,0,0,4.064-1.041L40.5,37.648a.887.887,0,0,1,.256.5c0,.221-.13.315-.347.315a1.778,1.778,0,0,1-.761-.221,59.22,59.22,0,0,1-6.33,1.131v5.14h8.948v2.235Zm4.537,7.537H26.634v5.924H37.856Z" transform="translate(40.341 105.836)" fill="#00857b"/><path d="M22.505,38.79h8.353V59.4h-2.2v-2.05H24.716v3.942H22.505Zm6.149,1.987H24.716v6.271h3.938Zm0,8.223H24.716v6.366h3.938Zm11.5-12.917,2.27.122c.221,0,.6.035.6.315,0,.158-.122.284-.564.568v3.118h5.483v2.117H42.458v3.717h7.375v2.046h-17.4V46.039h7.722V42.322H34.579V40.205h5.578Zm-7.47,16.1H43.278V48.81l2.046.252c.5.063.725.095.725.347,0,.189-.063.221-.568.568v2.2h4.1v2.054h-4.1v7.15c0,1.356-.315,2.117-1.51,2.334a31.562,31.562,0,0,1-3.406.126l-.914-2.55c1.1.122,1.8.158,2.113.158,1.514,0,1.514-.5,1.514-1.388v-5.83H32.687Zm3.343,3.532a13.88,13.88,0,0,1,2.708,4.163l-1.888,1.167a14.325,14.325,0,0,0-2.617-4.194Z" transform="translate(66.205 106.145)" fill="#00857b"/><path d="M42.835,36.217v9.929H33.221v17.62H31.014V36.217Zm-2.207,1.892H33.217v2.176h7.411Zm0,3.906H33.217v2.27h7.411Zm-.5,18.913H37.983V49.111H50.147V59.288H40.127ZM47.94,51H40.127v2.144H47.94Zm0,4.036H40.127V57.4H47.94Zm3.686,6.271c.536.028,1.041.095,1.671.095,1.167,0,1.608-.225,1.608-1.009V46.146H45.2V36.217H57.113v23.86c0,2.96-.252,3.465-4.348,3.591Zm3.28-23.2H47.341v2.176h7.564Zm0,3.906H47.341v2.27h7.564Z" transform="translate(91.236 106.542)" fill="#00857b"/><path d="M263.665,6.185a24.972,24.972,0,0,1-3.4,5.16,13.088,13.088,0,0,0,3.591,3.4l-1.3,1.49a14.809,14.809,0,0,1-3.284-3.146V24.928h-1.959V14.6a22.362,22.362,0,0,1-4.088,3.284l-1.214-1.573a27.918,27.918,0,0,0,8.916-9.192h-8.033V5.247h4.58V0l2.073.166c.331.028.524.055.524.248,0,.248-.248.359-.607.524V5.247h3.481Zm5.518,17.888c-2.156,0-2.515-.855-2.515-2.318V.221l2.073.221c.193.028.548.083.548.3s-.355.386-.607.469V20.927c0,1.3.39,1.352,1.462,1.352h2.263c1.939,0,2.188-.966,2.519-3.725l2.093.993c-.576,3.008-1.238,4.525-3.67,4.525Z" transform="translate(741.355 0)" fill="#1a1311"/><path d="M265.834,7.875V12.4a25.012,25.012,0,0,0,2.594-1.794l.28,2.073c-.717.552-1.324.993-2.874,2.014v7.178c0,1.711-.166,2.732-2.262,2.732-.855,0-1.656-.083-2.18-.11l-.221-2.152a10.733,10.733,0,0,0,1.9.359c.741,0,.741-.441.741-1.076V15.853c-.993.607-1.652.993-2.286,1.352-.114.441-.193.717-.445.717-.079,0-.221-.083-.355-.276l-1.3-1.876a27.563,27.563,0,0,0,4.387-2.156V7.875h-3.5V5.944h3.5V.035l2.05.331c.331.055.686.11.686.331,0,.248-.276.386-.717.579V5.944h3.094V7.875Zm12.507,9.992V24.8h-2.014v-6.93h-6.543V15.991h6.543V12.869h-5.3V10.993h5.3V7.9h-5.3V6.027h5.3V2.9h-5.656V1.111h13.5V2.9h-5.826V6.027h5.605V7.9h-5.605v3.09h5.605v1.876h-5.605v3.122h6.405v1.876Z" transform="translate(763.183 0.103)" fill="#1a1311"/><path d="M272.565,5.025a2.472,2.472,0,1,1-2.483-2.483,2.488,2.488,0,0,1,2.483,2.483" transform="translate(787.285 7.478)" fill="#1a1311"/><path d="M278.007,4.567V7.275h4.442v9.5h-4.442v2.322h5.1V20.8h-5.1v4.084h-1.931V20.8h-5.329V19.092h5.329V16.771h-4.695v-9.5h4.695V4.567h-5.444V2.856h5.444V.014L278.09.1c.359.028.635.083.635.3,0,.3-.524.524-.717.607V2.856h5.546V4.567ZM280.6,8.93h-7.344V11.2H280.6Zm0,3.839h-7.344v2.345H280.6Zm9.141,11.758-.887-2.152c.635.055,2.318.166,2.846.166s.828-.083.828-1.076V15.308h-5.692a25.408,25.408,0,0,1-2.732,9.523l-1.849-1.076c2.4-3.7,2.874-7.619,2.874-14.356,0-2.014-.087-6.654-.138-8.7h9.468V22.155c0,2.014-.165,2.483-4.718,2.373M292.529,2.58h-5.522c0,.717.055,3.812.055,4.446h5.467Zm0,6.323h-5.467v4.525h5.467Z" transform="translate(796.14 0.041)" fill="#1a1311"/><path d="M290.215,9.84c-.193,2.483-.41,5.049-2.18,7.73a11.639,11.639,0,0,1-5.794,4.415l-1.931-1.738a9.51,9.51,0,0,0,5.656-3.753,11.158,11.158,0,0,0,1.963-6.654h-10V7.822h21.282V9.84Zm5.2-7.21H281.665V.616H295.41Z" transform="translate(817.615 1.812)" fill="#1a1311"/><path d="M302.757,2.557c-1.222.8-1.273.855-1.6,1.3a36.544,36.544,0,0,1-3.867,6.677,39.214,39.214,0,0,1,7.486,7.923l-1.88,1.577a22.185,22.185,0,0,0-3.532-4.722,27.658,27.658,0,0,0-3.37-3.039,26.174,26.174,0,0,1-10.071,7.182L284.258,17.6a20.911,20.911,0,0,0,8.865-5.357,23.39,23.39,0,0,0,5.818-8.971h-11.51V1.342h12.283a2.546,2.546,0,0,0,1.3-.579Z" transform="translate(836.224 2.245)" fill="#1a1311"/><path d="M292.982,7.8a32.864,32.864,0,0,1,9.054,5.384l-1.348,1.931a30.576,30.576,0,0,0-3.788-2.9,22.8,22.8,0,0,0-4.718-2.483V22.017H289.97V.455l2.1.11c.138,0,.769.028.769.386,0,.166-.225.3-.662.607V9.371Z" transform="translate(853.028 1.338)" fill="#1a1311"/><path d="M257.71,21.966c1.439-.883,1.738-1.049,2.594-1.656l.083,2.152c-.907.552-2.148,1.324-2.677,1.656v7.868c0,2.239-1.573,2.263-2.676,2.263-.552,0-1.052-.024-1.715-.083l-.575-2.065a21.919,21.919,0,0,0,2.211.217c.82,0,.82-.386.82-.966V25.332c-.714.445-1.872,1.131-2.125,1.3-.138.552-.162.611-.355.611-.166,0-.307-.225-.359-.359l-.966-1.963a30.174,30.174,0,0,0,3.8-1.876V17.161h-3.307V15.423h3.307V9.569l2.156.166c.386.028.579.2.579.3,0,.166-.221.331-.8.717v4.667h2.677v1.738H257.71Zm17.474-2.152H263.04v3.5h-1.876V18.154h15.9v4.888h-1.88Zm-12.01,2.87h11.073l.662.993a15.574,15.574,0,0,1-4.025,5.909,19.408,19.408,0,0,0,6.543,2.29l-1.25,1.738a21.039,21.039,0,0,1-6.815-2.732,22.337,22.337,0,0,1-6.819,2.952L261.3,32.183a18.17,18.17,0,0,0,6.539-2.515,15.237,15.237,0,0,1-2.925-4.253l1.659-.662a10.5,10.5,0,0,0,2.787,3.757,11.135,11.135,0,0,0,3.228-4.115h-9.417Zm-1.707-11.735c.745.055,1.825.166,3.311.166a26.748,26.748,0,0,0,9.555-1.6l1.49,1.384c.055.051.248.248.248.382,0,.166-.193.221-.3.221a3.084,3.084,0,0,1-.883-.138,44.245,44.245,0,0,1-12.645,1.384Zm1.494,2.377a15.18,15.18,0,0,1,2.732,3.035l-1.439,1.076a19.1,19.1,0,0,0-2.649-2.87Zm4.967-.193a10.874,10.874,0,0,1,2.456,3.228l-1.518.938a17.092,17.092,0,0,0-2.239-3.09Zm3.532,3.449a14.1,14.1,0,0,0,2.925-4.029l1.715,1.159c.11.083.3.221.3.386,0,.3-.363.276-.749.248a13.627,13.627,0,0,1-2.7,3.311Z" transform="translate(741.243 27.988)" fill="#1a1311"/><path d="M276.8,16.464l.493.359c.11.083.307.221.307.386,0,.276-.331.221-.583.193a6.448,6.448,0,0,1-.934,1.435H281.6V20.41h-8.786v1.77h8.424v1.656h-8.424v1.821h10.935v1.656H274.7a17.485,17.485,0,0,0,8.447,4.446l-1.6,1.821a23.359,23.359,0,0,1-8.727-5.605v6.488h-1.987V28.029a29.206,29.206,0,0,1-8.912,5.909l-1.246-1.794a22.933,22.933,0,0,0,8.282-4.833h-8.889V25.656h10.765V23.835H261.97V22.179h8.861V20.41h-9.275V18.837h5.522a7.275,7.275,0,0,0-1.242-1.766l.8-.607h-7.012V14.8h8.837V9.479l1.821.11c.331.028.548.166.548.3s-.217.331-.52.524V14.8h2.838V9.562l1.825.11c.386.028.524.166.524.248,0,.138-.221.331-.438.524V14.8h9v1.659Zm-11.431-2.1a11.56,11.56,0,0,0-2.456-3.449l1.462-.993a11.541,11.541,0,0,1,2.7,3.366Zm2.345,2.1a6.774,6.774,0,0,1,1.242,1.711l-1.1.662H275l-.8-.662a7.3,7.3,0,0,0,1.19-1.711Zm12.066-5.191a15.9,15.9,0,0,1-2.566,3.039l-1.3-1.3a19.121,19.121,0,0,0,2.9-3.311l1.3.828c.193.138.438.276.438.5,0,.3-.493.276-.769.248" transform="translate(763.76 27.885)" fill="#1a1311"/><path d="M268.359,24.376a4.432,4.432,0,0,0,1.076-.138l1.214,1.573a3.346,3.346,0,0,0-1.352,1.656c-2.239,5.992-3.705,8.589-6.874,11.707a22.746,22.746,0,0,1-5.578,4.032l-2.014-1.659a20.948,20.948,0,0,0,8.227-6.378,20.582,20.582,0,0,0,4.139-8.944H259a30,30,0,0,1-5.467,5.909l-1.794-1.352a21.705,21.705,0,0,0,5.053-5.081,17.191,17.191,0,0,0,2.515-4.86l2.125.777c.41.138.548.386.548.52,0,.221-.386.28-.879.363-.469.993-.638,1.324-.938,1.876Zm-.717-4.888a25.392,25.392,0,0,1,2.207,2.649l-1.439,1.08a10.571,10.571,0,0,0-2.207-2.653Zm3.449-.579a22.838,22.838,0,0,1,2.231,2.649l-1.376,1.08a10.386,10.386,0,0,0-2.156-2.653Z" transform="translate(740.552 55.626)" fill="#1a1311"/><path d="M260.159,35.893V37.77H258v-17.7h18.278v17.7H274.1V35.893ZM274.1,22.034H260.159V33.958H274.1Z" transform="translate(758.988 59.044)" fill="#1a1311"/><rect width="19.989" height="2.014" transform="translate(1039.652 87.042)" fill="#1a1311"/><path d="M278.537,25.348a41.6,41.6,0,0,0,.272-6.019l2.653.331c.193.028.442.055.442.276,0,.11,0,.248-.8.635a31.4,31.4,0,0,1-.355,4.777h8.337a54.444,54.444,0,0,1-1.269,9.716c-.166.717-.883,3.753-2.322,4.915-.883.745-1.9.828-4.249.993l-.717-2.373a8.478,8.478,0,0,0,1.707.134c1.324,0,2.542,0,3.536-3.891a31,31,0,0,0,1.025-7.537h-6.323a27.017,27.017,0,0,1-3.094,8.254,13.882,13.882,0,0,1-5.964,5.688l-1.738-1.711a12.137,12.137,0,0,0,5.3-4.446,21.328,21.328,0,0,0,3.173-7.785h-7.813V25.348Z" transform="translate(793.316 56.862)" fill="#1a1311"/><path d="M275.534,36.9c2.791-1.545,5.968-3.5,5.968-12.172,0-1.683-.087-3.315-.138-4.364l2.263.193c.107.028.607.055.607.331,0,.138-.055.193-.579.579.055,5.164-.083,6.736-.528,8.668-1.155,5.053-3.394,6.681-5.8,8.4Zm12.511-17.115,2.207.166c.272.028.524.11.524.276s-.083.221-.666.579V34.94a16.927,16.927,0,0,0,4.667-3.532,18.248,18.248,0,0,0,3.177-4.088l1.435,1.659a22.687,22.687,0,0,1-4.5,5.187,26.873,26.873,0,0,1-5.55,3.812l-1.293-1.025Z" transform="translate(810.56 58.2)" fill="#1a1311"/><path d="M300.893,21.557c-1.218.8-1.269.855-1.6,1.3a37.248,37.248,0,0,1-3.867,6.677,39.2,39.2,0,0,1,7.481,7.923l-1.876,1.577a22.327,22.327,0,0,0-3.532-4.722,27.307,27.307,0,0,0-3.374-3.039,26.116,26.116,0,0,1-10.071,7.182L282.394,36.6a20.836,20.836,0,0,0,8.861-5.357,23.332,23.332,0,0,0,5.826-8.971H285.567V20.342h12.287a2.576,2.576,0,0,0,1.3-.579Z" transform="translate(830.741 58.138)" fill="#1a1311"/><path d="M306.968,25.307a3.482,3.482,0,0,0-.717.717c-2.038,4.584-2.424,5.3-3.619,7.068a19.9,19.9,0,0,1,2.736,2.207l-1.435,1.659a22.186,22.186,0,0,0-2.507-2.211,20.8,20.8,0,0,1-4.419,4.226,18.563,18.563,0,0,1-5.991,2.814l-1.439-1.959a16.722,16.722,0,0,0,5.467-2.267,18.3,18.3,0,0,0,4.588-4.056,32.563,32.563,0,0,0-4.809-2.566l1.3-1.659a49.555,49.555,0,0,1,4.718,2.57,25.731,25.731,0,0,0,3.094-6.323h-8.112a26.556,26.556,0,0,1-5.605,5.909L288.335,30a19.653,19.653,0,0,0,5.716-5.574,21.793,21.793,0,0,0,2.842-5.081l2.152.911c.331.138.449.359.449.469,0,.3-.694.414-.942.441-.382.8-.5.966-1.439,2.57h6.768a8.31,8.31,0,0,0,1.794-.276Z" transform="translate(848.218 56.903)" fill="#1a1311"/><path d="M306.171,30.868a15.161,15.161,0,0,1-2.125,7.785,11.471,11.471,0,0,1-5.68,4.529l-1.963-1.8a9.365,9.365,0,0,0,5.605-3.808,11.653,11.653,0,0,0,1.876-6.709H294.03V28.854h21.144v2.014Zm5.2-7.261H297.645V21.538H311.37Zm4.525,2.874a23.551,23.551,0,0,0-2.732-2.073l1.017-1.435a26.86,26.86,0,0,1,2.653,2.152Zm1.017-4a20.379,20.379,0,0,0-2.672-2.1l.934-1.435a22.974,22.974,0,0,1,2.732,2.152Z" transform="translate(864.971 55.729)" fill="#1a1311"/><path d="M308.472,27.838a37.259,37.259,0,0,1-6.189,3.449l-1.656-1.431a22.709,22.709,0,0,0,7.73-4.06,28.729,28.729,0,0,0,5.495-5.136l1.293,1.186c.225.193.469.414.469.639,0,.138-.075.166-.268.166a4.862,4.862,0,0,1-.67-.059,37.469,37.469,0,0,1-4.411,3.894V38.772h-1.793Z" transform="translate(884.381 60.777)" fill="#1a1311"/><path d="M257.511,26.944a11.9,11.9,0,0,0-3.906,9.074,11.851,11.851,0,0,0,3.906,9.074v.1h-1.182a12.5,12.5,0,0,1-3.772-9.173,12.508,12.508,0,0,1,3.772-9.173h1.182Z" transform="translate(742.964 78.972)" fill="#1a1311"/><path d="M260.256,27.511h1.616l-.493,5.779.063.043L266.177,30,267,31.417l-5.27,2.444v.083L267,36.388l-.828,1.419-4.734-3.331-.063.039.493,5.779h-1.616l.493-5.779-.059-.039-4.734,3.331-.828-1.419,5.266-2.444v-.083l-5.266-2.444L255.956,30l4.734,3.335.059-.043Z" transform="translate(750.53 80.931)" fill="#1a1311"/><path d="M277.241,43.974c-8.029,0-8.92,0-10.832-.1-2.625-.142-3.359-.966-3.9-1.995-.536.532-.895.887-1.5,1.443,0,.252,0,.69-.3.69-.1,0-.2-.059-.3-.28l-.745-1.656a10.714,10.714,0,0,0,2.168-1.34v-4.36h-2.306V34.995h3.685v4.62a2.885,2.885,0,0,0,1.285,2.621c.765.394,1.616.532,4.612.532a80.378,80.378,0,0,0,8.7-.434ZM262.381,31.8a29.816,29.816,0,0,0-2.464-4.2l1.187-.615a20.5,20.5,0,0,1,2.527,4.1Zm10.339,7.5a11.074,11.074,0,0,0,3.177,1.853l-.788,1.222a24.735,24.735,0,0,1-3.473-2.089l.733-.985h-3.733l.773.926c.138.158.158.217.158.276,0,.217-.241.2-.615.158a27.553,27.553,0,0,1-2.428,1.774l-.962-1.064a8.838,8.838,0,0,0,2.625-2.069h-3.634V38.132h3.3V36.694h-2.464V35.511h2.464V34.068l1.364.158c.114.02.335.039.335.2,0,.138-.138.237-.315.355v.733h2.5V34.068l1.38.158c.315.039.378.118.378.2,0,.059-.04.217-.355.374v.713H275.9v1.183h-2.759v1.439h3.548V39.3Zm-4.261-5.546h-2.251c-.946,0-1.4-.256-1.4-1.2V29.965H268.5v-1.5h-3.847V27.285h5.089V30.99h-3.65v1.261c0,.359.177.378.493.378h1.462c.607,0,.824-.118,1.123-1.186l1.084.674c-.414,1.3-.808,1.636-1.8,1.636m3.276,2.941h-2.507v1.439h2.507Zm3.039-2.98h-1.991c-1.123,0-1.6-.256-1.6-1.38V29.965h3.548v-1.6h-3.508V27.285h4.793V30.99H272.4V32.2c0,.434.2.434.556.434h1.36c.674,0,.769-.158,1.182-1.38l1.068.65c-.414,1.616-.907,1.813-1.8,1.813" transform="translate(763.471 79.384)" fill="#1a1311"/><path d="M269.649,36.985v5.96c0,1.36-.256,1.616-3.331,1.577L265.9,43c.315.024,1.242.1,1.738.1.41,0,.631-.118.631-.674V37.754c-1.482.753-1.8.911-2.192,1.108,0,.138-.039.631-.335.631-.158,0-.256-.217-.3-.335l-.556-1.62c.635-.236,1.9-.69,3.378-1.4V32.271h-3.138v-1.34h3.138v-4l1.439.059c.221,0,.359.02.359.177s-.138.236-.418.394v3.374h2.01v1.34h-2.01v3.177c.394-.2,1.478-.812,2.211-1.246v1.6a22.5,22.5,0,0,1-2.211,1.183m11.467,7.221c-2.964-2.743-4.009-6.311-4.419-9.921h-1.955c-.122,2.286-.339,6.7-2.98,10.178l-1.443-.71c2.527-3.039,3.082-6.827,3.082-11.344,0-2.054-.1-3.552-.2-4.99h8.424v6.867h-3.571a12.629,12.629,0,0,0,4.438,9.094ZM280.244,28.7h-5.566c.063.985.122,2.862.122,4.3h5.444Z" transform="translate(779.251 79.21)" fill="#1a1311"/><path d="M270.265,45a9.909,9.909,0,0,0,1.778-2.385,13.9,13.9,0,0,0,1.655-6.374,13.892,13.892,0,0,0-1.655-6.374,9.909,9.909,0,0,0-1.778-2.385l.808-.713a10.864,10.864,0,0,1,1.857,2.487,14.093,14.093,0,0,1,0,13.97,10.756,10.756,0,0,1-1.857,2.483Z" transform="translate(795.06 78.751)" fill="#1a1311"/><rect width="36.97" height="21.609" transform="translate(950.371 3.804)" fill="#9d4e55"/><rect width="36.97" height="21.609" transform="translate(950.371 40.581)" fill="#00857b"/><rect width="36.97" height="21.609" transform="translate(950.371 77.357)" fill="#9bc6eb"/><rect width="151.38" height="20.324" transform="translate(673.938 201.713)" fill="#00857b"/><rect width="62.158" height="20.32" transform="translate(294.613 53.309)" fill="#9d4e55"/><rect width="62.158" height="20.324" transform="translate(294.613 90.369)" fill="#9d4e55"/><rect width="62.158" height="20.32" transform="translate(294.613 127.485)" fill="#9d4e55"/><rect width="62.158" height="20.32" transform="translate(294.613 165.409)" fill="#9d4e55"/><rect width="62.158" height="20.324" transform="translate(294.613 201.713)" fill="#9d4e55"/><rect width="62.158" height="20.32" transform="translate(294.613 239.235)" fill="#9d4e55"/><rect width="303.009" height="20.32" transform="translate(356.743 53.309)" fill="#00857b"/><rect width="303.009" height="20.324" transform="translate(356.743 90.369)" fill="#00857b"/><rect width="303.009" height="20.32" transform="translate(356.743 127.485)" fill="#00857b"/><rect width="303.009" height="20.32" transform="translate(356.743 165.409)" fill="#00857b"/><rect width="303.009" height="20.324" transform="translate(356.743 201.713)" fill="#00857b"/><rect width="303.009" height="20.32" transform="translate(356.743 239.235)" fill="#00857b"/><rect width="151.42" height="20.32" transform="translate(673.938 53.309)" fill="#00857b"/><rect width="151.42" height="20.324" transform="translate(673.938 90.369)" fill="#00857b"/><rect width="151.42" height="20.32" transform="translate(673.938 127.485)" fill="#00857b"/><rect width="227.082" height="20.32" transform="translate(673.938 165.409)" fill="#00857b"/><line x2="709.859" transform="translate(191.956 45.064)" fill="none" stroke="#1a1311" stroke-width="0.567"/><line x2="709.859" transform="translate(191.956 5.063)" fill="none" stroke="#1a1311" stroke-width="0.567"/><line x2="709.859" transform="translate(191.956 82.231)" fill="none" stroke="#1a1311" stroke-width="0.283"/><line x2="709.859" transform="translate(191.956 119.399)" fill="none" stroke="#1a1311" stroke-width="0.283"/><line x2="709.859" transform="translate(191.956 156.567)" fill="none" stroke="#1a1311" stroke-width="0.283"/><line x2="709.859" transform="translate(191.956 193.735)" fill="none" stroke="#1a1311" stroke-width="0.283"/><line x2="709.859" transform="translate(191.956 230.901)" fill="none" stroke="#1a1311" stroke-width="0.283"/><line x2="709.859" transform="translate(191.956 268.069)" fill="none" stroke="#1a1311" stroke-width="0.567"/><line y2="263.327" transform="translate(356.768 5.067)" fill="none" stroke="#1a1311" stroke-width="0.283"/><line y2="263.327" transform="translate(432.462 5.067)" fill="none" stroke="#1a1311" stroke-width="0.283"/><line y2="263.327" transform="translate(508.172 5.067)" fill="none" stroke="#1a1311" stroke-width="0.283"/><line y2="263.327" transform="translate(583.882 5.067)" fill="none" stroke="#1a1311" stroke-width="0.283"/><line y2="263.327" transform="translate(673.9 5.067)" fill="none" stroke="#1a1311" stroke-width="0.283"/><line y2="263.327" transform="translate(659.592 5.067)" fill="none" stroke="#1a1311" stroke-width="0.283"/><line y2="263.327" transform="translate(294.611 5.067)" fill="none" stroke="#1a1311" stroke-width="0.283"/><rect width="75.662" height="20.32" transform="translate(825.357 201.717)" fill="#9bc6eb"/><line y2="263.327" transform="translate(749.61 5.067)" fill="none" stroke="#1a1311" stroke-width="0.283"/><line y2="263.327" transform="translate(825.316 5.067)" fill="none" stroke="#1a1311" stroke-width="0.283"/><path d="M93.252,20.932c2.633-.095,2.921-.264,2.948-1.778V8.2c0-.9-.315-1.443-.9-1.589a14.625,14.625,0,0,0-2.562-.095V5.78c2.751-.095,3.776-.461,4.852-1.7h.556V19.154c.051,1.462.441,1.7,3.071,1.778v.8H93.252Z" transform="translate(272.821 11.994)" fill="#1a1311"/><path d="M97.555,6.068H100.6l.729-1.1,1.486,1.585a.648.648,0,0,1,.193.386c0,.1-.122.221-.292.272l-.438.122v14.3a.524.524,0,0,1-.39.56,2.321,2.321,0,0,1-.753.169c-.221,0-.367-.095-.367-.264V20.121H97.452v3.023a.519.519,0,0,1-.292.508,2.106,2.106,0,0,1-.875.244.347.347,0,0,1-.363-.315V5.115Zm3.213.583H97.452v6.114h3.315Zm0,6.7H97.452V19.51h3.315Zm1.8-1.924c2.239.095,3.146.118,4.237.118h1.119V7.917h-1.336c-1.049,0-1.585.024-3.019.075l-.319-.761c1.632.075,2.2.1,3.339.1h1.336V3.459l2.05.244c.367.047.564.221.564.485,0,.146-.126.292-.323.438l-.678.441V7.334h3.287l1.462-1.659,1.8,1.537c.217.169.268.268.268.386,0,.2-.146.319-.414.319h-6.405v3.626H113.8l1.533-1.75,1.782,1.537a.7.7,0,0,1,.292.485c0,.217-.146.315-.418.315h-3.843v3.386h1.143l1.317-1.486,1.557,1.317a.666.666,0,0,1,.292.485c0,.173-.1.268-.292.268h-4.017v7.407c0,.508-.2.8-.832,1.242a1.582,1.582,0,0,1-.875.39c-.292,0-.414-.146-.465-.508-.075-.615-.075-.615-.757-.808l-1.9-.489V22.8l2.192.095.386.028h.173c.315,0,.461-.2.461-.635V16.1h-4.624c-1.123,0-1.951.024-3.973.1l-.268-.8c2.121.1,2.972.122,4.241.122h4.624V12.131h-4.726c-1.021,0-1.872.028-3.969.1ZM104.055,17a5.985,5.985,0,0,1,2.582,1.242,2.95,2.95,0,0,1,1.218,2.046,1.044,1.044,0,0,1-1.021,1.1c-.414,0-.611-.2-.729-.753a5.053,5.053,0,0,0-2.1-3.287Z" transform="translate(282.184 10.176)" fill="#1a1311"/><path d="M104.3,4.585h3.457l.635-.95,1.8,1.486a.586.586,0,0,1,.244.39c0,.193-.193.343-.489.343h-.635c-.871,1.679-.946,1.849-2.8,5.093,2.192,2.334,3.019,4.017,3.019,6.133a3.149,3.149,0,0,1-.946,2.68,2.77,2.77,0,0,1-1.612.71c-.363,0-.509-.2-.532-.639-.028-.583-.075-.658-.682-.8l-1-.213v-.394l1,.028.607.024c1.218,0,1.632-.489,1.632-1.9a7.13,7.13,0,0,0-1.072-3.8,9.427,9.427,0,0,0-.95-1.317c-.169-.217-.169-.217-.319-.434.954-2.657,1.317-3.729,1.928-5.846H103.91V24.266c0,.272-.583.587-1.049.587-.217,0-.438-.122-.438-.244V3.564Zm8.5,0h5.723l.832-.95,1.632,1.194a.592.592,0,0,1,.292.438c0,.169-.146.315-.465.418l-.41.146v8.207c0,.315-.536.607-1.171.607-.244,0-.39-.118-.39-.292v-.706h-3.461a14.56,14.56,0,0,0,1.8,4.214A35.287,35.287,0,0,0,121.3,13.99l1.391,1.218a.666.666,0,0,1,.24.461c0,.217-.24.367-.607.367h-.757c-1.825,1-2.412,1.317-4.166,2.164a13.651,13.651,0,0,0,5.944,4.486,6.791,6.791,0,0,0-1.947,1.656c-3.433-2.267-5.408-5.483-6.551-10.694h-2.341v7.966c1.975-.339,2.341-.414,4.75-.974l.028.339c-2.68,1.123-3.875,1.608-6.579,2.586l-.292.753c-.075.169-.193.292-.339.292-.1,0-.173-.071-.272-.217l-1.486-2.2c1.34-.146,1.537-.169,2.7-.367V3.635Zm6.043.587h-6.334V8.751h6.334Zm0,4.163h-6.334V13.06h6.334Z" transform="translate(301.309 10.484)" fill="#1a1311"/><path d="M86.15,13.769A4.316,4.316,0,0,1,87.6,17.033c0,2.7-2.109,4.584-5.109,4.584-2.952,0-5.01-1.746-5.01-4.253,0-1.916,1.064-3.287,3.567-4.588-2.479-1.77-3.189-2.716-3.189-4.344,0-2.416,2.01-4.21,4.679-4.21,2.621,0,4.49,1.652,4.49,3.993,0,1.585-.71,2.554-2.976,4.04a11.332,11.332,0,0,1,2.1,1.514M81.688,13.2c-1.845,1.348-2.483,2.341-2.483,3.926,0,2.2,1.368,3.737,3.331,3.737a3.258,3.258,0,0,0,3.406-3.24,3.1,3.1,0,0,0-1.135-2.412,13.722,13.722,0,0,0-2.578-1.679Zm3.047-2.55a3.927,3.927,0,0,0,.733-2.385c0-1.987-1.182-3.287-2.952-3.287a3.013,3.013,0,0,0-3.1,2.905c0,1.466.851,2.318,3.95,3.95a7.652,7.652,0,0,0,1.372-1.183" transform="translate(227.923 12.42)" fill="#1a1311"/><path d="M83.941,6.321a1.618,1.618,0,1,1-3.236,0,1.618,1.618,0,0,1,3.236,0m0,9.169a1.618,1.618,0,1,1-3.236,0,1.618,1.618,0,0,1,3.236,0" transform="translate(237.416 13.865)" fill="#1a1311"/><path d="M82.175,20.207a43.286,43.286,0,0,1,4.892-6.287c2.062-2.337,2.7-3.686,2.7-5.578,0-2.1-.966-3.331-2.6-3.331a3.489,3.489,0,0,0-2.152.729,1.913,1.913,0,0,0-.619,1.088c0,.189.075.311.453.808a1.819,1.819,0,0,1,.54,1.25,1.282,1.282,0,0,1-1.273,1.324A1.711,1.711,0,0,1,82.6,8.366c0-2.219,2.27-4.163,4.872-4.163a4.232,4.232,0,0,1,4.486,4.233,4.782,4.782,0,0,1-.682,2.46c-.473.851-.473.851-2.554,2.881-2.929,2.791-4,4-5.176,5.909h4.919c1.675,0,2.077-.331,3.307-2.673l.706.24-1.3,4.111H82.175Z" transform="translate(241.741 12.364)" fill="#1a1311"/><path d="M95.361,12.793a14.874,14.874,0,0,1-1.21,6.382,4.537,4.537,0,0,1-3.875,2.6,4.656,4.656,0,0,1-4.044-2.909,14.755,14.755,0,0,1-1.037-6.027c0-5.317,1.987-8.648,5.176-8.648,2.98,0,4.99,3.477,4.99,8.6m-8.089.213c0,5.463.97,7.99,3.075,7.99a2.1,2.1,0,0,0,1.892-1.112c.639-1.135.97-3.449.97-6.8,0-5.794-.828-8.136-2.909-8.136-2.006,0-3.027,2.724-3.027,8.061" transform="translate(250.625 12.332)" fill="#1a1311"/><path d="M58.977,14.729h7.97l.851-1.147L69.3,15.044a1.136,1.136,0,0,1,.394.635c0,.118-.146.292-.343.367l-.461.166V32.632c0,.508-.315.922-1,1.317a2.121,2.121,0,0,1-.875.264c-.292,0-.39-.118-.414-.485-.051-.418-.1-.564-.272-.607l-2.751-.879.051-.319,3.067.028c.367,0,.418-.051.441-.3V25.663H58.713a12.1,12.1,0,0,1-.733,3.485,9.071,9.071,0,0,1-4.214,4.407,6.864,6.864,0,0,1-2.093.926.185.185,0,0,1-.2-.169c0-.1.095-.2.315-.319a11.612,11.612,0,0,0,4.316-4.576c.828-1.754,1.021-3.658,1.021-9.575,0-2.168-.024-3.508-.15-6.283ZM67.141,25.08V20.5H58.784v2.874c0,.583-.024.926-.047,1.707Zm0-9.768H58.788v4.6h8.353Z" transform="translate(151.431 39.885)" fill="#1a1311"/><path d="M60.062,15.7h2.511l.855-1.045,1.289,1.36a.7.7,0,0,1,.268.512.316.316,0,0,1-.319.292l-.363.075V31.24c0,.217-.1.343-.339.465a2.6,2.6,0,0,1-.9.288c-.146,0-.244-.095-.244-.288V29.731H59.943v2.657c0,.339-.564.682-1.147.682a.291.291,0,0,1-.315-.3v-18.2Zm2.755.587H59.943v6.161h2.874Zm0,6.748H59.943v6.114h2.874ZM68.686,24.2h3.658c.41-1.415.461-1.632.8-3.094l1.675.587a.462.462,0,0,1,.319.438.554.554,0,0,1-.319.461l-.583.3L73.267,24.2H76.7l1.025-1.242L79.187,24.1c.2.146.292.268.292.418a.3.3,0,0,1-.315.264H73.728v2.144h2.318l1-1.049,1.34.9c.2.122.292.244.292.39a.36.36,0,0,1-.39.339H73.728v2.341h2.318l1-1.049,1.34.875a.513.513,0,0,1,.315.438.351.351,0,0,1-.367.319h-4.6v2.535H76.7l1.411-1.486,1.758,1.388a.471.471,0,0,1,.24.39.279.279,0,0,1-.292.292H68.785v.875c0,.292-.512.564-1.1.564-.169,0-.244-.075-.244-.221V26.049c-1.293,1.632-2.361,2.708-2.633,2.708a.168.168,0,0,1-.17-.169c0-.122.024-.146.489-.733a25.922,25.922,0,0,0,3.287-6.918l1.825.875a.478.478,0,0,1,.3.394c0,.169-.15.292-.339.339l-.682.17Zm2.29-10.718,1.368,1.072a.679.679,0,0,1,.292.485.37.37,0,0,1-.221.343l-.512.244V21.2c0,.268-.658.607-1.171.607-.169,0-.24-.095-.24-.292V19.935H66.057v-.583h4.435V17.5H66.006v-.583h4.486V14.992H68.757c-.7,0-1.336.024-2.972.071l-.288-.725c1.167.02,1.849.043,3.26.095H70.44Zm1.411,11.3h-3.6v2.144h3.6Zm0,2.728h-3.6v2.341h3.6Zm0,2.925h-3.6v2.539h3.6Zm.54-16h4.139l.658-.974,1.411,1.289a.682.682,0,0,1,.248.489.414.414,0,0,1-.343.367l-.39.047v5.333a.439.439,0,0,1-.343.461,4,4,0,0,1-.777.2c-.2,0-.292-.122-.292-.315V19.935H73.1v-.583H77.24V17.5H73.022v-.583H77.24v-1.9H72.928Z" transform="translate(172.038 39.593)" fill="#1a1311"/><path d="M68.085,15.023h9.693L78.8,13.805l1.557,1.439a.908.908,0,0,1,.367.607.55.55,0,0,1-.367.441l-.386.146V31.925c0,.319-.658.611-1.391.611-.217,0-.363-.169-.363-.465V30.857H67.888v1.632a.649.649,0,0,1-.414.706,1.743,1.743,0,0,1-.828.217.453.453,0,0,1-.512-.512V13.876Zm10.134.583H67.892v7.016H78.219Zm0,7.6H67.892V30.27H78.219Z" transform="translate(194.552 40.611)" fill="#1a1311"/><path d="M62.68,24.726c-.028.607-.028,1.242-.028,1.411-.024,1.34-.047,2.341-.047,2.436-.028.39-.051.607-.173,2.511a16.662,16.662,0,0,0,1.778,3.847,28.394,28.394,0,0,0,5.337-8.573l2.069,1.435a.593.593,0,0,1,.272.465c0,.221-.126.339-.441.438l-.8.244a56.142,56.142,0,0,1-6.09,6.429C66.476,38.242,69.1,40,73.445,41.289A5.841,5.841,0,0,0,71.3,43.335a17.429,17.429,0,0,1-9.062-10.694,11.7,11.7,0,0,1-4.163,7.675,16.311,16.311,0,0,1-4.119,2.554,8.383,8.383,0,0,1-2.046.733c-.173,0-.292-.1-.292-.244,0-.122.095-.221.315-.343,3.461-1.632,5.554-3.382,7.04-5.842,1.415-2.416,2-5.286,2-9.965,0-1.1-.051-2.192-.173-4.265l2.436.272c.319.043.536.217.536.461a.585.585,0,0,1-.288.438Zm-6.969,1.9a9.372,9.372,0,0,1,.658,3.579c0,2.511-1.147,4.458-2.633,4.458a.934.934,0,0,1-1-.855.9.9,0,0,1,.193-.579l1.1-1.222a6.561,6.561,0,0,0,1.246-4.017,12.029,12.029,0,0,0-.051-1.218Z" transform="translate(151.852 67.496)" fill="#1a1311"/><path d="M60.062,25.141h2.511l.855-1.045,1.289,1.36a.7.7,0,0,1,.268.512.316.316,0,0,1-.319.292l-.363.075V40.683c0,.217-.1.343-.339.465a2.6,2.6,0,0,1-.9.288c-.146,0-.244-.095-.244-.288V39.174H59.943V41.83c0,.339-.564.682-1.147.682a.291.291,0,0,1-.315-.3v-18.2Zm2.755.587H59.943v6.161h2.874Zm0,6.748H59.943V38.59h2.874Zm5.869,1.167h3.658c.41-1.415.461-1.632.8-3.094l1.675.587a.462.462,0,0,1,.319.438.554.554,0,0,1-.319.461l-.583.3-.974,1.313H76.7L77.725,32.4l1.462,1.143c.2.146.292.268.292.418a.3.3,0,0,1-.315.264H73.728v2.144h2.318l1-1.049,1.34.9c.2.122.292.244.292.39a.36.36,0,0,1-.39.339H73.728V39.3h2.318l1-1.049,1.34.875a.513.513,0,0,1,.315.438.351.351,0,0,1-.367.319h-4.6v2.535H76.7l1.411-1.486,1.758,1.388a.471.471,0,0,1,.24.39.279.279,0,0,1-.292.292H68.785v.875c0,.292-.512.564-1.1.564-.169,0-.244-.075-.244-.221V35.492c-1.293,1.632-2.361,2.708-2.633,2.708a.168.168,0,0,1-.17-.169c0-.122.024-.146.489-.733a25.922,25.922,0,0,0,3.287-6.918l1.825.875a.478.478,0,0,1,.3.394c0,.169-.15.292-.339.339l-.682.169Zm2.29-10.718L72.344,24a.679.679,0,0,1,.292.485.37.37,0,0,1-.221.343l-.512.244v5.578c0,.268-.658.607-1.171.607-.169,0-.24-.095-.24-.292V29.378H66.057v-.583h4.435V26.942H66.006v-.583h4.486V24.435H68.757c-.7,0-1.336.024-2.972.071l-.288-.725c1.167.02,1.849.043,3.26.095H70.44Zm1.411,11.3h-3.6v2.144h3.6Zm0,2.728h-3.6V39.3h3.6Zm0,2.925h-3.6v2.538h3.6Zm.54-16h4.139l.658-.974,1.411,1.289a.682.682,0,0,1,.248.489.414.414,0,0,1-.343.367l-.39.047v5.333a.439.439,0,0,1-.343.461,4,4,0,0,1-.777.2c-.2,0-.292-.122-.292-.315V29.378H73.1v-.583H77.24V26.942H73.022v-.583H77.24v-1.9H72.928Z" transform="translate(172.038 67.373)" fill="#1a1311"/><path d="M68.085,24.469h9.693L78.8,23.247l1.557,1.439a.914.914,0,0,1,.367.611.54.54,0,0,1-.367.438l-.386.146V41.371c0,.319-.658.607-1.391.607-.217,0-.363-.169-.363-.461V40.3H67.888v1.632a.649.649,0,0,1-.414.706,1.749,1.749,0,0,1-.828.221.453.453,0,0,1-.512-.512V23.322Zm10.134.579H67.892v7.016H78.219Zm0,7.6H67.892v7.064H78.219Z" transform="translate(194.552 68.388)" fill="#1a1311"/><path d="M55.084,39.507c-.78,0-1.439.024-3.047.071l-.217-.753c.631.024,1.194.024,1.384.047,1.025.024,1.707.047,1.88.047h3.165l.8-1.068,1.585,1.778a.522.522,0,0,1,.146.367.377.377,0,0,1-.367.386l-.465.051a24.828,24.828,0,0,1-4.017,7.474,17.389,17.389,0,0,1-3,3.023,3.574,3.574,0,0,1-1.242.733.238.238,0,0,1-.2-.2c0-.1.244-.39.78-.875,2.921-3.071,4.458-5.944,5.968-11.084Zm3.6,11.912,2.412.024c.512-.051.587-.1.56-.485V32.294l2.026.221c.359.024.607.221.607.489a.73.73,0,0,1-.461.587l-.489.24V37.17a18.474,18.474,0,0,0,2.164,5.042l4.9-5.483,1.557,1.656a.451.451,0,0,1,.122.3.552.552,0,0,1-.635.489l-.071-.028-.485-.024-5.022,3.654a16.268,16.268,0,0,0,7.8,6.189A6.238,6.238,0,0,0,71.5,50.836,19.441,19.441,0,0,1,63.342,39.63V51.684A1.554,1.554,0,0,1,62.66,53a1.823,1.823,0,0,1-1.1.536c-.268,0-.292-.071-.461-.851-.028-.071-.122-.146-.315-.217l-2.144-.639Z" transform="translate(151.505 95.002)" fill="#1a1311"/><path d="M60.062,34.583h2.511l.855-1.045,1.289,1.36a.7.7,0,0,1,.268.512.316.316,0,0,1-.319.292l-.363.075V50.125c0,.217-.1.343-.339.465a2.6,2.6,0,0,1-.9.288c-.146,0-.244-.095-.244-.288V48.616H59.943v2.657c0,.339-.564.682-1.147.682a.291.291,0,0,1-.315-.3v-18.2Zm2.755.587H59.943v6.161h2.874Zm0,6.748H59.943v6.114h2.874Zm5.869,1.167h3.658c.41-1.415.461-1.632.8-3.094l1.675.587a.462.462,0,0,1,.319.438.554.554,0,0,1-.319.461l-.583.3-.974,1.313H76.7l1.025-1.242,1.462,1.143c.2.146.292.268.292.418a.3.3,0,0,1-.315.264H73.728v2.144h2.318l1-1.049,1.34.9c.2.122.292.244.292.39a.36.36,0,0,1-.39.339H73.728v2.341h2.318l1-1.049,1.34.875A.513.513,0,0,1,78.7,49a.351.351,0,0,1-.367.319h-4.6v2.535H76.7l1.411-1.486,1.758,1.388a.471.471,0,0,1,.24.39.279.279,0,0,1-.292.292H68.785v.875c0,.292-.512.564-1.1.564-.169,0-.244-.075-.244-.221V44.934c-1.293,1.632-2.361,2.708-2.633,2.708a.168.168,0,0,1-.17-.169c0-.122.024-.146.489-.733a25.922,25.922,0,0,0,3.287-6.918l1.825.875a.478.478,0,0,1,.3.394c0,.169-.15.292-.339.339l-.682.17Zm2.29-10.718,1.368,1.072a.679.679,0,0,1,.292.485.37.37,0,0,1-.221.343l-.512.244V40.09c0,.268-.658.607-1.171.607-.169,0-.24-.095-.24-.292V38.82H66.057v-.583h4.435V36.384H66.006V35.8h4.486V33.877H68.757c-.7,0-1.336.024-2.972.071l-.288-.725c1.167.02,1.849.043,3.26.095H70.44Zm1.411,11.3h-3.6v2.144h3.6Zm0,2.728h-3.6v2.341h3.6Zm0,2.925h-3.6V51.86h3.6Zm.54-16h4.139l.658-.974,1.411,1.289a.682.682,0,0,1,.248.489.414.414,0,0,1-.343.367l-.39.047v5.333a.439.439,0,0,1-.343.461,4,4,0,0,1-.777.2c-.2,0-.292-.122-.292-.315V38.82H73.1v-.583H77.24V36.384H73.022V35.8H77.24V33.9H72.928Z" transform="translate(172.038 95.149)" fill="#1a1311"/><path d="M68.085,33.911h9.693L78.8,32.689l1.557,1.443a.9.9,0,0,1,.367.607.54.54,0,0,1-.367.438l-.386.146V50.813c0,.319-.658.607-1.391.607-.217,0-.363-.17-.363-.461V49.745H67.888v1.632a.646.646,0,0,1-.414.7,1.7,1.7,0,0,1-.828.221.453.453,0,0,1-.512-.512V32.764Zm10.134.583H67.892v7.016H78.219Zm0,7.6H67.892v7.064H78.219Z" transform="translate(194.552 96.164)" fill="#1a1311"/><path d="M57.05,48.616c-.268,0-1.052.028-2.2.051-.315.024-1.289.047-2.314.071l-.292-.828c2.948.075,3.291.1,4.805.126h4.675V41.675l2.144.146a.5.5,0,0,1,.485.414.582.582,0,0,1-.292.465l-.706.438v4.9h6.015l1.561-1.707,2.05,1.581a.488.488,0,0,1,.193.367c0,.221-.122.339-.3.339H63.4a18.751,18.751,0,0,0,10.666,9.866,5.25,5.25,0,0,0-2.144,1.9,21.762,21.762,0,0,1-8.569-10.229V62.748a.491.491,0,0,1-.244.485,3.793,3.793,0,0,1-1.147.248c-.169,0-.24-.1-.24-.272V51.419A31.17,31.17,0,0,1,55.339,58.7a15.4,15.4,0,0,1-3.65,2.483.26.26,0,0,1-.244-.244c0-.146.288-.414,1.119-1.072a32.7,32.7,0,0,0,8.522-11.254Z" transform="translate(151.34 122.599)" fill="#1a1311"/><path d="M60.062,44.025h2.511l.855-1.045,1.289,1.36a.7.7,0,0,1,.268.512.316.316,0,0,1-.319.292l-.363.075V59.567c0,.217-.1.343-.339.465a2.6,2.6,0,0,1-.9.288c-.146,0-.244-.095-.244-.288V58.058H59.943v2.657c0,.339-.564.682-1.147.682a.291.291,0,0,1-.315-.3v-18.2Zm2.755.587H59.943v6.161h2.874Zm0,6.748H59.943v6.114h2.874Zm5.869,1.167h3.658c.41-1.415.461-1.632.8-3.094l1.675.587a.462.462,0,0,1,.319.438.554.554,0,0,1-.319.461l-.583.3-.974,1.313H76.7l1.025-1.242,1.462,1.143c.2.146.292.268.292.418a.3.3,0,0,1-.315.264H73.728v2.144h2.318l1-1.049,1.34.9c.2.122.292.244.292.39a.36.36,0,0,1-.39.339H73.728V58.18h2.318l1-1.049,1.34.875a.513.513,0,0,1,.315.438.351.351,0,0,1-.367.319h-4.6V61.3H76.7l1.411-1.486L79.869,61.2a.471.471,0,0,1,.24.39.279.279,0,0,1-.292.292H68.785v.875c0,.292-.512.564-1.1.564-.169,0-.244-.075-.244-.221V54.376c-1.293,1.632-2.361,2.708-2.633,2.708a.168.168,0,0,1-.17-.169c0-.122.024-.146.489-.733a25.922,25.922,0,0,0,3.287-6.918l1.825.875a.478.478,0,0,1,.3.394c0,.169-.15.292-.339.339l-.682.169Zm2.29-10.718,1.368,1.072a.679.679,0,0,1,.292.485.37.37,0,0,1-.221.343l-.512.244v5.578c0,.268-.658.607-1.171.607-.169,0-.24-.095-.24-.292V48.262H66.057v-.583h4.435V45.826H66.006v-.583h4.486V43.319H68.757c-.7,0-1.336.024-2.972.071l-.288-.725c1.167.02,1.849.043,3.26.095H70.44Zm1.411,11.3h-3.6v2.144h3.6Zm0,2.728h-3.6V58.18h3.6Zm0,2.925h-3.6V61.3h3.6Zm.54-16h4.139l.658-.974,1.411,1.289a.682.682,0,0,1,.248.489.414.414,0,0,1-.343.367l-.39.047v5.333a.439.439,0,0,1-.343.461,4,4,0,0,1-.777.2c-.2,0-.292-.122-.292-.315V48.262H73.1v-.583H77.24V45.826H73.022v-.583H77.24v-1.9H72.928Z" transform="translate(172.038 122.925)" fill="#1a1311"/><path d="M68.085,43.35h9.693L78.8,42.132l1.557,1.439a.908.908,0,0,1,.367.607.55.55,0,0,1-.367.441l-.386.146V60.256c0,.319-.658.607-1.391.607-.217,0-.363-.169-.363-.461V59.184H67.888v1.632a.648.648,0,0,1-.414.706,1.743,1.743,0,0,1-.828.217.451.451,0,0,1-.512-.508V42.2Zm10.134.583H67.892V50.95H78.219Zm0,7.6H67.892V58.6H78.219Z" transform="translate(194.552 123.943)" fill="#1a1311"/><path d="M63.524,51.941a.437.437,0,0,1,.292.386.338.338,0,0,1-.169.3l-.292.166c2.022,3.362,5.357,5.582,10.4,6.945-.221.146-.418.268-.465.292l-.654.367a4.961,4.961,0,0,0-1.025,1.1C67.178,59.32,64.3,56.569,62.5,52.816a24.843,24.843,0,0,1-6.382,7.257,19.157,19.157,0,0,1-4.407,2.708.17.17,0,0,1-.173-.173c0-.169,0-.169.879-.8a26.757,26.757,0,0,0,8.841-10.722ZM61.455,64.78H56.287c-.922,0-1.727.02-3.894.095l-.244-.8c1,.024,2,.051,2.29.071.926.024,1.561.051,1.849.051h5.168v-3.41h-1.73c-1.025,0-1.514.024-2.925.071l-.264-.753,1.778.075c.607.02,1.119.02,1.435.02h4.919l1.293-1.533L67.785,60.1a.435.435,0,0,1,.2.367.316.316,0,0,1-.268.315h-4.6v3.41h5.361L70,62.387l2.121,1.683a.616.616,0,0,1,.146.367.347.347,0,0,1-.292.343H63.11v6.673h1.975a40.255,40.255,0,0,0,2.436-5.85l1.872.954c.244.118.367.264.367.41a.584.584,0,0,1-.438.489l-.587.221-2.846,3.776h3.528L71.1,69.675l2.263,1.8a.373.373,0,0,1,.1.264c0,.146-.1.292-.2.292H56.409c-.292,0-1.045.028-2.164.051-.315.024-1.269.051-2.243.075l-.343-.828,2.562.071c1.045.024,2.117.051,2.239.051h4.994ZM55,65.848a6.117,6.117,0,0,1,2.314,1.265A3.423,3.423,0,0,1,58.53,69.5a1.187,1.187,0,0,1-1.045,1.317.83.83,0,0,1-.658-.315c-.1-.173-.1-.173-.418-1.829a4.35,4.35,0,0,0-1.656-2.535Z" transform="translate(151.61 150.284)" fill="#1a1311"/><path d="M60.062,53.468h2.511l.855-1.045,1.289,1.36a.7.7,0,0,1,.268.512.316.316,0,0,1-.319.292l-.363.075V69.01c0,.217-.1.343-.339.465a2.6,2.6,0,0,1-.9.288c-.146,0-.244-.095-.244-.288V67.5H59.943v2.657c0,.339-.564.682-1.147.682a.291.291,0,0,1-.315-.3v-18.2Zm2.755.587H59.943v6.161h2.874Zm0,6.748H59.943v6.114h2.874Zm5.869,1.167h3.658c.41-1.415.461-1.632.8-3.094l1.675.587a.462.462,0,0,1,.319.438.554.554,0,0,1-.319.461l-.583.3-.974,1.313H76.7l1.025-1.242,1.462,1.143c.2.146.292.268.292.418a.3.3,0,0,1-.315.264H73.728V64.7h2.318l1-1.049,1.34.9c.2.122.292.244.292.39a.36.36,0,0,1-.39.339H73.728v2.341h2.318l1-1.049,1.34.875a.513.513,0,0,1,.315.438.351.351,0,0,1-.367.319h-4.6v2.535H76.7l1.411-1.486,1.758,1.387a.471.471,0,0,1,.24.39.279.279,0,0,1-.292.292H68.785V72.2c0,.292-.512.564-1.1.564-.169,0-.244-.075-.244-.221V63.819c-1.293,1.632-2.361,2.708-2.633,2.708a.168.168,0,0,1-.17-.169c0-.122.024-.146.489-.733a25.922,25.922,0,0,0,3.287-6.918l1.825.875a.478.478,0,0,1,.3.394c0,.169-.15.292-.339.339l-.682.169Zm2.29-10.718,1.368,1.072a.679.679,0,0,1,.292.485.37.37,0,0,1-.221.343L71.9,53.4v5.578c0,.268-.658.607-1.171.607-.169,0-.24-.095-.24-.292V57.705H66.057v-.583h4.435V55.269H66.006v-.583h4.486V52.762H68.757c-.7,0-1.336.024-2.972.071l-.288-.725c1.167.02,1.849.043,3.26.095H70.44Zm1.411,11.3h-3.6V64.7h3.6Zm0,2.728h-3.6v2.341h3.6Zm0,2.925h-3.6v2.538h3.6Zm.54-16h4.139l.658-.974,1.411,1.289a.682.682,0,0,1,.248.489.414.414,0,0,1-.343.367l-.39.047v5.333a.439.439,0,0,1-.343.461,4,4,0,0,1-.777.2c-.2,0-.292-.122-.292-.315V57.705H73.1v-.583H77.24V55.269H73.022v-.583H77.24v-1.9H72.928Z" transform="translate(172.038 150.704)" fill="#1a1311"/><path d="M68.085,52.8h9.693L78.8,51.574l1.557,1.439a.914.914,0,0,1,.367.611.54.54,0,0,1-.367.438l-.386.146V69.7c0,.319-.658.607-1.391.607-.217,0-.363-.169-.363-.461V68.626H67.888v1.632a.648.648,0,0,1-.414.706,1.749,1.749,0,0,1-.828.221.453.453,0,0,1-.512-.512V51.649Zm10.134.579H67.892v7.016H78.219Zm0,7.6H67.892v7.064H78.219Z" transform="translate(194.552 151.719)" fill="#1a1311"/><path d="M61.329,69.574H57.6c-.851,0-1.632.028-3.969.1l-.248-.8c2.657.1,3.366.122,4.218.122h3.725V60.658l2.2.244c.386.028.583.2.583.512,0,.193-.1.292-.489.56l-.512.315v6.7H68.2l1.51-1.825,2.022,1.75a.432.432,0,0,1,.173.343.289.289,0,0,1-.3.315h-8.5V80.489h6.212L70.9,78.782l2.022,1.659a.5.5,0,0,1,.169.339.277.277,0,0,1-.268.292H56.335c-1.872,0-2.479.024-4.553.122l-.244-.855c2.192.126,2.8.15,4.8.15h4.994Z" transform="translate(151.613 178.442)" fill="#1a1311"/><path d="M60.062,62.91h2.511l.855-1.045,1.289,1.36a.7.7,0,0,1,.268.512.316.316,0,0,1-.319.292L64.3,64.1V78.452c0,.217-.1.343-.339.465a2.6,2.6,0,0,1-.9.288c-.146,0-.244-.095-.244-.288V76.943H59.943V79.6c0,.339-.564.682-1.147.682a.291.291,0,0,1-.315-.3V61.79Zm2.755.587H59.943v6.161h2.874Zm0,6.748H59.943v6.114h2.874Zm5.869,1.167h3.658c.41-1.415.461-1.632.8-3.094l1.675.587a.462.462,0,0,1,.319.438.554.554,0,0,1-.319.461l-.583.3-.974,1.313H76.7l1.025-1.242,1.462,1.143c.2.146.292.268.292.418a.3.3,0,0,1-.315.264H73.728V74.14h2.318l1-1.049,1.34.9c.2.122.292.244.292.39a.36.36,0,0,1-.39.339H73.728v2.341h2.318l1-1.049,1.34.875a.513.513,0,0,1,.315.438.351.351,0,0,1-.367.319h-4.6v2.535H76.7L78.111,78.7l1.758,1.387a.471.471,0,0,1,.24.39.279.279,0,0,1-.292.292H68.785v.875c0,.292-.512.564-1.1.564-.169,0-.244-.075-.244-.221V73.261c-1.293,1.632-2.361,2.708-2.633,2.708a.168.168,0,0,1-.17-.169c0-.122.024-.146.489-.733a25.922,25.922,0,0,0,3.287-6.918l1.825.875a.478.478,0,0,1,.3.394c0,.169-.15.292-.339.339l-.682.169Zm2.29-10.718,1.368,1.072a.679.679,0,0,1,.292.485.37.37,0,0,1-.221.343l-.512.244v5.578c0,.268-.658.607-1.171.607-.169,0-.24-.095-.24-.292V67.147H66.057v-.583h4.435V64.711H66.006v-.583h4.486V62.2H68.757c-.7,0-1.336.024-2.972.071L65.5,61.55c1.167.02,1.849.043,3.26.095H70.44ZM72.388,72h-3.6V74.14h3.6Zm0,2.728h-3.6v2.341h3.6Zm0,2.925h-3.6v2.539h3.6Zm.54-16h4.139l.658-.974,1.411,1.289a.682.682,0,0,1,.248.489.414.414,0,0,1-.343.367l-.39.047V68.2a.439.439,0,0,1-.343.461,4,4,0,0,1-.777.2c-.2,0-.292-.122-.292-.315V67.147H73.1v-.583H77.24V64.711H73.022v-.583H77.24v-1.9H72.928Z" transform="translate(172.038 178.481)" fill="#1a1311"/><path d="M68.085,62.235h9.693L78.8,61.017l1.557,1.439a.908.908,0,0,1,.367.607.54.54,0,0,1-.367.438l-.386.15V79.137c0,.319-.658.611-1.391.611-.217,0-.363-.169-.363-.465V78.069H67.888V79.7a.648.648,0,0,1-.414.706,1.743,1.743,0,0,1-.828.217.453.453,0,0,1-.512-.512V61.088Zm10.134.583H67.892v7.016H78.219Zm0,7.6H67.892v7.064H78.219Z" transform="translate(194.552 179.499)" fill="#1a1311"/><path d="M111.893,20.562a44.661,44.661,0,0,1,5.042-6.48c2.121-2.412,2.779-3.8,2.779-5.751,0-2.164-1-3.433-2.68-3.433a3.6,3.6,0,0,0-2.215.757,1.962,1.962,0,0,0-.635,1.119c0,.2.075.319.461.832a1.86,1.86,0,0,1,.564,1.289,1.325,1.325,0,0,1-1.317,1.364,1.764,1.764,0,0,1-1.561-1.9c0-2.29,2.341-4.289,5.022-4.289a4.367,4.367,0,0,1,4.628,4.364,4.944,4.944,0,0,1-.706,2.531c-.489.879-.489.879-2.633,2.972-3.023,2.877-4.115,4.115-5.337,6.09h5.073c1.726,0,2.14-.343,3.406-2.751l.729.244-1.34,4.237h-9.279Z" transform="translate(329.165 11.973)" fill="#1a1311"/><path d="M117.346,6.068h3.043l.729-1.1L122.6,6.553a.648.648,0,0,1,.193.386c0,.1-.122.221-.292.272l-.438.122v14.3a.524.524,0,0,1-.39.56,2.321,2.321,0,0,1-.753.169c-.221,0-.367-.095-.367-.264V20.121h-3.315v3.023a.519.519,0,0,1-.292.508,2.106,2.106,0,0,1-.875.244.347.347,0,0,1-.363-.315V5.115Zm3.213.583h-3.315v6.114h3.315Zm0,6.7h-3.315V19.51h3.315Zm1.8-1.924c2.239.095,3.146.118,4.237.118h1.119V7.917H126.38c-1.049,0-1.585.024-3.019.075l-.319-.761c1.632.075,2.2.1,3.339.1h1.336V3.459l2.05.244c.367.047.564.221.564.485,0,.146-.126.292-.323.438l-.678.441V7.334h3.287l1.462-1.659,1.8,1.537c.217.169.268.268.268.386,0,.2-.146.319-.414.319h-6.405v3.626h4.261l1.533-1.75,1.782,1.537a.7.7,0,0,1,.292.485c0,.217-.146.315-.418.315h-3.843v3.386h1.143l1.317-1.486,1.557,1.317a.666.666,0,0,1,.292.485c0,.173-.1.268-.292.268h-4.017v7.407c0,.508-.2.8-.832,1.242a1.582,1.582,0,0,1-.875.39c-.292,0-.414-.146-.465-.508-.075-.615-.075-.615-.757-.808l-1.9-.489V22.8l2.192.095.386.028h.173c.315,0,.461-.2.461-.635V16.1H126.7c-1.123,0-1.951.024-3.973.1l-.268-.8c2.121.1,2.972.122,4.241.122h4.624V12.131H126.6c-1.021,0-1.872.028-3.969.1ZM123.846,17a5.985,5.985,0,0,1,2.582,1.242,2.95,2.95,0,0,1,1.218,2.046,1.044,1.044,0,0,1-1.021,1.1c-.414,0-.611-.2-.729-.753a5.053,5.053,0,0,0-2.1-3.287Z" transform="translate(340.405 10.176)" fill="#1a1311"/><path d="M124.091,4.585h3.461l.631-.95,1.805,1.486a.579.579,0,0,1,.24.39c0,.193-.193.343-.489.343h-.631c-.875,1.679-.95,1.849-2.8,5.093,2.2,2.334,3.023,4.017,3.023,6.133a3.138,3.138,0,0,1-.95,2.68,2.761,2.761,0,0,1-1.612.71c-.359,0-.5-.2-.532-.639-.024-.583-.075-.658-.682-.8l-1-.213v-.394l1,.028.607.024c1.222,0,1.632-.489,1.632-1.9a7.125,7.125,0,0,0-1.068-3.8,9.424,9.424,0,0,0-.95-1.317c-.17-.217-.17-.217-.319-.434.954-2.657,1.313-3.729,1.928-5.846H123.7V24.266c0,.272-.583.587-1.045.587-.221,0-.442-.122-.442-.244V3.564Zm8.5,0h5.723l.828-.95,1.632,1.194a.581.581,0,0,1,.292.438c0,.169-.146.315-.461.418l-.414.146v8.207c0,.315-.536.607-1.171.607-.244,0-.39-.118-.39-.292v-.706h-3.457a14.556,14.556,0,0,0,1.8,4.214,35.265,35.265,0,0,0,4.115-3.871l1.391,1.218a.667.667,0,0,1,.24.461c0,.217-.24.367-.607.367h-.753c-1.829,1-2.412,1.317-4.166,2.164a13.651,13.651,0,0,0,5.944,4.486,6.792,6.792,0,0,0-1.947,1.656c-3.437-2.267-5.408-5.483-6.555-10.694H132.3v7.966c1.975-.339,2.337-.414,4.75-.974l.024.339c-2.68,1.123-3.875,1.608-6.575,2.586l-.292.753a.416.416,0,0,1-.343.292c-.1,0-.17-.071-.268-.217l-1.49-2.2c1.344-.146,1.537-.169,2.708-.367V3.635Zm6.039.587H132.3V8.751h6.33Zm0,4.163H132.3V13.06h6.33Z" transform="translate(359.53 10.484)" fill="#1a1311"/><path d="M134.444,12.12c.536.024.607.024.78.024,2.46,0,3.406-1,3.406-3.63,0-2.361-.9-3.626-2.606-3.626-1.167,0-2.144.753-2.144,1.628a1.887,1.887,0,0,0,.173.635,2.276,2.276,0,0,1,.17.8,1.232,1.232,0,0,1-1.214,1.269c-.8,0-1.34-.635-1.34-1.585,0-1.924,2.117-3.555,4.651-3.555a4.19,4.19,0,0,1,4.435,4.186,4.424,4.424,0,0,1-1.317,3.169,5.163,5.163,0,0,1-2.144,1.143,4.761,4.761,0,0,1,3,1.608,4.35,4.35,0,0,1,.974,2.8,5.086,5.086,0,0,1-5.384,5.018c-2.483,0-4.722-1.632-4.722-3.457a1.555,1.555,0,0,1,1.486-1.659,1.174,1.174,0,0,1,1.218,1.293,3.23,3.23,0,0,1-.319,1.194,1.7,1.7,0,0,0-.047.315c0,.78,1.119,1.51,2.361,1.51,2.022,0,3.142-1.486,3.142-4.214s-1.19-4.1-3.6-4.1c-.2,0-.367,0-.95.028Z" transform="translate(385.835 12.011)" fill="#1a1311"/><path d="M136.512,6.068h3.043l.733-1.1,1.486,1.585a.648.648,0,0,1,.193.386c0,.1-.122.221-.292.272l-.438.122v14.3a.528.528,0,0,1-.39.56,2.342,2.342,0,0,1-.757.169c-.221,0-.367-.095-.367-.264V20.121h-3.311v3.023a.525.525,0,0,1-.292.508,2.122,2.122,0,0,1-.879.244.349.349,0,0,1-.363-.315V5.115Zm3.212.583h-3.311v6.114h3.311Zm0,6.7h-3.311V19.51h3.311Zm1.805-1.924c2.239.095,3.142.118,4.237.118h1.119V7.917H145.55c-1.049,0-1.585.024-3.023.075l-.315-.761c1.632.075,2.192.1,3.339.1h1.336V3.459l2.046.244c.367.047.564.221.564.485,0,.146-.126.292-.319.438l-.678.441V7.334h3.287l1.462-1.659,1.8,1.537c.217.169.264.268.264.386,0,.2-.146.319-.41.319H148.5v3.626h4.261l1.533-1.75,1.782,1.537a.716.716,0,0,1,.292.485c0,.217-.146.315-.418.315H152.1v3.386h1.147l1.313-1.486,1.557,1.317a.653.653,0,0,1,.292.485c0,.173-.095.268-.292.268H152.1v7.407c0,.508-.2.8-.828,1.242a1.6,1.6,0,0,1-.879.39c-.292,0-.41-.146-.461-.508-.075-.615-.075-.615-.757-.808l-1.9-.489V22.8l2.2.095.386.028h.17c.315,0,.461-.2.461-.635V16.1h-4.624c-1.123,0-1.947.024-3.969.1l-.272-.8c2.125.1,2.972.122,4.241.122h4.624V12.131h-4.722c-1.025,0-1.872.028-3.973.1ZM143.016,17a6.007,6.007,0,0,1,2.582,1.242,2.95,2.95,0,0,1,1.218,2.046,1.047,1.047,0,0,1-1.025,1.1c-.41,0-.607-.2-.729-.753a5.024,5.024,0,0,0-2.1-3.287Z" transform="translate(396.787 10.176)" fill="#1a1311"/><path d="M143.258,4.585h3.457l.635-.95,1.8,1.486a.586.586,0,0,1,.244.39c0,.193-.193.343-.489.343h-.635c-.871,1.679-.946,1.849-2.8,5.093,2.192,2.334,3.019,4.017,3.019,6.133a3.149,3.149,0,0,1-.946,2.68,2.771,2.771,0,0,1-1.612.71c-.363,0-.508-.2-.532-.639-.028-.583-.075-.658-.682-.8l-1-.213v-.394l1,.028.607.024c1.218,0,1.632-.489,1.632-1.9a7.13,7.13,0,0,0-1.072-3.8,9.409,9.409,0,0,0-.95-1.317c-.169-.217-.169-.217-.319-.434.954-2.657,1.317-3.729,1.927-5.846h-3.678V24.266c0,.272-.583.587-1.048.587-.217,0-.438-.122-.438-.244V3.564Zm8.5,0h5.723l.832-.95,1.632,1.194a.592.592,0,0,1,.292.438c0,.169-.146.315-.465.418l-.41.146v8.207c0,.315-.536.607-1.171.607-.244,0-.39-.118-.39-.292v-.706h-3.461a14.557,14.557,0,0,0,1.8,4.214,35.291,35.291,0,0,0,4.119-3.871l1.391,1.218a.667.667,0,0,1,.24.461c0,.217-.24.367-.607.367h-.757c-1.825,1-2.412,1.317-4.166,2.164a13.651,13.651,0,0,0,5.944,4.486,6.792,6.792,0,0,0-1.947,1.656c-3.433-2.267-5.408-5.483-6.551-10.694h-2.341v7.966c1.975-.339,2.341-.414,4.75-.974l.028.339c-2.68,1.123-3.875,1.608-6.579,2.586l-.292.753c-.075.169-.193.292-.339.292-.1,0-.173-.071-.272-.217l-1.486-2.2c1.34-.146,1.537-.169,2.7-.367V3.635Zm6.043.587h-6.334V8.751H157.8Zm0,4.163h-6.334V13.06H157.8Z" transform="translate(415.915 10.484)" fill="#1a1311"/><path d="M158.043,4.076h.706V16.694h2.267v.78h-2.267V19.2c-.02,1.411.315,1.7,2.022,1.7v.828h-6.748v-.828l.292-.024h.512c1.683-.047,2.05-.363,2.022-1.632V17.474h-6.867v-.583Zm-1.194,12.618V7.34l-5.992,9.354Z" transform="translate(441.214 11.991)" fill="#1a1311"/><path d="M155.5,6.068h3.043l.733-1.1,1.486,1.585a.648.648,0,0,1,.193.386c0,.1-.122.221-.292.272l-.437.122v14.3a.528.528,0,0,1-.39.56,2.343,2.343,0,0,1-.757.169c-.221,0-.367-.095-.367-.264V20.121H155.4v3.023a.525.525,0,0,1-.292.508,2.122,2.122,0,0,1-.879.244.349.349,0,0,1-.363-.315V5.115Zm3.213.583H155.4v6.114h3.311Zm0,6.7H155.4V19.51h3.311Zm1.805-1.924c2.239.095,3.142.118,4.237.118h1.119V7.917h-1.336c-1.049,0-1.585.024-3.023.075l-.315-.761c1.632.075,2.192.1,3.339.1h1.336V3.459l2.046.244c.367.047.564.221.564.485,0,.146-.126.292-.319.438l-.678.441V7.334h3.287l1.462-1.659,1.8,1.537c.217.169.264.268.264.386,0,.2-.146.319-.41.319h-6.405v3.626h4.261l1.533-1.75,1.782,1.537a.716.716,0,0,1,.292.485c0,.217-.146.315-.418.315h-3.847v3.386h1.147l1.313-1.486,1.557,1.317a.653.653,0,0,1,.292.485c0,.173-.095.268-.292.268h-4.017v7.407c0,.508-.2.8-.828,1.242a1.6,1.6,0,0,1-.879.39c-.292,0-.41-.146-.461-.508-.075-.615-.075-.615-.757-.808l-1.9-.489V22.8l2.2.095.386.028h.17c.315,0,.461-.2.461-.635V16.1H164.85c-1.123,0-1.947.024-3.969.1l-.272-.8c2.125.1,2.972.122,4.241.122h4.624V12.131h-4.722c-1.025,0-1.872.028-3.973.1ZM162,17a6.007,6.007,0,0,1,2.582,1.242A2.95,2.95,0,0,1,165.8,20.29a1.047,1.047,0,0,1-1.025,1.1c-.41,0-.607-.2-.729-.753a5.024,5.024,0,0,0-2.1-3.287Z" transform="translate(452.634 10.176)" fill="#1a1311"/><path d="M162.238,4.585H165.7l.631-.95,1.805,1.486a.587.587,0,0,1,.244.39c0,.193-.2.343-.489.343h-.631c-.879,1.679-.954,1.849-2.8,5.093,2.192,2.334,3.019,4.017,3.019,6.133a3.139,3.139,0,0,1-.95,2.68,2.751,2.751,0,0,1-1.608.71c-.363,0-.509-.2-.536-.639-.024-.583-.071-.658-.682-.8l-1-.213v-.394l1,.028.611.024c1.218,0,1.632-.489,1.632-1.9a7.1,7.1,0,0,0-1.072-3.8,9.415,9.415,0,0,0-.95-1.317,5.023,5.023,0,0,1-.315-.434c.95-2.657,1.313-3.729,1.924-5.846h-3.678V24.266c0,.272-.587.587-1.048.587-.221,0-.438-.122-.438-.244V3.564Zm8.5,0h5.727l.824-.95,1.636,1.194a.592.592,0,0,1,.292.438c0,.169-.146.315-.461.418l-.418.146v8.207c0,.315-.536.607-1.171.607-.24,0-.386-.118-.386-.292v-.706h-3.457a14.343,14.343,0,0,0,1.8,4.214,35.9,35.9,0,0,0,4.115-3.871l1.388,1.218a.672.672,0,0,1,.244.461c0,.217-.244.367-.611.367h-.753c-1.829,1-2.408,1.317-4.166,2.164a13.651,13.651,0,0,0,5.944,4.486,6.793,6.793,0,0,0-1.947,1.656c-3.437-2.267-5.408-5.483-6.555-10.694h-2.337v7.966c1.975-.339,2.337-.414,4.75-.974l.024.339c-2.68,1.123-3.871,1.608-6.575,2.586l-.292.753a.416.416,0,0,1-.343.292c-.095,0-.169-.071-.264-.217l-1.49-2.2c1.344-.146,1.533-.169,2.7-.367V3.635Zm6.043.587h-6.331V8.751h6.331Zm0,4.163h-6.331V13.06h6.331Z" transform="translate(471.761 10.484)" fill="#1a1311"/><path d="M174.767,12.322a5.415,5.415,0,0,1,3.824-1.632c2.826,0,4.7,2.168,4.7,5.408,0,3.457-2.172,5.723-5.487,5.723-2.531,0-4.576-1.462-4.576-3.264a1.387,1.387,0,0,1,1.34-1.462,1.515,1.515,0,0,1,1.435,1.486.956.956,0,0,1-.17.607.808.808,0,0,0-.118.418c0,.828.875,1.435,2.073,1.435,2.117,0,3.382-1.853,3.382-4.919,0-2.8-1.115-4.336-3.146-4.336a4.407,4.407,0,0,0-3.339,1.754l-.721-.244.9-9.133h7.742l-.264,1.754h-6.89Z" transform="translate(509.604 12.247)" fill="#1a1311"/><path d="M178.529,6.068h3.043l.729-1.1,1.486,1.585a.648.648,0,0,1,.193.386c0,.1-.122.221-.292.272l-.437.122v14.3a.524.524,0,0,1-.39.56,2.321,2.321,0,0,1-.753.169c-.221,0-.367-.095-.367-.264V20.121h-3.315v3.023a.519.519,0,0,1-.292.508,2.106,2.106,0,0,1-.875.244.347.347,0,0,1-.363-.315V5.115Zm3.213.583h-3.315v6.114h3.315Zm0,6.7h-3.315V19.51h3.315Zm1.8-1.924c2.239.095,3.146.118,4.237.118H188.9V7.917h-1.336c-1.049,0-1.585.024-3.019.075l-.319-.761c1.632.075,2.2.1,3.339.1H188.9V3.459l2.05.244c.367.047.564.221.564.485,0,.146-.126.292-.323.438l-.678.441V7.334H193.8l1.462-1.659,1.8,1.537c.217.169.268.268.268.386,0,.2-.146.319-.414.319h-6.405v3.626h4.261l1.533-1.75,1.782,1.537a.7.7,0,0,1,.292.485c0,.217-.146.315-.418.315h-3.843v3.386h1.143l1.317-1.486,1.557,1.317a.666.666,0,0,1,.292.485c0,.173-.1.268-.292.268h-4.017v7.407c0,.508-.2.8-.832,1.242a1.582,1.582,0,0,1-.875.39c-.292,0-.414-.146-.465-.508-.075-.615-.075-.615-.757-.808l-1.9-.489V22.8l2.192.095.386.028h.173c.315,0,.461-.2.461-.635V16.1h-4.624c-1.123,0-1.951.024-3.973.1l-.268-.8c2.121.1,2.972.122,4.241.122h4.624V12.131H187.78c-1.021,0-1.872.028-3.969.1ZM185.029,17a5.985,5.985,0,0,1,2.582,1.242,2.95,2.95,0,0,1,1.218,2.046,1.044,1.044,0,0,1-1.021,1.1c-.414,0-.611-.2-.729-.753a5.053,5.053,0,0,0-2.1-3.287Z" transform="translate(520.392 10.176)" fill="#1a1311"/><path d="M185.271,4.585h3.461l.631-.95,1.805,1.486a.572.572,0,0,1,.244.39c0,.193-.2.343-.489.343h-.631c-.879,1.679-.95,1.849-2.8,5.093,2.192,2.334,3.019,4.017,3.019,6.133a3.139,3.139,0,0,1-.95,2.68,2.741,2.741,0,0,1-1.608.71c-.363,0-.508-.2-.536-.639-.024-.583-.071-.658-.682-.8l-.993-.213v-.394l.993.028.611.024c1.218,0,1.632-.489,1.632-1.9a7.1,7.1,0,0,0-1.072-3.8,9.426,9.426,0,0,0-.95-1.317,5.023,5.023,0,0,1-.315-.434c.95-2.657,1.313-3.729,1.924-5.846h-3.678V24.266c0,.272-.587.587-1.048.587-.221,0-.437-.122-.437-.244V3.564Zm8.506,0H199.5l.828-.95,1.632,1.194a.581.581,0,0,1,.292.438c0,.169-.146.315-.461.418l-.418.146v8.207c0,.315-.532.607-1.171.607-.24,0-.386-.118-.386-.292v-.706H196.36a14.453,14.453,0,0,0,1.8,4.214,35.9,35.9,0,0,0,4.115-3.871l1.387,1.218a.672.672,0,0,1,.244.461c0,.217-.244.367-.607.367h-.757c-1.829,1-2.408,1.317-4.163,2.164a13.617,13.617,0,0,0,5.94,4.486,6.849,6.849,0,0,0-1.947,1.656c-3.437-2.267-5.408-5.483-6.555-10.694h-2.337v7.966c1.975-.339,2.337-.414,4.75-.974l.024.339c-2.676,1.123-3.871,1.608-6.575,2.586l-.292.753a.411.411,0,0,1-.343.292c-.095,0-.169-.071-.264-.217l-1.49-2.2c1.344-.146,1.537-.169,2.7-.367V3.635Zm6.039.587h-6.331V8.751h6.331Zm0,4.163h-6.331V13.06h6.331Z" transform="translate(539.519 10.484)" fill="#1a1311"/><path d="M198.114,11.013c2.606,0,4.411,2.069,4.411,5.069a6.968,6.968,0,0,1-1.683,4.647,4.41,4.41,0,0,1-3.213,1.293c-3.291,0-5.534-3.335-5.534-8.282,0-5.554,2.779-9.646,6.579-9.646,1.971,0,3.559,1.119,3.559,2.507a1.1,1.1,0,0,1-1.222,1.119c-.851,0-1.214-.41-1.458-1.632-.173-.95-.489-1.214-1.391-1.214-1.336,0-2.582,1.289-3.213,3.41a17.976,17.976,0,0,0-.635,4.868c1.265-1.529,2.314-2.14,3.8-2.14m-3.484,7.139c.465,1.947,1.585,3.118,2.972,3.118,1.707,0,2.7-1.707,2.7-4.6,0-2.874-.926-4.312-2.751-4.312a3.017,3.017,0,0,0-2,.757,7.1,7.1,0,0,0-1.242,1.411,14.1,14.1,0,0,0,.315,3.63" transform="translate(565.101 12.047)" fill="#1a1311"/><path d="M197.541,6.068h3.043l.733-1.1L202.8,6.553A.648.648,0,0,1,203,6.94c0,.1-.122.221-.292.272l-.437.122v14.3a.528.528,0,0,1-.39.56,2.342,2.342,0,0,1-.757.169c-.221,0-.367-.095-.367-.264V20.121h-3.311v3.023a.525.525,0,0,1-.292.508,2.122,2.122,0,0,1-.879.244.349.349,0,0,1-.363-.315V5.115Zm3.213.583h-3.311v6.114h3.311Zm0,6.7h-3.311V19.51h3.311Zm1.805-1.924c2.239.095,3.142.118,4.237.118h1.119V7.917h-1.336c-1.049,0-1.585.024-3.023.075l-.315-.761c1.632.075,2.192.1,3.339.1h1.336V3.459l2.046.244c.367.047.564.221.564.485,0,.146-.126.292-.319.438l-.678.441V7.334h3.287l1.462-1.659,1.8,1.537c.217.169.264.268.264.386,0,.2-.146.319-.41.319h-6.405v3.626h4.261l1.533-1.75,1.782,1.537a.716.716,0,0,1,.292.485c0,.217-.146.315-.418.315h-3.847v3.386h1.147l1.313-1.486,1.557,1.317a.653.653,0,0,1,.292.485c0,.173-.095.268-.292.268h-4.017v7.407c0,.508-.2.8-.828,1.242a1.6,1.6,0,0,1-.879.39c-.292,0-.41-.146-.461-.508-.075-.615-.075-.615-.757-.808l-1.9-.489V22.8l2.2.095.386.028h.17c.315,0,.461-.2.461-.635V16.1h-4.624c-1.123,0-1.947.024-3.969.1l-.272-.8c2.125.1,2.972.122,4.241.122h4.624V12.131H206.8c-1.025,0-1.872.028-3.973.1ZM204.045,17a6.008,6.008,0,0,1,2.582,1.242,2.949,2.949,0,0,1,1.218,2.046,1.047,1.047,0,0,1-1.025,1.1c-.41,0-.607-.2-.729-.753a5.024,5.024,0,0,0-2.1-3.287Z" transform="translate(576.321 10.176)" fill="#1a1311"/><path d="M204.286,4.585h3.461l.631-.95,1.805,1.486a.587.587,0,0,1,.244.39c0,.193-.2.343-.489.343h-.631c-.879,1.679-.954,1.849-2.8,5.093,2.192,2.334,3.019,4.017,3.019,6.133a3.139,3.139,0,0,1-.95,2.68,2.751,2.751,0,0,1-1.608.71c-.363,0-.509-.2-.536-.639-.024-.583-.075-.658-.682-.8l-1-.213v-.394l1,.028.607.024c1.222,0,1.636-.489,1.636-1.9a7.13,7.13,0,0,0-1.072-3.8,9.429,9.429,0,0,0-.95-1.317,5,5,0,0,1-.315-.434c.95-2.657,1.313-3.729,1.924-5.846H203.9V24.266c0,.272-.583.587-1.045.587-.221,0-.441-.122-.441-.244V3.564Zm8.5,0h5.723l.828-.95,1.632,1.194a.587.587,0,0,1,.3.438c0,.169-.146.315-.461.418l-.418.146v8.207c0,.315-.536.607-1.171.607-.24,0-.386-.118-.386-.292v-.706h-3.457a14.345,14.345,0,0,0,1.8,4.214,35.9,35.9,0,0,0,4.115-3.871l1.388,1.218a.672.672,0,0,1,.244.461c0,.217-.244.367-.611.367h-.753c-1.829,1-2.408,1.317-4.166,2.164a13.651,13.651,0,0,0,5.944,4.486,6.791,6.791,0,0,0-1.947,1.656c-3.437-2.267-5.408-5.483-6.555-10.694H212.5v7.966c1.975-.339,2.337-.414,4.75-.974l.024.339c-2.68,1.123-3.871,1.608-6.575,2.586l-.292.753a.416.416,0,0,1-.343.292c-.095,0-.169-.071-.264-.217l-1.49-2.2c1.34-.146,1.533-.169,2.7-.367V3.635Zm6.043.587H212.5V8.751h6.331Zm0,4.163H212.5V13.06h6.331Z" transform="translate(595.446 10.484)" fill="#1a1311"/><path d="M212.644,4.157h9.133V5.225c-3.993,6.019-5.16,8.991-5.16,13.11,0,.607,0,.607.071,1.7V20.4c0,.978-.512,1.608-1.293,1.608-.9,0-1.36-.682-1.36-1.971a13.841,13.841,0,0,1,1.214-5.069,48.77,48.77,0,0,1,5.211-9.086h-5.109c-1.659.024-2.27.536-3.339,2.85l-.709-.339Z" transform="translate(621.61 12.229)" fill="#1a1311"/><path d="M216.618,6.068h3.043l.729-1.1,1.486,1.585a.648.648,0,0,1,.193.386c0,.1-.122.221-.292.272l-.437.122v14.3a.524.524,0,0,1-.39.56,2.321,2.321,0,0,1-.753.169c-.221,0-.367-.095-.367-.264V20.121h-3.315v3.023a.519.519,0,0,1-.292.508,2.106,2.106,0,0,1-.875.244.347.347,0,0,1-.363-.315V5.115Zm3.213.583h-3.315v6.114h3.315Zm0,6.7h-3.315V19.51h3.315Zm1.8-1.924c2.239.095,3.146.118,4.237.118h1.119V7.917h-1.336c-1.049,0-1.585.024-3.02.075l-.319-.761c1.632.075,2.2.1,3.339.1h1.336V3.459l2.05.244c.367.047.564.221.564.485,0,.146-.126.292-.323.438l-.678.441V7.334h3.287l1.462-1.659,1.8,1.537c.217.169.268.268.268.386,0,.2-.146.319-.414.319H228.6v3.626h4.261l1.533-1.75,1.782,1.537a.7.7,0,0,1,.292.485c0,.217-.146.315-.418.315h-3.843v3.386h1.143l1.317-1.486,1.557,1.317a.665.665,0,0,1,.292.485c0,.173-.1.268-.292.268h-4.017v7.407c0,.508-.2.8-.832,1.242a1.582,1.582,0,0,1-.875.39c-.292,0-.414-.146-.465-.508-.075-.615-.075-.615-.757-.808l-1.9-.489V22.8l2.192.095.386.028h.173c.315,0,.461-.2.461-.635V16.1h-4.624c-1.123,0-1.951.024-3.973.1l-.268-.8c2.121.1,2.972.122,4.241.122H230.6V12.131h-4.726c-1.021,0-1.872.028-3.969.1ZM223.118,17a5.985,5.985,0,0,1,2.582,1.242,2.95,2.95,0,0,1,1.218,2.046,1.044,1.044,0,0,1-1.021,1.1c-.414,0-.611-.2-.729-.753a5.054,5.054,0,0,0-2.1-3.287Z" transform="translate(632.441 10.176)" fill="#1a1311"/><path d="M223.36,4.585h3.461l.631-.95,1.805,1.486a.586.586,0,0,1,.244.39c0,.193-.2.343-.489.343h-.631c-.879,1.679-.954,1.849-2.8,5.093,2.192,2.334,3.019,4.017,3.019,6.133a3.139,3.139,0,0,1-.95,2.68,2.75,2.75,0,0,1-1.608.71c-.363,0-.509-.2-.536-.639-.024-.583-.071-.658-.682-.8l-1-.213v-.394l1,.028.611.024c1.218,0,1.632-.489,1.632-1.9a7.1,7.1,0,0,0-1.072-3.8,9.439,9.439,0,0,0-.95-1.317,5,5,0,0,1-.315-.434c.95-2.657,1.313-3.729,1.924-5.846h-3.678V24.266c0,.272-.587.587-1.049.587-.221,0-.437-.122-.437-.244V3.564Zm8.5,0h5.727l.828-.95,1.632,1.194a.592.592,0,0,1,.292.438c0,.169-.146.315-.461.418l-.418.146v8.207c0,.315-.536.607-1.171.607-.24,0-.386-.118-.386-.292v-.706h-3.457a14.341,14.341,0,0,0,1.8,4.214,35.9,35.9,0,0,0,4.115-3.871l1.387,1.218a.672.672,0,0,1,.244.461c0,.217-.244.367-.611.367h-.753c-1.829,1-2.409,1.317-4.166,2.164a13.651,13.651,0,0,0,5.944,4.486,6.791,6.791,0,0,0-1.947,1.656c-3.437-2.267-5.408-5.483-6.555-10.694h-2.337v7.966c1.975-.339,2.337-.414,4.75-.974l.024.339c-2.68,1.123-3.871,1.608-6.575,2.586l-.292.753a.416.416,0,0,1-.343.292c-.095,0-.17-.071-.264-.217l-1.49-2.2c1.344-.146,1.533-.169,2.7-.367V3.635Zm6.043.587h-6.331V8.751h6.331Zm0,4.163h-6.331V13.06h6.331Z" transform="translate(651.569 10.484)" fill="#1a1311"/><path d="M242.726,80.889l-.761-.761,7.687-7.655-7.687-7.659.761-.757,7.659,7.679,7.659-7.679.757.757-7.683,7.659,7.683,7.655-.757.761-7.659-7.683Zm3.189-8.416a1.975,1.975,0,1,1-1.963-1.963,1.967,1.967,0,0,1,1.963,1.963m6.429-6.433a1.961,1.961,0,1,1-1.959-1.983,1.97,1.97,0,0,1,1.959,1.983m0,12.862a1.961,1.961,0,1,1-1.959-1.963,1.955,1.955,0,0,1,1.959,1.963m6.457-6.429a1.975,1.975,0,1,1-1.987-1.963,1.978,1.978,0,0,1,1.987,1.963" transform="translate(711.808 188.444)" fill="#1a1311"/><path d="M247.258,81.7c.355-4.111,2.881-5.838,7.21-8.294,2.574-1.47,3.733-2.109,3.733-4.281,0-2.72-2.219-3.382-3.827-3.382-4.068,0-4.253,3.425-4.3,4.352h-2.247a6.331,6.331,0,0,1,1.533-4.163,6.775,6.775,0,0,1,4.967-1.959c2.46,0,6,1.131,6,5.03,0,3.055-1.774,4.352-4.939,6.031-4.352,2.314-4.939,3.8-5.416,4.892h10.355V81.7Z" transform="translate(727.378 188.197)" fill="#1a1311"/><path d="M257.657,82.173c-5.294,0-6.547-4.75-6.547-9.1s1.253-9.1,6.547-9.1,6.524,4.8,6.524,9.1c0,4.324-1.226,9.1-6.524,9.1m0-16.429c-3.378,0-4.3,3.453-4.3,7.328,0,4.044.993,7.328,4.3,7.328,3.335,0,4.3-3.307,4.3-7.328,0-3.993-.97-7.328-4.3-7.328" transform="translate(738.71 188.197)" fill="#1a1311"/><path d="M254.818,81.7c.355-4.111,2.881-5.838,7.21-8.294,2.574-1.47,3.733-2.109,3.733-4.281,0-2.72-2.219-3.382-3.827-3.382-4.068,0-4.253,3.425-4.3,4.352h-2.247a6.33,6.33,0,0,1,1.533-4.163,6.775,6.775,0,0,1,4.967-1.959c2.46,0,6,1.131,6,5.03,0,3.055-1.774,4.352-4.939,6.031-4.352,2.314-4.939,3.8-5.416,4.892h10.355V81.7Z" transform="translate(749.618 188.197)" fill="#1a1311"/><path d="M265.194,82.173a6.3,6.3,0,0,1-5.436-2.341,6.191,6.191,0,0,1-1.088-3.453h2.152c.067.9.284,4.021,4.419,4.021,2.905,0,4.372-1.679,4.372-3.78,0-2.507-2.077-3.311-3.922-3.311h-1.821V71.747h1.537c1.324,0,3.685-.733,3.685-3.023,0-1.324-.753-2.98-3.642-2.98a3.9,3.9,0,0,0-3.071,1.183,4.012,4.012,0,0,0-.875,2.361h-2.129c.331-4.182,3.453-5.314,6.1-5.314,3.449,0,5.743,1.841,5.743,4.509a3.872,3.872,0,0,1-3,3.906,4.078,4.078,0,0,1,3.52,4.253c0,3.071-2.385,5.53-6.547,5.53" transform="translate(760.95 188.197)" fill="#1a1311"/><path d="M275.006,79.55v5.483h-1.8V79.55H262.593V77.894h3.973V71.56H273.2V67.918h-5.341a26.726,26.726,0,0,1-2.645,3.217l-1.541-.993a19.32,19.32,0,0,0,4.683-6.713,7.491,7.491,0,0,1,1.656.733c.284.118.4.189.4.355,0,.284-.355.331-.709.374-.166.288-.355.639-.777,1.376h13.449v1.652h-7.375V71.56h6.26v1.656h-6.26v4.679H283.3V79.55Zm-1.8-6.334h-4.915v4.679H273.2Z" transform="translate(772.491 186.591)" fill="#1a1311"/><path d="M272.742,71.743c-.051,3.331-.118,9.05-2.649,13.213l-1.608-.615c1.561-2.7,2.527-5.558,2.527-12.361,0-.9-.043-5.2-.067-5.96h7.9V63.446l1.864.118c.142,0,.473.024.473.284,0,.284-.351.449-.5.52V66.02h9.1v1.541H272.667c.051,1.226.075,1.628.075,2.763H276.5V68.172l1.774.118c.28.024.5.047.5.236,0,.217-.217.359-.615.548v1.25h4.679V68.172l1.679.118c.236.024.52.047.52.288,0,.142-.075.233-.52.5v1.25h4.111v1.419h-4.111v3.075H276.5V71.743Zm.729,11.94a23.061,23.061,0,0,0,6.338-2.01,12.321,12.321,0,0,1-2.582-3.027l1.447-.639a9.932,9.932,0,0,0,2.527,2.814,11.858,11.858,0,0,0,3.051-2.98H273.968V76.308h12.2l.611.682a16.107,16.107,0,0,1-4.182,4.655,17.606,17.606,0,0,0,6.949,1.49l-.8,1.726c-4.537-.615-6.145-1.344-7.608-2.247a24.972,24.972,0,0,1-6.669,2.483Zm9.362-11.94h-4.679V73.4h4.679Z" transform="translate(789.824 186.644)" fill="#1a1311"/><path d="M283.616,68.273l1.892.118c.331.024.445.118.445.26,0,.189-.138.284-.564.449v.97h6.287v1.537H285.39v2.03h5.6V75.1h-5.6a10.5,10.5,0,0,1-.189,2.1h8.936v1.585h-8.018c2.129,3.094,5.96,3.733,8.3,4.088l-1.159,1.8c-3.756-.851-6.547-1.963-8.676-5.388-1.419,2.625-3.4,4.679-8.861,5.365l-.97-1.679c5.976-.54,7.324-2.767,8.1-4.182h-7.939V77.209h8.435a10.212,10.212,0,0,0,.26-2.1h-5.79V73.638h5.79v-2.03H277.4V70.071h6.212Zm-.047-4.8,2.034.142c.095.024.378.047.378.28s-.284.406-.568.548v1.3h8.747v4.328h-1.727v-2.72H276.576v2.838h-1.73V65.743h8.723Z" transform="translate(808.269 186.732)" fill="#1a1311"/><path d="M288.846,72.047a69.351,69.351,0,0,1-.5,8.865c-.473,3.477-1.391,3.477-3.761,3.524l-.469-1.845c.5.024,1.131.071,1.391.071.591,0,.922-.114,1.23-1.841a41.041,41.041,0,0,0,.449-7.237h-2.243a34.018,34.018,0,0,1-.761,5.365,16.748,16.748,0,0,1-2.243,5.605l-1.537-.993c3.027-4.281,3.027-10.919,3.027-13.9h-2.649V68.125h3.449V63.683l1.754.142c.351.047.54.095.54.26,0,.233-.426.422-.639.5v3.544h3.382v1.537h-4.186c-.024,1.391-.047,1.845-.071,2.385Zm-.236-.847a29.259,29.259,0,0,0,4.3-7.753l1.561.828c.355.189.382.26.382.331,0,.26-.331.284-.643.307-.185.449-.568,1.3-1.064,2.219H301.7v1.612h-9.433a37.256,37.256,0,0,1-2.318,3.567Zm5.838,13.237c-2.531,0-2.574-1.49-2.574-2.294V76.119l-2.342.493L289.414,75l2.46-.426V71.365l1.746.26c.378.047.449.142.449.236,0,.209-.26.331-.615.449v1.963l2.294-.5v-4l1.655.142c.355.047.5.047.5.237,0,.213-.26.355-.548.473V73.47l3-.615.737.54a25.1,25.1,0,0,1-.619,5.96c-.374,1.372-.851,1.49-2.337,1.557l-.733-1.8a2.37,2.37,0,0,0,.875.193c.615,0,.78-.71.895-1.514a28.636,28.636,0,0,0,.264-3.216L297.353,75v6.338h-1.6V75.358l-2.294.453V81.29c0,.97.051,1.656,1.679,1.656h3.619c1.439,0,1.793-.639,2.341-2.574l1.486.97c-.946,3.094-2.247,3.094-3.548,3.094Z" transform="translate(824.896 186.644)" fill="#1a1311"/><path d="M286.347,72.8a25.448,25.448,0,0,0,4.868-9.314l1.679.615c.047.024.284.114.284.28,0,.24-.236.264-.52.288-.757,1.8-.922,2.2-1.253,2.881.071.1.307.307.307.473,0,.122-.331.449-.5.639V84.738H289.56V71.265a17.792,17.792,0,0,1-1.983,2.767ZM300.7,69.586c-.26,3.709-.568,6.831-2.27,10.166a15.472,15.472,0,0,1-4.04,4.892l-1.325-1.206a13.243,13.243,0,0,0,4.726-6.334,8.869,8.869,0,0,0-2.385-1.727l.729-1.419a10.041,10.041,0,0,1,2.227,1.419,23.557,23.557,0,0,0,.662-4.182h-2.771a17.059,17.059,0,0,1-2.527,5.176l-1.537-.682a15.364,15.364,0,0,0,2.531-4.943,20.709,20.709,0,0,0,.871-4.541h-2.219V64.671h8.179V66.2h-4.257a25.074,25.074,0,0,1-.587,3.382ZM302.28,66.7l1.608.1c.071,0,.422.024.422.284,0,.138-.166.256-.351.422V79.019H302.28Zm3.567-3.071,1.75.118c.118,0,.355.024.355.189,0,.213-.26.378-.5.5V82.491c0,1.4-.118,2.081-1.963,2.081h-1.912l-.8-1.963a16.44,16.44,0,0,0,2.385.26c.686,0,.686-.28.686-.686Z" transform="translate(842.37 186.768)" fill="#1a1311"/></g></g></svg>